<?xml version="1.0" encoding="UTF-8" standalone="no"?>
<!-- Created with Inkscape (http://www.inkscape.org/) -->

<svg
   xmlns:dc="http://purl.org/dc/elements/1.1/"
   xmlns:cc="http://creativecommons.org/ns#"
   xmlns:rdf="http://www.w3.org/1999/02/22-rdf-syntax-ns#"
   xmlns:svg="http://www.w3.org/2000/svg"
   xmlns="http://www.w3.org/2000/svg"
   xmlns:sodipodi="http://sodipodi.sourceforge.net/DTD/sodipodi-0.dtd"
   xmlns:inkscape="http://www.inkscape.org/namespaces/inkscape"
   width="60"
   height="56"
   id="svg1315"
   sodipodi:version="0.32"
   inkscape:version="0.48.1 r9760"
   version="1.0"
   sodipodi:docname="AU:NH_wide.svg">
  <defs
     id="defs1317">
    <inkscape:perspective
       sodipodi:type="inkscape:persp3d"
       inkscape:vp_x="0 : 579.375 : 1"
       inkscape:vp_y="0 : 1000 : 0"
       inkscape:vp_z="1446.25 : 579.375 : 1"
       inkscape:persp3d-origin="723.125 : 386.25 : 1"
       id="perspective13" />
  </defs>
  <sodipodi:namedview
     id="base"
     pagecolor="#ffffff"
     bordercolor="#666666"
     borderopacity="1.0"
     inkscape:pageopacity="0.0"
     inkscape:pageshadow="2"
     inkscape:zoom="14.482143"
     inkscape:cx="30"
     inkscape:cy="28"
     inkscape:document-units="px"
     inkscape:current-layer="layer1"
     inkscape:window-width="1278"
     inkscape:window-height="996"
     inkscape:window-x="1"
     inkscape:window-y="27"
     showgrid="true"
     showborder="true"
     inkscape:showpageshadow="false"
     inkscape:window-maximized="0"
     gridtolerance="10">
    <inkscape:grid
       type="xygrid"
       id="grid3119"
       empspacing="5"
       visible="true"
       enabled="true"
       snapvisiblegridlinesonly="true" />
  </sodipodi:namedview>
  <metadata
     id="metadata1320">
    <rdf:RDF>
      <cc:Work
         rdf:about="">
        <dc:format>image/svg+xml</dc:format>
        <dc:type
           rdf:resource="http://purl.org/dc/dcmitype/StillImage" />
        <dc:title />
      </cc:Work>
    </rdf:RDF>
  </metadata>
  <g
     inkscape:label="Layer 1"
     inkscape:groupmode="layer"
     id="layer1"
     transform="translate(-710.65866,-535.2834)">
    <path
       id="path1435"
       d=""
       style="fill:#a8e50a"
       inkscape:connector-curvature="0" />
    <g
       id="g3121"
       transform="matrix(0.96666892,0,0,0.96428198,24.687019,20.119468)">
      <path
         inkscape:connector-curvature="0"
         style="fill:#408614;fill-opacity:1;stroke:none"
         d="m 738.21541,590.47288 c -1.26889,-0.43457 -4.96741,-1.69589 -8.21891,-2.80296 -3.2515,-1.10709 -6.30117,-2.14604 -6.777,-2.3088 -0.47583,-0.16268 -0.93003,-0.29544 -1.00932,-0.29485 -0.0794,6.5e-4 -0.79306,-0.25816 -1.58611,-0.57514 -0.79305,-0.31693 -2.73247,-0.99983 -4.30985,-1.51749 -3.70121,-1.21472 -4.0391,-1.40046 -4.83212,-2.65641 l -0.66304,-1.05003 -0.0801,-21.992 -0.0803,-21.99201 29.99993,0 29.99993,0 0,22.35246 0,22.35245 -0.64882,0.76446 c -0.62914,0.74119 -2.14467,1.43274 -6.30721,2.87793 -4.66351,1.61913 -22.85125,7.6702 -23.00229,7.65288 -0.0977,-0.0112 -1.2158,-0.37593 -2.48468,-0.81049 z"
         id="path2378" />
      <path
         inkscape:connector-curvature="0"
         id="path1441"
         d="m 738.59401,586.87772 c -1.145,-0.37564 -4.48246,-1.46601 -7.41657,-2.42302 -2.93408,-0.95701 -5.68601,-1.85511 -6.1154,-1.99581 -0.42939,-0.14084 -0.83924,-0.25536 -0.9108,-0.25481 -0.0715,5.3e-4 -0.71563,-0.22315 -1.43127,-0.49717 -0.71563,-0.27412 -2.46573,-0.86432 -3.88911,-1.3118 -3.33991,-1.05007 -3.64479,-1.21065 -4.3604,-2.29632 l -0.59831,-0.90771 -0.0724,-19.01091 -0.0724,-19.01094 27.07133,0 27.0713,0 0,19.32256 0,19.3225 -0.58552,0.66083 c -0.56769,0.64069 -1.93527,1.23849 -5.69146,2.4878 -4.20827,1.39965 -20.62051,6.63048 -20.75679,6.6155 -0.088,-0.008 -1.09711,-0.32497 -2.24213,-0.70061 z"
         style="fill:#408614;fill-opacity:1;stroke:#fde352;stroke-width:2.24968576;stroke-miterlimit:4;stroke-opacity:1" />
    </g>
    <text
       xml:space="preserve"
       style="font-size:1927.74414062px;font-style:normal;font-variant:normal;font-weight:normal;font-stretch:normal;text-align:center;line-height:100%;text-anchor:middle;fill:#fde352;fill-opacity:1;stroke:none"
       x="752.67041"
       y="1299.484"
       id="text7150"
       sodipodi:linespacing="100%"
       transform="scale(0.99235194,1.007707)"><tspan
         sodipodi:role="line"
         id="tspan7152"
         x="752.67041"
         y="1299.484" /></text>
    <text
       xml:space="preserve"
       style="font-size:32.00000009px;font-style:normal;font-variant:normal;font-weight:normal;font-stretch:normal;text-align:center;line-height:100%;writing-mode:lr;text-anchor:middle;fill:#fde352;fill-opacity:1;fill-rule:nonzero;stroke:none;font-family:Roadgeek 2005 Series C;-inkscape-font-specification:Roadgeek 2005 Series C"
       x="798.92725"
       y="528.69061"
       id="routenum"
       sodipodi:linespacing="100%"
       transform="scale(0.92706647,1.0786713)"><tspan
         sodipodi:role="line"
         id="tspan3125">%num%</tspan></text>
  </g>
</svg>
