<?xml version="1.0" encoding="UTF-8" standalone="no"?>
<!-- Created with Inkscape (http://www.inkscape.org/) -->

<svg
   xmlns:dc="http://purl.org/dc/elements/1.1/"
   xmlns:cc="http://creativecommons.org/ns#"
   xmlns:rdf="http://www.w3.org/1999/02/22-rdf-syntax-ns#"
   xmlns:svg="http://www.w3.org/2000/svg"
   xmlns="http://www.w3.org/2000/svg"
   xmlns:sodipodi="http://sodipodi.sourceforge.net/DTD/sodipodi-0.dtd"
   xmlns:inkscape="http://www.inkscape.org/namespaces/inkscape"
   width="48"
   height="56"
   id="svg2"
   sodipodi:version="0.32"
   inkscape:version="0.48.1 r9760"
   version="1.0"
   sodipodi:docname="AU:NR.svg">
  <defs
     id="defs4">
    <inkscape:perspective
       sodipodi:type="inkscape:persp3d"
       inkscape:vp_x="0 : 456 : 1"
       inkscape:vp_y="0 : 1000 : 0"
       inkscape:vp_z="773 : 456 : 1"
       inkscape:persp3d-origin="386.5 : 304 : 1"
       id="perspective3821" />
  </defs>
  <sodipodi:namedview
     id="base"
     pagecolor="#ffffff"
     bordercolor="#666666"
     borderopacity="1.0"
     inkscape:pageopacity="0.0"
     inkscape:pageshadow="2"
     inkscape:zoom="14.482143"
     inkscape:cx="24"
     inkscape:cy="28"
     inkscape:document-units="px"
     inkscape:current-layer="layer1"
     inkscape:window-width="1278"
     inkscape:window-height="996"
     inkscape:window-x="1"
     inkscape:window-y="27"
     showgrid="true"
     showborder="true"
     inkscape:showpageshadow="false"
     inkscape:window-maximized="0">
    <inkscape:grid
       type="xygrid"
       id="grid2991"
       empspacing="5"
       visible="true"
       enabled="true"
       snapvisiblegridlinesonly="true" />
  </sodipodi:namedview>
  <metadata
     id="metadata7">
    <rdf:RDF>
      <cc:Work
         rdf:about="">
        <dc:format>image/svg+xml</dc:format>
        <dc:type
           rdf:resource="http://purl.org/dc/dcmitype/StillImage" />
        <dc:title />
      </cc:Work>
    </rdf:RDF>
  </metadata>
  <g
     inkscape:label="Layer 1"
     inkscape:groupmode="layer"
     id="layer1"
     transform="translate(-378.02319,-410)">
    <path
       id="path1435"
       d=""
       style="fill:#a8e50a"
       inkscape:connector-curvature="0" />
    <g
       id="g4379"
       transform="matrix(2.7136564,0,0,2.70035,-646.80243,-793.36366)">
      <path
         style="fill:#ffffff;fill-opacity:1;stroke:#000000;stroke-width:0.16763288;stroke-miterlimit:4;stroke-opacity:1;stroke-dasharray:none"
         d="m 385.81553,465.62913 c -0.35495,-0.1539 -1.38955,-0.6006 -2.29911,-0.99266 -0.90956,-0.39207 -1.76266,-0.76001 -1.89576,-0.81766 -0.13311,-0.0576 -0.26017,-0.10463 -0.28235,-0.10441 -0.0222,2.2e-4 -0.22185,-0.0914 -0.44369,-0.20369 -0.22185,-0.11225 -0.76437,-0.35409 -1.20562,-0.53742 -1.03536,-0.43019 -1.12987,-0.49597 -1.35172,-0.94076 l -0.18547,-0.37186 -0.0224,-7.78843 -0.0224,-7.78843 8.39204,0 8.39204,0 0,7.91608 0,7.91608 -0.18151,0.27073 c -0.17598,0.26249 -0.59994,0.5074 -1.76434,1.01921 -1.30455,0.57342 -6.3923,2.71639 -6.43455,2.71026 -0.0273,-0.004 -0.3401,-0.13314 -0.69506,-0.28704 z"
         id="path2378"
         inkscape:connector-curvature="0" />
      <path
         style="fill:#ffffff;fill-opacity:1;stroke:#000000;stroke-width:0.72282499;stroke-miterlimit:4;stroke-opacity:1;stroke-dasharray:none"
         d="m 385.8513,464.67086 c -0.31802,-0.13963 -1.24496,-0.54491 -2.05988,-0.90062 -0.81492,-0.35571 -1.57924,-0.68953 -1.69849,-0.74183 -0.11926,-0.0523 -0.2331,-0.0949 -0.25297,-0.0947 -0.0199,1.9e-4 -0.19876,-0.083 -0.39752,-0.18481 -0.19876,-0.10184 -0.68484,-0.32125 -1.08017,-0.48759 -0.92762,-0.39029 -1.0123,-0.44997 -1.21106,-0.85352 l -0.16617,-0.33738 -0.0201,-7.06623 -0.0201,-7.06622 7.51879,0 7.5188,0 0,7.18204 0,7.18204 -0.16262,0.24563 c -0.15767,0.23815 -0.53752,0.46035 -1.58075,0.9247 -1.1688,0.52024 -5.72715,2.46451 -5.765,2.45894 -0.0245,-0.004 -0.30471,-0.12079 -0.62273,-0.26042 z"
         id="path1441"
         inkscape:connector-curvature="0" />
    </g>
    <text
       xml:space="preserve"
       style="font-size:32.00000002px;font-style:normal;font-variant:normal;font-weight:normal;font-stretch:normal;text-align:center;line-height:100%;writing-mode:lr;text-anchor:middle;fill:#000000;fill-opacity:1;fill-rule:nonzero;stroke:none;font-family:Roadgeek 2005 Series D;-inkscape-font-specification:Roadgeek 2005 Series D"
       x="399.755"
       y="447.52487"
       id="routenum"
       sodipodi:linespacing="100%"
       transform="scale(1.0056739,0.99435811)"><tspan
         sodipodi:role="line"
         id="tspan3050">%num%</tspan></text>
  </g>
</svg>
