<?xml version="1.0" encoding="UTF-8" standalone="no"?>
<!-- Created with Inkscape (http://www.inkscape.org/) -->

<svg
   xmlns:dc="http://purl.org/dc/elements/1.1/"
   xmlns:cc="http://creativecommons.org/ns#"
   xmlns:rdf="http://www.w3.org/1999/02/22-rdf-syntax-ns#"
   xmlns:svg="http://www.w3.org/2000/svg"
   xmlns="http://www.w3.org/2000/svg"
   xmlns:sodipodi="http://sodipodi.sourceforge.net/DTD/sodipodi-0.dtd"
   xmlns:inkscape="http://www.inkscape.org/namespaces/inkscape"
   width="48"
   height="56"
   id="svg1315"
   sodipodi:version="0.32"
   inkscape:version="0.48.1 r9760"
   version="1.0"
   sodipodi:docname="AU:NH_narrow.svg">
  <defs
     id="defs1317">
    <inkscape:perspective
       sodipodi:type="inkscape:persp3d"
       inkscape:vp_x="0 : 579.375 : 1"
       inkscape:vp_y="0 : 1000 : 0"
       inkscape:vp_z="1446.25 : 579.375 : 1"
       inkscape:persp3d-origin="723.125 : 386.25 : 1"
       id="perspective13" />
    <inkscape:perspective
       id="perspective3698"
       inkscape:persp3d-origin="0.5 : 0.33333333 : 1"
       inkscape:vp_z="1 : 0.5 : 1"
       inkscape:vp_y="0 : 1000 : 0"
       inkscape:vp_x="0 : 0.5 : 1"
       sodipodi:type="inkscape:persp3d" />
  </defs>
  <sodipodi:namedview
     id="base"
     pagecolor="#ffffff"
     bordercolor="#666666"
     borderopacity="1.0"
     inkscape:pageopacity="0.0"
     inkscape:pageshadow="2"
     inkscape:zoom="14.482143"
     inkscape:cx="24"
     inkscape:cy="28"
     inkscape:document-units="px"
     inkscape:current-layer="layer1"
     inkscape:window-width="1278"
     inkscape:window-height="996"
     inkscape:window-x="1"
     inkscape:window-y="27"
     showgrid="true"
     showborder="true"
     inkscape:showpageshadow="false"
     inkscape:window-maximized="0"
     gridtolerance="10">
    <inkscape:grid
       type="xygrid"
       id="grid3044"
       empspacing="5"
       visible="true"
       enabled="true"
       snapvisiblegridlinesonly="true" />
  </sodipodi:namedview>
  <metadata
     id="metadata1320">
    <rdf:RDF>
      <cc:Work
         rdf:about="">
        <dc:format>image/svg+xml</dc:format>
        <dc:type
           rdf:resource="http://purl.org/dc/dcmitype/StillImage" />
        <dc:title />
      </cc:Work>
    </rdf:RDF>
  </metadata>
  <g
     inkscape:label="Layer 1"
     inkscape:groupmode="layer"
     id="layer1"
     transform="translate(-714.64912,-535.29466)">
    <g
       id="g3052"
       transform="matrix(0.95834292,0,0,0.96428198,30.769997,20.119649)">
      <path
         inkscape:connector-curvature="0"
         style="fill:#408614;fill-opacity:1;stroke:none"
         d="m 736.69483,590.48437 c -1.0151,-0.43456 -3.97388,-1.69589 -6.57508,-2.80296 -2.60117,-1.10707 -5.04087,-2.14603 -5.42154,-2.3088 -0.38066,-0.16268 -0.74401,-0.29543 -0.80745,-0.29484 -0.0634,6.1e-4 -0.63444,-0.25816 -1.26888,-0.57515 -0.63442,-0.31693 -2.18598,-0.99983 -3.44785,-1.5175 -2.96095,-1.21469 -3.23127,-1.40045 -3.86567,-2.6564 l -0.53043,-1.05002 -0.0643,-21.992 -0.0643,-21.99202 23.99977,0 23.99975,0 0,22.35247 0,22.35243 -0.51908,0.76449 c -0.50328,0.7412 -1.71571,1.43271 -5.04572,2.87792 -3.73077,1.61913 -18.28085,7.6702 -18.40167,7.65287 -0.0782,-0.0112 -0.97264,-0.37593 -1.98773,-0.81049 z"
         id="path2378-5" />
      <path
         inkscape:connector-curvature="0"
         style="fill:#408614;fill-opacity:1;stroke:#fde352;stroke-width:2.03529096;stroke-miterlimit:4;stroke-opacity:1;stroke-dasharray:none"
         d="m 736.81536,587.57345 c -0.9005,-0.39097 -3.52519,-1.52576 -5.83266,-2.52178 -2.30747,-0.99599 -4.4717,-1.93071 -4.80939,-2.07715 -0.33767,-0.14644 -0.66001,-0.26573 -0.71626,-0.26517 -0.0564,5.6e-4 -0.56283,-0.2324 -1.12563,-0.51745 -0.56279,-0.28514 -1.93915,-0.89952 -3.05854,-1.36526 -2.62661,-1.09283 -2.86639,-1.25994 -3.42919,-2.38989 l -0.47052,-0.94466 -0.0569,-19.78565 -0.0569,-19.7856 21.28985,0 21.28986,0 0,20.10991 0,20.10991 -0.46046,0.68775 c -0.44645,0.66684 -1.52201,1.289 -4.47598,2.58919 -3.30954,1.4567 -16.21669,6.90068 -16.3239,6.88511 -0.0694,-0.0112 -0.86279,-0.3382 -1.76328,-0.72918 z"
         id="path1441-5" />
    </g>
    <path
       id="path1435"
       d=""
       style="fill:#a8e50a"
       inkscape:connector-curvature="0" />
    <text
       xml:space="preserve"
       style="font-size:2091.07666016px;font-style:normal;font-variant:normal;font-weight:normal;font-stretch:normal;text-align:center;line-height:100%;text-anchor:middle;fill:#fde352;fill-opacity:1;stroke:none"
       x="693.04028"
       y="1409.5641"
       id="text7150"
       sodipodi:linespacing="100%"
       transform="scale(1.0764307,0.9289962)"><tspan
         sodipodi:role="line"
         id="tspan7152"
         x="693.04028"
         y="1409.5641" /></text>
    <text
       xml:space="preserve"
       style="font-size:32.00000012px;font-style:normal;font-variant:normal;font-weight:normal;font-stretch:normal;text-align:center;line-height:100%;writing-mode:lr;text-anchor:middle;fill:#fde352;fill-opacity:1;fill-rule:nonzero;stroke:none;font-family:Roadgeek 2005 Series D;-inkscape-font-specification:Roadgeek 2005 Series D"
       x="734.5257"
       y="573.49615"
       id="routenum"
       sodipodi:linespacing="100%"
       transform="scale(1.0056137,0.99441763)"><tspan
         sodipodi:role="line"
         id="tspan3046">%num%</tspan></text>
  </g>
</svg>
