<?xml version="1.0" encoding="UTF-8" standalone="no"?>
<!-- Created with Inkscape (http://www.inkscape.org/) -->

<svg
   xmlns:dc="http://purl.org/dc/elements/1.1/"
   xmlns:cc="http://creativecommons.org/ns#"
   xmlns:rdf="http://www.w3.org/1999/02/22-rdf-syntax-ns#"
   xmlns:svg="http://www.w3.org/2000/svg"
   xmlns="http://www.w3.org/2000/svg"
   xmlns:sodipodi="http://sodipodi.sourceforge.net/DTD/sodipodi-0.dtd"
   xmlns:inkscape="http://www.inkscape.org/namespaces/inkscape"
   width="48"
   height="24"
   id="svg2"
   sodipodi:version="0.32"
   inkscape:version="0.48.3.1 r9886"
   version="1.0"
   sodipodi:docname="Emergency_plate.svg"
   inkscape:output_extension="org.inkscape.output.svg.inkscape">
  <defs
     id="defs4" />
  <sodipodi:namedview
     id="base"
     pagecolor="#ffffff"
     bordercolor="#666666"
     borderopacity="1.0"
     gridtolerance="10000"
     guidetolerance="10"
     objecttolerance="10"
     inkscape:pageopacity="0.0"
     inkscape:pageshadow="2"
     inkscape:zoom="23.375"
     inkscape:cx="24"
     inkscape:cy="12"
     inkscape:document-units="px"
     inkscape:current-layer="layer1"
     width="600px"
     height="300px"
     inkscape:window-width="1278"
     inkscape:window-height="1006"
     inkscape:window-x="1"
     inkscape:window-y="1"
     showgrid="true"
     inkscape:showpageshadow="false"
     showguides="true"
     inkscape:guide-bbox="true"
     inkscape:window-maximized="0">
    <inkscape:grid
       type="xygrid"
       id="grid2995"
       empspacing="5"
       visible="true"
       enabled="true"
       snapvisiblegridlinesonly="true" />
  </sodipodi:namedview>
  <metadata
     id="metadata7">
    <rdf:RDF>
      <cc:Work
         rdf:about="">
        <dc:format>image/svg+xml</dc:format>
        <dc:type
           rdf:resource="http://purl.org/dc/dcmitype/StillImage" />
      </cc:Work>
    </rdf:RDF>
  </metadata>
  <g
     inkscape:label="Layer 1"
     inkscape:groupmode="layer"
     id="layer1"
     transform="translate(0,-276.00002)">
    <path
       style="color:#000000;fill:#ff6600;fill-opacity:1;fill-rule:nonzero;stroke:none;stroke-width:1;marker:none;visibility:visible;display:inline;overflow:visible"
       d="m 3.874988,277.00002 40.250024,0 c 1.592745,0 2.874988,1.22649 2.874988,2.74997 l 0,16.50006 c 0,1.52348 -1.282243,2.74997 -2.874988,2.74997 l -40.250024,0 C 2.2822446,299.00002 1,297.77353 1,296.25005 l 0,-16.50006 c 0,-1.52348 1.2822446,-2.74997 2.874988,-2.74997 z"
       id="rect1872"
       inkscape:connector-curvature="0" />
    <text
       xml:space="preserve"
       style="font-size:12px;font-style:normal;font-variant:normal;font-weight:normal;font-stretch:normal;text-align:center;line-height:125%;letter-spacing:0px;word-spacing:0px;text-anchor:middle;fill:#000000;fill-opacity:1;stroke:none;font-family:Roadgeek 2005 Series B;-inkscape-font-specification:Roadgeek 2005 Series B;writing-mode:lr"
       x="24"
       y="292.00003"
       id="text2997"
       sodipodi:linespacing="125%"><tspan
         sodipodi:role="line"
         id="tspan3001">%num%</tspan></text>
    <path
       style="color:#000000;fill:#000000;fill-opacity:1;fill-rule:nonzero;stroke:none;stroke-width:0.8735441;marker:none;visibility:visible;display:inline;overflow:visible"
       d="M 3.2258065,277.00002 C 1.9927097,277.00002 1,277.98122 1,279.20002 l 0,17.6 c 0,1.2188 0.9927097,2.2 2.2258065,2.2 l 41.5483875,0 c 1.233097,0 2.225806,-0.9812 2.225806,-2.2 l 0,-17.6 c 0,-1.2188 -0.992709,-2.2 -2.225806,-2.2 z m 0,1 41.5483875,0 c 0.548043,0 1.225806,0.65831 1.225806,1.2 l 0,17.6 c 0,0.54169 -0.677763,1.2 -1.225806,1.2 l -41.5483875,0 C 2.6777634,298.00002 2,297.34171 2,296.80002 l 0,-17.6 c 0,-0.54169 0.6777634,-1.2 1.2258065,-1.2 z"
       id="rect4530"
       inkscape:connector-curvature="0"
       sodipodi:nodetypes="ssssssssssssssssss" />
  </g>
</svg>
