<?xml version="1.0" encoding="UTF-8" standalone="no"?>
<!-- Generator: Adobe Illustrator 12.0.0, SVG Export Plug-In . SVG Version: 6.00 Build 51448)  -->

<svg
   xmlns:dc="http://purl.org/dc/elements/1.1/"
   xmlns:cc="http://creativecommons.org/ns#"
   xmlns:rdf="http://www.w3.org/1999/02/22-rdf-syntax-ns#"
   xmlns:svg="http://www.w3.org/2000/svg"
   xmlns="http://www.w3.org/2000/svg"
   xmlns:sodipodi="http://sodipodi.sourceforge.net/DTD/sodipodi-0.dtd"
   xmlns:inkscape="http://www.inkscape.org/namespaces/inkscape"
   version="1.1"
   width="48"
   height="64"
   viewBox="0 0 48.000001 64"
   overflow="visible"
   enable-background="new 0 0 450.813 601"
   xml:space="preserve"
   id="svg2"
   inkscape:version="0.48.1 r9760"
   sodipodi:docname="CA:AB_local_2.5.svg"
   style="overflow:visible"><metadata
   id="metadata28"><rdf:RDF><cc:Work
       rdf:about=""><dc:format>image/svg+xml</dc:format><dc:type
         rdf:resource="http://purl.org/dc/dcmitype/StillImage" /><dc:title></dc:title></cc:Work></rdf:RDF></metadata><defs
   id="defs26">
	
</defs><sodipodi:namedview
   pagecolor="#ffffff"
   bordercolor="#666666"
   borderopacity="1"
   objecttolerance="10"
   gridtolerance="10"
   guidetolerance="10"
   inkscape:pageopacity="0"
   inkscape:pageshadow="2"
   inkscape:window-width="1278"
   inkscape:window-height="996"
   id="namedview24"
   showgrid="true"
   inkscape:showpageshadow="false"
   inkscape:zoom="12.671875"
   inkscape:cx="24"
   inkscape:cy="32"
   inkscape:window-x="1"
   inkscape:window-y="27"
   inkscape:window-maximized="0"
   inkscape:current-layer="svg2"><inkscape:grid
     type="xygrid"
     id="grid4066"
     empspacing="5"
     visible="true"
     enabled="true"
     snapvisiblegridlinesonly="true" /></sodipodi:namedview>
<g
   id="Semi_Offical"
   display="none"
   style="display:none"
   transform="translate(0,-537.00001)">
	<path
   display="inline"
   d="m 43.097,191.961 59.681,-75.728 v 56.031 l -20.116,-16.035 -8.959,11.584 29.368,24.083 h 15.331 V 71.387 L 25.544,191.961 h 17.553 z m 79.602,-0.065 h 16.047 V 59.637 h -16.047 v 132.259 z m 182.947,-74.772 v -7.816 l -16.063,2.299 v 38.706 l -11.49,0.085 c 0,14.164 -11.49,25.658 -25.666,25.658 -14.16,0 -25.65,-11.494 -25.65,-25.658 0,-14.175 11.49,-25.649 25.65,-25.649 4.354,0 8.445,1.074 12.043,2.991 l -17.267,17.26 10.213,10.216 29.059,-28.974 c -7.543,-10.692 -20.01,-17.658 -34.08,-17.658 -13.867,0 -26.154,6.774 -33.738,17.19 -7.585,-10.339 -19.823,-17.056 -33.625,-17.056 -9.65,0 -18.545,3.284 -25.616,8.789 h -0.049 V 71.526 l -16.031,1.725 v 118.645 h 16.031 v -8.642 c 7.079,5.542 15.981,8.837 25.665,8.837 13.867,0 26.146,-6.771 33.723,-17.187 7.584,10.343 19.822,17.056 33.64,17.056 16.242,0 30.305,-9.281 37.189,-22.83 v 22.708 h 16.063 V 150.33 c 0,0 -0.113,-8.923 5.371,-15.697 4.662,-5.75 9.016,-7.234 9.016,-7.234 v -17.28 c 0,0 -6.885,1.217 -14.41,7.1 l 0.022,-0.095 z m -120.598,58.932 c -7.063,0 -13.443,-2.852 -18.081,-7.45 l -7.601,7.592 v -25.967 l 0.016,0.167 c 0,-14.175 11.507,-25.649 25.666,-25.649 14.176,0 25.649,11.474 25.649,25.649 0.001,14.164 -11.473,25.658 -25.649,25.658 m 165.485,-66.707 h -11.531 l -0.09,-0.024 v -10.29 l -15.875,2.583 v 90.278 h 15.875 v -68.347 l 0.09,-0.016 h 8.09 l 3.441,-14.184 z m 58.672,0 v 7.967 l 0.016,0.269 c -7.072,-5.509 -15.934,-8.784 -25.584,-8.784 -23.037,0 -41.697,18.667 -41.697,41.696 0,23.025 18.66,41.693 41.697,41.693 9.635,0 18.504,-3.288 25.568,-8.785 v 8.492 h 16.063 v -80.244 l -16.063,-2.304 z m 0,41.074 v 25.625 l -7.471,-7.511 c -4.639,4.634 -11.051,7.519 -18.131,7.519 -14.176,0 -25.648,-11.494 -25.648,-25.658 0,-14.175 11.473,-25.649 25.648,-25.649 14.168,0 25.666,11.474 25.666,25.649 l -0.064,0.025 z"
   id="path5"
   inkscape:connector-curvature="0"
   style="fill:#222021;display:inline" />
	<path
   display="inline"
   d="M 35.008,403.456 C 35.318,329.648 121.03,271.661 225.41,271.628 329.783,271.661 415.493,329.649 415.804,403.456 415.493,477.247 329.783,535.235 225.41,535.284 121.031,535.235 35.318,477.247 35.008,403.456 m 6.258,0 c -0.016,34.242 20.189,65.507 53.496,88.422 33.267,22.883 79.504,37.14 130.648,37.14 51.121,0 97.373,-14.257 130.64,-37.14 33.314,-22.915 53.496,-54.18 53.496,-88.422 0,-34.26 -20.182,-65.531 -53.496,-88.423 -33.268,-22.882 -79.52,-37.172 -130.64,-37.156 -51.145,-0.016 -97.382,14.273 -130.648,37.156 -33.306,22.891 -53.512,54.163 -53.496,88.423"
   id="path7"
   inkscape:connector-curvature="0"
   style="fill:#222021;display:inline" />
	<path
   display="inline"
   d="m 155.102,389.37 c -2.506,5.069 -4.947,10.619 -7.34,16.665 -2.393,6.046 -4.524,12.499 -6.38,19.376 -1.871,6.884 -3.385,14.11 -4.549,21.654 -1.18,7.551 -1.749,15.404 -1.749,23.574 H 114.69 c 0,-8.049 0.521,-15.836 1.53,-23.404 1.025,-7.551 2.36,-14.77 3.987,-21.646 1.636,-6.884 3.508,-13.386 5.647,-19.514 2.116,-6.12 4.264,-11.751 6.429,-16.878 5.127,-12.141 10.953,-23.225 17.487,-33.241 H 99.653 v -19.685 h 75.411 v 20.637 c -7.479,9.749 -14.119,20.564 -19.962,32.462"
   id="path9"
   inkscape:connector-curvature="0"
   style="display:inline" />
	<path
   display="inline"
   d="m 250.133,438.007 v 32.632 h -19.514 v -32.632 h -56.068 v -14.696 l 55.896,-87.039 h 19.686 v 83.1 h 8.396 v 18.636 h -8.396 z m -19.514,-66.223 -30.614,47.588 h 30.442 l 0.172,-47.588 z"
   id="path11"
   inkscape:connector-curvature="0"
   style="display:inline" />
	<path
   display="inline"
   d="m 351.168,376.944 c 0,8.576 -0.977,17.211 -2.93,25.9 -1.953,8.691 -4.867,17.162 -8.756,25.414 -3.873,8.252 -8.707,16.112 -14.51,23.615 -5.811,7.494 -12.588,14.322 -20.336,20.523 l -13.475,-15.755 c 7.697,-6.005 14.004,-12.304 18.936,-18.896 4.932,-6.592 8.764,-13.061 11.506,-19.416 -1.871,0.464 -4.287,0.74 -7.25,0.83 -2.994,0.082 -6.168,-0.229 -9.545,-0.969 -3.385,-0.724 -6.779,-1.977 -10.197,-3.751 -3.4,-1.774 -6.492,-4.28 -9.275,-7.486 -2.768,-3.206 -5.021,-7.259 -6.771,-12.157 -1.75,-4.899 -2.637,-10.855 -2.637,-17.854 0,-5.127 0.586,-9.732 1.727,-13.818 1.131,-4.076 2.668,-7.697 4.629,-10.839 1.961,-3.157 4.199,-5.858 6.73,-8.097 2.539,-2.254 5.225,-4.077 8.057,-5.51 2.832,-1.432 5.68,-2.481 8.568,-3.148 2.889,-0.676 5.639,-1.01 8.268,-1.01 4.549,0 9.041,0.871 13.467,2.629 4.443,1.741 8.414,4.41 11.947,7.959 3.531,3.556 6.379,7.975 8.568,13.247 2.189,5.283 3.279,11.476 3.279,18.589 m -20.205,0.528 c 0,-4.842 -0.668,-8.748 -2.01,-11.718 -1.336,-2.986 -2.922,-5.281 -4.736,-6.909 -1.791,-1.644 -3.654,-2.733 -5.551,-3.288 -1.887,-0.553 -3.359,-0.83 -4.41,-0.83 -3.148,0 -5.875,0.604 -8.17,1.791 -2.318,1.204 -4.199,2.832 -5.697,4.898 -1.488,2.067 -2.586,4.477 -3.318,7.227 -0.732,2.734 -1.092,5.68 -1.092,8.829 0,2.97 0.326,5.77 1.002,8.397 0.666,2.629 1.732,4.924 3.197,6.869 1.449,1.944 3.328,3.515 5.631,4.678 2.313,1.172 5.127,1.758 8.447,1.758 1.4,0 3.061,-0.235 4.996,-0.699 1.912,-0.473 3.736,-1.48 5.453,-3.027 1.725,-1.529 3.205,-3.743 4.418,-6.607 1.229,-2.848 1.84,-6.641 1.84,-11.369"
   id="path13"
   inkscape:connector-curvature="0"
   style="display:inline" />
</g>


<g
   id="Wordmark"
   transform="matrix(0.10643323,0,0,0.10645829,-3.5739942e-6,0.01855881)">
	<path
   inkscape:connector-curvature="0"
   d="m 42.018,196.125 58.485,-74.202 v 54.902 l -19.701,-15.713 -8.795,11.35 28.776,23.598 h 15.022 V 77.98 l -90.98,118.145 h 17.193 z m 78.005,-0.065 h 15.723 V 66.466 H 120.023 V 196.06 z m 179.253,-73.266 v -7.658 l -15.74,2.253 v 37.926 l -11.265,0.085 c 0,13.878 -11.253,25.139 -25.152,25.139 -13.863,0 -25.114,-11.26 -25.114,-25.139 0,-13.892 11.251,-25.133 25.114,-25.133 4.276,0 8.285,1.053 11.8,2.93 l -16.909,16.912 10.008,10.013 28.467,-28.391 c -7.385,-10.478 -19.599,-17.304 -33.387,-17.304 -13.589,0 -25.627,6.639 -33.051,16.844 -7.438,-10.131 -19.423,-16.712 -32.962,-16.712 -9.446,0 -18.165,3.216 -25.085,8.611 h -0.058 V 78.116 l -15.703,1.691 V 196.06 h 15.703 v -8.469 c 6.937,5.43 15.656,8.665 25.143,8.665 13.597,0 25.635,-6.638 33.051,-16.844 7.442,10.135 19.431,16.713 32.962,16.713 15.915,0 29.694,-9.094 36.438,-22.372 v 22.252 h 15.74 v -40.673 c 0,0 -0.111,-8.743 5.265,-15.38 4.564,-5.635 8.831,-7.09 8.831,-7.09 V 115.93 c 0,0 -6.745,1.192 -14.116,6.957 l 0.02,-0.093 z m -118.16,57.745 c -6.922,0 -13.171,-2.792 -17.715,-7.297 l -7.459,7.439 v -25.444 l 0.018,0.163 c 0,-13.892 11.274,-25.133 25.156,-25.133 13.875,0 25.132,11.241 25.132,25.133 0.001,13.878 -11.257,25.139 -25.132,25.139 m 162.14,-65.362 h -11.294 l -0.081,-0.024 v -10.084 l -15.563,2.535 v 88.456 h 15.563 v -66.97 l 0.081,-0.015 h 7.926 l 3.368,-13.898 z m 57.492,0 v 7.804 l 0.018,0.264 c -6.93,-5.397 -15.62,-8.608 -25.081,-8.608 -22.562,0 -40.853,18.292 -40.853,40.858 0,22.563 18.291,40.851 40.853,40.851 9.453,0 18.143,-3.217 25.063,-8.607 v 8.32 h 15.739 v -78.627 l -15.739,-2.255 z m 0,40.247 v 25.108 l -7.316,-7.358 c -4.55,4.54 -10.83,7.365 -17.775,7.365 -13.883,0 -25.135,-11.26 -25.135,-25.139 0,-13.892 11.252,-25.133 25.135,-25.133 13.887,0 25.148,11.241 25.148,25.133 l -0.057,0.024 z"
   id="path19" />
</g>
<g
   id="g4585"><path
     sodipodi:nodetypes="ccccc"
     style="fill:#222021"
     inkscape:connector-curvature="0"
     d="M 1,42.000001 C 1.037447,33.041904 11.391516,26.004006 24.000423,26 c 12.608182,0.004 22.962009,7.042025 22.999578,16.000001 -0.03757,8.956035 -10.391274,15.994053 -22.999578,16 C 11.391516,57.994054 1.037327,50.956036 1,42.000001"
     id="path22" /><path
     id="path4583"
     d="M 2,42.000001 C 2.0358189,33.601785 11.939711,27.003757 24.000405,27 c 12.06,0.0038 21.96366,6.601899 21.999596,15.000001 -0.03594,8.396283 -9.93948,14.994424 -21.999596,15 C 11.939711,56.994425 2.0357041,50.396284 2,42.000001"
     inkscape:connector-curvature="0"
     style="fill:#ffffff"
     sodipodi:nodetypes="ccccc" /></g><text
   xml:space="preserve"
   style="font-size:24.0000005px;font-style:normal;font-variant:normal;font-weight:normal;font-stretch:normal;text-align:center;line-height:125%;letter-spacing:0px;word-spacing:0px;writing-mode:lr;text-anchor:middle;fill:#000000;fill-opacity:1;stroke:none;font-family:Roadgeek 2005 Series D;-inkscape-font-specification:Roadgeek 2005 Series D"
   x="24"
   y="50"
   id="text4589"
   sodipodi:linespacing="125%"><tspan
     sodipodi:role="line"
     id="tspan4593">%num%</tspan></text>
</svg>