<?xml version="1.0" encoding="UTF-8" standalone="no"?>
<!-- Generator: Adobe Illustrator 12.0.0, SVG Export Plug-In . SVG Version: 6.00 Build 51448)  -->

<svg
   xmlns:dc="http://purl.org/dc/elements/1.1/"
   xmlns:cc="http://creativecommons.org/ns#"
   xmlns:rdf="http://www.w3.org/1999/02/22-rdf-syntax-ns#"
   xmlns:svg="http://www.w3.org/2000/svg"
   xmlns="http://www.w3.org/2000/svg"
   xmlns:sodipodi="http://sodipodi.sourceforge.net/DTD/sodipodi-0.dtd"
   xmlns:inkscape="http://www.inkscape.org/namespaces/inkscape"
   id="Layer_1"
   xml:space="preserve"
   height="64"
   viewBox="0 0 47.999999 64.000536"
   width="48"
   version="1.1"
   overflow="visible"
   enable-background="new 0 0 450.23 600.225"
   inkscape:version="0.48.1 r9760"
   sodipodi:docname="CA:AB_2.5.svg"
   style="overflow:visible"><metadata
   id="metadata3070"><rdf:RDF><cc:Work
       rdf:about=""><dc:format>image/svg+xml</dc:format><dc:type
         rdf:resource="http://purl.org/dc/dcmitype/StillImage" /><dc:title></dc:title></cc:Work></rdf:RDF></metadata><defs
   id="defs3068">
	
	
</defs><sodipodi:namedview
   pagecolor="#ffffff"
   bordercolor="#666666"
   borderopacity="1"
   objecttolerance="10"
   gridtolerance="10"
   guidetolerance="10"
   inkscape:pageopacity="0"
   inkscape:pageshadow="2"
   inkscape:window-width="1278"
   inkscape:window-height="996"
   id="namedview3066"
   showgrid="true"
   inkscape:showpageshadow="false"
   inkscape:zoom="12.671875"
   inkscape:cx="24"
   inkscape:cy="32"
   inkscape:window-x="1"
   inkscape:window-y="27"
   inkscape:window-maximized="0"
   inkscape:current-layer="Layer_1"><inkscape:grid
     type="xygrid"
     id="grid3081"
     empspacing="5"
     visible="true"
     enabled="true"
     snapvisiblegridlinesonly="true" /></sodipodi:namedview>


<g
   id="Wordmark"
   transform="matrix(0.10776649,0,0,0.10779188,0.25198305,-0.16422863)">
	<path
   inkscape:connector-curvature="0"
   d="m 41.728,149.736 58.484,-74.202 v 54.902 l -19.7,-15.713 -8.796,11.35 28.776,23.598 h 15.022 V 31.592 l -90.98,118.146 17.194,-0.002 0,0 z m 78.005,-0.065 h 15.723 V 20.078 H 119.733 V 149.671 z M 298.986,76.406 v -7.658 l -15.74,2.253 v 37.927 l -11.265,0.085 c 0,13.878 -11.253,25.139 -25.152,25.139 -13.863,0 -25.114,-11.26 -25.114,-25.139 0,-13.893 11.251,-25.134 25.114,-25.134 4.276,0 8.285,1.054 11.8,2.931 l -16.908,16.912 10.008,10.013 28.467,-28.391 c -7.385,-10.479 -19.599,-17.305 -33.387,-17.305 -13.59,0 -25.627,6.64 -33.052,16.844 -7.438,-10.131 -19.423,-16.712 -32.962,-16.712 -9.445,0 -18.165,3.217 -25.085,8.611 h -0.058 V 31.728 l -15.703,1.69 V 149.67 h 15.703 v -8.469 c 6.937,5.43 15.656,8.665 25.143,8.665 13.598,0 25.636,-6.638 33.052,-16.844 7.441,10.135 19.431,16.713 32.962,16.713 15.915,0 29.693,-9.094 36.438,-22.372 v 22.252 h 15.74 v -40.673 c 0,0 -0.111,-8.743 5.266,-15.38 4.563,-5.635 8.83,-7.09 8.83,-7.09 V 69.541 c 0,0 -6.744,1.192 -14.115,6.957 l 0.018,-0.092 z m -118.16,57.744 c -6.922,0 -13.171,-2.792 -17.715,-7.297 l -7.459,7.438 v -25.443 l 0.018,0.163 c 0,-13.893 11.274,-25.134 25.156,-25.134 13.875,0 25.132,11.241 25.132,25.134 0,13.879 -11.257,25.139 -25.132,25.139 M 342.967,68.789 h -11.294 l -0.081,-0.023 V 58.681 l -15.563,2.534 v 88.456 h 15.563 v -66.97 l 0.081,-0.015 h 7.926 l 3.368,-13.897 z m 57.492,0 v 7.805 l 0.018,0.264 c -6.93,-5.397 -15.62,-8.608 -25.081,-8.608 -22.562,0 -40.853,18.292 -40.853,40.858 0,22.563 18.291,40.851 40.853,40.851 9.453,0 18.143,-3.217 25.063,-8.606 v 8.319 h 15.738 V 71.044 l -15.738,-2.255 z m 0,40.247 v 25.108 l -7.316,-7.358 c -4.55,4.54 -10.83,7.365 -17.775,7.365 -13.883,0 -25.135,-11.26 -25.135,-25.139 0,-13.893 11.252,-25.134 25.135,-25.134 13.888,0 25.148,11.241 25.148,25.134 l -0.057,0.024 z"
   id="path3015" />
</g>
<g
   id="_x32_01"
   display="none"
   style="display:none"
   transform="translate(0,-536.22446)">
	<g
   display="inline"
   id="g3018"
   style="display:inline">
		<path
   d="m 50.792,443.586 c 1.561,-28.691 3.743,-38.983 10.292,-57.071 8.732,-22.144 19.648,-38.983 33.683,-52.082 4.989,-4.366 9.668,-8.108 26.509,-19.96 13.722,-9.355 17.464,-14.657 17.464,-24.949 0,-15.905 -13.098,-29.315 -29.315,-29.315 -16.217,0 -29.314,13.41 -29.314,29.315 H 50.792 c 0.624,-32.746 25.573,-58.631 58.631,-58.631 32.123,0 58.008,26.509 58.008,58.631 0,16.84 -5.926,30.25 -17.776,41.167 -2.183,1.559 -4.366,2.807 -6.549,4.989 l -7.173,5.302 -7.485,4.99 -8.108,5.926 c -13.099,9.668 -27.132,28.69 -32.746,46.156 -2.494,5.302 -3.118,8.731 -4.678,16.217 h 84.517 v 29.315 H 50.792 z"
   id="path3020"
   inkscape:connector-curvature="0" />
		<path
   d="m 305.277,411.463 c -10.292,24.639 -25.573,35.864 -48.964,35.864 -24.949,0 -39.606,-11.227 -49.898,-35.864 -8.731,-20.583 -11.851,-40.543 -11.851,-72.665 0,-31.499 3.119,-52.706 11.851,-72.665 10.915,-24.948 25.573,-35.24 49.898,-35.24 24.015,0 38.672,10.292 48.964,35.864 8.732,20.583 11.852,40.542 11.852,72.042 0,32.121 -3.119,52.704 -11.852,72.664 z m -23.39,-124.747 c -5.303,-18.399 -13.099,-26.508 -25.573,-26.508 -13.41,0 -21.52,8.108 -26.509,25.886 -4.989,15.904 -6.549,29.938 -6.549,53.329 0,22.767 2.184,35.864 6.549,52.705 4.989,17.776 13.099,25.886 26.509,25.886 12.476,0 20.271,-8.108 25.573,-25.886 4.989,-16.841 6.55,-29.314 6.55,-53.329 0,-23.392 -2.184,-36.802 -6.55,-52.083 z"
   id="path3022"
   inkscape:connector-curvature="0" />
		<path
   d="M 368.274,443.586 V 272.058 h -13.099 v -22.767 c 11.852,-0.624 19.023,-5.925 23.391,-14.658 h 19.959 v 208.952 h -30.251 l 0,0.001 z"
   id="path3024"
   inkscape:connector-curvature="0" />
	</g>
</g>
<g
   id="_x32_"
   display="none"
   style="display:none"
   transform="translate(0,-536.22446)">
	<g
   display="inline"
   id="g3027"
   style="display:inline">
		<path
   d="m 143.825,441.589 c 0,-24.043 4.809,-41.772 16.229,-61.607 17.73,-29.451 42.975,-47.782 79.938,-57.7 22.539,-6.311 30.354,-13.523 30.354,-25.544 0,-14.726 -14.124,-23.44 -39.67,-23.44 -26.145,0 -45.077,6.611 -62.208,21.938 l -24.643,-27.348 c 23.441,-20.437 52.291,-31.255 84.747,-31.255 47.482,0 77.835,23.441 77.835,60.104 0,16.83 -7.212,32.457 -20.436,43.876 -6.611,4.809 -15.628,9.917 -29.751,14.125 -27.049,7.813 -34.562,11.119 -46.581,21.938 -9.316,7.813 -15.026,15.327 -21.938,28.852 h 118.706 v 36.063 H 143.825 v -0.002 z"
   id="path3029"
   inkscape:connector-curvature="0" />
	</g>
</g>
<g
   id="_x33_"
   display="none"
   style="display:none"
   transform="translate(0,-536.22446)">
	<g
   display="inline"
   id="g3032"
   style="display:inline">
		<path
   d="m 226.469,443.391 c -24.644,0 -49.286,-8.415 -67.018,-24.943 -5.109,-4.207 -8.415,-7.514 -15.627,-16.229 l 28.85,-21.639 c 14.125,18.332 32.758,26.146 55.897,26.146 24.643,0 41.772,-11.42 41.772,-28.55 0,-9.616 -6.312,-21.036 -15.628,-26.146 -5.71,-2.705 -12.021,-4.208 -19.834,-4.208 h -9.917 v -36.063 h 8.716 c 15.325,0 26.746,-8.414 26.746,-19.534 0,-12.021 -14.125,-21.337 -35.462,-21.337 -16.829,0 -32.457,7.212 -44.478,19.834 l -26.747,-24.644 c 19.834,-20.436 44.479,-31.254 73.327,-31.254 40.271,0 70.021,24.042 70.021,56.498 0,13.523 -4.208,22.84 -16.229,38.166 19.834,17.731 25.544,28.25 25.544,47.483 0.005,37.269 -34.554,66.42 -79.933,66.42 z"
   id="path3034"
   inkscape:connector-curvature="0" />
	</g>
</g>
<g
   id="_x34_"
   display="none"
   style="display:none"
   transform="translate(0,-536.22446)">
	<g
   display="inline"
   id="g3037"
   style="display:inline">
		<path
   d="m 297.092,398.913 v 40.871 h -35.16 V 398.913 H 137.514 V 366.457 L 261.931,238.436 h 35.16 v 128.021 h 29.752 v 32.456 h -29.751 z m -35.161,-112.996 -78.438,80.54 h 78.438 v -80.54 z"
   id="path3039"
   inkscape:connector-curvature="0" />
	</g>
</g>
<g
   id="_x35_"
   display="none"
   style="display:none"
   transform="translate(0,-536.22446)">
	<g
   display="inline"
   id="g3042"
   style="display:inline">
		<path
   d="m 221.66,441.589 c -27.647,0 -52.291,-7.213 -77.835,-22.54 l 18.933,-30.652 c 17.73,10.817 38.166,16.527 58.902,16.527 30.354,0 48.686,-13.522 48.686,-36.063 0,-10.818 -5.108,-21.337 -12.622,-27.647 -7.212,-5.71 -17.73,-8.415 -32.757,-8.415 -13.223,0 -24.042,2.104 -38.768,7.813 l -36.063,-9.316 6.311,-94.665 H 290.18 v 35.461 h -99.773 l -2.104,28.851 c 16.229,-3.606 26.146,-5.109 38.767,-5.109 45.979,0 79.338,31.255 79.338,73.027 -0.001,42.374 -35.462,72.728 -84.748,72.728 z"
   id="path3044"
   inkscape:connector-curvature="0" />
	</g>
</g>
<g
   id="_x36_"
   display="none"
   style="display:none"
   transform="translate(0,-536.22446)">
	<g
   display="inline"
   id="g3047"
   style="display:inline">
		<path
   d="m 241.194,443.391 c -23.741,0 -45.078,-7.813 -61.307,-21.938 -16.229,-14.124 -24.042,-33.959 -24.042,-61.605 0,-42.374 18.933,-79.038 52.892,-102.479 23.441,-16.228 46.581,-22.539 81.442,-22.539 v 36.063 h -3.606 c -21.337,0 -36.063,3.605 -50.188,12.021 -18.332,10.52 -28.851,22.54 -38.768,43.876 17.43,-5.108 28.851,-6.312 45.079,-6.312 43.876,0 75.731,25.244 75.731,60.706 0.002,36.061 -31.854,62.207 -77.233,62.207 z m -1.202,-86.851 c -24.943,0 -41.771,9.917 -41.771,24.644 0,15.627 16.828,25.544 41.771,25.544 25.244,0 42.374,-9.917 42.374,-24.943 0,-15.328 -17.13,-25.245 -42.374,-25.245 z"
   id="path3049"
   inkscape:connector-curvature="0" />
	</g>
</g>
<g
   id="_x37_"
   display="none"
   style="display:none"
   transform="translate(0,-536.22446)">
	<g
   display="inline"
   id="g3052"
   style="display:inline">
		<path
   d="m 274.956,298.539 c -13.522,18.332 -26.146,45.078 -33.959,68.52 -7.813,24.042 -10.519,42.374 -11.119,72.727 h -36.063 c 0.601,-30.353 2.705,-47.481 9.016,-72.125 7.212,-25.244 17.13,-48.685 29.151,-68.519 3.306,-6.312 7.513,-12.622 16.228,-25.244 H 133.71 V 238.437 H 296.894 V 274.5 c -13.524,12.619 -17.13,16.226 -21.938,24.039 z"
   id="path3054"
   inkscape:connector-curvature="0" />
	</g>
</g>
<g
   id="_x38_"
   display="none"
   style="display:none"
   transform="translate(0,-536.22446)">
	<g
   display="inline"
   id="g3057"
   style="display:inline">
		<path
   d="m 222.663,443.391 c -49.286,0 -81.141,-27.047 -81.141,-67.918 0,-18.934 7.813,-35.161 22.539,-48.686 -12.622,-15.025 -16.229,-23.439 -16.229,-36.664 0,-33.357 30.354,-55.296 74.83,-55.296 45.378,0 75.13,21.938 75.13,55.296 0,13.224 -3.605,21.638 -15.627,36.664 14.727,13.523 21.938,29.752 21.938,48.686 10e-4,48.083 -39.668,67.918 -81.44,67.918 z m 0,-98.872 c -28.85,0 -45.079,11.119 -45.079,30.954 0,9.917 5.71,19.834 14.727,25.544 5.71,3.306 18.332,5.71 30.353,5.71 17.129,0 27.648,-2.404 34.86,-8.715 6.912,-6.312 10.519,-14.125 10.519,-22.539 -0.002,-19.835 -16.23,-30.954 -45.38,-30.954 z m 0,-73.628 c -24.643,0 -38.768,7.212 -38.768,18.332 0,12.021 14.125,19.232 38.768,19.232 24.943,0 39.068,-7.213 39.068,-19.232 -10e-4,-11.119 -14.126,-18.332 -39.068,-18.332 z"
   id="path3059"
   inkscape:connector-curvature="0" />
	</g>
</g>
<g
   id="_x39_"
   display="none"
   style="display:none"
   transform="translate(0,-536.22446)">
	<g
   display="inline"
   id="g3062"
   style="display:inline">
		<path
   d="m 253.215,420.852 c -22.539,16.228 -45.679,22.539 -80.54,22.539 v -36.664 h 3.606 c 20.436,0 35.461,-3.606 49.586,-11.42 18.332,-10.519 28.85,-22.539 38.767,-44.478 -17.729,5.71 -28.85,6.912 -45.077,6.912 -43.876,0 -75.731,-26.146 -75.731,-61.307 0,-36.063 31.855,-61.607 76.934,-61.607 24.943,0 45.979,7.813 61.607,21.337 16.829,14.727 24.041,34.561 24.041,61.307 -0.001,42.375 -18.332,79.939 -53.193,103.381 z M 222.261,270.891 c -25.545,0 -42.374,9.917 -42.374,25.544 0,14.726 16.829,25.244 42.975,25.244 24.042,0 41.172,-10.519 41.172,-25.244 0,-15.026 -17.13,-25.544 -41.773,-25.544 z"
   id="path3064"
   inkscape:connector-curvature="0" />
	</g>
</g>
<g
   id="g3862"><path
     sodipodi:nodetypes="ccccccccc"
     style="fill:#000000;fill-opacity:1"
     inkscape:connector-curvature="0"
     d="m 46.968567,46.888587 0,-29.888444 -45.9371758,0 0,29.888555 c 0,0 -0.65672832,4.994645 4.0190721,7.332108 l 18.9497367,8.779722 0,0 18.949625,-8.779722 c 4.6758,-2.337575 4.018742,-7.332219 4.018742,-7.332219"
     id="path3012" /><path
     id="path3860"
     d="m 45.969934,46.589097 0,-28.588946 -43.9399076,0 0,28.589052 c 0,0 -0.628175,4.777487 3.8443299,7.013321 l 18.1258347,8.397995 0,0 18.125729,-8.397995 c 4.472504,-2.235941 3.844014,-7.013427 3.844014,-7.013427"
     inkscape:connector-curvature="0"
     style="fill:#ffffff;fill-opacity:1"
     sodipodi:nodetypes="ccccccccc" /></g><text
   xml:space="preserve"
   style="font-size:32.00026609px;font-style:normal;font-variant:normal;font-weight:normal;font-stretch:normal;text-align:center;line-height:125%;letter-spacing:0px;word-spacing:0px;writing-mode:lr;text-anchor:middle;fill:#000000;fill-opacity:1;stroke:none;font-family:Roadgeek 2005 Series B;-inkscape-font-specification:Roadgeek 2005 Series B"
   x="24"
   y="47.000393"
   id="text3866"
   sodipodi:linespacing="125%"><tspan
     sodipodi:role="line"
     id="tspan3870">%num%</tspan></text>
</svg>