<?xml version="1.0" encoding="UTF-8" standalone="no"?>
<!-- Created with Inkscape (http://www.inkscape.org/) -->

<svg
   xmlns:dc="http://purl.org/dc/elements/1.1/"
   xmlns:cc="http://creativecommons.org/ns#"
   xmlns:rdf="http://www.w3.org/1999/02/22-rdf-syntax-ns#"
   xmlns:svg="http://www.w3.org/2000/svg"
   xmlns="http://www.w3.org/2000/svg"
   xmlns:sodipodi="http://sodipodi.sourceforge.net/DTD/sodipodi-0.dtd"
   xmlns:inkscape="http://www.inkscape.org/namespaces/inkscape"
   version="1.1"
   width="47.999542"
   height="47.999531"
   id="svg2"
   inkscape:version="0.48.1 r9760"
   sodipodi:docname="CA:MB_secondary_3.svg">
  <sodipodi:namedview
     pagecolor="#ffffff"
     bordercolor="#666666"
     borderopacity="1"
     objecttolerance="10"
     gridtolerance="10"
     guidetolerance="10"
     inkscape:pageopacity="0"
     inkscape:pageshadow="2"
     inkscape:window-width="1598"
     inkscape:window-height="1182"
     id="namedview15"
     showgrid="true"
     inkscape:showpageshadow="false"
     inkscape:zoom="19.916861"
     inkscape:cx="24.100188"
     inkscape:cy="23.999765"
     inkscape:window-x="1"
     inkscape:window-y="1"
     inkscape:window-maximized="0"
     inkscape:current-layer="svg2"
     fit-margin-top="0"
     fit-margin-left="0"
     fit-margin-right="0"
     fit-margin-bottom="0">
    <inkscape:grid
       type="xygrid"
       id="grid4098"
       empspacing="5"
       visible="true"
       enabled="true"
       snapvisiblegridlinesonly="true" />
  </sodipodi:namedview>
  <defs
     id="defs14" />
  <metadata
     id="metadata4">
    <rdf:RDF>
      <cc:Work
         rdf:about="">
        <dc:format>image/svg+xml</dc:format>
        <dc:type
           rdf:resource="http://purl.org/dc/dcmitype/StillImage" />
        <dc:title />
      </cc:Work>
    </rdf:RDF>
  </metadata>
  <g
     id="g4614">
    <g
       id="g4610">
      <path
         d="M 4.8052378,1.0588331 C 2.7536977,1.0588331 1.0625,2.7403404 1.0625,4.7804955 V 43.215346 c 0,2.040153 1.6911977,3.721685 3.7427378,3.721685 H 43.199975 c 2.051634,0 3.742734,-1.681624 3.742734,-3.721685 V 4.7804955 c 0,-2.0400631 -1.691004,-3.7216624 -3.742734,-3.7216624 H 4.8052378 z"
         id="path6"
         style="text-indent:0;text-align:start;text-transform:none;direction:ltr;block-progression:tb;baseline-shift:baseline;color:#000000;fill:#ffffff;stroke:#000000;stroke-width:0.09568054;enable-background:accumulate"
         inkscape:connector-curvature="0" />
      <rect
         width="43.000027"
         height="43.000023"
         rx="2.5218081"
         ry="2.5218091"
         x="2.4999871"
         y="2.4995208"
         id="rect16"
         style="fill:none;stroke:#000000;stroke-width:0.99997449;stroke-linecap:round;stroke-miterlimit:4;stroke-dasharray:none" />
    </g>
    <path
       inkscape:connector-curvature="0"
       style="text-indent:0;text-align:start;text-transform:none;direction:ltr;block-progression:tb;baseline-shift:baseline;color:#000000;fill:#000000;fill-rule:nonzero;enable-background:accumulate"
       id="path14"
       d="m 23.996893,15.999531 c -5.476565,0 -10.450061,1.379626 -14.0745597,3.624551 C 6.296675,21.868928 4,25.005991 4,28.501019 c 0,3.497128 2.2965699,6.632863 5.9217013,8.877363 3.6250257,2.24442 8.5988387,3.621149 14.0745607,3.621149 5.476456,0 10.452063,-1.376729 14.078773,-3.621149 C 41.701325,35.133989 44,31.998491 44,28.501019 44,25.006311 41.701325,21.868715 38.075035,19.623631 34.449482,17.378812 29.473563,15.999744 23.997315,15.999744 z" />
  </g>
  <g
     transform="matrix(0.14244077,0,0,0.14243961,59.44421,-36.228564)"
     id="g8"
     style="fill:#369141;fill-rule:nonzero">
    <path
       d="m -136.4,348.7 h -6.9416 v -1.9236 c -0.42268,0.51682 -1.6523,2.2982 -6.004,2.2047 h -0.42268 c -6.2384,0 -11.679,-4.6906 -12.665,-13.603 -0.36505,0.24016 -0.7493,0.42268 -1.1336,0.70318 -0.19212,0.13449 -0.38425,0.28051 -0.55717,0.42268 -0.28819,0.19213 -0.51874,0.42268 -0.74929,0.659 -1.8828,7.0828 -8.1616,11.82 -15.338,11.82 -6.004,0 -10.459,-3.6587 -10.413,-10.272 v -4.1746 c -0.84536,0.37465 -1.6907,0.79733 -2.44,1.3142 -0.19212,0.13448 -0.42268,0.2805 -0.61481,0.42268 -1.0375,0.79733 -1.9693,1.5005 -2.7205,2.2504 -2.0615,6.0975 -7.1298,10.413 -12.992,10.413 -7.6928,0 -13.979,-7.4109 -13.979,-16.605 0,-3.6118 0.97985,-6.942 2.6264,-9.6625 h -7.1298 v 18.247 c 0,3.8929 1.3641,5.6286 4.0827,5.91 0,0 -1.3641,2.2504 -1.3641,2.2504 -6.5669,-0.65516 -11.916,-3.3303 -11.774,-9.8033 v -4.5031 c -0.94143,0.37465 -1.7292,0.7493 -2.5803,1.3142 -0.19213,0.13449 -0.36505,0.28051 -0.55717,0.42268 -2.7686,2.1589 -5.1125,5.3002 -5.2547,9.3341 v 2.8614 h -8.8648 v -13.884 c -0.88379,0.32854 -1.7868,0.70319 -2.5803,1.2661 -0.19213,0.13449 -0.36505,0.28051 -0.55717,0.42268 -2.5784,2.0173 -4.8301,4.8785 -5.2989,8.443 v 3.7526 h -8.7245 v -22.609 c 0,-1.9238 -1.0375,-2.9084 -2.5342,-2.9084 h -0.24977 c -1.4025,0 -3.7522,1.3583 -3.7984,9.053 v 16.464 h -8.8648 v -13.931 c -0.88378,0.32854 -1.6907,0.74929 -2.4861,1.2661 -0.19213,0.13449 -0.36504,0.2805 -0.55717,0.46879 -2.8627,2.1589 -5.2066,5.3942 -5.2547,9.522 v 2.6734 h -6.9896 v -1.9236 c -0.42268,0.51683 -1.6523,2.2982 -6.004,2.2047 h -0.42268 c -5.956,0 -11.163,-4.2685 -12.477,-12.383 -2.7205,2.2504 -5.0184,5.3942 -5.1125,9.4283 v 2.6735 h -9.6621 v -23.453 c 0,0 -7.9272,15.62 -7.9272,15.62 0,0 -7.8811,-14.869 -7.8811,-14.869 v 22.703 h -9.7082 v -44.467 h 8.8648 c 0,0 8.7245,17.074 8.7245,17.074 0,0 8.5362,-17.074 8.5362,-17.074 h 9.053 v 32.037 c 0.94143,-0.32854 2.344,-0.79733 3.1432,-1.3142 0.19213,-0.13448 0.36504,-0.2805 0.55717,-0.42268 0.36504,-0.32853 0.7493,-0.65515 1.1336,-1.0336 0,-1.9238 0.36504,-4.4091 0.36504,-4.4091 0.28819,-1.4083 0.80694,-2.7676 1.4025,-4.0339 0.19213,-0.0961 0.19213,-0.24016 0.24977,-0.37465 2.7205,-4.925 7.8811,-8.1147 13.791,-8.1147 h 10.271 v 19.654 c 0.88379,-0.2805 2.2998,-0.74929 3.0971,-1.2661 0.19213,-0.19213 0.38425,-0.32854 0.55717,-0.46879 2.5322,-1.9693 4.3152,-4.9252 4.6437,-8.4434 v -9.475 h 8.8648 v 1.4525 c 0.84536,-0.56101 2.2498,-1.4525 6.004,-1.4525 h 0.24976 c 6.3786,0 9.0992,3.1428 9.0992,9.8972 v 9.8504 c 0.94142,-0.32854 2.3459,-0.84536 3.0971,-1.3603 0.19213,-0.13449 0.36505,-0.2805 0.55717,-0.42268 2.7205,-2.1111 4.6418,-5.441 4.784,-9.2874 v -8.6776 h 8.8186 v 19.794 c 0.94142,-0.32854 2.3459,-0.89147 3.0952,-1.4083 0.19213,-0.13449 0.42268,-0.28051 0.61481,-0.42269 2.6744,-2.1109 4.5496,-5.3942 4.7379,-9.1935 v -2.6736 h -3.5659 v -3.9402 h 3.5659 v -14.494 h 9.005 v 14.494 h 10.507 c 2.2498,-1.8752 5.0184,-3.002 7.9733,-3.002 7.6928,0 13.979,7.458 13.979,16.605 0,0.7493 0,1.5005 -0.19213,2.2047 0,-0.0961 0.19213,-0.19212 0.32662,-0.24015 2.6264,-2.0629 4.4093,-5.394 4.5957,-9.0996 v -20.967 h 9.1472 v 12.008 c 0.4611,-0.0961 0.88378,-0.0961 1.4602,-0.0961 7.4584,0 13.697,5.2065 15.291,12.712 0,0 0.38426,1.7368 0.28819,4.55 0.80694,-0.84536 1.4986,-1.829 2.0173,-2.8615 0.19213,-0.84537 0.24977,-1.4525 0.24977,-1.4525 0.28819,-1.4083 0.80693,-2.7676 1.4025,-4.0339 0,-0.0961 0.19212,-0.24016 0.24976,-0.37465 2.7205,-4.925 7.8811,-8.1149 13.791,-8.1149 h 10.225 v 32.131 z m -16.98,-16.042 c 0,6.8951 2.2998,9.475 4.6437,9.475 1.2104,0 3.5179,-1.0317 3.5659,-5.0658 v -14.119 h -1.4986 c -3.66,0 -6.7552,4.1745 -6.7552,9.7096 z m -26.502,-10.038 c -0.55717,0 -0.97985,0.0961 -1.4025,0.32854 v 15.948 c -0.19213,2.3463 1.0375,3.2366 2.2056,3.2366 3.001,0 5.8157,-3.9403 5.7696,-9.475 0,-5.535 -2.9549,-10.038 -6.5669,-10.038 z m -29.363,-0.24016 c -2.8147,0 -5.0645,4.4562 -5.0645,9.991 0,5.4879 2.2498,9.9441 5.0645,9.9441 2.8627,0 5.1125,-4.4562 5.1125,-9.9441 0,-5.5348 -2.2498,-9.991 -5.1125,-9.991 z m -102.68,10.272 c 0,6.8951 2.2978,9.4752 4.6437,9.4752 1.172,0 3.4717,-1.0336 3.5178,-5.066 v -14.119 h -1.4986 c -3.6581,0 -6.7072,4.1747 -6.7072,9.7095 z"
       id="path10"
       inkscape:connector-curvature="0" />
    <path
       d="m -249.54,304.18 c 2.7666,0 4.9703,2.0173 4.9703,4.55 0,2.5328 -2.2037,4.5498 -4.9703,4.5498 -2.7686,0 -5.0203,-2.0173 -5.0203,-4.5498 0,-2.533 2.2517,-4.55 5.0203,-4.55 z"
       id="path12"
       inkscape:connector-curvature="0" />
  </g>
  <text
     xml:space="preserve"
     style="font-size:20px;font-style:normal;font-variant:normal;font-weight:normal;font-stretch:normal;text-align:center;line-height:125%;letter-spacing:0px;word-spacing:0px;writing-mode:lr;text-anchor:middle;fill:#ffffff;fill-opacity:1;stroke:none;font-family:Roadgeek 2005 Series C;-inkscape-font-specification:Roadgeek 2005 Series C"
     x="24.02375"
     y="35.199532"
     id="text3219"
     sodipodi:linespacing="125%"><tspan
       sodipodi:role="line"
       id="tspan4608">%num%</tspan></text>
</svg>
