<?xml version="1.0" encoding="UTF-8" standalone="no"?>
<!-- Created with Inkscape (http://www.inkscape.org/) -->

<svg
   xmlns:dc="http://purl.org/dc/elements/1.1/"
   xmlns:cc="http://creativecommons.org/ns#"
   xmlns:rdf="http://www.w3.org/1999/02/22-rdf-syntax-ns#"
   xmlns:svg="http://www.w3.org/2000/svg"
   xmlns="http://www.w3.org/2000/svg"
   xmlns:sodipodi="http://sodipodi.sourceforge.net/DTD/sodipodi-0.dtd"
   xmlns:inkscape="http://www.inkscape.org/namespaces/inkscape"
   version="1.1"
   width="64"
   height="48"
   id="svg2"
   inkscape:version="0.91 r13725"
   sodipodi:docname="CA:MB:Winnipeg_2.svg">
  <metadata
     id="metadata19">
    <rdf:RDF>
      <cc:Work
         rdf:about="">
        <dc:format>image/svg+xml</dc:format>
        <dc:type
           rdf:resource="http://purl.org/dc/dcmitype/StillImage" />
        <dc:title></dc:title>
      </cc:Work>
    </rdf:RDF>
  </metadata>
  <sodipodi:namedview
     pagecolor="#ffffff"
     bordercolor="#666666"
     borderopacity="1"
     objecttolerance="10"
     gridtolerance="10"
     guidetolerance="10"
     inkscape:pageopacity="0"
     inkscape:pageshadow="2"
     inkscape:window-width="1920"
     inkscape:window-height="1023"
     id="namedview17"
     showgrid="false"
     fit-margin-top="0"
     fit-margin-left="0"
     fit-margin-right="0"
     fit-margin-bottom="0"
     inkscape:zoom="9.9036311"
     inkscape:cx="32.030915"
     inkscape:cy="23.999999"
     inkscape:window-x="0"
     inkscape:window-y="33"
     inkscape:window-maximized="1"
     inkscape:current-layer="svg2" />
  <defs
     id="defs4" />
  <g
     id="g4187">
    <g
       transform="matrix(0.07986689,0,0,0.07986689,-2.9950084,-23.469858)"
       id="g3638">
      <path
         inkscape:connector-curvature="0"
         d="m 63,294.36218 750,0 c 13.85,0 25,11.15 25,25 l -100,550 c 0,13.85 -11.15,25 -25,25 l -550,0 c -13.85,0 -25,-11.15 -25,-25 l -100,-550 c 0,-13.85 11.15,-25 25,-25 z"
         id="rect2816"
         style="fill:#ffffff;fill-opacity:1;stroke:#000000;stroke-width:1;stroke-miterlimit:4;stroke-opacity:1" />
      <path
         inkscape:connector-curvature="0"
         d="m 103.404,509.76611 666.192,0 c 8.31,0 16,6.69 16,15 l -63,340.19214 c 0,8.31 -6.69,15 -15,15 l -540.192,0 c -8.31,0 -15,-6.69 -15,-15 l -63,-340.19214 c 0,-8.31 5.69,-15 14,-15 z"
         id="rect3590"
         style="fill:#ffffff;fill-opacity:1;stroke:#000000;stroke-width:9.80785465;stroke-miterlimit:4;stroke-opacity:1" />
      <path
         inkscape:connector-curvature="0"
         d="m 63,304.36218 750,0 c 8.31,0 15,6.69 15,15 l -30,160 c 0,8.31 -9.69,15 -18,15 l -685,0 c -8.31,0 -16,-6.69 -16,-15 l -31,-160 c 0,-8.31 6.69,-15 15,-15 z"
         id="rect3592"
         style="fill:#006a4d;fill-opacity:1;stroke:none" />
    </g>
    <g
       transform="matrix(0.07986689,0,0,0.07986689,-2.9950084,-23.469858)"
       id="text3646"
       style="font-style:normal;font-variant:normal;font-weight:normal;font-stretch:normal;font-size:231.54847717px;line-height:100%;font-family:'Roadgeek 2005 Series F';-inkscape-font-specification:'Roadgeek 2005 Series F';text-align:center;writing-mode:lr-tb;text-anchor:middle;fill:#ffffff;fill-opacity:1;stroke:none">
      <path
         inkscape:connector-curvature="0"
         d="m 235.59753,477.77823 -34.26917,-58.35022 -47.93054,0 0,58.35022 -29.40666,0 0,-155.13748 94.70333,0 c 6.79197,1.5e-4 13.19813,1.31226 19.21852,3.93632 6.02012,2.47 11.19137,5.94323 15.51375,10.41968 4.47645,4.32238 7.94967,9.41644 10.41968,15.2822 2.62406,5.86602 3.93616,12.11782 3.93633,18.75543 -1.7e-4,10.49696 -3.01029,19.91326 -9.03039,28.24891 -6.02041,8.18145 -14.1246,14.04734 -24.31259,17.59769 l 35.42691,60.89725 -34.26917,0 m 2.77858,-106.74385 c -1.3e-4,-2.46974 -0.54041,-4.86241 -1.62084,-7.178 -0.92633,-2.31537 -2.31561,-4.32212 -4.16787,-6.02026 -1.69815,-1.85227 -3.78209,-3.24156 -6.25181,-4.16788 -2.31561,-1.08043 -4.86264,-1.62071 -7.6411,-1.62083 l -65.29667,0 0,38.20549 65.29667,0 c 2.77846,9e-5 5.32549,-0.463 7.6411,-1.38929 2.46972,-1.08047 4.55366,-2.46976 6.25181,-4.16787 1.85226,-1.85229 3.24154,-3.93623 4.16787,-6.25181 1.08043,-2.31538 1.62071,-4.78523 1.62084,-7.40955"
         id="path3657"
         style="letter-spacing:-17.57597733" />
      <path
         inkscape:connector-curvature="0"
         d="m 389.845,421.2804 c -1.2e-4,8.18143 -1.46659,15.82252 -4.39942,22.9233 -2.93306,7.10085 -6.86938,13.35265 -11.80897,18.75543 -4.9398,5.24844 -10.65133,9.41631 -17.13459,12.50361 -6.32907,2.93295 -12.96679,4.39942 -19.91317,4.39943 -7.10088,-10e-6 -13.81578,-1.46648 -20.14472,-4.39943 -6.32903,-3.0873 -11.88619,-7.25517 -16.67149,-12.50361 -4.78536,-5.40278 -8.56731,-11.65458 -11.34587,-18.75543 -2.7786,-7.10078 -4.16789,-14.74187 -4.16787,-22.9233 -2e-5,-8.49005 1.31208,-16.36269 3.93632,-23.61794 2.77856,-7.2551 6.48333,-13.50691 11.11433,-18.75543 4.78529,-5.40269 10.34245,-9.57056 16.67149,-12.50362 6.32893,-3.0872 13.1982,-4.63085 20.60781,-4.63097 6.79201,1.2e-4 13.35255,1.54377 19.68162,4.63097 6.48326,3.08742 12.19479,7.33247 17.13459,12.73517 4.93959,5.40289 8.87591,11.73187 11.80897,18.98697 3.08719,7.25526 4.63085,14.97354 4.63097,23.15485 m -31.49059,0 c -9e-5,-4.16781 -0.61756,-8.10413 -1.85239,-11.80897 -1.23501,-3.70471 -2.85585,-6.8692 -4.86252,-9.49349 -2.00683,-2.7785 -4.32232,-4.93962 -6.94645,-6.48336 -2.62429,-1.54357 -5.32569,-2.3154 -8.1042,-2.31548 -3.08738,8e-5 -5.94314,0.77191 -8.56729,2.31548 -2.46991,1.54374 -4.70821,3.70486 -6.71491,6.48336 -1.85244,2.62429 -3.31891,5.78878 -4.39942,9.49349 -1.08061,3.70484 -1.62089,7.64116 -1.62084,11.80897 -5e-5,4.01356 0.54023,7.79551 1.62084,11.34588 1.08051,3.55045 2.54698,6.63776 4.39942,9.26193 2.0067,2.62425 4.245,4.70819 6.71491,6.25181 2.62415,1.54369 5.47991,2.31552 8.56729,2.31549 2.77851,3e-5 5.47991,-0.7718 8.1042,-2.31549 2.62413,-1.54362 4.93962,-3.62756 6.94645,-6.25181 2.00667,-2.62417 3.62751,-5.71148 4.86252,-9.26193 1.23483,-3.55037 1.8523,-7.33232 1.85239,-11.34588"
         id="path3659"
         style="font-style:normal;font-variant:normal;font-weight:normal;font-stretch:normal;font-size:231.54847717px;line-height:100%;font-family:'Roadgeek 2005 Series EM';-inkscape-font-specification:'Roadgeek 2005 Series EM';text-align:center;writing-mode:lr-tb;text-anchor:middle" />
      <path
         inkscape:connector-curvature="0"
         d="m 493.03603,477.77823 0,-7.178 c -2.77869,1.85239 -5.4029,3.39604 -7.87265,4.63097 -2.46994,1.08056 -4.86261,1.92957 -7.178,2.54703 -2.31558,0.61746 -4.70824,1.00337 -7.17801,1.15774 -2.31556,0.30873 -4.86259,0.4631 -7.6411,0.4631 -6.94652,0 -12.96677,-0.84901 -18.06078,-2.54704 -4.93975,-1.85238 -9.49353,-4.78532 -13.66136,-8.79884 -3.55045,-3.55039 -6.32903,-7.64108 -8.33574,-12.27207 -2.00679,-4.7853 -3.01016,-9.80218 -3.01013,-15.05065 l 0,-76.17945 31.02749,0 0,65.75977 c -6e-5,5.40284 1.69796,9.95662 5.09407,13.66136 3.39597,3.70481 8.02694,5.55719 13.89291,5.55716 2.7785,3e-5 5.40271,-0.46306 7.87265,-1.38929 2.62412,-1.08053 4.86242,-2.46981 6.7149,-4.16787 2.00666,-1.69799 3.6275,-3.62755 4.86252,-5.78871 1.23482,-2.16108 1.85229,-4.39938 1.85239,-6.71491 l 0,-66.91751 31.02749,0 0,113.22721 -29.40665,0"
         id="path3661"
         style="font-style:normal;font-variant:normal;font-weight:normal;font-stretch:normal;font-size:231.54847717px;line-height:100%;font-family:'Roadgeek 2005 Series EM';-inkscape-font-specification:'Roadgeek 2005 Series EM';text-align:center;writing-mode:lr-tb;text-anchor:middle" />
      <path
         inkscape:connector-curvature="0"
         d="m 601.87106,391.87374 0,42.37338 c -7e-5,5.24847 0.84894,9.26197 2.54703,12.04052 1.69795,2.62424 5.40272,3.7048 11.11433,3.24167 4.01342,-0.3087 6.86918,-1.08053 8.56729,-2.31548 1.8523,-1.23489 4.0906,-3.24165 6.71491,-6.02026 l -8.1042,32.18524 c -2.6243,1.08056 -4.63105,2.00675 -6.02026,2.77858 -1.38937,0.77183 -2.70148,1.38929 -3.93633,1.85239 -1.08063,0.46309 -2.39274,0.77182 -3.93632,0.92619 -1.38936,0.30873 -3.4733,0.4631 -6.25181,0.4631 -10.65128,0 -18.52392,-3.01013 -23.61794,-9.03039 -4.93974,-6.02025 -7.40959,-14.58753 -7.40955,-25.70188 l 0,-52.79306 -21.30246,0 0,-26.85962 21.30246,0 0,-33.11143 30.33285,-12.04052 0,44.68885 28.94356,0 0,27.32272 -28.94356,0"
         id="path3663"
         style="font-style:normal;font-variant:normal;font-weight:normal;font-stretch:normal;font-size:231.54847717px;line-height:100%;font-family:'Roadgeek 2005 Series EM';-inkscape-font-specification:'Roadgeek 2005 Series EM';text-align:center;writing-mode:lr-tb;text-anchor:middle" />
      <path
         inkscape:connector-curvature="0"
         d="m 679.98972,431.00544 c 1.69797,6.48339 4.63092,11.57746 8.79884,15.2822 4.16782,3.55043 8.7216,5.32564 13.66136,5.32561 6.48328,3e-5 12.27199,-3.4732 17.36614,-10.41968 l 21.30246,18.52388 c -5.866,6.94646 -11.88625,11.96334 -18.06078,15.05065 -6.17471,3.08731 -13.04398,4.63097 -20.60782,4.63097 -7.25524,0 -14.12451,-1.46648 -20.60781,-4.39942 -6.4834,-3.08731 -12.19492,-7.25518 -17.13459,-12.50362 -4.93973,-5.24841 -8.87605,-11.42303 -11.80897,-18.52388 -2.93297,-7.25514 -4.39944,-15.0506 -4.39942,-23.3864 -2e-5,-8.18131 1.38927,-15.8224 4.16787,-22.92329 2.93293,-7.10074 6.79206,-13.27536 11.57743,-18.52388 4.78529,-5.4027 10.34245,-9.64775 16.67149,-12.73517 6.32893,-3.0872 12.96665,-4.63085 19.91317,-4.63097 9.26186,1.2e-4 17.75196,2.70151 25.47033,8.1042 7.87254,5.24853 13.8928,12.34935 18.06078,21.30246 2.161,5.24851 3.78184,10.72849 4.86252,16.43994 1.08044,5.55723 1.62072,11.88621 1.62084,18.98698 l 0,4.39942 -70.85384,0 m 38.6686,-25.70188 c -2.16121,-5.71146 -4.63105,-9.72496 -7.40955,-12.04053 -2.6243,-2.46976 -6.09752,-3.70468 -10.41968,-3.70477 -4.16794,9e-5 -8.02708,1.38938 -11.57743,4.16787 -3.3961,2.6243 -5.94313,6.48344 -7.6411,11.57743 l 37.04776,0 0,0"
         id="path3665"
         style="font-style:normal;font-variant:normal;font-weight:normal;font-stretch:normal;font-size:231.54847717px;line-height:100%;font-family:'Roadgeek 2005 Series EM';-inkscape-font-specification:'Roadgeek 2005 Series EM';text-align:center;writing-mode:lr-tb;text-anchor:middle" />
    </g>
    <text
       sodipodi:linespacing="100%"
       x="32.045033"
       y="42.684937"
       id="text3652"
       xml:space="preserve"
       style="font-style:normal;font-variant:normal;font-weight:bold;font-stretch:normal;font-size:31.72118187px;line-height:100%;font-family:'Lucida Bright';-inkscape-font-specification:'Lucida Bright Semi-Bold';text-align:center;writing-mode:lr-tb;text-anchor:middle;fill:none;stroke:#000000;stroke-width:2.64343214px;stroke-linecap:butt;stroke-linejoin:miter;stroke-opacity:1"><tspan
         x="32.045033"
         y="42.684937"
         id="tspan3654"
         style="font-style:normal;font-variant:normal;font-weight:normal;font-stretch:normal;font-size:31.72118187px;line-height:100%;font-family:'Roadgeek 2005 Series EM';-inkscape-font-specification:'Roadgeek 2005 Series D';text-align:center;writing-mode:lr-tb;text-anchor:middle;fill:#000000;fill-opacity:1;stroke:none">%num%</tspan></text>
  </g>
</svg>
