<?xml version="1.0" encoding="UTF-8" standalone="no"?>
<!-- Created with Inkscape (http://www.inkscape.org/) -->

<svg
   xmlns:dc="http://purl.org/dc/elements/1.1/"
   xmlns:cc="http://creativecommons.org/ns#"
   xmlns:rdf="http://www.w3.org/1999/02/22-rdf-syntax-ns#"
   xmlns:svg="http://www.w3.org/2000/svg"
   xmlns="http://www.w3.org/2000/svg"
   xmlns:sodipodi="http://sodipodi.sourceforge.net/DTD/sodipodi-0.dtd"
   xmlns:inkscape="http://www.inkscape.org/namespaces/inkscape"
   height="60"
   width="48"
   version="1.1"
   id="svg2992"
   inkscape:version="0.48.1 r9760"
   sodipodi:docname="CA:MB_suf_1.svg">
  <defs
     id="defs3014" />
  <sodipodi:namedview
     pagecolor="#ffffff"
     bordercolor="#666666"
     borderopacity="1"
     objecttolerance="10"
     gridtolerance="10"
     guidetolerance="10"
     inkscape:pageopacity="0"
     inkscape:pageshadow="2"
     inkscape:window-width="1598"
     inkscape:window-height="1182"
     id="namedview3012"
     showgrid="true"
     inkscape:showpageshadow="false"
     inkscape:zoom="16.533333"
     inkscape:cx="24"
     inkscape:cy="30"
     inkscape:window-x="1"
     inkscape:window-y="1"
     inkscape:window-maximized="0"
     inkscape:current-layer="svg2992">
    <inkscape:grid
       type="xygrid"
       id="grid3005"
       empspacing="5"
       visible="true"
       enabled="true"
       snapvisiblegridlinesonly="true" />
  </sodipodi:namedview>
  <metadata
     id="metadata2994">
    <rdf:RDF>
      <cc:Work
         rdf:about="">
        <dc:format>image/svg+xml</dc:format>
        <dc:type
           rdf:resource="http://purl.org/dc/dcmitype/StillImage" />
        <dc:title></dc:title>
      </cc:Work>
    </rdf:RDF>
  </metadata>
  <path
     d="m 32.046347,11.376817 c -0.130388,0 -0.234858,-0.104226 -0.234858,-0.237335 0,-0.128294 0.104349,-0.237333 0.234858,-0.237333 0.130414,0 0.234883,0.108799 0.234883,0.237333 0,0.133109 -0.104542,0.237335 -0.234883,0.237335 z"
     id="path2998"
     inkscape:connector-curvature="0"
     style="fill:#ffffff;fill-rule:nonzero" />
  <path
     d="m 46.499838,49.754814 c 0,0.695353 -0.458009,0.960954 -1.258305,1.265155 0,0 -20.924064,7.479869 -20.924064,7.479869 0,0 -21.5638747,-7.479869 -21.5638747,-7.479869 C 1.9846455,50.715743 1.5001615,50.450167 1.5001615,49.754814 V 2.7604397 c 0,-0.6905251 0.5640649,-1.2602786 1.2534328,-1.2602786 H 45.241533 c 0.689395,0 1.258305,0.5698023 1.258305,1.2602786 V 49.754814 z"
     stroke-miterlimit="2.61310005"
     id="path3000"
     inkscape:connector-curvature="0"
     style="fill:#ffffff;stroke:#000000;stroke-width:1.00032306;stroke-linecap:butt;stroke-linejoin:miter;stroke-miterlimit:2.61310005;stroke-dasharray:none" />
  <g
     transform="matrix(0.14239131,0,0,0.14243848,-72.151337,-12.661017)"
     id="g3002"
     style="fill:#369141;fill-rule:nonzero">
    <path
       d="m 801.2,191.4 h -7.8244 v -2.1956 c -0.4439,0.60654 -1.8215,2.5695 -6.6801,2.4294 0,0 0.057,0.0383 0.057,0.0383 h -0.4668 c -6.9836,0 -13.056,-5.2786 -14.154,-15.275 -0.4439,0.19133 -0.8419,0.42094 -1.2839,0.74621 -0.2162,0.13393 -0.421,0.32718 -0.6563,0.51469 -0.3042,0.19134 -0.5836,0.42094 -0.8629,0.70029 -2.0783,7.9877 -9.109,13.313 -17.167,13.313 -6.7502,0 -11.748,-4.1575 -11.655,-11.538 0,0 0.057,-4.718 0.057,-4.718 -1.0045,0.42094 -1.9395,0.8878 -2.7793,1.4465 -0.2162,0.19134 -0.4458,0.32719 -0.6773,0.46686 -1.1672,0.93564 -2.1956,1.7297 -3.0597,2.5224 -2.3129,6.9136 -7.9412,11.772 -14.551,11.772 -8.6417,0 -15.649,-8.3616 -15.649,-18.685 0,-4.064 1.0734,-7.801 2.9194,-10.884 h -7.9646 c 0,0 -0.0574,20.554 -0.0574,20.554 0,4.3443 1.5422,6.3064 4.6246,6.6801 0,0 -1.5422,2.4759 -1.5422,2.4759 -7.3335,-0.70029 -13.359,-3.6905 -13.219,-11.024 0,0 -0.0383,-5.045 -0.0383,-5.045 -1.0294,0.37311 -1.9157,0.79405 -2.8262,1.4484 -0.21621,0.13393 -0.42094,0.32718 -0.63141,0.51469 -3.1295,2.4292 -5.7456,5.9793 -5.8857,10.464 v 3.2232 h -9.9265 v -15.649 c -1.0275,0.37311 -2.033,0.84188 -2.9196,1.4484 -0.23917,0.13393 -0.44581,0.32718 -0.65246,0.51469 -2.8964,2.2409 -5.4186,5.4655 -5.9092,9.4828 v 4.2042 h -9.8333 v -25.459 c 0,-2.15 -1.1442,-3.2699 -2.8025,-3.2699 h -0.27935 c -1.5881,0 -4.2276,1.5422 -4.2741,10.183 0,0 0.0191,18.545 0.0191,18.545 h -9.9732 v -15.649 c -1.0045,0.3731 -1.8923,0.79404 -2.756,1.4025 -0.21621,0.19134 -0.44581,0.32719 -0.65628,0.5147 -3.1997,2.4759 -5.8622,6.1193 -5.8857,10.744 0,0 -0.0191,3.0363 -0.0191,3.0363 h -7.801 v -2.1956 c -0.44581,0.60845 -1.8445,2.5694 -6.7268,2.4292 0,0 0.0957,0.0383 0.0957,0.0383 h -0.48982 c -6.6566,0 -12.472,-4.7647 -13.967,-13.92 -3.0832,2.5226 -5.6523,6.0728 -5.7458,10.604 v 2.9896 h -10.861 c 0,0 0.0574,-26.346 0.0574,-26.346 0,0 -8.8989,17.517 -8.8989,17.517 0,0 -8.8288,-16.723 -8.8288,-16.723 v 25.552 h -10.907 v -50.076 h 9.9032 c 0,0 9.8563,19.292 9.8563,19.292 0,0 9.5295,-19.292 9.5295,-19.292 h 10.16 v 36.062 c 1.0045,-0.32718 2.6393,-0.84188 3.5269,-1.4465 0.21621,-0.19134 0.42094,-0.32719 0.65628,-0.46686 0.39607,-0.37311 0.83997,-0.74621 1.215,-1.1212 0,-2.2409 0.42094,-4.9983 0.42094,-4.9983 0.35014,-1.6359 0.8878,-3.1299 1.611,-4.5312 0.0957,-0.19133 0.1722,-0.27935 0.25639,-0.46686 3.0363,-5.5589 8.8522,-9.0624 15.485,-9.0624 h 11.468 v 22.095 c 1.0275,-0.37311 2.6161,-0.84188 3.5036,-1.4943 0.19134,-0.13394 0.42094,-0.32719 0.65246,-0.46686 2.8262,-2.2411 4.8113,-5.6058 5.1617,-9.5295 v -10.604 h 9.9265 v 1.5881 c 0.97965,-0.65246 2.5461,-1.5881 6.7502,-1.5881 h 0.25639 c 7.147,0 10.23,3.4567 10.23,11.071 0,0 0.0191,11.118 0.0191,11.118 1.0294,-0.3731 2.5926,-0.93563 3.4567,-1.5422 0.21621,-0.19133 0.44581,-0.32718 0.63141,-0.46686 3.0363,-2.3821 5.1852,-6.166 5.3486,-10.464 v -9.7162 h 9.9265 v 22.235 c 1.0275,-0.37311 2.616,-0.98156 3.5036,-1.5881 0.1722,-0.19134 0.39798,-0.32719 0.63141,-0.46686 3.0132,-2.3821 5.1152,-6.0724 5.3019,-10.37 v -2.9896 h -4.0173 v -4.4845 h 4.0173 v -16.303 h 10.137 v 16.303 h 11.772 c 2.5457,-2.0544 5.6054,-3.3635 8.922,-3.3635 8.6419,0 15.672,8.4087 15.672,18.732 0,0.83996 -0.077,1.6818 -0.1722,2.4755 0.1339,-0.0957 0.2391,-0.19134 0.3731,-0.27935 2.9427,-2.3343 4.9749,-6.0726 5.1383,-10.23 v -23.637 h 10.277 v 13.547 c 0.5587,-0.0957 1.0274,-0.0957 1.6359,-0.0957 8.3382,0 15.368,5.839 17.167,14.247 0,0 0.3979,1.9612 0.2793,5.1385 0.9108,-0.93563 1.6819,-2.0544 2.3129,-3.2232 0.096,-0.93563 0.2392,-1.5881 0.2392,-1.5881 0.3271,-1.6359 0.8629,-3.1297 1.5881,-4.531 0.077,-0.19133 0.153,-0.27935 0.2391,-0.46686 3.0597,-5.5587 8.8753,-9.0623 15.485,-9.0623 h 11.491 v 36.156 z m -19.082,-18.125 c 0,7.7545 2.6158,10.697 5.2551,10.697 1.3317,0 3.9005,-1.1672 3.9472,-5.699 0,0 0.038,-15.929 0.038,-15.929 h -1.657 c -4.0873,0 -7.5907,4.718 -7.5907,10.931 z m -29.756,-11.258 c -0.5606,0 -1.0294,0.0957 -1.5632,0.32719 0,0 0.019,17.984 0.019,17.984 -0.1339,2.616 1.192,3.6434 2.5226,3.6434 3.3399,0 6.4463,-4.4375 6.4463,-10.697 0,-6.2129 -3.3165,-11.258 -7.4273,-11.258 z m -32.839,-0.27935 c -3.1532,0 -5.7223,5.0448 -5.7223,11.211 0,6.2127 2.5691,11.258 5.7223,11.258 3.1299,0 5.699,-5.045 5.699,-11.258 0,-6.1664 -2.5691,-11.211 -5.699,-11.211 z m -115.24,11.538 c 0,7.7543 2.616,10.697 5.2319,10.697 1.3317,0 3.9239,-1.1672 3.9704,-5.699 0,0 0.0383,-15.929 0.0383,-15.929 h -1.6818 c -4.0871,0 -7.5674,4.7178 -7.5674,10.931 z"
       id="path3004"
       inkscape:connector-curvature="0" />
    <path
       d="m 674.26,141.23 c 3.1297,0 5.6289,2.3343 5.6289,5.1383 0,2.8029 -2.4992,5.0916 -5.6289,5.0916 -3.0832,0 -5.6289,-2.2888 -5.6289,-5.0916 0,-2.8029 2.5457,-5.1383 5.6289,-5.1383 z"
       id="path3006"
       inkscape:connector-curvature="0" />
  </g>
  <text
     style="font-size:32px;font-style:normal;font-variant:normal;font-weight:normal;font-stretch:normal;text-align:end;line-height:125%;writing-mode:lr;text-anchor:end;fill:#000000;font-family:Roadgeek 2005 Series D;-inkscape-font-specification:Roadgeek 2005 Series D"
     line-height="125%"
     xml:space="preserve"
     transform="scale(0.99981773,1.0001823)"
     font-stretch="normal"
     font-size="390.890625px"
     font-variant="normal"
     y="43.991982"
     x="31.005653"
     font-weight="normal"
     font-style="normal"
     id="text3008"
     sodipodi:linespacing="125%"><tspan
       sodipodi:role="line"
       id="tspan4031">%num%</tspan></text>
  <text
     xml:space="preserve"
     style="font-size:22px;font-style:normal;font-variant:normal;font-weight:normal;font-stretch:normal;text-align:start;line-height:125%;letter-spacing:0px;word-spacing:0px;writing-mode:lr;text-anchor:start;fill:#000000;fill-opacity:1;stroke:none;font-family:Roadgeek 2005 Series D;-inkscape-font-specification:Roadgeek 2005 Series D"
     x="31"
     y="38"
     id="text3943"
     sodipodi:linespacing="125%"><tspan
       sodipodi:role="line"
       id="tspan4033">%suf%</tspan></text>
</svg>
