<?xml version="1.0" encoding="UTF-8" standalone="no"?>
<!-- Created with Inkscape (http://www.inkscape.org/) -->

<svg
   xmlns:dc="http://purl.org/dc/elements/1.1/"
   xmlns:cc="http://creativecommons.org/ns#"
   xmlns:rdf="http://www.w3.org/1999/02/22-rdf-syntax-ns#"
   xmlns:svg="http://www.w3.org/2000/svg"
   xmlns="http://www.w3.org/2000/svg"
   xmlns:xlink="http://www.w3.org/1999/xlink"
   xmlns:sodipodi="http://sodipodi.sourceforge.net/DTD/sodipodi-0.dtd"
   xmlns:inkscape="http://www.inkscape.org/namespaces/inkscape"
   version="1.0"
   width="48"
   height="59.980034"
   id="svg559"
   sodipodi:docname="CA:NS_arterial_2.5.svg"
   inkscape:version="0.92.3 (2405546, 2018-03-11)">
  <metadata
     id="metadata65">
    <rdf:RDF>
      <cc:Work
         rdf:about="">
        <dc:format>image/svg+xml</dc:format>
        <dc:type
           rdf:resource="http://purl.org/dc/dcmitype/StillImage" />
        <dc:title></dc:title>
      </cc:Work>
    </rdf:RDF>
  </metadata>
  <sodipodi:namedview
     pagecolor="#ffffff"
     bordercolor="#666666"
     borderopacity="1"
     objecttolerance="10"
     gridtolerance="10"
     guidetolerance="10"
     inkscape:pageopacity="0"
     inkscape:pageshadow="2"
     inkscape:window-width="640"
     inkscape:window-height="480"
     id="namedview63"
     showgrid="false"
     fit-margin-top="0"
     fit-margin-left="0"
     fit-margin-right="0"
     fit-margin-bottom="0"
     showguides="true"
     inkscape:guide-bbox="true"
     inkscape:zoom="9.8532789"
     inkscape:cx="25.826865"
     inkscape:cy="29.990017"
     inkscape:current-layer="svg559">
    <sodipodi:guide
       position="44.959653,-0.20297812"
       orientation="0,1"
       id="guide886"
       inkscape:locked="false" />
  </sodipodi:namedview>
  <defs
     id="defs561">
    <clipPath
       id="clipPath3700">
      <rect
         width="1200"
         height="806.89655"
         rx="56.896553"
         ry="56.896553"
         x="0.68611866"
         y="-1.407639"
         id="rect3702"
         style="fill:none;stroke:#0047b6;stroke-width:2.06896544;stroke-miterlimit:4;stroke-dasharray:none;stroke-opacity:1" />
    </clipPath>
  </defs>
  <g
     id="g941">
    <rect
       style="fill:#ffffff;fill-opacity:1;stroke:#000000;stroke-width:0.07986689;stroke-miterlimit:4;stroke-dasharray:none;stroke-opacity:1"
       id="rect3704"
       y="0.039933447"
       x="0.039933447"
       ry="2.9950082"
       rx="2.9950082"
       height="59.900166"
       width="47.920132" />
    <g
       transform="matrix(0.07986689,0,0,0.07986689,-1.4062971e-5,-1.3311018e-5)"
       id="g3710">
      <g
         id="g3634"
         clip-path="url(#clipPath3700)"
         transform="matrix(0.48250004,0,0,0.4825,10.168948,10)">
        <rect
           style="fill:#ffffff;fill-rule:evenodd"
           id="rect692"
           y="0"
           x="0"
           height="600"
           width="1200" />
        <path
           inkscape:connector-curvature="0"
           style="fill:#0047b6"
           id="path691"
           d="M 1200,600 V 536 L 142,0 H 0 v 65 l 1056,535 z" />
        <use
           xlink:href="#path691"
           height="600"
           width="1200"
           y="0"
           x="0"
           id="use3091"
           transform="matrix(-1,0,0,1,1200,0)" />
        <path
           inkscape:connector-curvature="0"
           style="fill:#fdd44f;fill-opacity:1;fill-rule:evenodd;stroke:#000000;stroke-width:2.88000011;stroke-linecap:butt;stroke-linejoin:miter;stroke-miterlimit:4;stroke-dasharray:none;stroke-opacity:1"
           id="path2161"
           d="m 500.08158,181.73472 201.18089,-0.54666 c 0,0 0.41114,60.80115 -1.06377,127.24279 -1.92337,86.64527 -77.12258,136.43775 -99.52667,135.15704 -26.1234,-1.4726 -98.05065,-53.33375 -101.10456,-134.18549 -2.25106,-59.59689 0.51411,-127.66768 0.51411,-127.66768 z" />
        <path
           inkscape:connector-curvature="0"
           style="fill:#d21034;fill-opacity:1;stroke:#000000;stroke-width:0.99874115"
           id="path2506"
           d="m 653.01956,223.18551 c -1.80992,6.33476 -2.23787,5.19894 -11.2875,7.6875 -9.27594,2.48865 -12.93991,11.08548 -12.4875,20.5875 0.45252,7.9185 2.76659,13.3429 11.1375,21.4875 9.04961,8.59722 13.7625,13.14426 13.7625,23.325 -2.26245,-5.65591 -6.5438,-5.91758 -9.9375,-7.275 -3.16736,-1.13123 -3.38747,-5.15643 -1.125,-8.55 -6.33474,1.35744 -5.90237,6.99764 -3.1875,9.7125 -2.03616,0.45252 -2.24748,0.88885 -2.7,2.925 -2.94104,0.90492 -4.97383,0.24238 -7.4625,-2.925 -1.13123,4.52481 1.3276,6.1125 5.4,6.1125 -6.10855,3.39371 -5.20352,11.72886 0,13.3125 -3.61989,-3.84611 -0.42485,-7.89883 1.8375,-10.3875 -0.67873,5.65604 5.20386,6.09249 6.7875,2.925 -4.07228,0.2263 -3.63104,-7.0125 2.025,-7.0125 5.20353,0 8.4012,5.44887 8.175,10.2 -0.22634,4.75113 -4.33908,12.4512 -13.1625,12.225 -7.6922,-0.22632 -11.75762,-5.22771 -14.925,-9.3 -0.67874,-2.94119 -1.34497,-5.65256 -2.25,-7.4625 -2.71483,-5.88224 -10.19006,-13.5739 -12,-20.5875 -1.24451,-4.66682 -15.17959,-2.6949 -23.85,-1.0125 1.993,-2.19396 3.3369,-4.36137 3.2625,-5.775 -7.6922,-2.71486 -12.6626,-7.92016 -14.925,-13.35 -2.03621,-5.42973 -6.76764,-13.56506 -10.3875,-15.375 -3.84608,-2.03615 -6.79495,-4.29632 -5.4375,-7.2375 1.13119,-2.71487 1.35619,-4.53007 0.225,-5.8875 -0.33937,-0.39592 -0.72555,-0.78696 -1.125,-1.0875 0.0263,-2.12568 -3.07979,-4.0875 -5.2125,-4.0875 1.58368,1.58375 2.02626,2.46517 1.8,4.275 -0.90495,1.58375 -0.44751,1.34257 -0.9,2.7 -0.72968,-1.82412 -2.49066,-3.34341 -3.975,-3.0375 -0.007,-0.006 -0.0308,0.006 -0.0375,0 -1.49834,-1.28447 -4.34372,-2.56533 -6.6375,0.5625 3.24967,0.6094 3.25849,0.6991 4.2,1.6875 -0.12795,0.41979 -0.077,1.00254 0.1125,1.95 -1.87669,-0.75066 -3.42079,-0.55061 -3.9,0.825 -1.39425,-0.44566 -3.65885,0.64268 -4.725,2.775 2.06097,-0.31712 3.70278,-0.40395 4.875,0.1125 0.4638,1.44375 1.39446,2.61025 2.8125,2.1375 2.26243,-0.67862 3.1875,-1.8 3.1875,-1.8 0.45249,1.35744 -1.14237,4.26876 2.025,5.4 -2.71489,0 -5.66125,0.0289 -5.8875,1.6125 -0.11576,0.69483 -0.38891,1.68564 -0.375,2.7 -1.86751,-0.14237 -4.88919,0.1721 -5.7375,-1.3125 1.35744,4.0724 3.88263,4.95504 7.05,4.05 2.26242,1.35754 2.47252,-0.21506 2.925,-2.025 1.35745,0.2262 3.4063,-1.39361 4.5375,-0.2625 1.13119,1.13125 2.96001,5.46505 3.4125,7.275 0.45247,1.58373 1.35,-1.60626 1.35,-2.7375 -10e-6,3.39358 0.225,6.7875 0.225,6.7875 0.45247,-1.13123 1.125,-3.1875 1.125,-3.1875 -2e-5,2.71497 -0.22873,6.13753 0.45,8.4 0.98981,-1.78169 1.79883,-2.67544 1.9875,-3.9375 -0.28676,4.32744 -1.28672,6.37972 -0.6375,10.275 1.13123,-1.13112 2.05753,-2.91386 2.9625,-4.95 -1.80991,4.5248 -1.35745,6.99763 0,9.7125 0.21857,-0.98349 0.66055,-1.64494 1.05,-2.25 -0.2685,2.06954 0.10225,4.28265 1.6125,5.625 -2e-5,-1.79303 0.74071,-1.93947 1.05,-2.475 -0.23412,2.0295 0.0807,2.56356 1.4625,4.5375 1.18776,1.78162 2.74498,2.52306 3.1125,4.5 -0.35786,0.31908 -0.73728,0.61911 -1.0875,0.9375 -2.26243,2.03614 -14.68633,9.24392 -17.175,12.6375 -2.26239,0.45252 -4.97757,0.66385 -6.7875,2.7 -2.48868,0 -7.275,-0.675 -7.275,-0.675 -0.93789,-2.25082 -3.06517,-2.78296 -4.1625,-1.6125 -2.67932,-1.24227 -5.2875,1.22367 -5.2875,4.35 1.54102,-0.96312 3.05076,-1.27604 4.3125,-0.7875 0.28495,0.95112 1.37753,1.48412 4.05,0.975 l 2.7,0.4875 c -2.48865,1.80994 -3.14131,1.79376 -4.725,2.925 -2.71487,0 -6.15497,0.20773 -5.25,3.375 -1.58367,2.03625 -2.22243,5.00894 -0.4125,7.95 0.87405,-1.96662 1.93365,-4.7651 3.6375,-5.3625 0.27521,-0.0294 0.51556,-0.0434 0.8625,-0.075 2.48866,-0.22622 3.18625,-0.92504 3.4125,-3.1875 2.03619,-0.67871 2.91383,-0.17888 4.95,-1.7625 -0.22625,2.94118 -1.0875,4.95 -1.0875,4.95 -1.86505,0.93258 -2.93637,2.32694 -2.25,3.675 -0.69451,1.81302 -0.7067,5.27216 1.7625,6.7125 0.17911,-1.79109 0.25669,-3.53238 1.1625,-4.65 0.84838,0.13849 1.64904,-0.13367 2.25,-0.975 1.35744,-1.80996 1.35373,-2.50125 0.675,-4.5375 0.67873,-1.80984 1.83006,-4.27008 3.1875,-5.175 1.13124,-0.67871 2.02749,-0.90864 1.575,0.675 -0.90494,4.2986 1.58121,4.29512 0.45,7.4625 2.94114,-3.16739 4.72997,-5.19261 3.825,-8.8125 1.13122,3.39368 1.8375,4.05 1.8375,4.05 1.35745,-2.03614 0.90247,-3.85376 0.45,-5.4375 1.35743,2.48865 1.8,3.4125 1.8,3.4125 0.90497,-1.35743 1.57624,-1.37625 1.35,-3.4125 1.35748,1.80994 2.50629,2.02248 3.6375,2.475 -1.13121,-1.58365 0.22625,-2.24006 0,-4.05 0.67872,2.94117 3.36135,4.05502 5.85,3.15 -2.26239,-1.35744 -1.57129,-2.73126 -2.25,-3.8625 1.35747,1.58374 2.95257,3.19 4.7625,2.7375 -1.35745,-1.13111 -0.0325,-2.72875 -0.9375,-4.3125 1.35745,2.26245 2.30638,3.19002 5.7,2.7375 -1.69681,-0.94266 -0.90299,-2.04247 -1.5,-3.0375 1.50979,1.43382 3.45597,2.16134 6.675,2.3625 -0.67868,-1.35743 0.45,-2.2463 0.45,-2.925 0.67873,2.26245 0.90125,2.01876 0.675,3.15 2.26241,-2.03615 3.85878,-2.69376 4.5375,-3.825 1.80994,3.39369 4.07509,5.43006 6.3375,6.7875 3.39363,2.26244 9.73635,1.3301 12.225,4.95 0.72691,0.9692 1.08667,2.13573 1.2,3.4125 -3.08412,-0.015 -5.31857,-0.47962 -7.9875,0.1875 -2.94116,-2.71486 -7.48263,-2.89866 -10.65,-0.8625 -3.1674,2.03616 -6.1202,6.54249 -11.55,3.375 -2.94115,-1.80983 -0.8687,-5.43258 0.2625,-6.3375 -4.07234,0.45252 -6.80984,4.06268 -2.7375,8.5875 -2.71485,-1.58376 -5.2289,0.92984 -9.075,-4.5 0.22621,4.97731 3.18405,9.27495 10.65,7.0125 -6.33473,1.58362 -2.73528,7.24744 -9.975,5.4375 2.94115,3.61989 7.2601,1.78479 9.975,-2.2875 -0.90495,3.16739 -1.1312,2.95004 0,5.2125 2.26245,-2.71485 3.17386,0.23364 5.6625,-1.35 -1.35741,2.48865 -0.006,5.16505 1.125,6.975 1.13121,1.58373 1.80869,1.82634 0.225,3.8625 -5.65603,-0.45251 -13.78511,-1.35371 -16.5,-0.675 -2.48865,-2.03614 -3.13883,-2.91877 -5.175,-4.05 0.45249,-3.39359 -0.47756,-4.99242 -2.2875,-4.0875 -0.43789,0.19464 -0.7826,0.34513 -1.0875,0.4875 -0.009,-0.16136 -0.0142,-0.32432 -0.0375,-0.4875 -1.58372,-0.90492 -5.88254,-2.26859 -6.7875,1.125 1.58369,-10e-6 4.04381,0.93127 5.175,2.0625 -1.92097,-1.0672 -2.85285,-0.93904 -3.9,0.6 -1.53728,-0.49483 -5.17322,0.21988 -3.7875,4.575 1.35744,-0.90494 2.50504,-0.45 3.8625,-0.45 -0.35185,0.35189 -0.63942,0.81183 -0.825,1.3125 -2.32433,-0.53451 -6.15881,0.12656 -5.5125,5.5125 2.1384,-2.13838 4.08541,-1.87883 5.4375,-1.65 0.12078,0.40173 0.25426,0.74172 0.45,0.9375 0.90498,0.90504 2.28252,1.13615 3.1875,-0.9 2.48865,0 5.83883,0.67872 7.875,0 -0.45251,1.13123 -2.02127,1.60878 -2.7,2.2875 -2.74567,0.63366 -3.88967,2.05374 -3.1125,3.7125 -1.09884,1.8374 -1.48917,5.31774 1.7625,7.35 0,-2.03616 0.47758,-3.40388 2.2875,-4.9875 1.58369,-0.45252 2.47749,-1.11254 2.025,-3.375 1.35745,-1.35743 2.46631,-4.31861 4.05,-3.1875 2.2624,2.03628 -0.43856,3.62767 4.3125,5.4375 -0.45247,-1.3573 3.15249,-1.34246 2.7,-2.7 1.13124,2.9412 2.27633,3.36505 4.3125,5.175 0.90498,-1.35743 2.92872,-2.46746 2.25,-3.825 1.58371,3.39369 4.08625,3.81384 4.3125,5.85 2.26242,-2.48857 2.96375,-3.36003 2.7375,-6.075 1.58373,4.07241 2.91384,5.41127 4.95,3.375 1.80995,-2.03614 2.25,-2.7 2.25,-2.7 2.48867,1.58362 5.20257,0.47109 7.0125,-3.375 -3.39361,1.58373 -5.65009,1.77365 -7.9125,-0.2625 -0.90495,-2.71486 -2.02871,-3.39393 -1.35,-6.7875 0.4525,-3.39357 3.40531,-9.4899 11.55,-9.0375 0.0891,0.005 0.17531,-4.6e-4 0.2625,0 0.23891,1.52191 0.70363,3.02438 1.5,4.5375 2.48868,4.0723 4.80994,7.89895 3,10.3875 -1.58366,2.48868 -7.2524,3.60284 -4.5375,9.9375 0.45247,-3.3936 0.66258,-3.81876 2.925,-4.95 -2e-5,3.16739 -0.4274,5.42766 2.2875,7.2375 -0.67873,-2.94108 0.18253,-4.30507 1.0875,-5.6625 1.80989,2.94117 2.94641,4.09744 5.8875,2.2875 -1.58361,-0.90494 -5.86364,-3.38889 -3.375,-7.6875 2.48865,2.94116 4.98007,3.82883 6.3375,3.15 1.58379,-0.67871 3.17133,-0.45886 6.1125,-5.6625 -0.67871,3.8462 -0.23735,6.32383 2.025,8.8125 -2.48865,1.80994 -3.85879,6.32635 -4.5375,8.3625 -0.45252,2.03617 -1.34005,2.05998 -3.15,2.5125 -1.58372,0.4525 -1.37623,-2.025 -3.4125,-2.025 -1.28285,1e-5 -2.27957,1.14215 -2.7375,2.5125 -0.12919,-0.041 -0.2589,-0.0222 -0.4125,-0.0375 -2.26242,0 -5.41365,3.1664 -2.925,7.0125 1.35742,-2.26234 2.24254,-1.83499 3.6,-2.2875 0.0424,-0.0508 0.0721,-0.0943 0.1125,-0.15 0.23597,0.64863 0.50933,1.06092 1.0125,1.3125 -1.23068,0.68373 -1.61342,1.59475 -1.3875,2.625 -0.14047,0.0166 -0.25941,0.041 -0.4125,0.075 -1.58369,1.80993 -1.8236,4.52755 2.475,6.3375 -0.20421,-1.63326 -0.38091,-2.36645 0.4125,-3.4875 0.56034,0.009 1.00771,-0.46174 1.8375,-0.6 -2.48865,2.48868 -2.69222,6.14388 2.7375,7.275 -0.2157,-2.37305 -0.64208,-3.31649 0.3,-4.575 1.05964,0.41043 2.06545,0.25683 2.625,-0.8625 0.90503,-2.03618 -0.2262,-4.30256 0,-6.1125 0.2262,-1.58366 3.40747,-2.01625 4.3125,-3.6 1.13123,2.26244 1.3875,4.05 1.3875,4.05 -0.67663,2.25572 -0.70055,5.18848 2.6625,3.4125 0.1632,0.87838 -0.10734,2.04958 -0.6375,3.375 3.89931,-1.02603 4.62261,-3.19019 4.05,-6.1125 0.37327,-0.66717 0.41884,-1.44011 0.225,-2.7 -0.45241,-2.94118 -2.46888,-2.0649 -3.6,-1.6125 0.22619,-1.58366 0.64253,-2.94873 -0.2625,-5.4375 3.39355,1.35753 5.23633,1.14489 7.725,-2.475 -2.71485,-0.2262 -3.17263,-1.7987 -5.8875,-2.025 4.75111,-1e-5 7.72008,-0.91509 8.625,-4.9875 -2.03617,1.13125 -3.18007,-0.6738 -4.5375,-0.9 2.26233,-0.67872 5.20507,-0.47133 6.5625,-3.4125 -1.80992,1.13121 -3.21505,-2.025 -5.025,-2.025 3.16743,-1.13122 4.56888,-1.56374 5.7,-3.6 -1.80992,0.22632 -3.43765,-2.93615 -5.7,-0.9 2.03619,-2.48866 7.04629,-0.92132 7.725,-3.8625 -2.03615,0.2262 -3.85626,-0.21506 -4.9875,-2.025 -0.90503,-1.80982 -1.15386,-3.8625 -2.7375,-3.8625 2.03619,0.2263 3.1875,0 3.1875,0 -2.71484,-1.58364 -4.3149,-3.84021 -3.8625,-7.9125 -2.94107,3.61989 -7.89763,6.79002 -10.6125,6.3375 -2.71487,-0.4524 -5.8887,-2.26641 -5.6625,-6.1125 0.22624,-3.39358 0.9375,-4.07133 0.9375,-7.0125 2.94117,2.48865 7.46152,4.31873 14.475,3.1875 11.53827,-1.58365 18.52752,-10.65668 18.075,-23.1 -0.45248,-12.217 -3.61794,-18.54654 -14.025,-28.275 -9.72842,-9.04962 -11.54748,-13.11528 -12,-21.7125 -0.45248,-9.27594 3.83517,-15.14257 8.8125,-16.5 3.3937,-1.13123 5.22245,2.68645 3.4125,5.175 -1.58375,2.26244 -2.03375,6.35894 -0.45,9.3 1.80994,-0.4524 2.05135,-1.37888 4.0875,-2.9625 -3.61992,3.39357 -4.77113,8.15149 -3.1875,12.45 1.80996,4.52492 6.55134,4.0875 8.5875,4.0875 -3.16737,-5.88225 1.6125,-7.92387 1.6125,-12.675 0.6787,5.65604 3.38638,7.66617 8.1375,4.725 -3.61986,-0.2262 -4.27992,-4.52504 -3.375,-6.7875 0.67875,-2.03615 2.03615,-2.49751 0,-5.2125 4.07244,1.35755 5.4,-2.00762 5.4,-5.175 -1.58366,2.71487 -4.52635,3.37872 -6.5625,2.7 -1.80985,-0.9049 -2.92128,-1.56375 -3.6,-3.6 -0.67874,-1.58365 -1.5938,-4.7637 -4.9875,-4.5375 2.94117,-2.03616 4.06619,-4.97012 1.125,-8.1375 z" />
        <path
           inkscape:connector-curvature="0"
           style="fill:#d21034;fill-opacity:1;stroke:#000000;stroke-width:0.99874133"
           id="path2499"
           d="m 515.8196,198.50525 v -1.9835 h 1.98355 3.47121 c -4.46298,-6.69446 2.72737,-8.92594 4.21505,-4.95884 0.99176,-1.48762 1.98354,-5.95073 -2.47944,-7.19034 -3.71916,-0.99187 -7.43831,4.21498 -5.7027,8.67796 -2.47944,-3.96711 -8.43009,-6.94234 -11.90129,-6.94234 0,3.47111 2.97531,9.6697 6.94241,11.90118 -4.71093,-1.73561 -9.6698,1.98363 -8.67802,5.70274 1.23972,4.46297 5.7027,3.47123 7.19036,2.72736 -3.96709,-1.73562 -1.7356,-8.92596 4.95887,-4.46298 v 0 z" />
        <path
           inkscape:connector-curvature="0"
           style="fill:#d21034;fill-opacity:1;stroke:#000000;stroke-width:0.99874133"
           id="path2501"
           d="m 526.9854,210.13979 c 2.23149,2.97536 4.71093,2.97536 6.69449,3.22324 -0.49589,-1.9835 -0.49589,-4.46298 -3.22328,-6.44648 1.98356,0.49588 3.47121,0.49588 5.45476,-0.49587 h -8.92597 v 8.92596 c 0.49589,-1.73562 0.74384,-3.22336 0,-5.20685 z" />
        <path
           inkscape:connector-curvature="0"
           style="fill:#d21034;fill-opacity:1;stroke:#000000;stroke-width:0.99874115"
           id="path2510"
           d="m 608.91956,233.57301 c -1.80991,2.26246 -4.30256,4.0863 -6.1125,4.3125 -2.03616,0.22631 -4.98379,-0.23375 -5.6625,1.35 -0.90498,1.35743 -1.59885,1.575 -4.0875,1.575 -2.48867,0 -3.82003,0.45132 -4.725,0.225 -1.13121,-0.2262 -1.35869,1.60506 0.225,2.9625 -0.45247,2.03614 0.4525,3.63139 0,4.7625 -0.45247,1.13124 -0.46117,2.2488 1.575,2.475 0.43432,0.0434 0.83303,0.10101 1.2375,0.15 -0.24089,0.99361 -0.0125,2.31224 1.0125,3.45 -0.0766,0.005 -0.14801,-0.005 -0.225,0 -3.39362,0.2262 -9.49619,-3.83649 -7.9125,-8.5875 -2.48865,1.35744 -3.61365,4.51772 -1.125,8.1375 2.48866,3.61988 5.41515,3.41381 9.4875,3.1875 4.18039,-0.21999 7.31004,-0.64908 9.975,1.2 0.0103,0.66529 -0.43763,1.1889 -1.8375,1.5 -1.18319,0.26288 -3.73361,0.4355 -5.8875,0.4125 -1.00946,-1.0398 -2.0544,-1.74322 -2.25,-3.1125 -0.35977,0.53964 -0.56499,1.91996 -0.525,2.925 -0.25832,-0.0561 -0.46599,-0.1446 -0.6,-0.225 -1.35745,-0.67872 -2.02623,-1.13495 -1.8,0.675 0.22624,2.03614 0.23245,4.08127 -1.125,5.2125 2.0362,0.45252 1.56631,-0.21757 3.15,-1.575 3.39363,0.6786 8.61133,0.90875 11.1,-0.675 -1.1312,2.71497 -1.36639,4.9875 -5.2125,4.9875 -3.84608,0 -4.98128,0.43634 -6.1125,2.925 -3.16737,0.45253 -4.07261,1.11888 -6.7875,2.25 -2.71489,1.13124 -6.09885,0.6774 -8.5875,0.225 0.90497,2.26234 3.17261,4.3125 5.8875,4.3125 -2.26241,0.6787 -3.18626,3.40506 -3.4125,4.7625 -0.22626,1.58376 -2.27262,2.92008 -4.9875,3.825 4.52483,0.22629 6.80391,-0.91269 10.65,-5.4375 4.07236,-4.75114 3.39635,-2.47128 6.3375,-3.15 -2.03619,1.35741 -3.63253,1.60003 -4.5375,3.8625 -1.13119,2.26234 -1.33881,3.1488 -3.375,3.375 2.94115,2.03614 4.98129,1.58865 6.1125,-0.9 0.90497,-2.48867 3.40009,-4.31118 5.6625,-4.5375 -3.16739,1.80996 -3.1875,2.04883 -3.1875,4.5375 10e-6,2.48865 -0.89256,5.18122 -2.25,4.05 1.35743,2.71486 3.14131,2.97114 4.725,1.3875 1.35747,-1.80994 1.60381,-3.40506 3.1875,-4.7625 -1.35746,2.26234 -2.73501,5.20758 -3.1875,6.1125 -0.67871,1.13123 -0.67003,2.24508 -1.575,3.15 2.03617,0.22631 5.20753,-0.21756 6.1125,-1.575 0.9898,-1.38578 3.35752,-6.06806 4.0875,-9.3375 -0.66921,4.10959 -0.9,5.45988 -0.9,6.8625 1e-5,1.35743 -0.7125,3.375 -0.7125,3.375 2.71489,-2e-5 4.76125,-1.10894 4.9875,-4.05 0.22624,-2.94118 -0.004,-4.07265 0.675,-6.7875 10e-6,3.61991 0.45,4.07263 0.45,6.7875 10e-6,2.71487 1.37385,3.82128 3.8625,4.5 -1.13123,-2.48867 0.68245,-3.17133 -0.675,-6.1125 -1.13121,-2.94107 -1.12872,-3.36506 -0.45,-5.175 1.13122,3.16738 1.80125,2.91133 1.575,5.4 -0.22621,2.48854 2.71764,4.99242 6.3375,4.0875 -2.03619,-2.03615 -2.70495,-6.56644 -1.8,-12.675 0.22627,7.46599 4.06761,9.95859 7.6875,6.1125 -2.71496,-0.67872 -3.64122,-2.04021 -2.9625,-6.1125 2.03617,2.03614 4.31009,1.36486 4.7625,-1.35 -3.16735,-0.67872 -4.05251,-3.40508 -3.6,-4.7625 0.67875,-1.58363 0.64493,-2.46756 -0.7125,-3.825 2.71483,0.6787 5.6601,1.10488 6.1125,-2.0625 -2.26233,0 -4.04881,-0.66254 -4.275,-2.925 -0.22635,-2.26234 -0.47755,-4.08008 -2.2875,-5.4375 2.9412,0.6787 3.85375,0.46737 5.4375,-2.7 -2.715,0.4524 -4.98618,-0.69753 -5.2125,-3.4125 -0.22622,-2.71487 1.36607,-5.65386 -1.575,-7.2375 1.35742,-1.13123 1.57368,-2.23886 1.8,-4.275 -1.13126,1.13121 -2.23759,2.7037 -4.5,2.025 -0.90497,-3.61978 -3.39014,-6.7887 -7.4625,-6.5625 0.90498,-1.80994 1.13121,-1.82504 0,-4.0875 z m -8.175,16.7625 c 0,1.0738 -0.27939,2.9832 0.225,4.875 -2.61605,-0.48302 -5.14316,-0.55343 -7.9125,-0.4125 0.54743,-1.3084 0.7372,-2.53621 1.2,-3.3 0.59915,-0.0625 1.17923,-0.19588 1.7625,-0.4875 2.03617,-1.13123 2.91507,0.004 4.725,-0.675 z" />
        <path
           inkscape:connector-curvature="0"
           style="fill:none;stroke:#000000;stroke-width:0.99874115"
           id="path2518"
           d="m 600.76203,247.61338 c -0.22624,1.80983 1.80993,4.29849 3.16738,5.20352" />
        <path
           inkscape:connector-curvature="0"
           style="fill:none;stroke:#000000;stroke-width:0.99874115"
           id="path2520"
           d="m 620.44505,259.83039 c -2.71492,-1.58375 -3.39364,-2.94119 -4.52483,-5.42986" />
        <path
           inkscape:connector-curvature="0"
           style="fill:none;stroke:#000000;stroke-width:0.99874115"
           id="path2522"
           d="m 620.89757,270.23743 c -0.90504,-1.1311 -2.26246,-1.80982 -2.71496,-3.61977" />
        <path
           inkscape:connector-curvature="0"
           style="fill:none;stroke:#000000;stroke-width:0.99874115"
           id="path2524"
           d="m 620.44505,280.19209 c 0.67872,-3.84609 -0.67872,-6.33476 -2.71492,-7.69219" />
        <path
           inkscape:connector-curvature="0"
           style="fill:none;stroke:#000000;stroke-width:0.99874115"
           id="path2526"
           d="m 615.69397,280.19209 c -0.22625,-2.03614 -0.22625,-4.97732 -0.45247,-5.65604" />
        <path
           inkscape:connector-curvature="0"
           style="fill:none;stroke:#000000;stroke-width:0.99874115"
           id="path2528"
           d="m 599.63082,271.59487 c -2.71489,0.67883 -4.52482,0.67883 -6.56099,1.35755 -2.03617,0.4524 -1.35746,0.90491 -4.07234,2.48855 -2.71491,1.80995 -4.07236,2.48867 -7.0135,3.1675" />
        <path
           inkscape:connector-curvature="0"
           style="fill:none;stroke:#000000;stroke-width:0.99874115"
           id="path2530"
           d="m 603.70316,304.85243 c 3.61987,3.16738 6.56101,7.01347 7.0135,10.85957" />
        <path
           inkscape:connector-curvature="0"
           style="fill:none;stroke:#000000;stroke-width:0.99874115"
           id="path2532"
           d="m 591.03366,301.68504 c 2.71489,0.90492 3.39361,0.90492 4.97731,0.67872" />
        <path
           inkscape:connector-curvature="0"
           style="fill:none;stroke:#000000;stroke-width:0.99874115"
           id="path2534"
           d="m 548.72651,234.49133 c 2.2624,0.90492 5.65603,3.39359 6.78724,5.65605" />
        <path
           inkscape:connector-curvature="0"
           style="fill:none;stroke:#000000;stroke-width:0.99874115"
           id="path2536"
           d="m 555.06127,233.3601 c 0.67871,1.80995 1.35743,3.16738 2.03616,4.52482" />
        <path
           inkscape:connector-curvature="0"
           style="fill:none;stroke:#000000;stroke-width:0.99874115"
           id="path2538"
           d="m 649.85639,245.35091 c 1.13122,-1.80995 2.26246,-2.48867 2.26246,-4.29861" />
        <path
           inkscape:connector-curvature="0"
           style="fill:none;stroke:#000000;stroke-width:0.99874115"
           id="path2540"
           d="m 650.30891,253.26942 c -0.45252,3.61978 0,6.33475 4.75112,7.69219" />
        <path
           inkscape:connector-curvature="0"
           style="fill:#000000;stroke:#000000;stroke-width:0.99874115"
           id="path2542"
           d="m 597.59463,243.08856 c 0.4525,-0.90502 1.13122,-1.80995 1.13122,-1.80995 1.1312,1.13113 3.61987,1.80995 2.71489,3.39358 -2.71489,0.45252 -4.52481,-0.67871 -5.42977,-1.58363 z" />
        <path
           inkscape:connector-curvature="0"
           style="fill:none;stroke:#000000;stroke-width:0.99874115"
           id="path2544"
           d="m 611.84786,243.54096 c 2.26242,0.22631 5.88227,1.80995 7.23975,2.94118" />
        <path
           inkscape:connector-curvature="0"
           style="fill:none;stroke:#000000;stroke-width:0.99874115"
           id="path2546"
           d="m 632.88836,337.43115 c 2.03615,-0.2262 2.71487,0.45252 4.2985,-0.67871 0,1.80995 -0.4524,3.16737 -0.2262,4.5248" />
        <path
           inkscape:connector-curvature="0"
           style="fill:none;stroke:#000000;stroke-width:0.99874115"
           id="path2548"
           d="m 614.33652,335.1688 c 0.22625,2.26235 3.16737,4.97734 5.65601,4.07229" />
        <path
           inkscape:connector-curvature="0"
           style="fill:none;stroke:#000000;stroke-width:0.99874115"
           id="path2550"
           d="m 560.03856,336.52624 c 1.5837,0.67871 2.26242,2.03615 2.94115,2.94117 0.45248,1.13113 1.58369,2.03615 3.16738,2.94107" />
        <path
           inkscape:connector-curvature="0"
           style="fill:none;stroke:#000000;stroke-width:0.99874115"
           id="path2552"
           d="m 556.19247,341.27724 c 2.03616,-1.1311 3.61986,-1.1311 4.52482,0.45252 0.90497,1.35743 1.58369,1.35743 3.16738,1.80995" />
        <path
           inkscape:connector-curvature="0"
           style="fill:none;stroke:#000000;stroke-width:0.99874115"
           id="path2554"
           d="m 619.31382,372.95105 c 2.26245,-0.67871 3.39369,-1.35743 4.2986,-3.39358" />
        <path
           inkscape:connector-curvature="0"
           style="fill:none;stroke:#000000;stroke-width:0.99874115"
           id="path2556"
           d="m 622.25499,377.92839 c -0.22632,-2.03615 0.2262,-2.48867 1.35743,-3.16739 1.35744,-0.90491 2.26247,-2.03615 2.71487,-2.94106" />
        <path
           inkscape:connector-curvature="0"
           style="fill:#d21034;fill-opacity:1;stroke:#000000;stroke-width:0.99874115"
           id="path2559"
           d="m 523.92468,284.17073 c 8.51679,1.8066 4.64552,8.77487 0.51618,6.96827 0.51617,1.8066 3.09701,5.93596 7.22635,3.6132 3.61318,-2.06461 2.58085,-8.51672 -2.06467,-10.83961 4.64552,1.29045 11.09761,-1.0323 13.67846,-3.61307 -2.58085,-2.5809 -9.03294,-4.6455 -13.67846,-3.6132 4.64552,-2.06476 5.67785,-8.77487 2.06467,-10.58147 -4.12934,-2.32276 -6.71018,1.8066 -7.22635,3.35506 4.12934,-1.54846 8.00061,5.16165 -0.51618,6.96826 z" />
        <path
           inkscape:connector-curvature="0"
           style="fill:#d21034;fill-opacity:1;stroke:#000000;stroke-width:0.99874115"
           id="path2561"
           d="m 515.43833,286.78801 c -2.58083,-0.25801 -4.38742,0.77429 -6.71019,2.32288 0.77425,-2.83903 2.06469,-4.38749 4.38743,-5.4198 -3.87125,0.51616 -5.67785,-1.29044 -7.22635,-2.5809 1.5485,-1.0323 3.3551,-2.83891 7.22635,-2.58075 -2.32274,-1.03232 -3.61318,-2.32276 -4.38743,-5.16167 2.32277,1.54845 4.12936,2.32275 6.71019,2.06461 z" />
        <path
           inkscape:connector-curvature="0"
           style="fill:#d21034;fill-opacity:1;stroke:#000000;stroke-width:0.99874169"
           id="path2564"
           d="m 661.17081,376.75242 c 2.49897,1.81729 6.58788,-1.13587 2.95331,-4.9977 1.36294,-2.27174 2.27164,-4.54349 3.18029,-6.81511 5.90645,0.90865 5.67924,-4.99782 2.27176,-5.45214 0,-0.22711 0,-0.22711 0,-0.45433 1.36293,-1.13587 4.99767,-2.72607 7.04217,0.68155 1.8174,2.95317 -1.5902,7.49654 -6.13353,7.49654 4.08903,0.90878 4.9978,3.63473 5.90644,6.5879 -2.95332,0.90877 -5.90644,1.5902 -8.85964,-1.13576 2.49884,3.63472 0.68156,9.08675 -2.72604,9.31397 -3.18041,0 -4.08905,-2.27174 -4.3162,-4.08904 0.22715,-0.45446 0.45436,-0.90878 0.68144,-1.13588 z" />
        <path
           inkscape:connector-curvature="0"
           style="fill:#d21034;fill-opacity:1;stroke:#000000;stroke-width:0.99874169"
           id="path2566"
           d="m 647.41085,366.05707 c 2.02522,-1.58239 3.68649,-2.06495 5.9414,-1.78809 -3.0183,-1.51499 -3.41772,-3.85285 -3.90035,-5.51424 1.80375,0.22146 3.91594,-0.20574 6.40045,1.93026 -1.13151,-1.96986 -1.16322,-3.57591 -0.40771,-6.00077 0.87807,2.1677 1.4163,3.37807 4.15372,5.31631 -1.71294,2.76517 -3.22787,5.78332 -5.39175,8.49311 -2.70944,-2.16378 -4.28784,-2.35757 -6.79576,-2.43658 z" />
        <path
           inkscape:connector-curvature="0"
           style="fill:#d21034;fill-opacity:1;stroke:#000000;stroke-width:0.99874163"
           id="path2571"
           d="m 604.23119,422.5359 c -1.17264,0.39096 -2.34528,0.97722 -3.32249,1.36809 l -0.58632,0.19549 -0.58632,-0.19549 c -0.97721,-0.39087 -2.14985,-0.97713 -3.32249,-1.36809 h -0.39088 c 0.19545,2.14993 -0.39088,3.32254 -1.56352,5.0815 1.9544,-0.58636 3.12704,-1.3681 3.9088,-3.12706 -0.19543,2.7362 1.17264,4.10428 1.95441,5.47237 0.78176,-1.36809 2.14985,-2.73617 1.9544,-5.47237 0.78177,1.75896 1.95441,2.5407 4.10424,3.12706 -1.17263,-1.75896 -1.9544,-2.93157 -1.75896,-5.0815 z" />
        <path
           inkscape:connector-curvature="0"
           style="fill:none;stroke:#d21034;stroke-width:3.5999999;stroke-linecap:butt;stroke-linejoin:miter;stroke-miterlimit:4;stroke-dasharray:none;stroke-opacity:1"
           id="path4525"
           d="m 517.56806,198.03941 166.88953,-0.46913 c 0,0 0.34106,52.17777 -0.88209,109.19602 -1.5958,74.3564 -71.12316,116.53719 -82.56265,115.98779 -21.68249,-1.04136 -81.33792,-45.76947 -83.87128,-115.15401 -1.86739,-51.14433 0.42649,-109.56067 0.42649,-109.56067 z" />
        <path
           inkscape:connector-curvature="0"
           style="fill:#d21034;fill-opacity:1;stroke:#000000;stroke-width:0.99874163"
           id="path2569"
           d="m 608.53088,411.49956 c 1.17264,-0.39087 4.49513,-2.34531 2.73617,-5.66775 -1.56353,-2.5408 -6.44953,-1.75896 -8.2085,1.75896 0.9772,-3.51792 -0.78177,-8.40394 -2.73617,-10.55378 -1.95441,2.14984 -3.51793,7.03586 -2.73617,10.55378 -1.75896,-3.51792 -6.64498,-4.29976 -8.01305,-1.75896 -1.95441,3.32244 1.36807,5.27688 2.54071,5.66775 -1.17264,-3.12705 3.51794,-5.66775 5.08148,2.93157 l 3.12703,1.17271 c 0.78176,-0.19548 1.9544,-0.78184 3.12704,-1.17271 1.56353,-8.59932 6.2541,-6.05862 5.08146,-2.93157 z" />
        <path
           inkscape:connector-curvature="0"
           style="fill:none;stroke:#d21034;stroke-width:3.5999999;stroke-linecap:butt;stroke-linejoin:miter;stroke-miterlimit:4;stroke-dasharray:none;stroke-opacity:1"
           id="path5496"
           d="m 525.3038,204.49513 150.69989,-0.44197 c 0,0 0.30814,49.15577 -0.79637,102.87172 -1.44109,70.04989 -64.22371,109.7877 -74.55345,109.27007 -19.57916,-0.981 -73.44756,-43.11863 -75.73515,-108.48458 -1.68627,-48.18223 0.38508,-103.21524 0.38508,-103.21524 z" />
        <path
           inkscape:connector-curvature="0"
           style="fill:#d21034;fill-opacity:1;stroke:#000000;stroke-width:0.99874169"
           id="path2336"
           d="m 539.10342,376.75242 c -2.49897,1.81729 -6.58788,-1.13587 -2.95331,-4.9977 -1.36294,-2.27174 -2.27164,-4.54349 -3.18029,-6.81511 -5.90645,0.90865 -5.67924,-4.99782 -2.27175,-5.45214 0,-0.22711 0,-0.22711 0,-0.45433 -1.36294,-1.13587 -4.99768,-2.72607 -7.04218,0.68155 -1.8174,2.95317 1.5902,7.49654 6.13354,7.49654 -4.08904,0.90878 -4.99781,3.63473 -5.90645,6.5879 2.95332,0.90877 5.90645,1.5902 8.85965,-1.13576 -2.49885,3.63472 -0.68157,9.08675 2.72604,9.31397 3.1804,0 4.08904,-2.27174 4.31619,-4.08904 -0.22715,-0.45446 -0.45435,-0.90878 -0.68144,-1.13588 z" />
        <path
           inkscape:connector-curvature="0"
           style="fill:#d21034;fill-opacity:1;stroke:#000000;stroke-width:0.99874169"
           id="path2338"
           d="m 552.37931,366.55162 c -1.93965,-1.68622 -3.57338,-2.25508 -5.83968,-2.09659 3.09345,-1.35496 3.61467,-3.66872 4.18359,-5.30256 -1.81286,0.12675 -3.89979,-0.41039 -6.49269,1.59265 1.23306,-1.90795 1.34877,-3.51012 0.72121,-5.97121 -0.99033,2.11878 -1.59117,3.29931 -4.42627,5.09163 1.56588,2.85103 2.92077,5.94432 4.93986,8.76365 2.81896,-2.01901 4.40535,-2.12994 6.91398,-2.07757 z" />
        <path
           inkscape:connector-curvature="0"
           style="fill:none;stroke:#000000;stroke-width:1.20000005;stroke-linecap:butt;stroke-linejoin:miter;stroke-miterlimit:4;stroke-dasharray:none;stroke-opacity:1"
           id="path6644"
           d="m 515.63847,196.10982 169.97687,-0.0832 c 0,0 1.11289,54.49328 -0.11025,111.51153 -1.5958,74.3564 -73.05275,117.30902 -84.49224,116.75961 -21.68249,-1.04136 -82.88159,-46.92721 -85.41495,-116.31175 -1.86739,-51.14433 0.0406,-111.87618 0.0406,-111.87618 z" />
        <path
           inkscape:connector-curvature="0"
           style="fill:#d21034;fill-opacity:1;stroke:#000000;stroke-width:0.99874133"
           id="path2346"
           d="m 685.83053,197.96371 v -1.98349 h -1.98354 -3.47127 c 4.46301,-6.69447 -2.72737,-8.92596 -4.21505,-4.95884 -0.99174,-1.48762 -1.98354,-5.95073 2.47948,-7.19035 3.71916,-0.99187 7.43827,4.21498 5.7027,8.67795 2.47942,-3.9671 8.43008,-6.94233 11.90129,-6.94233 0,3.4711 -2.97534,9.6697 -6.94241,11.90118 4.71091,-1.73562 9.66978,1.98363 8.67798,5.70273 -1.2397,4.46298 -5.70264,3.47124 -7.19032,2.72736 3.96708,-1.7356 1.73558,-8.92595 -4.95886,-4.46297 v 0 z" />
        <path
           inkscape:connector-curvature="0"
           style="fill:#d21034;fill-opacity:1;stroke:#000000;stroke-width:0.99874133"
           id="path2348"
           d="m 673.60944,210.44698 c -2.2315,2.97536 -4.71096,2.97536 -6.6945,3.22324 0.49586,-1.9835 0.49586,-4.46299 3.22329,-6.44646 -1.9836,0.49586 -3.4712,0.49586 -5.4548,-0.49588 h 8.92601 v 8.92596 c -0.49593,-1.73562 -0.74383,-3.22337 0,-5.20686 z" />
        <path
           inkscape:connector-curvature="0"
           style="fill:#d21034;fill-opacity:1;stroke:#000000;stroke-width:0.99874115"
           id="path2362"
           d="m 674.05815,284.17073 c -8.51679,1.8066 -4.64552,8.77487 -0.51618,6.96827 -0.51616,1.8066 -3.097,5.93596 -7.22636,3.6132 -3.61316,-2.06461 -2.58084,-8.51672 2.06468,-10.83961 -4.64552,1.29045 -11.09762,-1.0323 -13.67846,-3.61307 2.58084,-2.5809 9.03294,-4.6455 13.67846,-3.6132 -4.64552,-2.06476 -5.67784,-8.77487 -2.06468,-10.58147 4.12936,-2.32276 6.7102,1.8066 7.22636,3.35506 -4.12934,-1.54846 -8.00061,5.16165 0.51618,6.96826 z" />
        <path
           inkscape:connector-curvature="0"
           style="fill:#d21034;fill-opacity:1;stroke:#000000;stroke-width:0.99874115"
           id="path2364"
           d="m 685.78409,286.78801 c 2.58082,-0.25801 4.38741,0.77429 6.71018,2.32288 -0.77425,-2.83903 -2.06468,-4.38749 -4.38743,-5.4198 3.87125,0.51616 5.67785,-1.29044 7.22635,-2.5809 -1.5485,-1.0323 -3.3551,-2.83891 -7.22635,-2.58075 2.32275,-1.03232 3.61318,-2.32276 4.38743,-5.16167 -2.32277,1.54845 -4.12936,2.32275 -6.71018,2.06461 z" />
        <path
           inkscape:connector-curvature="0"
           style="fill:#d21034;fill-opacity:1;stroke:#000000;stroke-width:0.99874163"
           id="path2378"
           d="m 592.21004,208.39149 c -1.17264,0.39087 -4.49513,2.34531 -2.73617,5.66775 1.56353,2.54081 6.44954,1.75896 8.2085,-1.75896 -0.9772,3.51792 0.78177,8.40394 2.73616,10.55377 1.95441,-2.14983 3.51794,-7.03585 2.73618,-10.55377 1.75896,3.51792 6.64497,4.29977 8.01305,1.75896 1.95441,-3.32244 -1.36808,-5.27688 -2.54072,-5.66775 1.17264,3.12705 -3.51792,5.66775 -5.08146,-2.93157 l -3.12705,-1.17271 c -0.78176,0.19549 -1.95439,0.78184 -3.12704,1.17271 -1.56353,8.59932 -6.25409,6.05862 -5.08145,2.93157 z" />
        <path
           inkscape:connector-curvature="0"
           style="fill:#d21034;fill-opacity:1;stroke:#000000;stroke-width:0.99874163"
           id="path2380"
           d="m 596.50973,196.51023 c 1.17264,-0.39095 2.34529,-0.97721 3.32248,-1.36808 l 0.58632,-0.19549 0.58632,0.19549 c 0.97721,0.39087 2.14986,0.97713 3.32249,1.36808 h 0.39089 c -0.19544,-2.14993 0.39089,-3.32253 1.56353,-5.08149 -1.95442,0.58636 -3.12705,1.36809 -3.90882,3.12705 0.19543,-2.73619 -1.17264,-4.10427 -1.95441,-5.47237 -0.78176,1.3681 -2.14984,2.73618 -1.95439,5.47237 -0.78177,-1.75896 -1.95441,-2.54069 -4.10425,-3.12705 1.17264,1.75896 1.9544,2.93156 1.75896,5.08149 z" />
        <path
           inkscape:connector-curvature="0"
           style="fill:none;stroke:#000000;stroke-width:1.20000029;stroke-linecap:butt;stroke-linejoin:miter;stroke-miterlimit:4;stroke-dasharray:none;stroke-opacity:1"
           id="path8584"
           d="m 519.46263,199.57811 163.07019,-0.0807 c 0,0 1.06766,52.83562 -0.10576,108.11944 -1.53095,72.09455 -70.08437,113.74056 -81.05905,113.20785 -20.80145,-1.00963 -79.51384,-45.49969 -81.94424,-112.7736 -1.79151,-49.58858 0.0389,-108.473 0.0389,-108.473 z" />
        <path
           inkscape:connector-curvature="0"
           style="fill:none;stroke:#000000;stroke-width:1.19999981;stroke-linecap:butt;stroke-linejoin:miter;stroke-miterlimit:4;stroke-dasharray:none;stroke-opacity:1"
           id="path8586"
           d="m 524.04383,202.92437 153.30619,-0.0786 c 0,0 1.00374,51.46121 -0.0994,105.30686 -1.43926,70.2191 -65.88795,110.7817 -76.20556,110.26285 -19.55596,-0.98333 -74.75284,-44.31607 -77.03776,-109.8399 -1.68425,-48.29857 0.0366,-105.65117 0.0366,-105.65117 z" />
        <path
           inkscape:connector-curvature="0"
           style="fill:none;stroke:#000000;stroke-width:1.20000005;stroke-linecap:butt;stroke-linejoin:miter;stroke-miterlimit:4;stroke-dasharray:none;stroke-opacity:1"
           id="path8588"
           d="m 527.09865,206.54057 146.87622,-0.0759 c 0,0 0.96164,49.67603 -0.0952,101.65381 -1.37892,67.78331 -63.12454,106.93877 -73.00941,106.43793 -18.73575,-0.94921 -71.61759,-42.77878 -73.80669,-106.02969 -1.61361,-46.62309 0.0351,-101.98616 0.0351,-101.98616 z" />
      </g>
      <path
         inkscape:connector-curvature="0"
         style="fill:none;stroke:#0047b6;stroke-width:2.99407887;stroke-miterlimit:4;stroke-dasharray:none;stroke-opacity:1"
         id="rect3706"
         d="M 40.398004,11.587799 H 560.10801 c 15.73079,0 28.39485,12.176561 28.39485,27.301719 l 10e-5,261.113442 H 11.497039 L 12.003268,38.889518 c 0,-15.125158 12.664065,-27.301719 28.394736,-27.301719 z" />
    </g>
    <path
       inkscape:connector-curvature="0"
       style="fill:#0047b6;fill-opacity:1;stroke:none;stroke-width:0.06480646"
       id="path3769"
       d="M 0.79865594,25.237927 H 47.121446 v 17.97005 c 0,8.87147 -18.49065,15.92172 -23.15335,15.97338 -4.36224,0.0483 -23.16944006,-7.10008 -23.16944006,-15.97338 z" />
  </g>
  <text
     xml:space="preserve"
     style="font-style:normal;font-variant:normal;font-weight:normal;font-stretch:normal;font-size:26.66666667px;line-height:125%;font-family:'Roadgeek 2000 Series C';-inkscape-font-specification:'Roadgeek 2000 Series C, Normal';font-variant-ligatures:normal;font-variant-caps:normal;font-variant-numeric:normal;font-feature-settings:normal;text-align:center;letter-spacing:0px;word-spacing:0px;writing-mode:lr;text-anchor:middle;fill:#ffffff;fill-opacity:1;stroke:none;stroke-width:1px;stroke-linecap:butt;stroke-linejoin:miter;stroke-opacity:1;"
     x="24.008333"
     y="46.978397"
     id="text874"><tspan
       sodipodi:role="line"
       id="tspan951">%num%</tspan></text>
</svg>
