<?xml version="1.0" encoding="UTF-8" standalone="no"?>
<!-- Created with Inkscape (http://www.inkscape.org/) -->

<svg
   xmlns:dc="http://purl.org/dc/elements/1.1/"
   xmlns:cc="http://creativecommons.org/ns#"
   xmlns:rdf="http://www.w3.org/1999/02/22-rdf-syntax-ns#"
   xmlns:svg="http://www.w3.org/2000/svg"
   xmlns="http://www.w3.org/2000/svg"
   xmlns:sodipodi="http://sodipodi.sourceforge.net/DTD/sodipodi-0.dtd"
   xmlns:inkscape="http://www.inkscape.org/namespaces/inkscape"
   version="1.1"
   width="48"
   height="48"
   id="svg3509"
   sodipodi:docname="CA:NL_6.svg"
   inkscape:version="0.92.3 (2405546, 2018-03-11)">
  <sodipodi:namedview
     pagecolor="#ffffff"
     bordercolor="#666666"
     borderopacity="1"
     objecttolerance="10"
     gridtolerance="10"
     guidetolerance="10"
     inkscape:pageopacity="0"
     inkscape:pageshadow="2"
     inkscape:window-width="640"
     inkscape:window-height="480"
     id="namedview3915"
     showgrid="false"
     fit-margin-top="0"
     fit-margin-left="0"
     fit-margin-right="0"
     fit-margin-bottom="0"
     inkscape:pagecheckerboard="true"
     inkscape:zoom="12.3125"
     inkscape:cx="32.135877"
     inkscape:cy="27.240213"
     inkscape:current-layer="svg3509" />
  <defs
     id="defs3511" />
  <metadata
     id="metadata3514">
    <rdf:RDF>
      <cc:Work
         rdf:about="">
        <dc:format>image/svg+xml</dc:format>
        <dc:type
           rdf:resource="http://purl.org/dc/dcmitype/StillImage" />
        <dc:title></dc:title>
      </cc:Work>
    </rdf:RDF>
  </metadata>
  <g
     id="g3943"
     transform="matrix(1.0452174,0,0,1.0452174,-1.0852169,-1.0852169)">
    <rect
       style="fill:#006b54;fill-opacity:1;fill-rule:nonzero;stroke:none;stroke-width:0.07986689"
       id="rect3521"
       y="1.03827"
       x="1.0382698"
       ry="2.4958403"
       rx="2.4958403"
       height="45.923462"
       width="45.923462" />
    <rect
       width="39.933441"
       height="27.953411"
       x="4.0332789"
       y="16.013313"
       id="rect3517"
       style="fill:#ffffff;fill-opacity:1;fill-rule:nonzero;stroke:none;stroke-width:0.07986689" />
    <g
       transform="matrix(0.07986689,0,0,0.07986689,-2.3811147,-21.788025)"
       id="text4295"
       style="font-style:normal;font-variant:normal;font-weight:normal;font-stretch:normal;font-size:148.80952454px;line-height:125%;font-family:'Roadgeek 2005 Series EM';-inkscape-font-specification:'Roadgeek 2005 Series EM';text-align:start;letter-spacing:0px;word-spacing:0px;writing-mode:lr-tb;text-anchor:start;fill:#ffffff;fill-opacity:1;stroke:none">
      <path
         d="m 155.0008,423.80423 -13.69047,-37.5 h -26.19048 v 37.5 H 95.476995 v -100 h 45.089285 c 2.08327,10e-5 3.91859,0.0993 5.50595,0.29762 1.68644,0.0993 3.22414,0.29772 4.6131,0.59524 1.48802,0.29771 2.87691,0.74414 4.16666,1.33928 1.28961,0.49613 2.6289,1.14097 4.01786,1.93453 4.86103,2.77787 8.68047,6.5477 11.45834,11.30952 2.77768,4.76198 4.16657,9.97031 4.16666,15.625 -9e-5,5.45641 -1.24017,10.51593 -3.72024,15.17857 -2.48024,4.66275 -6.00206,8.48219 -10.56547,11.45833 l 15.77381,42.26191 H 155.0008 m 0,-68.89881 c -7e-5,-3.17453 -1.19054,-5.8035 -3.57142,-7.8869 -2.38102,-2.18247 -5.40681,-3.27373 -9.07739,-3.27381 h -27.23214 v 22.61904 h 27.23214 c 3.67058,6e-5 6.69637,-1.0416 9.07739,-3.125 2.38088,-2.08327 3.57135,-4.86104 3.57142,-8.33333"
         id="path4300"
         inkscape:connector-curvature="0" />
      <path
         d="m 276.3759,373.80423 c -10e-5,7.93655 -0.99216,15.129 -2.97619,21.57738 -1.98422,6.34923 -4.8116,11.75597 -8.48215,16.22024 -3.5715,4.46429 -7.93658,7.93651 -13.09523,10.41667 -5.1588,2.38095 -10.86316,3.57142 -17.1131,3.57142 -7.53973,0 -13.98813,-1.43849 -19.34524,-4.31547 -5.25796,-2.97619 -9.57343,-6.89483 -12.94643,-11.75595 -3.37303,-4.8611 -5.85319,-10.36704 -7.44047,-16.51786 -1.48811,-6.24996 -2.23216,-12.64877 -2.23215,-19.19643 -1e-5,-7.83724 0.94245,-14.93049 2.82738,-21.27976 1.98412,-6.34913 4.76189,-11.75587 8.33334,-16.22024 3.67061,-4.46419 8.08529,-7.88681 13.24405,-10.26786 5.25789,-2.48006 11.11106,-3.72013 17.55952,-3.72024 6.05153,1.1e-4 11.60708,1.24018 16.66667,3.72024 5.05945,2.48026 9.42452,6.00208 13.09523,10.56548 3.76976,4.46437 6.69635,9.87111 8.77977,16.22024 2.08324,6.25006 3.1249,13.2441 3.125,20.98214 m -19.64286,-0.44643 c -7e-5,-10.81343 -1.9346,-18.70033 -5.80357,-23.66071 -3.76991,-4.96024 -9.17665,-7.4404 -16.22024,-7.44048 -7.1429,8e-5 -12.59925,2.62905 -16.36905,7.88691 -3.76987,5.258 -5.65479,13.1449 -5.65476,23.66071 -3e-5,10.21829 1.88489,18.10519 5.65476,23.66071 3.86901,5.45637 9.32535,8.18455 16.36905,8.18453 6.84518,2e-5 12.20232,-2.92657 16.07143,-8.77976 3.96818,-5.85315 5.95231,-13.69044 5.95238,-23.51191"
         id="path4302"
         inkscape:connector-curvature="0" />
      <path
         d="m 380.88669,382.88161 c -9e-5,5.05956 -0.39691,9.27583 -1.19047,12.64881 -0.79374,3.27383 -2.18263,6.64685 -4.16667,10.11905 -1.68659,2.9762 -3.76992,5.70438 -6.25,8.18452 -2.38103,2.38096 -5.0596,4.46429 -8.03571,6.25 -2.97626,1.78572 -6.15086,3.125 -9.52381,4.01786 -3.37308,0.99206 -6.8453,1.48809 -10.41667,1.48809 -5.4564,0 -10.66473,-1.04166 -15.625,-3.125 -4.86114,-2.08333 -9.17662,-4.9107 -12.94643,-8.48214 -3.76986,-3.57141 -6.79565,-7.73808 -9.07738,-12.5 -2.18255,-4.76188 -3.27382,-9.8214 -3.27381,-15.17857 v -3.42262 -59.07738 h 19.64286 v 59.07738 2.82738 c -3e-5,2.67861 0.5952,5.25797 1.78571,7.7381 1.19044,2.38098 2.72814,4.51391 4.6131,6.39881 1.98408,1.78573 4.21622,3.22422 6.69643,4.31547 2.57931,0.99208 5.20828,1.48812 7.8869,1.4881 3.67058,2e-5 7.09319,-0.89284 10.26786,-2.67857 3.27374,-1.7857 5.8035,-4.26585 7.58929,-7.44048 0.49595,-0.99203 0.89278,-1.88489 1.19047,-2.67857 0.39675,-0.79362 0.64477,-1.63687 0.74405,-2.52976 0.19834,-0.99203 0.29754,-2.0337 0.29762,-3.125 0.0991,-1.19044 0.14873,-2.62893 0.14881,-4.31548 v -59.07738 h 19.64285 v 59.07738 0"
         id="path4304"
         inkscape:connector-curvature="0" />
      <path
         d="m 445.54676,343.74471 v 80.05952 h -19.19643 v -80.05952 h -27.67857 v -19.94048 h 74.10714 v 19.94048 h -27.23214"
         id="path4306"
         inkscape:connector-curvature="0" />
      <path
         d="m 491.04294,423.80423 v -100 h 72.76786 v 19.94048 h -53.125 v 16.36904 h 30.05952 v 19.94048 H 510.6858 v 23.80952 h 54.46429 v 19.94048 h -74.10715"
         id="path4308"
         inkscape:connector-curvature="0" />
    </g>
  </g>
  <text
     xml:space="preserve"
     style="font-style:normal;font-variant:normal;font-weight:normal;font-stretch:normal;font-size:21.33333333px;line-height:125%;font-family:'Roadgeek 2005 Series B';-inkscape-font-specification:'Roadgeek 2005 Series B, Normal';font-variant-ligatures:normal;font-variant-caps:normal;font-variant-numeric:normal;font-feature-settings:normal;text-align:center;letter-spacing:0px;word-spacing:0px;writing-mode:lr;text-anchor:middle;fill:#000000;fill-opacity:1;stroke:none;stroke-width:1px;stroke-linecap:butt;stroke-linejoin:miter;stroke-opacity:1;"
     x="23.997501"
     y="37.441624"
     id="text3947"><tspan
       sodipodi:role="line"
       id="tspan4045">%num%</tspan></text>
</svg>
