<?xml version="1.0" encoding="UTF-8" standalone="no"?>
<svg
   xmlns:dc="http://purl.org/dc/elements/1.1/"
   xmlns:cc="http://creativecommons.org/ns#"
   xmlns:rdf="http://www.w3.org/1999/02/22-rdf-syntax-ns#"
   xmlns:svg="http://www.w3.org/2000/svg"
   xmlns="http://www.w3.org/2000/svg"
   xmlns:sodipodi="http://sodipodi.sourceforge.net/DTD/sodipodi-0.dtd"
   xmlns:inkscape="http://www.inkscape.org/namespaces/inkscape"
   version="1.1"
   width="29.858"
   height="48.000568"
   overflow="visible"
   viewBox="0 0 29.858 48.000568"
   enable-background="new 0.0 0.0 210.0 340.0"
   id="svg2"
   inkscape:version="0.92.3 (2405546, 2018-03-11)"
   sodipodi:docname="CA:ON:primary_2.5.svg"
   style="overflow:visible">
  <metadata
     id="metadata198">
    <rdf:RDF>
      <cc:Work
         rdf:about="">
        <dc:format>image/svg+xml</dc:format>
        <dc:type
           rdf:resource="http://purl.org/dc/dcmitype/StillImage" />
        <dc:title></dc:title>
      </cc:Work>
    </rdf:RDF>
  </metadata>
  <sodipodi:namedview
     pagecolor="#ffffff"
     bordercolor="#666666"
     borderopacity="1"
     objecttolerance="10"
     gridtolerance="10"
     guidetolerance="10"
     inkscape:pageopacity="0"
     inkscape:pageshadow="2"
     inkscape:window-width="640"
     inkscape:window-height="481"
     id="namedview196"
     showgrid="false"
     inkscape:zoom="15.706089"
     inkscape:cx="16.2079"
     inkscape:cy="17.42778"
     inkscape:window-x="0"
     inkscape:window-y="0"
     inkscape:window-maximized="0"
     inkscape:current-layer="g192"
     fit-margin-top="0"
     fit-margin-left="0"
     fit-margin-right="0"
     fit-margin-bottom="0" />
  <defs
     id="defs4">
    <inkscape:perspective
       sodipodi:type="inkscape:persp3d"
       inkscape:vp_x="0 : 170 : 1"
       inkscape:vp_y="0 : 999.99999 : 0"
       inkscape:vp_z="210 : 170 : 1"
       inkscape:persp3d-origin="105 : 113.33333 : 1"
       id="perspective200" />
  </defs>
  <g
     id="g8"
     transform="matrix(0.1429865,0,0,0.1429865,-0.10603052,-0.10723988)">
    <g
       id="g10">
      <path
         d="m 199.3,107.8 c 6.86667,-0.2 10.2,3.13333 10,10 V 180 C 205.7,246.83334 170.98334,298.90002 105.15,336.2 39.316666,298.9 4.5999985,246.83331 1,180 v -62.2 c -0.20000005,-6.86667 3.133333,-10.2 10,-10 h 41.7 c -0.166667,-2.56667 0.883332,-4.28334 3.15,-5.15 -1.833334,-4 -1.716665,-8.35 0.35,-13.05 v -6 l 1.2,-1.8 -4.75,-6.25 H 51.8 l -4,-6.75 0.15,-4.1 -6.15,-12.5 c -1.4,-3.5 -0.06667,-6.3 4,-8.4 L 91.1,21.5 V 1 h 28.1 v 20.5 l 45.3,22.3 c 4.06667,2.1 5.4,4.9 4,8.4 l -6.15,12.5 0.15,4.1 -4,6.75 h -0.8 l -4.8,6.25 1.2,1.8 v 6 c 2.06667,4.7 2.2,9.05 0.4,13.05 2.23334,0.86666 3.26668,2.58333 3.1,5.15 z M 155.95,57.1 155.8,55.85 c -4.46666,-2.566667 -9.64999,-3.45 -15.55,-2.65 -5.06667,-2.8 -10.71666,-2.8 -16.95,0 -5.9,-0.666667 -10.76667,0.199998 -14.6,2.6 v 5.4 l -2.35,8.1 8.55,-3.3 v 9.6 L 106.35,72 c 0.16666,1.299995 0.44999,2.166664 0.85,2.6 8.66666,8.76667 16.3,9.216666 22.9,1.35 -0.53333,-0.83334 -0.53333,-1.6 0,-2.3 -1.4,-2.333334 -3.06667,-4.15 -5,-5.45 -0.0667,2.56667 -0.8,4.46667 -2.2,5.7 -1.03333,-2.4 -1.23333,-4.966666 -0.6,-7.7 0.73333,-1.93334 1.85,-2.433337 3.35,-1.5 1.46667,0.93333 2.81667,2.216664 4.05,3.85 -0.8,-4.833333 -0.23334,-8.45 1.7,-10.85 1.93333,2.4 2.5,6.016667 1.7,10.85 1.23333,-1.633336 2.6,-2.91667 4.1,-3.85 1.46666,-0.933334 2.58333,-0.43334 3.35,1.5 0.6,2.733334 0.38332,5.3 -0.65,7.7 -1.4,-1.23333 -2.13334,-3.13333 -2.2,-5.7 -1.93334,1.3 -3.60001,3.116666 -5,5.45 0.33333,0.76667 0.33333,1.51667 0,2.25 l 2.35,2.3 c 4.86667,3.9 10.35001,2.8 16.45,-3.3 l 0.55,-0.55 1.4,-1.55 0.05,-0.15 -0.65,-0.15 -0.4,-0.25 -5.95,-0.1 1.5,-5.35 4.7,2.85 0.2,-6.35 3.05,0.8 c 0.23333,-2.233335 0.23333,-4.566667 0,-7 z m -6,29 c 0,-3.96667 0.78334,-7.65 2.35,-11.05 -6.2,9.23333 -13.16667,10.516666 -20.9,3.85 -8.36667,8.033334 -16.91666,7.4 -25.65,-1.9 h -1.2 c -8.733334,9.299995 -17.28334,9.93333 -25.65,1.9 -7.73333,6.666666 -14.699995,5.38333 -20.9,-3.85 1.566666,3.400005 2.35,7.08334 2.35,11.05 z m 2.45,10.1 0.05,-0.25 -0.2,0.2 z m -0.85,6.7 c 0.0667,-0.9 -0.11667,-1.8 -0.55,-2.7 l -2.4,4.4 h 2 0.45 z m -37.8,-69.1 c -0.76667,-3.033334 -2.8,-4.983332 -6.1,-5.85 V 26 h 3.25 c -2.36667,-1.5 -3.60001,-3.116667 -3.7,-4.85 v -1.8 h 1.75 c 1.83333,0.1 3.5,1.333334 5,3.7 V 11.8 c -1.5,2.366667 -3.16667,3.600001 -5,3.7 h -1.75 v -1.9 c 0.1,-1.833333 1.33333,-3.5 3.7,-5 H 99.4 c 2.36666,1.5 3.59999,3.166667 3.7,5 v 1.9 h -1.75 c -1.83334,-0.1 -3.5,-1.333333 -5,-3.7 v 11.25 c 1.5,-2.366668 3.16666,-3.600001 5,-3.7 h 1.75 v 1.8 C 103,22.883333 101.76667,24.5 99.4,26 h 3.25 v 1.95 c -3.3,0.866668 -5.333334,2.816666 -6.1,5.85 h 7.1 v -6.35 h 3 v 6.35 z m -5.65,9.6 c 3.16666,-1.433333 5.04999,-3.7 5.65,-6.8 h -17.2 c 0.6,3.1 2.48333,5.366667 5.65,6.8 z m -6.5,17.8 V 55.8 C 97.76666,53.4 92.899994,52.533337 87,53.2 80.76667,50.4 75.11667,50.4 70.05,53.2 64.15,52.4 58.966667,53.28333 54.5,55.85 l -0.15,1.25 c -0.233335,2.433333 -0.233335,4.766665 0,7 l 3.05,-0.8 0.2,6.35 4.7,-2.85 1.5,5.35 -5.95,0.1 -0.35,0.25 -0.7,0.15 0.1,0.15 1.4,1.55 0.5,0.55 c 6.099994,6.1 11.599994,7.2 16.5,3.3 l 2.3,-2.3 c -0.33334,-0.73333 -0.33334,-1.48333 0,-2.25 -1.4,-2.333334 -3.06667,-4.15 -5,-5.45 -0.06667,2.56667 -0.8,4.46667 -2.2,5.7 -1.03333,-2.4 -1.23333,-4.966666 -0.6,-7.7 0.73333,-1.93334 1.85,-2.433337 3.35,-1.5 1.46667,0.93333 2.81667,2.216664 4.05,3.85 -0.8,-4.833333 -0.23333,-8.45 1.7,-10.85 1.933336,2.4 2.5,6.016667 1.7,10.85 1.23333,-1.633336 2.6,-2.91667 4.1,-3.85 1.466664,-0.933334 2.58333,-0.43334 3.35,1.5 0.6,2.733334 0.383334,5.3 -0.65,7.7 -1.4,-1.23333 -2.13334,-3.13333 -2.2,-5.7 -1.93333,1.3 -3.599994,3.116666 -5,5.45 0.53333,0.7 0.53333,1.46666 0,2.3 6.599995,7.866666 14.23333,7.41667 22.9,-1.35 0.4,-0.433336 0.68333,-1.300005 0.85,-2.6 L 95.4,75.6 V 66 l 8.55,3.3 z m 3.55,-45.7 0.5,0.05 c 0.4,0.06667 0.73334,0.233333 1,0.5 l 0.5,0.8 0.1,0.6 -0.1,0.6 -0.5,0.75 c -0.4,0.399999 -0.88334,0.6 -1.45,0.6 h -0.05 c -0.6,0 -1.1,-0.200001 -1.5,-0.6 l -0.5,-0.75 -0.1,-0.6 0.1,-0.6 0.5,-0.8 c 0.26667,-0.266667 0.60001,-0.433333 1,-0.5 z m 0,3.9 H 105.1 Z M 90,90.75 V 90.7 l -0.15,0.05 H 89.7 l -0.15,0.05 -0.1,0.1 -0.1,0.05 -0.1,0.1 -0.1,0.15 -0.1,0.15 L 89,91.5 v 0.15 0.15 0.15 l 0.05,0.15 0.1,0.15 0.1,0.15 0.1,0.05 0.1,0.1 0.1,0.05 0.15,0.05 0.15,0.05 H 90 90.15 l 0.1,-0.05 0.15,-0.05 0.15,-0.05 0.1,-0.1 0.1,-0.05 0.05,-0.1 0.1,-0.15 L 90.95,92 91,91.85 V 91.7 91.55 L 90.95,91.4 90.9,91.25 90.8,91.1 90.65,90.95 90.55,90.9 90.4,90.8 90.25,90.75 h -0.1 z m -0.75,0.3 -0.05,0.05 z m -0.1,0.15 -0.05,0.05 z m -0.1,0.15 V 91.4 Z M 89,91.5 v 0.05 z m 0,0.15 v 0.05 z m 0,0.15 v 0.05 z m 0,0.15 0.05,0.05 z m 0.05,0.15 0.05,0.05 z m 0.1,0.15 0.05,0.05 z m 1.65,0.05 0.05,-0.05 z m 0.1,-0.15 V 92.1 Z M 90.95,92 V 91.95 Z M 91,91.85 V 91.8 Z M 91,91.7 V 91.65 Z M 91,91.55 90.95,91.5 Z M 90.95,91.4 90.9,91.35 Z M 90.9,91.25 90.85,91.2 Z M 90.8,91.1 90.75,91.05 Z M 90.65,96.55 90.55,96.5 90.4,96.4 90.25,96.35 H 90.15 90 89.85 89.7 l -0.15,0.05 -0.1,0.1 -0.1,0.05 -0.1,0.1 -0.1,0.15 -0.1,0.15 L 89,97.1 v 0.15 0.15 0.15 l 0.05,0.15 0.1,0.15 0.1,0.15 0.1,0.05 0.1,0.1 0.1,0.05 0.15,0.05 0.15,0.05 H 90 90.15 l 0.1,-0.05 0.15,-0.05 0.15,-0.05 0.1,-0.1 L 90.75,98 90.8,97.9 90.9,97.75 90.95,97.6 91,97.45 V 97.3 97.15 L 90.95,97 90.9,96.85 90.8,96.7 Z M 90,96.35 V 96.3 Z m -0.75,0.3 -0.05,0.05 z m -0.1,0.15 -0.05,0.05 z m -0.1,0.15 V 97 Z M 89,97.1 v 0.05 z m 0,0.15 v 0.05 z m 0,0.15 v 0.05 z m 0,0.15 0.05,0.05 z m 0.05,0.15 0.05,0.05 z m 0.1,0.15 0.05,0.05 z m 1.65,0.05 0.05,-0.05 z m 0.1,-0.15 V 97.7 Z M 90.95,97.6 V 97.55 Z M 91,97.45 V 97.4 Z M 91,97.3 V 97.25 Z M 91,97.15 90.95,97.1 Z M 90.95,97 90.9,96.95 Z M 90.9,96.85 90.85,96.8 Z M 90.8,96.7 90.75,96.65 Z m 4.3,-5.9 -0.15,-0.05 H 94.85 94.7 94.55 94.4 l -0.15,0.05 -0.1,0.1 -0.1,0.05 -0.1,0.1 -0.1,0.15 -0.1,0.15 -0.05,0.15 v 0.15 0.15 0.15 l 0.05,0.15 0.1,0.15 0.1,0.15 0.1,0.05 0.1,0.1 0.1,0.05 0.15,0.05 0.15,0.05 h 0.15 0.15 l 0.1,-0.05 0.15,-0.05 0.15,-0.05 0.1,-0.1 0.1,-0.05 0.05,-0.1 0.1,-0.15 L 95.65,92 95.7,91.85 V 91.7 91.55 L 95.65,91.4 95.6,91.25 95.5,91.1 95.35,90.95 95.25,90.9 Z M 94.7,90.75 V 90.7 Z m -0.75,0.3 -0.05,0.05 z m -0.1,0.15 -0.05,0.05 z m -0.1,0.15 V 91.4 Z M 93.7,91.5 v 0.05 z m 0,0.15 v 0.05 z m 0,0.15 v 0.05 z m 0,0.15 0.05,0.05 z m 0.05,0.15 0.05,0.05 z m 0.1,0.15 0.05,0.05 z m 1.65,0.05 0.05,-0.05 z m 0.1,-0.15 V 92.1 Z M 95.65,92 V 91.95 Z M 95.7,91.85 V 91.8 Z m 0,-0.15 v -0.05 z m 0,-0.15 -0.05,-0.05 z M 95.65,91.4 95.6,91.35 Z M 95.6,91.25 95.55,91.2 Z M 95.5,91.1 95.45,91.05 Z m -2.95,2.35 H 92.45 92.3 92.15 92 l -0.15,0.05 -0.1,0.1 -0.1,0.05 -0.1,0.1 -0.1,0.15 -0.1,0.15 -0.05,0.15 v 0.15 0.15 0.15 l 0.05,0.15 0.1,0.15 0.1,0.15 0.1,0.05 0.1,0.1 0.1,0.05 0.15,0.05 0.15,0.05 h 0.15 0.15 l 0.1,-0.05 0.15,-0.05 0.15,-0.05 0.1,-0.1 0.1,-0.05 0.05,-0.1 0.1,-0.15 0.05,-0.15 0.05,-0.15 V 94.4 94.25 L 93.25,94.1 93.2,93.95 93.1,93.8 92.95,93.65 92.85,93.6 92.7,93.5 Z m -0.25,0 V 93.4 Z m -0.75,0.3 -0.05,0.05 z m -0.1,0.15 -0.05,0.05 z m -0.1,0.15 V 94.1 Z M 91.3,94.2 v 0.05 z m 0,0.15 v 0.05 z m 0,0.15 v 0.05 z m 0,0.15 0.05,0.05 z m 0.05,0.15 0.05,0.05 z m 0.1,0.15 L 91.5,95 Z M 93.1,95 93.15,94.95 Z m 0.1,-0.15 V 94.8 Z M 93.25,94.7 V 94.65 Z M 93.3,94.55 V 94.5 Z m 0,-0.15 v -0.05 z m 0,-0.15 -0.05,-0.05 z M 93.25,94.1 93.2,94.05 Z M 93.2,93.95 93.15,93.9 Z M 93.1,93.8 93.05,93.75 Z m 2.25,2.75 -0.1,-0.05 -0.15,-0.1 -0.15,-0.05 H 94.85 94.7 94.55 94.4 l -0.15,0.05 -0.1,0.1 -0.1,0.05 -0.1,0.1 -0.1,0.15 -0.1,0.15 -0.05,0.15 v 0.15 0.15 0.15 l 0.05,0.15 0.1,0.15 0.1,0.15 0.1,0.05 0.1,0.1 0.1,0.05 0.15,0.05 0.15,0.05 h 0.15 0.15 l 0.1,-0.05 0.15,-0.05 0.15,-0.05 0.1,-0.1 0.1,-0.05 0.05,-0.1 0.1,-0.15 0.05,-0.15 0.05,-0.15 V 97.3 97.15 L 95.65,97 95.6,96.85 95.5,96.7 Z M 94.7,96.35 V 96.3 Z m -0.75,0.3 -0.05,0.05 z m -0.1,0.15 -0.05,0.05 z m -0.1,0.15 V 97 Z M 93.7,97.1 v 0.05 z m 0,0.15 v 0.05 z m 0,0.15 v 0.05 z m 0,0.15 0.05,0.05 z m 0.05,0.15 0.05,0.05 z m 0.1,0.15 0.05,0.05 z m 1.65,0.05 0.05,-0.05 z m 0.1,-0.15 V 97.7 Z M 95.65,97.6 V 97.55 Z M 95.7,97.45 V 97.4 Z m 0,-0.15 v -0.05 z m 0,-0.15 -0.05,-0.05 z M 95.65,97 95.6,96.95 Z M 95.6,96.85 95.55,96.8 Z M 95.5,96.7 95.45,96.65 Z m 21.05,-5.3 v -0.05 l -0.05,-0.1 -0.1,-0.15 -0.15,-0.15 -0.1,-0.05 -0.1,-0.1 -0.15,-0.05 h -0.15 l -0.15,-0.05 -0.15,0.05 h -0.1 l -0.15,0.05 -0.15,0.1 -0.1,0.05 -0.1,0.1 -0.1,0.15 -0.05,0.15 -0.05,0.15 -0.05,0.15 v 0.15 l 0.05,0.15 0.05,0.15 0.05,0.15 0.1,0.15 0.1,0.05 0.1,0.1 0.15,0.05 0.15,0.05 0.1,0.05 h 0.15 0.15 l 0.15,-0.05 0.15,-0.05 0.1,-0.05 0.1,-0.1 0.1,-0.05 0.05,-0.1 0.1,-0.15 0.05,-0.15 0.05,-0.15 V 91.7 91.55 Z m 0.05,0.15 V 91.5 Z m 0,0.15 v -0.05 z m 0,0.15 V 91.8 Z m -0.05,0.15 0.05,-0.05 z m -0.05,0.15 0.05,-0.05 z m -0.1,0.15 0.05,-0.05 z m -1.65,-0.05 0.05,0.05 z M 114.7,92.1 v 0.05 z m -0.05,-0.15 V 92 Z M 114.6,91.8 v 0.05 z m 0,-0.15 v 0.05 z m 0.05,-0.15 -0.05,0.05 z m 0.05,-0.15 -0.05,0.05 z m 0.05,-0.15 -0.05,0.05 z m 0.1,-0.15 -0.05,0.05 z m 0.75,-0.35 v 0.05 z m 0.8,0.4 -0.05,-0.05 z m 0.1,0.15 -0.05,-0.05 z m 4.25,-0.45 -0.15,-0.05 h -0.15 l -0.15,-0.05 -0.15,0.05 h -0.1 l -0.15,0.05 -0.15,0.1 -0.1,0.05 -0.1,0.1 -0.1,0.15 -0.05,0.15 -0.05,0.15 -0.05,0.15 v 0.15 l 0.05,0.15 0.05,0.15 0.05,0.15 0.1,0.15 0.1,0.05 0.1,0.1 0.15,0.05 0.15,0.05 0.1,0.05 h 0.15 0.15 l 0.15,-0.05 0.15,-0.05 0.1,-0.05 0.1,-0.1 0.1,-0.05 0.05,-0.1 0.1,-0.15 0.05,-0.15 0.05,-0.15 V 91.7 91.55 l -0.05,-0.15 -0.05,-0.15 -0.1,-0.15 -0.15,-0.15 -0.1,-0.05 z m 0.35,0.3 -0.05,-0.05 z m 0.1,0.15 -0.05,-0.05 z m 0.05,0.15 v -0.05 z m 0.05,0.15 V 91.5 Z m 0,0.15 v -0.05 z m 0,0.15 V 91.8 Z m -0.05,0.15 0.05,-0.05 z m -0.05,0.15 0.05,-0.05 z m -0.1,0.15 0.05,-0.05 z m -1.65,-0.05 0.05,0.05 z M 119.4,92.1 v 0.05 z m -0.05,-0.15 V 92 Z M 119.3,91.8 v 0.05 z m 0,-0.15 v 0.05 z m 0.05,-0.15 -0.05,0.05 z m 0.05,-0.15 -0.05,0.05 z m 0.05,-0.15 -0.05,0.05 z m 0.1,-0.15 -0.05,0.05 z m 0.75,-0.35 v 0.05 z m -4.15,5.8 -0.1,-0.1 -0.15,-0.05 h -0.15 l -0.15,-0.05 -0.15,0.05 h -0.1 l -0.15,0.05 -0.15,0.1 -0.1,0.05 -0.1,0.1 -0.1,0.15 -0.05,0.15 -0.05,0.15 -0.05,0.15 v 0.15 l 0.05,0.15 0.05,0.15 0.05,0.15 0.1,0.15 0.1,0.05 0.1,0.1 0.15,0.05 0.15,0.05 0.1,0.05 h 0.15 0.15 l 0.15,-0.05 0.15,-0.05 0.1,-0.05 0.1,-0.1 0.1,-0.05 0.05,-0.1 0.1,-0.15 0.05,-0.15 0.05,-0.15 V 97.3 97.15 L 116.55,97 116.5,96.85 116.4,96.7 116.25,96.55 Z m 0.25,0.2 -0.05,-0.05 z m 0.1,0.15 -0.05,-0.05 z m 0.05,0.15 v -0.05 z m 0.05,0.15 V 97.1 Z m 0,0.15 v -0.05 z m 0,0.15 V 97.4 Z m -0.05,0.15 0.05,-0.05 z m -0.05,0.15 0.05,-0.05 z m -0.1,0.15 0.05,-0.05 z m -1.65,-0.05 0.05,0.05 z M 114.7,97.7 v 0.05 z m -0.05,-0.15 V 97.6 Z M 114.6,97.4 v 0.05 z m 0,-0.15 v 0.05 z m 0.05,-0.15 -0.05,0.05 z m 0.05,-0.15 -0.05,0.05 z m 0.05,-0.15 -0.05,0.05 z m 0.1,-0.15 -0.05,0.05 z m 0.75,-0.35 v 0.05 z m 3.4,-1.9 v -0.05 -0.1 l -0.05,-0.15 -0.05,-0.15 -0.1,-0.15 -0.15,-0.15 -0.1,-0.05 -0.1,-0.1 -0.15,-0.05 h -0.15 L 118,93.4 l -0.15,0.05 h -0.1 l -0.15,0.05 -0.15,0.1 -0.1,0.05 -0.1,0.1 -0.1,0.15 -0.05,0.15 -0.05,0.15 -0.05,0.15 v 0.15 l 0.05,0.15 0.05,0.15 0.05,0.15 0.1,0.15 0.1,0.05 0.1,0.1 0.15,0.05 0.15,0.05 0.1,0.05 h 0.15 0.15 l 0.15,-0.05 0.15,-0.05 0.1,-0.05 0.1,-0.1 0.1,-0.05 0.05,-0.1 0.1,-0.15 0.05,-0.15 0.05,-0.15 z m 0,0.15 V 94.5 Z m -0.05,0.15 0.05,-0.05 z m -0.05,0.15 0.05,-0.05 z m -0.1,0.15 0.05,-0.05 z M 117.15,94.95 117.2,95 Z M 117.1,94.8 v 0.05 z m -0.05,-0.15 V 94.7 Z M 117,94.5 v 0.05 z m 0,-0.15 v 0.05 z m 0.05,-0.15 -0.05,0.05 z m 0.05,-0.15 -0.05,0.05 z m 0.05,-0.15 -0.05,0.05 z m 0.1,-0.15 -0.05,0.05 z M 118,93.4 v 0.05 z m 0.8,0.4 -0.05,-0.05 z m 0.1,0.15 -0.05,-0.05 z m 0.05,0.15 V 94.05 Z M 119,94.25 V 94.2 Z m 2.1,2.45 -0.05,-0.05 -0.1,-0.1 -0.1,-0.05 -0.1,-0.1 -0.15,-0.05 h -0.15 l -0.15,-0.05 -0.15,0.05 h -0.1 l -0.15,0.05 -0.15,0.1 -0.1,0.05 -0.1,0.1 -0.1,0.15 -0.05,0.15 -0.05,0.15 -0.05,0.15 v 0.15 l 0.05,0.15 0.05,0.15 0.05,0.15 0.1,0.15 0.1,0.05 0.1,0.1 0.15,0.05 0.15,0.05 0.1,0.05 h 0.15 0.15 l 0.15,-0.05 0.15,-0.05 0.1,-0.05 0.1,-0.1 0.1,-0.05 0.05,-0.1 0.1,-0.15 0.05,-0.15 0.05,-0.15 V 97.3 97.15 L 121.25,97 121.2,96.85 Z m 0.1,0.15 -0.05,-0.05 z m 0.05,0.15 v -0.05 z m 0.05,0.15 V 97.1 Z m 0,0.15 v -0.05 z m 0,0.15 V 97.4 Z m -0.05,0.15 0.05,-0.05 z m -0.05,0.15 0.05,-0.05 z m -0.1,0.15 0.05,-0.05 z m -1.65,-0.05 0.05,0.05 z M 119.4,97.7 v 0.05 z m -0.05,-0.15 V 97.6 Z M 119.3,97.4 v 0.05 z m 0,-0.15 v 0.05 z m 0.05,-0.15 -0.05,0.05 z m 0.05,-0.15 -0.05,0.05 z m 0.05,-0.15 -0.05,0.05 z m 0.1,-0.15 -0.05,0.05 z m 0.75,-0.35 v 0.05 z m 18.1,-5.55 h -0.15 l -0.15,-0.05 -0.15,0.05 h -0.1 l -0.15,0.05 -0.15,0.1 -0.1,0.05 -0.1,0.1 -0.1,0.15 -0.05,0.15 -0.05,0.15 -0.05,0.15 v 0.15 l 0.05,0.15 0.05,0.15 0.05,0.15 0.1,0.15 0.1,0.05 0.1,0.1 0.15,0.05 0.15,0.05 0.1,0.05 h 0.15 0.15 l 0.15,-0.05 0.15,-0.05 0.1,-0.05 0.1,-0.1 0.1,-0.05 0.05,-0.1 0.1,-0.15 0.05,-0.15 0.05,-0.15 V 91.7 91.55 l -0.05,-0.15 -0.05,-0.15 -0.1,-0.15 -0.15,-0.15 -0.1,-0.05 -0.1,-0.1 z m 0.5,0.35 -0.05,-0.05 z m 0.1,0.15 -0.05,-0.05 z m 0.05,0.15 v -0.05 z m 0.05,0.15 V 91.5 Z m 0,0.15 v -0.05 z m 0,0.15 V 91.8 Z m -0.05,0.15 0.05,-0.05 z m -0.05,0.15 0.05,-0.05 z m -0.1,0.15 0.05,-0.05 z m -1.65,-0.05 0.05,0.05 z M 137.2,92.1 v 0.05 z m -0.05,-0.15 V 92 Z M 137.1,91.8 v 0.05 z m 0,-0.15 v 0.05 z m 0.05,-0.15 -0.05,0.05 z m 0.05,-0.15 -0.05,0.05 z m 0.05,-0.15 -0.05,0.05 z m 0.1,-0.15 -0.05,0.05 z m 0.75,-0.35 v 0.05 z m 2.7,2.75 h -0.15 l -0.15,-0.05 -0.15,0.05 h -0.1 l -0.15,0.05 -0.15,0.1 -0.1,0.05 -0.1,0.1 -0.1,0.15 -0.05,0.15 -0.05,0.15 -0.05,0.15 v 0.15 l 0.05,0.15 0.05,0.15 0.05,0.15 0.1,0.15 0.1,0.05 0.1,0.1 0.15,0.05 0.15,0.05 0.1,0.05 h 0.15 0.15 l 0.15,-0.05 0.15,-0.05 0.1,-0.05 0.1,-0.1 0.1,-0.05 0.05,-0.1 0.1,-0.15 0.05,-0.15 0.05,-0.15 V 94.4 94.25 l -0.05,-0.15 -0.05,-0.15 -0.1,-0.15 -0.15,-0.15 -0.1,-0.05 -0.1,-0.1 z m 0.5,0.35 -0.05,-0.05 z m 0.1,0.15 -0.05,-0.05 z m 0.05,0.15 v -0.05 z m 0.05,0.15 V 94.2 Z m 0,0.15 v -0.05 z m 0,0.15 V 94.5 Z m -0.05,0.15 0.05,-0.05 z m -0.05,0.15 0.05,-0.05 z m -0.1,0.15 0.05,-0.05 z M 139.65,94.95 139.7,95 Z M 139.6,94.8 v 0.05 z m -0.05,-0.15 V 94.7 Z M 139.5,94.5 v 0.05 z m 0,-0.15 v 0.05 z m 0.05,-0.15 -0.05,0.05 z m 0.05,-0.15 -0.05,0.05 z m 0.05,-0.15 -0.05,0.05 z m 0.1,-0.15 -0.05,0.05 z m 0.75,-0.35 v 0.05 z m -1.6,3.3 -0.05,-0.05 -0.1,-0.1 -0.1,-0.05 -0.1,-0.1 -0.15,-0.05 h -0.15 l -0.15,-0.05 -0.15,0.05 h -0.1 l -0.15,0.05 -0.15,0.1 -0.1,0.05 -0.1,0.1 -0.1,0.15 -0.05,0.15 -0.05,0.15 -0.05,0.15 v 0.15 l 0.05,0.15 0.05,0.15 0.05,0.15 0.1,0.15 0.1,0.05 0.1,0.1 0.15,0.05 0.15,0.05 0.1,0.05 h 0.15 0.15 l 0.15,-0.05 0.15,-0.05 0.1,-0.05 0.1,-0.1 0.1,-0.05 0.05,-0.1 0.1,-0.15 0.05,-0.15 0.05,-0.15 V 97.3 97.15 L 139.05,97 139,96.85 Z m 0.1,0.15 -0.05,-0.05 z m 0.05,0.15 v -0.05 z m 0.05,0.15 V 97.1 Z m 0,0.15 v -0.05 z m 0,0.15 V 97.4 Z m -0.05,0.15 0.05,-0.05 z m -0.05,0.15 0.05,-0.05 z m -0.1,0.15 0.05,-0.05 z m -1.65,-0.05 0.05,0.05 z M 137.2,97.7 v 0.05 z m -0.05,-0.15 V 97.6 Z M 137.1,97.4 v 0.05 z m 0,-0.15 v 0.05 z m 0.05,-0.15 -0.05,0.05 z m 0.05,-0.15 -0.05,0.05 z m 0.05,-0.15 -0.05,0.05 z m 0.1,-0.15 -0.05,0.05 z m 0.75,-0.35 v 0.05 z m 5.6,-5.05 -0.05,-0.05 -0.05,-0.1 -0.15,-0.15 -0.1,-0.05 -0.1,-0.1 -0.15,-0.05 h -0.15 l -0.15,-0.05 -0.15,0.05 h -0.1 l -0.15,0.05 -0.15,0.1 -0.1,0.05 -0.1,0.1 -0.1,0.15 -0.05,0.15 -0.05,0.15 -0.05,0.15 v 0.15 l 0.05,0.15 0.05,0.15 0.05,0.15 0.1,0.15 0.1,0.05 0.1,0.1 0.15,0.05 0.15,0.05 0.1,0.05 h 0.15 0.15 l 0.15,-0.05 0.15,-0.05 0.1,-0.05 0.1,-0.1 0.1,-0.05 0.05,-0.1 0.1,-0.15 0.05,-0.15 0.05,-0.15 V 91.7 91.55 l -0.05,-0.15 z m 0.05,0.15 v -0.05 z m 0.05,0.15 V 91.5 Z m 0,0.15 v -0.05 z m 0,0.15 V 91.8 Z m -0.05,0.15 0.05,-0.05 z m -0.05,0.15 0.05,-0.05 z m -0.1,0.15 0.05,-0.05 z M 141.95,92.25 142,92.3 Z M 141.9,92.1 v 0.05 z m -0.05,-0.15 V 92 Z M 141.8,91.8 v 0.05 z m 0,-0.15 v 0.05 z m 0.05,-0.15 -0.05,0.05 z m 0.05,-0.15 -0.05,0.05 z m 0.05,-0.15 -0.05,0.05 z m 0.1,-0.15 -0.05,0.05 z m 0.75,-0.35 v 0.05 z m 0.8,0.4 -0.05,-0.05 z m 0,5.6 -0.05,-0.05 -0.1,-0.1 -0.1,-0.05 -0.1,-0.1 -0.15,-0.05 h -0.15 l -0.15,-0.05 -0.15,0.05 h -0.1 l -0.15,0.05 -0.15,0.1 -0.1,0.05 -0.1,0.1 -0.1,0.15 -0.05,0.15 -0.05,0.15 -0.05,0.15 v 0.15 l 0.05,0.15 0.05,0.15 0.05,0.15 0.1,0.15 0.1,0.05 0.1,0.1 0.15,0.05 0.15,0.05 0.1,0.05 h 0.15 0.15 l 0.15,-0.05 0.15,-0.05 0.1,-0.05 0.1,-0.1 0.1,-0.05 0.05,-0.1 0.1,-0.15 0.05,-0.15 0.05,-0.15 V 97.3 97.15 L 143.75,97 143.7,96.85 Z m 0.1,0.15 -0.05,-0.05 z m 0.05,0.15 v -0.05 z m 0.05,0.15 V 97.1 Z m 0,0.15 v -0.05 z m 0,0.15 V 97.4 Z m -0.05,0.15 0.05,-0.05 z m -0.05,0.15 0.05,-0.05 z m -0.1,0.15 0.05,-0.05 z M 141.95,97.85 142,97.9 Z M 141.9,97.7 v 0.05 z m -0.05,-0.15 V 97.6 Z M 141.8,97.4 v 0.05 z m 0,-0.15 v 0.05 z m 0.05,-0.15 -0.05,0.05 z m 0.05,-0.15 -0.05,0.05 z m 0.05,-0.15 -0.05,0.05 z m 0.1,-0.15 -0.05,0.05 z m 0.75,-0.35 v 0.05 z m -84.9,-0.1 0.15,-0.05 -0.15,-0.2 z m 1.8,4 h -0.4 c -0.266667,0.56667 -0.433335,1.13334 -0.5,1.7 v 1 c 0.03333,0.56667 0.183334,1.13333 0.45,1.7 l 2.45,-4.4 z m -0.45,4.4 H 59.3 Z M 67,100.2 h -2 l -2.4,4.4 h 2 z m 5.1,0 h -2 l -2.4,4.4 h 2 z m 5.1,0 h -2 l -2.4,4.4 h 2 z m 5.1,0 h -2 l -2.4,4.4 h 2 z m 5.1,0 h -2 l -2.4,4.4 h 2 z m 5.1,0 h -2 l -2.4,4.4 h 2 z m 5.2,0 h -2 l -2.4,4.4 h 2 z m 5.1,0 h -2 l -2.4,4.4 h 2 z m 5.3,0 h -2 l -2.4,4.4 h 1.45 0.55 z m 5,0 h -2 l -2.4,4.4 h 2 z m 4.95,0 h -2 l -2.4,4.4 h 2 z m 5.05,0 h -2 l -2.4,4.4 h 2 z m 4.85,0 h -2 l -2.4,4.4 h 2 z m 5.1,0 h -2 l -2.4,4.4 h 2 z m 5,0 h -2 l -2.4,4.4 h 2 z m 5.15,0 h -2 l -2.4,4.4 h 2 z m 5.1,0 h -2 l -2.4,4.4 h 2 z m -81.1,-9.45 -0.15,0.05 -0.1,0.1 -0.1,0.05 -0.1,0.1 -0.1,0.15 -0.1,0.15 -0.05,0.15 v 0.15 0.15 0.15 l 0.05,0.15 0.1,0.15 0.1,0.15 0.1,0.05 0.1,0.1 0.1,0.05 0.15,0.05 0.15,0.05 h 0.15 0.15 l 0.1,-0.05 0.15,-0.05 0.15,-0.05 0.1,-0.1 0.1,-0.05 0.05,-0.1 0.1,-0.15 L 68.45,92 68.5,91.85 V 91.7 91.55 L 68.45,91.4 68.4,91.25 68.3,91.1 68.15,90.95 68.05,90.9 67.9,90.8 67.75,90.75 h -0.1 -0.15 -0.15 z m -0.45,0.3 -0.05,0.05 z m -0.1,0.15 -0.05,0.05 z m -0.1,0.15 V 91.4 Z M 66.5,91.5 v 0.05 z m 0,0.15 v 0.05 z m 0,0.15 v 0.05 z m 0,0.15 0.05,0.05 z m 0.05,0.15 0.05,0.05 z m 0.1,0.15 0.05,0.05 z m 1.65,0.05 0.05,-0.05 z m 0.1,-0.15 V 92.1 Z M 68.45,92 V 91.95 Z M 68.5,91.85 V 91.8 Z m 0,-0.15 v -0.05 z m 0,-0.15 -0.05,-0.05 z M 68.45,91.4 68.4,91.35 Z M 68.4,91.25 68.35,91.2 Z M 68.3,91.1 68.25,91.05 Z M 67.5,90.75 V 90.7 Z m 2.55,2.7 H 69.95 69.8 69.65 69.5 l -0.15,0.05 -0.1,0.1 -0.1,0.05 -0.1,0.1 -0.1,0.15 -0.1,0.15 -0.05,0.15 v 0.15 0.15 0.15 l 0.05,0.15 0.1,0.15 0.1,0.15 0.1,0.05 0.1,0.1 0.1,0.05 0.15,0.05 0.15,0.05 h 0.15 0.15 l 0.1,-0.05 0.15,-0.05 0.15,-0.05 0.1,-0.1 0.1,-0.05 0.05,-0.1 0.1,-0.15 0.05,-0.15 0.05,-0.15 V 94.4 94.25 L 70.75,94.1 70.7,93.95 70.6,93.8 70.45,93.65 70.35,93.6 70.2,93.5 Z m -0.25,0 V 93.4 Z M 69.05,93.75 69,93.8 Z m -0.1,0.15 -0.05,0.05 z m -0.1,0.15 V 94.1 Z M 68.8,94.2 v 0.05 z m 0,0.15 v 0.05 z m 0,0.15 v 0.05 z m 0,0.15 0.05,0.05 z m 0.05,0.15 0.05,0.05 z m 0.1,0.15 L 69,95 Z M 70.6,95 70.65,94.95 Z m 0.1,-0.15 V 94.8 Z M 70.75,94.7 V 94.65 Z M 70.8,94.55 V 94.5 Z m 0,-0.15 v -0.05 z m 0,-0.15 -0.05,-0.05 z M 70.75,94.1 70.7,94.05 Z M 70.7,93.95 70.65,93.9 Z M 70.6,93.8 70.55,93.75 Z M 68.05,96.5 67.9,96.4 67.75,96.35 H 67.65 67.5 67.35 67.2 l -0.15,0.05 -0.1,0.1 -0.1,0.05 -0.1,0.1 -0.1,0.15 -0.1,0.15 -0.05,0.15 v 0.15 0.15 0.15 l 0.05,0.15 0.1,0.15 0.1,0.15 0.1,0.05 0.1,0.1 0.1,0.05 0.15,0.05 0.15,0.05 h 0.15 0.15 l 0.1,-0.05 0.15,-0.05 0.15,-0.05 0.1,-0.1 0.1,-0.05 0.05,-0.1 0.1,-0.15 0.05,-0.15 0.05,-0.15 V 97.3 97.15 L 68.45,97 68.4,96.85 68.3,96.7 68.15,96.55 Z M 67.5,96.35 V 96.3 Z m -0.75,0.3 -0.05,0.05 z m -0.1,0.15 -0.05,0.05 z m -0.1,0.15 V 97 Z M 66.5,97.1 v 0.05 z m 0,0.15 v 0.05 z m 0,0.15 v 0.05 z m 0,0.15 0.05,0.05 z m 0.05,0.15 0.05,0.05 z m 0.1,0.15 0.05,0.05 z m 1.65,0.05 0.05,-0.05 z m 0.1,-0.15 V 97.7 Z M 68.45,97.6 V 97.55 Z M 68.5,97.45 V 97.4 Z m 0,-0.15 v -0.05 z m 0,-0.15 -0.05,-0.05 z M 68.45,97 68.4,96.95 Z M 68.4,96.85 68.35,96.8 Z M 68.3,96.7 68.25,96.65 Z m 3.9,-5.95 V 90.7 l -0.15,0.05 H 71.9 l -0.15,0.05 -0.1,0.1 -0.1,0.05 -0.1,0.1 -0.1,0.15 -0.1,0.15 -0.05,0.15 v 0.15 0.15 0.15 l 0.05,0.15 0.1,0.15 0.1,0.15 0.1,0.05 0.1,0.1 0.1,0.05 0.15,0.05 0.15,0.05 h 0.15 0.15 l 0.1,-0.05 0.15,-0.05 0.15,-0.05 0.1,-0.1 0.1,-0.05 L 73,92.3 73.1,92.15 73.15,92 73.2,91.85 V 91.7 91.55 L 73.15,91.4 73.1,91.25 73,91.1 72.85,90.95 72.75,90.9 72.6,90.8 72.45,90.75 h -0.1 z m -0.75,0.3 -0.05,0.05 z m -0.1,0.15 -0.05,0.05 z m -0.1,0.15 V 91.4 Z M 71.2,91.5 v 0.05 z m 0,0.15 v 0.05 z m 0,0.15 v 0.05 z m 0,0.15 0.05,0.05 z m 0.05,0.15 0.05,0.05 z m 0.1,0.15 0.05,0.05 z M 73,92.3 73.05,92.25 Z m 0.1,-0.15 V 92.1 Z M 73.15,92 V 91.95 Z M 73.2,91.85 V 91.8 Z m 0,-0.15 v -0.05 z m 0,-0.15 -0.05,-0.05 z M 73.15,91.4 73.1,91.35 Z M 73.1,91.25 73.05,91.2 Z M 73,91.1 72.95,91.05 Z M 72.85,96.55 72.75,96.5 72.6,96.4 72.45,96.35 H 72.35 72.2 72.05 71.9 l -0.15,0.05 -0.1,0.1 -0.1,0.05 -0.1,0.1 -0.1,0.15 -0.1,0.15 -0.05,0.15 v 0.15 0.15 0.15 l 0.05,0.15 0.1,0.15 0.1,0.15 0.1,0.05 0.1,0.1 0.1,0.05 0.15,0.05 0.15,0.05 h 0.15 0.15 l 0.1,-0.05 0.15,-0.05 0.15,-0.05 0.1,-0.1 L 72.95,98 73,97.9 73.1,97.75 73.15,97.6 73.2,97.45 V 97.3 97.15 L 73.15,97 73.1,96.85 73,96.7 Z M 72.2,96.35 V 96.3 Z m -0.75,0.3 -0.05,0.05 z m -0.1,0.15 -0.05,0.05 z m -0.1,0.15 V 97 Z M 71.2,97.1 v 0.05 z m 0,0.15 v 0.05 z m 0,0.15 v 0.05 z m 0,0.15 0.05,0.05 z m 0.05,0.15 0.05,0.05 z m 0.1,0.15 0.05,0.05 z M 73,97.9 73.05,97.85 Z m 0.1,-0.15 V 97.7 Z M 73.15,97.6 V 97.55 Z M 73.2,97.45 V 97.4 Z m 0,-0.15 v -0.05 z m 0,-0.15 -0.05,-0.05 z M 73.15,97 73.1,96.95 Z M 73.1,96.85 73.05,96.8 Z M 73,96.7 72.95,96.65 Z"
         id="path12"
         inkscape:connector-curvature="0"
         style="fill:#e6ebe8;stroke-linecap:round;stroke-linejoin:round" />
      <path
         d="m 155.8,55.85 0.15,1.25 c 0.23333,2.433333 0.23333,4.766665 0,7 l -3.05,-0.8 -0.2,6.35 -4.7,-2.85 -1.5,5.35 5.95,0.1 0.4,0.25 -0.8,1.85 -0.55,0.55 c -6.09999,6.1 -11.58333,7.2 -16.45,3.3 l -2.35,-2.3 c 0.33333,-0.73333 0.33333,-1.48333 0,-2.25 1.4,-2.333334 3.06668,-4.15 5,-5.45 0.0667,2.56667 0.8,4.46667 2.2,5.7 1.03333,-2.4 1.25001,-4.966666 0.65,-7.7 -0.76667,-1.93334 -1.88334,-2.433337 -3.35,-1.5 -1.5,0.93333 -2.86667,2.216664 -4.1,3.85 0.80001,-4.833333 0.23334,-8.45 -1.7,-10.85 -1.93334,2.4 -2.5,6.016667 -1.7,10.85 -1.23334,-1.633336 -2.58334,-2.91667 -4.05,-3.85 -1.5,-0.933334 -2.61667,-0.43334 -3.35,1.5 -0.63334,2.733334 -0.43334,5.3 0.6,7.7 1.4,-1.23333 2.13333,-3.13333 2.2,-5.7 1.93333,1.3 3.6,3.116666 5,5.45 -0.53333,0.7 -0.53333,1.46666 0,2.3 -6.6,7.866666 -14.23334,7.41667 -22.9,-1.35 -0.40001,-0.433336 -0.68334,-1.300005 -0.85,-2.6 l 8.55,3.6 V 66 l -8.55,3.3 2.35,-8.1 v -5.4 c 3.83333,-2.4 8.7,-3.266663 14.6,-2.6 6.23333,-2.8 11.88332,-2.8 16.95,0 5.90001,-0.8 11.08334,0.08333 15.55,2.65 z m -3.5,19.2 c -1.56666,3.400005 -2.35,7.08334 -2.35,11.05 h -89.6 c 0,-3.96667 -0.783334,-7.65 -2.35,-11.05 6.200005,9.23333 13.16667,10.516666 20.9,3.85 8.36666,8.033334 16.916666,7.4 25.65,-1.9 h 1.2 c 8.73333,9.299995 17.28333,9.93333 25.65,1.9 7.73333,6.666666 14.7,5.38333 20.9,-3.85 z M 151,100.2 c 0.43333,0.9 0.61667,1.8 0.55,2.7 l -0.95,1.7 h -2 z M 107.65,27.95 c 3.3,0.866668 5.33333,2.816666 6.1,5.85 h -7.1 v -6.35 h -3 v 6.35 h -7.1 c 0.766666,-3.033334 2.8,-4.983332 6.1,-5.85 V 26 H 99.4 c 2.36666,-1.5 3.59999,-3.116667 3.7,-4.85 v -1.8 h -1.75 c -1.83334,0.1 -3.5,1.333334 -5,3.7 V 11.8 c 1.5,2.366667 3.16666,3.600001 5,3.7 h 1.75 v -1.9 c -0.1,-1.833333 -1.33333,-3.5 -3.7,-5 h 11.5 c -2.36667,1.5 -3.60001,3.166667 -3.7,5 v 1.9 h 1.75 c 1.83333,-0.1 3.5,-1.333333 5,-3.7 v 11.25 c -1.5,-2.366668 -3.16667,-3.600001 -5,-3.7 h -1.75 v 1.8 c 0.1,1.733333 1.33333,3.35 3.7,4.85 h -3.25 z m 6.1,8.65 c -0.6,3.1 -2.48333,5.366667 -5.65,6.8 h -5.9 C 99.03333,41.966667 97.15,39.7 96.55,36.6 Z M 101.6,55.8 v 5.4 l 2.35,8.1 L 95.4,66 v 9.6 l 8.55,-3.6 c -0.16667,1.299995 -0.45,2.166664 -0.85,2.6 -8.666666,8.76667 -16.3,9.216666 -22.9,1.35 0.53333,-0.83334 0.53333,-1.6 0,-2.3 1.4,-2.333334 3.06666,-4.15 5,-5.45 0.06667,2.56667 0.80001,4.46667 2.2,5.7 1.033334,-2.4 1.25,-4.966666 0.65,-7.7 -0.76667,-1.93334 -1.883336,-2.433337 -3.35,-1.5 -1.5,0.93333 -2.86667,2.216664 -4.1,3.85 0.8,-4.833333 0.233336,-8.45 -1.7,-10.85 -1.93333,2.4 -2.5,6.016667 -1.7,10.85 -1.23333,-1.633336 -2.58333,-2.91667 -4.05,-3.85 -1.5,-0.933334 -2.61667,-0.43334 -3.35,1.5 -0.633336,2.733334 -0.43334,5.3 0.6,7.7 1.4,-1.23333 2.13333,-3.13333 2.2,-5.7 1.93333,1.3 3.6,3.116666 5,5.45 -0.33334,0.76667 -0.33334,1.51667 0,2.25 l -2.3,2.3 C 70.4,82.1 64.9,81 58.8,74.9 l -0.5,-0.55 -0.8,-1.85 0.35,-0.25 5.95,-0.1 -1.5,-5.35 -4.7,2.85 -0.2,-6.35 -3.05,0.8 c -0.233335,-2.233335 -0.233335,-4.566667 0,-7 l 0.15,-1.25 c 4.466667,-2.566667 9.65,-3.45 15.55,-2.65 5.06667,-2.8 10.71667,-2.8 16.95,0 5.9,-0.666667 10.76667,0.199998 14.6,2.6 z m 4.05,-40.25 -0.5,-0.05 -0.5,0.05 c -0.4,0.06667 -0.73334,0.233333 -1,0.5 l -0.5,0.8 -0.1,0.6 0.1,0.6 0.5,0.75 c 0.4,0.399999 0.88333,0.6 1.45,0.6 h 0.1 c 0.56667,0 1.05001,-0.200001 1.45,-0.6 l 0.5,-0.75 0.1,-0.6 -0.1,-0.6 -0.5,-0.8 c -0.26667,-0.266667 -0.60001,-0.433333 -1,-0.5 z m -0.55,3.85 h 0.05 z M 90,90.7 v 0.05 h 0.15 0.1 l 0.15,0.05 0.15,0.1 0.1,0.05 0.1,0.1 0.1,0.15 0.05,0.15 0.05,0.15 0.05,0.15 v 0.15 l -0.05,0.15 -0.05,0.15 -0.05,0.15 -0.1,0.15 -0.1,0.05 -0.1,0.1 -0.15,0.05 -0.15,0.05 -0.1,0.05 H 90 89.85 L 89.7,92.65 89.55,92.6 89.45,92.55 89.35,92.45 89.25,92.4 89.2,92.3 89.1,92.15 89.05,92 89,91.85 V 91.7 91.55 l 0.05,-0.15 0.05,-0.15 0.1,-0.15 0.15,-0.15 0.1,-0.05 0.1,-0.1 0.15,-0.05 h 0.15 z m -0.8,0.4 0.05,-0.05 z m -0.1,0.15 0.05,-0.05 z M 89.05,91.4 V 91.35 Z M 89,91.55 V 91.5 Z m 0,0.15 v -0.05 z m 0,0.15 V 91.8 Z M 89.05,92 89,91.95 Z m 0.05,0.15 -0.05,-0.05 z m 0.1,0.15 -0.05,-0.05 z M 90.85,92.25 90.8,92.3 Z M 90.9,92.1 v 0.05 z m 0.05,-0.15 V 92 Z M 91,91.8 v 0.05 z m 0,-0.15 V 91.7 Z M 90.95,91.5 91,91.55 Z m -0.05,-0.15 0.05,0.05 z m -0.05,-0.15 0.05,0.05 z m -0.1,-0.15 0.05,0.05 z m -0.2,5.45 0.1,0.05 0.1,0.1 0.1,0.15 0.05,0.15 0.05,0.15 0.05,0.15 v 0.15 l -0.05,0.15 -0.05,0.15 -0.05,0.15 -0.1,0.15 -0.1,0.05 -0.1,0.1 -0.15,0.05 -0.15,0.05 -0.1,0.05 H 90 89.85 L 89.7,98.25 89.55,98.2 89.45,98.15 89.35,98.05 89.25,98 89.2,97.9 89.1,97.75 89.05,97.6 89,97.45 V 97.3 97.15 l 0.05,-0.15 0.05,-0.15 0.1,-0.15 0.15,-0.15 0.1,-0.05 0.1,-0.1 0.15,-0.05 h 0.15 L 90,96.3 l 0.15,0.05 h 0.1 L 90.4,96.4 Z M 90,96.3 v 0.05 z m -0.8,0.4 0.05,-0.05 z m -0.1,0.15 0.05,-0.05 z M 89.05,97 V 96.95 Z M 89,97.15 V 97.1 Z m 0,0.15 v -0.05 z m 0,0.15 V 97.4 Z M 89.05,97.6 89,97.55 Z m 0.05,0.15 -0.05,-0.05 z m 0.1,0.15 -0.05,-0.05 z M 90.85,97.85 90.8,97.9 Z M 90.9,97.7 v 0.05 z m 0.05,-0.15 V 97.6 Z M 91,97.4 v 0.05 z m 0,-0.15 V 97.3 Z M 90.95,97.1 91,97.15 Z M 90.9,96.95 90.95,97 Z m -0.05,-0.15 0.05,0.05 z m -0.1,-0.15 0.05,0.05 z m 4.2,-5.9 0.15,0.05 0.15,0.1 0.1,0.05 0.1,0.1 0.1,0.15 0.05,0.15 0.05,0.15 0.05,0.15 v 0.15 l -0.05,0.15 -0.05,0.15 -0.05,0.15 -0.1,0.15 -0.1,0.05 -0.1,0.1 -0.15,0.05 -0.15,0.05 -0.1,0.05 H 94.7 94.55 L 94.4,92.65 94.25,92.6 94.15,92.55 94.05,92.45 93.95,92.4 93.9,92.3 93.8,92.15 93.75,92 93.7,91.85 V 91.7 91.55 l 0.05,-0.15 0.05,-0.15 0.1,-0.15 0.15,-0.15 0.1,-0.05 0.1,-0.1 0.15,-0.05 h 0.15 l 0.15,-0.05 0.15,0.05 z M 94.7,90.7 v 0.05 z m -0.8,0.4 0.05,-0.05 z m -0.1,0.15 0.05,-0.05 z M 93.75,91.4 V 91.35 Z M 93.7,91.55 V 91.5 Z m 0,0.15 v -0.05 z m 0,0.15 V 91.8 Z M 93.75,92 93.7,91.95 Z m 0.05,0.15 -0.05,-0.05 z m 0.1,0.15 -0.05,-0.05 z M 95.55,92.25 95.5,92.3 Z M 95.6,92.1 v 0.05 z m 0.05,-0.15 V 92 Z M 95.7,91.8 v 0.05 z m 0,-0.15 v 0.05 z m -0.05,-0.15 0.05,0.05 z m -0.05,-0.15 0.05,0.05 z m -0.05,-0.15 0.05,0.05 z m -0.1,-0.15 0.05,0.05 z m -3,2.4 h 0.1 l 0.15,0.05 0.15,0.1 0.1,0.05 0.1,0.1 0.1,0.15 0.05,0.15 0.05,0.15 0.05,0.15 v 0.15 l -0.05,0.15 -0.05,0.15 -0.05,0.15 -0.1,0.15 -0.1,0.05 -0.1,0.1 -0.15,0.05 -0.15,0.05 -0.1,0.05 H 92.3 92.15 L 92,95.35 91.85,95.3 91.75,95.25 91.65,95.15 91.55,95.1 91.5,95 91.4,94.85 91.35,94.7 91.3,94.55 V 94.4 94.25 l 0.05,-0.15 0.05,-0.15 0.1,-0.15 0.15,-0.15 0.1,-0.05 0.1,-0.1 0.15,-0.05 h 0.15 L 92.3,93.4 Z M 92.3,93.4 v 0.05 z m -0.8,0.4 0.05,-0.05 z m -0.1,0.15 0.05,-0.05 z M 91.35,94.1 V 94.05 Z M 91.3,94.25 V 94.2 Z m 0,0.15 v -0.05 z m 0,0.15 V 94.5 Z M 91.35,94.7 91.3,94.65 Z M 91.4,94.85 91.35,94.8 Z M 91.5,95 91.45,94.95 Z M 93.15,94.95 93.1,95 Z M 93.2,94.8 v 0.05 z m 0.05,-0.15 V 94.7 Z M 93.3,94.5 v 0.05 z m 0,-0.15 v 0.05 z m -0.05,-0.15 0.05,0.05 z m -0.05,-0.15 0.05,0.05 z m -0.05,-0.15 0.05,0.05 z m -0.1,-0.15 0.05,0.05 z m 2.2,2.75 0.1,0.05 0.1,0.1 0.1,0.15 0.05,0.15 0.05,0.15 0.05,0.15 v 0.15 l -0.05,0.15 -0.05,0.15 -0.05,0.15 -0.1,0.15 -0.1,0.05 -0.1,0.1 -0.15,0.05 -0.15,0.05 -0.1,0.05 H 94.7 94.55 L 94.4,98.25 94.25,98.2 94.15,98.15 94.05,98.05 93.95,98 93.9,97.9 93.8,97.75 93.75,97.6 93.7,97.45 V 97.3 97.15 l 0.05,-0.15 0.05,-0.15 0.1,-0.15 0.15,-0.15 0.1,-0.05 0.1,-0.1 0.15,-0.05 h 0.15 l 0.15,-0.05 0.15,0.05 h 0.1 L 95.1,96.4 Z M 94.7,96.3 v 0.05 z m -0.8,0.4 0.05,-0.05 z m -0.1,0.15 0.05,-0.05 z M 93.75,97 V 96.95 Z M 93.7,97.15 V 97.1 Z m 0,0.15 v -0.05 z m 0,0.15 V 97.4 Z m 0.05,0.15 -0.05,-0.05 z m 0.05,0.15 -0.05,-0.05 z m 0.1,0.15 -0.05,-0.05 z M 95.55,97.85 95.5,97.9 Z M 95.6,97.7 v 0.05 z m 0.05,-0.15 V 97.6 Z M 95.7,97.4 v 0.05 z m 0,-0.15 V 97.3 Z M 95.65,97.1 95.7,97.15 Z M 95.6,96.95 95.65,97 Z m -0.05,-0.15 0.05,0.05 z m -0.1,-0.15 0.05,0.05 z m 21.1,-5.3 v 0.05 l 0.05,0.1 v 0.15 0.15 0.15 l -0.05,0.15 -0.1,0.15 -0.1,0.15 -0.1,0.05 -0.1,0.1 -0.1,0.05 -0.15,0.05 -0.15,0.05 h -0.15 -0.15 l -0.1,-0.05 -0.15,-0.05 -0.15,-0.05 -0.1,-0.1 -0.1,-0.05 -0.05,-0.1 -0.1,-0.15 L 114.65,92 114.6,91.85 V 91.7 91.55 l 0.05,-0.15 0.05,-0.15 0.1,-0.15 0.15,-0.15 0.1,-0.05 0.15,-0.1 0.15,-0.05 h 0.1 0.15 0.15 0.15 l 0.15,0.05 0.1,0.1 0.1,0.05 0.1,0.1 0.1,0.15 z m 0.05,0.15 v 0.05 z m 0,0.15 v 0.05 z m 0,0.15 v 0.05 z m 0,0.15 -0.05,0.05 z m -0.05,0.15 -0.05,0.05 z m -0.1,0.15 -0.05,0.05 z m -1.65,0.05 -0.05,-0.05 z m -0.1,-0.15 V 92.1 Z M 114.65,92 V 91.95 Z M 114.6,91.85 V 91.8 Z m 0,-0.15 v -0.05 z m 0,-0.15 0.05,-0.05 z m 0.05,-0.15 0.05,-0.05 z m 0.05,-0.15 0.05,-0.05 z m 0.1,-0.15 0.05,-0.05 z m 0.8,-0.35 V 90.7 Z m 0.75,0.3 0.05,0.05 z m 0.1,0.15 0.05,0.05 z m 4.15,-0.45 0.15,0.05 0.1,0.1 0.1,0.05 0.1,0.1 0.1,0.15 0.1,0.15 0.05,0.15 v 0.15 0.15 0.15 l -0.05,0.15 -0.1,0.15 -0.1,0.15 -0.1,0.05 -0.1,0.1 -0.1,0.05 -0.15,0.05 -0.15,0.05 h -0.15 -0.15 l -0.1,-0.05 -0.15,-0.05 -0.15,-0.05 -0.1,-0.1 -0.1,-0.05 -0.05,-0.1 -0.1,-0.15 L 119.35,92 119.3,91.85 V 91.7 91.55 l 0.05,-0.15 0.05,-0.15 0.1,-0.15 0.15,-0.15 0.1,-0.05 0.15,-0.1 0.15,-0.05 h 0.1 0.15 0.15 z m 0.45,0.3 0.05,0.05 z m 0.1,0.15 0.05,0.05 z m 0.1,0.15 v 0.05 z m 0.05,0.15 v 0.05 z m 0,0.15 v 0.05 z m 0,0.15 v 0.05 z m 0,0.15 -0.05,0.05 z m -0.05,0.15 -0.05,0.05 z m -0.1,0.15 -0.05,0.05 z m -1.65,0.05 -0.05,-0.05 z m -0.1,-0.15 V 92.1 Z M 119.35,92 V 91.95 Z M 119.3,91.85 V 91.8 Z m 0,-0.15 v -0.05 z m 0,-0.15 0.05,-0.05 z m 0.05,-0.15 0.05,-0.05 z m 0.05,-0.15 0.05,-0.05 z m 0.1,-0.15 0.05,-0.05 z m 0.8,-0.35 V 90.7 Z m -4.25,5.65 0.1,0.1 0.1,0.05 0.1,0.1 0.1,0.15 0.1,0.15 0.05,0.15 v 0.15 0.15 0.15 l -0.05,0.15 -0.1,0.15 -0.1,0.15 -0.1,0.05 -0.1,0.1 -0.1,0.05 -0.15,0.05 -0.15,0.05 h -0.15 -0.15 l -0.1,-0.05 -0.15,-0.05 -0.15,-0.05 -0.1,-0.1 -0.1,-0.05 -0.05,-0.1 -0.1,-0.15 -0.05,-0.15 -0.05,-0.15 V 97.3 97.15 l 0.05,-0.15 0.05,-0.15 0.1,-0.15 0.15,-0.15 0.1,-0.05 0.15,-0.1 0.15,-0.05 h 0.1 0.15 0.15 0.15 z m 0.3,0.25 0.05,0.05 z m 0.1,0.15 0.05,0.05 z m 0.1,0.15 V 97 Z m 0.05,0.15 v 0.05 z m 0,0.15 v 0.05 z m 0,0.15 v 0.05 z m 0,0.15 -0.05,0.05 z m -0.05,0.15 -0.05,0.05 z m -0.1,0.15 -0.05,0.05 z m -1.65,0.05 -0.05,-0.05 z m -0.1,-0.15 V 97.7 Z M 114.65,97.6 V 97.55 Z M 114.6,97.45 V 97.4 Z m 0,-0.15 v -0.05 z m 0,-0.15 0.05,-0.05 z m 0.05,-0.15 0.05,-0.05 z m 0.05,-0.15 0.05,-0.05 z m 0.1,-0.15 0.05,-0.05 z m 0.8,-0.35 V 96.3 Z m 3.4,-2 v 0.05 0.1 0.15 l -0.05,0.15 -0.1,0.15 -0.1,0.15 -0.1,0.05 -0.1,0.1 -0.1,0.05 -0.15,0.05 -0.15,0.05 H 118 117.85 l -0.1,-0.05 -0.15,-0.05 -0.15,-0.05 -0.1,-0.1 -0.1,-0.05 L 117.2,95 117.1,94.85 117.05,94.7 117,94.55 V 94.4 94.25 l 0.05,-0.15 0.05,-0.15 0.1,-0.15 0.15,-0.15 0.1,-0.05 0.15,-0.1 0.15,-0.05 h 0.1 0.15 0.15 0.15 l 0.15,0.05 0.1,0.1 0.1,0.05 0.1,0.1 0.1,0.15 0.1,0.15 0.05,0.15 z m 0,0.15 v 0.05 z m 0,0.15 -0.05,0.05 z m -0.05,0.15 -0.05,0.05 z m -0.1,0.15 L 118.8,95 Z M 117.2,95 117.15,94.95 Z m -0.1,-0.15 V 94.8 Z M 117.05,94.7 V 94.65 Z M 117,94.55 V 94.5 Z m 0,-0.15 v -0.05 z m 0,-0.15 0.05,-0.05 z m 0.05,-0.15 0.05,-0.05 z m 0.05,-0.15 0.05,-0.05 z m 0.1,-0.15 0.05,-0.05 z M 118,93.45 V 93.4 Z m 0.75,0.3 0.05,0.05 z m 0.1,0.15 0.05,0.05 z m 0.1,0.15 V 94.1 Z M 119,94.2 v 0.05 z m 2.05,2.45 0.05,0.05 0.05,0.1 0.1,0.15 0.05,0.15 v 0.15 0.15 0.15 l -0.05,0.15 -0.1,0.15 -0.1,0.15 -0.1,0.05 -0.1,0.1 -0.1,0.05 -0.15,0.05 -0.15,0.05 h -0.15 -0.15 l -0.1,-0.05 -0.15,-0.05 -0.15,-0.05 -0.1,-0.1 -0.1,-0.05 -0.05,-0.1 -0.1,-0.15 -0.05,-0.15 -0.05,-0.15 V 97.3 97.15 l 0.05,-0.15 0.05,-0.15 0.1,-0.15 0.15,-0.15 0.1,-0.05 0.15,-0.1 0.15,-0.05 h 0.1 0.15 0.15 0.15 l 0.15,0.05 0.1,0.1 0.1,0.05 z m 0.1,0.15 0.05,0.05 z m 0.1,0.15 V 97 Z m 0.05,0.15 v 0.05 z m 0,0.15 v 0.05 z m 0,0.15 v 0.05 z m 0,0.15 -0.05,0.05 z m -0.05,0.15 -0.05,0.05 z m -0.1,0.15 -0.05,0.05 z m -1.65,0.05 -0.05,-0.05 z m -0.1,-0.15 V 97.7 Z M 119.35,97.6 V 97.55 Z M 119.3,97.45 V 97.4 Z m 0,-0.15 v -0.05 z m 0,-0.15 0.05,-0.05 z m 0.05,-0.15 0.05,-0.05 z m 0.05,-0.15 0.05,-0.05 z m 0.1,-0.15 0.05,-0.05 z m 0.8,-0.35 V 96.3 Z m 17.95,-5.6 h 0.15 l 0.15,0.05 0.1,0.1 0.1,0.05 0.1,0.1 0.1,0.15 0.1,0.15 0.05,0.15 v 0.15 0.15 0.15 l -0.05,0.15 -0.1,0.15 -0.1,0.15 -0.1,0.05 -0.1,0.1 -0.1,0.05 -0.15,0.05 -0.15,0.05 h -0.15 -0.15 l -0.1,-0.05 -0.15,-0.05 -0.15,-0.05 -0.1,-0.1 -0.1,-0.05 -0.05,-0.1 -0.1,-0.15 L 137.15,92 137.1,91.85 V 91.7 91.55 l 0.05,-0.15 0.05,-0.15 0.1,-0.15 0.15,-0.15 0.1,-0.05 0.15,-0.1 0.15,-0.05 h 0.1 0.15 z m 0.6,0.3 0.05,0.05 z m 0.1,0.15 0.05,0.05 z m 0.1,0.15 v 0.05 z m 0.05,0.15 v 0.05 z m 0,0.15 v 0.05 z m 0,0.15 v 0.05 z m 0,0.15 -0.05,0.05 z m -0.05,0.15 -0.05,0.05 z m -0.1,0.15 -0.05,0.05 z m -1.65,0.05 -0.05,-0.05 z m -0.1,-0.15 V 92.1 Z M 137.15,92 V 91.95 Z M 137.1,91.85 V 91.8 Z m 0,-0.15 v -0.05 z m 0,-0.15 0.05,-0.05 z m 0.05,-0.15 0.05,-0.05 z m 0.05,-0.15 0.05,-0.05 z m 0.1,-0.15 0.05,-0.05 z m 0.8,-0.35 V 90.7 Z m 2.55,2.7 h 0.15 l 0.15,0.05 0.1,0.1 0.1,0.05 0.1,0.1 0.1,0.15 0.1,0.15 0.05,0.15 v 0.15 0.15 0.15 l -0.05,0.15 -0.1,0.15 -0.1,0.15 -0.1,0.05 -0.1,0.1 -0.1,0.05 -0.15,0.05 -0.15,0.05 h -0.15 -0.15 l -0.1,-0.05 -0.15,-0.05 -0.15,-0.05 -0.1,-0.1 -0.1,-0.05 -0.05,-0.1 -0.1,-0.15 -0.05,-0.15 -0.05,-0.15 V 94.4 94.25 l 0.05,-0.15 0.05,-0.15 0.1,-0.15 0.15,-0.15 0.1,-0.05 0.15,-0.1 0.15,-0.05 h 0.1 0.15 z m 0.6,0.3 0.05,0.05 z m 0.1,0.15 0.05,0.05 z m 0.1,0.15 v 0.05 z m 0.05,0.15 v 0.05 z m 0,0.15 v 0.05 z m 0,0.15 v 0.05 z m 0,0.15 -0.05,0.05 z m -0.05,0.15 -0.05,0.05 z m -0.1,0.15 L 141.3,95 Z M 139.7,95 139.65,94.95 Z m -0.1,-0.15 V 94.8 Z M 139.55,94.7 V 94.65 Z M 139.5,94.55 V 94.5 Z m 0,-0.15 v -0.05 z m 0,-0.15 0.05,-0.05 z m 0.05,-0.15 0.05,-0.05 z m 0.05,-0.15 0.05,-0.05 z m 0.1,-0.15 0.05,-0.05 z m 0.8,-0.35 V 93.4 Z m -1.65,3.2 0.05,0.05 0.05,0.1 0.1,0.15 0.05,0.15 v 0.15 0.15 0.15 l -0.05,0.15 -0.1,0.15 -0.1,0.15 -0.1,0.05 -0.1,0.1 -0.1,0.05 -0.15,0.05 -0.15,0.05 h -0.15 -0.15 l -0.1,-0.05 -0.15,-0.05 -0.15,-0.05 -0.1,-0.1 -0.1,-0.05 -0.05,-0.1 -0.1,-0.15 -0.05,-0.15 -0.05,-0.15 V 97.3 97.15 l 0.05,-0.15 0.05,-0.15 0.1,-0.15 0.15,-0.15 0.1,-0.05 0.15,-0.1 0.15,-0.05 h 0.1 0.15 0.15 0.15 l 0.15,0.05 0.1,0.1 0.1,0.05 z m 0.1,0.15 0.05,0.05 z m 0.1,0.15 V 97 Z m 0.05,0.15 v 0.05 z m 0,0.15 v 0.05 z m 0,0.15 v 0.05 z m 0,0.15 -0.05,0.05 z m -0.05,0.15 -0.05,0.05 z m -0.1,0.15 -0.05,0.05 z m -1.65,0.05 -0.05,-0.05 z m -0.1,-0.15 V 97.7 Z M 137.15,97.6 V 97.55 Z M 137.1,97.45 V 97.4 Z m 0,-0.15 v -0.05 z m 0,-0.15 0.05,-0.05 z m 0.05,-0.15 0.05,-0.05 z m 0.05,-0.15 0.05,-0.05 z m 0.1,-0.15 0.05,-0.05 z m 0.8,-0.35 V 96.3 Z m 5.55,-5.15 0.05,0.05 0.05,0.1 0.05,0.15 v 0.15 0.15 0.15 l -0.05,0.15 -0.1,0.15 -0.1,0.15 -0.1,0.05 -0.1,0.1 -0.1,0.05 -0.15,0.05 -0.15,0.05 h -0.15 -0.15 l -0.1,-0.05 -0.15,-0.05 -0.15,-0.05 -0.1,-0.1 -0.1,-0.05 L 142,92.3 141.9,92.15 141.85,92 141.8,91.85 V 91.7 91.55 l 0.05,-0.15 0.05,-0.15 0.1,-0.15 0.15,-0.15 0.1,-0.05 0.15,-0.1 0.15,-0.05 h 0.1 0.15 0.15 0.15 l 0.15,0.05 0.1,0.1 0.1,0.05 0.1,0.1 z m 0.1,0.15 v 0.05 z m 0.05,0.15 v 0.05 z m 0,0.15 v 0.05 z m 0,0.15 v 0.05 z m 0,0.15 -0.05,0.05 z m -0.05,0.15 -0.05,0.05 z m -0.1,0.15 -0.05,0.05 z M 142,92.3 141.95,92.25 Z m -0.1,-0.15 V 92.1 Z M 141.85,92 V 91.95 Z M 141.8,91.85 V 91.8 Z m 0,-0.15 v -0.05 z m 0,-0.15 0.05,-0.05 z m 0.05,-0.15 0.05,-0.05 z m 0.05,-0.15 0.05,-0.05 z m 0.1,-0.15 0.05,-0.05 z m 0.8,-0.35 V 90.7 Z m 0.75,0.3 0.05,0.05 z m 0,5.6 0.05,0.05 0.05,0.1 0.1,0.15 0.05,0.15 v 0.15 0.15 0.15 l -0.05,0.15 -0.1,0.15 -0.1,0.15 -0.1,0.05 -0.1,0.1 -0.1,0.05 -0.15,0.05 -0.15,0.05 h -0.15 -0.15 l -0.1,-0.05 -0.15,-0.05 -0.15,-0.05 -0.1,-0.1 L 142.05,98 142,97.9 141.9,97.75 141.85,97.6 141.8,97.45 V 97.3 97.15 l 0.05,-0.15 0.05,-0.15 0.1,-0.15 0.15,-0.15 0.1,-0.05 0.15,-0.1 0.15,-0.05 h 0.1 0.15 0.15 0.15 l 0.15,0.05 0.1,0.1 0.1,0.05 z m 0.1,0.15 0.05,0.05 z m 0.1,0.15 V 97 Z m 0.05,0.15 v 0.05 z m 0,0.15 v 0.05 z m 0,0.15 v 0.05 z m 0,0.15 -0.05,0.05 z m -0.05,0.15 -0.05,0.05 z m -0.1,0.15 -0.05,0.05 z M 142,97.9 141.95,97.85 Z m -0.1,-0.15 V 97.7 Z M 141.85,97.6 V 97.55 Z M 141.8,97.45 V 97.4 Z m 0,-0.15 v -0.05 z m 0,-0.15 0.05,-0.05 z m 0.05,-0.15 0.05,-0.05 z m 0.05,-0.15 0.05,-0.05 z m 0.1,-0.15 0.05,-0.05 z m 0.8,-0.35 V 96.3 Z m -83.1,3.85 h 2 l -2.4,4.4 c -0.3,-0.56667 -0.466668,-1.13333 -0.5,-1.7 v -1 z m -0.4,4.4 h -0.05 z m 5.7,-4.4 h 2 l -2.4,4.4 h -2 z m 5.1,0 h 2 l -2.4,4.4 h -2 z m 5.1,0 h 2 l -2.4,4.4 h -2 z m 5.1,0 h 2 l -2.4,4.4 h -2 z m 5.1,0 h 2 l -2.4,4.4 h -2 z m 5.1,0 h 2 l -2.4,4.4 h -2 z m 5.2,0 h 2 l -2.4,4.4 h -2 z m 5.1,0 h 2 l -2.4,4.4 h -2 z m 5.3,0 h 2 l -2.4,4.4 h -0.55 -1.45 z m 5,0 h 2 l -2.4,4.4 h -2 z m 4.95,0 h 2 l -2.4,4.4 h -2 z m 5.05,0 h 2 l -2.4,4.4 h -2 z m 4.85,0 h 2 l -2.4,4.4 h -2 z m 5.1,0 h 2 l -2.4,4.4 h -2 z m 5,0 h 2 l -2.4,4.4 h -2 z m 5.15,0 h 2 l -2.4,4.4 h -2 z m 5.1,0 h 2 l -2.4,4.4 h -2 z M 67.05,90.8 67.2,90.75 h 0.15 l 0.15,-0.05 0.15,0.05 h 0.1 l 0.15,0.05 0.15,0.1 0.1,0.05 0.1,0.1 0.1,0.15 0.05,0.15 0.05,0.15 0.05,0.15 v 0.15 l -0.05,0.15 -0.05,0.15 -0.05,0.15 -0.1,0.15 -0.1,0.05 -0.1,0.1 -0.15,0.05 -0.15,0.05 -0.1,0.05 H 67.5 67.35 L 67.2,92.65 67.05,92.6 66.95,92.55 66.85,92.45 66.75,92.4 66.7,92.3 66.6,92.15 66.55,92 66.5,91.85 V 91.7 91.55 l 0.05,-0.15 0.05,-0.15 0.1,-0.15 0.15,-0.15 0.1,-0.05 z m -0.35,0.3 0.05,-0.05 z m -0.1,0.15 0.05,-0.05 z M 66.55,91.4 V 91.35 Z M 66.5,91.55 V 91.5 Z m 0,0.15 v -0.05 z m 0,0.15 V 91.8 Z M 66.55,92 66.5,91.95 Z m 0.05,0.15 -0.05,-0.05 z m 0.1,0.15 -0.05,-0.05 z M 68.35,92.25 68.3,92.3 Z M 68.4,92.1 v 0.05 z m 0.05,-0.15 V 92 Z M 68.5,91.8 v 0.05 z m 0,-0.15 v 0.05 z m -0.05,-0.15 0.05,0.05 z m -0.05,-0.15 0.05,0.05 z m -0.05,-0.15 0.05,0.05 z m -0.1,-0.15 0.05,0.05 z M 67.5,90.7 v 0.05 z m 2.45,2.75 h 0.1 l 0.15,0.05 0.15,0.1 0.1,0.05 0.1,0.1 0.1,0.15 0.05,0.15 0.05,0.15 0.05,0.15 v 0.15 l -0.05,0.15 -0.05,0.15 -0.05,0.15 -0.1,0.15 -0.1,0.05 -0.1,0.1 -0.15,0.05 -0.15,0.05 -0.1,0.05 H 69.8 69.65 L 69.5,95.35 69.35,95.3 69.25,95.25 69.15,95.15 69.05,95.1 69,95 68.9,94.85 68.85,94.7 68.8,94.55 V 94.4 94.25 l 0.05,-0.15 0.05,-0.15 0.1,-0.15 0.15,-0.15 0.1,-0.05 0.1,-0.1 0.15,-0.05 h 0.15 L 69.8,93.4 Z M 69.8,93.4 v 0.05 z m -0.8,0.4 0.05,-0.05 z m -0.1,0.15 0.05,-0.05 z M 68.85,94.1 V 94.05 Z M 68.8,94.25 V 94.2 Z m 0,0.15 v -0.05 z m 0,0.15 V 94.5 Z M 68.85,94.7 68.8,94.65 Z M 68.9,94.85 68.85,94.8 Z M 69,95 68.95,94.95 Z M 70.65,94.95 70.6,95 Z M 70.7,94.8 v 0.05 z m 0.05,-0.15 V 94.7 Z M 70.8,94.5 v 0.05 z m 0,-0.15 v 0.05 z m -0.05,-0.15 0.05,0.05 z m -0.05,-0.15 0.05,0.05 z m -0.05,-0.15 0.05,0.05 z m -0.1,-0.15 0.05,0.05 z m -2.65,2.65 0.15,0.1 0.1,0.05 0.1,0.1 0.1,0.15 0.05,0.15 0.05,0.15 0.05,0.15 v 0.15 l -0.05,0.15 -0.05,0.15 -0.05,0.15 -0.1,0.15 -0.1,0.05 -0.1,0.1 -0.15,0.05 -0.15,0.05 -0.1,0.05 H 67.5 67.35 L 67.2,98.25 67.05,98.2 66.95,98.15 66.85,98.05 66.75,98 66.7,97.9 66.6,97.75 66.55,97.6 66.5,97.45 V 97.3 97.15 l 0.05,-0.15 0.05,-0.15 0.1,-0.15 0.15,-0.15 0.1,-0.05 0.1,-0.1 0.15,-0.05 h 0.15 l 0.15,-0.05 0.15,0.05 h 0.1 z m -0.4,-0.1 v 0.05 z m -0.8,0.4 0.05,-0.05 z m -0.1,0.15 0.05,-0.05 z M 66.55,97 V 96.95 Z M 66.5,97.15 V 97.1 Z m 0,0.15 v -0.05 z m 0,0.15 V 97.4 Z m 0.05,0.15 -0.05,-0.05 z m 0.05,0.15 -0.05,-0.05 z m 0.1,0.15 -0.05,-0.05 z M 68.35,97.85 68.3,97.9 Z M 68.4,97.7 v 0.05 z m 0.05,-0.15 V 97.6 Z M 68.5,97.4 v 0.05 z m 0,-0.15 V 97.3 Z M 68.45,97.1 68.5,97.15 Z M 68.4,96.95 68.45,97 Z m -0.05,-0.15 0.05,0.05 z m -0.1,-0.15 0.05,0.05 z M 72.2,90.7 v 0.05 h 0.15 0.1 l 0.15,0.05 0.15,0.1 0.1,0.05 0.1,0.1 0.1,0.15 0.05,0.15 0.05,0.15 0.05,0.15 v 0.15 l -0.05,0.15 -0.05,0.15 -0.05,0.15 -0.1,0.15 -0.1,0.05 -0.1,0.1 -0.15,0.05 -0.15,0.05 -0.1,0.05 H 72.2 72.05 L 71.9,92.65 71.75,92.6 71.65,92.55 71.55,92.45 71.45,92.4 71.4,92.3 71.3,92.15 71.25,92 71.2,91.85 V 91.7 91.55 l 0.05,-0.15 0.05,-0.15 0.1,-0.15 0.15,-0.15 0.1,-0.05 0.1,-0.1 0.15,-0.05 h 0.15 z m -0.8,0.4 0.05,-0.05 z m -0.1,0.15 0.05,-0.05 z M 71.25,91.4 V 91.35 Z M 71.2,91.55 V 91.5 Z m 0,0.15 v -0.05 z m 0,0.15 V 91.8 Z M 71.25,92 71.2,91.95 Z m 0.05,0.15 -0.05,-0.05 z m 0.1,0.15 -0.05,-0.05 z M 73.05,92.25 73,92.3 Z M 73.1,92.1 v 0.05 z m 0.05,-0.15 V 92 Z M 73.2,91.8 v 0.05 z m 0,-0.15 V 91.7 Z M 73.15,91.5 73.2,91.55 Z M 73.1,91.35 73.15,91.4 Z M 73.05,91.2 73.1,91.25 Z M 72.95,91.05 73,91.1 Z m -0.2,5.45 0.1,0.05 0.1,0.1 0.1,0.15 0.05,0.15 0.05,0.15 0.05,0.15 v 0.15 l -0.05,0.15 -0.05,0.15 -0.05,0.15 -0.1,0.15 -0.1,0.05 -0.1,0.1 -0.15,0.05 -0.15,0.05 -0.1,0.05 H 72.2 72.05 L 71.9,98.25 71.75,98.2 71.65,98.15 71.55,98.05 71.45,98 71.4,97.9 71.3,97.75 71.25,97.6 71.2,97.45 V 97.3 97.15 l 0.05,-0.15 0.05,-0.15 0.1,-0.15 0.15,-0.15 0.1,-0.05 0.1,-0.1 0.15,-0.05 h 0.15 l 0.15,-0.05 0.15,0.05 h 0.1 L 72.6,96.4 Z M 72.2,96.3 v 0.05 z m -0.8,0.4 0.05,-0.05 z m -0.1,0.15 0.05,-0.05 z M 71.25,97 V 96.95 Z M 71.2,97.15 V 97.1 Z m 0,0.15 v -0.05 z m 0,0.15 V 97.4 Z m 0.05,0.15 -0.05,-0.05 z m 0.05,0.15 -0.05,-0.05 z m 0.1,0.15 -0.05,-0.05 z M 73.05,97.85 73,97.9 Z M 73.1,97.7 v 0.05 z m 0.05,-0.15 V 97.6 Z M 73.2,97.4 v 0.05 z m 0,-0.15 V 97.3 Z M 73.15,97.1 73.2,97.15 Z M 73.1,96.95 73.15,97 Z M 73.05,96.8 73.1,96.85 Z M 72.95,96.65 73,96.7 Z"
         id="path14"
         inkscape:connector-curvature="0"
         style="fill:#000000;stroke-linecap:round;stroke-linejoin:round" />
      <path
         d="m 152.45,95.95 -0.05,0.25 -0.15,-0.05 z m -0.2,-3 h 0.05 z m -94.2,3.2 -0.15,0.05 v -0.25 z m 0,-3.2 H 58 Z"
         id="path16"
         inkscape:connector-curvature="0"
         style="fill:#ffffff;stroke-linecap:round;stroke-linejoin:round" />
      <path
         d="m 158.6,61.3 c -0.3,0.266666 -0.65,0.416667 -1.05,0.45 -0.4,-0.03333 -0.73333,-0.183334 -1,-0.45 -0.3,-0.3 -0.45,-0.65 -0.45,-1.05 0,-0.399998 0.15,-0.73333 0.45,-1 0.26667,-0.3 0.6,-0.45 1,-0.45 0.4,0 0.75,0.15 1.05,0.45 0.26667,0.266666 0.41666,0.6 0.45,1 -0.0333,0.399998 -0.18333,0.749996 -0.45,1.05 z"
         id="path18"
         inkscape:connector-curvature="0"
         style="fill:#000000;stroke-linecap:round;stroke-linejoin:round" />
      <path
         d="m 158.05,55.35 c -0.3,0.266665 -0.65,0.416666 -1.05,0.45 -0.40001,-0.03333 -0.73334,-0.183335 -1,-0.45 -0.3,-0.3 -0.45,-0.65 -0.45,-1.05 0,-0.4 0.15,-0.73333 0.45,-1 0.26666,-0.3 0.59999,-0.45 1,-0.45 0.40001,0 0.75002,0.15 1.05,0.45 0.26667,0.266666 0.41666,0.599998 0.45,1 z"
         id="path20"
         inkscape:connector-curvature="0"
         style="fill:#000000;stroke-linecap:round;stroke-linejoin:round" />
      <path
         d="M 156.05,49.95 155,50.4 c -0.40001,-0.03334 -0.73334,-0.183337 -1,-0.45 -0.3,-0.3 -0.45,-0.649997 -0.45,-1.05 0,-0.4 0.15,-0.733332 0.45,-1 0.26666,-0.299998 0.59999,-0.45 1,-0.45 0.40001,0 0.75002,0.150002 1.05,0.45 0.26667,0.266668 0.41666,0.6 0.45,1 -0.0333,0.4 -0.18333,0.749998 -0.45,1.05 z"
         id="path22"
         inkscape:connector-curvature="0"
         style="fill:#000000;stroke-linecap:round;stroke-linejoin:round" />
      <path
         d="m 152.35,45.6 c -0.3,0.266665 -0.65,0.416666 -1.05,0.45 -0.4,-0.03333 -0.73333,-0.183335 -1,-0.45 -0.3,-0.3 -0.45,-0.65 -0.45,-1.05 0,-0.4 0.15,-0.73333 0.45,-1 0.26667,-0.3 0.6,-0.45 1,-0.45 0.4,0 0.75,0.15 1.05,0.45 0.26667,0.266666 0.41666,0.599998 0.45,1 z"
         id="path24"
         inkscape:connector-curvature="0"
         style="fill:#000000;stroke-linecap:round;stroke-linejoin:round" />
      <path
         d="m 146.95,42.25 c -0.3,0.266666 -0.65001,0.416668 -1.05,0.45 -0.4,-0.03333 -0.73333,-0.183334 -1,-0.45 -0.30001,-0.3 -0.45,-0.649998 -0.45,-1.05 0,-0.4 0.14999,-0.733333 0.45,-1 0.26667,-0.3 0.6,-0.45 1,-0.45 0.4,0 0.75001,0.15 1.05,0.45 0.26667,0.266667 0.41667,0.6 0.45,1 z"
         id="path26"
         inkscape:connector-curvature="0"
         style="fill:#000000;stroke-linecap:round;stroke-linejoin:round" />
      <path
         d="m 140.95,40.7 c -0.3,0.266667 -0.65001,0.41667 -1.05,0.45 -0.4,-0.03334 -0.73333,-0.183337 -1,-0.45 -0.30001,-0.3 -0.45,-0.649997 -0.45,-1.05 0,-0.4 0.14999,-0.733332 0.45,-1 0.26667,-0.299998 0.6,-0.45 1,-0.45 0.4,0 0.75001,0.150002 1.05,0.45 0.26667,0.266668 0.41667,0.6 0.45,1 z"
         id="path28"
         inkscape:connector-curvature="0"
         style="fill:#000000;stroke-linecap:round;stroke-linejoin:round" />
      <path
         d="m 134.75,41.4 c -0.3,0.266668 -0.65001,0.416666 -1.05,0.45 -0.4,-0.03333 -0.73333,-0.183332 -1,-0.45 -0.3,-0.299998 -0.45,-0.65 -0.45,-1.05 0,-0.4 0.15,-0.73333 0.45,-1 0.26667,-0.3 0.6,-0.45 1,-0.45 0.4,0 0.75001,0.15 1.05,0.45 0.26666,0.266665 0.41666,0.599997 0.45,1 z"
         id="path30"
         inkscape:connector-curvature="0"
         style="fill:#000000;stroke-linecap:round;stroke-linejoin:round" />
      <path
         d="m 122.8,45.95 c -0.3,0.266667 -0.65,0.41667 -1.05,0.45 -0.4,-0.03334 -0.73334,-0.183337 -1,-0.45 -0.29999,-0.3 -0.45,-0.649997 -0.45,-1.05 0,-0.4 0.15001,-0.733332 0.45,-1 0.26667,-0.299998 0.60001,-0.45 1,-0.45 0.4,0 0.75,0.150002 1.05,0.45 0.26667,0.266668 0.41667,0.6 0.45,1 z"
         id="path32"
         inkscape:connector-curvature="0"
         style="fill:#000000;stroke-linecap:round;stroke-linejoin:round" />
      <path
         d="m 128.5,43.35 c -0.3,0.266665 -0.65,0.416666 -1.05,0.45 -0.40001,-0.03333 -0.73334,-0.183335 -1,-0.45 -0.3,-0.3 -0.45,-0.65 -0.45,-1.05 0,-0.4 0.15,-0.73333 0.45,-1 0.26667,-0.3 0.6,-0.45 1,-0.45 0.4,0 0.75,0.15 1.05,0.45 0.26666,0.266666 0.41666,0.599998 0.45,1 z"
         id="path34"
         inkscape:connector-curvature="0"
         style="fill:#000000;stroke-linecap:round;stroke-linejoin:round" />
      <path
         d="m 116,48.95 c -0.29999,0.266667 -0.64999,0.41667 -1.05,0.45 -0.40001,-0.03334 -0.73334,-0.183337 -1,-0.45 -0.3,-0.3 -0.45,-0.649997 -0.45,-1.05 0,-0.4 0.15,-0.733332 0.45,-1 0.26667,-0.299998 0.6,-0.45 1,-0.45 0.4,0 0.75,0.150002 1.05,0.45 l 0.45,1 c -0.0333,0.4 -0.18334,0.749998 -0.45,1.05 z"
         id="path36"
         inkscape:connector-curvature="0"
         style="fill:#000000;stroke-linecap:round;stroke-linejoin:round" />
      <path
         d="m 51.7,61.3 c 0.3,0.266666 0.65,0.416667 1.05,0.45 0.399998,-0.03333 0.73333,-0.183334 1,-0.45 0.3,-0.3 0.45,-0.65 0.45,-1.05 0,-0.399998 -0.15,-0.73333 -0.45,-1 -0.266666,-0.3 -0.6,-0.45 -1,-0.45 -0.399998,0 -0.749996,0.15 -1.05,0.45 -0.266666,0.266666 -0.416667,0.6 -0.45,1 0.03333,0.399998 0.183334,0.749996 0.45,1.05 z"
         id="path38"
         inkscape:connector-curvature="0"
         style="fill:#000000;stroke-linecap:round;stroke-linejoin:round" />
      <path
         d="m 52.25,55.35 c 0.3,0.266665 0.649998,0.416666 1.05,0.45 0.4,-0.03333 0.733333,-0.183335 1,-0.45 l 0.45,-1.05 c 0,-0.4 -0.15,-0.73333 -0.45,-1 -0.266667,-0.3 -0.6,-0.45 -1,-0.45 -0.4,0 -0.749997,0.15 -1.05,0.45 -0.266666,0.266666 -0.416668,0.599998 -0.45,1 0.03333,0.4 0.183334,0.75 0.45,1.05 z"
         id="path40"
         inkscape:connector-curvature="0"
         style="fill:#000000;stroke-linecap:round;stroke-linejoin:round" />
      <path
         d="m 54.25,49.95 c 0.3,0.266667 0.649998,0.41667 1.05,0.45 0.4,-0.03334 0.733333,-0.183337 1,-0.45 0.3,-0.3 0.45,-0.649997 0.45,-1.05 0,-0.4 -0.15,-0.733332 -0.45,-1 -0.266667,-0.299998 -0.6,-0.45 -1,-0.45 -0.4,0 -0.749997,0.150002 -1.05,0.45 -0.266666,0.266668 -0.416668,0.6 -0.45,1 0.03333,0.4 0.183334,0.749998 0.45,1.05 z"
         id="path42"
         inkscape:connector-curvature="0"
         style="fill:#000000;stroke-linecap:round;stroke-linejoin:round" />
      <path
         d="m 57.95,45.6 c 0.3,0.266665 0.65,0.416666 1.05,0.45 0.399998,-0.03333 0.73333,-0.183335 1,-0.45 l 0.45,-1.05 -0.45,-1 c -0.266666,-0.3 -0.6,-0.45 -1,-0.45 -0.399998,0 -0.749996,0.15 -1.05,0.45 -0.266666,0.266666 -0.416667,0.599998 -0.45,1 0.03333,0.4 0.183334,0.75 0.45,1.05 z"
         id="path44"
         inkscape:connector-curvature="0"
         style="fill:#000000;stroke-linecap:round;stroke-linejoin:round" />
      <path
         d="m 63.35,42.25 c 0.299998,0.266666 0.65,0.416668 1.05,0.45 l 1,-0.45 0.45,-1.05 c 0,-0.4 -0.15,-0.733333 -0.45,-1 -0.26667,-0.3 -0.600005,-0.45 -1,-0.45 -0.4,0 -0.750002,0.15 -1.05,0.45 -0.266668,0.266667 -0.416666,0.6 -0.45,1 0.03333,0.4 0.183332,0.749997 0.45,1.05 z"
         id="path46"
         inkscape:connector-curvature="0"
         style="fill:#000000;stroke-linecap:round;stroke-linejoin:round" />
      <path
         d="m 69.35,40.7 c 0.3,0.266667 0.65,0.41667 1.05,0.45 0.4,-0.03334 0.73334,-0.183337 1,-0.45 l 0.45,-1.05 c 0,-0.4 -0.15,-0.733332 -0.45,-1 -0.26667,-0.299998 -0.600005,-0.45 -1,-0.45 -0.4,0 -0.75,0.150002 -1.05,0.45 -0.26667,0.266668 -0.41667,0.6 -0.45,1 0.03333,0.4 0.183336,0.749998 0.45,1.05 z"
         id="path48"
         inkscape:connector-curvature="0"
         style="fill:#000000;stroke-linecap:round;stroke-linejoin:round" />
      <path
         d="m 75.55,41.4 c 0.3,0.266668 0.65,0.416666 1.05,0.45 0.4,-0.03333 0.733336,-0.183332 1,-0.45 l 0.45,-1.05 c 0,-0.4 -0.15,-0.73333 -0.45,-1 -0.26667,-0.3 -0.60001,-0.45 -1,-0.45 -0.4,0 -0.75,0.15 -1.05,0.45 -0.26667,0.266665 -0.41667,0.599997 -0.45,1 0.03333,0.4 0.18333,0.750002 0.45,1.05 z"
         id="path50"
         inkscape:connector-curvature="0"
         style="fill:#000000;stroke-linecap:round;stroke-linejoin:round" />
      <path
         d="m 87.5,45.95 c 0.299995,0.266667 0.649994,0.41667 1.05,0.45 0.400005,-0.03334 0.73334,-0.183337 1,-0.45 L 90,44.9 l -0.45,-1 c -0.26667,-0.299998 -0.6,-0.45 -1,-0.45 -0.4,0 -0.75,0.150002 -1.05,0.45 -0.26667,0.266668 -0.41667,0.6 -0.45,1 0.03334,0.4 0.18334,0.749998 0.45,1.05 z"
         id="path52"
         inkscape:connector-curvature="0"
         style="fill:#000000;stroke-linecap:round;stroke-linejoin:round" />
      <path
         d="m 81.8,43.35 c 0.3,0.266665 0.65,0.416666 1.05,0.45 l 1,-0.45 c 0.3,-0.3 0.45,-0.65 0.45,-1.05 0,-0.4 -0.15,-0.73333 -0.45,-1 -0.26667,-0.3 -0.60001,-0.45 -1,-0.45 -0.4,0 -0.75,0.15 -1.05,0.45 -0.26667,0.266666 -0.41667,0.599998 -0.45,1 0.03333,0.4 0.18333,0.75 0.45,1.05 z"
         id="path54"
         inkscape:connector-curvature="0"
         style="fill:#000000;stroke-linecap:round;stroke-linejoin:round" />
      <path
         d="m 94.3,48.95 c 0.3,0.266667 0.65,0.41667 1.05,0.45 0.4,-0.03334 0.733336,-0.183337 1,-0.45 0.3,-0.3 0.45,-0.649997 0.45,-1.05 0,-0.4 -0.15,-0.733332 -0.45,-1 -0.26667,-0.299998 -0.60001,-0.45 -1,-0.45 -0.4,0 -0.75,0.150002 -1.05,0.45 -0.26667,0.266668 -0.41667,0.6 -0.45,1 0.03333,0.4 0.18333,0.749998 0.45,1.05 z"
         id="path56"
         inkscape:connector-curvature="0"
         style="fill:#000000;stroke-linecap:round;stroke-linejoin:round" />
      <path
         d="m 106.2,47.5 c -0.3,0.266666 -0.65,0.416668 -1.05,0.45 -0.4,-0.03333 -0.73334,-0.183334 -1,-0.45 -0.3,-0.3 -0.45,-0.649998 -0.45,-1.05 0,-0.4 0.15,-0.733333 0.45,-1 0.26667,-0.3 0.60001,-0.45 1,-0.45 0.4,0 0.75,0.15 1.05,0.45 0.26667,0.266667 0.41667,0.6 0.45,1 z"
         id="path58"
         inkscape:connector-curvature="0"
         style="fill:#000000;stroke-linecap:round;stroke-linejoin:round" />
      <path
         d="m 106.2,51.6 c -0.3,0.266665 -0.65,0.416666 -1.05,0.45 -0.4,-0.03333 -0.73334,-0.183335 -1,-0.45 -0.3,-0.3 -0.45,-0.65 -0.45,-1.05 0,-0.4 0.15,-0.73333 0.45,-1 0.26667,-0.3 0.60001,-0.45 1,-0.45 0.4,0 0.75,0.15 1.05,0.45 0.26667,0.266666 0.41667,0.599998 0.45,1 z"
         id="path60"
         inkscape:connector-curvature="0"
         style="fill:#000000;stroke-linecap:round;stroke-linejoin:round" />
      <path
         d="m 106.2,55.6 c -0.3,0.266665 -0.65,0.416666 -1.05,0.45 -0.4,-0.03333 -0.73334,-0.183335 -1,-0.45 -0.3,-0.3 -0.45,-0.65 -0.45,-1.05 0,-0.4 0.15,-0.73333 0.45,-1 0.26667,-0.3 0.60001,-0.45 1,-0.45 0.4,0 0.75,0.15 1.05,0.45 0.26667,0.266666 0.41667,0.599998 0.45,1 z"
         id="path62"
         inkscape:connector-curvature="0"
         style="fill:#000000;stroke-linecap:round;stroke-linejoin:round" />
      <path
         d="m 106.2,59.55 c -0.3,0.266666 -0.65,0.416667 -1.05,0.45 -0.4,-0.03333 -0.73334,-0.183334 -1,-0.45 -0.3,-0.3 -0.45,-0.65 -0.45,-1.05 0,-0.399998 0.15,-0.73333 0.45,-1 0.26667,-0.3 0.60001,-0.45 1,-0.45 0.4,0 0.75,0.15 1.05,0.45 0.26667,0.266666 0.41667,0.6 0.45,1 z"
         id="path64"
         inkscape:connector-curvature="0"
         style="fill:#000000;stroke-linecap:round;stroke-linejoin:round" />
      <path
         d="M 152.3,92.95 V 93"
         id="path66"
         inkscape:connector-curvature="0"
         style="fill:none;stroke:#000000;stroke-width:0.5;stroke-linecap:round;stroke-linejoin:round" />
      <path
         d="m 108.1,43.4 h -5.9"
         id="path68"
         inkscape:connector-curvature="0"
         style="fill:none;stroke:#000000;stroke-width:0.5;stroke-linecap:round;stroke-linejoin:round" />
      <path
         d="m 96.55,36.6 h 17.2"
         id="path70"
         inkscape:connector-curvature="0"
         style="fill:none;stroke:#000000;stroke-width:0.5;stroke-linecap:round;stroke-linejoin:round" />
      <path
         d="M 95.4,75.6 V 66"
         id="path72"
         inkscape:connector-curvature="0"
         style="fill:none;stroke:#000000;stroke-width:0.5;stroke-linecap:round;stroke-linejoin:round" />
      <path
         d="m 132.7,73.65 h -2.6"
         id="path74"
         inkscape:connector-curvature="0"
         style="fill:none;stroke:#000000;stroke-width:0.5;stroke-linecap:round;stroke-linejoin:round" />
      <path
         d="M 57.85,74.75 58,75.05"
         id="path76"
         inkscape:connector-curvature="0"
         style="fill:none;stroke:#000000;stroke-width:0.5;stroke-linecap:round;stroke-linejoin:round" />
      <path
         d="M 59.3,104.6 H 59.25"
         id="path78"
         inkscape:connector-curvature="0"
         style="fill:none;stroke:#000000;stroke-width:0.5;stroke-linecap:round;stroke-linejoin:round" />
      <path
         d="m 199.3,107.8 h -41.7 c 0.16668,-2.56667 -0.86666,-4.28334 -3.1,-5.15 1.8,-4 1.66667,-8.35 -0.4,-13.05 v -6 l -1.2,-1.8 4.8,-6.25 h 0.8 l 4,-6.75 -0.15,-4.1 6.15,-12.5 c 1.40001,-3.5 0.0667,-6.3 -4,-8.4 L 119.2,21.5 V 1 H 91.1 V 21.5 L 45.8,43.8 c -4.066666,2.1 -5.4,4.9 -4,8.4 l 6.15,12.5 -0.15,4.1 4,6.75 h 0.85 l 4.75,6.25 -1.2,1.8 v 6 c -2.06667,4.7 -2.183337,9.05 -0.35,13.05 -2.266668,0.86666 -3.316667,2.58333 -3.15,5.15 H 11 c -6.866667,-0.2 -10.2000003,3.13333 -10,10 V 180 C 4.6000004,246.83334 39.316666,298.90002 105.15,336.2 170.98334,298.9 205.70001,246.83331 209.3,180 m 0,-62.2 c 0.2,-6.86667 -3.13333,-10.2 -10,-10 m -95.65,-74 v -6.35 h 3 v 6.35 h 7.1 m -17.2,0 h 7.1 m -2.05,22 v 5.4 m 0,-5.4 C 97.76666,53.4 92.899994,52.533337 87,53.2 80.76667,50.4 75.11667,50.4 70.05,53.2 64.15,52.4 58.966667,53.283333 54.5,55.85 M 101.6,45.8 v 10 m 3.5,-36.4 c -0.56667,0 -1.05,-0.200001 -1.45,-0.6 l -0.5,-0.75 -0.1,-0.6 0.1,-0.6 0.5,-0.8 c 0.26667,-0.266667 0.60001,-0.433333 1,-0.5 l 0.5,-0.05 m 0,3.9 h -0.05 m 35.15,33.8 c -5.06667,-2.8 -10.71666,-2.8 -16.95,0 -5.9,-0.666667 -10.76667,0.199998 -14.6,2.6 v 5.4 m 47.1,-5.35 C 151.33334,53.283333 146.15001,52.4 140.25,53.2 M 108.7,45.8 v 10 5.4 m 24,14.7 2.35,2.3 c 4.86667,3.9 10.35001,2.8 16.45,-3.3 l 0.55,-0.55 0.8,-1.85 -0.4,-0.25 -5.95,-0.1 1.5,-5.35 4.7,2.85 0.55,-0.15 0.25,-0.05 0.6,0.1 0.5,0.35 0.05,0.05 m -1.95,-0.3 0.2,-6.35 3.05,0.8 m -3.6,8.05 c -0.3,-0.3 -0.45,-0.66667 -0.45,-1.1 0,-0.3 0.0833,-0.58333 0.25,-0.85 l 0.2,-0.3 0.35,-0.25 m 0.8,3 -0.65,-0.15 m -0.4,-0.25 -0.1,-0.1 m -22.25,3.8 2.6,-0.05 m 19.35,-1.55 1.4,-1.55 M 80.2,73.65 c 1.4,-2.333334 3.06666,-4.15 5,-5.45 0.06667,2.56667 0.80001,4.46667 2.2,5.7 1.033334,-2.4 1.25,-4.966666 0.65,-7.7 -0.76667,-1.93334 -1.883336,-2.433337 -3.35,-1.5 -1.5,0.93333 -2.86667,2.216664 -4.1,3.85 0.8,-4.833333 0.233336,-8.45 -1.7,-10.85 -1.93333,2.4 -2.5,6.016667 -1.7,10.85 -1.23333,-1.633336 -2.58333,-2.91667 -4.05,-3.85 -1.5,-0.933334 -2.61667,-0.43334 -3.35,1.5 -0.633336,2.733334 -0.43334,5.3 0.6,7.7 1.4,-1.23333 2.13333,-3.13333 2.2,-5.7 1.93333,1.3 3.6,3.116666 5,5.45 z m 0,2.3 -2.6,-0.05 c -0.33334,-0.73333 -0.33334,-1.48333 0,-2.25 m -2.3,4.55 2.3,-2.3 c -0.33334,-0.73333 -0.33334,-1.48333 0,-2.25 M 58.8,74.9 c 6.099994,6.1 11.599994,7.2 16.5,3.3 m -17,-3.85 0.5,0.55 m -2,-2.25 0.7,-0.15 0.8,1.85 -1.4,-1.55 z m 1.6,-1.6 -0.2,-0.85 -0.25,-0.3 -0.35,-0.25 4.7,-2.85 1.5,5.35 -5.95,0.1 c 0.366667,-0.36667 0.55,-0.76667 0.55,-1.2 z m -0.55,1.2 -0.35,0.25 m 0.1,-2.85 -0.55,-0.15 -0.25,-0.05 -0.6,0.1 -0.5,0.35 v 0.05 m 1.7,-6.65 0.2,6.35 m 22.6,4 c 0.53333,0.7 0.53333,1.46666 0,2.3 m -22.35,-3.7 0.1,-0.1 M 54.35,64.1 57.4,63.3 M 104.55,77 C 95.816666,86.299995 87.26666,86.93333 78.9,78.9 71.16667,85.566666 64.200005,84.28333 58,75.05 M 105.75,77 h -1.2 M 58,92.95 V 93 l 0.05,-0.05 z"
         id="path80"
         inkscape:connector-curvature="0"
         style="fill:none;stroke:#000000;stroke-width:0.5;stroke-linecap:round;stroke-linejoin:round" />
      <path
         d="M 209.3,180 V 117.8"
         id="path82"
         inkscape:connector-curvature="0"
         style="fill:none;stroke:#000000;stroke-width:0.5;stroke-linecap:round;stroke-linejoin:round" />
      <path
         d="m 152.45,74.75 -0.15,0.3"
         id="path84"
         inkscape:connector-curvature="0"
         style="fill:none;stroke:#000000;stroke-width:0.5;stroke-linecap:round;stroke-linejoin:round" />
      <path
         d="m 152.3,93 -0.05,-0.05"
         id="path86"
         inkscape:connector-curvature="0"
         style="fill:none;stroke:#000000;stroke-width:0.5;stroke-linecap:round;stroke-linejoin:round" />
      <path
         d="m 151,100.2 -2.4,4.4"
         id="path88"
         inkscape:connector-curvature="0"
         style="fill:none;stroke:#000000;stroke-width:0.5;stroke-linecap:round;stroke-linejoin:round" />
      <path
         d="m 150.6,104.6 0.95,-1.7"
         id="path90"
         inkscape:connector-curvature="0"
         style="fill:none;stroke:#000000;stroke-width:0.5;stroke-linecap:round;stroke-linejoin:round" />
      <path
         d="m 80.3,100.2 -2.4,4.4"
         id="path92"
         inkscape:connector-curvature="0"
         style="fill:none;stroke:#000000;stroke-width:0.5;stroke-linecap:round;stroke-linejoin:round" />
      <path
         d="m 75.2,100.2 -2.4,4.4"
         id="path94"
         inkscape:connector-curvature="0"
         style="fill:none;stroke:#000000;stroke-width:0.5;stroke-linecap:round;stroke-linejoin:round" />
      <path
         d="m 74.8,104.6 2.4,-4.4"
         id="path96"
         inkscape:connector-curvature="0"
         style="fill:none;stroke:#000000;stroke-width:0.5;stroke-linecap:round;stroke-linejoin:round" />
      <path
         d="m 70.1,100.2 -2.4,4.4"
         id="path98"
         inkscape:connector-curvature="0"
         style="fill:none;stroke:#000000;stroke-width:0.5;stroke-linecap:round;stroke-linejoin:round" />
      <path
         d="m 65,100.2 -2.4,4.4"
         id="path100"
         inkscape:connector-curvature="0"
         style="fill:none;stroke:#000000;stroke-width:0.5;stroke-linecap:round;stroke-linejoin:round" />
      <path
         d="M 64.6,104.6 67,100.2"
         id="path102"
         inkscape:connector-curvature="0"
         style="fill:none;stroke:#000000;stroke-width:0.5;stroke-linecap:round;stroke-linejoin:round" />
      <path
         d="m 69.7,104.6 2.4,-4.4"
         id="path104"
         inkscape:connector-curvature="0"
         style="fill:none;stroke:#000000;stroke-width:0.5;stroke-linecap:round;stroke-linejoin:round" />
      <path
         d="m 58.8,101.9 0.9,-1.7"
         id="path106"
         inkscape:connector-curvature="0"
         style="fill:none;stroke:#000000;stroke-width:0.5;stroke-linecap:round;stroke-linejoin:round" />
      <path
         d="m 59.3,104.6 2.4,-4.4"
         id="path108"
         inkscape:connector-curvature="0"
         style="fill:none;stroke:#000000;stroke-width:0.5;stroke-linecap:round;stroke-linejoin:round" />
      <path
         d="m 146.3,100.2 -2.4,4.4"
         id="path110"
         inkscape:connector-curvature="0"
         style="fill:none;stroke:#000000;stroke-width:0.5;stroke-linecap:round;stroke-linejoin:round" />
      <path
         d="m 145.9,104.6 2.4,-4.4"
         id="path112"
         inkscape:connector-curvature="0"
         style="fill:none;stroke:#000000;stroke-width:0.5;stroke-linecap:round;stroke-linejoin:round" />
      <path
         d="m 141.2,100.2 -2.4,4.4"
         id="path114"
         inkscape:connector-curvature="0"
         style="fill:none;stroke:#000000;stroke-width:0.5;stroke-linecap:round;stroke-linejoin:round" />
      <path
         d="m 140.8,104.6 2.4,-4.4"
         id="path116"
         inkscape:connector-curvature="0"
         style="fill:none;stroke:#000000;stroke-width:0.5;stroke-linecap:round;stroke-linejoin:round" />
      <path
         d="m 136.05,100.2 -2.4,4.4"
         id="path118"
         inkscape:connector-curvature="0"
         style="fill:none;stroke:#000000;stroke-width:0.5;stroke-linecap:round;stroke-linejoin:round" />
      <path
         d="m 135.65,104.6 2.4,-4.4"
         id="path120"
         inkscape:connector-curvature="0"
         style="fill:none;stroke:#000000;stroke-width:0.5;stroke-linecap:round;stroke-linejoin:round" />
      <path
         d="m 130.65,104.6 2.4,-4.4"
         id="path122"
         inkscape:connector-curvature="0"
         style="fill:none;stroke:#000000;stroke-width:0.5;stroke-linecap:round;stroke-linejoin:round" />
      <path
         d="m 131.05,100.2 -2.4,4.4"
         id="path124"
         inkscape:connector-curvature="0"
         style="fill:none;stroke:#000000;stroke-width:0.5;stroke-linecap:round;stroke-linejoin:round" />
      <path
         d="m 79.9,104.6 2.4,-4.4"
         id="path126"
         inkscape:connector-curvature="0"
         style="fill:none;stroke:#000000;stroke-width:0.5;stroke-linecap:round;stroke-linejoin:round" />
      <path
         d="m 125.95,100.2 -2.4,4.4"
         id="path128"
         inkscape:connector-curvature="0"
         style="fill:none;stroke:#000000;stroke-width:0.5;stroke-linecap:round;stroke-linejoin:round" />
      <path
         d="m 127.95,100.2 -2.4,4.4"
         id="path130"
         inkscape:connector-curvature="0"
         style="fill:none;stroke:#000000;stroke-width:0.5;stroke-linecap:round;stroke-linejoin:round" />
      <path
         d="m 121.1,100.2 -2.4,4.4"
         id="path132"
         inkscape:connector-curvature="0"
         style="fill:none;stroke:#000000;stroke-width:0.5;stroke-linecap:round;stroke-linejoin:round" />
      <path
         d="m 116.05,100.2 -2.4,4.4"
         id="path134"
         inkscape:connector-curvature="0"
         style="fill:none;stroke:#000000;stroke-width:0.5;stroke-linecap:round;stroke-linejoin:round" />
      <path
         d="m 118.05,100.2 -2.4,4.4"
         id="path136"
         inkscape:connector-curvature="0"
         style="fill:none;stroke:#000000;stroke-width:0.5;stroke-linecap:round;stroke-linejoin:round" />
      <path
         d="m 111.1,100.2 -2.4,4.4"
         id="path138"
         inkscape:connector-curvature="0"
         style="fill:none;stroke:#000000;stroke-width:0.5;stroke-linecap:round;stroke-linejoin:round" />
      <path
         d="m 106.1,100.2 -2.4,4.4"
         id="path140"
         inkscape:connector-curvature="0"
         style="fill:none;stroke:#000000;stroke-width:0.5;stroke-linecap:round;stroke-linejoin:round" />
      <path
         d="m 105.7,104.6 2.4,-4.4"
         id="path142"
         inkscape:connector-curvature="0"
         style="fill:none;stroke:#000000;stroke-width:0.5;stroke-linecap:round;stroke-linejoin:round" />
      <path
         d="m 113.1,100.2 -2.4,4.4"
         id="path144"
         inkscape:connector-curvature="0"
         style="fill:none;stroke:#000000;stroke-width:0.5;stroke-linecap:round;stroke-linejoin:round" />
      <path
         d="m 100.8,100.2 -2.4,4.4"
         id="path146"
         inkscape:connector-curvature="0"
         style="fill:none;stroke:#000000;stroke-width:0.5;stroke-linecap:round;stroke-linejoin:round" />
      <path
         d="m 95.7,100.2 -2.4,4.4"
         id="path148"
         inkscape:connector-curvature="0"
         style="fill:none;stroke:#000000;stroke-width:0.5;stroke-linecap:round;stroke-linejoin:round" />
      <path
         d="m 95.3,104.6 2.4,-4.4"
         id="path150"
         inkscape:connector-curvature="0"
         style="fill:none;stroke:#000000;stroke-width:0.5;stroke-linecap:round;stroke-linejoin:round" />
      <path
         d="m 90.5,100.2 -2.4,4.4"
         id="path152"
         inkscape:connector-curvature="0"
         style="fill:none;stroke:#000000;stroke-width:0.5;stroke-linecap:round;stroke-linejoin:round" />
      <path
         d="M 85.4,100.2 83,104.6"
         id="path154"
         inkscape:connector-curvature="0"
         style="fill:none;stroke:#000000;stroke-width:0.5;stroke-linecap:round;stroke-linejoin:round" />
      <path
         d="m 85,104.6 2.4,-4.4"
         id="path156"
         inkscape:connector-curvature="0"
         style="fill:none;stroke:#000000;stroke-width:0.5;stroke-linecap:round;stroke-linejoin:round" />
      <path
         d="m 90.1,104.6 2.4,-4.4"
         id="path158"
         inkscape:connector-curvature="0"
         style="fill:none;stroke:#000000;stroke-width:0.5;stroke-linecap:round;stroke-linejoin:round" />
      <path
         d="m 100.4,104.6 2.4,-4.4"
         id="path160"
         inkscape:connector-curvature="0"
         style="fill:none;stroke:#000000;stroke-width:0.5;stroke-linecap:round;stroke-linejoin:round" />
      <path
         d="m 123.1,100.2 -2.4,4.4"
         id="path162"
         inkscape:connector-curvature="0"
         style="fill:none;stroke:#000000;stroke-width:0.5;stroke-linecap:round;stroke-linejoin:round" />
      <path
         d="m 101.6,61.2 h 3.55 v -1.25 m 1.65,10.65 c 0,0.43333 -0.16666,0.8 -0.5,1.1 -0.3,0.33333 -0.66667,0.5 -1.1,0.5 -0.43333,0 -0.81666,-0.16667 -1.15,-0.5 -0.3,-0.3 -0.45,-0.66667 -0.45,-1.1 0,-0.433336 0.15,-0.81667 0.45,-1.15 0.33334,-0.3 0.71667,-0.45 1.15,-0.45 0.43333,0 0.8,0.15 1.1,0.45 0.33334,0.33333 0.5,0.716664 0.5,1.15 z m -2.85,-1.3 -2.35,-8.1 m 4.75,8.1 8.55,-3.3 v 9.6 L 106.35,72 c 0.16666,1.299995 0.44999,2.166664 0.85,2.6 8.66666,8.76667 16.3,9.216666 22.9,1.35 -0.53333,-0.83334 -0.53333,-1.6 0,-2.3 -1.4,-2.333334 -3.06667,-4.15 -5,-5.45 -0.0667,2.56667 -0.8,4.46667 -2.2,5.7 -1.03333,-2.4 -1.23333,-4.966666 -0.6,-7.7 0.73333,-1.93334 1.85,-2.433337 3.35,-1.5 1.46667,0.93333 2.81667,2.216664 4.05,3.85 -0.8,-4.833333 -0.23334,-8.45 1.7,-10.85 1.93333,2.4 2.5,6.016667 1.7,10.85 1.23333,-1.633336 2.6,-2.91667 4.1,-3.85 1.46666,-0.933334 2.58333,-0.43334 3.35,1.5 0.6,2.733334 0.38332,5.3 -0.65,7.7 -1.4,-1.23333 -2.13334,-3.13333 -2.2,-5.7 -1.93334,1.3 -3.60001,3.116666 -5,5.45 0.33333,0.76667 0.33333,1.51667 0,2.25 m -24,-14.7 h -3.55 V 59.95 M 95.4,66 l 8.55,3.3 m 4.75,-8.1 -2.35,8.1 m -0.7,-53.75 c 0.4,0.06667 0.73334,0.233333 1,0.5 l 0.5,0.8 0.1,0.6 -0.1,0.6 -0.5,0.75 c -0.4,0.399999 -0.88334,0.6 -1.45,0.6 h -0.05 m 0,-3.9 0.5,0.05 M 103.1,74.6 c 0.4,-0.433336 0.68333,-1.300005 0.85,-2.6 l -8.55,3.6 m -15.2,0.35 c 6.599995,7.866666 14.23333,7.41667 22.9,-1.35 m 28.3,4.3 c 7.73333,6.666666 14.7,5.38333 20.9,-3.85 M 105.75,77 c 8.73333,9.299995 17.28333,9.93333 25.65,1.9"
         id="path164"
         inkscape:connector-curvature="0"
         style="fill:none;stroke:#000000;stroke-width:0.5;stroke-linecap:round;stroke-linejoin:round" />
      <path
         d="m 58,92.95 c 0.233334,-1.133334 0.666668,-2.25 1.3,-3.35"
         id="path166"
         inkscape:connector-curvature="0"
         style="fill:none;stroke:#000000;stroke-width:1;stroke-linecap:round;stroke-linejoin:round" />
      <path
         d="m 203.9,178.3 v -58.05 c 0.0333,-4.46667 -2.24999,-6.75 -6.85,-6.85 H 151.1 c -30.1,1.86666 -60.73334,1.86666 -91.9,0 H 13.25 c -4.6,0.1 -6.8833337,2.38333 -6.85,6.85 v 58.05 l 1.2,17.1 c 1.133334,7.03333 2.616667,13.88334 4.45,20.55 12.066665,44.2 39.199996,79.23332 81.4,105.1 3.76667,2.33333 7.66667,4.58333 11.7,6.75 4.03333,-2.16667 7.95,-4.41667 11.75,-6.75 42.16667,-25.86668 69.3,-60.9 81.4,-105.1 1.8,-6.66667 3.26667,-13.51668 4.4,-20.55 z M 57.5,107.9 c -0.166668,0.76667 -0.15,1.53333 0.05,2.3 0.233333,1.03333 0.783332,2.09999 1.65,3.2 m 90.65,-3.2 h 2.95 c -0.26667,1.03333 -0.83334,2.09999 -1.7,3.2 m 1.75,-5.5 c 0.13334,0.76667 0.11667,1.53333 -0.05,2.3 -0.26667,1.03333 -0.83334,2.09999 -1.7,3.2 m -91.85,-8.8 c -0.966667,1.06666 -1.55,2.16666 -1.75,3.3 h 2.95 c 0.333333,0 0.616666,0.1 0.85,0.3 l 0.3,0.85 -0.3,0.8 c -0.233334,0.23333 -0.516667,0.35 -0.85,0.35 h -2.9 c 0.233333,1.03333 0.783332,2.09999 1.65,3.2 m -0.4,-10.5 c 0.03333,0.56667 0.183334,1.13333 0.45,1.7 m 89.75,5.25 c 0.23334,0.23333 0.51668,0.35 0.85,0.35 M 58.8,101.9 v 1 m 91.8,1.7 h 0.45 c 0.96666,1.06666 1.56667,2.16666 1.8,3.3 h -3 c -0.33332,0 -0.61666,0.1 -0.85,0.3 -0.2,0.23333 -0.3,0.51667 -0.3,0.85 0,0.33334 0.1,0.6 0.3,0.8 m 2.55,-6.95 -0.5,1.7 m -2.45,0 h 2 m -91.3,-4.4 c -0.266667,0.56667 -0.433335,1.13334 -0.5,1.7 m 87.1,2.7 h 2.7 m -0.3,-4.4 h 2.7 c 0.43333,0.9 0.61667,1.8 0.55,2.7 m -7.65,1.7 h 2 m -5.1,0 h 3.1 m 2.4,-4.4 h 2 m -9.5,4.4 h 2 m -5.15,0 h 3.15 m 11.85,-7.8 h 0.1 c 0.59999,-0.03333 1.09999,-0.25 1.5,-0.65 l 0.2,-0.2 m -0.05,0.25 c -0.16668,1.33333 -0.63334,2.66667 -1.4,4 0.43333,0.9 0.61667,1.8 0.55,2.7 m -2.4,-6.75 c 0.4,0.4 0.9,0.61667 1.5,0.65 m -91,0 h -0.1 c -0.6,-0.03333 -1.1,-0.25 -1.5,-0.65 l -0.15,-0.2 m 0,0.25 c 0.16667,1.33333 0.633337,2.66667 1.4,4 m 1.85,-4.05 c -0.4,0.4 -0.9,0.61667 -1.5,0.65 m 83.55,3.4 h 3.1 m -12.65,4.4 h 2 m -5,0 h 3 M 152.3,93 c 0.2,0.96667 0.25,1.95 0.15,2.95 l -0.05,0.25 m -3.9,-1.65 c 0,0.633334 0.21666,1.16667 0.65,1.6 M 61.8,94.55 c 0,0.633334 -0.216668,1.16667 -0.65,1.6 m 80.05,4.05 h 2 M 151,89.6 c 0.63333,1.1 1.06667,2.216666 1.3,3.35 -0.43333,-0.400005 -0.95,-0.61667 -1.55,-0.65 -0.66667,0.03334 -1.20001,0.25 -1.6,0.65 -0.43334,0.43333 -0.65,0.966664 -0.65,1.6 m -87.35,-1.6 c 0.433332,0.43333 0.65,0.966664 0.65,1.6 m 76.25,5.65 h 3.15 M 151,86.1 c 0.53334,1.3 0.53334,2.466666 0,3.5 m -14.95,10.6 h 2 m 11.9,-14.1 H 151 m -91.45,6.2 h 0.1 c 0.6,0.03334 1.1,0.25 1.5,0.65 m 71.9,7.25 h 3 m -5,0 h 2 m -5.1,0 h 3.1 m -5.1,0 h 2 m -4.85,0 h 2.85 m -4.85,0 h 2 m -5.05,0 h 3.05 m -5.05,0 h 2 m -4.95,0 h 2.95 m -4.95,0 h 2 m -5,0 h 3 m -5,0 h 2 M 58,93 c -0.2,0.96667 -0.233334,1.95 -0.1,2.95 v 0.25 m 70.75,8.4 h 2 m 20.1,-12.3 h -0.1 m -92.6,0.65 c 0.4,-0.400005 0.9,-0.61667 1.5,-0.65 0.666667,0.03334 1.2,0.25 1.6,0.65 m 91.15,-17.9 c -1.56666,3.400005 -2.35,7.08334 -2.35,11.05 m -44.8,14.1 h 0.95 m 2,-56.8 0.6,1.2 v 1.2 c 1.53333,0.6 2.19999,1.46667 2,2.6 0.0667,1 0.7,1.5 1.9,1.5 2.43333,-0.299998 5.05,-1.183333 7.85,-2.65 2.76667,-1.5 5.58333,-2.816666 8.45,-3.95 2.86666,-1.133336 6.01667,-1.833337 9.45,-2.1 3.4,-0.266666 7.05,0.95 10.95,3.65 3.6,2.466666 5.76667,6.133334 6.5,11 l 0.15,1.25 c 0.23333,2.433333 0.23333,4.766665 0,7 -0.23333,2.03333 -0.66666,3.966666 -1.3,5.8 l -1.15,2.75 -0.6,1.15 -0.45,0.95 M 113.75,36.6 c -0.6,3.1 -2.48333,5.366667 -5.65,6.8 m 6.4,-6.8 h -0.75 m 0.75,-2.8 v 2.8 m 40.15,33.3 v 0.05 m -1.15,2.7 -0.05,0.15 m -39.7,-39 h 0.75 m -6.85,-5.85 V 26 h 3.25 c -2.36667,-1.5 -3.60001,-3.116667 -3.7,-4.85 v -1.8 h 1.75 c 1.83333,0.1 3.5,1.333334 5,3.7 V 11.8 c -1.5,2.366667 -3.16667,3.600001 -5,3.7 h -1.75 v -1.9 c 0.1,-1.833333 1.33333,-3.5 3.7,-5 H 99.4 c 2.36666,1.5 3.59999,3.166667 3.7,5 v 1.9 h -1.75 c -1.83334,-0.1 -3.5,-1.333333 -5,-3.7 v 11.25 c 1.5,-2.366668 3.16666,-3.600001 5,-3.7 h 1.75 v 1.8 C 103,22.883333 101.76667,24.5 99.4,26 h 3.25 v 1.95 c -3.3,0.866668 -5.333334,2.816666 -6.1,5.85 H 95.8 v 2.8 h 0.75 c 0.6,3.1 2.48333,5.366667 5.65,6.8 l -0.6,1.2 v 1.2 m 12.15,-12 c -0.76667,-3.033334 -2.8,-4.983332 -6.1,-5.85 M 61,44.85 c 3.9,-2.700002 7.566666,-3.91667 11,-3.65 3.4,0.266667 6.55,0.966668 9.45,2.1 2.83333,1.133334 5.65,2.45 8.45,3.95 2.76667,1.466667 5.36667,2.350002 7.8,2.65 1.2,0 1.83333,-0.5 1.9,-1.5 -0.2,-1.133334 0.46667,-2.000002 2,-2.6 M 54.5,55.85 c 0.733334,-4.866666 2.9,-8.533334 6.5,-11 M 82.55,96.8 h -2.9 c -0.63334,0 -1.16667,-0.216664 -1.6,-0.65 -0.43333,-0.43333 -0.65,-0.966666 -0.65,-1.6 0,-0.633336 0.21667,-1.16667 0.65,-1.6 0.43333,-0.43333 0.96666,-0.65 1.6,-0.65 h 2.9 c 0.633334,0 1.16667,0.21667 1.6,0.65 0.433336,0.43333 0.65,0.966664 0.65,1.6 0,0.633334 -0.216664,1.16667 -0.65,1.6 -0.43333,0.433336 -0.966666,0.65 -1.6,0.65 z M 60.35,86.1 H 59.3 c -0.533334,1.3 -0.533334,2.466666 0,3.5 M 58,75.05 c 1.566666,3.400005 2.35,7.08334 2.35,11.05 m -6,-29 c -0.233335,2.433333 -0.233335,4.766665 0,7 m 0.15,-8.25 -0.15,1.25 m 71.8,39.05 c 0.43334,0.433336 0.96667,0.65 1.6,0.65 h 2.9 c 0.63334,0 1.16668,-0.216664 1.6,-0.65 0.43333,-0.43333 0.65,-0.966666 0.65,-1.6 0,-0.633336 -0.21667,-1.16667 -0.65,-1.6 -0.43333,-0.43333 -0.96667,-0.65 -1.6,-0.65 h -2.9 c -0.63333,0 -1.16666,0.21667 -1.6,0.65 -0.43333,0.43333 -0.65,0.966664 -0.65,1.6 0,0.633334 0.21667,1.16667 0.65,1.6 z M 55.7,69.95 V 69.9 c -0.666667,-1.833334 -1.116668,-3.76667 -1.35,-5.8 m 2.45,8.55 -1.1,-2.7 C 55.033333,68.083336 54.583332,66.13334 54.35,64.1 m 2.55,8.7 0.5,1 0.45,0.95 M 56.9,72.8 56.8,72.65 m 20.65,37 c -0.23333,-0.2 -0.35,-0.46667 -0.35,-0.8 0,-0.33334 0.11667,-0.61667 0.35,-0.85 0.2,-0.20001 0.46667,-0.3 0.8,-0.3 h 6.2 c 0.33333,0 0.616666,0.1 0.85,0.3 l 0.3,0.85 -0.3,0.8 c -0.233334,0.23333 -0.51667,0.35 -0.85,0.35 h -6.2 c -0.333336,0 -0.600006,-0.11667 -0.8,-0.35 z m 54.6,-1.95 h -6.2 c -0.33334,0 -0.61667,0.1 -0.85,0.3 -0.20001,0.23333 -0.3,0.51666 -0.3,0.85 0,0.33333 0.1,0.60001 0.3,0.8 l 0.85,0.35 h 6.2 c 0.33333,0 0.6,-0.11667 0.8,-0.35 0.23333,-0.2 0.35,-0.46667 0.35,-0.8 0,-0.33334 -0.11667,-0.61667 -0.35,-0.85 -0.19999,-0.20001 -0.46665,-0.3 -0.8,-0.3 z m -6.5,-3.1 h -2 -2.85 -2 -3.05 -2 -2.95 -2 -3 -0.55 m 23.5,0 h -3.1 m -23.2,5.4 h 6.2 c 0.33334,0 0.6,-0.11667 0.8,-0.35 0.23333,-0.2 0.35,-0.46667 0.35,-0.8 0,-0.33334 -0.11667,-0.61667 -0.35,-0.85 -0.2,-0.20001 -0.46666,-0.3 -0.8,-0.3 h -6.2 l -0.85,0.3 c -0.20001,0.23333 -0.3,0.51666 -0.3,0.85 0,0.33333 0.1,0.60001 0.3,0.8 0.23333,0.23333 0.51666,0.35 0.85,0.35 z"
         id="path168"
         inkscape:connector-curvature="0"
         style="fill:none;stroke:#000000;stroke-width:1;stroke-linecap:round;stroke-linejoin:round" />
      <path
         d="m 60.35,86.1 h 89.6"
         id="path170"
         inkscape:connector-curvature="0"
         style="fill:none;stroke:#000000;stroke-width:1;stroke-linecap:round;stroke-linejoin:round" />
      <path
         d="M 59.3,89.6 H 151"
         id="path172"
         inkscape:connector-curvature="0"
         style="fill:none;stroke:#000000;stroke-width:1;stroke-linecap:round;stroke-linejoin:round" />
      <path
         d="m 99.9,96.8 h 10.5 V 92.1 H 99.9 Z m -40.2,3.4 h 2 3.3 2 3.1 2 3.1 2 3.1 2 3.1 2 3.1 2 3.2 2 3.1 2 2.35 m -45.85,0 h 0.4 m 20.2,4.4 h -2 -3.1 -2 -3.1 -2 -3.1 -2 -3.3 m 23.7,0 h -3.1 m 5.1,0 h -2 m 5.1,0 H 85 m 5.1,0 h -2 m 5.2,0 h -3.2 m 5.2,0 h -2 m 5.1,0 h -3.1 m 5.1,0 h -2 m 5.3,0 h -3.3 m 4.75,0 h -1.45"
         id="path174"
         inkscape:connector-curvature="0"
         style="fill:none;stroke:#000000;stroke-width:1;stroke-linecap:round;stroke-linejoin:round" />
    </g>
    <g
       transform="translate(80.7,281.9)"
       id="g176">
      <path
         transform="matrix(0.29296875,0,0,0.29296875,0,15)"
         d="m 27.1,-23.4 c -0.4,-2.033334 -0.966667,-3.816667 -1.7,-5.35 -1.066668,-2.1 -2.383334,-3.65 -3.95,-4.65 -1.533334,-1 -3.383334,-1.5 -5.55,-1.5 -1.966667,0 -3.666666,0.316664 -5.1,0.95 -1.433333,0.6 -2.65,1.550002 -3.65,2.85 -1.1666664,1.666666 -2.083333,3.716665 -2.75,6.15 -0.6666667,2.399999 -1,5.016666 -1,7.85 0,1.366666 0.1,2.766667 0.3,4.2 0.2,1.4 0.4833334,2.733333 0.85,4 0.3333337,1.266667 0.75,2.4 1.25,3.4 1,2.1000001 2.3,3.6500002 3.9,4.65 1.6,0.99999998 3.6,1.5 6,1.5 1.766667,0 3.350001,-0.3166667 4.75,-0.95 1.366668,-0.63333334 2.55,-1.6000001 3.55,-2.9 0.800001,-1.0333336 1.466667,-2.2833336 2,-3.75 0.566668,-1.466666 1,-3.066666 1.3,-4.8 0.266668,-1.733334 0.4,-3.516667 0.4,-5.35 0,-2.166666 -0.2,-4.266667 -0.6,-6.3 z m 0.6,6.3 z m -5.6,2.85 -0.5,2.75 -0.65,2.25 c -0.566667,1.5 -1.283334,2.6000004 -2.15,3.3 -0.833335,0.7333333 -1.866668,1.083333 -3.1,1.05 -1.1,0 -2.033333,-0.216667 -2.8,-0.65 -0.766667,-0.433333 -1.416666,-1.0999996 -1.95,-2 -0.666667,-1.133333 -1.166667,-2.533333 -1.5,-4.2 -0.366667,-1.7 -0.55,-3.483334 -0.55,-5.35 0,-1.466666 0.116666,-2.899998 0.35,-4.3 0.233334,-1.433332 0.566667,-2.683332 1,-3.75 0.566667,-1.433332 1.266666,-2.5 2.1,-3.2 0.866666,-0.7 1.899999,-1.05 3.1,-1.05 h 0.35 c 1,0.06667 1.85,0.316668 2.55,0.75 0.733334,0.4 1.366667,1.033333 1.9,1.9 0.666666,1.199999 1.166666,2.616665 1.5,4.25 0.366667,1.666666 0.55,3.466665 0.55,5.4 z m 0.2,-2.85 z"
         id="path178"
         inkscape:connector-curvature="0"
         style="fill:#000000" />
      <path
         transform="matrix(0.29296875,0,0,0.29296875,8.1499996,15)"
         d="m 27.45,0 v -34.3 h -5.4 v 21.95 L 9.55,-34.3 H 4.1 V 0 H 9.55 V -23.25 L 22.65,0 Z"
         id="path180"
         inkscape:connector-curvature="0"
         style="fill:#000000" />
      <path
         transform="matrix(0.29296875,0,0,0.29296875,16.4,15)"
         d="M 22.3,-29.45 V -34.3 H 1.1 v 4.85 H 8.9 V 0 h 5.45 v -29.45 z"
         id="path182"
         inkscape:connector-curvature="0"
         style="fill:#000000" />
      <path
         transform="matrix(0.29296875,0,0,0.29296875,22.200001,15)"
         d="M 30.1,0 18.3,-34.3 H 12.9 L 1.1,0 h 5.8 l 3.35,-9.6 h 10.7 L 24.35,0 Z M 19,-15.15 h -6.85 l 3.55,-9.6 z"
         id="path184"
         inkscape:connector-curvature="0"
         style="fill:#000000" />
      <path
         transform="matrix(0.29296875,0,0,0.29296875,30.35,15)"
         d="M 27.45,0 21.4,-16 c 1.066667,-0.5 2.000002,-1.2 2.8,-2.1 0.8,-0.866667 1.416667,-1.866667 1.85,-3 0.466666,-1.133334 0.7,-2.316666 0.7,-3.55 -0.03333,-1.2 -0.266666,-2.35 -0.7,-3.45 -0.433333,-1.133334 -1.033334,-2.15 -1.8,-3.05 -0.766666,-0.866666 -1.666666,-1.55 -2.7,-2.05 -0.8,-0.4 -1.7,-0.68333 -2.7,-0.85 l -3.4,-0.25 H 4.1 V 0 h 5.45 v -14.95 h 6.5 L 21.55,0 Z m -6.7,-22.6 c -0.4,0.666666 -0.933332,1.199998 -1.6,1.6 l -1.25,0.45 -1.85,0.1 h -6.5 v -8.4 h 6.5 l 1.9,0.1 1.2,0.5 c 0.666666,0.366667 1.199998,0.883333 1.6,1.55 0.366667,0.633332 0.55,1.316667 0.55,2.05 0,0.733334 -0.183333,1.416666 -0.55,2.05 z m 0.55,-2.05 z"
         id="path186"
         inkscape:connector-curvature="0"
         style="fill:#000000" />
      <path
         transform="matrix(0.29296875,0,0,0.29296875,37.900002,15)"
         d="M 9.65,0 V -34.3 H 4.1 V 0 Z"
         id="path188"
         inkscape:connector-curvature="0"
         style="fill:#000000" />
      <path
         transform="matrix(0.29296875,0,0,0.29296875,40.900002,15)"
         d="m 27.1,-23.4 c -0.4,-2.033334 -0.966667,-3.816667 -1.7,-5.35 -1.066668,-2.1 -2.383334,-3.65 -3.95,-4.65 -1.533334,-1 -3.383334,-1.5 -5.55,-1.5 -1.966667,0 -3.666666,0.316664 -5.1,0.95 -1.433333,0.6 -2.65,1.550002 -3.65,2.85 -1.1666664,1.666666 -2.083333,3.716665 -2.75,6.15 -0.6666667,2.399999 -1,5.016666 -1,7.85 0,1.366666 0.1,2.766667 0.3,4.2 0.2,1.4 0.4833334,2.733333 0.85,4 0.3333337,1.266667 0.75,2.4 1.25,3.4 1,2.1000001 2.3,3.6500002 3.9,4.65 1.6,0.99999998 3.6,1.5 6,1.5 1.766667,0 3.350001,-0.3166667 4.75,-0.95 1.366668,-0.63333334 2.55,-1.6000001 3.55,-2.9 0.800001,-1.0333336 1.466667,-2.2833336 2,-3.75 0.566668,-1.466666 1,-3.066666 1.3,-4.8 0.266668,-1.733334 0.4,-3.516667 0.4,-5.35 0,-2.166666 -0.2,-4.266667 -0.6,-6.3 z m 0.6,6.3 z m -5.6,2.85 -0.5,2.75 -0.65,2.25 c -0.566667,1.5 -1.283334,2.6000004 -2.15,3.3 -0.833335,0.7333333 -1.866668,1.083333 -3.1,1.05 -1.1,0 -2.033333,-0.216667 -2.8,-0.65 -0.766667,-0.433333 -1.416666,-1.0999996 -1.95,-2 -0.666667,-1.133333 -1.166667,-2.533333 -1.5,-4.2 -0.366667,-1.7 -0.55,-3.483334 -0.55,-5.35 0,-1.466666 0.116666,-2.899998 0.35,-4.3 0.233334,-1.433332 0.566667,-2.683332 1,-3.75 0.566667,-1.433332 1.266666,-2.5 2.1,-3.2 0.866666,-0.7 1.899999,-1.05 3.1,-1.05 h 0.35 c 1,0.06667 1.85,0.316668 2.55,0.75 0.733334,0.4 1.366667,1.033333 1.9,1.9 0.666666,1.199999 1.166666,2.616665 1.5,4.25 0.366667,1.666666 0.55,3.466665 0.55,5.4 z m 0.2,-2.85 z"
         id="path190"
         inkscape:connector-curvature="0"
         style="fill:#000000" />
    </g>
    <g
       transform="translate(82.897203,151.49253)"
       id="g192">
      <text
         xml:space="preserve"
         style="font-style:normal;font-variant:normal;font-weight:normal;font-stretch:normal;font-size:130.54845506px;line-height:125%;font-family:'Roadgeek 2005 Series C';-inkscape-font-specification:'Roadgeek 2005 Series C, Normal';font-variant-ligatures:normal;font-variant-caps:normal;font-variant-numeric:normal;font-feature-settings:normal;text-align:center;letter-spacing:0px;word-spacing:0px;writing-mode:lr;text-anchor:middle;fill:#000000;fill-opacity:1;stroke:none;stroke-width:6.99366713px;stroke-linecap:butt;stroke-linejoin:miter;stroke-opacity:1;"
         x="22.93132"
         y="92.33844"
         id="text1248"><tspan
           sodipodi:role="line"
           id="tspan1301">%num%</tspan></text>
    </g>
  </g>
</svg>
