<?xml version="1.0" encoding="UTF-8" standalone="no"?>
<!-- Created with Inkscape (http://www.inkscape.org/) -->

<svg
   xmlns:dc="http://purl.org/dc/elements/1.1/"
   xmlns:cc="http://creativecommons.org/ns#"
   xmlns:rdf="http://www.w3.org/1999/02/22-rdf-syntax-ns#"
   xmlns:svg="http://www.w3.org/2000/svg"
   xmlns="http://www.w3.org/2000/svg"
   xmlns:sodipodi="http://sodipodi.sourceforge.net/DTD/sodipodi-0.dtd"
   xmlns:inkscape="http://www.inkscape.org/namespaces/inkscape"
   id="svg2383"
   sodipodi:version="0.32"
   inkscape:version="0.92.3 (2405546, 2018-03-11)"
   width="48"
   height="48"
   version="1.0"
   sodipodi:docname="CA:ON:Primary:ETR_3.svg"
   inkscape:output_extension="org.inkscape.output.svg.inkscape">
  <metadata
     id="metadata2388">
    <rdf:RDF>
      <cc:Work
         rdf:about="">
        <dc:format>image/svg+xml</dc:format>
        <dc:type
           rdf:resource="http://purl.org/dc/dcmitype/StillImage" />
        <dc:title></dc:title>
      </cc:Work>
    </rdf:RDF>
  </metadata>
  <defs
     id="defs2386">
    <inkscape:perspective
       sodipodi:type="inkscape:persp3d"
       inkscape:vp_x="0 : 526.18109 : 1"
       inkscape:vp_y="0 : 1000 : 0"
       inkscape:vp_z="744.09448 : 526.18109 : 1"
       inkscape:persp3d-origin="372.04724 : 350.78739 : 1"
       id="perspective2390" />
  </defs>
  <sodipodi:namedview
     inkscape:window-height="988"
     inkscape:window-width="1400"
     inkscape:pageshadow="2"
     inkscape:pageopacity="0.0"
     guidetolerance="10.0"
     gridtolerance="10.0"
     objecttolerance="10.0"
     borderopacity="1.0"
     bordercolor="#666666"
     pagecolor="#ffffff"
     id="base"
     showgrid="false"
     inkscape:zoom="11.313708"
     inkscape:cx="23.605745"
     inkscape:cy="24.902238"
     inkscape:window-x="0"
     inkscape:window-y="24"
     inkscape:current-layer="svg2383"
     inkscape:pagecheckerboard="true" />
  <rect
     style="opacity:1;fill:#ffffff;fill-opacity:1;stroke:none;stroke-width:1.01467144;stroke-opacity:1"
     id="rect831"
     width="47.994873"
     height="24.748737"
     x="0.17677669"
     y="23.339651"
     ry="1.7005256" />
  <g
     id="g2447"
     transform="translate(-149.08303,-4.7371678)" />
  <text
     xml:space="preserve"
     style="font-style:normal;font-weight:normal;line-height:0%;font-family:'Bitstream Vera Sans';fill:#000000;fill-opacity:1;stroke:none;stroke-width:1px;stroke-linecap:butt;stroke-linejoin:miter;stroke-opacity:1"
     x="-91.178619"
     y="25.744452"
     id="text2401"><tspan
       sodipodi:role="line"
       id="tspan2403"
       x="-91.178619"
       y="25.744452"
       style="font-size:144px;line-height:1.25"> </tspan></text>
  <path
     style="font-style:italic;font-variant:normal;font-weight:bold;font-stretch:normal;font-size:14px;line-height:100%;font-family:'FreeSetC Cyrillic';-inkscape-font-specification:'FreeSetC Cyrillic Bold Italic';text-align:start;writing-mode:lr-tb;text-anchor:start;fill:#01478c;fill-opacity:1;stroke:none;stroke-width:0.43980804px;stroke-linecap:butt;stroke-linejoin:miter;stroke-opacity:1"
     d="m 5.4435371,42.799793 -0.655746,3.232548 h 1.9302891 l 0.1154326,-0.57262 H 5.5589697 L 5.7298231,44.633113 H 6.8889242 L 6.9951278,44.102052 H 5.8360315 L 5.983789,43.372418 h 1.2745431 l 0.1154326,-0.572625 z m 2.1016915,0.840467 0.4987407,1.159096 -1.052888,1.232985 h 0.7342534 l 0.512584,-0.641889 0.1800824,-0.263237 h 0.013725 l 0.092337,0.24937 0.2678281,0.655742 H 9.5169106 L 8.949166,44.817828 9.932785,43.64026 H 9.20777 L 8.7829081,44.189793 8.5843679,44.471488 H 8.5706428 L 8.4875351,44.199022 8.2658516,43.640255 Z m 3.3499064,0 h -0.549533 l -0.6880709,3.380319 h 0.6280359 l 0.189358,-0.918964 0.06465,-0.392537 h 0.009 c 0.02603,0.04496 0.05831,0.09006 0.09698,0.135073 0.03881,0.04496 0.08022,0.08311 0.124662,0.114297 0.04638,0.03502 0.102559,0.06205 0.168534,0.0814 0.06597,0.0194 0.140658,0.02934 0.223955,0.02934 0.152396,0.0016 0.308246,-0.03171 0.467552,-0.09929 0.159305,-0.06773 0.308246,-0.179325 0.446775,-0.334797 0.121395,-0.141983 0.216856,-0.310565 0.286286,-0.505665 0.06948,-0.195085 0.104878,-0.395991 0.106203,-0.602634 -1.94e-4,-0.143829 -0.02414,-0.282169 -0.07156,-0.415018 -0.04752,-0.132849 -0.117563,-0.242318 -0.210136,-0.328455 -0.06252,-0.05599 -0.137203,-0.09986 -0.223955,-0.131619 -0.0868,-0.03171 -0.184532,-0.04794 -0.293244,-0.04846 -0.09044,9.9e-5 -0.178567,0.01136 -0.264373,0.03408 -0.08581,0.02272 -0.16702,0.05589 -0.243596,0.09986 -0.05812,0.03455 -0.116237,0.07767 -0.174308,0.129868 -0.05812,0.05225 -0.113919,0.115149 -0.167399,0.188743 h -0.009 z m 0.517208,0.461778 c 0.07572,0.0015 0.137866,0.01562 0.186424,0.04307 0.04861,0.02745 0.08647,0.05916 0.113729,0.09527 0.0426,0.05963 0.07052,0.122768 0.08367,0.189358 0.01325,0.06659 0.01893,0.125088 0.01799,0.175492 -7.71e-4,0.151638 -0.03171,0.305548 -0.09234,0.461778 -0.07743,0.188648 -0.173077,0.320456 -0.286901,0.395424 -0.113823,0.07492 -0.224428,0.110936 -0.33191,0.107954 -0.06214,5.83e-4 -0.117941,-0.01089 -0.167398,-0.03455 -0.04946,-0.02366 -0.09371,-0.0629 -0.132755,-0.117752 -0.04259,-0.06455 -0.06957,-0.129394 -0.0814,-0.194564 -0.01183,-0.06512 -0.01704,-0.117279 -0.01562,-0.156419 -0.0042,-0.04993 0.0066,-0.141699 0.03171,-0.275353 0.02508,-0.133654 0.09016,-0.27275 0.194517,-0.417337 0.04307,-0.06186 0.103506,-0.12168 0.181266,-0.179514 0.07771,-0.05779 0.177384,-0.08879 0.299017,-0.09295 z m 1.711265,-0.461778 -0.484883,2.392081 h 0.62804 l 0.235504,-1.149863 c 0.0194,-0.102275 0.04752,-0.20138 0.08429,-0.297266 0.03692,-0.09593 0.09026,-0.184626 0.160489,-0.266124 0.07757,-0.08898 0.163754,-0.152301 0.258599,-0.189927 0.09484,-0.03739 0.190306,-0.05589 0.286286,-0.05481 0.02035,2.88e-4 0.04591,0.002 0.07677,0.0052 0.03124,0.0031 0.05784,0.0062 0.08022,0.0085 l 0.115432,-0.457187 c -0.03502,-0.0071 -0.07023,-0.01373 -0.106203,-0.01893 -0.03597,-0.0052 -0.07137,-0.0085 -0.106204,-0.0085 -0.155945,-0.01136 -0.301242,0.03597 -0.435795,0.141983 -0.1346,0.106251 -0.237159,0.243596 -0.307678,0.412178 h -0.01373 l 0.101613,-0.517213 z m 3.683828,1.385375 0.03218,-0.143166 c 0.01231,-0.054 0.02272,-0.113445 0.03171,-0.178379 0.009,-0.06493 0.01373,-0.130151 0.0142,-0.1957 -0.0023,-0.147095 -0.02414,-0.27081 -0.0664,-0.371145 -0.04212,-0.100335 -0.09073,-0.181361 -0.146054,-0.243029 -0.06101,-0.07473 -0.147994,-0.141131 -0.260918,-0.199155 -0.112924,-0.05802 -0.259972,-0.0886 -0.441001,-0.09177 -0.222346,0.0025 -0.423016,0.04496 -0.602062,0.126981 -0.179041,0.08216 -0.332383,0.189122 -0.460074,0.32093 -0.146053,0.156229 -0.249938,0.321734 -0.311701,0.496426 -0.06176,0.174734 -0.09177,0.349421 -0.09006,0.524132 0.0042,0.194896 0.03739,0.352308 0.09986,0.47219 0.06242,0.119881 0.129205,0.210325 0.200291,0.271283 0.107719,0.09139 0.236261,0.156844 0.38558,0.196268 0.14932,0.03928 0.29632,0.05869 0.441001,0.05774 0.139286,-3.83e-4 0.278619,-0.01373 0.417905,-0.03928 0.139333,-0.02556 0.27398,-0.06195 0.404085,-0.108522 l 0.09697,-0.471007 c -0.06408,0.02508 -0.126412,0.04638 -0.187039,0.06465 -0.06063,0.01798 -0.122958,0.03502 -0.18704,0.05078 -0.06659,0.01609 -0.133133,0.02887 -0.199723,0.03739 -0.06659,0.0085 -0.135452,0.01325 -0.206681,0.01325 -0.05405,0.0019 -0.123715,-0.0042 -0.208952,-0.01846 -0.08524,-0.0142 -0.166452,-0.04809 -0.243597,-0.101613 -0.04917,-0.03739 -0.08822,-0.08495 -0.117183,-0.142599 -0.02887,-0.0576 -0.04354,-0.122484 -0.04449,-0.194565 1.89e-4,-0.02082 0.0021,-0.04259 0.0057,-0.06522 0.0037,-0.02272 0.008,-0.04543 0.01278,-0.06872 z M 15.26505,44.596183 c 0.02792,-0.101519 0.06233,-0.183632 0.103932,-0.246484 0.04165,-0.06285 0.0762,-0.106866 0.103932,-0.132186 0.05291,-0.05395 0.112167,-0.09726 0.177763,-0.129868 0.0656,-0.03266 0.138718,-0.04936 0.219365,-0.05022 0.08032,0.0011 0.145912,0.01373 0.196836,0.03881 0.05088,0.02461 0.08997,0.05495 0.117184,0.09063 0.02934,0.03975 0.05012,0.08368 0.06176,0.131619 0.01183,0.0479 0.01751,0.09641 0.01656,0.145438 0,0.02792 -0.0012,0.05514 -0.0035,0.0814 -0.0023,0.0265 -0.0057,0.04993 -0.01041,0.07099 z m 3.843375,-0.891259 c -0.111505,-0.03455 -0.226748,-0.06011 -0.345777,-0.07677 -0.11903,-0.01656 -0.237728,-0.02508 -0.356142,-0.02461 -0.118698,-0.002 -0.240331,0.01041 -0.364803,0.03644 -0.124472,0.0265 -0.246105,0.0788 -0.364803,0.157555 -0.110842,0.08235 -0.193949,0.176248 -0.24937,0.281695 -0.05542,0.105446 -0.08316,0.213212 -0.08316,0.323249 -10e-5,0.05906 0.008,0.118698 0.02461,0.178946 0.01656,0.06025 0.04212,0.112972 0.07677,0.15817 0.04974,0.06252 0.107245,0.112971 0.172605,0.15126 0.06531,0.03834 0.117089,0.06332 0.155282,0.07506 l 0.09234,0.03692 c 0.07099,0.02698 0.128731,0.05263 0.173172,0.07677 0.04449,0.02414 0.07908,0.05088 0.103932,0.08022 0.01609,0.02082 0.02887,0.04165 0.03739,0.06351 0.0085,0.02177 0.01325,0.04543 0.01325,0.07042 8.66e-4,0.03029 -0.0052,0.06314 -0.01893,0.09811 -0.01373,0.03502 -0.03976,0.07005 -0.07795,0.105068 -0.04908,0.0426 -0.102181,0.07147 -0.159353,0.08599 -0.05712,0.01467 -0.114865,0.0213 -0.173172,0.02035 -0.119503,-0.0013 -0.237255,-0.01751 -0.353255,-0.0479 -0.116048,-0.03076 -0.219933,-0.06858 -0.311701,-0.113729 l -0.1293,0.489502 c 0.123715,0.04402 0.2515,0.07823 0.383308,0.102181 0.131808,0.02414 0.259546,0.03597 0.383308,0.03644 0.25079,-0.0033 0.454584,-0.04496 0.611301,-0.125276 0.156702,-0.08013 0.271567,-0.178474 0.344593,-0.294995 0.08699,-0.129299 0.130057,-0.267828 0.1293,-0.415633 2.84e-4,-0.06285 -0.0071,-0.123052 -0.02272,-0.18065 -0.01515,-0.0576 -0.04023,-0.109753 -0.07445,-0.156419 -0.04544,-0.06138 -0.101045,-0.110652 -0.166263,-0.147757 -0.06522,-0.03692 -0.129867,-0.06791 -0.193949,-0.09234 l -0.05542,-0.02319 c -0.04354,-0.01798 -0.08349,-0.03502 -0.120071,-0.05135 -0.03644,-0.01609 -0.07199,-0.03455 -0.106203,-0.05481 -0.03739,-0.02366 -0.06659,-0.04908 -0.08775,-0.0762 -0.0213,-0.02698 -0.03218,-0.0664 -0.03218,-0.117752 0.0013,-0.05514 0.01278,-0.09958 0.03408,-0.133322 0.0213,-0.0336 0.04544,-0.05859 0.07218,-0.07445 0.04591,-0.02982 0.09967,-0.05107 0.161624,-0.06408 0.06195,-0.01278 0.12045,-0.0194 0.175492,-0.01893 0.135358,0.004 0.25486,0.0213 0.358461,0.05253 0.103601,0.03124 0.168866,0.05206 0.195701,0.0629 z m 2.092524,0 c -0.111504,-0.03455 -0.226748,-0.06011 -0.345777,-0.07677 -0.11903,-0.01656 -0.237728,-0.02508 -0.356142,-0.02461 -0.118746,-0.002 -0.240331,0.01041 -0.364803,0.03644 -0.124472,0.0265 -0.246105,0.0788 -0.364803,0.157555 -0.110842,0.08235 -0.193949,0.176248 -0.24937,0.281695 -0.05542,0.105446 -0.08315,0.213212 -0.08315,0.323249 -9.5e-5,0.05906 0.008,0.118698 0.02461,0.178946 0.01656,0.06025 0.04212,0.112972 0.07677,0.15817 0.04974,0.06252 0.107245,0.112971 0.172605,0.15126 0.06531,0.03834 0.117089,0.06332 0.155282,0.07506 l 0.09234,0.03692 c 0.07099,0.02698 0.128732,0.05263 0.173172,0.07677 0.04449,0.02414 0.07908,0.05088 0.103932,0.08022 0.01609,0.02082 0.02887,0.04165 0.03739,0.06351 0.0085,0.02177 0.01325,0.04543 0.01325,0.07042 8.57e-4,0.03029 -0.0052,0.06314 -0.01893,0.09811 -0.01373,0.03502 -0.03976,0.07005 -0.07795,0.105068 -0.04908,0.0426 -0.102181,0.07147 -0.159305,0.08599 -0.05713,0.01467 -0.114865,0.0213 -0.173173,0.02035 -0.119503,-0.0013 -0.237254,-0.01751 -0.353255,-0.0479 -0.116048,-0.03076 -0.219932,-0.06858 -0.311701,-0.113729 l -0.1293,0.489502 c 0.123715,0.04402 0.251501,0.07823 0.383309,0.102181 0.131808,0.02414 0.259545,0.03597 0.383308,0.03644 0.25079,-0.0033 0.454583,-0.04496 0.611295,-0.125276 0.156703,-0.08013 0.271615,-0.178474 0.344594,-0.294995 0.08694,-0.129299 0.130057,-0.267828 0.1293,-0.415633 2.84e-4,-0.06285 -0.0071,-0.123052 -0.02272,-0.18065 -0.01514,-0.0576 -0.04023,-0.109753 -0.07445,-0.156419 -0.04543,-0.06138 -0.101045,-0.110652 -0.166263,-0.147757 -0.06522,-0.03692 -0.129867,-0.06791 -0.193949,-0.09234 l -0.05542,-0.02319 c -0.04354,-0.01798 -0.08349,-0.03502 -0.120071,-0.05135 -0.03644,-0.01609 -0.07199,-0.03455 -0.106204,-0.05481 -0.03739,-0.02366 -0.06659,-0.04908 -0.08774,-0.0762 -0.0213,-0.02698 -0.03218,-0.0664 -0.03218,-0.117752 0.0013,-0.05514 0.01278,-0.09958 0.03408,-0.133322 0.0213,-0.0336 0.04543,-0.05859 0.07218,-0.07445 0.04591,-0.02982 0.09967,-0.05107 0.161624,-0.06408 0.06195,-0.01278 0.12045,-0.0194 0.175492,-0.01893 0.135357,0.004 0.25486,0.0213 0.358461,0.05253 0.1036,0.03124 0.168865,0.05206 0.1957,0.0629 z m 1.54957,-0.905116 -0.115433,0.572624 h 0.932822 l -0.540299,2.659923 h 0.655746 l 0.540299,-2.659923 h 0.932818 l 0.115432,-0.572624 z m 2.323645,2.295111 c -5.78e-4,0.147852 0.02272,0.282736 0.06924,0.404652 0.04686,0.12187 0.120639,0.23025 0.221684,0.325001 0.119787,0.105162 0.24388,0.173078 0.372328,0.203746 0.128448,0.03076 0.249086,0.04449 0.361916,0.04118 0.197404,0.0027 0.389082,-0.02698 0.574933,-0.0895 0.185857,-0.06242 0.359029,-0.174261 0.519513,-0.335365 0.119598,-0.122389 0.2152,-0.269011 0.286902,-0.439865 0.0717,-0.170853 0.108428,-0.365986 0.110226,-0.585322 -0.0035,-0.188743 -0.03218,-0.343458 -0.08661,-0.464096 -0.05429,-0.120639 -0.113113,-0.210704 -0.176627,-0.270148 -0.121018,-0.118792 -0.24956,-0.196363 -0.38558,-0.232616 -0.136068,-0.03644 -0.259972,-0.05263 -0.37176,-0.04908 -0.14506,-0.0052 -0.310944,0.01656 -0.497581,0.06465 -0.186661,0.04809 -0.368684,0.152774 -0.546073,0.31402 -0.134033,0.131524 -0.242366,0.293338 -0.325001,0.485456 -0.08263,0.192103 -0.125182,0.401292 -0.127548,0.627463 z m 1.426938,-1.039031 c 0.134695,-7.71e-4 0.243975,0.05154 0.327888,0.157034 0.04259,0.0584 0.07146,0.120544 0.08599,0.186424 0.01467,0.06593 0.0213,0.131524 0.02035,0.196837 4.78e-4,0.07676 -0.0076,0.158737 -0.02366,0.245915 -0.01609,0.08718 -0.04354,0.17606 -0.08254,0.266692 -0.07833,0.174735 -0.175681,0.30323 -0.29206,0.38558 -0.116427,0.08235 -0.239148,0.123147 -0.368306,0.12239 -0.09139,-0.0019 -0.163754,-0.01893 -0.217045,-0.05078 -0.05329,-0.03218 -0.09333,-0.06735 -0.120071,-0.106203 -0.04685,-0.06475 -0.07572,-0.136115 -0.08718,-0.214159 -0.01136,-0.07804 -0.01609,-0.134411 -0.0142,-0.16915 -3.83e-4,-0.114486 0.01656,-0.231859 0.05078,-0.352119 0.03408,-0.12026 0.08812,-0.235314 0.161624,-0.345209 0.09082,-0.126602 0.183964,-0.212786 0.279377,-0.258599 0.09546,-0.04591 0.188554,-0.06735 0.279376,-0.06465 z m 1.996932,-1.486974 -0.706548,3.463441 h 0.62804 l 0.706543,-3.463441 z m 1.226652,0 -0.706548,3.463441 h 0.62804 l 0.706543,-3.463441 z m 2.410799,0.230913 -0.655746,3.232547 h 0.655746 l 0.272466,-1.329959 h 0.249371 c 0.02934,-0.0015 0.06858,0.0025 0.117183,0.0123 0.04861,0.0095 0.09574,0.03313 0.141416,0.07099 0.03597,0.03502 0.0612,0.07483 0.0762,0.12007 0.01514,0.04543 0.0265,0.09447 0.03455,0.147758 l 0.203178,0.979 h 0.720396 l -0.258599,-1.191422 c -0.01089,-0.05291 -0.02366,-0.101802 -0.03834,-0.146621 -0.0142,-0.04496 -0.03408,-0.08675 -0.05888,-0.125845 -0.04685,-0.06389 -0.100808,-0.106961 -0.161624,-0.1293 l 0.0046,-0.009 c 0.113729,-0.02603 0.216478,-0.06522 0.308246,-0.117751 0.09177,-0.05253 0.16915,-0.114865 0.232049,-0.18704 0.07937,-0.0895 0.134221,-0.181834 0.164511,-0.277057 0.03029,-0.09527 0.04496,-0.196837 0.04307,-0.304791 0.0023,-0.101187 -0.01278,-0.202421 -0.04543,-0.303608 -0.03266,-0.101187 -0.09764,-0.190873 -0.194565,-0.269012 -0.106014,-0.07582 -0.223009,-0.123904 -0.350936,-0.144302 -0.127974,-0.02035 -0.24033,-0.02934 -0.337116,-0.0265 z m 0.554152,0.507974 h 0.350983 c 0.05793,-1.89e-4 0.111788,0.0037 0.161625,0.01136 0.04984,0.008 0.09447,0.02082 0.133937,0.03928 0.04591,0.02035 0.0859,0.05367 0.120639,0.100429 0.03455,0.04686 0.05301,0.110274 0.05485,0.190495 0.0031,0.03786 -0.0066,0.0939 -0.02934,0.168534 -0.02272,0.07464 -0.07762,0.14932 -0.164512,0.223955 -0.08718,0.069 -0.171468,0.112309 -0.252825,0.129868 -0.0814,0.01751 -0.149509,0.02508 -0.204362,0.02272 h -0.350983 z m 1.800885,1.787137 c -5.77e-4,0.147852 0.02272,0.282736 0.06924,0.404652 0.04685,0.12187 0.120639,0.23025 0.221683,0.325001 0.119787,0.105162 0.243881,0.173077 0.372329,0.203746 0.128447,0.03076 0.249086,0.04449 0.361915,0.04118 0.197405,0.0027 0.389035,-0.02698 0.574929,-0.0895 0.185857,-0.06243 0.359029,-0.174261 0.519518,-0.335365 0.119597,-0.12239 0.2152,-0.269011 0.286901,-0.439865 0.0717,-0.170853 0.108428,-0.365986 0.110274,-0.585322 -0.0035,-0.188743 -0.03218,-0.343458 -0.08656,-0.464096 -0.05429,-0.120639 -0.11316,-0.210704 -0.176627,-0.270148 -0.121017,-0.118793 -0.24956,-0.196363 -0.38558,-0.232616 -0.136067,-0.03644 -0.259972,-0.05263 -0.37176,-0.04908 -0.14506,-0.0052 -0.310944,0.01656 -0.497581,0.06465 -0.186661,0.04809 -0.368684,0.152774 -0.546068,0.31402 -0.134033,0.131524 -0.242366,0.293338 -0.325001,0.485456 -0.08263,0.192103 -0.125182,0.401292 -0.127548,0.627463 z m 1.426939,-1.039031 c 0.134695,-7.71e-4 0.243975,0.05154 0.327887,0.157034 0.04259,0.0584 0.07147,0.120544 0.08599,0.186424 0.01467,0.06593 0.0213,0.131524 0.02035,0.196837 4.73e-4,0.07677 -0.0076,0.158737 -0.02366,0.245915 -0.01609,0.08718 -0.04354,0.17606 -0.08254,0.266692 -0.07833,0.174735 -0.175681,0.30323 -0.292107,0.38558 -0.116427,0.08235 -0.239148,0.123147 -0.368258,0.12239 -0.09139,-0.0019 -0.163754,-0.01893 -0.217045,-0.05078 -0.05329,-0.03218 -0.09333,-0.06735 -0.120071,-0.106204 -0.04686,-0.06474 -0.07573,-0.136114 -0.08718,-0.214158 -0.01136,-0.07804 -0.01609,-0.134411 -0.0142,-0.16915 -3.84e-4,-0.114486 0.01656,-0.231859 0.05078,-0.352119 0.03408,-0.12026 0.08812,-0.235314 0.161625,-0.345209 0.09082,-0.126602 0.183963,-0.212786 0.279376,-0.258599 0.09541,-0.04591 0.188554,-0.06735 0.279376,-0.06465 z m 3.373068,-0.415633 -0.254008,1.26531 c -0.01467,0.08282 -0.0407,0.161908 -0.07738,0.237254 -0.03692,0.0753 -0.09253,0.148657 -0.167398,0.219932 -0.07639,0.07071 -0.154526,0.120923 -0.234368,0.150645 -0.07984,0.02982 -0.160299,0.04401 -0.241277,0.04307 -0.06437,-4.78e-4 -0.1169,-0.0085 -0.157602,-0.02461 -0.0407,-0.01609 -0.07128,-0.03692 -0.09177,-0.0629 -0.02272,-0.02556 -0.03834,-0.05514 -0.04733,-0.08831 -0.009,-0.03313 -0.01325,-0.06839 -0.01278,-0.105635 3.84e-4,-0.03266 0.0031,-0.06541 0.008,-0.09811 0.0052,-0.03266 0.0099,-0.06313 0.01515,-0.0912 l 0.290924,-1.44541 h -0.628036 l -0.31402,1.547009 c -0.01846,0.07464 -0.02792,0.156229 -0.02792,0.244732 -0.0015,0.09149 0.0142,0.180982 0.04685,0.268396 0.03266,0.08746 0.09092,0.164228 0.174924,0.230345 0.04307,0.03597 0.10114,0.06782 0.173741,0.09527 0.07265,0.02745 0.164038,0.04165 0.27417,0.04307 0.209331,-0.0052 0.385201,-0.04927 0.527601,-0.132755 0.142362,-0.08349 0.255901,-0.176248 0.340571,-0.27824 h 0.01372 l -0.07388,0.374032 h 0.604954 l 0.484878,-2.392086 z m 1.303806,0.461778 -0.24937,1.228365 c -0.0071,0.03029 -0.01373,0.06531 -0.01893,0.1045 -0.0052,0.03928 -0.0085,0.07975 -0.0085,0.121822 -0.0011,0.06801 0.009,0.135168 0.03076,0.201427 0.0213,0.06631 0.06053,0.125371 0.117184,0.177195 0.05443,0.04591 0.122153,0.07984 0.203178,0.101613 0.08102,0.02177 0.167209,0.03266 0.258599,0.03218 0.07293,-4.83e-4 0.149888,-0.0066 0.230913,-0.01798 0.08102,-0.01136 0.15798,-0.02556 0.230912,-0.04212 l 0.09234,-0.44332 c -0.03124,0.0099 -0.07137,0.01893 -0.120071,0.02792 -0.0487,0.0085 -0.09792,0.01325 -0.147757,0.01373 -0.02272,4.82e-4 -0.05234,-0.0027 -0.08888,-0.0099 -0.03644,-0.0071 -0.06848,-0.02083 -0.09579,-0.04118 -0.02272,-0.01704 -0.03834,-0.03976 -0.04733,-0.06872 -0.009,-0.02887 -0.01325,-0.05992 -0.01278,-0.09295 4.78e-4,-0.03786 0.0042,-0.0753 0.01089,-0.112546 0.0071,-0.03739 0.01373,-0.06896 0.0213,-0.09527 l 0.221636,-1.085213 h 0.554152 l 0.09234,-0.461777 h -0.554147 l 0.138528,-0.674214 -0.669599,0.198541 -0.09697,0.475644 h -0.471007 l -0.09234,0.461778 z m 3.605321,0.923583 0.03218,-0.143166 c 0.0123,-0.054 0.02272,-0.113445 0.03171,-0.178379 0.009,-0.06493 0.01373,-0.130151 0.0142,-0.1957 -0.0023,-0.147095 -0.02414,-0.27081 -0.0664,-0.371145 -0.04212,-0.100335 -0.09073,-0.181361 -0.146054,-0.243029 -0.06101,-0.07473 -0.147994,-0.141131 -0.260918,-0.199155 -0.112972,-0.05802 -0.259972,-0.0886 -0.441001,-0.09177 -0.222346,0.0025 -0.423016,0.04496 -0.602062,0.126981 -0.179041,0.08216 -0.332383,0.189122 -0.460074,0.32093 -0.146054,0.156229 -0.249938,0.321734 -0.311701,0.496426 -0.06176,0.174734 -0.09182,0.349421 -0.09007,0.524132 0.0042,0.194896 0.03739,0.352308 0.09986,0.47219 0.06247,0.119881 0.129205,0.210325 0.200291,0.271283 0.107718,0.09139 0.236261,0.156844 0.38558,0.196268 0.149319,0.03928 0.29632,0.05869 0.441001,0.05774 0.139333,-3.83e-4 0.278619,-0.01373 0.417904,-0.03928 0.139334,-0.02556 0.273981,-0.06195 0.404085,-0.108522 l 0.09698,-0.471007 c -0.06408,0.02508 -0.126412,0.04638 -0.187039,0.06465 -0.06063,0.01798 -0.122958,0.03502 -0.18704,0.05078 -0.06659,0.01609 -0.133133,0.02887 -0.199723,0.03739 -0.06659,0.0085 -0.135453,0.01325 -0.206681,0.01325 -0.05405,0.0019 -0.123715,-0.0042 -0.208952,-0.01846 -0.08524,-0.0142 -0.166452,-0.04809 -0.243597,-0.101613 -0.04917,-0.03739 -0.08822,-0.08495 -0.117183,-0.142599 -0.02887,-0.0576 -0.04354,-0.122484 -0.04449,-0.194565 1.95e-4,-0.02082 0.0021,-0.04259 0.0057,-0.06522 0.0037,-0.02272 0.008,-0.04543 0.01278,-0.06872 z m -1.542381,-0.429452 c 0.02792,-0.101519 0.06233,-0.183632 0.103932,-0.246484 0.04165,-0.06285 0.0762,-0.106866 0.103884,-0.132186 0.05291,-0.05395 0.112167,-0.09726 0.177811,-0.129868 0.0656,-0.03266 0.138718,-0.04936 0.219365,-0.05022 0.08031,0.0011 0.145911,0.01373 0.196836,0.03881 0.05088,0.02461 0.08992,0.05495 0.117184,0.09063 0.02934,0.03975 0.05012,0.08368 0.06176,0.131619 0.01183,0.0479 0.01751,0.09641 0.01656,0.145438 0,0.02792 -0.0012,0.05514 -0.0035,0.0814 -0.0023,0.0265 -0.0057,0.04993 -0.01041,0.07099 z"
     id="text2413"
     inkscape:connector-curvature="0" />
  <path
     sodipodi:type="arc"
     style="fill:#01478c;fill-opacity:1;stroke:none;stroke-width:5.84129953;stroke-miterlimit:4;stroke-dasharray:none;stroke-opacity:1"
     id="path3244"
     sodipodi:cx="39.589458"
     sodipodi:cy="30.342646"
     sodipodi:rx="3.8873904"
     sodipodi:ry="3.5763991"
     d="m 43.476849,30.342646 a 3.8873904,3.5763991 0 0 1 -3.861717,3.576321 3.8873904,3.5763991 0 0 1 -3.912725,-3.529083 3.8873904,3.5763991 0 0 1 3.810035,-3.622935 3.8873904,3.5763991 0 0 1 3.96305,3.481228"
     sodipodi:start="0"
     sodipodi:end="6.2567677"
     sodipodi:open="true" />
  <path
     style="font-style:italic;font-variant:normal;font-weight:bold;font-stretch:normal;font-size:41.76829147px;line-height:100%;font-family:'FreeSetC Cyrillic';-inkscape-font-specification:'FreeSetC Cyrillic Bold Italic';text-align:start;writing-mode:lr-tb;text-anchor:start;fill:#01478c;fill-opacity:1;stroke:none;stroke-width:0.43980804px;stroke-linecap:butt;stroke-linejoin:miter;stroke-opacity:1"
     d="m 34.937354,25.605594 -3.540978,16.008803 h 3.540978 l 1.471252,-6.586476 h 1.346561 c 0.159448,-0.0071 0.370388,0.01278 0.632769,0.06001 0.262338,0.04733 0.516895,0.16437 0.763677,0.351646 0.193239,0.172463 0.330395,0.370672 0.411468,0.594613 0.08103,0.223955 0.143356,0.467883 0.18704,0.73183 l 1.097201,4.848381 h 3.890082 L 43.340963,35.714013 C 43.281709,35.451959 43.213131,35.209934 43.135229,34.9879 43.05728,34.765885 42.951313,34.558164 42.817281,34.364702 42.563746,34.048362 42.272826,33.83489 41.944508,33.724347 l 0.02508,-0.04591 c 0.61405,-0.128637 1.168884,-0.323013 1.664506,-0.583183 0.495602,-0.260114 0.913289,-0.568876 1.253056,-0.92622 0.428601,-0.443083 0.724698,-0.900488 0.888362,-1.372185 0.16366,-0.471669 0.241561,-0.974811 0.2338,-1.509403 0.01278,-0.501216 -0.0691,-1.002441 -0.246247,-1.503685 -0.177195,-0.501212 -0.527317,-0.945265 -1.050446,-1.33216 -0.572515,-0.375405 -1.204238,-0.613658 -1.895172,-0.714679 -0.690962,-0.100998 -1.297748,-0.144823 -1.820356,-0.131524 z m 2.992368,2.515668 h 1.895172 c 0.312742,-9.18e-4 0.603657,0.01798 0.872777,0.05717 0.269106,0.03928 0.510147,0.103885 0.72315,0.194375 0.246768,0.100051 0.463908,0.265888 0.651468,0.497421 0.187513,0.231575 0.286238,0.546025 0.29613,0.943376 0.01704,0.186755 -0.03597,0.465043 -0.158974,0.834744 -0.123147,0.369725 -0.419277,0.739464 -0.888362,1.10918 -0.470676,0.341612 -0.925771,0.556031 -1.365266,0.643213 -0.439534,0.08718 -0.807328,0.124378 -1.103439,0.111505 h -1.895172 z"
     id="text2425"
     inkscape:connector-curvature="0" />
  <path
     id="text2417"
     style="font-style:italic;font-variant:normal;font-weight:bold;font-stretch:normal;font-size:41.85098267px;line-height:100%;font-family:'FreeSetC Cyrillic';-inkscape-font-specification:'FreeSetC Cyrillic Bold Italic';text-align:start;writing-mode:lr-tb;text-anchor:start;fill:#01478c;fill-opacity:1;stroke:none;stroke-width:0.43980804px;stroke-linecap:butt;stroke-linejoin:miter;stroke-opacity:1"
     d="m 7.8485763,25.585579 -0.6135958,2.835846 h 3.6726725 7.216287 l 0.653649,-2.835846 z M 6.3045107,32.034843 4.135855,41.594387 h 10.929013 l 0.653644,-2.835846 H 8.5022304 l 0.9673997,-4.093682 h 6.5626379 l 0.601347,-2.630016 h -6.562628 z"
     inkscape:connector-curvature="0" />
  <text
     xml:space="preserve"
     style="font-style:italic;font-variant:normal;font-weight:bold;font-stretch:normal;font-size:5.27769661px;line-height:0%;font-family:'FreeSetC Cyrillic';-inkscape-font-specification:'FreeSetC Cyrillic Bold Italic';text-align:start;writing-mode:lr-tb;text-anchor:start;fill:#000000;fill-opacity:1;stroke:none;stroke-width:0.43980804px;stroke-linecap:butt;stroke-linejoin:miter;stroke-opacity:1"
     x="23.986544"
     y="35.62949"
     id="text3253"><tspan
       sodipodi:role="line"
       id="tspan3255"
       x="23.986544"
       y="35.62949"
       style="font-size:17.5923214px;line-height:1;stroke-width:0.43980804px"> </tspan></text>
  <path
     style="font-style:italic;font-variant:normal;font-weight:bold;font-stretch:normal;font-size:42.11116791px;line-height:100%;font-family:'FreeSetC Cyrillic';-inkscape-font-specification:'FreeSetC Cyrillic Bold Italic';text-align:start;writing-mode:lr-tb;text-anchor:start;fill:#01478c;fill-opacity:1;stroke:none;stroke-width:0.43980804px;stroke-linecap:butt;stroke-linejoin:miter;stroke-opacity:1"
     d="m 20.321323,25.585584 -0.701772,2.835845 h 4.79067 l -3.284268,13.172963 h 3.986035 L 28.39627,28.421429 h 3.911053 l 0.701772,-2.835845 z"
     id="text2421"
     sodipodi:nodetypes="ccccccccc"
     inkscape:connector-curvature="0" />
  <path
     style="fill:#fdd30b;fill-opacity:1;stroke:none;stroke-width:5.32167768;stroke-miterlimit:4;stroke-dasharray:none;stroke-opacity:1"
     d="m 19.582801,27.794866 -17.5723819,0.01467 8.8337579,1.888698 10.618164,1.888702 20.05537,0.01467 h 0.3126 v -0.04401 c 0.824915,-0.160915 1.454171,-0.924554 1.454171,-1.859421 0,-0.934857 -0.629256,-1.698482 -1.454171,-1.859416 v -0.04401 h -0.3126 -4.348931 -17.572382 z"
     id="path3238"
     sodipodi:nodetypes="cccccccscccccc"
     inkscape:connector-curvature="0" />
  <rect
     style="opacity:1;fill:#ffffff;fill-opacity:1;stroke:#000000;stroke-opacity:1"
     id="rect823"
     width="47.994873"
     height="23.246136"
     x="0.17677669"
     y="0.093515106"
     ry="11.216125" />
  <rect
     style="opacity:1;fill:#ffffff;fill-opacity:1;stroke:none"
     id="rect825"
     width="0.61871845"
     height="1.2374369"
     x="47.818096"
     y="1.3309519"
     ry="0.30935922" />
  <text
     xml:space="preserve"
     style="font-style:normal;font-variant:normal;font-weight:normal;font-stretch:normal;font-size:18.66666667px;line-height:125%;font-family:'Roadgeek 2000 Series D';-inkscape-font-specification:'Roadgeek 2000 Series D, Normal';font-variant-ligatures:normal;font-variant-caps:normal;font-variant-numeric:normal;font-feature-settings:normal;text-align:center;letter-spacing:0px;word-spacing:0px;writing-mode:lr;text-anchor:middle;fill:#000000;fill-opacity:1;stroke:none;stroke-width:1px;stroke-linecap:butt;stroke-linejoin:miter;stroke-opacity:1;"
     x="24.306795"
     y="17.771185"
     id="text829"><tspan
       sodipodi:role="line"
       id="tspan833">%num%</tspan></text>
</svg>
