<?xml version="1.0" encoding="UTF-8" standalone="no"?>
<!-- Created with Inkscape (http://www.inkscape.org/) -->

<svg
   xmlns:dc="http://purl.org/dc/elements/1.1/"
   xmlns:cc="http://creativecommons.org/ns#"
   xmlns:rdf="http://www.w3.org/1999/02/22-rdf-syntax-ns#"
   xmlns:svg="http://www.w3.org/2000/svg"
   xmlns="http://www.w3.org/2000/svg"
   xmlns:sodipodi="http://sodipodi.sourceforge.net/DTD/sodipodi-0.dtd"
   xmlns:inkscape="http://www.inkscape.org/namespaces/inkscape"
   version="1.1"
   width="47.999989"
   height="31.92905"
   id="svg2"
   sodipodi:docname="CA:ON:tertiary_3.svg"
   inkscape:version="0.92.3 (2405546, 2018-03-11)">
  <metadata
     id="metadata18">
    <rdf:RDF>
      <cc:Work
         rdf:about="">
        <dc:format>image/svg+xml</dc:format>
        <dc:type
           rdf:resource="http://purl.org/dc/dcmitype/StillImage" />
        <dc:title></dc:title>
      </cc:Work>
    </rdf:RDF>
  </metadata>
  <sodipodi:namedview
     pagecolor="#ffffff"
     bordercolor="#666666"
     borderopacity="1"
     objecttolerance="10"
     gridtolerance="10"
     guidetolerance="10"
     inkscape:pageopacity="0"
     inkscape:pageshadow="2"
     inkscape:window-width="640"
     inkscape:window-height="480"
     id="namedview16"
     showgrid="false"
     fit-margin-top="0"
     fit-margin-left="0"
     fit-margin-right="0"
     fit-margin-bottom="0"
     inkscape:zoom="11.317073"
     inkscape:cx="30.779841"
     inkscape:cy="15.964525"
     inkscape:current-layer="svg2" />
  <defs
     id="defs6" />
  <path
     d="M 1.0110851,0.05321508 0.05321508,1.0110851 V 30.917965 l 0.95787002,0.95787 H 46.988905 l 0.95787,-0.95787 V 1.0110851 l -0.95787,-0.95787002 z"
     id="path2816"
     style="fill:#ffffff;fill-opacity:1;stroke:#000000;stroke-width:0.10643016px;stroke-linecap:butt;stroke-linejoin:miter;stroke-opacity:1"
     inkscape:connector-curvature="0" />
  <path
     d="M 0.47893508,1.1707351 1.1707251,0.47893508 H 46.836705 l 0.68435,0.69180002 V 30.758315 l -0.69179,0.6918 H 1.1707251 l -0.69179002,-0.6918 z"
     id="path2818"
     style="color:#000000;font-style:normal;font-variant:normal;font-weight:normal;font-stretch:normal;font-size:medium;line-height:normal;font-family:'Andale Mono';-inkscape-font-specification:'Andale Mono';text-indent:0;text-align:start;text-decoration:none;text-decoration-line:none;letter-spacing:normal;word-spacing:normal;text-transform:none;writing-mode:lr-tb;direction:ltr;text-anchor:start;display:inline;overflow:visible;visibility:visible;fill:none;stroke:#000000;stroke-width:0.31929046;stroke-miterlimit:4;stroke-dasharray:none;stroke-opacity:1;marker:none;enable-background:accumulate"
     inkscape:connector-curvature="0" />
  <path
     d="m 17.236025,26.698065 c 0,-0.42913 -0.0868,-0.86337 -0.22989,-1.16478 -0.21456,-0.41891 -0.51597,-0.61303 -0.95021,-0.61303 -0.39336,0 -0.66923,0.1226 -0.87357,0.38314 -0.22989,0.32696 -0.37294,0.83271 -0.37294,1.39467 0,0.40869 0.0971,0.86336 0.24011,1.15455 0.20435,0.41891 0.50576,0.61304 0.98597,0.61304 0.3576,0 0.63347,-0.12261 0.8276,-0.38315 0.24011,-0.30141 0.37293,-0.84293 0.37293,-1.38444 m -0.54152,0 c 0,0.26564 -0.0613,0.60282 -0.13282,0.78162 -0.1175,0.30141 -0.27587,0.43423 -0.52619,0.43423 -0.21967,0 -0.36271,-0.0868 -0.47,-0.26565 -0.13282,-0.21456 -0.20434,-0.58749 -0.20434,-0.9502 0,-0.28609 0.046,-0.59772 0.13282,-0.80206 0.11239,-0.2912 0.27587,-0.42402 0.52108,-0.42402 0.0102,0 0.0204,0 0.0307,0 0.20434,0.0153 0.33717,0.0868 0.44445,0.26565 0.13282,0.22989 0.20434,0.57728 0.20434,0.96043"
     id="path2914"
     style="font-style:normal;font-variant:normal;font-weight:normal;font-stretch:normal;font-size:48px;font-family:'Roadgeek 2005 Series D';-inkscape-font-specification:'Roadgeek 2005 Series D';text-align:center;text-anchor:middle;fill:#000000;fill-opacity:1;stroke:none;stroke-width:0.10643016"
     inkscape:connector-curvature="0" />
  <path
     d="m 20.323565,28.404345 v -3.42279 h -0.54152 v 2.1865 l -1.24651,-2.1865 h -0.54151 v 3.42279 h 0.54151 v -2.31932 l 1.30782,2.31932 h 0.48021"
     id="path2916"
     style="font-style:normal;font-variant:normal;font-weight:normal;font-stretch:normal;font-size:48px;font-family:'Roadgeek 2005 Series D';-inkscape-font-specification:'Roadgeek 2005 Series D';text-align:center;text-anchor:middle;fill:#000000;fill-opacity:1;stroke:none;stroke-width:0.10643016"
     inkscape:connector-curvature="0" />
  <path
     d="m 22.950605,25.461765 v -0.48021 h -2.11498 v 0.48021 h 0.78163 v 2.94258 h 0.54151 v -2.94258 h 0.79184"
     id="path2918"
     style="font-style:normal;font-variant:normal;font-weight:normal;font-stretch:normal;font-size:48px;font-family:'Roadgeek 2005 Series D';-inkscape-font-specification:'Roadgeek 2005 Series D';text-align:center;text-anchor:middle;fill:#000000;fill-opacity:1;stroke:none;stroke-width:0.10643016"
     inkscape:connector-curvature="0" />
  <path
     d="m 26.047085,28.404345 -1.1801,-3.42279 h -0.5364 l -1.1801,3.42279 h 0.57728 l 0.33717,-0.96042 h 1.0677 l 0.33717,0.96042 h 0.57728 m -1.10858,-1.51216 h -0.68455 l 0.35249,-0.96042 0.33206,0.96042"
     id="path2920"
     style="font-style:normal;font-variant:normal;font-weight:normal;font-stretch:normal;font-size:48px;font-family:'Roadgeek 2005 Series D';-inkscape-font-specification:'Roadgeek 2005 Series D';text-align:center;text-anchor:middle;fill:#000000;fill-opacity:1;stroke:none;stroke-width:0.10643016"
     inkscape:connector-curvature="0" />
  <path
     d="m 28.894515,28.404345 -0.60282,-1.599 c 0.31674,-0.14305 0.5313,-0.50065 0.5313,-0.86336 0,-0.34739 -0.21456,-0.71011 -0.51597,-0.85315 -0.16859,-0.0817 -0.34739,-0.10728 -0.61304,-0.10728 h -1.12901 v 3.42279 h 0.54152 v -1.49172 h 0.6488 l 0.55173,1.49172 h 0.58749 m -0.61303,-2.46236 c 0,0.14304 -0.0817,0.28608 -0.21457,0.36271 -0.0868,0.046 -0.14304,0.0562 -0.31162,0.0562 h -0.6488 v -0.83781 h 0.6488 c 0.1788,0 0.21967,0.0102 0.31162,0.0613 0.13283,0.0715 0.21457,0.21456 0.21457,0.35761"
     id="path2922"
     style="font-style:normal;font-variant:normal;font-weight:normal;font-stretch:normal;font-size:48px;font-family:'Roadgeek 2005 Series D';-inkscape-font-specification:'Roadgeek 2005 Series D';text-align:center;text-anchor:middle;fill:#000000;fill-opacity:1;stroke:none;stroke-width:0.10643016"
     inkscape:connector-curvature="0" />
  <path
     d="m 30.020255,28.404345 v -3.42279 h -0.55173 v 3.42279 h 0.55173"
     id="path2924"
     style="font-style:normal;font-variant:normal;font-weight:normal;font-stretch:normal;font-size:48px;font-family:'Roadgeek 2005 Series D';-inkscape-font-specification:'Roadgeek 2005 Series D';text-align:center;text-anchor:middle;fill:#000000;fill-opacity:1;stroke:none;stroke-width:0.10643016"
     inkscape:connector-curvature="0" />
  <path
     d="m 33.190575,26.698065 c 0,-0.42913 -0.0868,-0.86337 -0.22989,-1.16478 -0.21457,-0.41891 -0.51598,-0.61303 -0.95021,-0.61303 -0.39337,0 -0.66923,0.1226 -0.87358,0.38314 -0.22989,0.32696 -0.37293,0.83271 -0.37293,1.39467 0,0.40869 0.0971,0.86336 0.24011,1.15455 0.20434,0.41891 0.50575,0.61304 0.98596,0.61304 0.35761,0 0.63348,-0.12261 0.82761,-0.38315 0.2401,-0.30141 0.37293,-0.84293 0.37293,-1.38444 m -0.54152,0 c 0,0.26564 -0.0613,0.60282 -0.13282,0.78162 -0.1175,0.30141 -0.27587,0.43423 -0.5262,0.43423 -0.21967,0 -0.36271,-0.0868 -0.46999,-0.26565 -0.13283,-0.21456 -0.20435,-0.58749 -0.20435,-0.9502 0,-0.28609 0.046,-0.59772 0.13283,-0.80206 0.11239,-0.2912 0.27587,-0.42402 0.52108,-0.42402 0.0102,0 0.0204,0 0.0307,0 0.20435,0.0153 0.33717,0.0868 0.44445,0.26565 0.13283,0.22989 0.20435,0.57728 0.20435,0.96043"
     id="path2926"
     style="font-style:normal;font-variant:normal;font-weight:normal;font-stretch:normal;font-size:48px;font-family:'Roadgeek 2005 Series D';-inkscape-font-specification:'Roadgeek 2005 Series D';text-align:center;text-anchor:middle;fill:#000000;fill-opacity:1;stroke:none;stroke-width:0.10643016"
     inkscape:connector-curvature="0" />
  <text
     xml:space="preserve"
     style="font-style:normal;font-variant:normal;font-weight:normal;font-stretch:normal;font-size:21.28666687px;line-height:125%;font-family:'Roadgeek 2000 Series D';-inkscape-font-specification:'Roadgeek 2000 Series D, Normal';font-variant-ligatures:normal;font-variant-caps:normal;font-variant-numeric:normal;font-feature-settings:normal;text-align:center;letter-spacing:0px;word-spacing:0px;writing-mode:lr;text-anchor:middle;fill:#000000;fill-opacity:1;stroke:none;stroke-width:0.10643016px;stroke-linecap:butt;stroke-linejoin:miter;stroke-opacity:1;"
     x="24.225702"
     y="20.493319"
     id="text830"><tspan
       sodipodi:role="line"
       id="tspan833">%num%</tspan></text>
</svg>
