<?xml version="1.0" encoding="UTF-8" standalone="no"?>
<!-- Created with Inkscape (http://www.inkscape.org/) -->

<svg
   xmlns:dc="http://purl.org/dc/elements/1.1/"
   xmlns:cc="http://creativecommons.org/ns#"
   xmlns:rdf="http://www.w3.org/1999/02/22-rdf-syntax-ns#"
   xmlns:svg="http://www.w3.org/2000/svg"
   xmlns="http://www.w3.org/2000/svg"
   xmlns:sodipodi="http://sodipodi.sourceforge.net/DTD/sodipodi-0.dtd"
   xmlns:inkscape="http://www.inkscape.org/namespaces/inkscape"
   width="30.199001"
   height="48.000191"
   id="svg2"
   version="1.1"
   inkscape:version="0.92.3 (2405546, 2018-03-11)"
   sodipodi:docname="CA:ON:primary-QEW.svg">
  <defs
     id="defs4">
    <clipPath
       id="clipPath3785"
       clipPathUnits="userSpaceOnUse">
      <path
         id="path3787"
         d="M 0,792 H 612 V 0 H 0 Z"
         inkscape:connector-curvature="0" />
    </clipPath>
    <clipPath
       id="clipPath3581"
       clipPathUnits="userSpaceOnUse">
      <path
         id="path3583"
         d="M 0,792 H 612 V 0 H 0 Z"
         inkscape:connector-curvature="0" />
    </clipPath>
    <clipPath
       id="clipPath3027"
       clipPathUnits="userSpaceOnUse">
      <path
         id="path3029"
         d="M 0,792 H 612 V 0 H 0 Z"
         inkscape:connector-curvature="0" />
    </clipPath>
    <clipPath
       id="clipPath5598"
       clipPathUnits="userSpaceOnUse">
      <path
         id="path5600"
         d="M 0,792 H 612 V 0 H 0 Z"
         inkscape:connector-curvature="0" />
    </clipPath>
    <clipPath
       id="clipPath5392"
       clipPathUnits="userSpaceOnUse">
      <path
         id="path5394"
         d="M 0,792 H 612 V 0 H 0 Z"
         inkscape:connector-curvature="0" />
    </clipPath>
    <clipPath
       id="clipPath4838"
       clipPathUnits="userSpaceOnUse">
      <path
         id="path4840"
         d="M 0,792 H 612 V 0 H 0 Z"
         inkscape:connector-curvature="0" />
    </clipPath>
  </defs>
  <sodipodi:namedview
     id="base"
     pagecolor="#ffffff"
     bordercolor="#666666"
     borderopacity="1.0"
     inkscape:pageopacity="0.0"
     inkscape:pageshadow="2"
     inkscape:zoom="1"
     inkscape:cx="-31.455172"
     inkscape:cy="24.812553"
     inkscape:document-units="px"
     inkscape:current-layer="layer1"
     showgrid="false"
     inkscape:window-width="1920"
     inkscape:window-height="1028"
     inkscape:window-x="-8"
     inkscape:window-y="-8"
     inkscape:window-maximized="1"
     fit-margin-top="0"
     fit-margin-left="0"
     fit-margin-right="0"
     fit-margin-bottom="0"
     showborder="false" />
  <metadata
     id="metadata7">
    <rdf:RDF>
      <cc:Work
         rdf:about="">
        <dc:format>image/svg+xml</dc:format>
        <dc:type
           rdf:resource="http://purl.org/dc/dcmitype/StillImage" />
        <dc:title></dc:title>
      </cc:Work>
    </rdf:RDF>
  </metadata>
  <g
     inkscape:label="Layer 1"
     inkscape:groupmode="layer"
     id="layer1"
     transform="translate(-357.34067,-503.41269)">
    <g
       id="g8799"
       transform="matrix(0.08905994,0,0,0.08905994,329.19469,512.10881)">
      <g
         transform="matrix(1.25,0,0,-1.25,135.54875,772.15022)"
         id="g3781">
        <g
           clip-path="url(#clipPath3785)"
           id="g3783">
          <g
             transform="translate(415.3438,452.1694)"
             id="g3789">
            <path
               id="path3791"
               style="fill:#ffffff;fill-opacity:1;fill-rule:nonzero;stroke:none"
               d="m 0,0 c -0.852,-16.979 -5.799,-35.696 -10.668,-51.862 -16.512,-52.548 -57.168,-99.673 -106.724,-126.325 l -13.588,-6.924 -4.353,-2.049 -4.354,2.049 -13.588,6.924 c -49.557,26.652 -90.213,73.777 -106.725,126.325 -4.867,16.166 -9.791,34.883 -10.642,51.862 v 89.027 c 0.143,11.989 7.629,13.703 16.923,13.703 h 5.96 l 45.808,10e-4 c 0.602,2.701 1.459,3.978 1.459,3.978 0.597,1.145 2.342,2.742 2.342,2.742 0,0 -0.551,1.653 -0.551,2.356 0,0 0.053,1.144 0.313,1.821 0,0 -0.57,1.56 -0.443,2.185 0,0 0.214,1.264 0.639,1.919 0,0 -1.1,2.384 -1.1,4.747 0,0 -0.186,2.49 1.474,4.753 0,0 -0.025,2.081 0.235,3.591 0,0 -0.702,2.236 -0.311,3.38 0,0 0,0.938 1.22,2.187 l -4.65,7.751 c 0,0 -0.336,0.363 -0.986,0.521 0,0 -1.246,0.285 -1.662,0.858 l -4.778,7.855 c 0,0 -0.726,1.327 -0.363,2.133 l 0.363,2.21 c 0,0 0.079,0.807 -0.39,1.64 0,0 -2.621,4.812 -3.141,6.165 0,0 -0.389,0.805 -0.129,1.586 0,0 0.233,0.366 -0.26,0.912 0,0 -4.596,6.268 -4.596,9.441 0,0 -0.831,4.58 1.869,7.284 0,0 2.466,3.044 6.985,5.021 l 9.555,4.369 c 0,0 2.494,1.145 4.051,2.394 0,0 3.531,2.912 7.687,4.838 0,0 4.102,1.716 9.608,2.548 0,0 2.076,0.157 5.972,2.393 0,0 4.31,2.446 9.66,4.059 0,0 6.959,2.237 7.893,3.745 0,0 1.869,1.198 1.869,5.88 v 23.359 h 35.836 v -23.359 c 0,-4.682 1.869,-5.88 1.869,-5.88 0.933,-1.508 7.894,-3.745 7.894,-3.745 5.348,-1.613 9.661,-4.059 9.661,-4.059 3.894,-2.236 5.97,-2.393 5.97,-2.393 5.506,-0.832 9.608,-2.548 9.608,-2.548 4.156,-1.926 7.687,-4.838 7.687,-4.838 1.559,-1.249 4.051,-2.394 4.051,-2.394 l 9.555,-4.369 c 4.517,-1.977 6.986,-5.021 6.986,-5.021 2.701,-2.704 1.869,-7.284 1.869,-7.284 0,-3.173 -4.594,-9.441 -4.594,-9.441 -0.494,-0.546 -0.261,-0.912 -0.261,-0.912 0.261,-0.781 -0.131,-1.586 -0.131,-1.586 -0.518,-1.353 -3.141,-6.165 -3.141,-6.165 -0.469,-0.833 -0.39,-1.64 -0.39,-1.64 l 0.363,-2.21 c 0.363,-0.806 -0.363,-2.133 -0.363,-2.133 l -4.778,-7.855 c -0.416,-0.573 -1.662,-0.858 -1.662,-0.858 -0.648,-0.158 -0.986,-0.521 -0.986,-0.521 l -4.649,-7.751 c 1.221,-1.249 1.221,-2.187 1.221,-2.187 0.391,-1.144 -0.312,-3.38 -0.312,-3.38 0.259,-1.51 0.234,-3.591 0.234,-3.591 1.662,-2.263 1.475,-4.753 1.475,-4.753 0,-2.363 -1.1,-4.747 -1.1,-4.747 0.426,-0.655 0.639,-1.919 0.639,-1.919 0.128,-0.625 -0.442,-2.185 -0.442,-2.185 0.26,-0.677 0.309,-1.821 0.309,-1.821 0,-0.703 -0.547,-2.356 -0.547,-2.356 0,0 1.744,-1.597 2.34,-2.742 0,0 0.859,-1.277 1.463,-3.98 l 43.586,0.001 h 5.961 c 9.292,0 16.753,-1.714 16.896,-13.703 z"
               inkscape:connector-curvature="0" />
          </g>
          <g
             transform="translate(415.3438,452.1694)"
             id="g3793">
            <path
               id="path3795"
               style="fill:#fcd213;fill-opacity:1;stroke:#231f20;stroke-width:0.62699997;stroke-linecap:square;stroke-linejoin:miter;stroke-miterlimit:2;stroke-dasharray:none;stroke-opacity:1"
               d="m 0,0 c -0.852,-16.979 -5.799,-35.696 -10.668,-51.862 -16.512,-52.548 -57.168,-99.673 -106.724,-126.325 l -13.588,-6.924 -4.353,-2.049 -4.354,2.049 -13.588,6.924 c -49.557,26.652 -90.213,73.777 -106.725,126.325 -4.867,16.166 -9.791,34.883 -10.642,51.862 v 89.027 c 0.143,11.989 7.629,13.703 16.923,13.703 h 5.96 l 45.808,10e-4 c 0.602,2.701 1.459,3.978 1.459,3.978 0.597,1.145 2.342,2.742 2.342,2.742 0,0 -0.551,1.653 -0.551,2.356 0,0 0.053,1.144 0.313,1.821 0,0 -0.57,1.56 -0.443,2.185 0,0 0.214,1.264 0.639,1.919 0,0 -1.1,2.384 -1.1,4.747 0,0 -0.186,2.49 1.474,4.753 0,0 -0.025,2.081 0.235,3.591 0,0 -0.702,2.236 -0.311,3.38 0,0 0,0.938 1.22,2.187 l -4.65,7.751 c 0,0 -0.336,0.363 -0.986,0.521 0,0 -1.246,0.285 -1.662,0.858 l -4.778,7.855 c 0,0 -0.726,1.327 -0.363,2.133 l 0.363,2.21 c 0,0 0.079,0.807 -0.39,1.64 0,0 -2.621,4.812 -3.141,6.165 0,0 -0.389,0.805 -0.129,1.586 0,0 0.233,0.366 -0.26,0.912 0,0 -4.596,6.268 -4.596,9.441 0,0 -0.831,4.58 1.869,7.284 0,0 2.466,3.044 6.985,5.021 l 9.555,4.369 c 0,0 2.494,1.145 4.051,2.394 0,0 3.531,2.912 7.687,4.838 0,0 4.102,1.716 9.608,2.548 0,0 2.076,0.157 5.972,2.393 0,0 4.31,2.446 9.66,4.059 0,0 6.959,2.237 7.893,3.745 0,0 1.869,1.198 1.869,5.88 v 23.359 h 35.836 v -23.359 c 0,-4.682 1.869,-5.88 1.869,-5.88 0.933,-1.508 7.894,-3.745 7.894,-3.745 5.348,-1.613 9.661,-4.059 9.661,-4.059 3.894,-2.236 5.97,-2.393 5.97,-2.393 5.506,-0.832 9.608,-2.548 9.608,-2.548 4.156,-1.926 7.687,-4.838 7.687,-4.838 1.559,-1.249 4.051,-2.394 4.051,-2.394 l 9.555,-4.369 c 4.517,-1.977 6.986,-5.021 6.986,-5.021 2.701,-2.704 1.869,-7.284 1.869,-7.284 0,-3.173 -4.594,-9.441 -4.594,-9.441 -0.494,-0.546 -0.261,-0.912 -0.261,-0.912 0.261,-0.781 -0.131,-1.586 -0.131,-1.586 -0.518,-1.353 -3.141,-6.165 -3.141,-6.165 -0.469,-0.833 -0.39,-1.64 -0.39,-1.64 l 0.363,-2.21 c 0.363,-0.806 -0.363,-2.133 -0.363,-2.133 l -4.778,-7.855 c -0.416,-0.573 -1.662,-0.858 -1.662,-0.858 -0.648,-0.158 -0.986,-0.521 -0.986,-0.521 l -4.649,-7.751 c 1.221,-1.249 1.221,-2.187 1.221,-2.187 0.391,-1.144 -0.312,-3.38 -0.312,-3.38 0.259,-1.51 0.234,-3.591 0.234,-3.591 1.662,-2.263 1.475,-4.753 1.475,-4.753 0,-2.363 -1.1,-4.747 -1.1,-4.747 0.426,-0.655 0.639,-1.919 0.639,-1.919 0.128,-0.625 -0.442,-2.185 -0.442,-2.185 0.26,-0.677 0.309,-1.821 0.309,-1.821 0,-0.703 -0.547,-2.356 -0.547,-2.356 0,0 1.744,-1.597 2.34,-2.742 0,0 0.859,-1.277 1.463,-3.98 l 43.586,0.001 h 5.961 c 9.292,0 16.753,-1.714 16.896,-13.703 z"
               inkscape:connector-curvature="0" />
          </g>
          <g
             transform="translate(342.3789,568.4819)"
             id="g3797">
            <path
               id="path3799"
               style="fill:#15559b;fill-opacity:1;fill-rule:nonzero;stroke:none"
               d="m 0,0 c 0.041,-0.005 -0.039,0 0,0 0.529,0 1.037,0.423 1.037,0.951 0,0.351 -0.189,0.655 -0.471,0.822 0.477,2.003 0.329,3.894 -0.046,5.505 0.298,0.163 0.498,0.465 0.498,0.828 0,0.53 -0.498,0.959 -1.026,0.959 -0.027,0 0.024,0.002 0,0 -0.648,1.767 -1.42,2.883 -1.42,2.883 1.655,1.651 -0.084,3.303 -0.084,3.303 -1.633,8.588 3.408,16.632 3.408,16.632 -0.853,1.511 0.614,2.473 0.614,2.473 3.47,1.926 1.525,4.546 1.525,4.546 L 7.26,45.539 5.803,46.32 c 0.215,0.464 0.287,0.784 0.287,0.784 0,0 0.586,1.417 0.98,3.68 0.307,-0.841 1.11,-1.446 2.053,-1.446 1.209,0 2.19,0.981 2.19,2.191 0,1.212 -0.981,2.195 -2.19,2.195 -0.711,0 -1.367,-0.399 -1.768,-0.927 0.161,1.781 0.172,3.802 -0.259,6.02 0.394,-0.396 0.998,-0.651 1.601,-0.651 1.209,0 2.19,0.981 2.19,2.192 0,1.211 -0.981,2.193 -2.19,2.193 -1.023,0 -1.881,-0.8 -2.121,-1.751 -0.5,1.679 -1.25,3.29 -2.357,4.988 0.336,-0.209 0.74,-0.346 1.166,-0.346 1.209,0 2.189,0.981 2.189,2.191 0,1.213 -0.98,2.195 -2.189,2.195 -1.207,0 -2.209,-1.016 -2.209,-2.228 -0.668,1.044 -1.781,2.529 -3.34,4.105 0.205,-0.065 0.391,-0.086 0.617,-0.086 1.211,0 2.19,0.982 2.19,2.192 0,1.21 -0.979,2.192 -2.19,2.192 -1.207,0 -2.119,-1.454 -2.119,-2.664 0,-0.245 -0.074,0.221 0,0 -1.397,1.195 -3.064,2.091 -5.043,3.037 1.209,0 2.172,0.957 2.172,2.168 0,1.209 -0.979,2.193 -2.186,2.193 -1.211,0 -2.189,-0.984 -2.189,-2.193 0,-0.523 0.139,-1 0.443,-1.376 -1.277,0.478 -2.707,0.865 -4.207,1.12 0,0 -0.65,0.098 -1.844,0.147 0.786,0.334 1.334,1.101 1.334,2.01 0,1.209 -0.98,2.193 -2.187,2.193 -1.209,0 -2.19,-0.984 -2.19,-2.193 0,-0.86 0.493,-1.614 1.213,-1.975 -1.57,-0.035 -3.652,-0.226 -6.029,-0.664 0.481,0.4 0.733,0.985 0.733,1.664 0,1.21 -0.983,2.19 -2.192,2.19 -1.207,0 -2.187,-0.98 -2.187,-2.19 0,-0.964 0.671,-1.788 1.533,-2.082 -1.94,-0.459 -3.996,-1.113 -6.268,-2.002 0.293,0.373 0.481,0.834 0.481,1.345 0,1.21 -0.979,2.192 -2.19,2.192 -1.207,0 -2.187,-0.982 -2.187,-2.192 0,-1.152 0.849,-2.078 1.976,-2.166 0,0 -2.679,-1.402 -5.619,-2.935 0.326,0.383 0.488,0.856 0.488,1.397 0,1.211 -0.982,2.195 -2.19,2.195 -1.208,0 -2.19,-0.984 -2.19,-2.195 0,-1.21 1.062,-2.199 2.27,-2.199 0.049,0 -0.048,-0.005 0,0 -3.019,-1.554 -5.933,-3.029 -6.442,-3.077 0,0 -0.238,-0.108 -0.65,-0.208 0.572,0.396 0.955,1.036 0.955,1.782 0,1.213 -0.979,2.193 -2.188,2.193 -1.211,0 -2.188,-0.98 -2.188,-2.193 0,-0.907 0.585,-1.693 1.37,-2.027 -1.349,-0.029 -2.898,0.264 -4.029,1.52 0,1.211 -0.981,2.194 -2.19,2.194 0,0 -0.851,0.05 -1.403,-0.521 l -0.177,3.747 c 3.077,1.304 5.446,3.97 6.356,7.237 h 1.74 c 0.232,0.956 0.35,1.961 0.35,2.989 0,1.324 -0.165,2.527 -0.538,3.728 h -1.787 c -1.072,3.002 -3.395,5.408 -6.341,6.587 l -0.01,2.383 c 0,0.016 2.531,0 2.531,0 0.286,0.083 1.024,0.13 0.744,0.644 -2.228,2.097 -4.277,4.669 -5.105,7.524 0.664,0.39 1.243,0.962 1.632,1.624 2.85,-0.83 5.415,-2.891 7.509,-5.123 0.512,-0.282 0.558,0.46 0.646,0.744 v 13.288 c -0.088,0.286 -0.134,1.026 -0.646,0.746 -2.094,-2.234 -4.659,-4.27 -7.509,-5.101 -0.392,0.67 -0.968,1.265 -1.638,1.655 0.828,2.855 2.883,5.422 5.111,7.521 0.28,0.514 -0.458,0.564 -0.713,0.643 0,0.038 -13.27,0.003 -13.27,0.003 -0.283,-0.084 -1.024,-0.132 -0.741,-0.646 2.226,-2.099 4.283,-4.666 5.11,-7.521 -0.671,-0.39 -1.246,-0.985 -1.641,-1.655 -2.85,0.831 -5.411,2.867 -7.506,5.101 -0.514,0.28 -0.561,-0.46 -0.644,-0.746 v -13.288 c 0.083,-0.284 0.13,-1.026 0.644,-0.744 2.095,2.232 4.656,4.293 7.506,5.123 0.392,-0.664 0.97,-1.234 1.635,-1.624 -0.829,-2.855 -2.878,-5.427 -5.104,-7.524 -0.283,-0.514 0.458,-0.561 0.741,-0.644 0,0 2.534,0.016 2.534,0 l -0.012,-2.383 c -2.946,-1.179 -5.271,-3.585 -6.342,-6.587 h -1.787 c -0.373,-1.201 -0.537,-2.404 -0.537,-3.728 0,-1.028 0.121,-2.033 0.349,-2.989 h 1.741 c 0.913,-3.267 3.28,-5.933 6.355,-7.237 l -0.175,-3.747 c -0.551,0.571 -1.405,0.521 -1.405,0.521 -1.209,0 -2.189,-0.983 -2.189,-2.194 -1.129,-1.256 -2.68,-1.549 -4.026,-1.52 0.784,0.334 1.37,1.12 1.37,2.027 0,1.213 -0.979,2.193 -2.191,2.193 -1.208,0 -2.188,-0.98 -2.188,-2.193 0,-0.746 0.386,-1.386 0.957,-1.782 -0.412,0.1 -0.652,0.208 -0.652,0.208 -0.507,0.048 -3.422,1.523 -6.44,3.077 0.047,-0.005 -0.049,0 0,0 1.208,0 2.268,0.989 2.268,2.199 0,1.211 -0.981,2.195 -2.188,2.195 -1.21,0 -2.191,-0.984 -2.191,-2.195 0,-0.541 0.164,-1.014 0.49,-1.397 -2.941,1.533 -5.622,2.935 -5.622,2.935 1.128,0.088 1.977,1.014 1.977,2.166 0,1.21 -0.981,2.192 -2.189,2.192 -1.207,0 -2.189,-0.982 -2.189,-2.192 0,-0.511 0.191,-0.972 0.482,-1.345 -2.273,0.889 -4.328,1.543 -6.268,2.002 0.862,0.294 1.534,1.118 1.534,2.082 0,1.21 -0.979,2.19 -2.188,2.19 -1.211,0 -2.189,-0.98 -2.189,-2.19 0,-0.679 0.25,-1.264 0.732,-1.664 -2.379,0.438 -4.459,0.629 -6.03,0.664 0.721,0.361 1.212,1.115 1.212,1.975 0,1.209 -0.982,2.193 -2.19,2.193 -1.208,0 -2.189,-0.984 -2.189,-2.193 0,-0.909 0.551,-1.676 1.336,-2.01 -1.192,-0.049 -1.845,-0.147 -1.845,-0.147 -1.499,-0.255 -2.929,-0.642 -4.208,-1.12 0.308,0.376 0.444,0.853 0.444,1.376 0,1.209 -0.977,2.193 -2.186,2.193 -1.209,0 -2.19,-0.984 -2.19,-2.193 0,-1.211 0.966,-2.168 2.175,-2.168 -1.978,-0.946 -3.645,-1.842 -5.044,-3.037 0.075,0.221 0,-0.245 0,0 0,1.21 -0.912,2.664 -2.119,2.664 -1.209,0 -2.187,-0.982 -2.187,-2.192 0,-1.21 0.978,-2.192 2.187,-2.192 0.227,0 0.412,0.021 0.618,0.086 -1.556,-1.576 -2.673,-3.061 -3.339,-4.105 0,1.212 -1.002,2.228 -2.211,2.228 -1.209,0 -2.188,-0.982 -2.188,-2.195 0,-1.21 0.979,-2.191 2.188,-2.191 0.428,0 0.831,0.137 1.165,0.346 -1.107,-1.698 -1.857,-3.309 -2.356,-4.988 -0.24,0.951 -1.098,1.751 -2.121,1.751 -1.209,0 -2.19,-0.982 -2.19,-2.193 0,-1.211 0.981,-2.192 2.19,-2.192 0.603,0 1.207,0.255 1.603,0.651 -0.431,-2.218 -0.42,-4.239 -0.261,-6.02 -0.399,0.528 -1.057,0.927 -1.77,0.927 -1.207,0 -2.188,-0.983 -2.188,-2.195 0,-1.21 0.981,-2.191 2.188,-2.191 0.945,0 1.75,0.605 2.056,1.446 0.395,-2.263 0.979,-3.68 0.979,-3.68 0,0 0.075,-0.32 0.285,-0.784 l -1.457,-0.781 3.225,-6.637 c 0,0 -1.945,-2.62 1.523,-4.546 0,0 1.471,-0.962 0.619,-2.473 0,0 5.039,-8.044 3.409,-16.632 0,0 -1.739,-1.652 -0.087,-3.303 0,0 -0.773,-1.116 -1.419,-2.883 -0.023,0.002 0.023,0 0,0 -0.527,0 -1.029,-0.429 -1.029,-0.959 0,-0.363 0.203,-0.665 0.501,-0.828 -0.375,-1.611 -0.522,-3.502 -0.045,-5.505 -0.282,-0.167 -0.473,-0.471 -0.473,-0.822 0,-0.528 0.509,-0.951 1.036,-0.951 0.043,0 -0.041,-0.005 0,0 0.379,-0.89 0.916,-1.774 1.608,-2.661 0,0 -0.658,-0.497 -1.049,-1.595 0,0 -0.996,-2.143 0.178,-4.315 0,0 -4.018,-0.744 -3.618,-6.761 0,0 -0.092,-1.419 0.424,-2.952 l -46.444,-0.01 c -21.866,0 -22.095,0.228 -22.095,-18.016 l -0.043,-0.002 v -80.271 c 0,-16.452 5.586,-34.537 10.297,-50.175 15.972,-50.833 55.34,-96.441 103.28,-122.226 l 12.49,-6.414 4.966,-2.242 4.967,2.242 12.488,6.414 c 47.941,25.785 87.31,71.393 103.283,122.226 4.709,15.638 10.317,33.723 10.317,50.175 v 80.271 c 0,18.246 -0.243,18.018 -22.11,18.018 L 2.271,-18.26 c 0.596,1.528 0.403,2.928 0.403,2.928 0.33,4.972 -2.356,6.337 -3.297,6.663 1.172,2.171 0.064,4.413 0.064,4.413 -0.392,1.098 -1.05,1.595 -1.05,1.595"
               inkscape:connector-curvature="0" />
          </g>
          <g
             transform="translate(284.6294,642.3711)"
             id="g3801">
            <path
               id="path3803"
               style="fill:#f7cf16;fill-opacity:1;fill-rule:nonzero;stroke:none"
               d="m 0,0 c -2.209,-0.665 -4.698,-0.692 -6.898,-0.069 l -1.168,-20.503 c -0.004,-0.411 -0.151,-0.951 -0.211,-1.379 0,0 -0.551,-1.223 -1.578,-1.65 h 12.82 c -1.027,0.427 -1.577,1.65 -1.577,1.65 -0.058,0.428 -0.206,0.968 -0.21,1.508 z"
               inkscape:connector-curvature="0" />
          </g>
          <g
             transform="translate(317.1504,601.7314)"
             id="g3805">
            <path
               id="path3807"
               style="fill:#fcd213;fill-opacity:1;fill-rule:nonzero;stroke:none"
               d="m 0,0 c 0,0 2.297,3.852 5.316,6.451 0,0 1.709,2.134 1.993,-0.285 0,0 0.49,-4.373 2.164,-5.39 0,0 0.822,-0.448 0.965,0.976 0,0 0.281,6.87 -0.428,8.116 0,0 -1.422,4.415 -5.26,0.569 0,0 -1.955,-1.566 -3.127,-3.703 0,0 -0.391,-0.675 -0.605,0 0,0 0.748,5.911 -1.317,11.392 0,0 -0.674,1.829 -1.068,2.386 0,0 -0.33,0.497 -0.684,0 C -2.447,19.955 -3.117,18.126 -3.117,18.126 -5.18,12.645 -4.434,6.734 -4.434,6.734 c -0.211,-0.675 -0.603,0 -0.603,0 -1.172,2.137 -3.127,3.703 -3.127,3.703 -3.836,3.846 -5.257,-0.569 -5.257,-0.569 -0.714,-1.246 -0.427,-8.116 -0.427,-8.116 0.14,-1.424 0.962,-0.976 0.962,-0.976 1.675,1.017 2.165,5.39 2.165,5.39 0.283,2.419 1.989,0.285 1.989,0.285 C -5.711,3.852 -3.412,0 -3.412,0 Z"
               inkscape:connector-curvature="0" />
          </g>
          <g
             transform="translate(316.8301,599.2617)"
             id="g3809">
            <path
               id="path3811"
               style="fill:#fcd213;fill-opacity:1;fill-rule:nonzero;stroke:none"
               d="M 0,0 C 0.473,0 0.854,0.382 0.854,0.854 0.854,1.326 0.473,1.708 0,1.708 h -2.729 c -0.47,0 -0.853,-0.382 -0.853,-0.854 C -3.582,0.382 -3.199,0 -2.729,0 Z"
               inkscape:connector-curvature="0" />
          </g>
          <g
             transform="translate(245.2466,601.7314)"
             id="g3813">
            <path
               id="path3815"
               style="fill:#fcd213;fill-opacity:1;fill-rule:nonzero;stroke:none"
               d="m 0,0 c 0,0 -2.3,3.852 -5.32,6.451 0,0 -1.705,2.134 -1.991,-0.285 0,0 -0.489,-4.373 -2.162,-5.39 0,0 -0.822,-0.448 -0.963,0.976 0,0 -0.285,6.87 0.424,8.116 0,0 1.422,4.415 5.262,0.568 0,0 1.955,-1.565 3.126,-3.702 0,0 0.391,-0.675 0.604,0 0,0 -0.746,5.911 1.315,11.392 0,0 0.676,1.829 1.072,2.386 0,0 0.328,0.497 0.684,0 0.397,-0.557 1.064,-2.386 1.064,-2.386 2.063,-5.481 1.317,-11.392 1.317,-11.392 0.213,-0.675 0.603,0 0.603,0 1.174,2.137 3.128,3.702 3.128,3.702 3.835,3.847 5.258,-0.568 5.258,-0.568 C 14.132,8.622 13.849,1.752 13.849,1.752 13.705,0.328 12.886,0.776 12.886,0.776 11.211,1.793 10.721,6.166 10.721,6.166 10.438,8.585 8.729,6.451 8.729,6.451 5.711,3.852 3.411,0 3.411,0 Z"
               inkscape:connector-curvature="0" />
          </g>
          <g
             transform="translate(245.5649,599.2617)"
             id="g3817">
            <path
               id="path3819"
               style="fill:#fcd213;fill-opacity:1;fill-rule:nonzero;stroke:none"
               d="m 0,0 c -0.472,0 -0.854,0.382 -0.854,0.854 0,0.472 0.382,0.854 0.854,0.854 H 2.728 C 3.199,1.708 3.582,1.326 3.582,0.854 3.582,0.382 3.199,0 2.728,0 Z"
               inkscape:connector-curvature="0" />
          </g>
          <g
             transform="translate(281.2671,603.0649)"
             id="g3821">
            <path
               id="path3823"
               style="fill:#fcd213;fill-opacity:1;fill-rule:nonzero;stroke:none"
               d="m 0,0 c -1.485,0 -2.688,1.207 -2.688,2.694 0,1.487 1.203,2.695 2.688,2.695 1.484,0 2.687,-1.208 2.687,-2.695 C 2.687,1.207 1.484,0 0,0"
               inkscape:connector-curvature="0" />
          </g>
          <g
             transform="translate(286.022,603.9263)"
             id="g3825">
            <path
               id="path3827"
               style="fill:#fcd213;fill-opacity:1;fill-rule:nonzero;stroke:none"
               d="m 0,0 c 0.221,0.569 0.342,1.186 0.342,1.833 0,0.642 -0.121,1.243 -0.338,1.811 2.279,0.663 4.82,2.294 6.495,4.08 C 6.91,7.947 6.947,7.357 7.017,7.126 V -3.502 C 6.947,-3.731 6.91,-4.323 6.499,-4.099 4.824,-2.313 2.281,-0.666 0,0"
               inkscape:connector-curvature="0" />
          </g>
          <g
             transform="translate(276.5142,603.918)"
             id="g3829">
            <path
               id="path3831"
               style="fill:#fcd213;fill-opacity:1;fill-rule:nonzero;stroke:none"
               d="M 0,0 C -0.22,0.574 -0.346,1.19 -0.346,1.841 -0.346,2.489 -0.22,3.094 0,3.664 -2.28,4.329 -4.822,5.946 -6.498,7.732 -6.909,7.956 -6.946,7.365 -7.016,7.135 V -3.494 c 0.07,-0.229 0.107,-0.821 0.518,-0.597 C -4.822,-2.305 -2.279,-0.662 0,0"
               inkscape:connector-curvature="0" />
          </g>
          <g
             transform="translate(279.3794,610.5)"
             id="g3833">
            <path
               id="path3835"
               style="fill:#fcd213;fill-opacity:1;fill-rule:nonzero;stroke:none"
               d="m 0,0 c 0.583,0.232 1.222,0.365 1.888,0.365 0.627,0 1.216,-0.129 1.77,-0.337 0.665,2.283 2.287,4.625 4.07,6.305 C 7.95,6.744 7.361,6.782 7.132,6.848 H -3.479 C -3.709,6.782 -4.298,6.744 -4.074,6.333 -2.292,4.653 -0.664,2.285 0,0"
               inkscape:connector-curvature="0" />
          </g>
          <g
             transform="translate(281.1987,597.7974)"
             id="g3837">
            <path
               id="path3839"
               style="fill:#fcd213;fill-opacity:1;fill-rule:nonzero;stroke:none"
               d="m 0,0 c 0,0 6.72,-10.547 18.304,-10.547 10.585,0 15.964,8.362 15.964,8.362 C 39.385,-9.377 47.37,-8.482 47.37,-8.482 57.604,-7.344 62.223,4.333 62.223,4.333 L 61.227,4.049 C 55.327,-6.417 47.51,-5.992 47.51,-5.992 c -8.672,0 -11.467,6.35 -11.467,6.35 h -3.492 c 0,0 -3.127,-7.131 -13.611,-7.629 C 7.355,-7.271 1.614,3.187 1.614,3.187 1.149,2.81 0.642,2.575 0,2.575 c -0.646,0 -1.15,0.235 -1.614,0.612 0,0 -5.742,-10.458 -17.326,-10.458 -10.485,0.498 -13.614,7.629 -13.614,7.629 h -3.49 c 0,0 -2.797,-6.35 -11.469,-6.35 0,0 -7.817,-0.425 -13.716,10.041 l -0.995,0.284 c 0,0 4.62,-11.677 14.854,-12.815 0,0 7.984,-0.895 13.101,6.297 0,0 5.377,-8.362 15.963,-8.362 C -6.723,-10.547 0,0 0,0"
               inkscape:connector-curvature="0" />
          </g>
          <g
             transform="translate(346.9902,626.144)"
             id="g3841">
            <path
               id="path3843"
               style="fill:#fcd213;fill-opacity:1;fill-rule:nonzero;stroke:none"
               d="m 0,0 c -3.152,2.557 -9.043,3.823 -9.043,3.823 -1.846,0.285 -11.654,0.713 -11.654,0.713 -7.533,3.416 -15.92,0.711 -15.92,0.711 -4.69,-1.85 -10.519,-2.136 -10.519,-2.136 -6.811,0.112 -11.689,-2.501 -13.469,-3.627 l -0.459,9.586 c 3.201,-4.147 7.815,-2.683 7.815,-2.683 1.708,0.214 11.657,5.268 11.657,5.268 3.553,2.136 12.508,5.553 12.508,5.553 7.533,2.563 15.352,-0.284 15.352,-0.284 C -5.488,14.502 -2.076,6.957 -2.076,6.957 -0.67,4.776 -0.176,2.486 0,0"
               inkscape:connector-curvature="0" />
          </g>
          <g
             transform="translate(215.3823,626.144)"
             id="g3845">
            <path
               id="path3847"
               style="fill:#fcd213;fill-opacity:1;fill-rule:nonzero;stroke:none"
               d="m 0,0 c 3.15,2.557 9.04,3.823 9.04,3.823 1.849,0.285 11.655,0.713 11.655,0.713 7.535,3.416 15.923,0.711 15.923,0.711 4.69,-1.85 10.516,-2.136 10.516,-2.136 6.81,0.112 11.689,-2.501 13.47,-3.627 L 61.062,9.07 C 57.864,4.923 53.247,6.387 53.247,6.387 51.542,6.601 41.591,11.655 41.591,11.655 38.037,13.791 29.083,17.208 29.083,17.208 21.549,19.771 13.73,16.924 13.73,16.924 5.487,14.502 2.075,6.957 2.075,6.957 0.671,4.776 0.175,2.486 0,0"
               inkscape:connector-curvature="0" />
          </g>
          <g
             transform="translate(279.8823,654.1606)"
             id="g3849">
            <path
               id="path3851"
               style="fill:#fcd213;fill-opacity:1;fill-rule:nonzero;stroke:none"
               d="M 0,0 H -9.335 V -1.89 H 12.047 V 0 H 2.63 V 9.328 H 0 Z"
               inkscape:connector-curvature="0" />
          </g>
          <g
             transform="translate(281.1987,675.0327)"
             id="g3853">
            <path
               id="path3855"
               style="fill:#fcd213;fill-opacity:1;fill-rule:nonzero;stroke:none"
               d="m 0,0 c -1.485,0 -2.689,1.206 -2.689,2.694 0,1.487 1.204,2.693 2.689,2.693 1.483,0 2.688,-1.206 2.688,-2.693 C 2.688,1.206 1.483,0 0,0"
               inkscape:connector-curvature="0" />
          </g>
          <g
             transform="translate(335.8301,603.6968)"
             id="g3857">
            <path
               id="path3859"
               style="fill:#fcd213;fill-opacity:1;fill-rule:nonzero;stroke:none"
               d="M 0,0 C 0.004,-0.209 -0.102,-0.716 0.281,-0.632 2.043,0.444 4.014,0.603 6.014,0.581 L 6.539,2.842 C 4.822,3.871 3.227,5.041 2.287,6.882 2.006,7.156 1.832,6.667 1.719,6.49 Z"
               inkscape:connector-curvature="0" />
          </g>
          <g
             transform="translate(343.2949,603.5449)"
             id="g3861">
            <path
               id="path3863"
               style="fill:#fcd213;fill-opacity:1;fill-rule:nonzero;stroke:none"
               d="M 0,0 C 0.633,-0.38 1.541,-0.021 2.035,0.801 2.527,1.626 2.416,2.598 1.783,2.978 1.154,3.357 0.242,2.998 -0.248,2.174 -0.742,1.353 -0.631,0.378 0,0"
               inkscape:connector-curvature="0" />
          </g>
          <g
             transform="translate(218.2202,607.9268)"
             id="g3865">
            <path
               id="path3867"
               style="fill:#fcd213;fill-opacity:1;fill-rule:nonzero;stroke:none"
               d="M 0,0 C -0.632,2.422 -0.548,5.231 0.226,7.698 0.21,8.19 -0.375,7.912 -0.628,7.853 l -3.553,-2.137 2.837,-6.128 z"
               inkscape:connector-curvature="0" />
          </g>
          <g
             transform="translate(226.5659,603.6968)"
             id="g3869">
            <path
               id="path3871"
               style="fill:#fcd213;fill-opacity:1;fill-rule:nonzero;stroke:none"
               d="m 0,0 c -0.003,-0.209 0.103,-0.716 -0.28,-0.632 -1.763,1.076 -3.734,1.235 -5.735,1.213 l -0.523,2.261 c 1.716,1.029 3.311,2.199 4.251,4.04 0.283,0.274 0.456,-0.215 0.568,-0.392 z"
               inkscape:connector-curvature="0" />
          </g>
          <g
             transform="translate(218.8423,603.5449)"
             id="g3873">
            <path
               id="path3875"
               style="fill:#fcd213;fill-opacity:1;fill-rule:nonzero;stroke:none"
               d="m 0,0 c -0.631,-0.38 -1.542,-0.021 -2.035,0.801 -0.492,0.825 -0.38,1.797 0.25,2.177 0.629,0.379 1.543,0.019 2.034,-0.804 C 0.742,1.353 0.631,0.378 0,0"
               inkscape:connector-curvature="0" />
          </g>
          <g
             transform="translate(344.1523,607.9268)"
             id="g3877">
            <path
               id="path3879"
               style="fill:#fcd213;fill-opacity:1;fill-rule:nonzero;stroke:none"
               d="M 0,0 C 0.631,2.422 0.547,5.231 -0.225,7.698 -0.211,8.19 0.373,7.912 0.627,7.853 L 4.178,5.716 1.342,-0.412 Z"
               inkscape:connector-curvature="0" />
          </g>
          <g
             transform="translate(281.1987,635.7349)"
             id="g3881">
            <path
               id="path3883"
               style="fill:#15559b;fill-opacity:1;fill-rule:nonzero;stroke:none"
               d="m 0,0 c -1.21,0 -2.189,0.984 -2.189,2.192 0,1.211 0.979,2.192 2.189,2.192 1.208,0 2.187,-0.981 2.187,-2.192 C 2.187,0.984 1.208,0 0,0"
               inkscape:connector-curvature="0" />
          </g>
          <g
             transform="translate(281.1987,630.2842)"
             id="g3885">
            <path
               id="path3887"
               style="fill:#15559b;fill-opacity:1;fill-rule:nonzero;stroke:none"
               d="m 0,0 c -1.21,0 -2.189,0.982 -2.189,2.192 0,1.212 0.979,2.193 2.189,2.193 1.208,0 2.187,-0.981 2.187,-2.193 C 2.187,0.982 1.208,0 0,0"
               inkscape:connector-curvature="0" />
          </g>
          <g
             transform="translate(281.1987,624.834)"
             id="g3889">
            <path
               id="path3891"
               style="fill:#15559b;fill-opacity:1;fill-rule:nonzero;stroke:none"
               d="m 0,0 c -1.21,0 -2.189,0.981 -2.189,2.191 0,1.212 0.979,2.193 2.189,2.193 1.208,0 2.187,-0.981 2.187,-2.193 C 2.187,0.981 1.208,0 0,0"
               inkscape:connector-curvature="0" />
          </g>
          <g
             transform="translate(281.1987,619.3828)"
             id="g3893">
            <path
               id="path3895"
               style="fill:#15559b;fill-opacity:1;fill-rule:nonzero;stroke:none"
               d="m 0,0 c -1.21,0 -2.189,0.982 -2.189,2.192 0,1.211 0.979,2.193 2.189,2.193 1.208,0 2.187,-0.982 2.187,-2.193 C 2.187,0.982 1.208,0 0,0"
               inkscape:connector-curvature="0" />
          </g>
          <g
             transform="translate(342.3789,568.4819)"
             id="g3897">
            <path
               id="path3899"
               style="fill:#231f20;fill-opacity:1;fill-rule:nonzero;stroke:none"
               d="M 0,0 C -0.381,-0.89 -0.914,-1.774 -1.609,-2.661"
               inkscape:connector-curvature="0" />
          </g>
          <g
             transform="translate(338.6426,581.2661)"
             id="g3901">
            <path
               id="path3903"
               style="fill:#fcd213;fill-opacity:1;fill-rule:nonzero;stroke:none"
               d="M 0,0 C 0.395,0 0.715,0.319 0.715,0.716 0.715,1.112 0.395,1.431 0,1.431 h -115.197 c -0.394,0 -0.715,-0.319 -0.715,-0.715 0,-0.397 0.321,-0.716 0.715,-0.716 z"
               inkscape:connector-curvature="0" />
          </g>
          <g
             transform="translate(338.3652,579.8804)"
             id="g3905">
            <path
               id="path3907"
               style="fill:#fcd213;fill-opacity:1;fill-rule:nonzero;stroke:none"
               d="M 0,0 C 0.998,-0.589 1.945,-1.721 2.41,-2.714 1.131,-2.893 -1.982,-4.698 -1.982,-6.585 v -0.497 c 0,-1.888 1.992,-3.829 4.613,-3.903 C 2.17,-11.98 1.221,-13.11 0.221,-13.7 h -114.777 c -0.998,0.59 -1.947,1.72 -2.41,2.715 2.621,0.074 4.61,2.015 4.61,3.903 v 0.497 c 0,1.887 -3.108,3.692 -4.388,3.871 0.463,0.993 1.41,2.125 2.411,2.714 z"
               inkscape:connector-curvature="0" />
          </g>
          <g
             transform="translate(221.0903,570.519)"
             id="g3909">
            <path
               id="path3911"
               style="fill:#fcd213;fill-opacity:1;fill-rule:nonzero;stroke:none"
               d="m 0,0 c 1.793,0.409 2.93,1.485 2.93,2.527 0,1.045 -1.303,2.258 -2.96,2.338 0,0 -1.054,-1.964 0.03,-4.865"
               inkscape:connector-curvature="0" />
          </g>
          <g
             transform="translate(341.3066,570.519)"
             id="g3913">
            <path
               id="path3915"
               style="fill:#fcd213;fill-opacity:1;fill-rule:nonzero;stroke:none"
               d="m 0,0 c -1.795,0.409 -2.932,1.485 -2.932,2.527 0,1.045 1.305,2.258 2.961,2.338 C 0.029,4.865 1.084,2.901 0,0"
               inkscape:connector-curvature="0" />
          </g>
          <g
             transform="translate(338.9785,548.1816)"
             id="g3917">
            <path
               id="path3919"
               style="fill:#fcd213;fill-opacity:1;fill-rule:nonzero;stroke:none"
               d="m 0,0 c 0,0 4.033,-0.161 4.07,2.617 -4.025,0 -6.951,1.601 -6.951,2.74 0,1.14 2.92,2.743 6.945,2.743 C 2.889,10.759 0,10.623 0,10.623 h -115.562 c 0,0 -2.889,0.136 -4.064,-2.523 4.023,0 6.946,-1.603 6.946,-2.743 0,-1.139 -2.927,-2.74 -6.95,-2.74 1.167,-2.682 4.068,-2.617 4.068,-2.617 z"
               inkscape:connector-curvature="0" />
          </g>
          <g
             transform="translate(343.3828,555.1924)"
             id="g3921">
            <path
               id="path3923"
               style="fill:#fcd213;fill-opacity:1;fill-rule:nonzero;stroke:none"
               d="m 0,0 c -2.582,0 -4.672,-1.126 -4.672,-1.654 0,-0.529 2.096,-1.635 4.678,-1.635 C 0.594,-1.381 0,0 0,0"
               inkscape:connector-curvature="0" />
          </g>
          <g
             transform="translate(219.0142,555.1924)"
             id="g3925">
            <path
               id="path3927"
               style="fill:#fcd213;fill-opacity:1;fill-rule:nonzero;stroke:none"
               d="M 0,0 C 2.928,0 4.67,-1.472 4.67,-1.654 4.67,-2.183 2.574,-3.289 -0.006,-3.289 -0.597,-1.381 0,0 0,0"
               inkscape:connector-curvature="0" />
          </g>
          <g
             transform="translate(339.2617,564.2178)"
             id="g3929">
            <path
               id="path3931"
               style="fill:#fcd213;fill-opacity:1;fill-rule:nonzero;stroke:none"
               d="M 0,0 -1.99,-3.77 H -4.361 L -2.371,0 Z"
               inkscape:connector-curvature="0" />
          </g>
          <g
             transform="translate(332.6719,564.2178)"
             id="g3933">
            <path
               id="path3935"
               style="fill:#fcd213;fill-opacity:1;fill-rule:nonzero;stroke:none"
               d="M 0,0 -1.99,-3.77 H -4.361 L -2.371,0 Z"
               inkscape:connector-curvature="0" />
          </g>
          <g
             transform="translate(326.082,564.2178)"
             id="g3937">
            <path
               id="path3939"
               style="fill:#fcd213;fill-opacity:1;fill-rule:nonzero;stroke:none"
               d="M 0,0 -1.99,-3.77 H -4.357 L -2.369,0 Z"
               inkscape:connector-curvature="0" />
          </g>
          <g
             transform="translate(319.4961,564.2178)"
             id="g3941">
            <path
               id="path3943"
               style="fill:#fcd213;fill-opacity:1;fill-rule:nonzero;stroke:none"
               d="M 0,0 -1.992,-3.77 H -4.363 L -2.373,0 Z"
               inkscape:connector-curvature="0" />
          </g>
          <g
             transform="translate(312.9082,564.2178)"
             id="g3945">
            <path
               id="path3947"
               style="fill:#fcd213;fill-opacity:1;fill-rule:nonzero;stroke:none"
               d="M 0,0 -1.992,-3.77 H -4.363 L -2.373,0 Z"
               inkscape:connector-curvature="0" />
          </g>
          <g
             transform="translate(306.3179,564.2178)"
             id="g3949">
            <path
               id="path3951"
               style="fill:#fcd213;fill-opacity:1;fill-rule:nonzero;stroke:none"
               d="M 0,0 -1.99,-3.77 H -4.363 L -2.371,0 Z"
               inkscape:connector-curvature="0" />
          </g>
          <g
             transform="translate(299.729,564.2178)"
             id="g3953">
            <path
               id="path3955"
               style="fill:#fcd213;fill-opacity:1;fill-rule:nonzero;stroke:none"
               d="M 0,0 -1.99,-3.77 H -4.361 L -2.372,0 Z"
               inkscape:connector-curvature="0" />
          </g>
          <g
             transform="translate(293.1401,564.2178)"
             id="g3957">
            <path
               id="path3959"
               style="fill:#fcd213;fill-opacity:1;fill-rule:nonzero;stroke:none"
               d="M 0,0 -1.989,-3.77 H -4.36 L -2.373,0 Z"
               inkscape:connector-curvature="0" />
          </g>
          <g
             transform="translate(286.5503,564.2178)"
             id="g3961">
            <path
               id="path3963"
               style="fill:#fcd213;fill-opacity:1;fill-rule:nonzero;stroke:none"
               d="M 0,0 -1.99,-3.77 H -4.36 L -2.371,0 Z"
               inkscape:connector-curvature="0" />
          </g>
          <g
             transform="translate(279.9624,564.2178)"
             id="g3965">
            <path
               id="path3967"
               style="fill:#fcd213;fill-opacity:1;fill-rule:nonzero;stroke:none"
               d="M 0,0 -1.991,-3.77 H -4.359 L -2.372,0 Z"
               inkscape:connector-curvature="0" />
          </g>
          <g
             transform="translate(273.3726,564.2178)"
             id="g3969">
            <path
               id="path3971"
               style="fill:#fcd213;fill-opacity:1;fill-rule:nonzero;stroke:none"
               d="M 0,0 -1.989,-3.77 H -4.362 L -2.371,0 Z"
               inkscape:connector-curvature="0" />
          </g>
          <g
             transform="translate(266.7847,564.2178)"
             id="g3973">
            <path
               id="path3975"
               style="fill:#fcd213;fill-opacity:1;fill-rule:nonzero;stroke:none"
               d="M 0,0 -1.991,-3.77 H -4.36 L -2.37,0 Z"
               inkscape:connector-curvature="0" />
          </g>
          <g
             transform="translate(260.1958,564.2178)"
             id="g3977">
            <path
               id="path3979"
               style="fill:#fcd213;fill-opacity:1;fill-rule:nonzero;stroke:none"
               d="M 0,0 -1.99,-3.77 H -4.361 L -2.371,0 Z"
               inkscape:connector-curvature="0" />
          </g>
          <g
             transform="translate(253.6079,564.2178)"
             id="g3981">
            <path
               id="path3983"
               style="fill:#fcd213;fill-opacity:1;fill-rule:nonzero;stroke:none"
               d="M 0,0 -1.99,-3.77 H -4.362 L -2.371,0 Z"
               inkscape:connector-curvature="0" />
          </g>
          <g
             transform="translate(247.02,564.2178)"
             id="g3985">
            <path
               id="path3987"
               style="fill:#fcd213;fill-opacity:1;fill-rule:nonzero;stroke:none"
               d="m 0,0 -1.992,-3.77 h -2.37 L -2.374,0 Z"
               inkscape:connector-curvature="0" />
          </g>
          <g
             transform="translate(240.4272,564.2178)"
             id="g3989">
            <path
               id="path3991"
               style="fill:#fcd213;fill-opacity:1;fill-rule:nonzero;stroke:none"
               d="M 0,0 -1.989,-3.77 H -4.358 L -2.369,0 Z"
               inkscape:connector-curvature="0" />
          </g>
          <g
             transform="translate(233.8423,564.2178)"
             id="g3993">
            <path
               id="path3995"
               style="fill:#fcd213;fill-opacity:1;fill-rule:nonzero;stroke:none"
               d="M 0,0 -1.992,-3.77 H -4.361 L -2.373,0 Z"
               inkscape:connector-curvature="0" />
          </g>
          <g
             transform="translate(227.2485,564.2178)"
             id="g3997">
            <path
               id="path3999"
               style="fill:#fcd213;fill-opacity:1;fill-rule:nonzero;stroke:none"
               d="m 0,0 -1.988,-3.77 h -2.37 L -2.37,0 Z"
               inkscape:connector-curvature="0" />
          </g>
          <g
             transform="translate(232.2642,575.4453)"
             id="g4001">
            <path
               id="path4003"
               style="fill:#15559b;fill-opacity:1;fill-rule:nonzero;stroke:none"
               d="M 0,0 C 0.778,0 1.408,0.631 1.408,1.41 1.408,2.188 0.778,2.819 0,2.819 -0.776,2.819 -1.406,2.188 -1.406,1.41 -1.406,0.631 -0.776,0 0,0"
               inkscape:connector-curvature="0" />
          </g>
          <g
             transform="translate(238.3774,575.4453)"
             id="g4005">
            <path
               id="path4007"
               style="fill:#15559b;fill-opacity:1;fill-rule:nonzero;stroke:none"
               d="M 0,0 C 0.777,0 1.406,0.631 1.406,1.41 1.406,2.188 0.777,2.819 0,2.819 -0.777,2.819 -1.406,2.188 -1.406,1.41 -1.406,0.631 -0.777,0 0,0"
               inkscape:connector-curvature="0" />
          </g>
          <g
             transform="translate(232.2642,567.8618)"
             id="g4009">
            <path
               id="path4011"
               style="fill:#15559b;fill-opacity:1;fill-rule:nonzero;stroke:none"
               d="M 0,0 C 0.778,0 1.408,0.634 1.408,1.41 1.408,2.189 0.778,2.821 0,2.821 -0.776,2.821 -1.406,2.189 -1.406,1.41 -1.406,0.634 -0.776,0 0,0"
               inkscape:connector-curvature="0" />
          </g>
          <g
             transform="translate(238.3774,567.8618)"
             id="g4013">
            <path
               id="path4015"
               style="fill:#15559b;fill-opacity:1;fill-rule:nonzero;stroke:none"
               d="M 0,0 C 0.777,0 1.406,0.634 1.406,1.41 1.406,2.189 0.777,2.821 0,2.821 -0.777,2.821 -1.406,2.189 -1.406,1.41 -1.406,0.634 -0.777,0 0,0"
               inkscape:connector-curvature="0" />
          </g>
          <g
             transform="translate(235.2856,571.6548)"
             id="g4017">
            <path
               id="path4019"
               style="fill:#15559b;fill-opacity:1;fill-rule:nonzero;stroke:none"
               d="M 0,0 C 0.777,0 1.408,0.63 1.408,1.41 1.408,2.189 0.777,2.819 0,2.819 -0.777,2.819 -1.405,2.189 -1.405,1.41 -1.405,0.63 -0.777,0 0,0"
               inkscape:connector-curvature="0" />
          </g>
          <g
             transform="translate(324.2305,575.4453)"
             id="g4021">
            <path
               id="path4023"
               style="fill:#15559b;fill-opacity:1;fill-rule:nonzero;stroke:none"
               d="M 0,0 C 0.779,0 1.408,0.631 1.408,1.41 1.408,2.188 0.779,2.819 0,2.819 -0.775,2.819 -1.406,2.188 -1.406,1.41 -1.406,0.631 -0.775,0 0,0"
               inkscape:connector-curvature="0" />
          </g>
          <g
             transform="translate(330.3438,575.4453)"
             id="g4025">
            <path
               id="path4027"
               style="fill:#15559b;fill-opacity:1;fill-rule:nonzero;stroke:none"
               d="M 0,0 C 0.777,0 1.408,0.631 1.408,1.41 1.408,2.188 0.777,2.819 0,2.819 -0.775,2.819 -1.408,2.188 -1.408,1.41 -1.408,0.631 -0.775,0 0,0"
               inkscape:connector-curvature="0" />
          </g>
          <g
             transform="translate(324.2305,567.8618)"
             id="g4029">
            <path
               id="path4031"
               style="fill:#15559b;fill-opacity:1;fill-rule:nonzero;stroke:none"
               d="M 0,0 C 0.779,0 1.408,0.634 1.408,1.41 1.408,2.189 0.779,2.821 0,2.821 -0.775,2.821 -1.406,2.189 -1.406,1.41 -1.406,0.634 -0.775,0 0,0"
               inkscape:connector-curvature="0" />
          </g>
          <g
             transform="translate(330.3438,567.8618)"
             id="g4033">
            <path
               id="path4035"
               style="fill:#15559b;fill-opacity:1;fill-rule:nonzero;stroke:none"
               d="M 0,0 C 0.777,0 1.408,0.634 1.408,1.41 1.408,2.189 0.777,2.821 0,2.821 -0.775,2.821 -1.408,2.189 -1.408,1.41 -1.408,0.634 -0.775,0 0,0"
               inkscape:connector-curvature="0" />
          </g>
          <g
             transform="translate(327.2539,571.6548)"
             id="g4037">
            <path
               id="path4039"
               style="fill:#15559b;fill-opacity:1;fill-rule:nonzero;stroke:none"
               d="M 0,0 C 0.775,0 1.404,0.63 1.404,1.41 1.404,2.189 0.775,2.819 0,2.819 -0.779,2.819 -1.408,2.189 -1.408,1.41 -1.408,0.63 -0.779,0 0,0"
               inkscape:connector-curvature="0" />
          </g>
          <g
             transform="translate(314.5664,569.3799)"
             id="g4041">
            <path
               id="path4043"
               style="fill:#15559b;fill-opacity:1;fill-rule:nonzero;stroke:none"
               d="M 0,0 C 1.883,0 3.412,1.53 3.412,3.418 V 3.915 C 3.412,5.803 1.883,7.333 0,7.333 h -4.904 c -1.885,0 -3.412,-1.53 -3.412,-3.418 V 3.418 C -8.316,1.53 -6.789,0 -4.904,0 Z"
               inkscape:connector-curvature="0" />
          </g>
          <g
             transform="translate(314.1055,571.1611)"
             id="g4045">
            <path
               id="path4047"
               style="fill:#fcd213;fill-opacity:1;fill-rule:nonzero;stroke:none"
               d="M 0,0 C 1.039,0 1.883,0.843 1.883,1.885 1.883,2.929 1.039,3.772 0,3.772 H -3.98 C -5.021,3.772 -5.863,2.929 -5.863,1.885 -5.863,0.843 -5.021,0 -3.98,0 Z"
               inkscape:connector-curvature="0" />
          </g>
          <g
             transform="translate(294.4536,575.4453)"
             id="g4049">
            <path
               id="path4051"
               style="fill:#15559b;fill-opacity:1;fill-rule:nonzero;stroke:none"
               d="M 0,0 C 0.776,0 1.405,0.631 1.405,1.41 1.405,2.188 0.776,2.819 0,2.819 -0.777,2.819 -1.41,2.188 -1.41,1.41 -1.41,0.631 -0.777,0 0,0"
               inkscape:connector-curvature="0" />
          </g>
          <g
             transform="translate(300.5669,575.4453)"
             id="g4053">
            <path
               id="path4055"
               style="fill:#15559b;fill-opacity:1;fill-rule:nonzero;stroke:none"
               d="M 0,0 C 0.776,0 1.405,0.631 1.405,1.41 1.405,2.188 0.776,2.819 0,2.819 -0.779,2.819 -1.408,2.188 -1.408,1.41 -1.408,0.631 -0.779,0 0,0"
               inkscape:connector-curvature="0" />
          </g>
          <g
             transform="translate(294.4536,567.8618)"
             id="g4057">
            <path
               id="path4059"
               style="fill:#15559b;fill-opacity:1;fill-rule:nonzero;stroke:none"
               d="M 0,0 C 0.776,0 1.405,0.634 1.405,1.41 1.405,2.189 0.776,2.821 0,2.821 -0.777,2.821 -1.41,2.189 -1.41,1.41 -1.41,0.634 -0.777,0 0,0"
               inkscape:connector-curvature="0" />
          </g>
          <g
             transform="translate(300.5669,567.8618)"
             id="g4061">
            <path
               id="path4063"
               style="fill:#15559b;fill-opacity:1;fill-rule:nonzero;stroke:none"
               d="M 0,0 C 0.776,0 1.405,0.634 1.405,1.41 1.405,2.189 0.776,2.821 0,2.821 -0.779,2.821 -1.408,2.189 -1.408,1.41 -1.408,0.634 -0.779,0 0,0"
               inkscape:connector-curvature="0" />
          </g>
          <g
             transform="translate(297.4731,571.6548)"
             id="g4065">
            <path
               id="path4067"
               style="fill:#15559b;fill-opacity:1;fill-rule:nonzero;stroke:none"
               d="M 0,0 C 0.778,0 1.406,0.63 1.406,1.41 1.406,2.189 0.778,2.819 0,2.819 -0.777,2.819 -1.406,2.189 -1.406,1.41 -1.406,0.63 -0.777,0 0,0"
               inkscape:connector-curvature="0" />
          </g>
          <g
             transform="translate(252.9458,569.3799)"
             id="g4069">
            <path
               id="path4071"
               style="fill:#15559b;fill-opacity:1;fill-rule:nonzero;stroke:none"
               d="M 0,0 C 1.886,0 3.412,1.53 3.412,3.418 V 3.915 C 3.412,5.803 1.886,7.333 0,7.333 h -4.902 c -1.885,0 -3.412,-1.53 -3.412,-3.418 V 3.418 C -8.314,1.53 -6.787,0 -4.902,0 Z"
               inkscape:connector-curvature="0" />
          </g>
          <g
             transform="translate(252.4849,571.1611)"
             id="g4073">
            <path
               id="path4075"
               style="fill:#fcd213;fill-opacity:1;fill-rule:nonzero;stroke:none"
               d="M 0,0 C 1.041,0 1.883,0.843 1.883,1.885 1.883,2.929 1.041,3.772 0,3.772 H -3.98 C -5.02,3.772 -5.863,2.929 -5.863,1.885 -5.863,0.843 -5.02,0 -3.98,0 Z"
               inkscape:connector-curvature="0" />
          </g>
          <path
             id="path4077"
             style="fill:#15559b;fill-opacity:1;fill-rule:nonzero;stroke:none"
             d="m 288.54,576.965 h -14.469 v -7.838 h 14.469 z"
             inkscape:connector-curvature="0" />
          <path
             id="path4079"
             style="fill:#fcd213;fill-opacity:1;fill-rule:nonzero;stroke:none"
             d="M 286.743,575.004 H 275.87 v -3.915 h 10.873 z"
             inkscape:connector-curvature="0" />
          <g
             transform="translate(262.188,575.4453)"
             id="g4081">
            <path
               id="path4083"
               style="fill:#15559b;fill-opacity:1;fill-rule:nonzero;stroke:none"
               d="M 0,0 C 0.775,0 1.404,0.631 1.404,1.41 1.404,2.188 0.775,2.819 0,2.819 -0.777,2.819 -1.409,2.188 -1.409,1.41 -1.409,0.631 -0.777,0 0,0"
               inkscape:connector-curvature="0" />
          </g>
          <g
             transform="translate(268.2993,575.4453)"
             id="g4085">
            <path
               id="path4087"
               style="fill:#15559b;fill-opacity:1;fill-rule:nonzero;stroke:none"
               d="M 0,0 C 0.774,0 1.406,0.631 1.406,1.41 1.406,2.188 0.774,2.819 0,2.819 -0.778,2.819 -1.408,2.188 -1.408,1.41 -1.408,0.631 -0.778,0 0,0"
               inkscape:connector-curvature="0" />
          </g>
          <g
             transform="translate(262.188,567.8618)"
             id="g4089">
            <path
               id="path4091"
               style="fill:#15559b;fill-opacity:1;fill-rule:nonzero;stroke:none"
               d="M 0,0 C 0.775,0 1.404,0.634 1.404,1.41 1.404,2.189 0.775,2.821 0,2.821 -0.777,2.821 -1.409,2.189 -1.409,1.41 -1.409,0.634 -0.777,0 0,0"
               inkscape:connector-curvature="0" />
          </g>
          <g
             transform="translate(268.2993,567.8618)"
             id="g4093">
            <path
               id="path4095"
               style="fill:#15559b;fill-opacity:1;fill-rule:nonzero;stroke:none"
               d="M 0,0 C 0.774,0 1.406,0.634 1.406,1.41 1.406,2.189 0.774,2.821 0,2.821 -0.778,2.821 -1.408,2.189 -1.408,1.41 -1.408,0.634 -0.778,0 0,0"
               inkscape:connector-curvature="0" />
          </g>
          <g
             transform="translate(265.2075,571.6548)"
             id="g4097">
            <path
               id="path4099"
               style="fill:#15559b;fill-opacity:1;fill-rule:nonzero;stroke:none"
               d="M 0,0 C 0.775,0 1.408,0.63 1.408,1.41 1.408,2.189 0.775,2.819 0,2.819 -0.777,2.819 -1.408,2.189 -1.408,1.41 -1.408,0.63 -0.777,0 0,0"
               inkscape:connector-curvature="0" />
          </g>
          <g
             transform="translate(281.3042,551.4751)"
             id="g4101">
            <path
               id="path4103"
               style="fill:#15559b;fill-opacity:1;fill-rule:nonzero;stroke:none"
               d="M 0,0 C 4.025,0 7.286,0.924 7.286,2.063 7.286,3.204 4.025,4.128 0,4.128 -4.024,4.128 -7.286,3.204 -7.286,2.063 -7.286,0.924 -4.024,0 0,0"
               inkscape:connector-curvature="0" />
          </g>
          <g
             transform="translate(281.3042,552.582)"
             id="g4105">
            <path
               id="path4107"
               style="fill:#fcd213;fill-opacity:1;fill-rule:nonzero;stroke:none"
               d="M 0,0 C 2.581,0 4.674,0.427 4.674,0.957 4.674,1.484 2.581,1.912 0,1.912 -2.581,1.912 -4.673,1.484 -4.673,0.957 -4.673,0.427 -2.581,0 0,0"
               inkscape:connector-curvature="0" />
          </g>
          <g
             transform="translate(311.6875,551.4751)"
             id="g4109">
            <path
               id="path4111"
               style="fill:#15559b;fill-opacity:1;fill-rule:nonzero;stroke:none"
               d="M 0,0 C 4.025,0 7.287,0.924 7.287,2.063 7.287,3.204 4.025,4.128 0,4.128 -4.025,4.128 -7.288,3.204 -7.288,2.063 -7.288,0.924 -4.025,0 0,0"
               inkscape:connector-curvature="0" />
          </g>
          <g
             transform="translate(311.6875,552.582)"
             id="g4113">
            <path
               id="path4115"
               style="fill:#fcd213;fill-opacity:1;fill-rule:nonzero;stroke:none"
               d="M 0,0 C 2.58,0 4.672,0.427 4.672,0.957 4.672,1.484 2.58,1.912 0,1.912 -2.58,1.912 -4.674,1.484 -4.674,0.957 -4.674,0.427 -2.58,0 0,0"
               inkscape:connector-curvature="0" />
          </g>
          <g
             transform="translate(251.1343,551.4751)"
             id="g4117">
            <path
               id="path4119"
               style="fill:#15559b;fill-opacity:1;fill-rule:nonzero;stroke:none"
               d="M 0,0 C 4.024,0 7.288,0.924 7.288,2.063 7.288,3.204 4.024,4.128 0,4.128 -4.024,4.128 -7.288,3.204 -7.288,2.063 -7.288,0.924 -4.024,0 0,0"
               inkscape:connector-curvature="0" />
          </g>
          <g
             transform="translate(251.1343,552.582)"
             id="g4121">
            <path
               id="path4123"
               style="fill:#fcd213;fill-opacity:1;fill-rule:nonzero;stroke:none"
               d="M 0,0 C 2.583,0 4.675,0.427 4.675,0.957 4.675,1.484 2.583,1.912 0,1.912 -2.581,1.912 -4.673,1.484 -4.673,0.957 -4.673,0.427 -2.581,0 0,0"
               inkscape:connector-curvature="0" />
          </g>
          <g
             transform="translate(408.6797,529.8301)"
             id="g4125">
            <path
               id="path4127"
               style="fill:#fcd213;fill-opacity:1;fill-rule:nonzero;stroke:none"
               d="m 0,0 v -78.516 c 0,-16.087 -5.494,-33.776 -10.109,-49.073 -15.651,-49.72 -54.221,-94.327 -101.193,-119.548 l -12.29,-6.189 -4.794,-2.281 -4.793,2.281 -12.291,6.189 c -46.971,25.221 -85.541,69.828 -101.192,119.548 -4.615,15.297 -10.075,32.986 -10.075,49.594 v 77.994 0.002 c 0,18.791 -1.781,17.306 21.677,17.306 h 46.441 c 0.848,-0.507 1.949,-0.948 3.381,-1.128 h 115.873 c 1.504,0.159 2.642,0.592 3.506,1.128 h 44.197 C 1.797,17.307 0,18.791 0,0"
               inkscape:connector-curvature="0" />
          </g>
          <g
             transform="translate(253.3472,310.3008)"
             id="g4129" />
          <g
             transform="translate(253.3472,312.3652)"
             id="g4133" />
          <g
             transform="translate(260.1724,325.3574)"
             id="g4137" />
          <g
             transform="translate(277.3569,323.502)"
             id="g4141" />
          <g
             transform="translate(280.5444,325.3926)"
             id="g4145" />
          <g
             transform="translate(282.5649,316.8789)"
             id="g4149" />
          <g
             transform="translate(295.4878,319.7852)"
             id="g4153" />
          <g
             transform="translate(292.4194,323.3027)"
             id="g4157" />
          <g
             transform="translate(307.2813,310.3008)"
             id="g4163" />
          <g
             transform="translate(307.2813,312.3652)"
             id="g4167" />
          <g
             transform="translate(217.1958,374.9238)"
             id="g4171" />
          <g
             transform="translate(217.1978,462.7632)"
             id="g4175" />
          <g
             transform="translate(282.187,372.1895)"
             id="g4179" />
          <g
             transform="translate(282.187,388.7031)"
             id="g4183" />
          <g
             transform="translate(355.9473,372.1895)"
             id="g4187" />
          <g
             transform="translate(355.9473,388.7031)"
             id="g4191" />
        </g>
      </g>
      <g
         transform="translate(-409.57092,-5.40678)"
         id="g8170">
        <g
           id="g5934"
           transform="matrix(1.25,0,0,-1.25,836.46502,309.25488)">
          <path
             inkscape:connector-curvature="0"
             d="m 0,0 v 4.732 c 3.06,0.147 6.629,-0.728 8.568,3.881 0.877,1.932 1.37,4.151 1.319,6.725 v 105.761 c -0.296,3.299 -1.711,6.686 -3.654,7.825 -1.941,1.164 -4.24,0.455 -6.393,0.81 v 4.771 h 63.48 v -46.08 l -2.803,-0.704 c -1.281,9.092 -3.014,17.849 -6.371,25.468 -5.829,12.227 -14.178,18.309 -23.463,15.133 -2.03,-0.497 -4.035,-2.697 -4.994,-5.979 -0.615,-2.073 -0.502,-4.4 -0.502,-6.911 V 72.027 c 3.138,-0.31 6.528,0.188 9.146,2.698 1.083,1.038 2.08,2.222 3.037,3.593 2.917,4.233 4.305,9.942 4.675,16.084 l 0.172,3.315 h 2.718 v -59.24 c -0.948,-0.082 -2.08,-0.082 -3.039,0 -0.196,8.488 -1.695,16.05 -5.164,22.261 -2.519,4.399 -5.706,6.473 -9.357,6.473 L 25.187,67.107 V 13.992 c 0.076,-3.199 1.313,-6.351 3.097,-7.767 2.362,-2.073 5.362,-2 8.179,-1.92 2.159,0.066 4.512,0.799 6.43,2.17 5.386,3.427 10.33,11.191 13.639,19.472 0.786,2.366 1.759,4.608 2.238,7.18 l -0.012,-0.039 -0.062,0.102 0.026,0.039 0.022,-0.057 c 1.257,5.228 1.415,11.104 1.919,16.791 l 2.834,-0.291 V 0 Z"
             style="fill:#15559b;fill-opacity:1;fill-rule:nonzero;stroke:none"
             id="path5936" />
        </g>
        <g
           id="g5938"
           transform="matrix(1.25,0,0,-1.25,1016.4246,141.12375)">
          <path
             inkscape:connector-curvature="0"
             d="m 0,0 v -4.485 c 1.189,-0.064 2.382,-0.194 3.476,-0.629 2.556,-1.037 5.127,-5.107 5.545,-9.614 0.664,-4.75 -0.861,-8.818 -1.39,-13.156 l -10.439,-59.637 -13.216,72.142 c -0.554,2.306 -0.665,5.356 0.21,7.474 1.291,3.674 3.833,3.14 6.097,3.326 V 0 h -30.498 v -4.579 c 0.91,-0.145 1.873,-0.172 2.733,-0.547 2.078,-0.974 4.292,-3.754 4.957,-7.409 l 3.809,-20.093 -9.739,-54.343 -13.168,72.879 c -0.31,2.739 0.267,5.085 1.326,6.976 1.291,2.428 3.274,2.289 5.115,2.537 V 0 h -30.285 v -4.565 c 0.709,0.042 1.326,-0.186 2.002,-0.309 2.348,-0.584 4.572,-4.027 5.115,-7.911 l 22.891,-121.72 h 3.082 l 15.667,90.026 16.7,-90.026 h 2.783 l 20.295,112.35 c 0.759,3.777 1.623,7.41 3.245,10.503 2.497,4.38 5.626,6.166 9.033,6.827 V 0 Z"
             style="fill:#15559b;fill-opacity:1;fill-rule:nonzero;stroke:none"
             id="path5940" />
        </g>
        <g
           id="g5942"
           transform="matrix(1.25,0,0,-1.25,861.1549,365.78813)">
          <path
             inkscape:connector-curvature="0"
             d="m 0,0 c 4.279,0 4.325,5.25 4.325,7.789 0,2.539 -0.103,7.789 -4.325,7.789 -4.221,0 -4.329,-5.25 -4.329,-7.789 C -4.329,5.25 -4.285,0 0,0"
             style="fill:#15559b;fill-opacity:1;fill-rule:nonzero;stroke:none"
             id="path5944" />
        </g>
        <g
           id="g5946"
           transform="matrix(1.25,0,0,-1.25,861.1549,363.18313)">
          <path
             inkscape:connector-curvature="0"
             d="M 0,0 C 1.802,0 2.241,2.553 2.241,5.705 2.241,8.855 1.796,11.41 0,11.41 -1.803,11.41 -2.247,8.855 -2.247,5.705 -2.247,2.553 -1.807,0 0,0"
             style="fill:#fcd213;fill-opacity:1;fill-rule:nonzero;stroke:none"
             id="path5948" />
        </g>
        <g
           id="g5950"
           transform="matrix(1.25,0,0,-1.25,869.75965,346.7695)">
          <path
             inkscape:connector-curvature="0"
             d="M 0,0 H 1.631 L 6.088,-9.609 V 0 h 2.1 V -14.873 H 6.105 l -3.99,8.754 v -8.754 H 0 Z"
             style="fill:#15559b;fill-opacity:1;fill-rule:nonzero;stroke:none"
             id="path5952" />
        </g>
        <g
           id="g5954"
           transform="matrix(1.25,0,0,-1.25,891.42652,349.11575)">
          <path
             inkscape:connector-curvature="0"
             d="M 0,0 H -2.714 V -12.996 H -4.809 V 0 H -7.457 V 1.883 H 0 Z"
             style="fill:#15559b;fill-opacity:1;fill-rule:nonzero;stroke:none"
             id="path5956" />
        </g>
        <g
           id="g5958"
           transform="matrix(1.25,0,0,-1.25,895.44565,346.7305)">
          <path
             inkscape:connector-curvature="0"
             d="M 0,0 H 2.07 L 5.787,-14.904 H 3.661 l -1.076,4.187 h -3 l -1.037,-4.187 h -2.141 z"
             style="fill:#15559b;fill-opacity:1;fill-rule:nonzero;stroke:none"
             id="path5960" />
        </g>
        <g
           id="g5962"
           transform="matrix(1.25,0,0,-1.25,897.99202,357.4775)">
          <path
             inkscape:connector-curvature="0"
             d="m 0,0 h -1.948 l 0.954,3.959 z"
             style="fill:#fcd213;fill-opacity:1;fill-rule:nonzero;stroke:none"
             id="path5964" />
        </g>
        <g
           id="g5966"
           transform="matrix(1.25,0,0,-1.25,914.28352,353.813)">
          <path
             inkscape:connector-curvature="0"
             d="M 0,0 C -0.303,-0.795 -1.037,-1.529 -1.756,-1.895 L 0.383,-9.238 H -1.801 L -3.832,-2.32 H -5.754 V -9.238 H -7.857 V 5.635 h 5.082 c 1.77,0 2.864,-1.821 2.986,-3.096 C 0.27,1.705 0.294,0.775 0,0"
             style="fill:#15559b;fill-opacity:1;fill-rule:nonzero;stroke:none"
             id="path5968" />
        </g>
        <g
           id="g5970"
           transform="matrix(1.25,0,0,-1.25,910.4164,349.36962)">
          <path
             inkscape:connector-curvature="0"
             d="M 0,0 C 0.415,-0.021 0.802,-0.23 1.02,-0.6 1.369,-1.18 1.349,-2.01 1.198,-2.672 1.102,-3.119 0.707,-3.555 0.261,-3.668 L 0.012,-3.732 H -2.66 v 3.726 z"
             style="fill:#fcd213;fill-opacity:1;fill-rule:nonzero;stroke:none"
             id="path5972" />
        </g>
        <path
           inkscape:connector-curvature="0"
           d="m 920.66965,346.692 h -2.69875 v 18.67 h 2.69875 z"
           style="fill:#15559b;fill-opacity:1;fill-rule:nonzero;stroke:none"
           id="path5974" />
        <g
           id="g5976"
           transform="matrix(1.25,0,0,-1.25,929.15415,365.78813)">
          <path
             inkscape:connector-curvature="0"
             d="m 0,0 c 4.277,0 4.322,5.25 4.322,7.789 0,2.539 -0.101,7.789 -4.322,7.789 -4.223,0 -4.323,-5.25 -4.323,-7.789 C -4.323,5.25 -4.279,0 0,0"
             style="fill:#15559b;fill-opacity:1;fill-rule:nonzero;stroke:none"
             id="path5978" />
        </g>
        <g
           id="g5980"
           transform="matrix(1.25,0,0,-1.25,929.15415,363.18313)">
          <path
             inkscape:connector-curvature="0"
             d="M 0,0 C 1.803,0 2.246,2.553 2.246,5.705 2.246,8.855 1.796,11.41 0,11.41 -1.796,11.41 -2.24,8.855 -2.24,5.705 -2.24,2.553 -1.803,0 0,0"
             style="fill:#fcd213;fill-opacity:1;fill-rule:nonzero;stroke:none"
             id="path5982" />
        </g>
        <g
           id="g5984"
           transform="matrix(1.25,0,0,-1.25,805.56715,332.88775)">
          <path
             inkscape:connector-curvature="0"
             d="m 0,0 c -1.902,1.881 -3.66,6.064 -4.081,9.121 l -1.074,10.473 c 0.048,0.648 -0.076,1.273 -0.113,1.922 h -0.333 c -5.433,-2.696 -12.387,-3.993 -17.758,-0.106 -1.781,1.151 -3.6,2.584 -5.247,4.32 -1.644,1.735 -3.266,4.086 -4.824,6.262 -5.136,7.903 -8.873,17.588 -11.287,27.809 -3.871,16.017 -3.921,37.723 -0.405,54.056 2.264,11.878 6.617,22.772 12.77,31.512 3.017,4.012 6.259,7.069 9.86,8.721 5.679,2.759 12.657,1.734 17.719,-2.594 C -1.048,148.568 2.28,143.883 5.36,138.595 14.257,122.577 17.623,102.233 16.757,79.73 15.94,65.952 13.168,53.549 8.542,42.424 7.23,39.039 5.768,35.607 3.939,32.705 L 4.191,32.148 8.417,21.41 c 0.78,-2.236 2.042,-5.267 3.835,-5.121 1.586,-0.375 2.981,0.922 3.886,2.967 1.349,3.012 0.83,7.424 1.251,11.043 1.063,0.123 2.19,-0.041 3.291,-0.065 C 20.655,26.867 20.394,23.457 20.319,20.096 19.863,14.199 18.922,8.488 16.646,3.787 16.053,2.887 15.556,1.527 14.864,0.838 l -2.66,-2.615 c 0,0 -1.516,-1.203 -4.051,-1.256 0,0 -5.512,0.035 -8.153,3.033"
             style="fill:#15559b;fill-opacity:1;fill-rule:nonzero;stroke:none"
             id="path5986" />
        </g>
        <g
           id="g5988"
           transform="matrix(1.25,0,0,-1.25,799.49227,158.78125)">
          <path
             inkscape:connector-curvature="0"
             d="m 0,0 c 2.412,-6.17 3.439,-13.3 4.158,-20.66 l 0.829,-10.203 c 0.224,-5.106 0.446,-10.207 0.481,-15.561 l 0.176,-24.422 c -0.138,-8.321 -0.509,-16.748 -1.635,-24.508 -0.805,1.694 -1.597,3.68 -2.526,5.27 -4.131,7.174 -9.489,12.189 -15.464,8.947 -4.345,-2.425 -7.747,-9.824 -7.998,-17.519 -0.059,-1.465 -0.022,-2.99 0.09,-4.375 -1.805,5.129 -2.473,11.068 -3.229,16.922 -0.345,3.488 -0.657,7.024 -0.779,10.683 l -0.495,18.319 c -0.185,6.92 -0.285,14.447 -0.15,21.032 l 0.555,10.438 c 0.794,9.975 1.672,19.888 5.321,27.852 2.404,4.685 5.348,7.591 8.852,7.99 C -6.88,10.852 -2.674,6.981 0,0"
             style="fill:#fcd213;fill-opacity:1;fill-rule:nonzero;stroke:none"
             id="path5990" />
        </g>
        <g
           id="g5992"
           transform="matrix(1.25,0,0,-1.25,777.63802,298.752)">
          <path
             inkscape:connector-curvature="0"
             d="m 0,0 c -2.874,4.65 -2.292,15.326 -0.063,20.703 2.251,5.414 6.039,7.566 9.8,6.061 2.006,-0.919 4.011,-3.28 5.134,-6.461 2.068,-5.565 2.401,-12.44 2.167,-19.487 l -0.68,-0.902 C 13.438,-4.098 9.823,-5.816 5.878,-5.457 3.885,-5.104 1.509,-2.447 0,0"
             style="fill:#fcd213;fill-opacity:1;fill-rule:nonzero;stroke:none"
             id="path5994" />
        </g>
      </g>
    </g>
  </g>
</svg>
