<?xml version="1.0" encoding="UTF-8" standalone="no"?>
<!-- Created with Inkscape (http://www.inkscape.org/) -->

<svg
   xmlns:dc="http://purl.org/dc/elements/1.1/"
   xmlns:cc="http://creativecommons.org/ns#"
   xmlns:rdf="http://www.w3.org/1999/02/22-rdf-syntax-ns#"
   xmlns:svg="http://www.w3.org/2000/svg"
   xmlns="http://www.w3.org/2000/svg"
   xmlns:sodipodi="http://sodipodi.sourceforge.net/DTD/sodipodi-0.dtd"
   xmlns:inkscape="http://www.inkscape.org/namespaces/inkscape"
   version="1.1"
   width="47.680992"
   height="48.00029"
   id="svg2"
   sodipodi:docname="CA:ON:secondary_3.svg"
   inkscape:version="0.92.3 (2405546, 2018-03-11)">
  <metadata
     id="metadata21">
    <rdf:RDF>
      <cc:Work
         rdf:about="">
        <dc:format>image/svg+xml</dc:format>
        <dc:type
           rdf:resource="http://purl.org/dc/dcmitype/StillImage" />
        <dc:title></dc:title>
      </cc:Work>
    </rdf:RDF>
  </metadata>
  <sodipodi:namedview
     pagecolor="#ffffff"
     bordercolor="#666666"
     borderopacity="1"
     objecttolerance="10"
     gridtolerance="10"
     guidetolerance="10"
     inkscape:pageopacity="0"
     inkscape:pageshadow="2"
     inkscape:window-width="640"
     inkscape:window-height="480"
     id="namedview19"
     showgrid="false"
     fit-margin-top="0"
     fit-margin-left="0"
     fit-margin-right="0"
     fit-margin-bottom="0"
     inkscape:zoom="8"
     inkscape:cx="11.906826"
     inkscape:cy="25.10614"
     inkscape:current-layer="text2816" />
  <defs
     id="defs6" />
  <path
     d="M 33.366055,0.05321541 H 14.314935 L 0.05321541,47.521355 v 0.42572 H 47.627775 v -0.42572 z"
     id="path2816"
     style="fill:#ffffff;fill-opacity:1;stroke:#000000;stroke-width:0.10643081px;stroke-linecap:butt;stroke-linejoin:miter;stroke-opacity:1"
     inkscape:connector-curvature="0" />
  <path
     d="m 14.687445,0.47893541 h 18.3061 L 46.989195,47.148845 v 0.37251 H 0.69179541 v -0.37251 z"
     id="path2818"
     style="color:#000000;font-style:normal;font-variant:normal;font-weight:normal;font-stretch:normal;font-size:medium;line-height:normal;font-family:'Andale Mono';-inkscape-font-specification:'Andale Mono';text-indent:0;text-align:start;text-decoration:none;text-decoration-line:none;letter-spacing:normal;word-spacing:normal;text-transform:none;writing-mode:lr-tb;direction:ltr;text-anchor:start;display:inline;overflow:visible;visibility:visible;fill:none;stroke:#000000;stroke-width:0.3192924;stroke-miterlimit:4;stroke-dasharray:none;stroke-opacity:1;marker:none;enable-background:accumulate"
     inkscape:connector-curvature="0" />
  <g
     id="text2816"
     style="font-style:normal;font-variant:normal;font-weight:normal;font-stretch:normal;font-size:202px;font-family:'Roadgeek 2005 Series C';-inkscape-font-specification:'Roadgeek 2005 Series C';text-align:center;text-anchor:middle;fill:#000000;fill-opacity:1;stroke:none"
     transform="matrix(0.1064308,0,0,0.1064308,-4.5931649e-6,-4.5931649e-6)">
    <text
       xml:space="preserve"
       style="font-style:normal;font-weight:normal;font-size:200.44323006px;line-height:125%;font-family:'Roadgeek 2005 Series C';text-align:center;letter-spacing:0px;word-spacing:0px;text-anchor:middle;fill:#000000;fill-opacity:1;stroke:none;stroke-width:9.39577675px;stroke-linecap:butt;stroke-linejoin:miter;stroke-opacity:1;-inkscape-font-specification:'Roadgeek 2005 Series C, Normal';font-stretch:normal;font-variant:normal;writing-mode:lr;font-variant-ligatures:normal;font-variant-caps:normal;font-variant-numeric:normal;font-feature-settings:normal;"
       x="220.80078"
       y="411.06799"
       id="text844"><tspan
         sodipodi:role="line"
         id="tspan846">%num%</tspan></text>
  </g>
  <g
     id="text2820"
     style="font-style:normal;font-variant:normal;font-weight:normal;font-stretch:normal;font-size:50px;font-family:'Roadgeek 2005 Series C';-inkscape-font-specification:'Roadgeek 2005 Series C';text-align:center;text-anchor:middle;fill:#000000;fill-opacity:1;stroke:none"
     transform="matrix(0.1064308,0,0,0.1064308,-4.5931649e-6,-4.5931649e-6)">
    <path
       d="m 168.39531,180.72736 c 0,-5.05 -0.5,-8.25 -1.9,-11.55 -1.65,-4.1 -4,-5.75 -7.85,-5.75 -3.89999,0 -6.25,1.65 -8,5.65 -1.4,3.2 -1.9,6.6 -1.9,11.65 0,5.14999 0.5,8.35 1.9,11.65 1.65,3.95 4.00001,5.75 8,5.75 3.75,0 6.2,-1.8 7.85,-5.75 1.4,-3.2 1.9,-6.50001 1.9,-11.65 m -4.6,0 c 0,3.85 -0.25,5.85 -1.05,8.55 -0.85,2.85 -2.1,4.15 -4.1,4.15 -2.15,0 -3.45,-1.3 -4.25,-4.15 -0.7,-2.7 -1.05,-4.8 -1.05,-8.45 0,-3.75 0.25,-6 1.05,-8.55 0.8,-2.85 2.1,-4.15 4.25,-4.15 2,0 3.25,1.3 4.1,4.25 0.7,2.45 1.05,4.6 1.05,8.35"
       id="path3628"
       inkscape:connector-curvature="0" />
    <path
       d="m 193.92656,197.52736 v -33.5 h -4.8 v 20.1 l -9.2,-20.1 h -4.8 v 33.5 h 4.8 v -22.45 l 10.35,22.45 h 3.65"
       id="path3630"
       inkscape:connector-curvature="0" />
    <path
       d="m 215.65078,168.47736 v -4.45 h -17.05 v 4.45 h 6.1 v 29.05 h 4.85 v -29.05 h 6.1"
       id="path3632"
       inkscape:connector-curvature="0" />
    <path
       d="m 239.04375,197.52736 -8.35,-33.5 h -4.7 l -8.35,33.5 h 4.85 l 2.2,-9.15 h 7.2 l 2.35,9.15 h 4.8 m -8.35,-13.85 h -4.8 l 2.35,-9.65 2.45,9.65"
       id="path3634"
       inkscape:connector-curvature="0" />
    <path
       d="m 262.48125,197.52736 -4.8,-16.45 c 3.15,-1.2 4.8,-4.1 4.8,-8.1 0,-5.4 -3.55001,-8.95 -8.8,-8.95 h -10 v 33.5 h 4.8 v -15.75 h 4.6 l 4.45,15.75 h 4.95 m -4.7,-24.55 c 0,2.7 -1.55,4.2 -4.35,4.2 h -4.95 v -8.45 h 4.95 c 2.6,0 4.35,1.65 4.35,4.25"
       id="path3636"
       inkscape:connector-curvature="0" />
    <path
       d="m 272.79531,197.52736 v -33.5 h -4.7 v 33.5 h 4.7"
       id="path3638"
       inkscape:connector-curvature="0" />
    <path
       d="m 299.25469,180.72736 c 0,-5.05 -0.5,-8.25 -1.9,-11.55 -1.65,-4.1 -4.00001,-5.75 -7.85,-5.75 -3.9,0 -6.25,1.65 -8,5.65 -1.4,3.2 -1.9,6.6 -1.9,11.65 0,5.14999 0.5,8.35 1.9,11.65 1.65,3.95 4,5.75 8,5.75 3.74999,0 6.2,-1.8 7.85,-5.75 1.4,-3.2 1.9,-6.50001 1.9,-11.65 m -4.6,0 c 0,3.85 -0.25,5.85 -1.05,8.55 -0.85,2.85 -2.1,4.15 -4.1,4.15 -2.15,0 -3.45,-1.3 -4.25,-4.15 -0.7,-2.7 -1.05,-4.8 -1.05,-8.45 0,-3.75 0.25,-6 1.05,-8.55 0.8,-2.85 2.1,-4.15 4.25,-4.15 2,0 3.25,1.3 4.1,4.25 0.7,2.45 1.05,4.6 1.05,8.35"
       id="path3640"
       inkscape:connector-curvature="0" />
  </g>
  <path
     d="m 27.143175,7.2273154 c -0.0356,0 -0.0799,0.0892 -0.0898,0.18625 -0.009,0.084 -0.0736,0.0686 -0.11308,-0.0266 -0.05,-0.12078 -0.1076,-0.1681 -0.17295,-0.14302 -0.1296,0.0497 -0.005,0.32318 0.1796,0.39579 0.24119,0.0948 0.45387,0.19656 0.50555,0.2428 0.0679,0.0608 0.0733,0.12204 0.01,0.14634 -0.0828,0.0318 -0.14302,-0.0142 -0.14302,-0.10976 0,-0.0962 -0.0196,-0.10971 -0.0931,-0.0632 -0.0273,0.0172 -0.0662,0.0143 -0.0998,-0.007 -0.0715,-0.0446 -0.15632,0.0348 -0.15632,0.14634 0,0.077 0.13947,0.21286 0.21951,0.21286 0.0191,0 0.0333,0.0114 0.0333,0.0266 0,0.0355 -0.15851,0.0665 -0.33592,0.0665 -0.11158,0 -0.13969,0.0112 -0.13969,0.0565 0,0.10556 0.0923,0.19569 0.19955,0.19623 0.0769,3.7e-4 0.0927,0.01 0.0566,0.0333 -0.0207,0.0134 -0.0544,0.0254 -0.0732,0.0333 0.003,-0.0211 -0.01,-0.0333 -0.0366,-0.0333 -0.0612,0 -0.0612,0.0111 -0.01,0.0931 0.0308,0.0493 0.0741,0.0632 0.19955,0.0632 0.12451,0 0.26001,-0.0342 0.30932,-0.0732 0.0222,0.0252 0.0532,0.0605 0.0532,0.0765 0,0.0726 -0.028,0.13705 -0.0798,0.1929 -0.0819,0.0883 -0.114,0.10276 -0.31264,0.13637 -0.1181,0.02 -0.12031,0.0237 -0.0665,0.0831 0.0534,0.059 0.0533,0.0594 -0.02,0.0599 -0.0419,2.7e-4 -0.0974,0.0137 -0.12306,0.0299 -0.0397,0.0251 -0.0377,0.0316 0.01,0.0499 0.0515,0.0198 0.0516,0.0267 -0.01,0.0698 -0.0383,0.0268 -0.0601,0.0665 -0.0499,0.0931 0.01,0.0256 -0.004,0.0671 -0.0299,0.0931 -0.0261,0.0261 -0.0466,0.0967 -0.0466,0.15632 0,0.0597 -0.0113,0.10976 -0.0266,0.10976 -0.0244,0 -0.11631,-0.0716 -0.60533,-0.47561 l -0.11308,-0.0931 h -0.60865 c -0.59714,-9.8e-4 -0.61165,10e-4 -0.59202,0.0632 0.0198,0.0623 0.006,0.0632 -0.93127,0.0632 -0.52334,0 -0.95123,-0.0127 -0.95123,-0.0266 0,-0.0139 0.0157,-0.0423 0.0366,-0.0632 0.0295,-0.0295 -0.099,-0.0366 -0.58204,-0.0366 -0.60391,0 -0.62477,10e-4 -0.71176,0.0732 -0.0492,0.0406 -0.21213,0.16736 -0.36253,0.28271 -0.26641,0.20433 -0.27472,0.20631 -0.28936,0.12971 -0.008,-0.0432 -0.003,-0.0866 0.0133,-0.0965 0.0159,-0.01 0.002,-0.0636 -0.0333,-0.12306 -0.0351,-0.0594 -0.0559,-0.12867 -0.0466,-0.153 0.0113,-0.0295 -0.0216,-0.0584 -0.0965,-0.0831 -0.13652,-0.0451 -0.36586,-0.29494 -0.36586,-0.39912 0,-0.10146 0.0183,-0.0959 0.16298,0.0532 0.0686,0.0707 0.14226,0.12322 0.16297,0.1164 0.0207,-0.007 0.0413,-0.0783 0.0466,-0.15964 l 0.01,-0.14967 h 0.12972 c 0.0943,0 0.14421,-0.0178 0.18958,-0.0699 l 0.0632,-0.0732 -0.11973,-0.0166 -0.12307,-0.0199 0.11641,-0.003 c 0.0728,-0.003 0.12091,-0.0249 0.13304,-0.0565 0.0579,-0.15094 -0.0252,-0.29601 -0.16962,-0.29601 -0.12445,0 -0.28603,-0.0642 -0.28603,-0.11308 0,-0.0458 0.0241,-0.0558 0.28603,-0.10976 0.25645,-0.0528 0.36419,-0.11847 0.44235,-0.26608 0.058,-0.10955 0.0664,-0.15285 0.0432,-0.2694 -0.049,-0.24663 -0.23186,-0.25172 -0.23282,-0.007 -3.2e-4,0.0858 -0.0103,0.10198 -0.0333,0.0665 -0.0169,-0.0261 -0.0297,-0.0864 -0.0299,-0.13304 -5.3e-4,-0.0861 -0.0927,-0.14448 -0.15965,-0.10311 -0.0409,0.0253 -0.0408,0.12995 0,0.20621 0.0412,0.0771 -0.0139,0.11605 -0.0565,0.0399 -0.0129,-0.023 -0.0258,-0.0539 -0.0366,-0.0632 -0.001,-0.0195 -0.002,-0.0329 -0.003,-0.0599 -0.003,-0.073 -0.0512,-0.13969 -0.11308,-0.13969 -0.0277,0 -0.0432,0.0473 -0.0432,0.14302 0,0.11822 -0.0105,0.14302 -0.0599,0.14302 -0.0816,0 -0.13341,-0.0713 -0.0965,-0.12972 0.0468,-0.074 0.0344,-0.14701 -0.0266,-0.16297 -0.15098,-0.0395 -0.18956,0.29363 -0.0532,0.45566 0.0927,0.11018 0.0964,0.12978 0.0299,0.19623 -0.0633,0.0633 -0.16939,0.0664 -0.25942,0.003 -0.088,-0.0616 -0.089,-0.12025 -0.003,-0.23615 0.054,-0.073 0.0614,-0.11269 0.0432,-0.20953 -0.0336,-0.17908 -0.0691,-0.22973 -0.14635,-0.20954 -0.0592,0.0155 -0.0649,0.0304 -0.0466,0.153 0.0243,0.16235 -0.03,0.19266 -0.0599,0.0333 -0.011,-0.0585 -0.0481,-0.13462 -0.0831,-0.1663 -0.0292,-0.0264 -0.0444,-0.0389 -0.0599,-0.0399 -0.0155,-9.6e-4 -0.0301,0.0101 -0.0532,0.0333 -0.0417,0.0417 -0.0428,0.0684 -0.0133,0.15299 0.0424,0.12165 0.0431,0.18958 0.007,0.18958 -0.0328,0 -0.0998,-0.14308 -0.0998,-0.21286 0,-0.0823 -0.0908,-0.1619 -0.16297,-0.14302 -0.0561,0.0147 -0.0605,0.0321 -0.0432,0.13969 0.013,0.0814 0.008,0.11953 -0.0133,0.10643 -0.0178,-0.011 -0.0333,-0.0533 -0.0333,-0.0931 0,-0.0398 -0.0275,-0.0971 -0.0599,-0.12639 -0.0862,-0.078 -0.13916,-4.4e-4 -0.10976,0.15632 0.0159,0.0845 0.009,0.11244 -0.0166,0.0965 -0.0198,-0.0122 -0.0366,-0.0573 -0.0366,-0.0998 0,-0.0425 -0.027,-0.10678 -0.0632,-0.14301 -0.0627,-0.0627 -0.0687,-0.0622 -0.12638,-0.01 -0.0459,0.0415 -0.0531,0.0645 -0.0266,0.0965 0.0194,0.0234 0.0231,0.0656 0.01,0.0965 -0.0643,0.15106 -0.0103,0.31763 0.11974,0.37916 0.14034,0.0664 0.33994,0.10958 0.40244,0.0965 l 0.2561,0.0266 c 0.19893,0.048 0.31748,0.11822 0.27605,0.15964 -0.011,0.011 -0.11205,0.0274 -0.22616,0.0366 -0.11411,0.009 -0.20954,0.0219 -0.20954,0.0299 0,0.008 0.0442,0.0543 0.0965,0.10311 0.0522,0.0488 0.0931,0.0977 0.0931,0.10643 0,0.009 -0.0828,0.10278 -0.18625,0.20953 -0.16494,0.17015 -0.34923,0.4704 -0.34923,0.56874 0,0.0185 0.0198,0.0333 0.0466,0.0333 0.0385,0 0.043,0.0139 0.0166,0.0632 -0.0183,0.0342 -0.0398,0.11926 -0.0466,0.18958 -0.0109,0.11343 -0.004,0.12939 0.0632,0.14634 0.0682,0.0171 0.0765,0.0358 0.0765,0.18293 0,0.0904 -0.0136,0.17969 -0.0299,0.19623 -0.0581,0.0587 -0.38249,0.9862396 -0.38249,1.0942396 0,0.0296 -0.009,0.061 -0.0233,0.0698 -0.0143,0.009 -0.0292,0.0883 -0.0333,0.17628 -0.006,0.1371 -3.2e-4,0.15965 0.0499,0.15965 0.11576,0 0.13304,0.0637 0.13304,0.45233 0,0.37858 -0.0247,0.49889 -0.10976,0.49889 -0.0543,0 -0.0556,0.005 -0.0499,0.66187 0.006,0.66408 0.0268,0.82484 0.10311,0.82484 0.0557,0 0.0565,-0.0348 0.0565,-0.55211 v -0.55211 l 0.21619,-0.24945 c 0.50364,-0.58824 0.45618,-0.51077 0.44235,-0.69513 -0.007,-0.0914 -0.007,-0.16651 0.003,-0.16629 0.0101,3.2e-4 0.10386,0.12961 0.20621,0.28603 0.16684,0.25497 0.18354,0.29622 0.1663,0.40244 -0.0106,0.0652 -0.0396,0.13332 -0.0665,0.15299 -0.0425,0.0311 -0.0167,0.10532 0.20288,0.55211 0.13911,0.28302 0.27297,0.53735 0.29601,0.56542 0.0231,0.0281 0.0592,0.0885 0.0831,0.13636 0.0293,0.0585 0.0689,0.0865 0.11974,0.0865 0.0416,0 0.07,-0.0102 0.0632,-0.0233 -0.007,-0.0131 -0.0881,-0.18105 -0.1796,-0.37251 -0.0915,-0.19146 -0.20775,-0.42874 -0.25943,-0.52883 -0.0517,-0.10009 -0.0865,-0.19662 -0.0765,-0.21286 0.01,-0.0162 0.0341,-0.0912 0.0499,-0.1663 0.0158,-0.0751 0.0576,-0.27096 0.0931,-0.4357 0.0739,-0.34257 0.0945,-0.26458 -0.22949,-0.81819 -0.1159,-0.19807 -0.21286,-0.37736 -0.21286,-0.39911 0,-0.0218 0.0624,-0.0924 0.13636,-0.153 0.074,-0.0606 0.18106,-0.15494 0.23947,-0.20953 0.0584,-0.0546 0.11517,-0.0971 0.12639,-0.0965 0.0112,6.4e-4 0.11303,0.14026 0.22617,0.30932 0.11313,0.16906 0.21534,0.31392 0.22616,0.32262 0.0195,0.0157 0.0905,0.16795 0.20288,0.44235 0.0321,0.0783 0.0945,0.19185 0.13969,0.25277 0.0452,0.0609 0.10191,0.15169 0.12639,0.19956 0.0288,0.0562 0.0701,0.0865 0.11641,0.0865 0.0712,0 0.0698,-0.003 -0.0399,-0.24613 -0.11961,-0.26539 -0.1143,-0.25342 -0.2694,-0.62528 -0.0581,-0.13924 -0.19365,-0.40598 -0.30267,-0.59534 -0.10901,-0.18937 -0.19955,-0.35604 -0.19955,-0.36919 0,-0.0131 0.034,-0.0467 0.0732,-0.0732 0.0392,-0.0264 0.14246,-0.11485 0.22949,-0.1962296 0.087,-0.0814 0.25732,-0.23283 0.37916,-0.33925 l 0.21951,-0.19623 0.02,1.7095496 c 0.0129,1.28054 0.0259,1.73289 0.0565,1.81597 0.13482,0.36542 0.29628,0.55737 0.60865,0.72506 0.10806,0.058 0.39465,0.22635 0.63858,0.37251 0.24394,0.14615 0.45188,0.26565 0.46231,0.26608 0.0104,4.2e-4 0.0563,0.0258 0.0998,0.0599 0.0435,0.034 0.0794,0.0628 0.0832,0.0632 0.0125,10e-4 0.30843,-0.16405 0.45233,-0.25278 0.0783,-0.0483 0.24862,-0.14886 0.37916,-0.22284 0.25977,-0.14721 0.28229,-0.15787 0.54546,-0.30931 0.21629,-0.12447 0.3781,-0.29672 0.47229,-0.50222 0.14143,-0.30858 0.15628,-0.49374 0.15632,-2.15522 V 9.4649854 l 0.1164,0.10311 c 0.0653,0.0566 0.22534,0.19884 0.35588,0.31596 0.13054,0.1171296 0.28592,0.2526296 0.34258,0.3026696 l 0.1031,0.0931 -0.22284,0.39247 c -0.12193,0.21595 -0.22284,0.40915 -0.22284,0.42905 0,0.0199 -0.0119,0.05 -0.0266,0.0665 -0.0147,0.0165 -0.0745,0.15139 -0.13304,0.29933 -0.0585,0.14795 -0.14307,0.34663 -0.18958,0.44236 -0.0676,0.1391 -0.0764,0.17446 -0.0399,0.18292 0.0782,0.0182 0.12374,-0.0153 0.1796,-0.13303 0.0297,-0.0625 0.0664,-0.11309 0.0798,-0.11309 0.0134,0 0.066,-0.0954 0.11641,-0.21286 0.0504,-0.11749 0.13563,-0.30133 0.18958,-0.40577 0.10617,-0.20554 0.44316,-0.68766 0.49224,-0.7051 0.0293,-0.0104 0.12446,0.0623 0.39912,0.31264 l 0.13304,0.12306 -0.10976,0.18293 c -0.0594,0.1006 -0.1217,0.19849 -0.13969,0.21951 -0.018,0.021 -0.0333,0.0492 -0.0333,0.0599 0,0.0106 -0.0397,0.0768 -0.0898,0.14967 -0.18108,0.26318 -0.23046,0.36841 -0.19623,0.43237 0.0176,0.0328 0.0333,0.0961 0.0333,0.13969 0,0.0436 0.0159,0.089 0.0333,0.0998 0.0174,0.0108 0.0299,0.0479 0.0299,0.0832 0,0.0353 0.0301,0.1675 0.0665,0.29269 l 0.0665,0.22616 -0.0931,0.20621 c -0.0518,0.11263 -0.15212,0.32126 -0.22284,0.46564 -0.18143,0.37037 -0.18485,0.38581 -0.0865,0.38581 0.0447,0 0.0798,-0.0146 0.0798,-0.0333 0,-0.0186 0.0412,-0.0935 0.0898,-0.1663 0.0486,-0.0728 0.13242,-0.22611 0.18625,-0.33925 0.0538,-0.11313 0.15458,-0.32568 0.22617,-0.47561 0.0716,-0.14993 0.12971,-0.28023 0.12971,-0.28936 0,-0.009 -0.0228,-0.0157 -0.0532,-0.0133 -0.0442,0.004 -0.0589,-0.0257 -0.0665,-0.14302 -0.009,-0.13477 0.007,-0.17066 0.18958,-0.44235 l 0.19955,-0.29601 0.01,0.20621 c 0.0102,0.21835 0.0334,0.26161 0.27605,0.52217 0.0648,0.0696 0.16745,0.18469 0.22617,0.2561 l 0.10643,0.12971 v 0.54214 c 0,0.52154 0.002,0.54213 0.0632,0.54213 0.0512,0 0.0632,-0.0201 0.0632,-0.10976 0,-0.0609 0.0125,-0.10976 0.0299,-0.10976 0.0351,0 0.0466,-0.97091 0.0133,-1.13748 -0.0109,-0.0544 -0.0396,-0.0965 -0.0632,-0.0965 -0.065,0 -0.0799,-0.10645 -0.0699,-0.51885 0.01,-0.39163 0.007,-0.37837 0.14967,-0.45566 0.006,-0.003 -0.008,-0.0806 -0.0299,-0.17295 -0.0574,-0.24619 -0.22324,-0.59094 -0.45233,-0.93792 -0.11108,-0.16823 -0.22415,-0.35006 -0.25278,-0.4057596 -0.0789,-0.15357 -0.066,-0.38642 0.0432,-0.71509 0.0728,-0.21893 0.0984,-0.3513 0.0998,-0.53215 10e-4,-0.19823 0.011,-0.25081 0.0599,-0.28603 0.0308,-0.0222 0.11619,-0.10273 0.12638,-0.12639 0.003,-0.001 0.008,-0.002 0.01,-0.003 0.0165,-0.0141 -0.0505,-0.0233 -0.14967,-0.0233 -0.0992,0 -0.1796,-0.0127 -0.1796,-0.0266 0,-0.0776 0.093,-0.0998 0.40244,-0.0998 h 0.32927 l -0.01,-0.0898 c -0.01,-0.0828 -0.0186,-0.0881 -0.20954,-0.10311 l -0.20288,-0.0133 0.20953,-0.0931 c 0.18814,-0.0816 0.20954,-0.0971 0.20954,-0.1796 0,-0.0928 -0.0254,-0.11603 -0.0798,-0.0665 -0.0165,0.015 -0.0821,0.0436 -0.14302,0.0632 l -0.10976,0.0366 0.10311,-0.0931 c 0.10791,-0.0988 0.13584,-0.23232 0.0565,-0.26275 -0.0245,-0.009 -0.0679,0.0113 -0.0998,0.0466 -0.0319,0.0352 -0.0841,0.0759 -0.11641,0.0931 -0.0495,0.0265 -0.0479,0.0163 0.0133,-0.0665 0.0677,-0.0916 0.0693,-0.10038 0.02,-0.14967 -0.0493,-0.0493 -0.0581,-0.0491 -0.11973,0.007 -0.0562,0.0509 -0.0776,0.0546 -0.13304,0.02 -0.10037,-0.0627 -0.17527,-0.0666 -0.21952,-0.0133 -0.0339,0.0408 -0.0228,0.0593 0.0599,0.12971 0.18981,0.16151 0.21838,0.34815 0.0831,0.50887 -0.0451,0.0536 -0.0954,0.0965 -0.11308,0.0965 -0.0177,0 0.0117,-0.0506 0.0665,-0.11308 0.0801,-0.0913 0.0934,-0.11989 0.0632,-0.15632 -0.0325,-0.0392 -0.0462,-0.0405 -0.11308,0.003 -0.10654,0.0698 -0.11884,0.0413 -0.0432,-0.0998 0.0477,-0.0891 0.0556,-0.12867 0.0299,-0.15965 -0.0556,-0.067 -0.10411,-0.0484 -0.18292,0.0732 -0.054,0.0833 -0.0809,0.10204 -0.10644,0.0765 -0.0255,-0.0255 -0.0228,-0.0636 0.0166,-0.14634 0.0598,-0.12545 0.0481,-0.17295 -0.0432,-0.17295 -0.0391,0 -0.0816,0.0451 -0.12306,0.12638 -0.0355,0.0696 -0.0726,0.12639 -0.0831,0.12639 -0.0106,0 -0.0153,-0.0626 -0.007,-0.13969 0.0156,-0.13825 -0.0115,-0.20621 -0.0865,-0.20621 z m -4.08428,0.0133 c -0.0117,-0.001 -0.0197,0.005 -0.0266,0.0166 -0.0113,0.0182 -0.0709,0.0333 -0.12971,0.0333 -0.0589,0 -0.11564,0.0125 -0.12639,0.0299 -0.0108,0.0174 -0.0665,0.0333 -0.12638,0.0333 -0.0861,0 -0.10976,0.0121 -0.10976,0.0599 0,0.0541 0.0588,0.11509 0.38914,0.41908 0.051,0.0469 0.0835,0.0996 0.0732,0.1164 -0.0104,0.0168 -0.0847,0.0703 -0.16297,0.11974 -0.13277,0.0839 -0.13963,0.0984 -0.1397,0.22616 -4e-5,0.1092 0.016,0.15573 0.0898,0.2295 0.12713,0.12713 0.16297,0.11909 0.16297,-0.0466 0,-0.13974 -8e-5,-0.14303 0.13304,-0.17627 0.074,-0.0185 0.15912,-0.046 0.18958,-0.0632 0.0475,-0.0267 0.0565,-0.0169 0.0565,0.0665 0,0.11825 -0.0476,0.21505 -0.14634,0.29269 -0.0408,0.0321 -0.0765,0.0783 -0.0765,0.1031 0,0.0345 0.0497,0.0432 0.20621,0.0432 h 0.20621 l 0.0632,-0.12306 c 0.0364,-0.0713 0.0632,-0.1877 0.0632,-0.2694 v -0.14302 h 0.24945 0.24945 l -0.0266,0.11641 c -0.0152,0.0653 -0.0295,0.12968 -0.0299,0.14301 -4.3e-4,0.0133 -0.0496,0.0478 -0.10976,0.0765 -0.11045,0.0527 -0.15905,0.1201 -0.12639,0.17295 0.01,0.0158 0.10398,0.0266 0.20621,0.0266 0.15809,0 0.18913,-0.009 0.20621,-0.0632 0.011,-0.0348 0.0368,-0.0632 0.0599,-0.0632 0.0231,0 0.0518,-0.0378 0.0632,-0.0832 0.0114,-0.0453 0.0421,-0.1139 0.0699,-0.15632 l 0.0532,-0.0798 0.0732,0.0699 c 0.0954,0.0897 0.0939,0.14929 -0.003,0.18625 -0.067,0.0255 -0.14301,0.11823 -0.14301,0.17295 0,0.01 0.0918,0.0166 0.20288,0.0166 h 0.19956 l 0.0765,-0.1663 c 0.0563,-0.12301 0.0766,-0.21529 0.0732,-0.35588 -0.005,-0.20079 -0.0683,-0.45898 -0.11308,-0.45898 -0.0147,0 -0.0266,-0.0169 -0.0266,-0.0399 0,-0.0539 -0.20709,-0.29578 -0.29601,-0.3459 -0.0423,-0.0238 -0.23841,-0.0411 -0.5122,-0.0466 -0.78177,-0.0156 -0.89017,-0.0244 -0.94125,-0.0665 -0.0168,-0.0138 -0.0316,-0.022 -0.0432,-0.0233 z m -0.48892,1.58649 v 0.20288 h 2.4213 v -0.20288 z m -0.66186,0.58204 h 0.85477 0.85477 v 0.22284 0.21952 h -0.85477 -0.85477 v -0.21952 z m 2.15189,0 h 0.85478 0.85477 v 0.22284 0.21952 h -0.85477 -0.85478 v -0.21952 z m 0,0.8547696 h 0.85145 0.85145 l 0.01,0.26941 0.01,0.2694 h -0.86142 -0.86143 v -0.2694 -0.26941 z m -2.15189,0.0333 h 0.85477 0.85477 v 0.25278 0.25277 h -0.85477 -0.85477 v -0.25277 z m 1.94568,0.82484 c 0.0578,0 0.17295,0.22238 0.17295,0.3326 0,0.12793 0.008,0.12769 0.13637,0.0366 0.0665,-0.0473 0.10116,-0.0557 0.10976,-0.0299 0.007,0.0209 0.0665,0.0366 0.13303,0.0366 0.11763,0 0.12205,0.003 0.0865,0.0798 -0.0201,0.0434 -0.0491,0.0797 -0.0632,0.0798 -0.0141,1.1e-4 -0.017,0.0131 -0.007,0.0299 0.0104,0.0168 -0.0318,0.0633 -0.0931,0.1031 -0.12686,0.0822 -0.13025,0.10172 -0.0599,0.2428 0.0279,0.056 0.0433,0.1064 0.0366,0.11308 -0.031,0.031 -0.26894,0.0243 -0.33259,-0.01 l -0.0732,-0.0399 v 0.4357 c 3.2e-4,0.23993 0.0105,0.42384 0.0233,0.40576 0.0128,-0.0181 0.0959,-0.0696 0.18293,-0.11308 0.087,-0.0435 0.24356,-0.12736 0.3459,-0.18625 0.17029,-0.098 0.17912,-0.11111 0.12638,-0.14967 -0.0317,-0.0232 -0.0691,-0.0399 -0.0831,-0.0399 -0.0141,0 -0.0261,-0.0261 -0.0266,-0.0565 -5.4e-4,-0.0305 -0.021,-0.0826 -0.0466,-0.11641 -0.0667,-0.0882 -0.0586,-0.11255 0.0399,-0.11309 0.18021,-8.5e-4 0.21629,-0.0282 0.20288,-0.14301 -0.0101,-0.0863 0.008,-0.12705 0.0931,-0.21619 l 0.1031,-0.10976 0.0898,0.0965 c 0.069,0.0738 0.0898,0.12537 0.0898,0.23281 v 0.13637 l 0.10311,-0.0599 c 0.078,-0.0454 0.13813,-0.0533 0.25277,-0.0399 0.15,0.0175 0.15107,0.0166 0.10311,0.0898 -0.0266,0.0406 -0.0499,0.0924 -0.0499,0.11641 0,0.024 -0.0488,0.0703 -0.10976,0.1031 -0.0609,0.0328 -0.10976,0.0727 -0.10976,0.0865 0,0.0137 0.0488,0.0474 0.10976,0.0765 0.0609,0.029 0.11255,0.0759 0.11308,0.1031 5.3e-4,0.0272 0.0216,0.0767 0.0466,0.10976 0.0614,0.0811 0.0337,0.11308 -0.0965,0.11308 -0.0599,0 -0.10975,0.013 -0.10975,0.0299 0,0.0169 -0.0507,-8.5e-4 -0.11309,-0.0432 l -0.11308,-0.0798 -0.0699,0.0732 c -0.0385,0.0386 -0.0815,0.0927 -0.0931,0.12307 -0.0298,0.0776 -0.0705,0.0702 -0.11308,-0.0233 -0.02,-0.044 -0.0569,-0.0897 -0.0832,-0.0998 -0.0272,-0.0104 -0.0499,-0.0578 -0.0499,-0.10975 v -0.0898 l -0.0998,0.0565 c -0.0566,0.0319 -0.17713,0.1048 -0.26608,0.15964 -0.0889,0.0548 -0.1741,0.0991 -0.18958,0.0998 -0.0155,5.4e-4 -0.0606,0.0272 -0.0998,0.0599 -0.0666,0.0556 -0.0698,0.0843 -0.0698,0.44235 0,0.3615 -0.003,0.38249 -0.0632,0.38249 -0.0599,0 -0.0632,-0.0213 -0.0632,-0.39579 0,-0.24854 -0.0129,-0.39579 -0.0333,-0.39579 -0.0279,0 -0.34737,-0.17977 -0.62528,-0.35255 -0.11935,-0.0742 -0.13304,-0.0711 -0.13304,0.0366 0,0.0522 -0.013,0.0965 -0.0266,0.0965 -0.0137,0 -0.0486,0.0435 -0.0798,0.0965 l -0.0565,0.0964 -0.0931,-0.12971 -0.0931,-0.12639 -0.10311,0.0599 c -0.074,0.0414 -0.14505,0.0535 -0.25277,0.0432 -0.16535,-0.0157 -0.18518,-0.0537 -0.0865,-0.15964 0.0348,-0.0374 0.0632,-0.0821 0.0632,-0.0998 0,-0.0177 0.043,-0.0555 0.0965,-0.0831 0.0779,-0.0403 0.0893,-0.0576 0.0599,-0.0931 -0.0202,-0.0243 -0.06,-0.0537 -0.0898,-0.0632 -0.0688,-0.0218 -0.20931,-0.29975 -0.15299,-0.30266 0.0215,-10e-4 0.0871,-0.008 0.14634,-0.0133 0.0643,-0.006 0.1497,0.0144 0.21286,0.0499 0.11391,0.064 0.11452,0.0635 0.10644,-0.0865 -0.003,-0.055 0.0163,-0.12759 0.0432,-0.15965 0.027,-0.0321 0.0693,-0.0865 0.0931,-0.11973 0.0414,-0.0575 0.0468,-0.0554 0.1031,0.0399 0.0325,0.0549 0.0695,0.0998 0.0831,0.0998 0.0137,0 0.0266,0.0613 0.0266,0.13636 v 0.13637 l 0.14967,0.01 c 0.0822,0.004 0.15164,0.0119 0.15632,0.0166 0.0215,0.0215 -0.12264,0.27274 -0.1796,0.31264 -0.0608,0.0426 -0.0572,0.0479 0.11641,0.14301 0.10031,0.055 0.25554,0.1416 0.34257,0.19291 0.087,0.0513 0.16794,0.0957 0.1796,0.0965 0.0117,7.5e-4 0.0217,-0.17822 0.0233,-0.39579 0.002,-0.21757 -0.007,-0.39579 -0.0166,-0.39579 -0.01,0 -0.0405,0.015 -0.0698,0.0299 -0.0293,0.0149 -0.11879,0.0172 -0.19956,0.007 l -0.14967,-0.02 0.0698,-0.14301 0.0698,-0.14634 -0.11973,-0.0565 c -0.0664,-0.0323 -0.11974,-0.0792 -0.11974,-0.1031 0,-0.0239 -0.0251,-0.0768 -0.0532,-0.11974 l -0.0499,-0.0798 h 0.12639 c 0.071,0 0.13598,-0.0155 0.14301,-0.0366 0.009,-0.0258 0.0433,-0.0174 0.10976,0.0299 0.12793,0.0911 0.13636,0.0914 0.13636,-0.0366 0,-0.11022 0.11513,-0.33259 0.17295,-0.33259 z m -4.66965,2.8437 v 0.36586 0.36253 h 1.31376 1.31375 v 0.13969 c 0,0.13412 0.009,0.14797 0.25943,0.3725 0.14294,0.12804 0.31166,0.27936 0.37251,0.33593 l 0.10975,0.1031 h 1.30045 1.30046 l 0.26607,-0.24945 c 0.14739,-0.13592 0.31594,-0.2862 0.37251,-0.33592 0.0863,-0.0759 0.1031,-0.11436 0.1031,-0.22949 v -0.13636 h 1.31043 1.31376 v -0.36253 -0.36586 h -1.36697 -1.36697 l -0.32595,0.33592 c -0.31412,0.32222 -0.32594,0.3365 -0.32594,0.47229 v 0.14302 h -1.2805 -1.28049 l -0.003,-0.13637 c -7e-5,-0.1268 -0.0152,-0.15155 -0.31597,-0.47229 l -0.31929,-0.34257 h -1.37362 -1.37695 z"
     id="path2844"
     style="fill:#000000;stroke-width:0.10643081"
     inkscape:connector-curvature="0" />
</svg>
