<?xml version="1.0" encoding="UTF-8" standalone="no"?>
<!-- Created with Inkscape (http://www.inkscape.org/) -->

<svg
   xmlns:dc="http://purl.org/dc/elements/1.1/"
   xmlns:cc="http://creativecommons.org/ns#"
   xmlns:rdf="http://www.w3.org/1999/02/22-rdf-syntax-ns#"
   xmlns:svg="http://www.w3.org/2000/svg"
   xmlns="http://www.w3.org/2000/svg"
   xmlns:sodipodi="http://sodipodi.sourceforge.net/DTD/sodipodi-0.dtd"
   xmlns:inkscape="http://www.inkscape.org/namespaces/inkscape"
   xml:space="preserve"
   height="48"
   width="40.20295"
   version="1.1"
   id="svg26"
   sodipodi:docname="CA:PEI_suf_2.svg"
   inkscape:version="0.92.3 (2405546, 2018-03-11)"><sodipodi:namedview
     pagecolor="#ffffff"
     bordercolor="#666666"
     borderopacity="1"
     objecttolerance="10"
     gridtolerance="10"
     guidetolerance="10"
     inkscape:pageopacity="0"
     inkscape:pageshadow="2"
     inkscape:window-width="640"
     inkscape:window-height="480"
     id="namedview28"
     showgrid="false"
     fit-margin-top="0"
     fit-margin-left="0"
     fit-margin-right="0"
     fit-margin-bottom="0"
     inkscape:zoom="12.3125"
     inkscape:cx="24.326795"
     inkscape:cy="21.529145"
     inkscape:current-layer="g970"
     inkscape:measure-start="-8.4467,28.264"
     inkscape:measure-end="0,0" /><metadata
     id="metadata2"><rdf:RDF><cc:Work
         rdf:about=""><dc:format>image/svg+xml</dc:format><dc:type
           rdf:resource="http://purl.org/dc/dcmitype/StillImage" /><dc:title></dc:title></cc:Work></rdf:RDF></metadata><defs
     id="defs4">
</defs><g
     id="g866"><path
       d="M 19.581772,47.937233 C 12.469275,47.866186 5.2769803,44.099912 1.9038901,37.726272 0.19822897,34.589576 -0.08517729,30.927967 0.10831695,27.414619 0.12609041,18.96889 -0.02810705,10.515826 0.16735992,2.0747649 0.55519305,0.54281513 2.3401413,-0.17225777 3.7967383,0.11981739 15.23746,0.170117 26.68485,0.01484704 38.121126,0.20280986 39.59595,0.57212711 40.371928,2.2755654 40.089966,3.7071561 40.027389,13.215936 40.219522,22.729829 39.98274,32.235608 39.224767,38.502776 34.568013,43.8197 28.842095,46.175862 c -2.91186,1.252545 -6.092679,1.840474 -9.261272,1.761564 z"
       id="path6"
       inkscape:connector-curvature="0"
       style="fill:#ffffff;stroke:#000000;stroke-width:0.11113971" /><path
       d="M 38.67224,3.3513156 V 30.105978 h 7e-6 c 0,8.708352 -8.117089,16.153045 -18.55144,16.153045 -10.4337963,0 -18.5514408,-7.376898 -18.5514408,-16.08525 l 0.00359,-1.552955 -0.066893,-25.2698358"
       stroke-miterlimit="3.86400007999999980"
       id="path8"
       inkscape:connector-curvature="0"
       style="fill:none;stroke:#008d61;stroke-width:1.06694126;stroke-linecap:butt;stroke-linejoin:miter;stroke-miterlimit:3.86400008;stroke-dasharray:none" /><path
       d="m 2.7541089,0.95180926 c -0.9864983,0 -1.78068045,0.79309294 -1.78068045,1.77823534 v 5.9959874 6.237716 1.778236 H 2.7541089 37.425253 39.205933 V 15.055438 8.726032 2.7300446 c 0,-0.9851424 -0.794193,-1.77823534 -1.78068,-1.77823534 z"
       id="path10"
       inkscape:connector-curvature="0"
       style="fill:#008d61;fill-rule:evenodd;stroke-width:0.11113971" /><g
       transform="matrix(0.06373094,0,0,-0.06169889,6.7468485,27.389681)"
       id="g16"
       style="fill:#ffffff"><path
         d="m 365.84,171.33 c -8.6091,-1.0801 -14.681,8.532 -14.681,8.532 l -0.306,54.851 c 0,0 2.3247,1.3258 6.2736,-2.2108 3.9488,-3.5367 4.0201,-14.658 21.627,-9.0493 17.606,5.6083 -0.76071,22.684 2.0776,24.501 3.6696,-2.0521 6.7163,-15.863 21.169,-13.506 13.156,3.9419 4.9113,16.211 4.1237,28.457 -0.7876,12.246 -12.385,14.38 -12.385,14.38 0,0 22.255,-1.147 22.29,12.679 0.034,13.826 -7.2367,13.229 -21.786,16.271 7.648,4.2138 14.06,8.8201 14.429,14.896 1.0491,1.6528 0.7554,2.3728 0.4394,3.5186 -0.316,1.1457 -3.3966,-0.18844 -4.0715,1.0567 -0.67489,1.2452 1.0559,5.0697 0.15671,6.3266 -0.8992,1.2569 -4.9388,0.28646 -5.9275,1.4674 -0.9888,1.181 0.64811,2.302 -0.38069,4.1698 -0.6694,1.2154 0.5522,4.2224 -1.7442,4.5678 -2.2964,0.34542 -2.0505,4.5144 -2.0505,4.5144 0,0 2.531,12.972 -1.4191,18.929 -3.9502,5.9569 -20.924,1.4253 -19.867,4.471 4.7199,13.605 -0.13611,21.934 -5.1173,24.817 -4.9812,2.8831 -15.17,-2.9269 -15.17,-2.9269 0,0 -0.98009,1.846 -4.6765,1.9223 -3.69641,0.0763 -5.2826,-1.7357 -5.2826,-1.7357 0,0 -3.5691,13.249 -14.206,9.4785 -10.637,-3.7709 -8.8303,-17.445 -10.109,-21.964 -4.2553,2.4556 -9.0039,18.677 -22.467,10.816 -13.463,-7.8615 -2.9209,-26.579 -2.9209,-26.579 0,0 -4.7176,5.6442 -13.272,-1.1032 -8.5544,-6.7474 -3.5673,-8.9421 -3.5673,-8.9421 0,0 -15.548,2.9392 -19.721,-3.5913 -4.1731,-6.5305 -0.6972,-14.837 2.4323,-17.553 4.037,-3.5042 5.46,-6.0562 5.46,-6.0562 0,0 -17.328,0.98343 -18.083,-11.207 -0.7558,-12.19 13.097,-14.891 13.097,-14.891 0,0 -10.712,-4.9102 -10.269,-12.849 0.4428,-7.9393 6.9815,-7.4938 7.0418,-9.5057 0.13911,-4.6448 0.14811,-3.763 -1.6465,-7.7598 -1.9201,-4.2763 -3.9971,-2.4067 -5.7329,-10.523 -1.7359,-8.1162 5.177,-14.05 6.7015,-16.769 1.5245,-2.7192 -4.0627,-16.692 8.8328,-16.521 12.895,0.17132 11.952,6.6605 17.556,9.6745 9.011,0.86032 9.8079,5.5711 12.672,7.2912 -0.184,-1.3938 -2.1742,-4.8528 -3.6871,-8.1666 -1.4621,-3.2025 -1.6979,-9.8842 6.236,-10.782 7.9339,-0.89774 11.394,3.4846 11.394,3.4846 l -1.0448,-48.349 c 0,0 1.0443,-5.5712 -12.805,-8.532 z"
         id="path12"
         inkscape:connector-curvature="0" /><path
         d="m 74.584,343.13 c 0,0 11.823,19.794 21.773,15.99 9.9503,-3.8048 3.8463,-20.299 4.0825,-22.454 0.23611,-2.1542 0.8122,-5.4985 3.0618,-5.2732 2.2496,0.22529 2.1871,-1.7505 2.7216,3.232 -0.82629,4.9824 -4.6732,21.97 6.8042,23.474 11.477,1.5046 15.649,-16.67 15.649,-16.67 0,0 12.008,25.949 20.753,23.134 8.7452,-2.8146 7.5599,-8.2061 8.5051,-13.608 0.9452,-5.4021 -5.4433,-13.948 -5.4433,-13.948 -0.2168,-4.6086 1.014,-7.4078 4.4226,-7.4845 1.478,4.9367 2.9635,6.8191 4.0825,9.866 1.1907,1.6727 4.1864,4.2478 7.1443,6.8041 0,0 -0.2302,15.805 8.1651,18.371 8.3953,2.5666 16.67,-5.7835 16.67,-5.7835 0,0 5.5828,6.9729 12.588,4.7629 7.0047,-2.21 10.546,-14.289 10.546,-14.289 0,0 9.7188,1.0592 12.928,-8.8454 3.2091,-9.9046 -11.227,-24.495 -11.227,-24.495 0,0 12.547,-3.9564 18.031,-11.567 5.4843,-7.6106 1.0206,-15.649 1.0206,-15.649 0,0 9.2647,-7.6206 10.206,-12.928 0.94151,-5.3072 -5.4433,-12.588 -5.4433,-12.588 0,0 7.4108,-10.211 3.7423,-18.371 -3.6685,-8.1602 -5.1933,-8.5057 -10.887,-9.1856 -5.6933,-0.67984 -13.856,8.3581 -14.714,7.3144 -0.1772,-2.532 4.3973,-11.034 3.6147,-14.841 0,0 4.4993,-8.7154 1.5734,-12.205 -2.9259,-3.4895 -12.588,-1.9562 -12.588,-1.9562 0,0 2.6079,-7.2854 -1.7009,-10.291 -4.3088,-3.0059 -10.546,2.0412 -10.546,2.0412 -0.7824,-0.57631 -1.5002,-1.2688 -2.5516,-1.3608 l 0.17011,-24.468 c 0.29029,-4.707 4.0758,-7.0569 7.8248,-8.532 h -34.021 c 2.4691,2.2301 7.4788,3.1764 7.1443,8.532 l 0.34029,31.272 c 0,0 -4.9857,-3.1402 -8.165,-1.3608 -3.1793,1.7794 -5.1031,12.588 -5.1031,12.588 0,0 -6.7823,-10.648 -11.567,-9.866 -4.7846,0.7824 -6.9742,10.206 -6.9742,10.206 -1.5309,-0.51583 -3.0619,-1.0484 -4.5928,-0.68042 l 1.701,-42.159 c 0.68249,-3.4774 1.5131,-6.8363 4.4228,-8.532 h -30.278 c 2.686,1.604 6.4864,4.1233 6.4639,8.532 l 0.17011,43.86 c 0,0 -7.7402,-8.2911 -12.418,-9.5258 -4.6773,-1.2347 -7.6103,-0.37063 -10.546,3.0618 -2.936,3.4325 -2.0412,15.99 -2.0412,15.99 0,0 0.2028,-4.7491 -5.7835,-7.8247 -5.9863,-3.0757 -7.8247,-0.34021 -7.8247,-0.34021 l 2.3814,-45.221 c 0.68369,-3.6592 0.81869,-6.3811 5.1032,-8.532 h -33.68 c 3.782,1.4487 6.5281,3.1896 6.8041,8.532 l -0.6803,41.308 c 0,0 -2.327,-1.9333 -4.5929,-2.0412 -2.2659,-0.10792 -5.7835,1.3608 -5.7835,1.3608 0,0 -3.5955,-7.9401 -13.098,-7.9948 -9.5024,-0.0547 -9.7309,4.973 -10.376,8.8454 -0.6454,3.8724 -0.1503,8.4213 1.3608,10.206 1.5111,1.7849 -0.1701,3.5722 -0.1701,3.5722 0,0 -3.3489,-0.9028 -5.6133,-2.2113 -2.2644,-1.3085 -8.1502,-0.30916 -10.887,3.4021 -2.7365,3.7112 -4.5764,11.415 -2.0412,15.479 2.5352,4.0642 6.1237,11.227 6.1237,11.227 -0.3355,-3.7822 -7.756,-1.9102 -14.459,1.3608 -6.7028,3.2711 -3.1715,17.456 -0.2139,20.561 3.2607,3.4233 10.59,8.186 10.59,8.186 0,0 -9.3905,12.121 -3.2319,19.392 6.1585,7.2704 17.691,1.701 17.691,1.701 0,0 -12.383,15.454 -7.4846,22.624 4.8987,7.1693 20.412,5.2732 20.412,5.2732 0,0 3.6966,19.879 14.629,20.072 10.932,0.19344 15.309,-19.052 15.309,-19.052 z"
         id="path14"
         inkscape:connector-curvature="0" /></g></g><g
     id="g941"
     transform="translate(-5.3343718)"><g
       id="g970"
       transform="translate(-0.14371124)"><text
         xml:space="preserve"
         style="font-style:normal;font-variant:normal;font-weight:normal;font-stretch:normal;font-size:26.66666667px;line-height:125%;font-family:'Roadgeek 2005 Series C';-inkscape-font-specification:'Roadgeek 2005 Series C, Normal';font-variant-ligatures:normal;font-variant-caps:normal;font-variant-numeric:normal;font-feature-settings:normal;text-align:end;letter-spacing:0px;word-spacing:0px;writing-mode:lr;text-anchor:end;fill:#000000;fill-opacity:1;stroke:none;stroke-width:1px;stroke-linecap:butt;stroke-linejoin:miter;stroke-opacity:1;"
         x="32.567719"
         y="36.142132"
         id="text848"><tspan
           sodipodi:role="line"
           id="tspan1046">%num%</tspan></text>
<text
         xml:space="preserve"
         style="font-style:normal;font-variant:normal;font-weight:normal;font-stretch:normal;font-size:21.33333333px;line-height:125%;font-family:'Roadgeek 2000 Series C';-inkscape-font-specification:'Roadgeek 2000 Series C, Normal';font-variant-ligatures:normal;font-variant-caps:normal;font-variant-numeric:normal;font-feature-settings:normal;text-align:start;letter-spacing:0px;word-spacing:0px;writing-mode:lr;text-anchor:start;fill:#000000;fill-opacity:1;stroke:none;stroke-width:1px;stroke-linecap:butt;stroke-linejoin:miter;stroke-opacity:1;"
         x="32.112732"
         y="36.142132"
         id="text935"><tspan
           sodipodi:role="line"
           id="tspan1048">%suf%</tspan></text>
</g></g></svg>