<?xml version="1.0" encoding="UTF-8" standalone="no"?>
<!-- Created with Inkscape (http://www.inkscape.org/) -->

<svg
   xmlns:dc="http://purl.org/dc/elements/1.1/"
   xmlns:cc="http://creativecommons.org/ns#"
   xmlns:rdf="http://www.w3.org/1999/02/22-rdf-syntax-ns#"
   xmlns:svg="http://www.w3.org/2000/svg"
   xmlns="http://www.w3.org/2000/svg"
   xmlns:sodipodi="http://sodipodi.sourceforge.net/DTD/sodipodi-0.dtd"
   xmlns:inkscape="http://www.inkscape.org/namespaces/inkscape"
   version="1.0"
   width="48"
   height="64"
   viewBox="0 0 48 63.999998"
   id="Layer_1"
   xml:space="preserve"
   inkscape:version="0.48.1 r9760"
   sodipodi:docname="CA:QC_AR_3.svg"><metadata
   id="metadata2932"><rdf:RDF><cc:Work
       rdf:about=""><dc:format>image/svg+xml</dc:format><dc:type
         rdf:resource="http://purl.org/dc/dcmitype/StillImage" /><dc:title /></cc:Work></rdf:RDF></metadata><sodipodi:namedview
   pagecolor="#ffffff"
   bordercolor="#666666"
   borderopacity="1"
   objecttolerance="10"
   gridtolerance="10"
   guidetolerance="10"
   inkscape:pageopacity="0"
   inkscape:pageshadow="2"
   inkscape:window-width="1278"
   inkscape:window-height="996"
   id="namedview2930"
   showgrid="true"
   showborder="true"
   inkscape:showpageshadow="false"
   inkscape:zoom="12.671875"
   inkscape:cx="24"
   inkscape:cy="32"
   inkscape:window-x="1"
   inkscape:window-y="27"
   inkscape:window-maximized="0"
   inkscape:current-layer="Layer_1"
   borderlayer="false"><inkscape:grid
     type="xygrid"
     id="grid3078"
     empspacing="5"
     visible="true"
     enabled="true"
     snapvisiblegridlinesonly="true" /></sodipodi:namedview><defs
   id="defs66"><inkscape:perspective
   sodipodi:type="inkscape:persp3d"
   inkscape:vp_x="0 : 200.50049 : 1"
   inkscape:vp_y="0 : 1000 : 0"
   inkscape:vp_z="385 : 200.50049 : 1"
   inkscape:persp3d-origin="192.5 : 133.66699 : 1"
   id="perspective2934" />
	
	
	
<inkscape:perspective
   id="perspective4100"
   inkscape:persp3d-origin="0.5 : 0.33333333 : 1"
   inkscape:vp_z="1 : 0.5 : 1"
   inkscape:vp_y="0 : 1000 : 0"
   inkscape:vp_x="0 : 0.5 : 1"
   sodipodi:type="inkscape:persp3d" /><inkscape:perspective
   id="perspective2945"
   inkscape:persp3d-origin="0.5 : 0.33333333 : 1"
   inkscape:vp_z="1 : 0.5 : 1"
   inkscape:vp_y="0 : 1000 : 0"
   inkscape:vp_x="0 : 0.5 : 1"
   sodipodi:type="inkscape:persp3d" /></defs>




<g
   id="g2825"
   transform="matrix(2.3037118,0,0,2.3315515,0.96264385,0.96090024)"><g
     transform="matrix(0.99835892,0,0,0.99835892,14.559089,17.09415)"
     id="g2993"><g
       id="g2983"><g
         transform="matrix(0.09216609,0,0,0.09216609,-14.566501,-17.10573)"
         id="g5"><path
           id="path7"
           style="fill:#ffffff;fill-rule:evenodd"
           d="m 216.5,0.5 0,168 c 0,90 -108,120 -108,120 0,0 -108,-30 -108,-120 l 0,-168 216,0 z"
           inkscape:connector-curvature="0" /><path
           id="path9"
           style="fill:none;stroke:#000000;stroke-miterlimit:3.86370993"
           d="m 216.5,0.5 0,168 c 0,90 -108,120 -108,120 0,0 -108,-30 -108,-120 l 0,-168 216,0 z"
           inkscape:connector-curvature="0" /></g><path
         id="path11"
         style="fill:#003f87;fill-rule:evenodd"
         d="m 4.8344608,-1.5757436 c 0,7.278241 -8.1905415,10.1049674 -9.4009413,10.4826327 C -5.7768803,8.5292238 -13.967421,5.7024974 -13.967421,-1.5757436 l 0,-7.7419516 18.8018818,0 0,7.7419516 z"
         inkscape:connector-curvature="0" /><g
         transform="matrix(0.09216609,0,0,0.09216609,-14.566501,-17.10573)"
         id="g13"><polygon
           id="polygon15"
           style="fill:#af1e2d"
           points="6.5,6.5 210.5,6.5 210.5,78.5 6.5,78.5 6.5,6.5 " /><path
           id="path17"
           style="fill:#af1e2d"
           d=""
           inkscape:connector-curvature="0" /></g><path
         id="path19"
         style="fill:#ffffff;fill-rule:evenodd"
         d="m -4.5663966,2.9367045 c 0.1442796,0.1449994 0.2698374,0.2801886 0.3705547,0.4301382 0.2804587,0.4181677 0.3749648,0.8723382 0.217994,1.2397427 -0.3117804,0.777291 -0.4316682,0.9746739 -0.4316682,1.5936446 l 0.2217747,0 c 0.013951,-0.6808943 0.2989997,-1.1366851 0.7229278,-1.2734937 0.1864925,-0.064714 0.4286082,-0.032672 0.6503829,0.1728114 0.2745176,0.2542669 0.3544431,0.9548728 -0.4514701,1.0895219 0.085325,-0.1141274 0.078125,-0.3641639 -0.092526,-0.4523703 -0.1305081,-0.058683 -0.2779379,-0.035822 -0.3467021,0.014761 -0.1108878,0.060304 -0.2176346,0.2532768 -0.2176346,0.4487694 l 0.3827953,-5.53e-4 0,0.3846856 -0.7944828,-3.686e-4 c 0.010261,0.1978335 0.1303284,0.3564237 0.3533639,0.4446295 -0.028802,0.083346 -0.1633617,0.253277 -0.3481436,0.2417562 -0.036362,0.1798317 -0.071104,0.2808181 -0.2371655,0.4442691 -0.1661063,-0.163451 -0.2008032,-0.2644374 -0.2373009,-0.4442691 -0.1848272,0.011521 -0.3193408,-0.1584105 -0.3480524,-0.2417562 0.2230798,-0.088206 0.343057,-0.246796 0.353363,-0.4446295 l -0.7943024,3.686e-4 -1.383e-4,-0.3846856 0.3827495,5.53e-4 c 0,-0.1954926 -0.1067468,-0.3884653 -0.2176786,-0.4487694 -0.068855,-0.050584 -0.2161943,-0.073444 -0.3466129,-0.014761 -0.1706512,0.088206 -0.1778968,0.3382429 -0.092661,0.4523703 -0.8059583,-0.1346491 -0.726033,-0.835255 -0.4514699,-1.0895219 0.2219097,-0.2054834 0.4638457,-0.2375258 0.650428,-0.1728114 0.4238829,0.1368086 0.709066,0.5925994 0.7229268,1.2734937 l 0.2216853,0 c 0,-0.6189707 -0.1196629,-0.8163536 -0.4314885,-1.5936455 -0.1570602,-0.3674036 -0.062644,-0.8215741 0.2180392,-1.2397418 0.1005366,-0.1499496 0.2261396,-0.2851388 0.3705095,-0.4301382 l 0,0 z"
         inkscape:connector-curvature="0" /></g></g></g><text
   xml:space="preserve"
   style="font-size:32.00000003px;font-style:normal;font-variant:normal;font-weight:normal;font-stretch:normal;text-align:center;line-height:100%;writing-mode:lr;text-anchor:middle;fill:#ffffff;fill-opacity:1;fill-rule:nonzero;stroke:none;font-family:Roadgeek 2005 Series B;-inkscape-font-specification:Roadgeek 2005 Series B"
   x="24.013836"
   y="44.974072"
   id="routenum"
   sodipodi:linespacing="100%"
   transform="scale(0.99942383,1.0005765)"><tspan
     sodipodi:role="line"
     id="tspan3080">%num%</tspan></text>



</svg>