<?xml version="1.0" encoding="UTF-8" standalone="no"?>
<!-- Created with Inkscape (http://www.inkscape.org/) -->

<svg
   xmlns:dc="http://purl.org/dc/elements/1.1/"
   xmlns:cc="http://creativecommons.org/ns#"
   xmlns:rdf="http://www.w3.org/1999/02/22-rdf-syntax-ns#"
   xmlns:svg="http://www.w3.org/2000/svg"
   xmlns="http://www.w3.org/2000/svg"
   xmlns:xlink="http://www.w3.org/1999/xlink"
   xmlns:sodipodi="http://sodipodi.sourceforge.net/DTD/sodipodi-0.dtd"
   xmlns:inkscape="http://www.inkscape.org/namespaces/inkscape"
   version="1.0"
   width="48"
   height="64"
   viewBox="0 0 48 63.999997"
   id="Layer_1"
   xml:space="preserve"
   inkscape:version="0.48.1 r9760"
   sodipodi:docname="CA:QC_R.svg"><metadata
   id="metadata2932"><rdf:RDF><cc:Work
       rdf:about=""><dc:format>image/svg+xml</dc:format><dc:type
         rdf:resource="http://purl.org/dc/dcmitype/StillImage" /><dc:title /></cc:Work></rdf:RDF></metadata><sodipodi:namedview
   pagecolor="#ffffff"
   bordercolor="#666666"
   borderopacity="1"
   objecttolerance="10"
   gridtolerance="10"
   guidetolerance="10"
   inkscape:pageopacity="0"
   inkscape:pageshadow="2"
   inkscape:window-width="1278"
   inkscape:window-height="996"
   id="namedview2930"
   showgrid="true"
   showborder="true"
   inkscape:showpageshadow="false"
   inkscape:zoom="12.671875"
   inkscape:cx="24"
   inkscape:cy="32"
   inkscape:window-x="1"
   inkscape:window-y="27"
   inkscape:window-maximized="0"
   inkscape:current-layer="Layer_1"
   borderlayer="false"><inkscape:grid
     type="xygrid"
     id="grid3002"
     empspacing="5"
     visible="true"
     enabled="true"
     snapvisiblegridlinesonly="true" /></sodipodi:namedview><defs
   id="defs66"><inkscape:perspective
   sodipodi:type="inkscape:persp3d"
   inkscape:vp_x="0 : 200.50049 : 1"
   inkscape:vp_y="0 : 1000 : 0"
   inkscape:vp_z="385 : 200.50049 : 1"
   inkscape:persp3d-origin="192.5 : 133.66699 : 1"
   id="perspective2934" />
	
	
	
<inkscape:perspective
   id="perspective4100"
   inkscape:persp3d-origin="0.5 : 0.33333333 : 1"
   inkscape:vp_z="1 : 0.5 : 1"
   inkscape:vp_y="0 : 1000 : 0"
   inkscape:vp_x="0 : 0.5 : 1"
   sodipodi:type="inkscape:persp3d" /><inkscape:perspective
   id="perspective2945"
   inkscape:persp3d-origin="0.5 : 0.33333333 : 1"
   inkscape:vp_z="1 : 0.5 : 1"
   inkscape:vp_y="0 : 1000 : 0"
   inkscape:vp_x="0 : 0.5 : 1"
   sodipodi:type="inkscape:persp3d" /><inkscape:perspective
   id="perspective2835"
   inkscape:persp3d-origin="0.5 : 0.33333333 : 1"
   inkscape:vp_z="1 : 0.5 : 1"
   inkscape:vp_y="0 : 1000 : 0"
   inkscape:vp_x="0 : 0.5 : 1"
   sodipodi:type="inkscape:persp3d" /></defs>





<g
   id="g3165"
   transform="matrix(2.4000001,0,0,2.4097269,-30.787553,-33.245359)"><path
     style="fill:#ffffff;fill-opacity:1;fill-rule:evenodd;stroke:#2e3131;stroke-width:0.10178299;stroke-linecap:butt;stroke-linejoin:miter;stroke-miterlimit:4;stroke-opacity:1;stroke-dasharray:none"
     id="outline"
     d="m 23.583333,40.304555 c -0.560607,0 -0.899884,0 -1.476654,0 0.01893,-2.47672 -1.185282,-2.120479 -6.952984,-2.120479 -1.01783,0 -2.273154,-1.01783 -2.273154,-1.933877 l -0.0014,-22.403092 19.898216,1e-6 -0.0014,22.403091 c 0,0.916047 -1.255323,1.933877 -2.273153,1.933877 -5.767703,0 -6.938429,-0.356241 -6.9195,2.120479 z"
     inkscape:connector-curvature="0" /><path
     style="opacity:0;fill:#0aa98b;fill-opacity:1;fill-rule:evenodd;stroke:none"
     id="path3221"
     d="m 13.32218,21.372918 18.999491,0 0,14.588896 c -1.01783,4.071319 -9.160469,-0.678553 -9.330107,3.901681 l -0.339277,0 C 22.482649,35.283261 14.34001,40.033133 13.32218,35.961814 l 0,-14.588896 z"
     inkscape:connector-curvature="0" /><path
     style="fill:#0aa98b;fill-opacity:1;fill-rule:evenodd;stroke:none;display:inline"
     id="green_shield"
     d="m 13.436189,36.240058 c 0.08553,0.692297 0.729457,1.165029 1.352738,1.359109 0.857038,0.183004 1.738704,0.0052 2.606727,0.06158 1.379516,-0.0037 2.804574,-0.109071 4.132539,0.330221 0.679226,0.306494 1.12741,1.022834 1.123388,1.765779 0.06142,0.111595 0.233774,-0.0045 0.339777,0.04247 0.08987,0.02436 0.131214,-0.03287 0.09556,-0.114674 0.06074,-0.741451 0.499997,-1.507083 1.244433,-1.727555 1.08747,-0.408069 2.278224,-0.251287 3.417946,-0.313232 1.107149,-0.0047 2.237979,0.12925 3.327692,-0.0945 0.643318,-0.234233 1.255918,-0.823467 1.19352,-1.558727 0.0062,-7.202212 0.0029,-14.404427 0.0053,-21.60664 -6.280214,0 -12.560427,0 -18.840641,0 3.53e-4,7.285388 7.09e-4,14.570776 0.0011,21.856163 z"
     inkscape:connector-curvature="0" /><use
     xlink:href="#g3188"
     height="782.81934"
     width="589.48944"
     y="0"
     x="0"
     id="use2431"
     transform="translate(5.6869211,0.02327785)" /><use
     xlink:href="#g3188"
     height="782.81934"
     width="589.48944"
     y="0"
     x="0"
     id="use2433"
     transform="translate(11.380933,0.02869985)" /><g
     style="fill:#ffffff;fill-opacity:1;fill-rule:evenodd;stroke:none;stroke-width:1px;marker:none;visibility:visible;display:inline;overflow:visible"
     id="g3188"
     transform="matrix(0.03392766,0,0,0.03392766,4.8680195,13.134009)"><path
       style="fill:#ffffff;fill-opacity:1;fill-rule:evenodd;stroke:none;stroke-width:1px;marker:none;visibility:visible;display:inline;overflow:visible"
       id="path3165"
       d="M 362.94521,65.887977 C 325,107.36218 360,107.36218 359.3218,161.90842 c 0.6782,0.45376 5.6782,0.45376 7.54877,0 C 365,107.36218 400,107.36218 362.94521,65.887977 z"
       inkscape:connector-curvature="0" /><path
       style="fill:#ffffff;fill-opacity:1;fill-rule:evenodd;stroke:none;stroke-width:1px;marker:none;visibility:visible;display:inline;overflow:visible"
       id="path3167"
       d="m 329.46058,114.1749 c -15.03224,-3.50941 -30.9947,22.06878 -8.71408,39.07508 5.9289,-23.87614 28.3023,-15.5284 26.52403,7.96432 l 6.97223,0.39788 c 0.36085,-35.32369 -12.71494,-44.62008 -24.78218,-47.43728 z"
       inkscape:connector-curvature="0" /><path
       style="fill:#ffffff;fill-opacity:1;fill-rule:evenodd;stroke:none;stroke-width:1px;marker:none;visibility:visible;display:inline;overflow:visible"
       id="path3175"
       d="m 359.63213,161.8125 c -1.57149,0.0598 -2.96249,0.2434 -3.84375,0.5625 0.0658,8.36935 0,15.00001 -15,15 0,3.84205 8.85399,10.61552 16.40625,6.75 0.0872,4.62134 1.03852,13.4248 6.20618,13.84375 4.87969,-0.48483 5.18861,-9.40571 5.79382,-13.96875 7.5131,4.17921 16.59375,-2.7359 16.59375,-6.625 -15,1e-5 -14.60614,-5.54763 -15,-15 0,0 -6.44179,-0.74199 -11.15625,-0.5625 z"
       inkscape:connector-curvature="0" /><path
       style="fill:#ffffff;fill-opacity:1;fill-rule:evenodd;stroke:none;stroke-width:1px;marker:none;visibility:visible;display:inline;overflow:visible"
       id="path3180"
       d="m 397.16336,114.23879 c 15.03224,-3.50941 30.9947,22.06878 8.71408,39.07508 -5.9289,-23.87614 -28.3023,-15.5284 -26.52403,7.96432 l -6.97223,0.39788 c -0.36085,-35.32369 12.71494,-44.62008 24.78218,-47.43728 z"
       inkscape:connector-curvature="0" /><path
       style="fill:#ffffff;fill-opacity:1;fill-rule:evenodd;stroke:none;stroke-width:1px;marker:none;visibility:visible;display:inline;overflow:visible"
       id="path3169"
       d="m 335,157.36218 0,10 56.70436,0 0,-10 -56.70436,0 z"
       inkscape:connector-curvature="0" /></g><rect
     style="fill:#ffffff;fill-opacity:1;fill-rule:nonzero;stroke:none;stroke-width:0.88372701;marker:none;visibility:visible;display:inline;overflow:visible"
     id="rectangle"
     y="20.98275"
     x="13.165567"
     height="0.57677031"
     width="19.342712" /></g><text
   xml:space="preserve"
   style="font-size:32.00000016px;font-style:normal;font-variant:normal;font-weight:normal;font-stretch:normal;text-align:center;line-height:100%;writing-mode:lr;text-anchor:middle;fill:#ffffff;fill-opacity:1;fill-rule:nonzero;stroke:none;font-family:Roadgeek 2005 Series B;-inkscape-font-specification:Roadgeek 2005 Series B"
   x="24.048586"
   y="47.903023"
   id="routenum"
   sodipodi:linespacing="100%"
   transform="scale(0.99797968,1.0020244)"><tspan
     sodipodi:role="line"
     id="tspan3004">%num%</tspan></text>

</svg>
