<?xml version="1.0" encoding="UTF-8" standalone="no"?>
<!-- Created with Inkscape (http://www.inkscape.org/) -->

<svg
   xmlns:dc="http://purl.org/dc/elements/1.1/"
   xmlns:cc="http://creativecommons.org/ns#"
   xmlns:rdf="http://www.w3.org/1999/02/22-rdf-syntax-ns#"
   xmlns:svg="http://www.w3.org/2000/svg"
   xmlns="http://www.w3.org/2000/svg"
   xmlns:sodipodi="http://sodipodi.sourceforge.net/DTD/sodipodi-0.dtd"
   xmlns:inkscape="http://www.inkscape.org/namespaces/inkscape"
   width="48.000011"
   height="87.651039"
   viewBox="0 0 48.000011 87.651035"
   id="svg2"
   version="1.1"
   inkscape:version="0.92.3 (2405546, 2018-03-11)"
   sodipodi:docname="CA:SK:rural_3.svg">
  <defs
     id="defs4">
    <clipPath
       id="clipPath4152"
       clipPathUnits="userSpaceOnUse">
      <path
         inkscape:connector-curvature="0"
         id="path4154"
         d="M 0,612 H 396 V 0 H 0 Z" />
    </clipPath>
    <clipPath
       id="clipPath4174"
       clipPathUnits="userSpaceOnUse">
      <path
         inkscape:connector-curvature="0"
         id="path4176"
         d="M 0,0 H 396 V 612 H 0 Z" />
    </clipPath>
    <linearGradient
       id="linearGradient4270"
       spreadMethod="pad"
       gradientTransform="matrix(0,224.36881,13.284105,0,284.85528,185.02247)"
       gradientUnits="userSpaceOnUse"
       y2="0"
       x2="1"
       y1="0"
       x1="0">
      <stop
         id="stop4272"
         offset="0"
         style="stop-opacity:1;stop-color:#ed1c24" />
      <stop
         id="stop4274"
         offset="1"
         style="stop-opacity:1;stop-color:#6f1e20" />
    </linearGradient>
    <linearGradient
       id="linearGradient4290"
       spreadMethod="pad"
       gradientTransform="matrix(0,222.57565,12.654101,0,277.99384,185.02247)"
       gradientUnits="userSpaceOnUse"
       y2="0"
       x2="1"
       y1="0"
       x1="0">
      <stop
         id="stop4292"
         offset="0"
         style="stop-opacity:1;stop-color:#a72c32" />
      <stop
         id="stop4294"
         offset="1"
         style="stop-opacity:1;stop-color:#57181b" />
    </linearGradient>
    <linearGradient
       id="linearGradient4314"
       spreadMethod="pad"
       gradientTransform="matrix(70.984202,0,0,-138.35415,250.89206,527.0615)"
       gradientUnits="userSpaceOnUse"
       y2="0"
       x2="1"
       y1="0"
       x1="0">
      <stop
         id="stop4316"
         offset="0"
         style="stop-opacity:1;stop-color:#a72c32" />
      <stop
         id="stop4318"
         offset="1"
         style="stop-opacity:1;stop-color:#57181b" />
    </linearGradient>
    <clipPath
       id="clipPath4330"
       clipPathUnits="userSpaceOnUse">
      <path
         inkscape:connector-curvature="0"
         id="path4332"
         d="M 225.58,295.918 H 352.3 V 526.969 H 225.58 Z" />
    </clipPath>
    <linearGradient
       id="linearGradient4350"
       spreadMethod="pad"
       gradientTransform="matrix(67.360456,67.360456,82.003622,-82.003622,213.92265,463.12185)"
       gradientUnits="userSpaceOnUse"
       y2="0"
       x2="1"
       y1="0"
       x1="0">
      <stop
         id="stop4352"
         offset="0"
         style="stop-opacity:1;stop-color:#ed1c24" />
      <stop
         id="stop4354"
         offset="1"
         style="stop-opacity:1;stop-color:#8a2225" />
    </linearGradient>
    <clipPath
       id="clipPath4366"
       clipPathUnits="userSpaceOnUse">
      <path
         inkscape:connector-curvature="0"
         id="path4368"
         d="M 225.58,295.918 H 352.3 V 526.969 H 225.58 Z" />
    </clipPath>
    <linearGradient
       id="linearGradient4450"
       spreadMethod="pad"
       gradientTransform="matrix(-16.852842,-3.7805948,-10.421501,30.088078,303.37196,319.52742)"
       gradientUnits="userSpaceOnUse"
       y2="0"
       x2="1"
       y1="0"
       x1="0">
      <stop
         id="stop4452"
         offset="0"
         style="stop-opacity:1;stop-color:#f9da99" />
      <stop
         id="stop4454"
         offset="0.52809"
         style="stop-opacity:1;stop-color:#ffffff" />
      <stop
         id="stop4456"
         offset="1"
         style="stop-opacity:1;stop-color:#fada88" />
    </linearGradient>
    <linearGradient
       id="linearGradient4472"
       spreadMethod="pad"
       gradientTransform="matrix(-16.852842,-3.7805948,-10.420765,30.086029,303.37196,342.19756)"
       gradientUnits="userSpaceOnUse"
       y2="0"
       x2="1"
       y1="0"
       x1="0">
      <stop
         id="stop4474"
         offset="0"
         style="stop-opacity:1;stop-color:#f9da99" />
      <stop
         id="stop4476"
         offset="0.52809"
         style="stop-opacity:1;stop-color:#ffffff" />
      <stop
         id="stop4478"
         offset="1"
         style="stop-opacity:1;stop-color:#fada88" />
    </linearGradient>
    <linearGradient
       id="linearGradient4494"
       spreadMethod="pad"
       gradientTransform="matrix(-16.852842,-3.7805948,-10.421501,30.088078,303.37196,364.86527)"
       gradientUnits="userSpaceOnUse"
       y2="0"
       x2="1"
       y1="0"
       x1="0">
      <stop
         id="stop4496"
         offset="0"
         style="stop-opacity:1;stop-color:#f9da99" />
      <stop
         id="stop4498"
         offset="0.52809"
         style="stop-opacity:1;stop-color:#ffffff" />
      <stop
         id="stop4500"
         offset="1"
         style="stop-opacity:1;stop-color:#fada88" />
    </linearGradient>
    <clipPath
       id="clipPath4508"
       clipPathUnits="userSpaceOnUse">
      <path
         inkscape:connector-curvature="0"
         id="path4510"
         d="M 225.58,295.918 H 352.3 V 526.969 H 225.58 Z" />
    </clipPath>
    <clipPath
       id="clipPath4620"
       clipPathUnits="userSpaceOnUse">
      <path
         inkscape:connector-curvature="0"
         id="path4622"
         d="m 37.45,171.908 h 75.6 v 75.6 h -75.6 z" />
    </clipPath>
    <clipPath
       id="clipPath4724"
       clipPathUnits="userSpaceOnUse">
      <path
         inkscape:connector-curvature="0"
         id="path4726"
         d="m 37.45,171.908 h 75.6 v 75.6 h -75.6 z" />
    </clipPath>
    <clipPath
       id="clipPath4780"
       clipPathUnits="userSpaceOnUse">
      <path
         inkscape:connector-curvature="0"
         id="path4782"
         d="m 115.95,171.908 h 75.6 v 75.6 h -75.6 z" />
    </clipPath>
    <clipPath
       id="clipPath5052"
       clipPathUnits="userSpaceOnUse">
      <path
         inkscape:connector-curvature="0"
         id="path5054"
         d="m 194.449,171.908 h 75.6 v 75.6 h -75.6 z" />
    </clipPath>
    <clipPath
       id="clipPath5088"
       clipPathUnits="userSpaceOnUse">
      <path
         inkscape:connector-curvature="0"
         id="path5090"
         d="m 272.949,171.906 h 75.6 v 62.258 h -75.6 z" />
    </clipPath>
  </defs>
  <sodipodi:namedview
     id="base"
     pagecolor="#ffffff"
     bordercolor="#666666"
     borderopacity="1.0"
     inkscape:pageopacity="0.0"
     inkscape:pageshadow="2"
     inkscape:zoom="6.4639419"
     inkscape:cx="17.27036"
     inkscape:cy="42.175691"
     inkscape:document-units="px"
     inkscape:current-layer="layer1"
     showgrid="false"
     fit-margin-top="0"
     fit-margin-left="0"
     fit-margin-right="0"
     fit-margin-bottom="0"
     units="px"
     inkscape:window-width="1920"
     inkscape:window-height="1137"
     inkscape:window-x="-8"
     inkscape:window-y="-8"
     inkscape:window-maximized="1" />
  <metadata
     id="metadata7">
    <rdf:RDF>
      <cc:Work
         rdf:about="">
        <dc:format>image/svg+xml</dc:format>
        <dc:type
           rdf:resource="http://purl.org/dc/dcmitype/StillImage" />
        <dc:title></dc:title>
      </cc:Work>
    </rdf:RDF>
  </metadata>
  <g
     inkscape:label="Layer 1"
     inkscape:groupmode="layer"
     id="layer1"
     transform="translate(602.84061,-370.08359)">
    <path
       inkscape:connector-curvature="0"
       id="path5066"
       style="fill:#ffffff;fill-opacity:1;fill-rule:nonzero;stroke:#000000;stroke-width:0.29999998;stroke-linecap:butt;stroke-linejoin:miter;stroke-miterlimit:4;stroke-dasharray:none;stroke-opacity:1"
       d="" />
    <path
       style="color:#000000;clip-rule:nonzero;display:inline;overflow:visible;visibility:visible;opacity:1;isolation:auto;mix-blend-mode:normal;color-interpolation:sRGB;color-interpolation-filters:linearRGB;solid-color:#000000;solid-opacity:1;fill:#ffffff;fill-opacity:1;fill-rule:evenodd;stroke:#369766;stroke-width:1.07345927;stroke-linecap:butt;stroke-linejoin:miter;stroke-miterlimit:4;stroke-dasharray:none;stroke-dashoffset:0;stroke-opacity:1;color-rendering:auto;image-rendering:auto;shape-rendering:auto;text-rendering:auto;enable-background:accumulate"
       d="m -599.26766,370.62032 c -1.68209,0 -3.03622,1.376 -3.03622,3.08522 v 57.40706 c 0,1.70922 1.35413,3.08523 3.03622,3.08523 h 40.8541 c 1.68209,0 3.03622,-1.37601 3.03622,-3.08523 v -57.40706 c 0,-1.70922 -1.35413,-3.08522 -3.03622,-3.08522 z"
       id="rect6625"
       inkscape:connector-curvature="0" />
    <path
       style="fill:#369766;fill-opacity:1;fill-rule:evenodd;stroke:none;stroke-width:0.3735432;stroke-linecap:butt;stroke-linejoin:miter;stroke-miterlimit:4;stroke-dasharray:none;stroke-opacity:1"
       d="m -578.77634,377.52241 c -0.0953,0.009 -0.19943,0.0619 -0.31045,0.1736 -0.34559,0.62714 -0.39776,1.40597 -0.86629,1.93102 -0.0398,-0.0467 -0.0807,-0.10051 -0.12556,-0.1696 -0.201,-0.30946 -0.93043,-0.60629 -1.25623,-0.51403 -0.56196,-0.37951 -0.92525,-0.2732 -1.58534,-0.79668 0.21423,1.0031 0.51256,1.47452 -0.2713,1.29588 -0.73225,-0.36467 -0.95997,0.0237 -0.53989,0.62277 0.20654,0.23543 0.53167,0.56543 0.62691,0.88843 -0.0403,0.0115 -0.0741,0.0233 -0.12556,0.0346 -0.08,0.0176 -0.15693,0.0397 -0.23125,0.0636 -0.56886,-0.32283 -1.31975,-0.0533 -1.99485,-0.16064 -0.67222,-0.099 -1.26297,0.57361 -1.17674,1.17881 -0.60488,-0.53963 -1.3784,-1.25958 -2.23182,-0.78464 0.42054,0.42948 0.77816,1.05631 0.20234,1.50873 -0.33919,0.46319 -0.0701,1.10327 -0.61245,1.41575 -0.27438,0.27188 -0.12306,0.86962 -0.65853,0.46151 -1.01582,-0.33262 -0.73382,-0.24291 -1.75697,-0.55017 0.33133,0.59808 0.0353,0.71399 -0.0885,1.48216 -0.78255,0.20247 -1.71907,-0.10249 -2.4149,0.51248 -0.18676,0.12705 -0.32232,0.23019 -0.43001,0.32393 -0.10769,0.0937 -0.18749,0.17808 -0.26272,0.26752 -0.0752,0.0894 -0.1459,0.184 -0.23531,0.29817 -0.0894,0.11416 -0.19756,0.24795 -0.34776,0.41585 0.26554,0.0778 0.49474,0.13343 0.70373,0.17167 0.20899,0.0382 0.39776,0.0591 0.58242,0.0673 0.18465,0.008 0.3652,0.004 0.55774,-0.008 0.19255,-0.0122 0.39708,-0.0323 0.62973,-0.0554 -0.0605,0.12895 -0.0926,0.26413 -0.10603,0.40169 -0.0134,0.13756 -0.20219,0.30575 -0.18766,0.44424 0.0145,0.13849 0.23238,0.24729 0.25563,0.37903 0.0232,0.13174 0.0461,0.25819 0.0588,0.37551 -0.36403,0.25452 -0.3505,0.80675 -0.81752,0.96968 -0.67783,0.23646 -0.97495,0.52881 -0.79511,0.99415 0.15349,0.39716 -0.31386,0.92944 -0.7144,1.04941 -0.71234,0.21335 -0.59258,0.6851 -0.57536,1.13545 -0.19415,0.14653 -0.27074,0.40454 -0.47051,0.52041 -0.27867,0.16162 -0.53052,0.34224 -0.31473,0.63327 0.14207,0.1916 -0.0489,0.56689 -0.26108,0.67294 -0.26596,0.13292 -0.18695,0.44 -0.30958,0.63942 -0.0739,0.19054 -0.0717,0.34926 -0.0187,0.47578 0.053,0.12653 0.15666,0.22085 0.28579,0.28258 0.12914,0.0617 0.2837,0.0909 0.43838,0.0871 0.15468,-0.004 0.30947,-0.0406 0.43906,-0.11081 0.14624,-0.0836 0.22729,-0.1059 0.26706,-0.0871 0.0398,0.0188 0.0383,0.0786 0.0194,0.15921 -0.0189,0.0806 -0.0551,0.18211 -0.0848,0.28419 -0.0297,0.10208 -0.0528,0.20476 -0.0454,0.28782 -0.0386,0.14301 -0.0367,0.28939 -0.01,0.43341 0.027,0.14403 0.0791,0.28571 0.14099,0.41932 0.0619,0.1336 0.13346,0.25914 0.1994,0.3709 0.066,0.11175 0.12625,0.20972 0.16552,0.28819 -0.18868,0.0854 -0.3446,0.2138 -0.46336,0.36844 -0.11877,0.15464 -0.20037,0.33549 -0.2404,0.52568 -0.04,0.19019 -0.0385,0.38973 0.009,0.58176 0.0475,0.19202 0.14103,0.37654 0.28492,0.53668 0.11822,0.28593 0.24157,0.65292 0.0277,0.82823 -0.32705,0.2681 -0.3731,0.53008 -0.36259,0.79157 0.012,0.29855 -0.28313,0.5225 -0.35753,0.78863 -0.0744,0.26613 -0.0821,0.53739 0.0429,0.81939 0.13104,0.13415 0.27668,0.17729 0.42656,0.15843 0.14989,-0.0189 0.30402,-0.0997 0.45206,-0.21356 0.14804,-0.11384 0.28998,-0.26067 0.41548,-0.41149 0.1255,-0.15082 0.23456,-0.30562 0.31684,-0.4354 0.0538,-0.12191 0.0968,-0.0941 0.1309,0.008 0.0341,0.10162 0.0593,0.27704 0.0774,0.45036 0.0181,0.17331 0.0291,0.34453 0.0349,0.43773 0.006,0.0932 0.006,0.10839 0.003,-0.0303 0.004,0.15021 0.0173,0.29935 0.0385,0.4469 0.0212,0.14755 0.0506,0.2935 0.0879,0.43732 0.0373,0.14382 0.0823,0.2855 0.13484,0.42452 0.0525,0.13901 0.1124,0.27536 0.1793,0.4085 0.89598,-1.0302 1.72292,-2.10422 2.79671,-2.94609 1.10776,0.8293 2.44153,1.86511 3.86835,1.62209 0.40139,-0.28404 0.0121,0.78007 0.10629,0.99933 -0.0203,1.14724 -0.28387,2.59108 0.5429,3.50214 0.38512,0.38632 1.02247,0.2505 1.47634,0.38089 -1.66278,3.70902 -2.22614,7.8281 -3.95477,11.51625 -0.30611,0.94365 -1.00094,1.93935 -0.45829,2.92045 0.62322,1.8046 2.24582,3.24022 4.10623,3.41812 1.74722,0.5957 3.59961,0.34015 5.39167,0.66076 1.21162,0.0589 2.50078,0.45204 3.6091,-0.23169 2.28917,-0.82977 4.7142,-1.47856 7.08781,-2.04407 0.84003,0.0153 2.012,0.26296 2.56877,-0.50939 0.27712,-1.05547 0.28008,-2.31883 -0.56458,-3.1092 -1.52968,-2.6964 -1.90301,-5.8631 -2.9292,-8.7657 -0.51938,-1.48484 -0.76811,-3.05009 -0.73079,-4.62163 -0.0537,-0.47257 -0.14587,-0.93771 -0.25925,-1.39783 0.10973,-0.28357 0.1893,-0.56541 0.2454,-0.77475 0.37357,0.13759 0.87028,0.53055 1.23485,0.16897 0.24168,0.44099 1.10921,1.2613 1.35198,0.3917 -0.0813,-0.37774 0.48804,0.46248 0.75549,-0.01 0.40214,-0.32651 0.37694,-1.18428 0.59529,-1.37126 0.87805,0.72309 0.0882,2.06086 0.89189,2.7799 0.80415,0.24901 0.99734,-0.95135 1.08068,-1.5458 0.0827,-0.46821 0.0978,-1.2336 0.23878,-1.47814 0.35736,0.13766 0.68233,0.0932 0.70068,0.62863 0.111,1.12471 0.47843,0.8038 0.77566,0.007 0.30367,-0.94284 0.0777,-2.04865 0.3255,-2.94517 0.73743,-0.22058 1.79309,-0.63239 1.58233,-1.65299 -0.2501,-0.64574 -0.25093,-1.35734 0.35832,-1.79045 0.79418,-0.73811 -0.0904,-1.6908 0.008,-2.55934 0.077,-0.80886 -0.0368,-1.57041 -0.38512,-2.27298 0.10534,-0.49105 -0.3029,-1.09007 0.18067,-1.38176 0.42469,-0.96213 -0.80383,-1.4657 -1.30079,-2.04191 -0.17657,-0.22172 -0.32005,-0.47325 -0.45649,-0.72996 0.0807,-0.0611 0.18784,-0.12033 0.3261,-0.17361 l 0.36615,-0.14117 -0.45136,-0.3744 c -0.5283,-0.43877 -0.57048,-0.78876 -0.13911,-1.14792 0.37048,-0.30847 0.26813,-0.56325 -0.39476,-0.89276 -0.0281,-0.0979 -0.0853,-0.19533 -0.18367,-0.29037 -0.42607,-0.009 -0.81487,-0.19587 -1.01715,-0.54029 -0.0461,-0.1277 -0.0321,-0.25647 0.047,-0.38336 0.20171,-0.32363 0.14494,-0.50891 -0.18458,-0.60269 -0.29047,-0.0827 -0.29527,-0.101 -0.0699,-0.27647 0.13279,-0.10338 0.24116,-0.29121 0.24089,-0.41735 -4.5e-4,-0.17856 -0.13791,-0.22952 -0.62209,-0.22952 -0.58399,0 -0.79715,-0.15354 -0.48449,-0.34938 0.23337,-0.14617 0.15235,-0.34969 -0.13911,-0.34969 -0.29145,0 -0.37217,-0.20351 -0.13881,-0.34969 0.2454,-0.1537 0.14543,-0.4687 -0.1632,-0.51464 -0.20135,-0.03 -0.30795,-0.15254 -0.324,-0.37224 -0.0313,-0.42927 -0.36339,-0.64531 -0.56729,-0.36915 -0.0841,0.11395 -0.22459,0.20697 -0.31225,0.20697 -0.0533,0 -0.14591,0.0304 -0.24299,0.0735 -0.16743,-0.0446 -0.34216,-0.0519 -0.51821,-0.0417 0.0258,-0.0494 0.0598,-0.10263 0.11292,-0.16218 0.35069,-0.39315 0.16997,-0.54523 -0.55013,-0.46306 -0.62955,0.0718 -0.63117,0.071 -0.53778,-0.30891 l 0.0936,-0.38058 -1.29597,0.0414 c -1.06288,0.0341 -1.29622,0.005 -1.29658,-0.1628 -3.4e-4,-0.16191 -0.12152,-0.26857 -0.34808,-0.32127 -0.15058,-0.13939 -0.32798,-0.21989 -0.56157,-0.16125 -0.31575,-0.0463 -0.64855,-0.0979 -0.98493,-0.13252 0.002,-0.0505 0.007,-0.10688 0.0145,-0.17268 0.0356,-0.29705 -0.27653,-0.35737 -0.55013,-0.10627 -0.23367,0.21445 -0.3136,0.222 -0.61487,0.059 -0.30654,-0.16585 -0.36907,-0.1566 -0.54681,0.0819 -0.18579,0.24925 -0.20204,0.22271 -0.22011,-0.35989 -0.0235,-0.75612 -0.10167,-1.10945 -0.34236,-1.30021 0.0563,-0.46803 0.0897,-0.9377 0.0918,-1.40586 -0.44826,0.0675 -0.92282,1.85954 -1.15897,1.05278 -0.17211,-0.93959 -0.34335,-1.75365 -0.77958,-0.39727 -0.10838,0.21226 -0.21297,0.59873 -0.28123,0.69876 -0.0155,0.003 -0.0315,0.005 -0.0479,0.009 -0.0174,-0.0374 -0.0281,-0.13458 -0.0298,-0.32405 0.0498,-0.41709 -0.19981,-1.20397 -0.61276,-1.16491 z"
       id="path6505-9"
       inkscape:connector-curvature="0"
       sodipodi:nodetypes="cccsccccccccccccccccssscssscssscssscssscssscssscssscssscssscssscssscsssccccccccccccccccccccccccccccccccccccccsccccsscsssccscsccsscccccccccsssccccccccc" />
    <path
       style="color:#000000;font-style:normal;font-variant:normal;font-weight:normal;font-stretch:normal;font-size:medium;line-height:normal;font-family:sans-serif;text-indent:0;text-align:start;text-decoration:none;text-decoration-line:none;text-decoration-style:solid;text-decoration-color:#000000;letter-spacing:normal;word-spacing:normal;text-transform:none;writing-mode:lr-tb;direction:ltr;baseline-shift:baseline;text-anchor:start;white-space:normal;clip-rule:nonzero;display:inline;overflow:visible;visibility:visible;opacity:1;isolation:auto;mix-blend-mode:normal;color-interpolation:sRGB;color-interpolation-filters:linearRGB;solid-color:#000000;solid-opacity:1;fill:#ffffff;fill-opacity:1;fill-rule:evenodd;stroke:none;stroke-width:0.3735432;stroke-linecap:butt;stroke-linejoin:miter;stroke-miterlimit:4;stroke-dasharray:none;stroke-dashoffset:0;stroke-opacity:1;color-rendering:auto;image-rendering:auto;shape-rendering:auto;text-rendering:auto;enable-background:accumulate"
       d="m -578.90539,378.55139 c 0.0255,1.04558 -1.46788,1.98146 -1.09748,2.69048 0.38577,1.73925 -0.30655,0.75472 -0.58938,-0.40885 -0.0797,-1.2485 -1.80718,-1.93167 -1.63195,-0.7899 -1.59717,0.95888 1.23072,2.39643 0.86698,3.92892 -1.12876,-1.52499 -2.32475,-3.42592 -4.47947,-2.21754 -0.77536,0.90948 1.1981,1.40123 1.12256,1.77162 -0.90092,0.66827 -2.96686,-2.60095 -2.7181,-0.70247 -0.7234,0.004 -1.07124,1.63374 -0.94022,2.21645 0.89238,-0.20412 3.58495,0.82568 1.27968,0.65706 -1.09856,0.59644 -4.00513,-1.87219 -3.82079,-0.0536 -0.079,0.80659 -3.47757,0.40114 -3.11107,1.45844 0.94195,-0.0397 2.75706,-0.20952 1.64221,1.22211 1.76693,1.10767 -2.63229,2.69917 -1.73263,4.04816 0.87877,-0.2561 0.57304,0.0562 5.6e-4,0.49303 -0.5725,0.43688 -1.41179,0.99836 -1.60014,1.24071 -0.45045,0.49371 -0.61197,0.97991 -0.5929,1.33016 0.0191,0.35025 0.21876,0.56455 0.4907,0.51448 0.24653,-0.0454 0.58498,-0.22576 0.86463,-0.38321 0.27965,-0.15746 0.5005,-0.29202 0.51184,-0.24583 -0.36938,0.28276 -0.66783,0.86904 -0.71993,1.4967 -0.0521,0.62767 0.14214,1.29671 0.75814,1.745 -0.89981,0.36489 -0.82773,1.08546 -0.71638,1.85558 0.11134,0.77013 0.26195,1.58979 -0.4808,2.15286 0.12682,0.29433 0.26414,0.31421 0.4054,0.21082 0.14125,-0.1034 0.28644,-0.33006 0.42901,-0.52882 0.14256,-0.19876 0.28251,-0.36961 0.41326,-0.36138 0.13076,0.008 0.25234,0.19555 0.35817,0.71313 -0.009,0.69538 -0.0937,1.11623 0.10048,1.2012 0.19414,0.085 0.66723,-0.16595 0.97415,-0.41408 0.30692,-0.24812 0.64768,-0.59346 0.97718,-0.89735 0.32949,-0.30389 0.64771,-0.56632 0.90956,-0.64865 0.28519,0.24344 0.62237,0.50895 0.98756,0.75122 0.20068,0.4479 0.62174,0.63211 1.15567,0.6117 0.49899,-0.2056 0.84268,0.078 1.18,0.20018 0.38141,-0.0321 0.74291,-0.17809 1.06053,-0.48335 0.12897,1.67442 -0.92437,3.96583 0.59995,5.19913 1.31448,-0.14076 1.6909,1.41606 0.9248,2.37489 -0.8671,2.55793 -1.68236,5.14105 -2.42849,7.73917 -0.57868,1.49512 -1.17453,2.98349 -1.79194,4.46271 0.25631,1.32823 1.20268,2.74388 2.34188,3.24049 0.65152,0.13267 1.37973,1.02621 1.97246,0.57564 0.83238,-0.99008 1.03009,0.97788 2.3036,0.33069 2.01836,-0.13551 4.18314,1.00572 6.06447,0.002 2.22874,-0.84931 4.58789,-1.34955 6.84817,-2.02389 h 2.35067 c 0.7414,-1.69385 -0.91144,-2.75924 -1.32246,-4.24075 -1.06085,-3.42407 -2.2025,-6.85345 -2.93726,-10.35774 0.12216,-1.21647 -0.0768,-2.41145 -0.44167,-3.56523 0.4959,-1.06797 -0.0707,-1.87902 1.2574,-1.25581 0.17618,-1.25735 0.15688,-0.78352 0.89633,0.1005 1.32386,0.52121 -0.5866,-1.76831 1.10003,-1.1992 0.11725,1.01806 1.03194,1.46663 1.02637,-0.0655 1.15726,0.41223 1.94014,2.3128 2.00465,2.7272 0.72712,-0.69536 0.11767,-1.72388 0.13256,-2.59678 0.0191,-0.56214 0.005,-1.12095 0.59574,-0.39023 0.49947,-0.14326 1.11939,1.97185 1.00779,0.10471 0.23004,-0.76674 -0.40448,-2.31227 0.80953,-2.17318 1.6016,0.0635 0.0995,-2.80096 1.34339,-3.07473 0.12865,-1.45822 0.0746,-3.48184 -0.75511,-4.89088 1.35553,-0.49631 -1.14858,-0.77491 0.35297,-1.17814 -0.14121,-1.09509 -1.74487,-1.0605 -1.55987,-2.41525 -0.67047,-0.23881 -1.28069,-1.47871 -1.07038,-1.77618 1.49473,-0.94313 -1.39716,-1.13468 -0.6737,-2.40729 -0.22775,-1.31056 -2.61552,0.85932 -1.19275,-0.7881 0.19068,-1.69017 -1.88773,-2.52729 -3.12737,-1.5597 0.59097,-1.72255 -1.31541,-1.32612 -2.01604,-1.08771 0.32885,-1.41711 -1.00489,-1.12217 -1.85653,-1.23957 -1.3104,-0.42122 -1.96364,0.37764 -2.71507,1.37204 -0.98888,0.93464 0.37693,-1.73074 0.38732,-2.22039 0.21927,-0.88647 -0.56932,-1.22591 -1.09647,-1.1144 -0.31606,0.88384 -0.69432,2.01865 -0.65714,0.46252 -0.93139,-0.65687 -0.63077,-0.95458 -0.93484,-1.44617 z m 1.44122,2.82889 c 0.60884,-1.9225 0.83701,0.0284 0.0515,1.0509 -0.53119,1.57578 0.72136,2.02078 1.38889,0.53962 0.70454,-1.03061 1.3644,-1.22545 2.53067,-0.90845 1.4108,-0.44568 0.66264,2.16387 2.24903,1.08566 1.96175,-1.01636 -0.93284,2.55666 1.02819,1.4624 1.23412,-1.61554 4.16486,0.3033 1.96898,1.72633 -0.44336,1.1338 0.96719,0.11055 1.49328,0.0888 1.48365,-0.46043 -0.59752,1.59677 1.19358,1.44504 0.74192,0.1214 -1.06387,1.31273 0.43355,1.68182 0.0899,1.0676 1.15236,1.2658 1.19003,2.40638 0.59384,0.24276 1.3157,0.51415 0.31176,1.00834 0.67009,1.23427 1.12747,2.77845 1.10921,4.40015 0.59049,1.21422 -0.92444,1.9137 -0.56157,3.37535 0.10927,1.12638 -2.2014,0.54154 -1.53021,2.27934 -0.5232,-0.16288 -0.59943,-0.003 -1.13813,-0.47603 -0.87,0.16463 -0.0575,3.0118 -1.02843,1.88998 -0.56341,-0.25698 -1.56081,-1.74813 -1.59652,-0.38805 -1.19911,-0.91563 -2.10193,1.15675 -2.72959,-0.7888 -1.30119,-0.0944 0.77437,2.23779 -1.09188,1.32362 -0.30807,0.77646 -0.049,2.58775 -1.44616,1.65211 0.009,0.79584 -0.58447,0.51639 -1.07113,0.8759 -0.25186,0.18606 -0.73101,-0.35175 -1.01864,-0.14047 -0.25165,0.18486 -0.59842,0.18207 -1.02686,-6.7e-4 -0.26629,-0.10949 -0.50733,-0.14241 -0.72714,-0.11742 -0.21982,0.025 -0.41841,0.1079 -0.59979,0.23007 -0.18138,0.12216 -0.27595,0.55091 -0.49653,0.46562 -0.0817,-0.0316 -0.39385,0.34519 -0.4174,0.58925 -0.11847,0.27044 -0.2535,0.36757 -0.3928,0.35679 -0.1393,-0.0108 -0.28287,-0.12949 -0.41842,-0.2907 -0.31873,-0.37908 -0.70063,-0.73672 -1.19024,-0.39062 -0.27943,0.19856 -0.70532,0.50746 -0.83972,0.2632 -0.21042,-0.38243 -0.51836,-0.29103 -0.82258,-0.20631 -0.26799,-0.11444 -0.53532,-0.5203 -0.7754,-0.38259 -0.28868,0.16558 -0.4885,-0.18135 -0.6982,-0.26567 -0.15473,-0.65987 -0.47477,-0.52943 -0.81146,-0.27902 -0.29215,-0.0169 -0.58888,0.0136 -0.8389,0.006 -0.25003,-0.008 -0.45336,-0.0542 -0.55873,-0.22485 -0.10536,-0.17063 -0.11276,-0.46557 0.0291,-0.9707 0.004,-0.2309 0.0408,-0.61809 0.079,-1.06302 -0.21024,-0.60024 0.063,-1.53731 0.65075,-2.34952 -0.30692,-0.22658 -0.66213,0.61635 -0.63697,-0.22456 -0.0735,-0.28169 -0.20486,-0.42403 -0.42394,-0.32847 -0.2461,0.64359 -0.57229,0.95446 -0.94533,1.0548 -0.33706,-0.2236 -0.75355,-0.36448 -1.22647,-0.20836 -0.53229,-0.14912 -0.92889,-0.46124 -1.30817,-0.73834 -0.37487,-0.62149 -0.81602,-0.60774 -1.19043,-0.53516 -0.28709,0.0509 -0.5624,0.26278 -0.81748,0.5162 -0.25509,0.25341 -0.48996,0.54839 -0.69617,0.76554 -0.20621,0.21715 -0.38375,0.35647 -0.5242,0.29859 -0.14045,-0.0579 -0.2438,-0.31298 -0.30161,-0.88466 -0.59318,-0.44956 -0.78063,-1.11913 -0.82571,-1.79428 -0.0451,-0.67515 0.19363,-1.35586 0.73565,-1.82771 -0.98191,-0.7398 -0.78888,-1.52614 -0.39004,-2.29367 0.39885,-0.76754 1.00349,-1.51627 0.84481,-2.18085 -0.28408,0.0367 -1.23593,0.65543 -1.78315,0.99283 -0.54723,0.33741 -0.1712,-0.24652 -0.0625,-0.69492 0.32422,-0.31775 1.13925,-0.73329 1.6806,-1.19268 0.54135,-0.4594 0.80901,-0.96265 0.0385,-1.45582 0.19621,-1.13703 3.06588,-2.51578 2.57513,-2.95904 -1.93862,0.15328 0.0228,-1.22122 -1.03815,-1.93907 0.63834,-0.27922 2.56316,-0.12559 1.54609,-1.14637 1.31639,0.46999 4.50442,1.3081 5.06225,0.22976 -0.29334,-1.24076 -2.31565,-1.01851 -2.41333,-1.42956 0.0774,-2.59821 2.1124,0.36266 3.68774,-0.3083 0.85182,-0.50997 -0.53089,-1.01577 -0.92964,-1.43739 -1.54361,-0.74179 1.63525,-0.92884 1.6669,0.0346 0.85189,0.73757 2.22663,2.79381 2.67613,2.84382 -0.1701,-1.52214 0.0402,-2.89224 -1.35257,-3.86503 -0.60038,-1.60192 1.26033,-1.30901 1.1256,0.16974 0.19151,1.41425 2.0445,2.39331 1.43953,0.46416 0.0126,-0.79728 -0.5091,-1.23127 0.46596,-1.63941 0.81845,-0.71669 0.32138,4.04381 1.43994,0.75412 z m 9.33133,23.60504 c 0.004,0.004 -0.003,0.0185 0,0 z m -4.48596,3.43881 c 0.7408,1.47857 0.0278,2.09462 0.75775,3.64222 0.91705,3.1795 1.75193,6.39969 2.89845,9.49957 0.7238,0.85527 1.97623,3.17888 -0.0271,2.73413 -1.54592,-0.18256 -2.89785,0.78501 -4.4155,0.95238 -1.65046,0.35901 -3.23392,1.22244 -4.85353,1.48367 -1.86042,-0.21208 -3.77855,-0.38188 -5.61714,-0.49048 0.042,-1.5678 -0.87419,-0.61463 -1.50028,-0.12233 -1.40007,-0.56891 -2.92156,-1.37695 -3.27068,-3.01299 0.13272,-2.06138 1.63389,-4.04438 2.04163,-6.17002 0.60544,-2.19339 1.31069,-4.36749 2.07668,-6.50554 0.14546,-0.5371 0.32773,-0.83887 0.54165,-0.987 0.21391,-0.14814 0.46392,0.0264 0.73149,-0.0652 0.33621,-0.11512 0.65652,-0.0312 0.8903,0.36632 0.17686,0.30076 0.66086,0.26933 1.01805,0.30763 0.18252,-0.16529 0.42127,-0.15066 0.59078,0.0427 0.16715,0.19064 0.25743,0.25185 0.64229,0.29083 0.29865,0.0302 0.43355,0.69003 0.64137,0.69564 0.20781,0.006 0.40673,-0.15451 0.58803,-0.60979 0.12394,-0.46449 0.25057,-0.88913 0.55543,-1.0591 0.30957,-0.1726 0.68574,-0.237 0.86452,-0.51554 0.18658,-0.29072 0.75193,0.0402 1.08644,-0.15975 0.26419,-0.15795 0.66274,-0.16002 1.22119,0.008 0.23349,-0.0208 0.39299,-0.17439 0.69998,0.0345 0.18173,0.12366 0.43629,-0.0761 0.63113,-0.0159 0.20311,0.0627 0.40104,0.25402 0.60011,-0.10661 0.0998,-0.18084 0.39927,-0.13208 0.60691,-0.23758 z"
       id="path6454"
       inkscape:connector-curvature="0"
       sodipodi:nodetypes="ccccccccccccccscsssccccccccccccccccccccccccccccccccccccccccccccccccccccccccccccccccccccccccccccsscssscsscscscccccccccccccccccccscscsccccccccccccccccccccccccccccssscssscssscsssc" />
    <rect
       style="opacity:1;fill:#ffffff;fill-opacity:1;stroke:#369766;stroke-width:0.96964598;stroke-miterlimit:4;stroke-dasharray:none;stroke-opacity:1"
       id="rect1702"
       width="47.030354"
       height="23.030354"
       x="-602.35577"
       y="434.21945"
       ry="2.2215753" />
    <text
       xml:space="preserve"
       style="font-style:normal;font-weight:normal;font-size:24px;line-height:125%;font-family:'Roadgeek 2005 Series D';text-align:center;letter-spacing:0px;word-spacing:0px;text-anchor:middle;fill:#369766;fill-opacity:1;stroke:none;stroke-width:1px;stroke-linecap:butt;stroke-linejoin:miter;stroke-opacity:1;-inkscape-font-specification:'Roadgeek 2005 Series D, Normal';font-stretch:normal;font-variant:normal;writing-mode:lr;font-variant-ligatures:normal;font-variant-caps:normal;font-variant-numeric:normal;font-feature-settings:normal;"
       x="-579.01611"
       y="453.55762"
       id="text1706"><tspan
         sodipodi:role="line"
         id="tspan1708">%num%</tspan></text>
  </g>
</svg>
