<?xml version="1.0" encoding="UTF-8" standalone="no"?>
<!-- Created with Inkscape (http://www.inkscape.org/) -->

<svg
   xmlns:dc="http://purl.org/dc/elements/1.1/"
   xmlns:cc="http://creativecommons.org/ns#"
   xmlns:rdf="http://www.w3.org/1999/02/22-rdf-syntax-ns#"
   xmlns:svg="http://www.w3.org/2000/svg"
   xmlns="http://www.w3.org/2000/svg"
   xmlns:xlink="http://www.w3.org/1999/xlink"
   xmlns:sodipodi="http://sodipodi.sourceforge.net/DTD/sodipodi-0.dtd"
   xmlns:inkscape="http://www.inkscape.org/namespaces/inkscape"
   width="48"
   height="64"
   id="svg2324"
   sodipodi:version="0.32"
   inkscape:version="0.48.1 r9760"
   version="1.0"
   inkscape:output_extension="org.inkscape.output.svg.inkscape"
   sodipodi:docname="CA:TCH_2.svg">
  <defs
     id="defs2326" />
  <sodipodi:namedview
     id="base"
     pagecolor="#ffffff"
     bordercolor="#666666"
     borderopacity="1.0"
     gridtolerance="10000"
     guidetolerance="10"
     objecttolerance="10"
     inkscape:pageopacity="0.0"
     inkscape:pageshadow="2"
     inkscape:zoom="12.671875"
     inkscape:cx="24"
     inkscape:cy="32"
     inkscape:document-units="px"
     inkscape:current-layer="layer1"
     inkscape:window-width="1278"
     inkscape:window-height="996"
     inkscape:window-x="1"
     inkscape:window-y="27"
     showgrid="true"
     inkscape:showpageshadow="false"
     inkscape:window-maximized="0">
    <inkscape:grid
       type="xygrid"
       id="grid2984"
       empspacing="5"
       visible="true"
       enabled="true"
       snapvisiblegridlinesonly="true" />
  </sodipodi:namedview>
  <metadata
     id="metadata2329">
    <rdf:RDF>
      <cc:Work
         rdf:about="">
        <dc:format>image/svg+xml</dc:format>
        <dc:type
           rdf:resource="http://purl.org/dc/dcmitype/StillImage" />
        <dc:title></dc:title>
      </cc:Work>
    </rdf:RDF>
  </metadata>
  <g
     inkscape:label="Layer 1"
     inkscape:groupmode="layer"
     id="layer1"
     transform="translate(461.12516,-728.34403)">
    <g
       id="g3797"
       transform="matrix(1.0982867,0,0,1.0982867,43.034473,-73.771526)"
       style="fill:#ffffff">
      <path
         id="path3793"
         d="m -433.31402,786.55728 c 4.47382,-0.70049 8.50631,-2.42897 11.92221,-5.11029 1.15678,-0.90801 1.5195,-1.25899 1.5195,-1.47027 0,-0.19627 -2.22667,-2.54687 -2.41258,-2.54687 -0.0603,0 -0.55557,0.35503 -1.10063,0.78895 -4.30154,3.42448 -9.26608,5.04607 -14.77507,4.82607 -4.47765,-0.17882 -8.97179,-1.9349 -12.68465,-4.95651 -0.58923,-0.47952 -1.12727,-0.87186 -1.19567,-0.87186 -0.0684,0 -0.67508,0.54281 -1.34819,1.20626 -0.83577,0.82376 -1.20344,1.25852 -1.1595,1.37106 0.13134,0.33639 2.1837,1.97927 3.74358,2.99667 3.39862,2.21668 6.92601,3.4093 11.72187,3.96319 0.81814,0.0945 4.77069,-0.0401 5.76913,-0.1964 z"
         style="fill:#ffffff"
         inkscape:connector-curvature="0" />
      <path
         id="path3791"
         d="m -421.49749,782.57681 c 0.55237,-0.61451 1.12139,-1.41075 1.05489,-1.47611 -0.10217,-0.10041 -2.03457,1.46839 -2.03457,1.65176 0,0.51036 0.43281,0.43276 0.97968,-0.17565 z"
         style="fill:#ffffff"
         inkscape:connector-curvature="0" />
      <path
         id="path3789"
         d="m -451.87179,782.80029 c 0.10917,-0.0971 0.19849,-0.21406 0.19849,-0.25993 0,-0.11575 -1.9734,-1.60645 -2.03999,-1.541 -0.11361,0.11166 1.37738,1.97748 1.58022,1.97748 0.0345,0 0.15212,-0.0794 0.26128,-0.17655 z"
         style="fill:#ffffff"
         inkscape:connector-curvature="0" />
      <path
         id="path3787"
         d="m -418.77587,780.44335 c 0.88979,-0.86538 1.6176,-1.63174 1.61737,-1.70303 -2.9e-4,-0.0912 -0.32961,-0.13861 -1.1129,-0.16001 l -1.1125,-0.0304 -0.1628,-1.00451 c -0.0895,-0.55248 -0.21696,-1.02226 -0.28314,-1.04393 -0.1481,-0.0485 -1.3449,1.2039 -1.3449,1.40739 0,0.0808 0.39073,0.55254 0.86829,1.04838 0.47756,0.49585 0.86829,0.9675 0.86829,1.04811 0,0.0806 -0.26863,0.54089 -0.59695,1.02288 -0.32832,0.48197 -0.59695,0.90157 -0.59695,0.93243 0,0.21939 0.44213,-0.14202 1.85619,-1.51731 z"
         style="fill:#ffffff"
         inkscape:connector-curvature="0" />
      <path
         id="path3785"
         d="m -454.39042,780.71003 c -0.2962,-0.48402 -0.53864,-0.91515 -0.53875,-0.95806 -1.1e-4,-0.043 0.414,-0.52294 0.92025,-1.06674 0.50626,-0.54378 0.92141,-1.02886 0.92256,-1.07794 0.001,-0.0491 -0.30029,-0.39874 -0.66988,-0.77701 -0.77518,-0.79342 -0.77357,-0.79414 -1.0157,0.44966 -0.0868,0.44607 -0.18509,0.8543 -0.21834,0.90716 -0.0332,0.0529 -0.54873,0.0961 -1.14553,0.0961 l -1.08509,0 0.19575,0.32571 c 0.27214,0.45278 2.83415,2.98116 3.02082,2.98116 0.0997,0 -0.0338,-0.30442 -0.38609,-0.88006 z"
         style="fill:#ffffff"
         inkscape:connector-curvature="0" />
    </g>
    <g
       id="g3834">
      <path
         transform="matrix(1.0018647,0,0,0.99624824,0.80337802,2.9535246)"
         d="m -437.03125,737.15625 a 0.96013747,0.96013747 0 0 0 -0.53125,0.1875 l -0.59375,0.4375 c -1.4971,1.05318 -2.27731,2.09951 -2.90625,4 -0.15986,0.48308 -0.42066,1.18703 -0.46875,1.28125 -0.0669,0.13106 -0.27094,0.3571 -0.4375,0.5 -0.11659,0.10003 -0.064,0.0877 -0.0312,0.0937 -0.0573,-0.0224 -0.10638,-0.027 -0.1875,-0.0625 -0.24337,-0.10659 -0.5866,-0.26814 -0.90625,-0.4375 -1.01227,-0.53634 -1.6411,-0.78125 -2.3125,-0.78125 -0.19137,0 -0.34872,0.001 -0.53125,0.0312 -0.18253,0.0298 -0.40823,0.0592 -0.71875,0.375 -0.15526,0.1579 -0.30424,0.43105 -0.3125,0.6875 -0.008,0.25645 0.0849,0.43567 0.15625,0.5625 0.14275,0.25366 0.27399,0.36086 0.40625,0.46875 0.0416,0.0339 0.21957,0.36281 0.21875,0.78125 -4.8e-4,0.24905 -0.082,0.67048 -0.5625,1.75 -0.42082,0.94553 -0.68272,1.54793 -0.78125,2.21875 -0.0985,0.67082 0.002,1.3004 0.1875,2 0.0691,0.2603 0.14814,0.51533 0.1875,0.71875 -0.0219,-0.009 -0.039,0.01 -0.0625,0 -0.23498,-0.0961 -0.54053,-0.22216 -0.84375,-0.375 -0.54616,-0.27531 -0.89095,-0.47691 -1.28125,-0.59375 -0.3903,-0.11684 -0.77288,-0.11979 -1.15625,-0.0937 -0.28573,0.0194 -0.54262,0.0698 -0.78125,0.125 -0.23863,0.0552 -0.51419,0.0943 -0.8125,0.4375 -0.14916,0.17158 -0.24139,0.43891 -0.25,0.6875 -0.009,0.24859 0.0529,0.45125 0.125,0.59375 0.0465,0.0919 0.10669,0.11959 0.15625,0.1875 -0.22536,-0.0589 -0.50889,-0.10897 -1.46875,-0.5625 -0.84139,-0.39754 -1.30481,-0.61098 -1.78125,-0.75 -0.47644,-0.13902 -0.88372,-0.15625 -1.40625,-0.15625 -0.87778,0 -1.5179,0.13605 -2.125,0.40625 -0.009,0.004 -0.0226,-0.004 -0.0312,0 l -0.625,0.28125 a 0.96013747,0.96013747 0 0 0 -0.25,1.59375 l 0.5,0.4375 c 0.17928,0.15433 0.46692,0.55681 0.40625,0.4375 -0.0883,-0.17373 -0.0535,-0.0694 -0.0312,0.0312 0.0222,0.1007 0.0646,0.25947 0.0937,0.4375 0.0583,0.35606 0.10622,0.80801 0.15625,1.28125 0.17377,1.64347 0.34241,2.19812 0.84375,3.1875 0.33031,0.65185 0.41473,1.12937 0.40625,1.28125 -0.008,0.15188 0.0731,0.0258 -0.0937,0.0937 -0.0246,-0.0102 -0.18886,-0.0539 -0.59375,-0.21875 -0.0926,-0.0377 -0.22405,-0.13675 -0.5625,-0.125 -0.16922,0.006 -0.40216,0.0647 -0.59375,0.21875 -0.19159,0.15401 -0.29745,0.36137 -0.34375,0.5 -0.18518,0.55453 -0.0718,0.66377 -0.0312,1 0.13368,1.10889 0.66633,2.20299 1.40625,3.03125 0.46965,0.52572 1.11914,0.93569 1.8125,1.34375 0.59855,0.35224 1.43398,0.91446 1.65625,1.09375 0.78178,0.63054 1.55203,1.03076 2.96875,1.53125 0.31071,0.10977 0.38366,0.18401 0.5625,0.28125 -0.95717,0.28924 -1.7265,0.60074 -2.53125,1.3125 -0.25715,0.22743 -0.50169,0.44072 -0.6875,0.625 -0.0929,0.0921 -0.17383,0.19251 -0.25,0.28125 -0.0381,0.0444 -0.0765,0.0835 -0.125,0.15625 -0.0485,0.0727 -0.1875,0.069 -0.1875,0.5625 0,-0.0163 -0.006,0.35316 0.21875,0.65625 0.22471,0.30309 0.41601,0.34644 0.5625,0.40625 0.29297,0.11962 0.63121,0.21026 1.40625,0.4375 0.99589,0.292 0.97561,0.28994 1.90625,1.0625 1.27594,1.05921 2.16251,1.44535 4,1.65625 0.71832,0.0824 1.32933,0.23282 1.625,0.375 l 0.65625,0.3125 a 0.96013747,0.96013747 0 0 0 1,-0.0625 l 0.4375,-0.3125 c -0.0475,0.0356 0.2146,-0.12726 0.5,-0.25 0.2854,-0.12274 0.6411,-0.27131 0.96875,-0.375 1.27947,-0.40488 1.75497,-0.65313 2.6875,-1.59375 0.0357,-0.0361 0.0584,-0.0587 0.0937,-0.0937 -0.0771,0.69833 -0.12255,1.42554 -0.0312,2.34375 0.12257,1.23328 0.14459,1.12008 -0.0625,1.71875 -0.0841,0.24308 -0.14927,0.48028 -0.1875,0.6875 -0.0191,0.10361 -0.0262,0.19155 -0.0312,0.3125 -0.003,0.0605 -0.0152,0.1113 0,0.21875 0.0152,0.10745 -0.0185,0.29911 0.28125,0.59375 0.27099,0.26631 0.39785,0.2767 0.5625,0.34375 0.16465,0.067 0.35367,0.10621 0.53125,0.15625 0.35516,0.10008 0.61295,0.23344 1.125,0.1875 0.11364,-0.0102 0.27913,-0.0264 0.53125,-0.15625 0.25212,-0.12986 0.48649,-0.44379 0.5625,-0.65625 0.15202,-0.42493 0.10646,-0.61514 0.125,-1 0.0326,-0.6777 -0.0961,-1.58024 -0.28125,-2.5 -0.16453,-0.8172 -0.21719,-1.35117 -0.21875,-1.65625 -0.002,-0.30508 0.008,-0.36742 0.0937,-0.53125 -0.0116,0.0221 0.0777,-0.0793 0.15625,-0.15625 0.16988,0.14052 0.37953,0.30073 0.59375,0.5 0.91038,0.84689 1.42519,1.16268 2.375,1.375 0.61596,0.13769 0.95901,0.27246 1.375,0.5625 0.33912,0.23644 0.5288,0.39317 0.90625,0.53125 0.18872,0.069 0.47067,0.12371 0.71875,0.0625 0.24808,-0.0612 0.40231,-0.18032 0.5,-0.25 0.61645,-0.43968 0.99212,-0.57844 1.96875,-0.6875 1.90902,-0.21319 2.64435,-0.52398 4,-1.59375 1.03721,-0.81848 1.09128,-0.84028 2.0625,-1.125 0.76997,-0.22573 1.1258,-0.29812 1.40625,-0.40625 0.14023,-0.0541 0.31257,-0.0419 0.59375,-0.46875 0.14059,-0.21341 0.19289,-0.56863 0.15625,-0.75 -0.0366,-0.18137 -0.0925,-0.21583 -0.0937,-0.21875 -0.13092,-0.29726 -0.15302,-0.24161 -0.1875,-0.28125 -0.0345,-0.0396 -0.0598,-0.0899 -0.0937,-0.125 -0.0679,-0.0703 -0.15446,-0.15777 -0.25,-0.25 -0.19108,-0.18447 -0.42203,-0.41278 -0.6875,-0.65625 -0.83977,-0.77019 -1.41024,-1.08881 -2.28125,-1.34375 -0.032,-0.009 -0.0321,-0.0219 -0.0625,-0.0312 0.25889,-0.12088 0.42604,-0.20947 0.90625,-0.375 0.91446,-0.31521 1.66389,-0.70741 2.53125,-1.34375 0.58201,-0.42699 1.54102,-1.07496 2.03125,-1.375 0.69297,-0.42412 1.28955,-0.93594 1.6875,-1.46875 0.42498,-0.569 0.72764,-1.23947 0.9375,-1.875 0.10493,-0.31776 0.18905,-0.62545 0.21875,-0.9375 0.0297,-0.31205 0.15061,-0.7016 -0.34375,-1.1875 -0.42165,-0.41373 -0.68067,-0.28851 -0.8125,-0.28125 -0.13183,0.007 -0.19755,0.0107 -0.28125,0.0312 -0.16739,0.0412 -0.34099,0.12205 -0.5,0.1875 -0.25153,0.10329 -0.3065,0.0864 -0.25,0.0937 0.0565,0.007 0.11204,0.0476 0,-0.0625 -0.0756,-0.0743 -0.0763,-0.0193 -0.0625,-0.21875 0.0138,-0.1995 0.13829,-0.63712 0.4375,-1.25 0.48578,-0.99499 0.65452,-1.54028 0.78125,-2.90625 0.0926,-0.99817 0.17438,-1.58471 0.25,-1.84375 0.0756,-0.25904 0.0283,-0.19436 0.21875,-0.34375 0.17581,-0.13787 0.33649,-0.28672 0.46875,-0.4375 0.0661,-0.0754 0.12303,-0.14791 0.1875,-0.25 0.0645,-0.10209 0.1875,-0.16334 0.1875,-0.59375 10e-6,-0.36803 -0.17555,-0.63667 -0.3125,-0.78125 -0.13695,-0.14458 -0.28659,-0.21448 -0.40625,-0.28125 -0.23932,-0.13354 -0.45459,-0.208 -0.71875,-0.28125 -0.52832,-0.1465 -1.15752,-0.25 -1.78125,-0.25 -0.48693,0 -0.90018,0.0177 -1.375,0.15625 -0.47482,0.13852 -0.95122,0.35785 -1.78125,0.75 -0.92562,0.43734 -1.22774,0.49856 -1.4375,0.5625 0.0408,-0.0569 0.0856,-0.0834 0.125,-0.15625 0.072,-0.13338 0.15061,-0.32319 0.15625,-0.5625 0.006,-0.23931 -0.10686,-0.53371 -0.25,-0.71875 -0.28628,-0.37008 -0.57815,-0.40975 -0.8125,-0.46875 -0.23435,-0.059 -0.4738,-0.10249 -0.75,-0.125 -0.37156,-0.0303 -0.75767,-0.0169 -1.15625,0.0937 -0.39858,0.11068 -0.77931,0.28903 -1.375,0.5625 -0.34126,0.15678 -0.63386,0.30641 -0.875,0.40625 0.007,-0.0641 0.004,-0.15418 0.0937,-0.40625 0.16813,-0.47515 0.25673,-0.99119 0.3125,-1.46875 0.0453,-0.38739 0.0588,-0.83151 -0.0625,-1.28125 -0.12126,-0.44974 -0.32346,-0.87336 -0.6875,-1.65625 -0.35306,-0.7593 -0.53829,-1.14146 -0.59375,-1.34375 -0.0555,-0.20229 -0.0249,-0.2717 0,-0.65625 0.021,-0.32458 0.0559,-0.48071 0.0625,-0.5 0.007,-0.0193 -0.042,0.0135 0.0625,-0.0937 0.11771,-0.12075 0.21699,-0.22534 0.3125,-0.34375 0.0478,-0.0592 0.10652,-0.11066 0.15625,-0.1875 0.0249,-0.0384 0.0602,-0.0851 0.0937,-0.15625 0.0335,-0.0711 0.0937,-0.14819 0.0937,-0.4375 0,-0.26847 -0.14778,-0.54422 -0.28125,-0.6875 -0.13347,-0.14328 -0.25291,-0.20915 -0.34375,-0.25 -0.18168,-0.0817 -0.2706,-0.0803 -0.375,-0.0937 -0.20879,-0.0268 -0.39384,-0.0121 -0.59375,0 -0.39981,0.0242 -0.83363,0.0744 -1.25,0.21875 -0.44948,0.1559 -0.95014,0.43058 -1.375,0.6875 -0.38737,0.23426 -0.64855,0.32475 -0.75,0.34375 -0.10145,0.019 -0.003,0.0182 -0.0312,0 0.13781,0.0888 -0.18168,-0.18436 -0.40625,-0.59375 -0.22457,-0.40939 -0.47419,-0.9768 -0.65625,-1.53125 -0.5523,-1.682 -1.10346,-2.4885 -2.46875,-3.53125 l -0.8125,-0.625 a 0.96013747,0.96013747 0 0 0 -0.625,-0.21875 z"
         id="path3832"
         style="fill:#008000;fill-opacity:1"
         inkscape:original="M -437 738.125 L -437.59375 738.5625 C -439.00585 739.55588 -439.55847 740.28741 -440.15625 742.09375 C -440.32297 742.59755 -440.55436 743.23916 -440.6875 743.5 C -440.97846 744.06994 -441.66575 744.65625 -442.03125 744.65625 C -442.17685 744.65625 -442.85207 744.35984 -443.53125 744 C -444.50874 743.48209 -444.91513 743.34375 -445.40625 743.34375 C -446.05388 743.34375 -446.16435 743.463 -445.8125 743.75 C -445.44594 744.04899 -445.21749 744.63532 -445.21875 745.28125 C -445.21965 745.74697 -445.37836 746.29037 -445.875 747.40625 C -446.70202 749.26445 -446.75854 749.67255 -446.40625 751 C -446.25517 751.5693 -446.15625 752.1228 -446.15625 752.25 C -446.15625 752.52056 -446.73899 753.03125 -447.0625 753.03125 C -447.18539 753.03125 -447.84558 752.76737 -448.5 752.4375 C -449.58681 751.88966 -449.73644 751.82738 -450.4375 751.875 C -451.47215 751.9453 -451.6304 752.13228 -451.09375 752.625 C -450.35394 753.30422 -450.65292 754.0625 -451.65625 754.0625 C -452.0515 754.0625 -452.68237 753.84304 -453.9375 753.25 C -455.61649 752.45671 -455.68559 752.4375 -456.71875 752.4375 C -457.54877 752.4375 -457.95112 752.51559 -458.46875 752.75 L -459.125 753.03125 L -458.625 753.46875 C -458.35742 753.6991 -458.08673 754.01694 -458 754.1875 C -457.9133 754.35807 -457.75996 755.3003 -457.65625 756.28125 C -457.48388 757.91144 -457.42235 758.16817 -456.9375 759.125 C -456.19926 760.58187 -456.24249 761.46595 -457.09375 761.8125 C -457.48811 761.97305 -457.5346 761.96146 -458.4375 761.59375 C -458.67424 761.49735 -458.70202 761.54826 -458.625 762.1875 C -458.52306 763.03311 -458.04172 764.07737 -457.46875 764.71875 C -457.2312 764.98466 -456.50877 765.50201 -455.875 765.875 C -455.24121 766.24798 -454.45451 766.76546 -454.125 767.03125 C -453.41496 767.60393 -452.81378 767.92005 -451.4375 768.40625 C -450.17312 768.85293 -449.61919 769.35933 -449.84375 769.84375 C -449.9479 770.06839 -450.16483 770.21369 -450.5625 770.3125 C -451.72516 770.60139 -452.21605 770.84872 -453.09375 771.625 C -453.58803 772.06216 -454 772.46329 -454 772.53125 C -454 772.67173 -454.04514 772.67197 -452.5 773.125 C -451.48036 773.42396 -451.21144 773.54562 -450.25 774.34375 C -449.01973 775.36505 -448.53268 775.57664 -446.75 775.78125 C -445.96618 775.87115 -445.3034 776.02897 -444.84375 776.25 L -444.15625 776.59375 L -443.71875 776.28125 C -443.47729 776.10022 -442.69406 775.76079 -441.96875 775.53125 C -440.69587 775.12845 -440.60915 775.08589 -439.6875 774.15625 C -439.16233 773.62651 -438.6694 773.1875 -438.59375 773.1875 C -438.51805 773.1875 -438.3227 773.27371 -438.15625 773.40625 C -437.86604 773.63721 -437.83915 773.69527 -437.96875 774.625 C -438.06135 775.28906 -438.06475 776.0345 -437.96875 777 C -437.84364 778.25883 -437.87221 778.48456 -438.09375 779.125 C -438.23017 779.51946 -438.29313 779.8951 -438.25 779.9375 C -438.07996 780.1046 -437.12693 780.37196 -436.8125 780.34375 C -436.50046 780.31575 -436.50619 780.24593 -436.46875 779.46875 C -436.44535 778.98193 -436.54603 778.04555 -436.71875 777.1875 C -437.05717 775.50663 -437.04329 774.93223 -436.75 774.375 C -436.55484 774.00405 -435.96052 773.5625 -435.625 773.5625 C -435.5443 773.5625 -435.0322 773.97368 -434.5 774.46875 C -433.59833 775.30754 -433.47674 775.38938 -432.5625 775.59375 C -431.87042 775.74846 -431.36301 775.95045 -430.84375 776.3125 C -430.16685 776.78444 -430.09252 776.8337 -429.84375 776.65625 C -429.1235 776.14253 -428.48188 775.90137 -427.40625 775.78125 C -425.52512 775.57117 -425.23568 775.45533 -423.90625 774.40625 C -422.84133 773.5659 -422.53452 773.41911 -421.53125 773.125 C -419.99204 772.67376 -420.01186 772.6776 -420.0625 772.5625 C -420.0869 772.5071 -420.54069 772.07232 -421.0625 771.59375 C -421.87447 770.84906 -422.16173 770.67371 -422.96875 770.4375 C -423.8527 770.17877 -424.3125 769.91364 -424.3125 769.65625 C -424.3125 769.14519 -423.78042 768.77859 -422.15625 768.21875 C -421.3162 767.92919 -420.68959 767.59762 -419.875 767 C -419.25733 766.54685 -418.30889 765.91668 -417.78125 765.59375 C -417.18909 765.23133 -416.66085 764.75772 -416.375 764.375 C -415.70341 763.47581 -415.18311 761.90575 -415.46875 761.625 C -415.51135 761.5832 -415.75203 761.64794 -416 761.75 C -416.6412 762.01331 -416.93906 761.96079 -417.3125 761.59375 C -417.81767 761.09725 -417.77707 760.36689 -417.125 759.03125 C -416.651 758.06039 -416.56147 757.77371 -416.4375 756.4375 C -416.25042 754.42102 -416.14987 754.02987 -415.59375 753.59375 C -415.33998 753.39474 -415.125 753.14652 -415.125 753.0625 C -415.12499 752.77121 -416.33239 752.4375 -417.375 752.4375 C -418.3265 752.4375 -418.47562 752.47075 -420.125 753.25 C -421.34165 753.82485 -422.00812 754.0625 -422.375 754.0625 C -423.39665 754.0625 -423.71407 753.30928 -422.96875 752.625 C -422.43962 752.13919 -422.56768 751.95609 -423.5625 751.875 C -424.2148 751.8219 -424.44658 751.89651 -425.625 752.4375 C -426.34847 752.76988 -426.98548 753.03125 -427.0625 753.03125 C -427.1395 753.03125 -427.36956 752.89915 -427.5625 752.75 C -427.96294 752.44043 -427.99563 752.03164 -427.71875 751.25 C -427.62005 750.97106 -427.51865 750.39604 -427.46875 749.96875 C -427.38125 749.22013 -427.40078 749.11999 -428.125 747.5625 C -428.83654 746.03223 -428.86423 745.89214 -428.8125 745.09375 C -428.7674 744.39732 -428.70358 744.21125 -428.40625 743.90625 C -428.20826 743.70315 -428.03125 743.48753 -428.03125 743.4375 C -428.03125 743.28012 -429.04882 743.34235 -429.59375 743.53125 C -429.88091 743.63085 -430.41087 743.90102 -430.78125 744.125 C -431.65553 744.65371 -432.16507 744.74482 -432.59375 744.46875 C -433.0024 744.20558 -433.62978 743.06638 -434.03125 741.84375 C -434.56593 740.21542 -434.87788 739.75023 -436.1875 738.75 L -437 738.125 z "
         inkscape:radius="0.96004146"
         sodipodi:type="inkscape:offset" />
      <path
         inkscape:connector-curvature="0"
         id="path3783"
         d="m -436.45436,779.48326 c 0.0234,-0.48682 -0.0815,-1.43192 -0.25422,-2.28997 -0.33842,-1.68087 -0.35029,-2.26809 -0.057,-2.82532 0.19516,-0.37095 0.8016,-0.79483 1.13712,-0.79483 0.0807,0 0.58213,0.40506 1.11433,0.90013 0.90167,0.83879 1.03449,0.91509 1.94873,1.11946 0.69208,0.15471 1.198,0.37054 1.71726,0.73259 0.6769,0.47194 0.75792,0.49772 1.00669,0.32027 0.72025,-0.51372 1.35767,-0.7387 2.4333,-0.85882 1.88113,-0.21008 2.16883,-0.32293 3.49826,-1.37201 1.06492,-0.84035 1.37078,-1.00814 2.37405,-1.30225 1.53921,-0.45124 1.51291,-0.44123 1.46227,-0.55633 -0.0244,-0.0554 -0.4713,-0.4924 -0.99311,-0.97097 -0.81197,-0.74469 -1.08472,-0.90994 -1.89174,-1.14615 -0.88395,-0.25873 -1.35342,-0.53285 -1.35342,-0.79024 0,-0.51106 0.53248,-0.86216 2.15665,-1.422 0.84005,-0.28956 1.46654,-0.62548 2.28113,-1.2231 0.61767,-0.45315 1.55473,-1.08811 2.08237,-1.41104 0.59216,-0.36242 1.13658,-0.82445 1.42243,-1.20717 0.67159,-0.89919 1.18604,-2.47195 0.9004,-2.7527 -0.0426,-0.0418 -0.28032,0.007 -0.52829,0.10906 -0.6412,0.26331 -0.95743,0.23099 -1.33087,-0.13605 -0.50517,-0.4965 -0.44533,-1.24287 0.20674,-2.57851 0.474,-0.97086 0.54912,-1.26074 0.67309,-2.59695 0.18708,-2.01648 0.30551,-2.40728 0.86163,-2.8434 0.25377,-0.19901 0.4614,-0.43057 0.4614,-0.51459 10e-6,-0.29129 -1.22077,-0.63238 -2.26338,-0.63238 -0.9515,0 -1.08012,0.0386 -2.7295,0.81785 -1.21665,0.57485 -1.88603,0.81785 -2.25291,0.81785 -1.02165,0 -1.33424,-0.77402 -0.58892,-1.4583 0.52913,-0.48581 0.38866,-0.65678 -0.60616,-0.73787 -0.6523,-0.0531 -0.8651,0.004 -2.04352,0.54499 -0.72347,0.33238 -1.37842,0.60433 -1.45544,0.60433 -0.077,0 -0.2979,-0.12206 -0.49084,-0.27121 -0.40044,-0.30957 -0.44804,-0.72996 -0.17116,-1.5116 0.0987,-0.27894 0.22046,-0.85675 0.27036,-1.28404 0.0875,-0.74862 0.0634,-0.83565 -0.66082,-2.39314 -0.71154,-1.53027 -0.74864,-1.66114 -0.69691,-2.45953 0.0451,-0.69643 0.11727,-0.90754 0.4146,-1.21254 0.19799,-0.2031 0.35998,-0.41022 0.35998,-0.46025 0,-0.15738 -1.00883,-0.0989 -1.55376,0.09 -0.28716,0.0996 -0.82514,0.36432 -1.19552,0.5883 -0.87428,0.52871 -1.38355,0.62747 -1.81223,0.3514 -0.40865,-0.26317 -1.03011,-1.40295 -1.43158,-2.62558 -0.53468,-1.62833 -0.85107,-2.07926 -2.16069,-3.07949 l -0.82151,-0.62743 -0.58857,0.41406 c -1.4121,0.99338 -1.95399,1.74823 -2.55177,3.55457 -0.16672,0.5038 -0.41208,1.1294 -0.54522,1.39024 -0.29096,0.56994 -0.97226,1.16144 -1.33776,1.16144 -0.1456,0 -0.82041,-0.29443 -1.49959,-0.65427 -0.97749,-0.51791 -1.3642,-0.65428 -1.85532,-0.65428 -0.64763,0 -0.76381,0.11273 -0.41196,0.39973 0.36656,0.29899 0.59039,0.87796 0.58913,1.52389 -9e-4,0.46572 -0.17433,1.01701 -0.67097,2.13289 -0.82702,1.8582 -0.88678,2.25929 -0.53449,3.58674 0.15108,0.5693 0.2747,1.13915 0.2747,1.26635 0,0.27056 -0.60155,0.77369 -0.92506,0.77369 -0.12289,0 -0.75888,-0.26989 -1.4133,-0.59976 -1.08681,-0.54784 -1.25634,-0.59527 -1.9574,-0.54765 -1.03465,0.0703 -1.18766,0.24325 -0.65101,0.73597 0.73981,0.67922 0.43754,1.45829 -0.56579,1.45829 -0.39525,0 -1.02092,-0.22481 -2.27605,-0.81785 -1.67899,-0.79329 -1.76291,-0.81785 -2.79607,-0.81785 -0.83002,0 -1.21173,0.0665 -1.72936,0.30091 l -0.66423,0.3009 0.48651,0.4188 c 0.26758,0.23035 0.55746,0.55837 0.64419,0.72893 0.0867,0.17057 0.24253,1.11274 0.34624,2.09369 0.17237,1.63019 0.23419,1.87358 0.71904,2.83041 0.73824,1.45687 0.68229,2.34971 -0.16897,2.69626 -0.39436,0.16055 -0.44926,0.1518 -1.35216,-0.21591 -0.23674,-0.0964 -0.2485,-0.0564 -0.17148,0.58284 0.10194,0.84561 0.57782,1.89419 1.15079,2.53557 0.23755,0.26591 0.95045,0.78863 1.58422,1.16162 0.63379,0.37298 1.42194,0.8956 1.75145,1.16139 0.71004,0.57268 1.3078,0.87606 2.68408,1.36226 1.26438,0.44668 1.82942,0.95262 1.60486,1.43704 -0.10415,0.22464 -0.32384,0.36624 -0.72151,0.46505 -1.16266,0.28889 -1.65788,0.5474 -2.53558,1.32368 -0.49428,0.43716 -0.8987,0.85043 -0.8987,0.91839 0,0.14048 -0.055,0.11936 1.49014,0.57239 1.01964,0.29896 1.28706,0.44704 2.2485,1.24517 1.23027,1.0213 1.73097,1.22503 3.51365,1.42964 0.78382,0.0899 1.43519,0.25289 1.89484,0.47392 l 0.70045,0.33681 0.43903,-0.32911 c 0.24146,-0.18103 1.03246,-0.51691 1.75777,-0.74645 1.27288,-0.4028 1.35196,-0.45081 2.27361,-1.38045 0.52517,-0.52974 1.01676,-0.96315 1.09241,-0.96315 0.0757,0 0.27373,0.10831 0.44018,0.24085 0.29021,0.23096 0.29709,0.28068 0.16749,1.21041 -0.0926,0.66406 -0.091,1.41369 0.005,2.37919 0.12511,1.25883 0.11359,1.48637 -0.10795,2.12681 -0.13642,0.39446 -0.21274,0.75187 -0.16961,0.79427 0.17004,0.1671 1.11523,0.43814 1.42966,0.40993 0.31204,-0.028 0.33534,-0.0816 0.37278,-0.85878 z"
         style="fill:#ffffff" />
    </g>
    <path
       style="font-size:50px;fill:#008000"
       d="m -458.5541,731.39622 3.3467,0 0,0.44274 -1.4044,0 0,3.44551 -0.53791,0 0,-3.44551 -1.40439,0 0,-0.44274 m 5.74212,2.06523 c 0.11483,0.0382 0.22612,0.11981 0.33387,0.2448 0.10952,0.12502 0.21905,0.2969 0.32858,0.51567 l 0.54321,1.06255 -0.57501,0 -0.50611,-0.99745 c -0.13073,-0.26043 -0.25792,-0.43318 -0.38157,-0.51826 -0.1219,-0.0851 -0.28883,-0.12761 -0.50082,-0.12761 l -0.58295,0 0,1.64332 -0.53526,0 0,-3.88825 1.20831,0 c 0.45223,0 0.78963,0.0929 1.01222,0.27867 0.22258,0.18577 0.33387,0.46618 0.33389,0.8412 -10e-6,0.2448 -0.0583,0.44793 -0.17489,0.6094 -0.11483,0.16147 -0.28265,0.27346 -0.50347,0.33596 m -1.3408,-1.63291 0,1.38029 0.67305,0 c 0.25791,0 0.45223,-0.0582 0.58295,-0.17448 0.13249,-0.11807 0.19874,-0.29083 0.19874,-0.51826 0,-0.22745 -0.0662,-0.39847 -0.19874,-0.51306 -0.13072,-0.11632 -0.32504,-0.17449 -0.58295,-0.17449 l -0.67305,0 m 4.33772,0.0859 -0.72604,1.93501 1.45474,0 -0.7287,-1.93501 m -0.30208,-0.51826 0.60681,0 1.50773,3.88825 -0.55645,0 -0.36038,-0.99745 -1.78331,0 -0.36038,0.99745 -0.5644,0 1.51038,-3.88825 m 2.68955,0 0.72076,0 1.75416,3.2528 0,-3.2528 0.51936,0 0,3.88825 -0.72075,0 -1.75417,-3.25279 0,3.25279 -0.51936,0 0,-3.88825 m 6.43107,0.12761 0,0.51306 c -0.20316,-0.0954 -0.39483,-0.16667 -0.57501,-0.21356 -0.18019,-0.0469 -0.35419,-0.0703 -0.52201,-0.0704 -0.29148,10e-6 -0.51671,0.0555 -0.6757,0.16668 -0.15722,0.11112 -0.23583,0.26912 -0.23583,0.47399 0,0.17188 0.0521,0.3021 0.15633,0.39064 0.106,0.0868 0.30561,0.15714 0.59886,0.21096 l 0.32328,0.0651 c 0.39923,0.0747 0.69336,0.20662 0.88238,0.39586 0.19078,0.18752 0.28617,0.43927 0.28618,0.75526 -1e-5,0.37675 -0.12896,0.66236 -0.38687,0.85682 -0.25615,0.19445 -0.63242,0.29169 -1.12882,0.29169 -0.18725,0 -0.38687,-0.0208 -0.59885,-0.0625 -0.21022,-0.0417 -0.42839,-0.10331 -0.6545,-0.1849 l 0,-0.5417 c 0.21728,0.11979 0.43015,0.21008 0.6386,0.27085 0.20845,0.0607 0.41337,0.0911 0.61475,0.0911 0.30561,0 0.54144,-0.0591 0.7075,-0.17709 0.16605,-0.11806 0.24908,-0.28647 0.24908,-0.50524 0,-0.19097 -0.0601,-0.3403 -0.18019,-0.44794 -0.11836,-0.10765 -0.31356,-0.18838 -0.5856,-0.24221 l -0.32593,-0.0625 c -0.39924,-0.0781 -0.68806,-0.20052 -0.86648,-0.3672 -0.17842,-0.16668 -0.26763,-0.39847 -0.26763,-0.69536 0,-0.34377 0.12277,-0.61462 0.36832,-0.81255 0.24731,-0.19792 0.58737,-0.29689 1.02017,-0.29689 0.18549,0 0.37451,0.0165 0.56706,0.0494 0.19255,0.033 0.38952,0.0825 0.59091,0.14845 m 5.77391,0.17189 0,0.55472 c -0.18019,-0.16494 -0.37274,-0.28822 -0.57766,-0.36982 -0.20315,-0.0816 -0.41955,-0.1224 -0.6492,-0.12241 -0.45223,1e-5 -0.79847,0.1363 -1.03872,0.40888 -0.24025,0.27085 -0.36037,0.66324 -0.36037,1.17716 0,0.51218 0.12012,0.90457 0.36037,1.17715 0.24025,0.27085 0.58649,0.40628 1.03872,0.40628 0.22965,0 0.44605,-0.0408 0.6492,-0.12241 0.20492,-0.0816 0.39747,-0.20487 0.57766,-0.36981 l 0,0.54952 c -0.18725,0.125 -0.38599,0.21876 -0.5962,0.28126 -0.20846,0.0625 -0.42927,0.0938 -0.66245,0.0938 -0.59886,0 -1.07052,-0.17971 -1.415,-0.5391 -0.34447,-0.36113 -0.51671,-0.85335 -0.51671,-1.47665 0,-0.62504 0.17224,-1.11725 0.51671,-1.47666 0.34448,-0.36112 0.81614,-0.54169 1.415,-0.54169 0.23671,0 0.45929,0.0313 0.66775,0.0938 0.21021,0.0607 0.40718,0.15279 0.5909,0.27606 m 2.15429,0.21876 -0.72605,1.935 1.45474,0 -0.72869,-1.935 m -0.30208,-0.51826 0.60681,0 1.50773,3.88825 -0.55646,0 -0.36037,-0.99746 -1.78331,0 -0.36038,0.99746 -0.56441,0 1.51039,-3.88825 m 2.68955,0 0.72074,0 1.75417,3.25279 0,-3.25279 0.51936,0 0,3.88825 -0.72074,0 -1.75417,-3.2528 0,3.2528 -0.51936,0 0,-3.88825 m 5.38174,0.51826 -0.72604,1.935 1.45474,0 -0.7287,-1.935 m -0.30207,-0.51826 0.6068,0 1.50774,3.88825 -0.55646,0 -0.36038,-0.99746 -1.78331,0 -0.36037,0.99746 -0.56441,0 1.51039,-3.88825 m 3.2248,0.43232 0,3.02361 0.64655,0 c 0.54586,0 0.9451,-0.12153 1.19771,-0.36461 0.25438,-0.24306 0.38157,-0.62676 0.38157,-1.15111 0,-0.52085 -0.12719,-0.90196 -0.38157,-1.14329 -0.25261,-0.24307 -0.65185,-0.3646 -1.19771,-0.3646 l -0.64655,0 m -0.53526,-0.43232 1.09967,0 c 0.76667,0 1.32931,0.15713 1.68792,0.47137 0.35861,0.31253 0.53791,0.80215 0.53791,1.46884 0,0.67019 -0.18019,1.1624 -0.54056,1.47666 -0.36037,0.31425 -0.92213,0.47138 -1.68527,0.47138 l -1.09967,0 0,-3.88825 m 5.40295,0.51826 -0.72605,1.935 1.45474,0 -0.72869,-1.935 m -0.30208,-0.51826 0.6068,0 1.50774,3.88825 -0.55646,0 -0.36037,-0.99746 -1.78332,0 -0.36037,0.99746 -0.56441,0 1.51039,-3.88825"
       id="text2223"
       inkscape:connector-curvature="0" />
    <path
       style="fill:none;stroke:none;stroke-width:0.10000000000000001;stroke-linecap:butt;stroke-linejoin:miter;stroke-miterlimit:4;stroke-opacity:1;stroke-dasharray:none"
       d="m -454.12516,780.1445 c 0,0 6.7688,6.43403 17,6.43403 10.2312,0 17,-6.43403 17,-6.43403"
       id="path2992"
       inkscape:connector-curvature="0"
       sodipodi:nodetypes="czc" />
    <text
       xml:space="preserve"
       style="font-size:5px;font-style:normal;font-variant:normal;font-weight:normal;font-stretch:normal;text-align:center;line-height:125%;letter-spacing:0px;word-spacing:0px;text-anchor:middle;fill:#008000;fill-opacity:1;stroke:none;font-family:Roadgeek 2005 Series D;-inkscape-font-specification:Roadgeek 2005 Series D;writing-mode:lr"
       id="text3762"
       sodipodi:linespacing="125%"
       x="16.4993"
       y="53.788341">%mod%</text>
    <g
       id="g3826">
      <path
         transform="matrix(0.99708392,0,0,0.98869135,-1.2701191,8.8702127)"
         d="m -455.5625,777.84375 c -0.21512,-0.0873 -0.62239,-0.12153 -0.96875,0.0312 -0.35015,0.15443 -0.50288,0.39507 -0.59375,0.5625 -0.0909,0.16743 -0.14992,0.3067 -0.1875,0.4375 -0.0752,0.2616 -0.12075,0.50217 -0.1875,0.84375 -0.0155,0.0795 -0.0461,0.14257 -0.0625,0.21875 -0.12934,0.004 -0.22683,0.0312 -0.375,0.0312 l -1.1875,0 a 1.0734663,1.0734663 0 0 0 -0.9375,1.59375 l 0.21875,0.375 a 1.0734663,1.0734663 0 0 0 0.0312,0.0312 c 0.23154,0.38375 0.42733,0.53208 0.75,0.875 0.32267,0.34292 0.70261,0.7413 1.09375,1.125 0.39114,0.3837 0.77743,0.77903 1.09375,1.0625 0.15816,0.14174 0.30787,0.2418 0.4375,0.34375 0.0648,0.051 0.10358,0.10287 0.1875,0.15625 0.0839,0.0534 0.0425,0.1875 0.65625,0.1875 0.0281,0 0.0618,-0.0577 0.0937,-0.0625 0.045,0.056 0.0787,0.10002 0.125,0.15625 0.22734,0.27584 0.47157,0.55897 0.6875,0.78125 0.10797,0.11114 0.19525,0.21515 0.3125,0.3125 0.0586,0.0487 0.12117,0.0972 0.21875,0.15625 0.0976,0.059 0.20901,0.15625 0.625,0.15625 0.39284,0 0.4508,-0.0853 0.53125,-0.125 0.0804,-0.0397 0.13571,-0.0594 0.1875,-0.0937 0.051,-0.0339 0.0781,-0.0886 0.125,-0.125 0.007,-0.005 0.0247,0.005 0.0312,0 3.86179,2.50384 7.94094,3.88201 13.3125,4.5 0.70358,0.081 1.89557,0.0468 3.25,0 1.35443,-0.0468 2.66069,-0.10729 3.375,-0.21875 4.04384,-0.63074 7.67531,-2.21055 11,-4.28125 0.0182,0.0223 0.011,0.0404 0.0312,0.0625 0.31853,0.34706 0.87688,0.46393 1.21875,0.40625 0.68373,-0.11536 1.02243,-0.48089 1.40625,-0.90625 0.10517,-0.11655 0.17995,-0.22367 0.28125,-0.34375 0.0914,-0.0202 0.25774,0.0522 0.3125,0.0312 0.33877,-0.12978 0.46776,-0.25243 0.65625,-0.40625 0.37698,-0.30764 0.87361,-0.77299 1.65625,-1.53125 0.49826,-0.48273 0.94349,-0.95649 1.28125,-1.3125 0.16888,-0.17801 0.32649,-0.30832 0.4375,-0.4375 0.0555,-0.0646 0.10316,-0.14634 0.15625,-0.21875 0.0265,-0.0362 0.0537,-0.0546 0.0937,-0.125 0.0401,-0.0704 0.1265,-0.0949 0.125,-0.5625 -0.001,-0.33338 -0.17455,-0.65807 -0.34375,-0.8125 -0.1692,-0.15443 -0.30489,-0.21232 -0.40625,-0.25 -0.20273,-0.0754 -0.33031,-0.10838 -0.46875,-0.125 -0.27688,-0.0332 -0.59144,-0.0193 -1.03125,-0.0312 l -0.34375,0 -0.0312,-0.28125 c -0.0548,-0.33679 -0.11564,-0.61831 -0.1875,-0.875 -0.0359,-0.12835 -0.0701,-0.24482 -0.125,-0.375 -0.0274,-0.0651 -0.0583,-0.14683 -0.125,-0.25 -0.0667,-0.10317 -0.10805,-0.31039 -0.59375,-0.46875 -0.43254,-0.14121 -0.65529,-0.0172 -0.78125,0.0312 -0.12596,0.0484 -0.18743,0.0852 -0.25,0.125 -0.12515,0.0795 -0.21779,0.1694 -0.3125,0.25 -0.18941,0.1612 -0.37003,0.33058 -0.5625,0.53125 -0.10895,0.11358 -0.21215,0.22893 -0.3125,0.34375 -0.05,-0.0406 -0.0859,-0.079 -0.15625,-0.125 -0.0858,-0.0561 -0.0745,-0.1875 -0.65625,-0.1875 -0.54909,0 -0.463,0.0892 -0.53125,0.125 -0.0682,0.0358 -0.13722,0.0617 -0.1875,0.0937 -0.10057,0.064 -0.19181,0.13192 -0.3125,0.21875 -0.24139,0.17365 -0.53322,0.40998 -0.84375,0.65625 -4.53913,3.59975 -9.71582,5.29384 -15.53125,5.0625 -4.66524,-0.1856 -9.37376,-2.05096 -13.28125,-5.21875 -0.34058,-0.2761 -0.67545,-0.50153 -0.9375,-0.6875 -0.13102,-0.093 -0.23495,-0.18286 -0.34375,-0.25 -0.0544,-0.0336 -0.11545,-0.0577 -0.1875,-0.0937 -0.072,-0.0361 -0.0303,-0.125 -0.53125,-0.125 -0.35405,0 -0.42673,0.0577 -0.5,0.0937 -0.0733,0.036 -0.11964,0.0697 -0.15625,0.0937 -0.0411,0.027 -0.0618,0.0384 -0.0937,0.0625 -0.11025,-0.12204 -0.21067,-0.23932 -0.34375,-0.375 -0.21269,-0.21686 -0.38194,-0.38948 -0.59375,-0.5625 -0.10591,-0.0865 -0.22238,-0.19394 -0.4375,-0.28125 z"
         id="path3824"
         style="fill:#008000;fill-opacity:1"
         inkscape:original="M -456.09375 778.84375 C -456.23297 778.90515 -456.30453 779.2571 -456.4375 779.9375 C -456.5328 780.42554 -456.65098 780.87966 -456.6875 780.9375 C -456.724 780.9954 -457.28204 781.03125 -457.9375 781.03125 L -459.125 781.03125 L -458.90625 781.40625 C -458.60736 781.90163 -455.79877 784.65625 -455.59375 784.65625 C -455.48426 784.65625 -455.64435 784.31729 -456.03125 783.6875 C -456.35656 783.15794 -456.59363 782.7032 -456.59375 782.65625 C -456.59387 782.60925 -456.14975 782.06369 -455.59375 781.46875 C -455.03773 780.87381 -454.59501 780.33494 -454.59375 780.28125 C -454.59275 780.22755 -454.90658 779.85135 -455.3125 779.4375 C -455.73818 779.00347 -455.95453 778.78234 -456.09375 778.84375 z M -418.0625 779.09375 C -418.22515 779.04065 -419.53125 780.40237 -419.53125 780.625 C -419.53125 780.7134 -419.11825 781.23877 -418.59375 781.78125 C -418.06925 782.32375 -417.625 782.8493 -417.625 782.9375 C -417.625 783.0257 -417.92066 783.53517 -418.28125 784.0625 C -418.64184 784.58981 -418.9375 785.02873 -418.9375 785.0625 C -418.9375 785.30252 -418.45929 784.91091 -416.90625 783.40625 C -415.929 782.45946 -415.12475 781.60925 -415.125 781.53125 C -415.12532 781.43145 -415.48348 781.39842 -416.34375 781.375 L -417.5625 781.34375 L -417.75 780.21875 C -417.8483 779.61429 -417.98981 779.11745 -418.0625 779.09375 z M -453.4375 779.875 C -453.5126 779.875 -454.16698 780.46164 -454.90625 781.1875 C -455.82416 782.08874 -456.23576 782.56436 -456.1875 782.6875 C -456.04325 783.05553 -453.80695 784.85564 -452.09375 785.96875 C -448.3611 788.39395 -444.48598 789.70651 -439.21875 790.3125 C -438.3202 790.41589 -433.97158 790.26486 -432.875 790.09375 C -427.96147 789.32736 -423.53288 787.43355 -419.78125 784.5 C -418.51077 783.50657 -418.09375 783.13741 -418.09375 782.90625 C -418.09375 782.69152 -420.54581 780.09375 -420.75 780.09375 C -420.8162 780.09375 -421.37012 780.49401 -421.96875 780.96875 C -426.69308 784.71537 -432.13705 786.49069 -438.1875 786.25 C -443.10524 786.05435 -448.04721 784.11835 -452.125 780.8125 C -452.77214 780.28787 -453.36237 779.875 -453.4375 779.875 z M -455.28125 784.03125 C -455.40603 784.15342 -453.75403 786.15625 -453.53125 786.15625 C -453.49335 786.15625 -453.36989 786.07503 -453.25 785.96875 C -453.1301 785.86252 -453.03125 785.73769 -453.03125 785.6875 C -453.03125 785.56087 -455.20811 783.95964 -455.28125 784.03125 z M -418.71875 784.125 C -418.83096 784.01515 -420.96875 785.70563 -420.96875 785.90625 C -420.96875 786.46462 -420.47562 786.38438 -419.875 785.71875 C -419.26834 785.04643 -418.64572 784.19651 -418.71875 784.125 z "
         inkscape:radius="1.073359"
         sodipodi:type="inkscape:offset" />
      <path
         inkscape:connector-curvature="0"
         id="path3806"
         d="m -456.09391,778.85427 c -0.13922,0.0614 -0.21078,0.40915 -0.34375,1.08955 -0.0953,0.48804 -0.21348,0.93832 -0.25,0.99616 -0.0365,0.0579 -0.59454,0.0933 -1.25,0.0933 l -1.1875,0 0.21875,0.37356 c 0.29889,0.49538 3.10748,3.23752 3.3125,3.23752 0.10949,0 -0.0506,-0.33524 -0.4375,-0.96503 -0.32531,-0.52956 -0.56238,-0.98034 -0.5625,-1.02729 -1.2e-4,-0.047 0.444,-0.588 1,-1.18294 0.55602,-0.59494 0.99874,-1.12925 1,-1.18294 10e-4,-0.0537 -0.31283,-0.42666 -0.71875,-0.84051 -0.42568,-0.43403 -0.64203,-0.65288 -0.78125,-0.59147 z m 38.03125,0.24904 c -0.16265,-0.0531 -1.46875,1.30274 -1.46875,1.52537 0,0.0884 0.413,0.60933 0.9375,1.15181 0.5245,0.5425 0.96875,1.06361 0.96875,1.15181 0,0.0882 -0.29566,0.59335 -0.65625,1.12068 -0.36059,0.52731 -0.65625,0.96239 -0.65625,0.99616 0,0.24002 0.47821,-0.14523 2.03125,-1.64989 0.97725,-0.94679 1.7815,-1.7898 1.78125,-1.8678 -3.2e-4,-0.0998 -0.35848,-0.13223 -1.21875,-0.15565 l -1.21875,-0.0311 -0.1875,-1.12068 c -0.0983,-0.60446 -0.23981,-1.09698 -0.3125,-1.12068 z m -35.375,0.77825 c -0.0751,0 -0.72948,0.5816 -1.46875,1.30746 -0.91791,0.90124 -1.32951,1.3711 -1.28125,1.49424 0.14425,0.36803 2.38055,2.18667 4.09375,3.29978 3.73265,2.4252 7.60777,3.72108 12.875,4.32707 0.89855,0.10339 5.24717,-0.0468 6.34375,-0.21791 4.91353,-0.76639 9.34212,-2.66985 13.09375,-5.6034 1.27048,-0.99343 1.6875,-1.35647 1.6875,-1.58763 0,-0.21473 -2.45206,-2.8017 -2.65625,-2.8017 -0.0662,0 -0.62012,0.3969 -1.21875,0.87164 -4.72433,3.74662 -10.1683,5.53279 -16.21875,5.2921 -4.91774,-0.19565 -9.85971,-2.1419 -13.9375,-5.44775 -0.64714,-0.52463 -1.23737,-0.9339 -1.3125,-0.9339 z m -1.84375,4.14029 c -0.12478,0.12217 1.52722,2.14797 1.75,2.14797 0.0379,0 0.16136,-0.0805 0.28125,-0.18678 0.1199,-0.10623 0.21875,-0.22998 0.21875,-0.28017 0,-0.12663 -2.17686,-1.75263 -2.25,-1.68102 z m 36.5625,0.0933 c -0.11221,-0.10985 -2.25,1.60492 -2.25,1.80554 0,0.55837 0.49313,0.47885 1.09375,-0.18678 0.60666,-0.67232 1.22928,-1.54725 1.15625,-1.61876 z"
         style="fill:#ffffff;fill-opacity:1" />
    </g>
    <path
       style="fill:none;stroke:none"
       d="m -456.62516,781.99403 c 0,0 6.82922,8 19.5,8 12.67078,0 19.5,-8 19.5,-8"
       id="path3838"
       inkscape:connector-curvature="0"
       sodipodi:nodetypes="czc" />
    <text
       xml:space="preserve"
       style="font-size:5px;font-style:normal;font-variant:normal;font-weight:normal;font-stretch:normal;text-align:center;line-height:125%;letter-spacing:0px;word-spacing:0px;text-anchor:middle;fill:#008000;fill-opacity:1;stroke:none;font-family:Roadgeek 2005 Series D;-inkscape-font-specification:Roadgeek 2005 Series D;writing-mode:lr"
       id="text3840"
       sodipodi:linespacing="125%"><textPath
         xlink:href="#path3838"
         startOffset="50%"
         id="textPath3844">%mod%</textPath></text>
    <text
       xml:space="preserve"
       style="font-size:26px;font-style:normal;font-variant:normal;font-weight:normal;font-stretch:normal;text-align:center;line-height:125%;letter-spacing:0px;word-spacing:0px;writing-mode:lr;text-anchor:middle;fill:#008000;fill-opacity:1;stroke:none;font-family:Roadgeek 2005 Series D;-inkscape-font-specification:Roadgeek 2005 Series D"
       x="-437.12515"
       y="772.34406"
       id="text3847"
       sodipodi:linespacing="125%"><tspan
         sodipodi:role="line"
         id="tspan3991">%num%</tspan></text>
  </g>
</svg>
