<?xml version="1.0" encoding="UTF-8" standalone="no"?>
<!-- Created with Inkscape (http://www.inkscape.org/) -->

<svg
   xmlns:dc="http://purl.org/dc/elements/1.1/"
   xmlns:cc="http://creativecommons.org/ns#"
   xmlns:rdf="http://www.w3.org/1999/02/22-rdf-syntax-ns#"
   xmlns:svg="http://www.w3.org/2000/svg"
   xmlns="http://www.w3.org/2000/svg"
   xmlns:sodipodi="http://sodipodi.sourceforge.net/DTD/sodipodi-0.dtd"
   xmlns:inkscape="http://www.inkscape.org/namespaces/inkscape"
   version="1.1"
   width="601"
   height="601"
   id="svg3607"
   inkscape:version="0.48.4 r9939"
   sodipodi:docname="Yukon Highway 11.svg">
  <sodipodi:namedview
     pagecolor="#ffffff"
     bordercolor="#666666"
     borderopacity="1"
     objecttolerance="10"
     gridtolerance="10"
     guidetolerance="10"
     inkscape:pageopacity="0"
     inkscape:pageshadow="2"
     inkscape:window-width="1600"
     inkscape:window-height="845"
     id="namedview22"
     showgrid="false"
     inkscape:zoom="0.55533178"
     inkscape:cx="282.28364"
     inkscape:cy="226.36079"
     inkscape:window-x="0"
     inkscape:window-y="27"
     inkscape:window-maximized="1"
     inkscape:current-layer="g3778">
    <inkscape:grid
       type="xygrid"
       id="grid3778" />
  </sodipodi:namedview>
  <metadata
     id="metadata18">
    <rdf:RDF>
      <cc:Work
         rdf:about="">
        <dc:format>image/svg+xml</dc:format>
        <dc:type
           rdf:resource="http://purl.org/dc/dcmitype/StillImage" />
        <dc:title />
      </cc:Work>
    </rdf:RDF>
  </metadata>
  <defs
     id="defs3609" />
  <g
     id="g3778">
    <rect
       width="600"
       height="600"
       rx="37.5"
       ry="37.5"
       x="0.50000018"
       y="0.50000179"
       id="rect3617"
       style="fill:#ffffff;fill-opacity:1;stroke:#000000;stroke-opacity:1" />
    <rect
       width="581.25"
       height="581.25"
       rx="28.125"
       ry="28.125"
       x="9.375"
       y="10.375"
       id="rect4130"
       style="fill:#0609a6;fill-opacity:1;stroke:none" />
    <rect
       width="550"
       height="550"
       rx="12.5"
       ry="12.5"
       x="25"
       y="26"
       id="rect3776"
       style="color:#000000;fill:#ffffff;fill-opacity:1;fill-rule:nonzero;stroke:none;stroke-width:1;marker:none;visibility:visible;display:inline;overflow:visible;enable-background:accumulate" />
    <path
       style="fill:#0609a6;fill-opacity:1;stroke:none"
       d="m 241.59282,170.58767 -0.28479,234.87517 c -0.0243,20 20,15 40,20 3.49262,0.87316 3.41746,9 0,9 l -135,0 c -4.1337,0 -3.32616,-8.16846 0,-9 20,-5 40,0 40,-20 l 0,-185 c 0,-4.71405 -4.44802,-9.27924 -10,-10 -9.70358,-1.25972 -22.94234,1.33297 -30.37874,1.09134 -3.99356,-0.12977 -8.29279,-2.00083 -8.77854,-5.40218 -0.6008,-4.20697 4.31265,-9.17961 8.55345,-9.45381 30.39235,-1.9651 55.7274,-14.28696 84.18391,-27.91125 5.07028,-2.42753 11.71195,-4.17201 11.70471,1.80073 z"
       id="path3768"
       inkscape:connector-curvature="0"
       sodipodi:nodetypes="ssssssssssasss" />
    <path
       sodipodi:nodetypes="ssssssssssasss"
       inkscape:connector-curvature="0"
       id="path3757"
       d="m 421.59282,170.58767 -0.28479,234.87517 c -0.0243,20 20,15 40,20 3.49262,0.87316 3.41746,9 0,9 l -135,0 c -4.1337,0 -3.32616,-8.16846 0,-9 20,-5 40,0 40,-20 l 0,-185 c 0,-4.71405 -4.44802,-9.27924 -10,-10 -9.70358,-1.25972 -22.94234,1.33297 -30.37874,1.09134 -3.99356,-0.12977 -8.29279,-2.00083 -8.77854,-5.40218 -0.6008,-4.20697 4.31265,-9.17961 8.55345,-9.45381 30.39235,-1.9651 55.7274,-14.28696 84.18391,-27.91125 5.07028,-2.42753 11.71195,-4.17201 11.70471,1.80073 z"
       style="fill:#0609a6;fill-opacity:1;stroke:none" />
  </g>
  <text
     x="299"
     y="93"
     id="text4140"
     xml:space="preserve"
     style="font-size:12px;font-style:normal;font-variant:normal;font-weight:normal;font-stretch:normal;text-align:center;line-height:100%;writing-mode:lr-tb;text-anchor:middle;fill:none;stroke:#000000;stroke-width:1px;stroke-linecap:butt;stroke-linejoin:miter;stroke-opacity:1;font-family:Roadgeek 2005 Series D;-inkscape-font-specification:Roadgeek 2005 Series D"><tspan
       x="299"
       y="93"
       id="tspan4142" /></text>
</svg>
