<?xml version="1.0" encoding="UTF-8" standalone="no"?>
<!-- Created with Inkscape (http://www.inkscape.org/) -->

<svg
   xmlns:dc="http://purl.org/dc/elements/1.1/"
   xmlns:cc="http://creativecommons.org/ns#"
   xmlns:rdf="http://www.w3.org/1999/02/22-rdf-syntax-ns#"
   xmlns:svg="http://www.w3.org/2000/svg"
   xmlns="http://www.w3.org/2000/svg"
   xmlns:sodipodi="http://sodipodi.sourceforge.net/DTD/sodipodi-0.dtd"
   xmlns:inkscape="http://www.inkscape.org/namespaces/inkscape"
   version="1.1"
   width="601"
   height="601"
   id="svg3607"
   inkscape:version="0.48.4 r9939"
   sodipodi:docname="Yukon Highway 7.svg">
  <sodipodi:namedview
     pagecolor="#ffffff"
     bordercolor="#666666"
     borderopacity="1"
     objecttolerance="10"
     gridtolerance="10"
     guidetolerance="10"
     inkscape:pageopacity="0"
     inkscape:pageshadow="2"
     inkscape:window-width="1600"
     inkscape:window-height="845"
     id="namedview22"
     showgrid="false"
     inkscape:zoom="0.78535773"
     inkscape:cx="808.45148"
     inkscape:cy="224.44938"
     inkscape:window-x="0"
     inkscape:window-y="27"
     inkscape:window-maximized="1"
     inkscape:current-layer="g3778">
    <inkscape:grid
       type="xygrid"
       id="grid3778" />
  </sodipodi:namedview>
  <metadata
     id="metadata18">
    <rdf:RDF>
      <cc:Work
         rdf:about="">
        <dc:format>image/svg+xml</dc:format>
        <dc:type
           rdf:resource="http://purl.org/dc/dcmitype/StillImage" />
        <dc:title />
      </cc:Work>
    </rdf:RDF>
  </metadata>
  <defs
     id="defs3609" />
  <g
     id="g3778">
    <rect
       width="600"
       height="600"
       rx="37.5"
       ry="37.5"
       x="0.50000018"
       y="0.50000179"
       id="rect3617"
       style="fill:#ffffff;fill-opacity:1;stroke:#000000;stroke-opacity:1" />
    <rect
       width="581.25"
       height="581.25"
       rx="28.125"
       ry="28.125"
       x="9.375"
       y="10.375"
       id="rect4130"
       style="fill:#a6293b;fill-opacity:1;stroke:none" />
    <rect
       width="550"
       height="550"
       rx="12.5"
       ry="12.5"
       x="25"
       y="26"
       id="rect3776"
       style="color:#000000;fill:#ffffff;fill-opacity:1;fill-rule:nonzero;stroke:none;stroke-width:1;marker:none;visibility:visible;display:inline;overflow:visible;enable-background:accumulate" />
    <path
       sodipodi:nodetypes="ssssssssssssss"
       inkscape:connector-curvature="0"
       id="path3771"
       d="m 244.81789,413 c 24.9905,-70.99656 43.9206,-118.64135 78.5787,-196.74455 C 327.49239,207.02539 325.16819,203 319.81789,203 l -60,0 c -7.1801,0 -10.0536,2.5804 -15,10 -10,15 -25,21.17139 -25,0 l 0,-30 c 0,-13.26929 6.95607,-20 25,-20 l 110,0 c 20,0 30.2534,10.08687 25,25 -30.7083,87.17303 -62.2509,180.09601 -75,230 -2.7674,10.83244 -5.5149,20 -18,20 l -32,0 c -10.79244,0 -16.29714,-7.11015 -10,-25 z"
       style="fill:#a6293b;fill-opacity:1" />
  </g>
  <text
     x="299"
     y="93"
     id="text4140"
     xml:space="preserve"
     style="font-size:12px;font-style:normal;font-variant:normal;font-weight:normal;font-stretch:normal;text-align:center;line-height:100%;writing-mode:lr-tb;text-anchor:middle;fill:none;stroke:#000000;stroke-width:1px;stroke-linecap:butt;stroke-linejoin:miter;stroke-opacity:1;font-family:Roadgeek 2005 Series D;-inkscape-font-specification:Roadgeek 2005 Series D"><tspan
       x="299"
       y="93"
       id="tspan4142" /></text>
</svg>
