<?xml version="1.0" encoding="UTF-8" standalone="no"?>
<!-- Created with Inkscape (http://www.inkscape.org/) -->

<svg
   xmlns:dc="http://purl.org/dc/elements/1.1/"
   xmlns:cc="http://creativecommons.org/ns#"
   xmlns:rdf="http://www.w3.org/1999/02/22-rdf-syntax-ns#"
   xmlns:svg="http://www.w3.org/2000/svg"
   xmlns="http://www.w3.org/2000/svg"
   xmlns:sodipodi="http://sodipodi.sourceforge.net/DTD/sodipodi-0.dtd"
   xmlns:inkscape="http://www.inkscape.org/namespaces/inkscape"
   version="1.0"
   width="48"
   height="68"
   id="svg2"
   inkscape:version="0.48.1 r9760"
   sodipodi:docname="MX:MX_2.svg">
  <metadata
     id="metadata12">
    <rdf:RDF>
      <cc:Work
         rdf:about="">
        <dc:format>image/svg+xml</dc:format>
        <dc:type
           rdf:resource="http://purl.org/dc/dcmitype/StillImage" />
      </cc:Work>
    </rdf:RDF>
  </metadata>
  <sodipodi:namedview
     pagecolor="#ffffff"
     bordercolor="#666666"
     borderopacity="1"
     objecttolerance="10"
     gridtolerance="10"
     guidetolerance="10"
     inkscape:pageopacity="0"
     inkscape:pageshadow="2"
     inkscape:window-width="1598"
     inkscape:window-height="1182"
     id="namedview10"
     showgrid="true"
     inkscape:showpageshadow="false"
     inkscape:zoom="14.058824"
     inkscape:cx="24"
     inkscape:cy="34"
     inkscape:window-x="1"
     inkscape:window-y="1"
     inkscape:window-maximized="0"
     inkscape:current-layer="svg2">
    <inkscape:grid
       type="xygrid"
       id="grid2989"
       empspacing="5"
       visible="true"
       enabled="true"
       snapvisiblegridlinesonly="true" />
  </sodipodi:namedview>
  <defs
     id="defs4" />
  <g
     id="g3022">
    <g
       id="g3016">
      <path
         inkscape:connector-curvature="0"
         style="fill:#ffffff;fill-rule:evenodd;stroke:#000000;stroke-width:0.06917443px;stroke-linecap:butt;stroke-linejoin:miter;stroke-opacity:1"
         id="path4218"
         d="M 7.1882424,1.0623479 1.0625,7.5819653 l 0,15.8915687 C 2.768582,26.197045 4.5041066,28.897959 1.6070105,35.154515 0.35076291,38.076887 2.7243363,61.6036 24.340321,66.937651 38.920599,62.698753 47.33274,48.864522 46.529121,35.154515 43.43566,30.262549 44.894764,26.668427 46.801376,23.201883 L 46.937503,7.44614 40.947889,1.0623479 C 35.931437,4.9126288 30.529107,6.3565271 24.068066,1.1981732 18.259996,5.8604381 12.633306,5.8173089 7.1882424,1.0623479 z" />
      <g
         id="g3012">
        <path
           d="m 3.7850522,8.668568 0,13.718363 c 1.8946114,3.778405 4.5854951,7.229663 0.5445104,13.446711 0.2040313,13.502643 7.4539404,23.513877 20.0107584,27.980025 11.919382,-4.871802 18.069773,-13.848215 19.193992,-27.8442 -3.1277,-6.918416 -1.42243,-10.490086 0.816766,-13.854187 l 0,-13.446712 -3.9477,-3.6672848 C 33.775734,10.265898 28.773826,8.0687327 23.931937,5.1371086 19.32287,8.4175696 14.310407,10.318026 7.1882424,5.0012832 L 3.7850522,8.668568 z"
           id="path4226"
           style="fill:none;stroke:#000000;stroke-width:1.38348854;stroke-linecap:butt;stroke-linejoin:miter;stroke-miterlimit:4;stroke-opacity:1;stroke-dasharray:none"
           inkscape:connector-curvature="0" />
        <path
           d="M 3.7850522,20.610688 44.214952,20.474863"
           id="path5197"
           style="fill:none;stroke:#000000;stroke-width:1.38348854;stroke-linecap:butt;stroke-linejoin:miter;stroke-miterlimit:4;stroke-opacity:1;stroke-dasharray:none"
           inkscape:connector-curvature="0" />
      </g>
    </g>
    <path
       d="m 12.270722,18.113052 0,-7.870134 -1.24789,0 -1.8247449,4.416672 -1.824745,-4.416672 -1.2478904,0 0,7.870134 1.2478904,0 0,-4.55763 1.824745,4.55763 1.8247449,-4.55763 0,4.55763 1.24789,0 z m 6.776861,0 0,-1.268619 -3.64949,0 0,-2.16135 2.295647,0 0,-1.268618 -2.295647,0 0,-1.926421 3.402266,0 0,-1.245126 -4.650156,0 0,7.870134 4.89738,0 z m 6.148846,0 -1.989561,-4.064278 1.848291,-3.805856 -1.412706,0 -1.130165,2.349294 -1.130165,-2.349294 -1.412706,0 1.824745,3.805856 -1.966015,4.064278 1.412706,0 1.271435,-2.619463 1.271435,2.619463 1.412706,0 z m 2.595742,0 0,-7.870134 -1.271435,0 0,7.870134 1.271435,0 z m 7.082148,-1.59752 -1.189027,-0.446365 c -0.151822,0.315687 -0.327919,0.54768 -0.528293,0.695977 -0.200383,0.1483 -0.4324,0.221716 -0.696052,0.220247 -0.27396,2.77e-4 -0.505978,-0.05017 -0.696052,-0.151236 -0.190081,-0.101067 -0.354405,-0.254261 -0.492976,-0.45958 -0.154516,-0.254261 -0.275185,-0.576799 -0.362005,-0.967616 -0.08683,-0.390812 -0.130972,-0.804385 -0.132441,-1.240721 2.77e-4,-0.339419 0.02624,-0.667831 0.07799,-0.985235 0.05175,-0.317393 0.127779,-0.595883 0.228093,-0.835467 0.134155,-0.343823 0.310253,-0.592946 0.528293,-0.747369 0.218035,-0.154411 0.485369,-0.230273 0.802005,-0.227588 0.289405,-0.0071 0.525837,0.04822 0.709296,0.165919 0.183451,0.117716 0.378679,0.340409 0.585684,0.668081 l 1.165482,-0.493352 c -0.259982,-0.55012 -0.587651,-0.956351 -0.983008,-1.218697 -0.395366,-0.262329 -0.88785,-0.392519 -1.477454,-0.390569 -0.446379,7.39e-4 -0.836835,0.07563 -1.171369,0.224651 -0.334539,0.149041 -0.619041,0.367819 -0.853509,0.656333 -0.278864,0.35803 -0.495184,0.819568 -0.648962,1.384616 -0.15378,0.565059 -0.231773,1.164618 -0.23398,1.798677 0.002,0.499963 0.05396,0.983036 0.155986,1.449221 0.102028,0.46619 0.242318,0.875848 0.420869,1.228974 0.249184,0.480138 0.569005,0.835468 0.959463,1.065992 0.390454,0.230525 0.875089,0.345053 1.45391,0.343584 0.564097,-4.83e-4 1.042847,-0.146341 1.436251,-0.437556 0.393394,-0.291213 0.707328,-0.724854 0.941803,-1.300921 l 0,0 z m 7.14474,-2.3258 c -0.0015,-0.499955 -0.04857,-0.983028 -0.141271,-1.449221 -0.09272,-0.466182 -0.222213,-0.87584 -0.388494,-1.228974 -0.245022,-0.48013 -0.546693,-0.83546 -0.905015,-1.065992 -0.358332,-0.230517 -0.786558,-0.345045 -1.28468,-0.343584 -0.451039,-7.26e-4 -0.841004,0.07122 -1.169897,0.215841 -0.328898,0.144636 -0.609967,0.36635 -0.843208,0.665143 -0.267582,0.381768 -0.477035,0.84869 -0.62836,1.400767 -0.151327,0.552089 -0.22834,1.154095 -0.231036,1.80602 0.0025,0.479895 0.05347,0.956116 0.153043,1.428664 0.09958,0.472552 0.232997,0.881231 0.400267,1.226037 0.231524,0.480138 0.530744,0.835468 0.897656,1.065992 0.366909,0.230525 0.825057,0.345053 1.374445,0.343584 0.412036,7.33e-4 0.776984,-0.07121 1.094848,-0.215841 0.317853,-0.144628 0.588621,-0.366342 0.812305,-0.665144 0.277876,-0.358021 0.490272,-0.819559 0.63719,-1.384615 0.146905,-0.565051 0.220974,-1.16461 0.222207,-1.798677 l 0,0 z m -1.247891,0 c -0.0025,0.316424 -0.03287,0.640919 -0.09124,0.973488 -0.05838,0.332575 -0.129993,0.607148 -0.214849,0.823721 -0.132937,0.34481 -0.296771,0.597848 -0.491504,0.759116 -0.194742,0.16127 -0.435098,0.241048 -0.721069,0.239334 -0.251151,2.77e-4 -0.464037,-0.05017 -0.63866,-0.151236 -0.17463,-0.101067 -0.322767,-0.254261 -0.444414,-0.45958 -0.153536,-0.25475 -0.270281,-0.57631 -0.350233,-0.964679 -0.07996,-0.388365 -0.120181,-0.795086 -0.120669,-1.220164 2.77e-4,-0.33526 0.02624,-0.666119 0.07799,-0.992577 0.05175,-0.326449 0.127779,-0.610321 0.228093,-0.851619 0.128024,-0.333545 0.289896,-0.579731 0.485618,-0.738559 0.195715,-0.158816 0.43411,-0.237615 0.715182,-0.236398 0.02354,7e-6 0.04709,7e-6 0.07064,0 0.233239,0.01518 0.431901,0.07 0.595985,0.164451 0.164075,0.09447 0.306817,0.243256 0.428226,0.446366 0.153529,0.268216 0.270273,0.592223 0.350233,0.97202 0.07995,0.379807 0.120173,0.791912 0.120669,1.236316 l 0,0 z"
       id="text6172"
       style="font-size:180px;font-style:normal;font-variant:normal;font-weight:normal;font-stretch:normal;text-align:center;line-height:100%;writing-mode:lr-tb;text-anchor:middle;fill:#000000;fill-opacity:1;stroke:none;font-family:Roadgeek 2005 Series C;-inkscape-font-specification:Roadgeek 2005 Series C"
       inkscape:connector-curvature="0" />
  </g>
  <text
     xml:space="preserve"
     style="font-size:36px;font-style:normal;font-variant:normal;font-weight:normal;font-stretch:normal;text-align:center;line-height:125%;letter-spacing:0px;word-spacing:0px;writing-mode:lr;text-anchor:middle;fill:#000000;fill-opacity:1;stroke:none;font-family:Roadgeek 2005 Series B;-inkscape-font-specification:Roadgeek 2005 Series B"
     x="24"
     y="48"
     id="text3030"
     sodipodi:linespacing="125%"><tspan
       sodipodi:role="line"
       id="tspan3044">%num%</tspan></text>
  <text
     xml:space="preserve"
     style="font-size:13px;font-style:normal;font-variant:normal;font-weight:normal;font-stretch:normal;text-align:center;line-height:125%;letter-spacing:0px;word-spacing:0px;writing-mode:lr;text-anchor:middle;fill:#000000;fill-opacity:1;stroke:none;font-family:Roadgeek 2005 Series D;-inkscape-font-specification:Roadgeek 2005 Series D"
     x="24"
     y="59"
     id="text3038"
     sodipodi:linespacing="125%"><tspan
       sodipodi:role="line"
       id="tspan3042">%suf%</tspan></text>
</svg>
