<?xml version="1.0" encoding="UTF-8" standalone="no"?>
<!-- Generator: Adobe Illustrator 12.0.0, SVG Export Plug-In . SVG Version: 6.00 Build 51448)  -->

<svg
   xmlns:dc="http://purl.org/dc/elements/1.1/"
   xmlns:cc="http://creativecommons.org/ns#"
   xmlns:rdf="http://www.w3.org/1999/02/22-rdf-syntax-ns#"
   xmlns:svg="http://www.w3.org/2000/svg"
   xmlns="http://www.w3.org/2000/svg"
   xmlns:sodipodi="http://sodipodi.sourceforge.net/DTD/sodipodi-0.dtd"
   xmlns:inkscape="http://www.inkscape.org/namespaces/inkscape"
   version="1.1"
   id="Layer_1"
   width="48"
   height="48"
   viewBox="0 0 48 48"
   overflow="visible"
   enable-background="new 0 0 384 384"
   xml:space="preserve"
   sodipodi:version="0.32"
   inkscape:version="0.48.1 r9760"
   sodipodi:docname="US:AK_1.5.svg"
   style="overflow:visible"><metadata
   id="metadata40"><rdf:RDF><cc:Work
       rdf:about=""><dc:format>image/svg+xml</dc:format><dc:type
         rdf:resource="http://purl.org/dc/dcmitype/StillImage" /><dc:title></dc:title></cc:Work></rdf:RDF></metadata><defs
   id="defs38">
	
	
	
	
	
	
	
	
	
	
	
</defs><sodipodi:namedview
   inkscape:window-height="996"
   inkscape:window-width="1278"
   inkscape:pageshadow="2"
   inkscape:pageopacity="0.0"
   guidetolerance="10.0"
   gridtolerance="10.0"
   objecttolerance="10.0"
   borderopacity="1.0"
   bordercolor="#666666"
   pagecolor="#ffffff"
   id="base"
   inkscape:zoom="16.895833"
   inkscape:cx="24"
   inkscape:cy="24"
   inkscape:window-x="1"
   inkscape:window-y="27"
   inkscape:current-layer="Layer_1"
   showgrid="true"
   inkscape:showpageshadow="false"
   inkscape:window-maximized="0"><inkscape:grid
     type="xygrid"
     id="grid3002"
     empspacing="5"
     visible="true"
     enabled="true"
     snapvisiblegridlinesonly="true" /></sodipodi:namedview>
<g
   id="g3027"><g
     id="g3019"><g
       id="g5"
       transform="matrix(0.11979167,0,0,0.11979167,1,1)">
		<path
   inkscape:connector-curvature="0"
   id="path7"
   d="M 0,24 C 0,10.745117 10.745117,0 24,0 h 336 c 13.25488,0 24,10.745117 24,24 v 336 c 0,13.25488 -10.74512,24 -24,24 H 24 C 10.745117,384 0,373.25488 0,360 V 24 l 0,0 z" />
		<path
   inkscape:connector-curvature="0"
   id="path9"
   d="M 192,192" />
	</g><g
       id="g11"
       transform="matrix(0.12222222,0,0,0.12222222,0.53333333,0.53333333)">
		<path
   style="fill:#ffffff"
   inkscape:connector-curvature="0"
   id="path13"
   d="m 12,24 c 0,-6.627441 5.372559,-12 12,-12 h 336 c 6.62695,0 12,5.372559 12,12 v 336 c 0,6.62695 -5.37305,12 -12,12 H 24 c -6.627441,0 -12,-5.37305 -12,-12 V 24 l 0,0 z" />
		<path
   style="fill:#ffffff"
   inkscape:connector-curvature="0"
   id="path15"
   d="M 192,192" />
	</g></g><polygon
     transform="scale(0.125,0.125)"
     clip-rule="evenodd"
     points="238.08008,301.74414 229.24121,308.16699 232.61719,297.77539 223.77734,291.35156 234.7041,291.35156 238.08008,280.95996 241.45605,291.35254 252.38184,291.35254 243.54297,297.77539 246.91895,308.16699 "
     id="polygon17"
     style="fill-rule:evenodd" /><polygon
     transform="scale(0.125,0.125)"
     clip-rule="evenodd"
     points="222.08008,341.74414 213.24121,348.16699 216.61719,337.77539 207.77734,331.35156 218.7041,331.35156 222.08008,320.95996 225.45605,331.35254 236.38184,331.35254 227.54297,337.77539 230.91895,348.16699 "
     id="polygon19"
     style="fill-rule:evenodd" /><polygon
     transform="scale(0.125,0.125)"
     clip-rule="evenodd"
     points="161.91992,332.94434 153.08105,339.36719 156.45703,328.97461 147.61719,322.55176 158.54395,322.55273 161.91992,312.16016 165.2959,322.55273 176.22217,322.55273 167.38281,328.97461 170.75928,339.36719 "
     id="polygon21"
     style="fill-rule:evenodd" /><polygon
     transform="scale(0.125,0.125)"
     clip-rule="evenodd"
     points="161.91992,289.9043 153.08105,296.32715 156.45703,285.93555 147.61719,279.51172 158.54395,279.51172 161.91992,269.12012 165.2959,279.51172 176.22217,279.51172 167.38281,285.93555 170.75928,296.32715 "
     id="polygon23"
     style="fill-rule:evenodd" /><polygon
     transform="scale(0.125,0.125)"
     clip-rule="evenodd"
     points="133.91992,263.82422 125.08105,270.24707 128.45703,259.85547 119.61719,253.43164 130.54395,253.43164 133.91992,243.04004 137.29639,253.43164 148.22217,253.43262 139.38281,259.85547 142.75928,270.24707 "
     id="polygon25"
     style="fill-rule:evenodd" /><polygon
     transform="scale(0.125,0.125)"
     clip-rule="evenodd"
     points="92.959961,242.86426 84.121094,249.28711 87.49707,238.89551 78.657227,232.47168 89.583984,232.47266 92.959961,222.08008 96.335938,232.47266 107.26221,232.47266 98.422852,238.89453 101.79932,249.28711 "
     id="polygon27"
     style="fill-rule:evenodd" /><polygon
     transform="scale(0.125,0.125)"
     clip-rule="evenodd"
     points="46.879883,231.82422 38.041016,238.24707 41.416992,227.85547 32.577148,221.43164 43.503906,221.43164 46.879883,211.04004 50.256348,221.43164 61.182129,221.43262 52.342773,227.85547 55.719727,238.24707 "
     id="polygon29"
     style="fill-rule:evenodd" /><polygon
     transform="scale(0.125,0.125)"
     clip-rule="evenodd"
     points="327.04004,73.166504 312.93555,83.415039 318.32324,66.83252 304.2168,56.583496 321.65234,56.583496 327.04004,40.001465 332.42773,56.583496 349.86133,56.583984 335.75684,66.83252 341.14453,83.415039 "
     id="polygon31"
     style="fill-rule:evenodd" /><path
     clip-rule="evenodd"
     d="M 8.6572267,10.935913 H 7.6877442 L 7.5561525,9.253052 H 5.726929 L 4.7243654,10.935913 H 3.7547607 L 7.2818605,5.0823976 H 8.1599124 L 8.6572267,10.935913 z M 7.4727786,8.338379 7.320801,6.628113 6.2929078,8.338379 h 1.1798708 z m 5.2032464,2.597534 H 9.109009 l 1.514832,-5.8535154 h 0.914672 l -1.278198,4.9389644 h 2.652405 l -0.236695,0.914551 z m 5.354249,0 H 17.06073 L 16.929199,9.253052 h -1.829224 l -1.002685,1.682861 h -0.969421 l 3.527039,-5.8535154 h 0.878051 l 0.497315,5.8535154 z M 16.845764,8.338379 16.69397,6.628113 15.665894,8.338379 h 1.17987 z m 6.01886,0.8598022 C 22.741517,9.6738284 22.452088,10.085327 21.982483,10.451172 21.512818,10.817078 21.017213,11 20.4776,11 19.773377,11 19.299988,10.743897 19.039245,10.23169 18.956177,10.057983 18.903565,9.8018802 18.874573,9.4542848 l 0.939941,-0.2744141 c -0.0034,0.1189584 3.75e-4,0.2103264 0.01128,0.2744141 0.101441,0.4207155 0.396973,0.6219482 0.89093,0.6219482 0.256043,0 0.506043,-0.082337 0.761353,-0.2561035 0.255317,-0.1738281 0.410468,-0.3841553 0.476631,-0.6402588 0.09949,-0.3841551 -0.05579,-0.6676635 -0.48169,-0.8598022 C 21.065059,8.164673 20.666317,8.0092163 20.269893,7.8445437 19.862849,7.5792849 19.729243,7.176819 19.871272,6.628113 c 0.09467,-0.365906 0.319397,-0.7043459 0.688172,-1.0336305 0.451665,-0.4023437 0.94965,-0.5944824 1.516606,-0.5944824 0.548828,0 0.935792,0.2012328 1.179199,0.6036987 0.08337,0.1371456 0.150269,0.3383789 0.207276,0.612732 L 22.522583,6.4908449 C 22.491699,6.3627932 22.460449,6.2713623 22.422242,6.2073365 22.298097,6.015259 22.102295,5.9237671 21.837037,5.9237671 c -0.237792,0 -0.458008,0.073181 -0.660523,0.2195425 -0.202514,0.1463616 -0.327392,0.3109742 -0.377075,0.5030518 -0.07104,0.2743531 0.10321,0.4847412 0.541015,0.6311038 0.6792,0.237792 1.075684,0.4024656 1.195984,0.5030515 0.395142,0.3109131 0.509827,0.78656 0.339417,1.4451294 l -0.01123,-0.027466 z m 4.026368,1.7377318 h -1.03357 L 25.095338,8.1555787 24.315919,8.9054566 23.790405,10.935913 h -0.91455 l 1.514771,-5.8535154 h 0.914671 l -0.601195,2.3231201 2.393799,-2.3231201 h 1.161621 l -2.343017,2.2682496 0.983643,3.5852658 h -0.0091 z m 5.354247,0 H 31.275756 L 31.144167,9.253052 h -1.829103 l -1.002686,1.682861 h -0.969603 l 3.527098,-5.8535154 h 0.878052 l 0.497314,5.8535154 z M 31.060668,8.338379 30.908935,6.628113 29.880859,8.338379 h 1.179809 z"
     id="path33"
     inkscape:connector-curvature="0"
     style="fill-rule:evenodd" /></g>

<text
   xml:space="preserve"
   style="font-size:28px;font-style:normal;font-variant:normal;font-weight:normal;font-stretch:normal;text-align:center;line-height:125%;letter-spacing:0px;word-spacing:0px;writing-mode:lr;text-anchor:middle;fill:#000000;fill-opacity:1;stroke:none;font-family:Roadgeek 2005 Series C;-inkscape-font-specification:Roadgeek 2005 Series C"
   x="32"
   y="33"
   id="text3031"
   sodipodi:linespacing="125%"><tspan
     sodipodi:role="line"
     id="tspan3045">%num%</tspan></text>

</svg>