<?xml version="1.0" encoding="UTF-8" standalone="no"?>
<!-- Created with Inkscape (http://www.inkscape.org/) -->

<svg
   xmlns:dc="http://purl.org/dc/elements/1.1/"
   xmlns:cc="http://creativecommons.org/ns#"
   xmlns:rdf="http://www.w3.org/1999/02/22-rdf-syntax-ns#"
   xmlns:svg="http://www.w3.org/2000/svg"
   xmlns="http://www.w3.org/2000/svg"
   xmlns:sodipodi="http://sodipodi.sourceforge.net/DTD/sodipodi-0.dtd"
   xmlns:inkscape="http://www.inkscape.org/namespaces/inkscape"
   width="48"
   height="48"
   id="svg2"
   sodipodi:version="0.32"
   inkscape:version="0.48.1 r9760"
   version="1.0"
   sodipodi:docname="US:AZ_2.svg">
  <defs
     id="defs4">
    <inkscape:perspective
       sodipodi:type="inkscape:persp3d"
       inkscape:vp_x="0 : 456 : 1"
       inkscape:vp_y="0 : 1000 : 0"
       inkscape:vp_z="773 : 456 : 1"
       inkscape:persp3d-origin="386.5 : 304 : 1"
       id="perspective3821" />
    <inkscape:perspective
       id="perspective3039"
       inkscape:persp3d-origin="0.5 : 0.33333333 : 1"
       inkscape:vp_z="1 : 0.5 : 1"
       inkscape:vp_y="0 : 1000 : 0"
       inkscape:vp_x="0 : 0.5 : 1"
       sodipodi:type="inkscape:persp3d" />
    <inkscape:perspective
       id="perspective3286"
       inkscape:persp3d-origin="0.5 : 0.33333333 : 1"
       inkscape:vp_z="1 : 0.5 : 1"
       inkscape:vp_y="0 : 1000 : 0"
       inkscape:vp_x="0 : 0.5 : 1"
       sodipodi:type="inkscape:persp3d" />
    <inkscape:perspective
       id="perspective3563"
       inkscape:persp3d-origin="0.5 : 0.33333333 : 1"
       inkscape:vp_z="1 : 0.5 : 1"
       inkscape:vp_y="0 : 1000 : 0"
       inkscape:vp_x="0 : 0.5 : 1"
       sodipodi:type="inkscape:persp3d" />
    <inkscape:perspective
       id="perspective4986"
       inkscape:persp3d-origin="0.5 : 0.33333333 : 1"
       inkscape:vp_z="1 : 0.5 : 1"
       inkscape:vp_y="0 : 1000 : 0"
       inkscape:vp_x="0 : 0.5 : 1"
       sodipodi:type="inkscape:persp3d" />
    <inkscape:perspective
       id="perspective5226"
       inkscape:persp3d-origin="0.5 : 0.33333333 : 1"
       inkscape:vp_z="1 : 0.5 : 1"
       inkscape:vp_y="0 : 1000 : 0"
       inkscape:vp_x="0 : 0.5 : 1"
       sodipodi:type="inkscape:persp3d" />
  </defs>
  <sodipodi:namedview
     id="base"
     pagecolor="#ffffff"
     bordercolor="#666666"
     borderopacity="1.0"
     inkscape:pageopacity="0.0"
     inkscape:pageshadow="2"
     inkscape:zoom="16.895833"
     inkscape:cx="24"
     inkscape:cy="24.000002"
     inkscape:document-units="px"
     inkscape:current-layer="layer1"
     inkscape:window-width="1598"
     inkscape:window-height="1182"
     inkscape:window-x="1"
     inkscape:window-y="1"
     showgrid="true"
     showborder="true"
     inkscape:showpageshadow="false"
     inkscape:window-maximized="0"
     gridtolerance="10000">
    <inkscape:grid
       empspacing="5"
       visible="true"
       enabled="true"
       snapvisiblegridlinesonly="true"
       type="xygrid"
       id="grid3043" />
  </sodipodi:namedview>
  <metadata
     id="metadata7">
    <rdf:RDF>
      <cc:Work
         rdf:about="">
        <dc:format>image/svg+xml</dc:format>
        <dc:type
           rdf:resource="http://purl.org/dc/dcmitype/StillImage" />
        <dc:title></dc:title>
      </cc:Work>
    </rdf:RDF>
  </metadata>
  <g
     inkscape:label="Layer 1"
     inkscape:groupmode="layer"
     id="layer1"
     transform="translate(-402.62375,-417.79487)">
    <path
       style="fill:none;stroke:#000000;stroke-width:0.08000001;stroke-opacity:1"
       d="m 432.59159,464.23854 c -0.005,-0.01 -6.39929,-1.47622 -14.21218,-3.26057 l -14.20521,-3.24425 -0.005,-15.97464 -0.005,-15.97461 3.75026,0.005 3.75029,0.005 0,-3.23011 0,-3.23012 18.70452,0 18.70452,0 0.005,22.46 0.005,22.46001 -8.24261,0 c -4.53345,0 -8.24575,-0.007 -8.24957,-0.0168 z"
       id="path3281"
       inkscape:connector-curvature="0" />
    <g
       id="g3118">
      <g
         id="g3114">
        <path
           style="fill:#000000;fill-opacity:1;stroke:none"
           d="m 410.82275,418.79487 0,6.2445 -7.199,0 0,32.8555 28.1264,6.9 17.8736,0 0,-46 z"
           id="path3029"
           inkscape:connector-curvature="0"
           sodipodi:nodetypes="cccccccc" />
        <path
           style="fill:#ffffff;fill-opacity:1;stroke:none"
           d="m 432.4692,463.77951 c -0.005,-0.01 -6.26829,-1.446 -13.92122,-3.19379 l -13.91445,-3.17781 -0.005,-15.64743 -0.005,-15.64745 3.67349,0.005 3.67351,0.005 0,-3.16397 0,-3.16396 18.3216,0 18.32162,0 0.005,22 0.005,22 -8.07389,0 c -4.44064,0 -8.07692,-0.007 -8.08066,-0.0164 z"
           id="path4166"
           inkscape:connector-curvature="0" />
      </g>
      <path
         inkscape:connector-curvature="0"
         id="text5049"
         d="m 419.3769,426.70508 -0.50925,-1.40623 -1.61266,0 -0.50926,1.40623 -0.87192,0 1.78241,-5.01158 0.81019,0 1.78241,5.01158 -0.87192,0 m -1.30401,-3.6203 -0.5324,1.40623 1.03395,0 -0.50155,-1.40623 m 5.58933,3.6203 -0.83333,-2.18414 -0.97994,0 0,2.18414 -0.81792,0 0,-5.01158 1.70527,0 c 0.20064,0 0.37294,0.012 0.51696,0.0374 0.144,0.0192 0.28037,0.0598 0.40896,0.11976 0.11328,0.055 0.216,0.1272 0.30864,0.21696 0.0977,0.0847 0.18,0.18456 0.24691,0.29921 0.072,0.10968 0.126,0.22944 0.162,0.35904 0.041,0.12456 0.0617,0.24933 0.0617,0.37399 0,0.13464 -0.0216,0.26678 -0.0617,0.39643 -0.036,0.1248 -0.09,0.24437 -0.162,0.35904 -0.067,0.10968 -0.15168,0.20952 -0.25461,0.29921 -0.0977,0.0898 -0.20568,0.1596 -0.3241,0.20952 l 0.91051,2.34122 -0.88735,0 m -0.0386,-3.60535 c -2e-5,-0.10464 -0.0283,-0.20448 -0.085,-0.29921 -0.0566,-0.0948 -0.13632,-0.16944 -0.23928,-0.2244 -0.067,-0.0348 -0.12864,-0.0574 -0.18528,-0.0674 -0.0566,-0.0144 -0.15168,-0.0216 -0.28548,-0.0216 l -0.97994,0 0,1.22674 0.97994,0 c 0.12864,0 0.22128,-0.005 0.27778,-0.0144 0.0617,-0.01 0.126,-0.0324 0.19296,-0.0674 0.10296,-0.055 0.18264,-0.1296 0.23928,-0.2244 0.0566,-0.0996 0.085,-0.20184 0.085,-0.30667 m 1.79289,3.60535 0,-5.01158 0.83333,0 0,5.01158 -0.83333,0 m 1.70199,0 0,-0.66571 2.36112,-3.55301 -2.16051,0 0,-0.79286 3.31793,0 0,0.47124 -2.39198,3.7325 2.39198,0 0,0.80784 -3.51854,0 m 7.94359,-2.4983 c -2e-5,0.39892 -0.049,0.7804 -0.14664,1.14444 -0.0977,0.36403 -0.23664,0.65822 -0.41666,0.88262 -0.28808,0.37402 -0.70474,0.561 -1.25002,0.561 -0.36521,0 -0.66614,-0.0722 -0.90276,-0.21696 -0.23664,-0.14448 -0.43212,-0.3715 -0.58644,-0.68069 -0.108,-0.21432 -0.19536,-0.47371 -0.26234,-0.77791 -0.067,-0.30917 -0.10032,-0.61334 -0.10032,-0.91255 0,-0.41391 0.049,-0.79788 0.14664,-1.15193 0.10296,-0.35405 0.24177,-0.65076 0.41666,-0.89011 0.15432,-0.1896 0.33694,-0.32911 0.54785,-0.4189 0.216,-0.0948 0.47325,-0.14208 0.7716,-0.14208 0.32923,0 0.60957,0.0722 0.84105,0.21696 0.2316,0.14472 0.42953,0.37152 0.59415,0.68069 0.108,0.2244 0.19296,0.48619 0.25464,0.7854 0.0617,0.29921 0.0926,0.60588 0.0926,0.92004 m -0.81792,0 c 0,-0.28423 -0.0257,-0.54605 -0.0773,-0.7854 -0.0514,-0.24434 -0.12864,-0.4513 -0.2316,-0.62086 -0.0823,-0.1296 -0.1776,-0.2244 -0.28548,-0.28423 -0.10296,-0.0598 -0.2316,-0.0948 -0.38583,-0.10464 -0.20064,-0.01 -0.3678,0.0348 -0.50152,0.13464 -0.13368,0.0998 -0.24435,0.26179 -0.3318,0.48619 -0.067,0.14952 -0.11832,0.33161 -0.15432,0.54605 -0.031,0.20952 -0.0463,0.41887 -0.0463,0.62832 0,0.26928 0.0257,0.52858 0.0773,0.77791 0.0514,0.24934 0.12864,0.4538 0.2316,0.61337 0.0823,0.1296 0.18,0.2268 0.2932,0.29172 0.11304,0.0648 0.25208,0.0972 0.41667,0.0972 0.19032,0 0.34723,-0.0499 0.47069,-0.14952 0.12864,-0.0996 0.23664,-0.26179 0.32407,-0.48619 0.0257,-0.0648 0.0514,-0.14208 0.0773,-0.23184 0.0257,-0.0948 0.0463,-0.192 0.0617,-0.29172 0.0216,-0.10464 0.036,-0.20952 0.0463,-0.31416 0.01,-0.10464 0.0144,-0.20688 0.0144,-0.30667 m 4.75601,2.4983 -1.97532,-3.3959 0,3.3959 -0.8179,0 0,-5.01158 0.8179,0 1.88272,3.20143 0,-3.20143 0.8179,0 0,5.01158 -0.7253,0 m 5.00181,0 -0.50925,-1.40623 -1.61266,0 -0.50928,1.40623 -0.8719,0 1.78241,-5.01158 0.81019,0 1.78241,5.01158 -0.87192,0 m -1.30401,-3.6203 -0.53242,1.40623 1.03397,0 -0.50155,-1.40623"
         style="font-size:94.96379852px;font-style:normal;font-variant:normal;font-weight:normal;font-stretch:normal;text-align:center;line-height:100%;text-anchor:middle" />
    </g>
    <path
       inkscape:connector-curvature="0"
       id="path1435"
       d=""
       style="fill:#a8e50a" />
    <text
       xml:space="preserve"
       style="font-size:32px;font-style:normal;font-variant:normal;font-weight:normal;font-stretch:normal;text-align:center;line-height:100%;writing-mode:lr;text-anchor:middle;fill:#000000;fill-opacity:1;fill-rule:nonzero;stroke:none;font-family:Roadgeek 2005 Series D;-inkscape-font-specification:Roadgeek 2005 Series D"
       x="426.62375"
       y="454.79486"
       id="routenum"
       sodipodi:linespacing="100%"><tspan
         sodipodi:role="line"
         id="tspan3458">%num%</tspan></text>
  </g>
</svg>
