<?xml version="1.0" encoding="UTF-8" standalone="no"?>
<!-- Created with Inkscape (http://www.inkscape.org/) -->

<svg
   xmlns:dc="http://purl.org/dc/elements/1.1/"
   xmlns:cc="http://creativecommons.org/ns#"
   xmlns:rdf="http://www.w3.org/1999/02/22-rdf-syntax-ns#"
   xmlns:svg="http://www.w3.org/2000/svg"
   xmlns="http://www.w3.org/2000/svg"
   xmlns:sodipodi="http://sodipodi.sourceforge.net/DTD/sodipodi-0.dtd"
   xmlns:inkscape="http://www.inkscape.org/namespaces/inkscape"
   width="60"
   height="48"
   id="svg2"
   sodipodi:version="0.32"
   inkscape:version="0.48.1 r9760"
   version="1.0"
   sodipodi:docname="US:AL_3D.svg">
  <defs
     id="defs4" />
  <sodipodi:namedview
     id="base"
     pagecolor="#ffffff"
     bordercolor="#666666"
     borderopacity="1.0"
     inkscape:pageopacity="0.0"
     inkscape:pageshadow="2"
     inkscape:zoom="19.916667"
     inkscape:cx="30"
     inkscape:cy="24"
     inkscape:document-units="px"
     inkscape:current-layer="g1366"
     inkscape:window-width="1598"
     inkscape:window-height="1182"
     inkscape:window-x="1"
     inkscape:window-y="1"
     showgrid="true"
     inkscape:showpageshadow="false"
     inkscape:window-maximized="0">
    <inkscape:grid
       type="xygrid"
       id="grid2994"
       empspacing="5"
       visible="true"
       enabled="true"
       snapvisiblegridlinesonly="true" />
  </sodipodi:namedview>
  <metadata
     id="metadata7">
    <rdf:RDF>
      <cc:Work
         rdf:about="">
        <dc:format>image/svg+xml</dc:format>
        <dc:type
           rdf:resource="http://purl.org/dc/dcmitype/StillImage" />
        <dc:title></dc:title>
      </cc:Work>
    </rdf:RDF>
  </metadata>
  <g
     inkscape:label="Layer 1"
     inkscape:groupmode="layer"
     id="layer1"
     transform="translate(0,-552)">
    <g
       style="overflow:visible"
       id="g1366"
       transform="translate(205.7143,95.21933)">
      <path
         id="path7"
         d=""
         inkscape:connector-curvature="0" />
      <g
         id="g3036">
        <path
           sodipodi:nodetypes="cccccsccscccscccccsccscccccscccccccsccsccsccccsccccccccccccccsscsccccccccccccccsssccccccc"
           inkscape:connector-curvature="0"
           id="path2998"
           d="m -199.16268,457.78201 c -0.44312,0.0379 -0.83682,0.40443 -0.90628,0.84366 l -0.0312,0.18748 0,0.0312 c -0.0522,0.26184 -0.22725,1.249 -0.43751,2.49972 -0.21327,1.2689 -0.76309,4.65468 -1.25004,7.53039 -0.48778,2.88063 -1.06478,6.27979 -1.28129,7.56164 -0.21631,1.28084 -0.56777,3.36674 -0.78128,4.62447 -0.47212,2.78203 -0.67568,4.04834 -0.78127,4.78071 -0.10559,0.73237 -0.0899,1.0323 -0.0625,1.40609 0.0282,0.38458 0.0671,1.1232 0.0937,1.59357 0.0277,0.48908 0.0753,1.06681 0.0937,1.2811 0.0119,0.14011 0.0362,0.66844 0.0625,1.09363 0.027,0.43655 0.0771,0.96324 0.0937,1.15612 0.0134,0.1612 0.0384,0.63151 0.0625,0.99988 0.0241,0.37213 0.072,0.94838 0.0937,1.28111 0.0219,0.33966 0.0398,0.76794 0.0625,1.03113 0.0169,0.20706 0.0668,0.81912 0.0937,1.31235 0.0137,0.25192 0.0207,0.4818 0.0312,0.68742 0.0105,0.20563 0.0103,0.32788 0.0312,0.49995 0.008,0.0685 0.0654,0.58414 0.0937,1.06238 0.0147,0.24609 0.0208,0.48212 0.0312,0.68742 0.0104,0.20529 0.014,0.30889 0.0312,0.46869 -1.6e-4,0.0104 -1.6e-4,0.0208 0,0.0312 0.0101,0.0839 0.0253,0.16255 0.0312,0.21873 0.002,0.0267 0.0282,0.006 0.0312,0.0312 0.0682,0.551 0.37543,0.73913 0.50002,0.81241 0.1302,0.0766 0.20408,0.10044 0.28126,0.12499 0.15436,0.0491 0.2966,0.0743 0.43751,0.0937 0.0396,0.005 0.25513,0.14568 0.0312,-0.0312 0.18516,0.14649 0.50475,0.29986 0.75002,0.34371 0.24527,0.0439 0.45576,0.0286 0.75002,0.0312 0.37809,0.003 0.50641,0.0334 0.50002,0.0312 -0.006,-0.002 -0.0135,-0.036 0.15626,0.12499 0.28249,0.26803 0.71437,0.56486 1.21878,0.56243 0.22401,-10e-4 0.63192,-0.0204 0.96878,-0.28121 0.33687,-0.26081 0.42435,-0.53809 0.53127,-0.78116 0.2117,-0.48112 0.3138,-0.98773 0.37501,-1.96853 0.06,-0.95949 0.25256,-1.71843 0.46877,-2.15601 0.21621,-0.43758 0.34517,-0.43818 0.31251,-0.43745 -0.006,1.3e-4 0.0172,-0.0463 0.1875,0.18748 0.17033,0.23374 0.39428,0.70812 0.53127,1.37485 0.1179,0.57385 0.40321,1.13167 0.75002,1.46858 0.0245,0.0238 0.23368,0.31455 0.40626,0.53119 -0.50455,0.0783 -0.89382,0.13538 -1.25003,0.28122 -0.38357,0.15703 -0.75929,0.5089 -0.93753,0.84365 -0.0676,0.12702 -0.29069,0.46209 -0.15626,0.93739 0.13444,0.47531 0.39319,0.56925 0.50001,0.65618 0.0817,0.0665 0.27249,0.18564 0.46877,0.24997 0.19629,0.0643 0.33749,0.0867 0.50002,0.0937 0.32505,0.0141 0.73109,-0.0102 1.50004,-0.0312 l 1.62505,-0.0312 c 0.10661,-0.004 0.21255,-0.0253 0.31252,-0.0625 l 1.53129,-0.56243 1.5313,-0.56244 c 0.27086,-0.10012 0.49364,-0.32286 0.59377,-0.59368 l 0.21876,-0.59368 c 0.0904,-0.23664 0.32324,-0.57698 0.25,-0.49995 1.02441,-1.07811 0.90244,-2.81184 -0.0937,-3.99954 -0.41532,-0.49513 -0.56941,-0.71838 -0.62502,-0.99989 l 13.12541,0.0312 c 3.89057,0.005 19.46049,5e-4 22.06749,0 1.3035,-2.5e-4 2.37908,9.4e-4 3.12509,0 0.37302,-4.7e-4 0.63918,5.7e-4 0.84378,0 0.10231,-2.9e-4 0.19255,3.1e-4 0.25002,0 0.0575,-3.1e-4 0.0231,0.004 0.12499,0 0.50221,-0.0194 0.75427,-0.12704 1.09379,-0.4687 0.10973,-0.11027 0.40644,-0.63931 0.43751,-0.96864 0.0311,-0.32932 0.0117,-0.63568 0,-1.2811 -0.0186,-1.02138 -0.007,-1.25551 0.0937,-1.71856 0.13556,-0.62235 0.15449,-1.12721 0.12501,-2.156 -0.0308,-1.07635 -0.0515,-1.51915 -0.25001,-2.12476 -0.10826,-0.33029 -0.15346,-0.5293 -0.15625,-0.59368 -0.003,-0.0644 -0.0326,-7e-4 0,-0.0625 0.20039,-0.37964 0.26749,-0.65674 0.31251,-0.99989 0.0293,-0.22246 0.0682,-0.46078 0.125,-0.62493 0.0568,-0.16415 0.17275,-0.26203 0.0312,-0.12498 0.47497,-0.46 0.5402,-0.99545 0.56252,-1.53108 0.0223,-0.53563 -0.0186,-1.12757 -0.15626,-1.84354 -0.0442,-0.22964 -0.21215,-0.98795 -0.46876,-2.18725 -0.25661,-1.19931 -0.61869,-2.79536 -0.96878,-4.46824 -0.70026,-3.346 -1.68655,-8.17233 -2.21882,-10.71753 -0.53157,-2.54182 -1.01314,-4.80011 -1.06253,-5.03068 l -0.0937,-0.40621 c -0.0994,-0.43619 -0.52139,-0.7765 -0.96879,-0.78116 l -29.19271,0 -17.21929,0 c -0.0312,-10e-4 -0.0625,-10e-4 -0.0937,0 z"
           style="fill:#000000;fill-opacity:1;stroke:none" />
        <path
           sodipodi:nodetypes="cccscscccccccccccccccccscscccsccccccsssccccscccccccccccccccc"
           inkscape:connector-curvature="0"
           id="path1483"
           d="m -195.84484,502.64724 c -0.17095,-0.13958 -0.17988,-0.17378 -0.0894,-0.34423 0.16843,-0.31735 0.49396,-0.44329 1.56364,-0.60494 1.06205,-0.16047 1.37186,-0.24793 1.37186,-0.38719 0,-0.13705 -0.99766,-1.49235 -1.35465,-1.8403 -0.29899,-0.2914 -0.34933,-0.39299 -0.45811,-0.92416 -0.31242,-1.52549 -0.93842,-2.40617 -1.69808,-2.38891 -0.92815,0.0207 -1.63173,1.43526 -1.76306,3.54373 -0.0595,0.95676 -0.10435,1.21972 -0.27296,1.60416 -0.1785,0.40713 -0.25454,0.46885 -0.57914,0.47049 -0.16981,8.2e-4 -0.32419,-0.0794 -0.53199,-0.2772 -0.39038,-0.37135 -0.54752,-0.4211 -1.34994,-0.42741 -0.55201,-0.005 -0.71867,-0.034 -0.87107,-0.15496 -0.10367,-0.0822 -0.34712,-0.17148 -0.54106,-0.19834 -0.19385,-0.0269 -0.35548,-0.0877 -0.35902,-0.13521 -0.005,-0.0475 -0.0161,-0.17378 -0.0288,-0.28048 -0.0115,-0.10675 -0.047,-0.60759 -0.0772,-1.11306 -0.0299,-0.50545 -0.0652,-1.01187 -0.0782,-1.12535 -0.0138,-0.11341 -0.0468,-0.62542 -0.0746,-1.13764 -0.0279,-0.51224 -0.0652,-1.10596 -0.0825,-1.31938 -0.0183,-0.2135 -0.0502,-0.67618 -0.0728,-1.02834 -0.0229,-0.35217 -0.0597,-0.92842 -0.0824,-1.28057 -0.0229,-0.35215 -0.0556,-0.8149 -0.0733,-1.02833 -0.0183,-0.2135 -0.0521,-0.71985 -0.0772,-1.12537 -0.025,-0.4055 -0.06,-0.91192 -0.078,-1.12534 -0.0183,-0.2135 -0.0547,-0.76888 -0.0811,-1.23432 -0.0263,-0.46547 -0.0726,-1.1814 -0.10253,-1.59102 -0.059,-0.80659 -0.11327,-0.41565 0.82853,-5.98344 0.21306,-1.25923 0.56359,-3.33724 0.77915,-4.61782 0.21558,-1.28055 0.78978,-4.68572 1.27608,-7.567 0.48631,-2.88128 1.05681,-6.26897 1.26776,-7.52821 0.211,-1.25922 0.40285,-2.38555 0.42642,-2.50293 l 0.0428,-0.2135 17.14742,0 29.28479,0 0.0867,0.40746 c 0.0478,0.22405 0.52001,2.48547 1.04943,5.02527 0.52942,2.5398 1.53446,7.35941 2.23343,10.71024 0.69897,3.35083 1.31768,6.33688 1.37494,6.63567 0.2558,1.33474 0.23031,2.17156 -0.0751,2.46828 -0.19773,0.19214 -0.39808,0.75593 -0.47411,1.33463 -0.0279,0.2135 -0.11488,0.50978 -0.19315,0.65853 -0.19224,0.36598 -0.17758,0.70146 0.0627,1.43696 0.1753,0.53654 0.2078,0.78956 0.23844,1.86263 0.0291,1.0191 0.01,1.36006 -0.10756,1.90146 -0.11511,0.53041 -0.13846,0.91424 -0.11946,1.95866 0.0235,1.29817 0.0235,1.29908 -0.16981,1.494 -0.10664,0.10767 -0.28979,0.19858 -0.40849,0.20317 -0.11832,0.005 -18.69798,0.002 -26.45362,-0.007 l -14.10112,-0.0138 -0.01,0.18089 c -0.0579,1.09236 0.10688,1.56535 0.85892,2.46488 0.76163,0.91102 0.83256,1.95895 0.17919,2.64882 -0.14967,0.15794 -0.35556,0.52297 -0.48132,0.85315 l -0.21969,0.57697 -1.52964,0.56568 -1.52963,0.5657 -1.61671,0.0446 c -1.53688,0.0423 -1.62609,0.0367 -1.80652,-0.11065 z"
           style="fill:#ffffff;fill-opacity:1;stroke:none" />
      </g>
      <g
         style="overflow:visible"
         id="g4165"
         transform="matrix(0.07999999,0,0,0.08005121,-278.69243,414.97989)" />
      <text
         xml:space="preserve"
         style="font-size:32px;font-style:normal;font-variant:normal;font-weight:normal;font-stretch:normal;text-align:center;line-height:125%;letter-spacing:0px;word-spacing:0px;writing-mode:lr;text-anchor:middle;fill:#000000;fill-opacity:1;stroke:none;font-family:Roadgeek 2005 Series C;-inkscape-font-specification:Roadgeek 2005 Series C"
         x="-175.71429"
         y="489.78067"
         id="text2989"
         sodipodi:linespacing="125%"><tspan
           sodipodi:role="line"
           id="tspan3040">%num%</tspan></text>
    </g>
  </g>
</svg>
