<?xml version="1.0" encoding="UTF-8" standalone="no"?>
<!-- Created with Inkscape (http://www.inkscape.org/) -->

<svg
   xmlns:dc="http://purl.org/dc/elements/1.1/"
   xmlns:cc="http://creativecommons.org/ns#"
   xmlns:rdf="http://www.w3.org/1999/02/22-rdf-syntax-ns#"
   xmlns:svg="http://www.w3.org/2000/svg"
   xmlns="http://www.w3.org/2000/svg"
   xmlns:sodipodi="http://sodipodi.sourceforge.net/DTD/sodipodi-0.dtd"
   xmlns:inkscape="http://www.inkscape.org/namespaces/inkscape"
   width="60"
   height="48"
   id="svg2"
   sodipodi:version="0.32"
   inkscape:version="0.48.1 r9760"
   version="1.0"
   sodipodi:docname="US:AZ_banner.svg">
  <defs
     id="defs4">
    <inkscape:perspective
       sodipodi:type="inkscape:persp3d"
       inkscape:vp_x="0 : 456 : 1"
       inkscape:vp_y="0 : 1000 : 0"
       inkscape:vp_z="773 : 456 : 1"
       inkscape:persp3d-origin="386.5 : 304 : 1"
       id="perspective3821" />
    <inkscape:perspective
       id="perspective3039"
       inkscape:persp3d-origin="0.5 : 0.33333333 : 1"
       inkscape:vp_z="1 : 0.5 : 1"
       inkscape:vp_y="0 : 1000 : 0"
       inkscape:vp_x="0 : 0.5 : 1"
       sodipodi:type="inkscape:persp3d" />
    <inkscape:perspective
       id="perspective3286"
       inkscape:persp3d-origin="0.5 : 0.33333333 : 1"
       inkscape:vp_z="1 : 0.5 : 1"
       inkscape:vp_y="0 : 1000 : 0"
       inkscape:vp_x="0 : 0.5 : 1"
       sodipodi:type="inkscape:persp3d" />
    <inkscape:perspective
       id="perspective3563"
       inkscape:persp3d-origin="0.5 : 0.33333333 : 1"
       inkscape:vp_z="1 : 0.5 : 1"
       inkscape:vp_y="0 : 1000 : 0"
       inkscape:vp_x="0 : 0.5 : 1"
       sodipodi:type="inkscape:persp3d" />
    <inkscape:perspective
       id="perspective4986"
       inkscape:persp3d-origin="0.5 : 0.33333333 : 1"
       inkscape:vp_z="1 : 0.5 : 1"
       inkscape:vp_y="0 : 1000 : 0"
       inkscape:vp_x="0 : 0.5 : 1"
       sodipodi:type="inkscape:persp3d" />
    <inkscape:perspective
       id="perspective5226"
       inkscape:persp3d-origin="0.5 : 0.33333333 : 1"
       inkscape:vp_z="1 : 0.5 : 1"
       inkscape:vp_y="0 : 1000 : 0"
       inkscape:vp_x="0 : 0.5 : 1"
       sodipodi:type="inkscape:persp3d" />
  </defs>
  <sodipodi:namedview
     id="base"
     pagecolor="#ffffff"
     bordercolor="#666666"
     borderopacity="1.0"
     inkscape:pageopacity="0.0"
     inkscape:pageshadow="2"
     inkscape:zoom="20.25"
     inkscape:cx="30"
     inkscape:cy="24"
     inkscape:document-units="px"
     inkscape:current-layer="layer1"
     inkscape:window-width="1598"
     inkscape:window-height="1198"
     inkscape:window-x="1"
     inkscape:window-y="1"
     showgrid="true"
     showborder="true"
     inkscape:showpageshadow="false"
     inkscape:window-maximized="0">
    <inkscape:grid
       type="xygrid"
       id="grid3265"
       empspacing="5"
       visible="true"
       enabled="true"
       snapvisiblegridlinesonly="true"
       spacingx="1px"
       spacingy="1px" />
  </sodipodi:namedview>
  <metadata
     id="metadata7">
    <rdf:RDF>
      <cc:Work
         rdf:about="">
        <dc:format>image/svg+xml</dc:format>
        <dc:type
           rdf:resource="http://purl.org/dc/dcmitype/StillImage" />
        <dc:title></dc:title>
      </cc:Work>
    </rdf:RDF>
  </metadata>
  <g
     inkscape:label="Layer 1"
     inkscape:groupmode="layer"
     id="layer1"
     transform="translate(-400.12375,-417.79487)">
    <g
       id="g4008">
      <path
         transform="matrix(0.99892232,0,0,0.99847575,0.46232264,0.68892588)"
         d="m 411.25,418.75 a 1.0371407,1.0371407 0 0 0 -0.8125,1.03125 l 0,3.1875 0,2.125 -3.625,0 -4.6875,0 a 1.0371407,1.0371407 0 0 0 -1.03125,1.03125 l 0,15.625 0,15.65625 a 1.0371407,1.0371407 0 0 0 0.84375,1.03125 l 17.71875,3.1875 c 4.8703,0.8739 9.28881,1.6729 12.5,2.25 1.6056,0.28855 2.91283,0.49363 3.8125,0.65625 0.44983,0.0813 0.79521,0.14431 1.03125,0.1875 0.10552,0.0193 0.19208,0.0517 0.25,0.0625 2.6e-4,8e-5 -0.62502,-0.53129 -0.625,-0.53125 2e-5,4e-5 0.65034,0.50226 0.6875,0.53125 0.001,8.4e-4 0.0312,0 0.0312,0 1.6e-4,4e-5 0.074,0.0289 0.0937,0.0312 0.0395,0.005 0.0508,-6.9e-4 0.0625,0 0.0233,0.001 0.0213,-2.8e-4 0.0312,0 0.0199,5.7e-4 0.042,-2.6e-4 0.0625,0 0.041,5.2e-4 0.11717,-3.3e-4 0.1875,0 0.14066,6.6e-4 0.33187,-2.2e-4 0.59375,0 0.52376,4.4e-4 1.287,5.9e-4 2.21875,0 1.86349,-0.001 4.42458,0 7.25,0 l 10.28125,0 a 1.0371407,1.0371407 0 0 0 1.03125,-1.03125 l 0,-22 0,-22 A 1.0371407,1.0371407 0 0 0 458.125,418.75 l -23.34375,0 -23.3125,0 a 1.0371407,1.0371407 0 0 0 -0.21875,0 z"
         id="path4006"
         style="fill:#000000;fill-opacity:1;stroke:none"
         inkscape:original="M 411.46875 419.78125 L 411.46875 422.96875 L 411.46875 426.125 L 406.8125 426.125 L 402.125 426.125 L 402.125 441.75 L 402.125 457.40625 L 419.84375 460.59375 C 429.58428 462.34154 437.5575 463.77125 437.5625 463.78125 C 437.56723 463.79065 442.19176 463.78125 447.84375 463.78125 L 458.125 463.78125 L 458.125 441.78125 L 458.125 419.78125 L 434.78125 419.78125 L 411.46875 419.78125 z "
         inkscape:radius="1.037037"
         sodipodi:type="inkscape:offset" />
      <path
         id="path4166"
         d="m 437.5645,463.77951 c -0.005,-0.01 -7.97818,-1.446 -17.71871,-3.19379 l -17.71009,-3.17781 -0.005,-15.64743 -0.007,-15.64745 4.67556,0.005 4.67559,0.005 0,-3.16397 0,-3.16396 23.31942,0 23.31947,0 0.005,22 0.005,22 -10.2763,0 c -5.65199,0 -10.28021,-0.007 -10.28494,-0.0164 z"
         style="fill:#ffffff;fill-opacity:1;stroke:none"
         inkscape:connector-curvature="0" />
    </g>
    <path
       id="path1435"
       d=""
       style="fill:#a8e50a"
       inkscape:connector-curvature="0" />
    <text
       xml:space="preserve"
       style="font-size:32px;font-style:normal;font-variant:normal;font-weight:normal;font-stretch:normal;text-align:center;line-height:100%;writing-mode:lr;text-anchor:middle;fill:#000000;fill-opacity:1;fill-rule:nonzero;stroke:none;font-family:Roadgeek 2005 Series C;-inkscape-font-specification:Roadgeek 2005 Series C"
       x="430.12375"
       y="454.79486"
       id="routenum"
       sodipodi:linespacing="100%"><tspan
         sodipodi:role="line"
         id="tspan4016">%num%</tspan></text>
    <text
       xml:space="preserve"
       style="font-size:8px;font-style:normal;font-variant:normal;font-weight:normal;font-stretch:normal;text-align:center;line-height:125%;letter-spacing:0px;word-spacing:0px;writing-mode:lr;text-anchor:middle;fill:#000000;fill-opacity:1;stroke:none;font-family:Roadgeek 2005 Series D;-inkscape-font-specification:Roadgeek 2005 Series D"
       x="434.12375"
       y="427.79486"
       id="text3267"
       sodipodi:linespacing="125%"><tspan
         sodipodi:role="line"
         id="tspan4014">%mod%</tspan></text>
  </g>
</svg>
