<?xml version="1.0" encoding="UTF-8" standalone="no"?>
<!-- Created with Inkscape (http://www.inkscape.org/) -->

<svg
   xmlns:dc="http://purl.org/dc/elements/1.1/"
   xmlns:cc="http://creativecommons.org/ns#"
   xmlns:rdf="http://www.w3.org/1999/02/22-rdf-syntax-ns#"
   xmlns:svg="http://www.w3.org/2000/svg"
   xmlns="http://www.w3.org/2000/svg"
   xmlns:sodipodi="http://sodipodi.sourceforge.net/DTD/sodipodi-0.dtd"
   xmlns:inkscape="http://www.inkscape.org/namespaces/inkscape"
   version="1.0"
   width="48"
   height="48"
   id="svg2"
   inkscape:version="0.48.1 r9760"
   sodipodi:docname="US:AR_airport.svg">
  <metadata
     id="metadata3037">
    <rdf:RDF>
      <cc:Work
         rdf:about="">
        <dc:format>image/svg+xml</dc:format>
        <dc:type
           rdf:resource="http://purl.org/dc/dcmitype/StillImage" />
      </cc:Work>
    </rdf:RDF>
  </metadata>
  <sodipodi:namedview
     pagecolor="#ffffff"
     bordercolor="#666666"
     borderopacity="1"
     objecttolerance="10"
     gridtolerance="10"
     guidetolerance="10"
     inkscape:pageopacity="0"
     inkscape:pageshadow="2"
     inkscape:window-width="1598"
     inkscape:window-height="1182"
     id="namedview3035"
     showgrid="true"
     inkscape:showpageshadow="false"
     inkscape:zoom="19.916667"
     inkscape:cx="24"
     inkscape:cy="24"
     inkscape:window-x="1"
     inkscape:window-y="1"
     inkscape:window-maximized="0"
     inkscape:current-layer="svg2">
    <inkscape:grid
       type="xygrid"
       id="grid3031"
       empspacing="5"
       visible="true"
       enabled="true"
       snapvisiblegridlinesonly="true" />
  </sodipodi:namedview>
  <defs
     id="defs4" />
  <path
     inkscape:connector-curvature="0"
     style="fill:#004187;fill-opacity:1"
     id="path3797"
     d="m 7.3407619,42.763899 0,-3.236049 -2.2614021,0 -2.261403,0 0,-11.984925 0,-11.984925 L 1.9390637,8.9747561 C 1.455672,5.3539717 1.0466316,2.3034345 1.0300846,2.1957835 L 1,2.0000544 l 20.632002,0 20.632002,0 0.265264,0.1241012 c 0.422932,0.197866 0.615811,0.4490022 0.742021,0.9661613 0.09387,0.3846957 0.100011,0.4797123 0.0505,0.7829157 -0.03099,0.1897969 -0.08597,0.5682162 -0.122155,0.8409315 -0.0521,0.3926168 -0.116383,0.6099453 -0.308772,1.043889 -0.230931,0.5208355 -0.243845,0.5739505 -0.260422,1.0699855 l -0.01739,0.3619449 0.199317,0.3035336 0.199318,0.143536 1.989541,0 1.989543,0 0,1.2669049 0,1.266906 0.0092,0.08665 c -0.126164,0.340323 -0.150751,0.481083 -0.150751,0.863105 l -0.319998,0.936461 -0.527291,1.324455 c -0.610521,1.318702 -0.691406,1.525249 -0.724435,1.849815 -0.05047,0.496142 -0.412458,2.133802 -0.603024,2.728172 -0.08532,0.266098 -0.242498,0.827207 -0.349301,1.24691 -0.201515,0.791862 -0.175118,0.896223 -0.764129,1.7707 -0.140775,0.208992 -0.447316,0.669639 -0.448453,0.90659 -3.18e-4,0.06856 -0.132274,0.542727 -0.488741,1.249253 -0.357489,0.708559 -0.678433,1.413317 -0.715721,1.57166 -0.07924,0.336503 -1.344736,2.657196 -2.305419,4.227752 -0.54724,0.894645 -0.69726,1.19379 -1.239901,2.472403 -0.387806,0.91378 -0.645145,1.592988 -0.692141,1.826804 -0.04116,0.204703 -0.108824,0.524862 -0.150412,0.711461 -0.05729,0.25712 -0.07586,0.683967 -0.07663,1.762997 l -10e-4,1.263731 0.173524,0.69356 c 0.09545,0.293456 0.221343,0.731543 0.279766,0.973525 0.05842,0.241985 0.139665,0.667096 0.180504,0.749143 0.06314,0.126792 0.07204,0.363399 0.05944,2.482346 l -0.01473,2.333163 -0.167076,0.501791 c -0.09189,0.187991 -0.267157,0.460599 -0.389471,0.605815 -0.1223,0.145219 -0.222382,0.279527 -0.222382,0.298478 0,0.04835 -0.135075,0.183354 -0.18485,0.184755 -0.0227,6.39e-4 -0.09782,0.04709 -0.166907,0.10322 -0.124015,0.100758 -0.314742,0.102086 -14.887568,0.103221 L 7.3409359,46 l 0,-3.236056 z" />
  <text
     xml:space="preserve"
     style="font-size:10px;font-style:normal;font-variant:normal;font-weight:normal;font-stretch:normal;text-align:center;line-height:125%;letter-spacing:0px;word-spacing:0px;writing-mode:lr;text-anchor:middle;fill:#ffffff;fill-opacity:1;stroke:none;font-family:Roadgeek 2005 Series D;-inkscape-font-specification:Roadgeek 2005 Series D"
     x="22.193178"
     y="10.751947"
     id="text3056"
     sodipodi:linespacing="125%"><tspan
       sodipodi:role="line"
       id="tspan3058"
       x="22.193178"
       y="10.751947">AIRPORT</tspan></text>
  <g
     id="g3958"
     transform="matrix(0.07881696,0,0,0.07881696,-0.10956962,-0.45902491)">
    <path
       inkscape:connector-curvature="0"
       style="fill:#ffffff;fill-opacity:1;fill-rule:evenodd;stroke:none"
       id="path3150"
       d="m 407.29132,160.93534 c -13.00139,4.27824 -26.00276,5.51325 -39.00414,12.91783 -8.36419,8.47139 -19.52985,36.55302 -29.38668,55.47294 -22.35389,2.31197 -31.16092,3.11915 -135.71303,65.18503 l 3.74011,-13.3576 -11.75465,0 -9.61745,11.22039 -55.03326,-30.98961 -24.57792,14.9605 11.22034,5.34305 33.12683,44.88147 -41.67566,42.74424 24.04362,-2.67151 30.9896,-34.19541 c 57.68925,4.15052 69.30799,-2.54677 106.86064,-9.61746 l -94.03736,83.88561 51.29311,-7.48025 72.13094,-69.45943 c 64.23036,-30.94631 42.37959,-16.22002 66.78789,-43.27857 25.11227,-12.07787 74.61221,-24.33723 75.33678,-46.48434 -5.05924,-10.43557 -23.50345,-7.48617 -35.26401,-11.2204 l 13.3245,-14.92745 -20.36502,-9.17768 -13.79733,2.19869 21.37215,-45.95004 z" />
    <path
       inkscape:connector-curvature="0"
       style="fill:#004187;fill-opacity:1;fill-rule:evenodd;stroke:none"
       id="path3152"
       d="m 247.80867,291.29156 7.334,12.69076 20.02948,-9.92373 -8.01454,-12.77725 -19.34894,10.01022 z" />
    <path
       inkscape:connector-curvature="0"
       style="fill:#004187;fill-opacity:1;fill-rule:evenodd;stroke:none"
       id="path3154"
       d="m 277.64707,292.63418 -8.00076,-12.76823 19.27618,-10.45331 9.32968,13.09732 -20.6051,10.12422 z" />
    <path
       inkscape:connector-curvature="0"
       style="fill:#004187;fill-opacity:1;fill-rule:evenodd;stroke:none"
       id="path3156"
       d="m 291.29249,268.37154 19.59148,-10.98759 10.89132,13.35757 -21.16693,10.39829 -9.31587,-12.76827 z" />
    <path
       inkscape:connector-curvature="0"
       style="fill:#004187;fill-opacity:1;fill-rule:evenodd;stroke:none"
       id="path3158"
       d="m 323.07664,243.46452 -6.93217,-2.20599 -3.15081,3.4248 -0.31531,11.6045 11.68588,13.04226 c 10.854,-7.23779 17.68197,-11.95331 25.22232,-18.09753 l -26.50991,-7.76804 z" />
    <path
       inkscape:connector-curvature="0"
       style="fill:#004187;fill-opacity:1;fill-rule:evenodd;stroke:none"
       id="path3160"
       d="m 319.88338,234.90192 -2.04089,4.80873 33.55221,8.32988 1.65796,-10.68608 -33.16928,-2.45253 z" />
  </g>
  <text
     xml:space="preserve"
     style="font-size:16px;font-style:normal;font-variant:normal;font-weight:normal;font-stretch:normal;text-align:center;line-height:125%;letter-spacing:0px;word-spacing:0px;writing-mode:lr;text-anchor:middle;fill:#ffffff;fill-opacity:1;stroke:none;font-family:Roadgeek 2005 Series D;-inkscape-font-specification:Roadgeek 2005 Series D"
     x="22"
     y="44"
     id="text3060"
     sodipodi:linespacing="125%"><tspan
       sodipodi:role="line"
       id="tspan3035">%num%</tspan></text>
</svg>
