<?xml version="1.0" encoding="UTF-8" standalone="no"?>
<!-- Created with Inkscape (http://www.inkscape.org/) -->

<svg
   xmlns:dc="http://purl.org/dc/elements/1.1/"
   xmlns:cc="http://creativecommons.org/ns#"
   xmlns:rdf="http://www.w3.org/1999/02/22-rdf-syntax-ns#"
   xmlns:svg="http://www.w3.org/2000/svg"
   xmlns="http://www.w3.org/2000/svg"
   xmlns:sodipodi="http://sodipodi.sourceforge.net/DTD/sodipodi-0.dtd"
   xmlns:inkscape="http://www.inkscape.org/namespaces/inkscape"
   width="48"
   height="48"
   id="svg2"
   sodipodi:version="0.32"
   inkscape:version="0.48.1 r9760"
   version="1.0"
   sodipodi:docname="US:AL_2D.svg">
  <defs
     id="defs4" />
  <sodipodi:namedview
     id="base"
     pagecolor="#ffffff"
     bordercolor="#666666"
     borderopacity="1.0"
     inkscape:pageopacity="0.0"
     inkscape:pageshadow="2"
     inkscape:zoom="19.916667"
     inkscape:cx="24"
     inkscape:cy="24"
     inkscape:document-units="px"
     inkscape:current-layer="g1366"
     inkscape:window-width="1598"
     inkscape:window-height="1182"
     inkscape:window-x="1"
     inkscape:window-y="1"
     showgrid="true"
     inkscape:showpageshadow="false"
     inkscape:window-maximized="0">
    <inkscape:grid
       type="xygrid"
       id="grid2994"
       empspacing="5"
       visible="true"
       enabled="true"
       snapvisiblegridlinesonly="true" />
  </sodipodi:namedview>
  <metadata
     id="metadata7">
    <rdf:RDF>
      <cc:Work
         rdf:about="">
        <dc:format>image/svg+xml</dc:format>
        <dc:type
           rdf:resource="http://purl.org/dc/dcmitype/StillImage" />
        <dc:title></dc:title>
      </cc:Work>
    </rdf:RDF>
  </metadata>
  <g
     inkscape:label="Layer 1"
     inkscape:groupmode="layer"
     id="layer1"
     transform="translate(0,-552)">
    <g
       style="overflow:visible"
       id="g1366"
       transform="translate(205.7143,95.21933)">
      <path
         id="path7"
         d=""
         inkscape:connector-curvature="0" />
      <g
         id="g3005">
        <path
           inkscape:connector-curvature="0"
           id="path2998"
           d="m -199.16213,457.78201 a 1.0044149,1.0041703 0 0 0 -0.90637,0.84366 l -0.0312,0.18748 0,0.0312 c -0.0522,0.26184 -0.22728,1.249 -0.43756,2.49972 -0.21329,1.2689 -0.76316,4.65468 -1.25016,7.53039 -0.48783,2.88063 -1.06489,6.27979 -1.28142,7.56164 -0.21633,1.28084 -0.56782,3.36674 -0.78135,4.62447 -0.47217,2.78203 -0.67575,4.04834 -0.78135,4.78071 -0.1056,0.73237 -0.0899,1.0323 -0.0625,1.40609 0.0282,0.38458 0.0671,1.1232 0.0937,1.59357 0.0277,0.48908 0.0753,1.06681 0.0937,1.2811 0.0119,0.14011 0.0362,0.66844 0.0625,1.09363 0.027,0.43655 0.0771,0.96324 0.0937,1.15612 0.0134,0.1612 0.0384,0.63151 0.0625,0.99988 0.0241,0.37213 0.072,0.94838 0.0937,1.28111 0.0219,0.33966 0.0398,0.76794 0.0625,1.03113 0.0169,0.20706 0.0668,0.81912 0.0937,1.31235 0.0137,0.25192 0.0207,0.4818 0.0312,0.68742 0.0105,0.20563 0.0103,0.32788 0.0312,0.49995 0.008,0.0685 0.0654,0.58414 0.0937,1.06238 0.0147,0.24609 0.0208,0.48212 0.0312,0.68742 0.0104,0.20529 0.014,0.30889 0.0312,0.46869 a 1.0044149,1.0041703 0 0 0 0,0.0312 c 0.0101,0.0839 0.0253,0.16255 0.0312,0.21873 0.002,0.0267 0.0282,0.006 0.0312,0.0312 0.0682,0.551 0.37547,0.73913 0.50007,0.81241 0.13022,0.0766 0.2041,0.10044 0.28129,0.12499 0.15438,0.0491 0.29663,0.0743 0.43755,0.0937 0.0396,0.005 0.25516,0.14568 0.0312,-0.0312 0.18518,0.14649 0.5048,0.29986 0.75009,0.34371 0.2453,0.0439 0.45581,0.0286 0.7501,0.0312 0.37812,0.003 0.50646,0.0334 0.50007,0.0312 -0.006,-0.002 -0.0135,-0.036 0.15627,0.12499 0.28252,0.26803 0.71444,0.56486 1.2189,0.56243 0.22403,-10e-4 0.63198,-0.0204 0.96888,-0.28121 0.3369,-0.26081 0.42439,-0.53809 0.53132,-0.78116 0.21172,-0.48112 0.31383,-0.98773 0.37505,-1.96853 0.06,-0.95949 0.25258,-1.71843 0.46881,-2.15601 0.21623,-0.43758 0.34521,-0.43818 0.31254,-0.43745 -0.006,1.3e-4 0.0172,-0.0463 0.18752,0.18748 0.17035,0.23374 0.39432,0.70812 0.53132,1.37485 0.11792,0.57385 0.40325,1.13167 0.7501,1.46858 0.0245,0.0238 0.2337,0.31455 0.4063,0.53119 -0.5046,0.0783 -0.89391,0.13538 -1.25016,0.28122 -0.3836,0.15703 -0.75936,0.5089 -0.93762,0.84365 -0.0676,0.12702 -0.29072,0.46209 -0.15627,0.93739 0.13445,0.47531 0.39323,0.56925 0.50006,0.65618 0.0817,0.0665 0.27251,0.18564 0.46881,0.24997 0.19631,0.0643 0.33753,0.0867 0.50007,0.0937 0.32508,0.0141 0.73116,-0.0102 1.50019,-0.0312 l 1.62521,-0.0312 a 1.0044149,1.0041703 0 0 0 0.31255,-0.0625 l 1.53144,-0.56243 1.53145,-0.56244 a 1.0044149,1.0041703 0 0 0 0.59383,-0.59368 l 0.21878,-0.59368 c 0.0904,-0.23664 0.32327,-0.57698 0.25003,-0.49995 1.02451,-1.07811 0.90253,-2.81184 -0.0937,-3.99954 -0.41536,-0.49513 -0.56947,-0.71838 -0.62508,-0.99989 l 13.1267,0.0312 c 3.89096,0.005 7.45655,5e-4 10.06381,0 1.30363,-2.5e-4 2.37931,9.4e-4 3.1254,0 0.37305,-4.7e-4 0.63924,5.7e-4 0.84386,0 0.10232,-2.9e-4 0.19257,3.1e-4 0.25004,0 0.0575,-3.1e-4 0.0231,0.004 0.12501,0 0.50226,-0.0194 0.75434,-0.12704 1.09389,-0.4687 0.10975,-0.11027 0.40649,-0.63931 0.43756,-0.96864 0.0311,-0.32932 0.0117,-0.63568 0,-1.2811 -0.0186,-1.02138 -0.007,-1.25551 0.0937,-1.71856 0.13557,-0.62235 0.1545,-1.12721 0.12502,-2.156 -0.0308,-1.07635 -0.0515,-1.51915 -0.25003,-2.12476 -0.10828,-0.33029 -0.15348,-0.5293 -0.15627,-0.59368 -0.003,-0.0644 -0.0326,-7e-4 0,-0.0625 0.20041,-0.37964 0.26752,-0.65674 0.31254,-0.99989 0.0293,-0.22246 0.0682,-0.46078 0.12501,-0.62493 0.0568,-0.16415 0.17277,-0.26203 0.0312,-0.12498 0.47501,-0.46 0.54025,-0.99545 0.56257,-1.53108 0.0223,-0.53563 -0.0186,-1.12757 -0.15627,-1.84354 -0.0442,-0.22964 -0.21217,-0.98795 -0.46881,-2.18725 -0.25664,-1.19931 -0.61875,-2.79536 -0.96888,-4.46824 -0.70032,-3.346 -1.68671,-8.17233 -2.21903,-10.71753 -0.53163,-2.54182 -1.01324,-4.80011 -1.06264,-5.03068 l -0.0937,-0.40621 a 1.0044149,1.0041703 0 0 0 -0.96888,-0.78116 l -17.18973,0 -17.22099,0 a 1.0044149,1.0041703 0 0 0 -0.0937,0 z"
           style="fill:#000000;fill-opacity:1;stroke:none" />
        <path
           inkscape:connector-curvature="0"
           id="path1483"
           d="m -195.82021,502.64724 c -0.17149,-0.13958 -0.18044,-0.17378 -0.0897,-0.34423 0.16896,-0.31735 0.4955,-0.44329 1.56853,-0.60494 1.06538,-0.16047 1.37616,-0.24793 1.37616,-0.38719 0,-0.13705 -1.00079,-1.49235 -1.35889,-1.8403 -0.29993,-0.2914 -0.35043,-0.39299 -0.45955,-0.92416 -0.3134,-1.52549 -0.94135,-2.40617 -1.70339,-2.38891 -0.93106,0.0207 -1.63684,1.43526 -1.76858,3.54373 -0.0597,0.95676 -0.10468,1.21972 -0.27381,1.60416 -0.17906,0.40713 -0.25534,0.46885 -0.58096,0.47049 -0.17034,8.2e-4 -0.3252,-0.0794 -0.53365,-0.2772 -0.3916,-0.37135 -0.54923,-0.4211 -1.35417,-0.42741 -0.55373,-0.005 -0.72092,-0.034 -0.87379,-0.15496 -0.104,-0.0822 -0.34821,-0.17148 -0.54276,-0.19834 -0.19445,-0.0269 -0.35659,-0.0877 -0.36014,-0.13521 -0.005,-0.0475 -0.0161,-0.17378 -0.0289,-0.28048 -0.0115,-0.10675 -0.0471,-0.60759 -0.0774,-1.11306 -0.03,-0.50545 -0.0654,-1.01187 -0.0785,-1.12535 -0.0138,-0.11341 -0.0469,-0.62542 -0.0748,-1.13764 -0.028,-0.51224 -0.0654,-1.10596 -0.0828,-1.31938 -0.0184,-0.2135 -0.0503,-0.67618 -0.073,-1.02834 -0.023,-0.35217 -0.0599,-0.92842 -0.0827,-1.28057 -0.023,-0.35215 -0.0558,-0.8149 -0.0735,-1.02833 -0.0184,-0.2135 -0.0523,-0.71985 -0.0774,-1.12537 -0.0251,-0.4055 -0.0602,-0.91192 -0.0783,-1.12534 -0.0184,-0.2135 -0.0549,-0.76888 -0.0813,-1.23432 -0.0264,-0.46547 -0.0728,-1.1814 -0.10285,-1.59102 -0.0592,-0.80659 -0.11363,-0.41565 0.83112,-5.98344 0.21373,-1.25923 0.56535,-3.33724 0.78159,-4.61782 0.21625,-1.28055 0.79225,-4.68572 1.28007,-7.567 0.48783,-2.88128 1.06012,-6.26897 1.27173,-7.52821 0.21166,-1.25922 0.40411,-2.38555 0.42775,-2.50293 l 0.0429,-0.2135 17.20108,0 17.20109,0 0.087,0.40746 c 0.048,0.22405 0.52164,2.48547 1.05272,5.02527 0.53107,2.5398 1.53926,7.35941 2.24042,10.71024 0.70115,3.35083 1.3218,6.33688 1.37924,6.63567 0.2566,1.33474 0.23103,2.17156 -0.0753,2.46828 -0.19835,0.19214 -0.39933,0.75593 -0.4756,1.33463 -0.028,0.2135 -0.11524,0.50978 -0.19375,0.65853 -0.19284,0.36598 -0.17814,0.70146 0.0629,1.43696 0.17585,0.53654 0.20845,0.78956 0.23919,1.86263 0.0292,1.0191 0.01,1.36006 -0.1079,1.90146 -0.11547,0.53041 -0.13889,0.91424 -0.11983,1.95866 0.0236,1.29817 0.0236,1.29908 -0.17034,1.494 -0.10698,0.10767 -0.2907,0.19858 -0.40977,0.20317 -0.11869,0.005 -6.58115,0.002 -14.36106,-0.007 l -14.14525,-0.0138 -0.01,0.18089 c -0.0581,1.09236 0.10721,1.56535 0.86161,2.46488 0.76401,0.91102 0.83516,1.95895 0.17975,2.64882 -0.15014,0.15794 -0.35668,0.52297 -0.48283,0.85315 l -0.22038,0.57697 -1.53442,0.56568 -1.53442,0.5657 -1.62177,0.0446 c -1.54169,0.0423 -1.63118,0.0367 -1.81217,-0.11065 z"
           style="fill:#ffffff;fill-opacity:1;stroke:none" />
      </g>
      <g
         style="overflow:visible"
         id="g4165"
         transform="matrix(0.07999999,0,0,0.08005121,-278.69243,414.97989)" />
      <text
         xml:space="preserve"
         style="font-size:32px;font-style:normal;font-variant:normal;font-weight:normal;font-stretch:normal;text-align:center;line-height:125%;letter-spacing:0px;word-spacing:0px;writing-mode:lr;text-anchor:middle;fill:#000000;fill-opacity:1;stroke:none;font-family:Roadgeek 2005 Series C;-inkscape-font-specification:Roadgeek 2005 Series C"
         x="-181.71429"
         y="489.78067"
         id="text2989"
         sodipodi:linespacing="125%"><tspan
           sodipodi:role="line"
           id="tspan3011">%num%</tspan></text>
    </g>
  </g>
</svg>
