<?xml version="1.0" encoding="UTF-8" standalone="no"?>
<!-- Created with Inkscape (http://www.inkscape.org/) -->

<svg
   xmlns:dc="http://purl.org/dc/elements/1.1/"
   xmlns:cc="http://creativecommons.org/ns#"
   xmlns:rdf="http://www.w3.org/1999/02/22-rdf-syntax-ns#"
   xmlns:svg="http://www.w3.org/2000/svg"
   xmlns="http://www.w3.org/2000/svg"
   xmlns:sodipodi="http://sodipodi.sourceforge.net/DTD/sodipodi-0.dtd"
   xmlns:inkscape="http://www.inkscape.org/namespaces/inkscape"
   version="1.0"
   width="48"
   height="48"
   id="svg2"
   inkscape:version="0.48.1 r9760"
   sodipodi:docname="US:AR_917.svg">
  <metadata
     id="metadata3019">
    <rdf:RDF>
      <cc:Work
         rdf:about="">
        <dc:format>image/svg+xml</dc:format>
        <dc:type
           rdf:resource="http://purl.org/dc/dcmitype/StillImage" />
      </cc:Work>
    </rdf:RDF>
  </metadata>
  <sodipodi:namedview
     pagecolor="#ffffff"
     bordercolor="#666666"
     borderopacity="1"
     objecttolerance="10"
     gridtolerance="10"
     guidetolerance="10"
     inkscape:pageopacity="0"
     inkscape:pageshadow="2"
     inkscape:window-width="1598"
     inkscape:window-height="1182"
     id="namedview3017"
     showgrid="true"
     inkscape:showpageshadow="false"
     inkscape:zoom="19.916667"
     inkscape:cx="24"
     inkscape:cy="24"
     inkscape:window-x="1"
     inkscape:window-y="1"
     inkscape:window-maximized="0"
     inkscape:current-layer="svg2">
    <inkscape:grid
       type="xygrid"
       id="grid3039"
       empspacing="5"
       visible="true"
       enabled="true"
       snapvisiblegridlinesonly="true" />
  </sodipodi:namedview>
  <defs
     id="defs4" />
  <path
     inkscape:connector-curvature="0"
     style="fill:#61361d;fill-opacity:1;stroke:#ffffff;stroke-width:0.99990797;stroke-miterlimit:4;stroke-opacity:1;stroke-dasharray:none"
     id="path3797"
     d="m 7.7029008,42.337558 0,-3.162519 -2.212262,0 -2.2122622,0 0,-11.712602 0,-11.712603 L 2.4186474,9.3161754 C 1.945715,5.7776626 1.5456167,2.7964403 1.5293953,2.691235 l -0.029441,-0.1912806 20.1835257,0 20.183442,0 0.259541,0.1212824 c 0.413722,0.1933711 0.602378,0.4387998 0.725903,0.9442079 0.0918,0.3759548 0.0978,0.4688123 0.04931,0.7651264 -0.03025,0.1854834 -0.08402,0.5553051 -0.119469,0.8218239 -0.05092,0.3836956 -0.113875,0.5960858 -0.302042,1.0201694 -0.225873,0.5090013 -0.238526,0.5609097 -0.254754,1.0456734 l -0.01704,0.3537204 0.194972,0.2966363 0.194972,0.1402739 1.946311,0 1.946314,0 0,1.2381183 0,1.2381183 0.0091,0.08467 c -0.123436,0.332592 -0.147525,0.470153 -0.147525,0.843494 l -0.312907,0.915182 -0.515839,1.294363 c -0.597269,1.288737 -0.676429,1.490593 -0.708709,1.807782 -0.04939,0.48487 -0.403506,2.085318 -0.589889,2.666183 -0.08346,0.260052 -0.237236,0.808411 -0.3417,1.218578 -0.197163,0.773869 -0.171371,0.875859 -0.747559,1.730467 -0.137719,0.204242 -0.437568,0.654422 -0.438706,0.88599 0,0.06699 -0.129372,0.530394 -0.478123,1.220866 -0.349731,0.692461 -0.663696,1.381204 -0.700112,1.535951 -0.07754,0.328858 -1.315549,2.596817 -2.25533,4.131687 -0.535385,0.874319 -0.682105,1.166665 -1.212949,2.416225 -0.379416,0.89302 -0.631088,1.556791 -0.677076,1.785295 -0.04031,0.20005 -0.106501,0.512937 -0.147136,0.695296 -0.05602,0.251279 -0.07421,0.668424 -0.075,1.722939 l -8.12e-4,1.235017 0.169839,0.6778 c 0.09337,0.286788 0.216481,0.71492 0.273652,0.951405 0.05719,0.236487 0.136575,0.651939 0.176577,0.732121 0.0618,0.12392 0.07048,0.355141 0.05814,2.42594 l -0.0146,2.280151 -0.163436,0.490389 c -0.08995,0.183715 -0.261326,0.450131 -0.38104,0.592048 -0.119641,0.141907 -0.217526,0.273175 -0.217526,0.291698 0,0.04725 -0.132123,0.179169 -0.180789,0.180556 -0.02215,6.47e-4 -0.0957,0.04601 -0.163339,0.100872 -0.121344,0.09846 -0.30788,0.09976 -14.563896,0.100875 l -14.4410168,0.0011 0,-3.162527 z" />
  <g
     id="g3697"
     transform="matrix(0.08,0,0,0.08,0,-2e-6)">
    <path
       d="m 136.38554,293.01205 314.45783,0 -48.54111,62.82158 -265.91672,-3.18302 0,-59.63856 z"
       id="rect2892"
       style="fill:#ffffff;fill-opacity:1;stroke:none"
       inkscape:connector-curvature="0" />
    <path
       d="m 126.87002,286.68435 1e-5,74.00531 -10.34483,0 0,-74.00531 -20.68966,-0.79576 0.79576,-27.85145 40.58355,0.79575 9.54908,17.50663 21.48541,0 0.79575,10.34483 -42.17507,0 z"
       id="path2895"
       style="fill:#ffffff;fill-opacity:1;stroke:none"
       inkscape:connector-curvature="0" />
    <path
       d="m 252.25464,287.2679 130.50397,-70.82228 c 0,0 13.52787,-0.79575 15.91514,3.18302 2.38726,3.97878 24.66842,46.94961 42.97081,50.92839 19.12628,4.15789 53.31565,13.52785 53.31565,13.52785 0,0 19.8939,14.32361 19.09815,23.07692 -0.79576,8.75332 0,8.75332 0,8.75332"
       id="path3679"
       style="fill:none;stroke:#ffffff;stroke-width:4;stroke-linecap:butt;stroke-linejoin:miter;stroke-miterlimit:4;stroke-opacity:1;stroke-dasharray:none"
       inkscape:connector-curvature="0" />
    <path
       d="m 253.62533,286.06366 -57.61242,0 c 0,0 -10.74523,-37.09322 -13.12378,-47.70095 -3.71048,-16.54776 42.38293,-40.0641 67.32464,-26.67016 26.22629,14.08376 69.65891,32.98757 69.65891,32.98757 0.69698,11.65442 -69.53267,-11.98328 -63.12145,17.10064 7.76423,35.22175 -4.60314,24.2829 -3.1259,24.2829 z"
       id="path3689"
       style="fill:#ffffff;fill-opacity:1;stroke:none"
       inkscape:connector-curvature="0" />
    <path
       d="m 245.09284,204.50928 a 27.055702,27.055702 0 1 1 -54.1114,0 27.055702,27.055702 0 1 1 54.1114,0 z"
       transform="translate(-10,-16)"
       id="path3691"
       style="fill:#ffffff;fill-opacity:1;stroke:none"
       inkscape:connector-curvature="0" />
    <path
       d="m 304.77454,276.52521 a 5.96817,5.96817 0 1 1 -11.93634,0 5.96817,5.96817 0 1 1 11.93634,0 z"
       transform="translate(-8,-6)"
       id="path3693"
       style="fill:#ffffff;fill-opacity:1;stroke:none"
       inkscape:connector-curvature="0" />
  </g>
  <rect
     width="5.8567648"
     height="0.4456234"
     x="15.342175"
     y="22.858448"
     id="rect3695"
     style="fill:#60351d;fill-opacity:1;stroke:none" />
  <text
     xml:space="preserve"
     style="font-size:7px;font-style:normal;font-variant:normal;font-weight:normal;font-stretch:normal;text-align:center;line-height:125%;letter-spacing:0px;word-spacing:0px;writing-mode:lr-tb;text-anchor:middle;fill:#ffffff;fill-opacity:1;stroke:none;font-family:Roadgeek 2005 Series B;-inkscape-font-specification:Roadgeek 2005 Series B"
     x="22"
     y="9"
     id="text3090"
     sodipodi:linespacing="125%"><tspan
       sodipodi:role="line"
       id="tspan3092"
       x="22"
       y="9">MARINE FUEL TAX</tspan></text>
  <text
     xml:space="preserve"
     style="font-size:16px;font-style:normal;font-variant:normal;font-weight:normal;font-stretch:normal;text-align:center;line-height:125%;letter-spacing:0px;word-spacing:0px;writing-mode:lr;text-anchor:middle;fill:#ffffff;fill-opacity:1;stroke:none;font-family:Roadgeek 2005 Series C;-inkscape-font-specification:Roadgeek 2005 Series C"
     x="22"
     y="43"
     id="text3094"
     sodipodi:linespacing="125%"><tspan
       sodipodi:role="line"
       id="tspan3811">%num%</tspan></text>
</svg>
