<?xml version="1.0" encoding="UTF-8" standalone="no"?>
<!-- Created with Inkscape (http://www.inkscape.org/) -->

<svg
   xmlns:dc="http://purl.org/dc/elements/1.1/"
   xmlns:cc="http://creativecommons.org/ns#"
   xmlns:rdf="http://www.w3.org/1999/02/22-rdf-syntax-ns#"
   xmlns:svg="http://www.w3.org/2000/svg"
   xmlns="http://www.w3.org/2000/svg"
   xmlns:sodipodi="http://sodipodi.sourceforge.net/DTD/sodipodi-0.dtd"
   xmlns:inkscape="http://www.inkscape.org/namespaces/inkscape"
   width="48"
   height="48"
   id="svg2"
   sodipodi:version="0.32"
   inkscape:version="0.48.1 r9760"
   version="1.0"
   sodipodi:docname="US:AR_2D.svg">
  <defs
     id="defs4" />
  <sodipodi:namedview
     id="base"
     pagecolor="#ffffff"
     bordercolor="#666666"
     borderopacity="1.0"
     gridtolerance="10000"
     guidetolerance="10"
     objecttolerance="10"
     inkscape:pageopacity="0.0"
     inkscape:pageshadow="2"
     inkscape:zoom="19.916667"
     inkscape:cx="24"
     inkscape:cy="24"
     inkscape:document-units="px"
     inkscape:current-layer="layer1"
     width="750px"
     height="600px"
     inkscape:window-width="1598"
     inkscape:window-height="1182"
     inkscape:window-x="1"
     inkscape:window-y="1"
     showgrid="true"
     inkscape:showpageshadow="false"
     inkscape:window-maximized="0">
    <inkscape:grid
       type="xygrid"
       id="grid3817"
       empspacing="5"
       visible="true"
       enabled="true"
       snapvisiblegridlinesonly="true" />
  </sodipodi:namedview>
  <metadata
     id="metadata7">
    <rdf:RDF>
      <cc:Work
         rdf:about="">
        <dc:format>image/svg+xml</dc:format>
        <dc:type
           rdf:resource="http://purl.org/dc/dcmitype/StillImage" />
      </cc:Work>
    </rdf:RDF>
  </metadata>
  <g
     inkscape:label="Layer 1"
     inkscape:groupmode="layer"
     id="layer1"
     transform="translate(0,-552)">
    <g
       id="g3829">
      <path
         transform="matrix(0.99973628,0,0,0.99986343,0.01239498,0.07675645)"
         d="M 1.90625,554 A 1.0042845,1.0042845 0 0 0 1,555.15625 l 0.03125,0.1875 c -0.0085,-0.0552 0.047171,0.22178 0.09375,0.5625 0.046579,0.34072 0.1080515,0.82038 0.1875,1.40625 0.1588971,1.17174 0.3626563,2.74133 0.59375,4.46875 l 0.84375,6.15625 0,0.125 0,11.3125 0,11.4375 a 1.0042845,1.0042845 0 0 0 1,1 l 2.15625,0 1.15625,0 0,2.09375 0,3.09375 a 1.0042845,1.0042845 0 0 0 1,1 l 14.125,0 c 6.969567,-5.5e-4 10.498834,0.0113 12.3125,0 0.906833,-0.006 1.392699,-0.0158 1.6875,-0.0312 0.147401,-0.008 0.228749,-0.0321 0.375,-0.0625 0.09351,-0.0194 0.197498,-0.0953 0.3125,-0.15625 -0.03923,0.0224 -0.04198,0.0566 -0.25,0.0625 0.492773,-0.0143 0.566169,-0.17503 0.65625,-0.25 0.09008,-0.075 0.138437,-0.12682 0.1875,-0.1875 0.04906,-0.0607 0.108723,-0.1334 0.15625,-0.21875 0.0031,-0.004 -0.0035,-0.0269 0,-0.0312 0.0029,-0.005 -0.0032,-0.0267 0,-0.0312 0.0047,-0.008 0.02517,-0.0195 0.03125,-0.0312 0.04969,-0.0687 0.09375,-0.10409 0.09375,-0.4375 0,-5.7e-4 -0.01716,0.19464 -0.03125,0.25 -0.01409,0.0554 -0.01953,0.0956 -0.03125,0.125 -0.01442,0.0362 -0.02153,0.0437 -0.03125,0.0625 0.02293,-0.0277 0.06603,-0.0297 0.09375,-0.0625 0.230926,-0.27361 0.365777,-0.53859 0.5,-0.8125 a 1.0042845,1.0042845 0 0 0 0.03125,-0.125 l 0.15625,-0.46875 a 1.0042845,1.0042845 0 0 0 0.0625,-0.3125 l 0.03125,-2.21875 c 0.01208,-2.02778 0.104615,-2.28986 -0.15625,-2.8125 -0.0079,-0.0299 -0.02182,-0.0558 -0.03125,-0.0937 -0.03217,-0.1296 -0.06369,-0.31328 -0.09375,-0.4375 -0.05402,-0.22324 -0.1388,-0.6208 -0.25,-0.96875 l 0,-0.0312 -0.15625,-0.53125 0,-1 c 7.42e-4,-1.00538 0.03817,-1.35979 0.0625,-1.46875 0.05864,-0.26267 0.128164,-0.57927 0.15625,-0.71875 -0.0173,0.0859 0.04233,-0.1519 0.15625,-0.4375 0.113917,-0.2856 0.284136,-0.65964 0.46875,-1.09375 0.513509,-1.20746 0.57627,-1.3745 1.09375,-2.21875 0.473231,-0.77206 1.006861,-1.70477 1.4375,-2.5 0.215319,-0.39761 0.417302,-0.76979 0.5625,-1.0625 0.145198,-0.29271 0.217479,-0.3786 0.3125,-0.78125 -0.05501,0.23314 0.06975,-0.0873 0.1875,-0.34375 0.117754,-0.25649 0.271881,-0.60991 0.4375,-0.9375 0.190918,-0.37764 0.316973,-0.68331 0.40625,-0.9375 0.04464,-0.12709 0.06821,-0.24845 0.09375,-0.34375 0.02554,-0.0953 0.0609,-0.0387 0.0625,-0.375 -0.0016,0.33052 -0.03138,0.16939 0.03125,0.0625 0.06263,-0.10689 0.169976,-0.22515 0.25,-0.34375 0.59511,-0.88168 0.663769,-1.29416 0.84375,-2 0.09591,-0.37608 0.277661,-0.95051 0.34375,-1.15625 0.236898,-0.73736 0.520832,-2.09725 0.59375,-2.8125 0.01,-0.0981 -0.01274,-0.0586 0.0625,-0.25 0.07524,-0.19135 0.240388,-0.5293 0.53125,-1.15625 A 1.0042845,1.0042845 0 0 0 45.96875,566.25 L 46.5,564.96875 a 1.0042845,1.0042845 0 0 0 0.03125,-0.0625 l 0.28125,-0.875 a 1.0042845,1.0042845 0 0 0 0.03125,-0.3125 c 0,-0.29938 -0.01323,-0.21202 0.09375,-0.5 A 1.0042845,1.0042845 0 0 0 47,562.875 l 0,-0.0625 0,-1.21875 0,-1.21875 a 1.0042845,1.0042845 0 0 0 -1,-1 l -1.90625,0 -1.21875,0 c 0.0037,-0.0519 -0.03884,-0.0766 0.09375,-0.375 0.192321,-0.43289 0.344709,-0.81852 0.40625,-1.28125 0.04123,-0.31008 0.08225,-0.71098 0.09375,-0.78125 0.04884,-0.29849 0.04122,-0.73217 -0.0625,-1.15625 -0.162899,-0.6661 -0.680997,-1.29699 -1.25,-1.5625 l -0.25,-0.125 A 1.0042845,1.0042845 0 0 0 41.46875,554 L 21.75,554 2,554 a 1.0042845,1.0042845 0 0 0 -0.09375,0 z"
         id="path3827"
         style="fill:#000000;fill-opacity:1"
         inkscape:original="M 2 555 L 2.03125 555.1875 C 2.0470776 555.29025 2.4438727 558.2 2.90625 561.65625 L 3.75 567.9375 L 3.75 579.375 L 3.75 590.8125 L 5.90625 590.8125 L 8.0625 590.8125 L 8.0625 593.90625 L 8.0625 597 L 22.1875 597 C 36.126806 596.9989 36.31886 597.00245 36.4375 596.90625 C 36.503593 596.85265 36.57194 596.81312 36.59375 596.8125 C 36.641362 596.81112 36.75 596.671 36.75 596.625 C 36.75 596.6069 36.851763 596.48235 36.96875 596.34375 C 37.085746 596.20513 37.25585 595.92938 37.34375 595.75 L 37.5 595.28125 L 37.53125 593.0625 C 37.5433 591.03987 37.52913 590.80847 37.46875 590.6875 C 37.429678 590.60917 37.33715 590.19973 37.28125 589.96875 C 37.225354 589.73776 37.12255 589.31139 37.03125 589.03125 L 36.84375 588.375 L 36.84375 587.1875 C 36.84451 586.1575 36.8827 585.74543 36.9375 585.5 C 36.977261 585.32189 37.02315 585.00792 37.0625 584.8125 C 37.107454 584.58932 37.379054 583.93477 37.75 583.0625 C 38.269051 581.84201 38.41405 581.57274 38.9375 580.71875 C 39.85642 579.21957 41.0492 577.0087 41.125 576.6875 C 41.160666 576.53634 41.470555 575.86385 41.8125 575.1875 C 42.15346 574.51308 42.280938 574.03425 42.28125 573.96875 C 42.282337 573.74257 42.584109 573.32454 42.71875 573.125 C 43.28217 572.29027 43.244756 572.19339 43.4375 571.4375 C 43.539661 571.03689 43.69966 570.47275 43.78125 570.21875 C 43.963533 569.65138 44.29547 568.09858 44.34375 567.625 C 44.375343 567.31518 44.447273 567.13376 45.03125 565.875 L 45.5625 564.59375 L 45.84375 563.71875 C 45.84375 563.35408 45.879317 563.19986 46 562.875 L 46 562.8125 L 46 561.59375 L 46 560.375 L 44.09375 560.375 L 42.1875 560.375 L 42 560.25 L 41.8125 559.96875 L 41.8125 559.59375 C 41.828357 559.12026 41.841611 559.0909 42.0625 558.59375 C 42.246533 558.17952 42.32516 557.9685 42.375 557.59375 C 42.409619 557.33341 42.43909 556.96246 42.46875 556.78125 C 42.51611 556.49182 42.52731 556.39846 42.4375 556.03125 C 42.316776 555.5376 42.123294 555.31377 41.71875 555.125 L 41.46875 555 L 21.75 555 L 2 555 z "
         inkscape:radius="1.0041841"
         sodipodi:type="inkscape:offset" />
      <path
         inkscape:connector-curvature="0"
         sodipodi:nodetypes="ccccccccccccssssccccccccccccssssssssssscccsscccssssccc"
         id="path3797"
         d="m 8.0651117,593.91133 0,-3.08898 -2.1630929,0 -2.1630937,0 0,-11.44024 0,-11.44024 -0.8406852,-6.28404 C 2.4358626,558.20158 2.0446042,555.28969 2.0287766,555.18694 L 2,555 l 19.735072,0 19.735073,0 0.253733,0.11844 c 0.404544,0.18877 0.589036,0.4286 0.70976,0.92225 0.08981,0.36721 0.09566,0.45792 0.0483,0.74735 -0.02966,0.18121 -0.08223,0.54237 -0.116849,0.80271 -0.04984,0.37475 -0.111317,0.58221 -0.29535,0.99644 -0.220889,0.49715 -0.233244,0.54787 -0.249101,1.02136 l -0.01676,0.34549 0.190655,0.28974 0.190654,0.13699 1.903052,0 1.90305,0 0,1.20933 0,1.20934 0.0087,0.0827 c -0.120683,0.32486 -0.144213,0.45922 -0.144213,0.82389 l -0.306028,0.89389 -0.50437,1.26427 c -0.583977,1.25876 -0.661347,1.45593 -0.69294,1.76575 -0.04828,0.47358 -0.394528,2.03681 -0.576811,2.60418 -0.08159,0.254 -0.231953,0.78961 -0.334114,1.19022 -0.192744,0.75589 -0.167491,0.85551 -0.730911,1.69024 -0.134641,0.19954 -0.427869,0.6392 -0.428956,0.86538 -3.12e-4,0.0655 -0.126537,0.51807 -0.467497,1.19249 -0.341945,0.67635 -0.648937,1.34908 -0.684603,1.50024 -0.0758,0.3212 -1.286277,2.53641 -2.205197,4.03559 -0.52345,0.85399 -0.666949,1.13955 -1.186,2.36004 -0.370946,0.87227 -0.617098,1.5206 -0.662052,1.74378 -0.03935,0.19542 -0.104108,0.50103 -0.143869,0.67914 -0.0548,0.24543 -0.07254,0.65287 -0.0733,1.68287 l -0.0011,1.2063 0.165999,0.66203 c 0.0913,0.28014 0.211706,0.6983 0.267602,0.92929 0.0559,0.23098 0.133585,0.63676 0.172657,0.71509 0.06038,0.12097 0.06892,0.34689 0.05687,2.36952 l -0.01423,2.22714 -0.159824,0.47899 c -0.0879,0.17938 -0.255543,0.43965 -0.372539,0.57827 -0.116987,0.1386 -0.212716,0.26683 -0.212716,0.28493 0,0.046 -0.1292,0.17502 -0.176812,0.1764 -0.02181,6.2e-4 -0.09357,0.0449 -0.159663,0.0985 -0.11864,0.0962 -0.30106,0.0974 -14.240366,0.0985 L 8.0649179,597 l 0,-3.08898 z"
         style="fill:#ffffff;fill-opacity:1" />
    </g>
    <text
       xml:space="preserve"
       style="font-size:32px;font-style:normal;font-variant:normal;font-weight:normal;font-stretch:normal;text-align:center;line-height:125%;letter-spacing:0px;word-spacing:0px;writing-mode:lr;text-anchor:middle;fill:#000000;fill-opacity:1;stroke:none;font-family:Roadgeek 2005 Series D;-inkscape-font-specification:Roadgeek 2005 Series D"
       x="21"
       y="586"
       id="text3878"
       sodipodi:linespacing="125%"><tspan
         sodipodi:role="line"
         id="tspan3037">%num%</tspan></text>
    <text
       xml:space="preserve"
       style="font-size:10px;font-style:normal;font-variant:normal;font-weight:normal;font-stretch:normal;text-align:start;line-height:125%;letter-spacing:0px;word-spacing:0px;writing-mode:lr-tb;text-anchor:start;fill:#000000;fill-opacity:1;stroke:none;font-family:Roadgeek 2005 Series D;-inkscape-font-specification:Roadgeek 2005 Series D"
       x="35"
       y="569"
       id="text3023"
       sodipodi:linespacing="125%"><tspan
         sodipodi:role="line"
         id="tspan3837"
         x="35"
         y="569">%suf%</tspan></text>
  </g>
</svg>
