<?xml version="1.0" encoding="UTF-8" standalone="no"?>
<!-- Created with Inkscape (http://www.inkscape.org/) -->

<svg
   xmlns:dc="http://purl.org/dc/elements/1.1/"
   xmlns:cc="http://creativecommons.org/ns#"
   xmlns:rdf="http://www.w3.org/1999/02/22-rdf-syntax-ns#"
   xmlns:svg="http://www.w3.org/2000/svg"
   xmlns="http://www.w3.org/2000/svg"
   xmlns:sodipodi="http://sodipodi.sourceforge.net/DTD/sodipodi-0.dtd"
   xmlns:inkscape="http://www.inkscape.org/namespaces/inkscape"
   version="1.0"
   width="58"
   height="48"
   viewBox="0 0 58 47.999999"
   id="Layer_1"
   xml:space="preserve"
   inkscape:version="0.48.1 r9760"
   sodipodi:docname="US:CA_3.svg"><metadata
   id="metadata2932"><rdf:RDF><cc:Work
       rdf:about=""><dc:format>image/svg+xml</dc:format><dc:type
         rdf:resource="http://purl.org/dc/dcmitype/StillImage" /><dc:title></dc:title></cc:Work></rdf:RDF></metadata><sodipodi:namedview
   pagecolor="#ffffff"
   bordercolor="#666666"
   borderopacity="1"
   objecttolerance="10"
   gridtolerance="10000"
   guidetolerance="10"
   inkscape:pageopacity="0"
   inkscape:pageshadow="2"
   inkscape:window-width="1278"
   inkscape:window-height="996"
   id="namedview2930"
   showgrid="true"
   showborder="true"
   inkscape:showpageshadow="false"
   inkscape:zoom="16.895833"
   inkscape:cx="29"
   inkscape:cy="24"
   inkscape:window-x="1"
   inkscape:window-y="27"
   inkscape:window-maximized="0"
   inkscape:current-layer="Layer_1"
   borderlayer="false"><inkscape:grid
     type="xygrid"
     id="grid3090"
     empspacing="5"
     visible="true"
     enabled="true"
     snapvisiblegridlinesonly="true" /></sodipodi:namedview><defs
   id="defs66"><inkscape:perspective
   sodipodi:type="inkscape:persp3d"
   inkscape:vp_x="0 : 200.50049 : 1"
   inkscape:vp_y="0 : 1000 : 0"
   inkscape:vp_z="385 : 200.50049 : 1"
   inkscape:persp3d-origin="192.5 : 133.66699 : 1"
   id="perspective2934" />
	
	
	
</defs>

<g
   id="g5"
   transform="matrix(0.14541903,0,0,0.11468726,1.0068281,1.0051488)">
		<path
   inkscape:connector-curvature="0"
   id="path7"
   style="fill:#ffffff;fill-rule:evenodd"
   d="M 0.5,262.01953 C 0.5,139.25684 81.230957,35.352539 192.5,0.5 c 111.26855,34.852539 192,138.75684 192,261.51953 l 0,63.64258 c 0,29.99316 -21.30371,55.01367 -49.60156,60.75976 l -0.18946,0.0381 -0.1875,0.0371 -0.1875,0.0371 c -45.92285,9.16797 -93.3164,13.9668 -141.83398,13.9668 -48.51855,0 -95.911621,-4.79883 -141.834961,-13.9668 l -0.1875,-0.0371 -0.186523,-0.0371 -0.189942,-0.0381 C 21.803711,380.67578 0.5,355.65527 0.5,325.66211 c 0,-34.24219 0,59.12012 0,-63.64258 z" />
		
			<path
   inkscape:connector-curvature="0"
   id="path9"
   style="fill:none;stroke:#000000;stroke-linecap:round;stroke-linejoin:round;stroke-miterlimit:3.8636899"
   d="M 0.5,262.01953 C 0.5,139.25684 81.230957,35.352539 192.5,0.5 c 111.26855,34.852539 192,138.75684 192,261.51953 l 0,63.64258 c 0,29.99316 -21.30371,55.01367 -49.60156,60.75976 l -0.18946,0.0381 -0.1875,0.0371 -0.1875,0.0371 c -45.92285,9.16797 -93.3164,13.9668 -141.83398,13.9668 -48.51855,0 -95.911621,-4.79883 -141.834961,-13.9668 l -0.1875,-0.0371 -0.186523,-0.0371 -0.189942,-0.0381 C 21.803711,380.67578 0.5,355.65527 0.5,325.66211 c 0,-34.24219 0,59.12012 0,-63.64258 z" />
	</g><g
   id="g11"
   transform="matrix(0.15,0,0,0.1172091,0.12500004,0.46414815)">
		<path
   inkscape:connector-curvature="0"
   id="path13"
   style="fill:#006b54;fill-rule:evenodd"
   d="m 192.5,13.103516 c 104.5498,34.419922 180,132.870604 180,248.916014 l 0,63.64258 c 0,24.17187 -17.16602,44.36523 -39.98242,48.99805 -45.16309,9.01562 -92.30274,13.84082 -140.01758,13.84082 -47.71484,0 -94.329102,-4.71973 -139.491699,-13.73535 C 30.191406,370.13184 12.5,349.83398 12.5,325.66211 l 0,-63.64258 c 0,-116.04541 75.450195,-214.496092 180,-248.916014 z" />
	</g><g
   id="g15"
   transform="matrix(0.11837278,0,0,0.11968668,6.359932,0.00276212)">
		<g
   id="g17">
			<g
   id="g19">
				<path
   inkscape:connector-curvature="0"
   id="path21"
   style="fill:#ffffff;fill-rule:evenodd"
   d="m 80.844238,145.71924 c -0.109863,1.20508 -0.405761,2.36035 -0.887207,3.4668 -0.481445,1.10595 -1.089843,2.12304 -1.826172,3.05029 -0.735839,0.92724 -1.60205,1.75781 -2.598632,2.49219 -0.996094,0.73388 -2.064454,1.33105 -3.20459,1.79199 -1.88086,0.75976 -3.713867,1.08594 -5.498047,0.97803 -1.78418,-0.10791 -3.465332,-0.59766 -5.043945,-1.46827 -1.578125,-0.8706 -3.01709,-2.11279 -4.31543,-3.72656 -1.29834,-1.61377 -2.396973,-3.53271 -3.294922,-5.75586 -0.909668,-2.25146 -1.455078,-4.40137 -1.636231,-6.45019 -0.181152,-2.04883 -0.0039,-3.92725 0.532715,-5.63575 0.536133,-1.70849 1.411621,-3.21435 2.625489,-4.51709 1.214355,-1.30273 2.762207,-2.33447 4.643066,-3.09423 2.308594,-0.93311 4.675293,-1.25098 7.099121,-0.95362 2.424316,0.29688 4.601074,1.23242 6.530273,2.80664 l -3.547363,4.26807 c -0.640625,-0.43701 -1.154297,-0.74365 -1.540039,-0.91895 -0.385742,-0.17578 -0.830078,-0.31152 -1.333008,-0.40673 -0.753906,-0.22559 -1.605957,-0.3042 -2.55664,-0.23487 -0.950196,0.0688 -1.810059,0.25879 -2.57959,0.56934 -1.311035,0.52978 -2.290527,1.26562 -2.937988,2.20654 -0.646973,0.94141 -1.057618,1.97754 -1.230469,3.1084 -0.17334,1.13037 -0.146485,2.30518 0.08057,3.52295 0.227051,1.21777 0.564942,2.38281 1.01416,3.49414 1.266602,3.13525 2.86084,5.31738 4.783203,6.54639 1.922364,1.22949 3.966797,1.40625 6.132325,0.53125 0.655761,-0.26465 1.221191,-0.56787 1.696777,-0.90918 0.475586,-0.34131 0.907715,-0.74805 1.296875,-1.22022 0.389648,-0.47265 0.745605,-1.04736 1.068848,-1.7251 0.323242,-0.67724 0.659668,-1.48486 1.010742,-2.42236 l 5.516113,0.60596 z" />
			</g>
			<g
   id="g23">
				<path
   inkscape:connector-curvature="0"
   id="path25"
   style="fill:#ffffff;fill-rule:evenodd"
   d="m 111.65479,142.41699 -5.04053,-6.07715 -12.87549,3.93653 -0.736328,7.84326 -5.820313,1.7793 3.402344,-33.34473 5.379394,-1.64502 21.379393,25.76855 -5.68847,1.73926 z m -16.129399,-19.32178 -1.098145,11.23292 8.290044,-2.53467 -7.191899,-8.69825 z" />
			</g>
			<g
   id="g27">
				<polygon
   id="polygon29"
   style="fill:#ffffff;fill-rule:evenodd"
   points="144.41,130.949 145.316,135.611 122.64,140.019 122.64,140.019 116.746,109.693 122.177,108.637 127.166,134.301 " />
			</g>
			<g
   id="g31">
				
					<rect
   id="rect33"
   style="fill:#ffffff;fill-rule:evenodd"
   transform="matrix(0.121875,0.992545,-0.992545,0.121875,251.589,-45.3657)"
   y="116.73597"
   x="135.98618"
   height="5.5334282"
   width="30.893383" />
			</g>
			<g
   id="g35">
				<polygon
   id="polygon37"
   style="fill:#ffffff;fill-rule:evenodd"
   points="185.29,106.742 167.857,107.961 167.857,107.961 168.294,114.217 177.908,113.544 178.3,119.156 168.687,119.829 169.626,133.259 164.015,133.652 161.859,102.834 184.904,101.222 " />
			</g>
			<g
   id="g39">
				<path
   inkscape:connector-curvature="0"
   id="path41"
   style="fill:#ffffff;fill-rule:evenodd"
   d="m 217.81641,117.52148 c -0.0859,2.42725 -0.46192,4.62061 -1.12989,6.58155 -0.66894,1.96045 -1.58007,3.62793 -2.73535,5.00244 -1.15429,1.37451 -2.53711,2.42578 -4.14648,3.1543 -1.61035,0.72802 -3.39844,1.05761 -5.36426,0.98925 -2.27344,-0.0796 -4.21582,-0.6167 -5.82617,-1.61084 -1.61035,-0.99414 -2.92676,-2.2705 -3.9502,-3.8291 -1.02148,-1.5581 -1.75195,-3.30615 -2.19238,-5.24365 -0.43994,-1.93799 -0.62598,-3.87451 -0.55811,-5.81006 0.0855,-2.45752 0.46241,-4.65918 1.1294,-6.604 0.66797,-1.94532 1.59473,-3.58936 2.7793,-4.93213 1.18554,-1.34277 2.59765,-2.35449 4.23632,-3.03565 1.63868,-0.68115 3.47071,-0.98584 5.49805,-0.91504 1.90527,0.0664 3.62695,0.51075 5.16797,1.3335 1.53906,0.82275 2.85352,1.94531 3.94141,3.36768 1.08886,1.42187 1.90625,3.11914 2.45312,5.09131 0.5459,1.97216 0.77832,4.12597 0.69727,6.46044 z m -5.53516,-0.0547 c 0.11328,-3.25635 -0.42676,-5.82813 -1.62207,-7.71582 -1.19531,-1.88721 -2.95996,-2.87159 -5.29492,-2.95313 -2.33496,-0.0815 -4.19434,0.77637 -5.58008,2.57373 -1.38574,1.79688 -2.13574,4.32373 -2.24902,7.58008 -0.11524,3.31787 0.45507,5.92188 1.71093,7.81104 1.25782,1.88916 3.05274,2.875 5.3877,2.95654 1.47461,0.0513 2.69141,-0.22901 3.65137,-0.8418 0.95898,-0.6123 1.72558,-1.41601 2.29882,-2.41113 0.57227,-0.99463 0.98829,-2.11084 1.24707,-3.34717 0.25879,-1.23682 0.40918,-2.4541 0.4502,-3.65234 z" />
			</g>
			<g
   id="g43">
				<path
   inkscape:connector-curvature="0"
   id="path45"
   style="fill:#ffffff;fill-rule:evenodd"
   d="m 243.01074,136.4502 -3.24316,-12.70215 -8.17383,-1.14844 -1.6875,12.00879 -5.47949,-0.77002 4.2998,-30.59277 14.0625,1.97607 c 1.12696,0.15869 2.07324,0.38477 2.83985,0.67871 0.76464,0.29395 1.50976,0.73975 2.23242,1.33838 1.34961,0.99658 2.34961,2.27002 3.00195,3.8208 0.65039,1.55029 0.85449,3.19336 0.61133,4.92822 -0.24414,1.73535 -0.89941,3.24951 -1.9668,4.54297 -1.06543,1.29346 -2.45117,2.25488 -4.15332,2.88526 l 3.77442,13.89404 -6.11817,-0.85986 z m 2.9834,-21.23243 c 0.16797,-1.18701 -0.0957,-2.18652 -0.78906,-2.99756 -0.69336,-0.81152 -1.72461,-1.31347 -3.09375,-1.50585 l -8.67578,-1.21924 -1.07227,7.625 8.67578,1.21924 c 1.37012,0.19287 2.49903,0.002 3.38672,-0.57178 0.8877,-0.57373 1.41016,-1.42383 1.56836,-2.54981 z" />
			</g>
			<g
   id="g47">
				<polygon
   id="polygon49"
   style="fill:#ffffff;fill-rule:evenodd"
   points="279.48,144.434 274.827,143.273 274.827,143.273 265.697,119.09 260.555,139.715 255.275,138.399 262.75,108.423 268.029,109.74 276.834,132.939 281.764,113.164 286.953,114.458 " />
			</g>
			<g
   id="g51">
				
					<rect
   id="rect53"
   style="fill:#ffffff;fill-rule:evenodd"
   transform="matrix(-0.309026,0.951054,-0.951054,-0.309026,511.943,-106.179)"
   y="130.11676"
   x="279.09622"
   height="5.532599"
   width="30.893469" />
			</g>
			<g
   id="g55">
				<path
   inkscape:connector-curvature="0"
   id="path57"
   style="fill:#ffffff;fill-rule:evenodd"
   d="m 321.20801,159.22949 -0.0928,-7.89502 -12.48242,-5.04345 -5.50879,5.63183 -5.64355,-2.27978 23.62891,-23.77295 5.21582,2.10742 0.39746,33.47998 -5.51465,-2.22803 z m -0.375,-25.16601 -7.92285,8.03808 8.03711,3.24756 -0.11426,-11.28564 z" />
			</g>
		</g>
	</g>
<text
   xml:space="preserve"
   style="font-size:28px;font-style:normal;font-variant:normal;font-weight:normal;font-stretch:normal;text-align:center;line-height:100%;writing-mode:lr;text-anchor:middle;fill:#ffffff;fill-opacity:1;fill-rule:nonzero;stroke:none;font-family:Roadgeek 2005 Series D;-inkscape-font-specification:Roadgeek 2005 Series D"
   x="29"
   y="41"
   id="routenum"
   sodipodi:linespacing="100%"><tspan
     sodipodi:role="line"
     id="tspan3053">%num%</tspan></text>




</svg>