<?xml version="1.0" encoding="UTF-8" standalone="no"?>
<!-- Created with Inkscape (http://www.inkscape.org/) -->

<svg
   xmlns:dc="http://purl.org/dc/elements/1.1/"
   xmlns:cc="http://creativecommons.org/ns#"
   xmlns:rdf="http://www.w3.org/1999/02/22-rdf-syntax-ns#"
   xmlns:svg="http://www.w3.org/2000/svg"
   xmlns="http://www.w3.org/2000/svg"
   xmlns:sodipodi="http://sodipodi.sourceforge.net/DTD/sodipodi-0.dtd"
   xmlns:inkscape="http://www.inkscape.org/namespaces/inkscape"
   version="1.0"
   width="48"
   height="60"
   id="svg2"
   inkscape:version="0.48.1 r9760"
   sodipodi:docname="US:DC_3.svg">
  <metadata
     id="metadata14">
    <rdf:RDF>
      <cc:Work
         rdf:about="">
        <dc:format>image/svg+xml</dc:format>
        <dc:type
           rdf:resource="http://purl.org/dc/dcmitype/StillImage" />
      </cc:Work>
    </rdf:RDF>
  </metadata>
  <sodipodi:namedview
     pagecolor="#ffffff"
     bordercolor="#666666"
     borderopacity="1"
     objecttolerance="10"
     gridtolerance="10"
     guidetolerance="10"
     inkscape:pageopacity="0"
     inkscape:pageshadow="2"
     inkscape:window-width="1278"
     inkscape:window-height="996"
     id="namedview12"
     showgrid="true"
     inkscape:showpageshadow="false"
     inkscape:zoom="13.516667"
     inkscape:cx="24"
     inkscape:cy="30"
     inkscape:window-x="1"
     inkscape:window-y="27"
     inkscape:window-maximized="0"
     inkscape:current-layer="svg2">
    <inkscape:grid
       type="xygrid"
       id="grid2994"
       empspacing="5"
       visible="true"
       enabled="true"
       snapvisiblegridlinesonly="true" />
  </sodipodi:namedview>
  <defs
     id="defs4" />
  <g
     id="g3015">
    <g
       id="g3011">
      <rect
         width="46"
         height="58"
         rx="2.2258065"
         ry="1.9937726"
         x="1"
         y="1"
         style="fill:#000000;fill-opacity:1;stroke:none"
         id="rect4704" />
      <rect
         width="44"
         height="56"
         rx="1"
         ry="0.99999994"
         x="2"
         y="2"
         style="fill:#ffffff;fill-opacity:1;stroke:none"
         id="rect5591" />
    </g>
    <path
       inkscape:connector-curvature="0"
       id="path2026"
       style="fill:#000000"
       d="M 18.808081,2.003131 2,19.88834 4.7095193,22.85448 c 0.6707419,0.835282 2.7423958,2.929382 2.8979811,2.929382 0.058206,0 0.3012671,0.132733 0.540135,0.294964 0.5270256,0.357936 1.2941406,0.670791 1.9927466,0.812701 1.258725,0.255699 2.723557,0.668284 3.023277,0.851545 0.179258,0.109603 0.396723,0.199276 0.483257,0.199276 0.241796,0 1.018255,0.822853 1.084184,1.14896 l 0.05863,0.290028 1.027956,0 1.027951,0 -0.06889,-0.282656 C 16.546555,28.154076 15.50859,26.794019 14.904214,26.645087 14.741244,26.604937 14.289947,26.442624 13.901333,26.284427 13.512719,26.126223 13.0335,25.96686 12.836397,25.930277 11.940903,25.634939 10.367649,25.315533 10.080214,25.155244 9.1679878,25.017582 7.0836603,22.957269 7.0836603,22.957269 c -0.7883812,-0.94379 -1.660808,-1.8121 -2.4875385,-2.721631 0,0 14.9397612,-15.9069585 14.9397612,-15.9069585 0,0 23.733287,21.5654085 23.733287,21.5654085 L 41.489499,28.13152 43.080727,29.382638 46,25.721034 20.069555,2 18.808081,2.003131 18.192331,57.999996 M 20.180546,57.977683 20.069555,2.000004 M 18.192331,58 l -0.0076,-0.378431 c -0.0041,-0.183725 -0.04655,-0.565319 -0.09418,-0.847983 -0.04763,-0.282655 -0.167025,-1.022712 -0.265323,-1.644557 -0.0799,-0.603786 -0.09869,-0.88756 -0.232157,-1.477646 -0.0722,-0.287145 -0.335819,-1.069847 -0.476284,-1.369483 -0.757218,-1.615268 -0.794599,-1.727857 -0.794599,-2.393129 0,-0.36312 0.04077,-0.766463 0.09061,-0.896321 0.04984,-0.129858 0.14993,-0.421116 0.222435,-0.647244 0.06952,-0.243047 0.278238,-0.457331 0.41634,-0.758005 0.138101,-0.300675 0.205584,-0.687757 0.205681,-0.688452 7.27e-4,7.99e-4 0.225256,4.79e-4 1.142858,4.79e-4 1.141636,0 1.142945,1.6e-5 1.142857,8e-5 -2.41e-4,3.99e-4 -0.153489,0.909844 -0.663934,1.595819 -0.564176,0.758181 -0.678607,1.280911 -0.428686,1.958276 0.09364,0.253805 0.21915,0.623346 0.278905,0.821208 0.05975,0.197862 0.236961,0.616597 0.393792,0.930523 0.181662,0.363639 0.311029,0.829914 0.356466,1.284817 0.03922,0.392721 0.130081,0.941569 0.201904,1.219655 l 0.150407,0.594353 c 0,0 6.706036,-8.401679 6.706036,-8.401679 l 1.54906,1.214943 c 0,0 -7.906383,9.860492 -7.906383,9.860492" />
    <path
       inkscape:connector-curvature="0"
       id="text1874"
       style="font-size:537.30267334px;font-style:normal;font-variant:normal;font-weight:bold;font-stretch:normal;text-align:start;line-height:125%;writing-mode:lr-tb;text-anchor:start;fill:#000000;fill-opacity:1;stroke:none;font-family:USHighwaysOldStyleBCBA"
       d="m 19.953773,18.807422 c -7e-6,0.802693 -0.121147,1.507954 -0.363422,2.11579 -0.242287,0.607836 -0.589831,1.086605 -1.042633,1.436292 -0.151022,0.143083 -0.327793,0.25033 -0.530315,0.321744 -0.202532,0.07142 -0.407059,0.11513 -0.613582,0.131134 l -0.452686,0 -2.430689,0 0,-7.986281 2.573586,0 c 0.198765,8e-6 0.371598,0.006 0.518498,0.01801 0.146892,0.01201 0.27991,0.03389 0.399055,0.06565 0.119136,0.03178 0.226338,0.07549 0.321607,0.131134 0.09526,0.05566 0.198523,0.123141 0.30979,0.202429 0.421048,0.365708 0.744776,0.852471 0.971185,1.460307 0.226398,0.607844 0.339599,1.309103 0.339606,2.103786 l 0,0 z m -1.286793,0 c -5e-6,-0.540296 -0.05764,-1.021062 -0.172894,-1.442298 -0.115266,-0.421221 -0.272161,-0.735145 -0.470684,-0.941766 -0.103268,-0.0953 -0.222408,-0.174716 -0.357422,-0.238263 -0.135023,-0.06352 -0.285918,-0.09529 -0.452687,-0.0953 l -1.429689,0 0,5.435255 1.262795,0 c 0.206523,0 0.379296,-0.02382 0.518317,-0.07148 0.139014,-0.04765 0.264153,-0.127134 0.375421,-0.238447 0.238276,-0.238382 0.418987,-0.566187 0.542132,-0.983414 0.123136,-0.417228 0.184706,-0.891988 0.184711,-1.42429 l 0,0 z" />
    <path
       inkscape:connector-curvature="0"
       id="text1882"
       style="font-size:518.73181152px;font-style:normal;font-variant:normal;font-weight:bold;font-stretch:normal;text-align:start;line-height:125%;writing-mode:lr-tb;text-anchor:start;fill:#000000;fill-opacity:1;stroke:none;font-family:USHighwaysOldStyleBCBA"
       d="m 27.748543,21.109492 c -0.460095,1.135258 -1.234597,1.70289 -2.323507,1.70289 -0.575235,0 -1.050714,-0.111209 -1.426436,-0.333626 -0.375727,-0.222418 -0.686335,-0.571491 -0.931826,-1.047225 -0.176222,-0.345335 -0.314178,-0.748139 -0.413871,-1.208429 -0.0997,-0.460281 -0.149543,-0.932039 -0.149543,-1.415272 0,-0.613634 0.07664,-1.200522 0.229931,-1.760664 0.153283,-0.560134 0.364138,-1.012748 0.632566,-1.357851 0.230043,-0.283985 0.508064,-0.498847 0.834061,-0.644597 0.325994,-0.145734 0.707452,-0.218609 1.14438,-0.218617 0.58295,8e-6 1.06422,0.126615 1.443812,0.379804 0.379581,0.253213 0.699725,0.652104 0.960433,1.196664 l -1.13876,0.483578 c -0.107421,-0.161068 -0.205243,-0.295341 -0.293466,-0.402804 -0.08823,-0.107456 -0.180263,-0.191863 -0.276091,-0.253205 -0.09584,-0.06133 -0.199334,-0.103535 -0.310491,-0.126599 -0.111167,-0.02306 -0.239645,-0.03459 -0.385437,-0.0346 -0.314299,8e-6 -0.576875,0.07287 -0.787726,0.218617 -0.21086,0.145742 -0.381463,0.39128 -0.511811,0.736607 -0.0997,0.230148 -0.174466,0.502488 -0.224313,0.817028 -0.04985,0.314548 -0.07477,0.636762 -0.07477,0.966636 0,0.421891 0.04218,0.826572 0.126549,1.214042 0.08436,0.387478 0.20319,0.703895 0.356477,0.949249 0.138074,0.199474 0.29914,0.349081 0.483202,0.448813 0.184057,0.09974 0.410182,0.149607 0.678379,0.149607 0.260933,0 0.487232,-0.07093 0.678902,-0.212818 0.191661,-0.141876 0.364139,-0.370148 0.517429,-0.684808 l 1.161928,0.437577 0,0 z" />
  </g>
  <text
     xml:space="preserve"
     style="font-size:24px;font-style:normal;font-variant:normal;font-weight:normal;font-stretch:normal;text-align:center;line-height:125%;letter-spacing:0px;word-spacing:0px;writing-mode:lr;text-anchor:middle;fill:#000000;fill-opacity:1;stroke:none;font-family:Roadgeek 2005 Series D;-inkscape-font-specification:Roadgeek 2005 Series D"
     x="24.006172"
     y="45.988171"
     id="text2993"
     sodipodi:linespacing="125%"
     transform="scale(0.99974287,1.0002572)"><tspan
       sodipodi:role="line"
       id="tspan2996">%num%</tspan></text>
</svg>
