<?xml version="1.0" encoding="UTF-8" standalone="no"?>
<!-- Generator: Adobe Illustrator 12.0.0, SVG Export Plug-In . SVG Version: 6.00 Build 51448)  -->

<svg
   xmlns:dc="http://purl.org/dc/elements/1.1/"
   xmlns:cc="http://creativecommons.org/ns#"
   xmlns:rdf="http://www.w3.org/1999/02/22-rdf-syntax-ns#"
   xmlns:svg="http://www.w3.org/2000/svg"
   xmlns="http://www.w3.org/2000/svg"
   xmlns:sodipodi="http://sodipodi.sourceforge.net/DTD/sodipodi-0.dtd"
   xmlns:inkscape="http://www.inkscape.org/namespaces/inkscape"
   version="1.1"
   id="Layer_1"
   width="60"
   height="48"
   viewBox="0 0 60 48"
   overflow="visible"
   enable-background="new 0 0 385 385"
   xml:space="preserve"
   inkscape:version="0.48.1 r9760"
   sodipodi:docname="US:FL_2.svg"
   style="overflow:visible"><metadata
   id="metadata43"><rdf:RDF><cc:Work
       rdf:about=""><dc:format>image/svg+xml</dc:format><dc:type
         rdf:resource="http://purl.org/dc/dcmitype/StillImage" /><dc:title></dc:title></cc:Work></rdf:RDF></metadata><defs
   id="defs41">
	
	
	
	
</defs><sodipodi:namedview
   pagecolor="#ffffff"
   bordercolor="#666666"
   borderopacity="1"
   objecttolerance="10"
   gridtolerance="10"
   guidetolerance="10"
   inkscape:pageopacity="0"
   inkscape:pageshadow="2"
   inkscape:window-width="1278"
   inkscape:window-height="996"
   id="namedview39"
   showgrid="true"
   inkscape:showpageshadow="false"
   inkscape:zoom="16.895833"
   inkscape:cx="30"
   inkscape:cy="24"
   inkscape:window-x="1"
   inkscape:window-y="27"
   inkscape:window-maximized="0"
   inkscape:current-layer="Layer_1"><inkscape:grid
     type="xygrid"
     id="grid3020"
     empspacing="5"
     visible="true"
     enabled="true"
     snapvisiblegridlinesonly="true"
     spacingx="1px"
     spacingy="1px" /></sodipodi:namedview>
<g
   id="g3077"><g
     id="g3067"><g
       id="g19"
       transform="matrix(0.15591398,0,0,0.12365591,-0.0134409,0.19623656)">
		<g
   id="g21">
			<path
   inkscape:connector-curvature="0"
   id="path23"
   d="m 6.5,28.5 c 0,-12.150391 9.849609,-22 22,-22 h 328 c 12.15039,0 22,9.849609 22,22 v 328 c 0,12.15039 -9.84961,22 -22,22 h -328 c -12.150391,0 -22,-9.84961 -22,-22 v -328 l 0,0 z" />
			<path
   inkscape:connector-curvature="0"
   id="path25"
   d="M 192.5,192.5" />
		</g>
	</g><g
       id="g27"
       transform="matrix(0.15730337,0,0,0.12359551,-0.28089882,0.20786517)">
		<g
   id="g29">
			<path
   style="fill:#ffffff"
   inkscape:connector-curvature="0"
   id="path31"
   d="m 14.5,28.5 c 0,-7.731934 6.268066,-14 14,-14 h 328 c 7.73242,0 14,6.268066 14,14 v 328 c 0,7.73242 -6.26758,14 -14,14 h -328 c -7.731934,0 -14,-6.26758 -14,-14 v -328 l 0,0 z" />
			<path
   style="fill:#ffffff"
   inkscape:connector-curvature="0"
   id="path33"
   d="M 192.5,192.5" />
		</g>
	</g></g><g
     transform="matrix(0.12467329,0,0,0.12467447,11.999811,-0.087834)"
     id="g35">
		<polygon
   clip-rule="evenodd"
   points="317.59668,141.85693 290.32715,47.852539 276.73047,47.507812 273.20703,55.545898 133.5249,54.45459 130.70801,44.5 47.450684,44.5 51.203125,66.563477 64.711426,67.67334 69.365234,62.955078 104.85059,71.255371 144.96973,101.76465 190.38184,92.021484 210.87891,103.02539 203.31055,117.12256 187.99219,108.89893 141.13672,118.95166 97.882812,86.057617 74.456543,80.577637 70.853027,84.231445 37.512695,81.492188 28.5,28.5 142.03857,28.5 143.83936,31.240234 145.64307,38.548828 262.78613,39.463867 266.39062,31.240234 302.43262,32.154785 333.97266,140.87842 327.66211,179.25195 336.67578,230.41797 351.0918,258.74023 356.5,287.97656 356.5,323.60938 321.35547,356.5 299.73047,356.5 276.30078,345.53711 283.08203,331.04492 303.28906,340.5 315.03711,340.5 340.5,316.66992 340.5,289.44336 335.78125,263.93164 321.33203,235.54688 311.43262,179.34424 "
   id="polygon37"
   style="fill-rule:evenodd" />
	</g></g>
<text
   xml:space="preserve"
   style="font-size:32px;font-style:normal;font-variant:normal;font-weight:normal;font-stretch:normal;text-align:center;line-height:125%;letter-spacing:0px;word-spacing:0px;writing-mode:lr;text-anchor:middle;fill:#000000;fill-opacity:1;stroke:none;font-family:Roadgeek 2005 Series C;-inkscape-font-specification:Roadgeek 2005 Series C"
   x="27.000435"
   y="38.999371"
   id="text3022"
   sodipodi:linespacing="125%"
   transform="scale(0.9999839,1.0000161)"><tspan
     sodipodi:role="line"
     id="tspan3090">%num%</tspan></text>

</svg>