<?xml version="1.0" encoding="UTF-8" standalone="no"?>
<!-- Created with Inkscape (http://www.inkscape.org/) -->

<svg
   xmlns:dc="http://purl.org/dc/elements/1.1/"
   xmlns:cc="http://creativecommons.org/ns#"
   xmlns:rdf="http://www.w3.org/1999/02/22-rdf-syntax-ns#"
   xmlns:svg="http://www.w3.org/2000/svg"
   xmlns="http://www.w3.org/2000/svg"
   xmlns:sodipodi="http://sodipodi.sourceforge.net/DTD/sodipodi-0.dtd"
   xmlns:inkscape="http://www.inkscape.org/namespaces/inkscape"
   id="svg2"
   version="1.1"
   inkscape:version="0.48.1 r9760"
   width="48"
   height="56"
   sodipodi:docname="US:FL-Turnpike.svg">
  <metadata
     id="metadata8">
    <rdf:RDF>
      <cc:Work
         rdf:about="">
        <dc:format>image/svg+xml</dc:format>
        <dc:type
           rdf:resource="http://purl.org/dc/dcmitype/StillImage" />
        <dc:title />
      </cc:Work>
    </rdf:RDF>
  </metadata>
  <defs
     id="defs6" />
  <sodipodi:namedview
     pagecolor="#ffffff"
     bordercolor="#666666"
     borderopacity="1"
     objecttolerance="10"
     gridtolerance="10"
     guidetolerance="10"
     inkscape:pageopacity="0"
     inkscape:pageshadow="2"
     inkscape:window-width="1278"
     inkscape:window-height="996"
     id="namedview4"
     showgrid="true"
     inkscape:showpageshadow="false"
     inkscape:zoom="14.482143"
     inkscape:cx="24"
     inkscape:cy="28"
     inkscape:window-x="1"
     inkscape:window-y="27"
     inkscape:window-maximized="0"
     inkscape:current-layer="svg2">
    <inkscape:grid
       type="xygrid"
       id="grid2995"
       empspacing="5"
       visible="true"
       enabled="true"
       snapvisiblegridlinesonly="true" />
  </sodipodi:namedview>
  <g
     id="g3016">
    <g
       id="g3011">
      <rect
         style="fill:#006e55;fill-opacity:1;stroke:none"
         id="rect2989"
         width="46"
         height="54"
         x="1"
         y="1"
         ry="9" />
      <rect
         style="fill:#ffffff;fill-opacity:1;stroke:none"
         id="rect3759"
         width="44"
         height="52"
         x="2"
         y="2"
         ry="8" />
      <rect
         style="fill:#006e55;fill-opacity:1;stroke:none"
         id="rect3761"
         width="42"
         height="50"
         x="3"
         y="3"
         ry="7" />
    </g>
    <g
       transform="matrix(0.20689655,0,0,0.20216606,0,-1e-6)"
       id="g3788">
      <path
         style="fill:#ffffff;fill-opacity:1;stroke:none"
         d="M 68.84375,133.78125 71,136.4375 l 0.84375,2.90625 -0.59375,3.125 1.6875,1.34375 0.84375,-3.03125 2.28125,-0.59375 2.3125,0.34375 0.34375,2.0625 5.21875,0.375 1.0625,-1.6875 2.78125,-0.75 2.78125,0.625 2.1875,2.15625 1.9375,2.1875 2.53125,-0.59375 2.53125,-0.5 1.5625,1.5625 c 0,0 2.41898,2.92167 2.78125,4.25 0.36227,1.32833 2.16049,2.52122 2.28125,3.125 0.12076,0.60379 1.46875,2.1875 1.46875,2.1875 l 2.28125,-0.125 c 0,0 3.62344,-0.25 4.46875,-0.25 0.8453,0 3.02121,-1.07523 3.625,-1.4375 0.60379,-0.36228 2.04398,-3.27545 2.40625,-4 0.36227,-0.72454 2.78125,-1.5625 2.78125,-1.5625 0,0 3.50269,0.12924 4.46875,0.25 0.96606,0.12076 3.13349,1.67322 3.375,2.15625 0.24152,0.48303 9.5625,9.53125 9.5625,9.53125 l 2.875,5.21875 c 0,0 3.16743,1.32947 4.375,1.8125 1.20757,0.48303 2.16049,1.18171 2.28125,1.90625 0.12076,0.72455 1.5625,3.5 1.5625,3.5 l 0,5.4375 c 0,0 -0.34375,3.49845 -0.34375,4.34375 0,0.8453 -1.59375,3.28125 -1.59375,3.28125 0,0 -0.95447,3.48996 -1.4375,4.09375 -0.48303,0.60378 0,1.45447 0,1.9375 0,0.48302 1.34375,1.4375 1.34375,1.4375 l 1.78125,-0.34375 -0.0937,-2.4375 c 0,0 -0.75,-1.07947 -0.75,-1.5625 0,-0.48303 1.46875,-0.96875 1.46875,-0.96875 l 2.78125,0.84375 2.65625,1.6875 0.125,2.0625 -1.59375,2.0625 c 0,0 -1.31944,1.81095 -2.40625,2.65625 -1.08682,0.8453 -0.125,2.78125 -0.125,2.78125 l 1.9375,5.1875 1.9375,2.40625 c 0,0 1.69174,0.35803 1.8125,-0.125 0.12076,-0.48303 2.40625,-1.8125 2.40625,-1.8125 l 1.5625,0.96875 0.25,2.53125 -0.46875,3.03125 1.1875,0.84375 1.09375,-2.0625 c 0,0 1.6875,1.11072 1.6875,1.59375 0,0.48303 0.59799,3.24421 0.71875,3.96875 0.12076,0.72455 0.37924,5.67746 0.5,6.28125 0.12076,0.60379 1.8125,2.40625 1.8125,2.40625 0,0 3.98572,1.82099 4.46875,2.0625 0.48303,0.24152 4.22724,3.61072 4.46875,4.09375 0.24152,0.48303 2.41473,3.99844 2.65625,4.84375 0.24151,0.8453 0.84799,2.76697 0.96875,3.25 0.12075,0.48303 3.4942,1.21875 4.21875,1.21875 0.72454,0 4.46875,-1.09375 4.46875,-1.09375 0,0 2.87924,-3.36072 3,-3.84375 0.12076,-0.48303 0.5,-4.125 0.5,-4.125 L 196,228.6875 l 2.15625,-3 0,-14.125 -0.71875,-4.71875 -4.21875,-8.5625 -9.3125,-16.3125 -2.65625,-6.28125 0.125,-1.9375 0.96875,-1.6875 -1.21875,-3.375 -7.34375,-11 c 0,0 -3.50848,-11.5922 -3.75,-12.4375 -0.24151,-0.84531 -1.348,-6.99845 -1.46875,-7.84375 -0.12076,-0.8453 -6.15625,-0.25 -6.15625,-0.25 l 0,3.75 -0.71875,2.28125 -1.5625,1.21875 -1.6875,0.125 -2.0625,-1.34375 -0.59375,-2.65625 -44.5625,-0.84375 c 0,0 -1.4375,-1.42322 -1.4375,-1.90625 0,-0.48303 -0.25,-3.875 -0.25,-3.875 l -40.6875,-0.125 z m 116.875,67.75 1.6875,1.09375 0.84375,2.53125 0.625,2.78125 c 0,0 -0.25424,1.30246 -0.375,1.90625 -0.12075,0.60379 -0.84375,1.8125 -0.84375,1.8125 l -1.8125,0.5 -2.53125,-1.21875 -2.78125,-1.09375 -1.09375,-2.40625 0.125,-2.53125 1.8125,-1.6875 2.65625,-1.34375 1.6875,-0.34375 z"
         id="path3781"
         inkscape:connector-curvature="0" />
      <path
         style="fill:none;stroke:#006e55;stroke-width:1.5;stroke-linecap:butt;stroke-linejoin:miter;stroke-miterlimit:4;stroke-opacity:1;stroke-dasharray:none"
         d="m 160.72816,172.06178 1.08682,4.95105 2.17363,4.70954 3.38121,2.89818 6.64166,4.34727 7.24545,3.86424 4.8303,3.62272 4.10575,4.10576 3.26045,5.31332 1.44909,4.34727 -0.72455,5.07181 -0.96606,6.27939 c 0,0 0.36228,4.34727 -0.24151,4.70954 -0.60379,0.36227 -2.77742,2.05288 -2.77742,2.05288 l -0.72455,1.81136 -0.60378,3.26045 0,0"
         id="path3783"
         inkscape:connector-curvature="0" />
    </g>
  </g>
  <text
     xml:space="preserve"
     style="font-size:10.00000002px;font-style:normal;font-variant:normal;font-weight:normal;font-stretch:normal;text-align:center;line-height:125%;letter-spacing:0px;word-spacing:0px;writing-mode:lr;text-anchor:middle;fill:#ffffff;fill-opacity:1;stroke:none;font-family:Roadgeek 2005 Series C;-inkscape-font-specification:Roadgeek 2005 Series C"
     x="23.724047"
     y="14.162846"
     id="text3773"
     sodipodi:linespacing="125%"
     transform="scale(1.0116318,0.98850194)"><tspan
       sodipodi:role="line"
       id="tspan3775"
       x="23.724047"
       y="14.162846">FLORIDA'S</tspan></text>
  <text
     xml:space="preserve"
     style="font-size:10.00000002px;font-style:normal;font-variant:normal;font-weight:normal;font-stretch:normal;text-align:center;line-height:125%;letter-spacing:0px;word-spacing:0px;writing-mode:lr;text-anchor:middle;fill:#ffffff;fill-opacity:1;stroke:none;font-family:Roadgeek 2005 Series C;-inkscape-font-specification:Roadgeek 2005 Series C"
     x="23.724047"
     y="24.279163"
     id="text3777"
     sodipodi:linespacing="125%"
     transform="scale(1.0116318,0.98850194)"><tspan
       sodipodi:role="line"
       id="tspan3779"
       x="23.724047"
       y="24.279163">TURNPIKE</tspan></text>
</svg>
