<?xml version="1.0" encoding="UTF-8" standalone="no"?>
<!-- Generator: Adobe Illustrator 12.0.0, SVG Export Plug-In . SVG Version: 6.00 Build 51448)  -->

<svg
   xmlns:dc="http://purl.org/dc/elements/1.1/"
   xmlns:cc="http://creativecommons.org/ns#"
   xmlns:rdf="http://www.w3.org/1999/02/22-rdf-syntax-ns#"
   xmlns:svg="http://www.w3.org/2000/svg"
   xmlns="http://www.w3.org/2000/svg"
   xmlns:sodipodi="http://sodipodi.sourceforge.net/DTD/sodipodi-0.dtd"
   xmlns:inkscape="http://www.inkscape.org/namespaces/inkscape"
   version="1.1"
   id="Layer_1"
   width="48"
   height="60"
   viewBox="0 0 48 60"
   overflow="visible"
   enable-background="new 0 0 385.0009766 481"
   xml:space="preserve"
   inkscape:version="0.48.1 r9760"
   sodipodi:docname="US:FL:Toll.svg"
   style="overflow:visible"><metadata
   id="metadata49"><rdf:RDF><cc:Work
       rdf:about=""><dc:format>image/svg+xml</dc:format><dc:type
         rdf:resource="http://purl.org/dc/dcmitype/StillImage" /></cc:Work></rdf:RDF></metadata><defs
   id="defs47">
	
	
	
	
	
	
</defs><sodipodi:namedview
   pagecolor="#ffffff"
   bordercolor="#666666"
   borderopacity="1"
   objecttolerance="10"
   gridtolerance="10"
   guidetolerance="10"
   inkscape:pageopacity="0"
   inkscape:pageshadow="2"
   inkscape:window-width="1278"
   inkscape:window-height="996"
   id="namedview45"
   showgrid="true"
   inkscape:showpageshadow="false"
   inkscape:zoom="13.516667"
   inkscape:cx="24"
   inkscape:cy="30"
   inkscape:window-x="1"
   inkscape:window-y="27"
   inkscape:window-maximized="0"
   inkscape:current-layer="Layer_1"><inkscape:grid
     type="xygrid"
     id="grid3026"
     empspacing="5"
     visible="true"
     enabled="true"
     snapvisiblegridlinesonly="true"
     spacingx="1px"
     spacingy="1px" /></sodipodi:namedview>
<g
   id="g3044"><g
     id="g3027"><g
       id="g11"
       transform="matrix(0.12365608,0,0,0.12393162,0.19617513,0.19444444)">
		<path
   style="fill-rule:evenodd"
   inkscape:connector-curvature="0"
   id="path13"
   d="m 6.5004883,24.5 c 0,-9.941406 8.0585937,-18 17.9999997,-18 H 360.5 c 9.94141,0 18,8.058594 18,18 v 264 c 0,102.72656 -83.27344,186 -186,186 -102.725586,0 -185.9995117,-83.27344 -185.9995117,-186 0,-102.72656 0,-264 0,-264 z"
   clip-rule="evenodd" />
	</g><g
       id="g15"
       transform="matrix(0.12359568,0,0,0.12429379,0.20780239,0.01694916)">
		<path
   style="fill:#ffffff"
   inkscape:connector-curvature="0"
   id="path17"
   d="M 14.500488,112.5 H 370.5 v 176 c 0,98.30762 -79.69141,178 -178,178 -98.307617,0 -177.999512,-79.69238 -177.999512,-178 v -176 z" />
	</g><g
       id="g19"
       transform="matrix(0.12359568,0,0,0.12222222,0.20780239,0.22777778)">
		<path
   style="fill:#006b54"
   inkscape:connector-curvature="0"
   id="path21"
   d="m 14.500488,24.5 c 0,-5.522461 4.477051,-10 10,-10 H 360.5 c 5.52344,0 10,4.477539 10,10 v 80 H 14.500488 v -80 z" />
	</g><g
       id="g23"
       transform="matrix(0.12467297,0,0,0.12473977,1.6351473e-4,4.3141916e-5)">
		<g
   id="g25">
			<polygon
   style="fill:#ffffff;fill-rule:evenodd"
   id="polygon27"
   points="89.522949,90.391602 78.717773,90.391602 78.717773,39.413574 60.893555,39.413574 60.893555,28.515625 107.34668,28.515625 107.34668,39.413574 89.522949,39.413574 "
   clip-rule="evenodd" />
		</g>
		<g
   id="g29">
			<path
   style="fill:#ffffff;fill-rule:evenodd"
   inkscape:connector-curvature="0"
   id="path31"
   d="m 180.72461,59.176758 c 0,9.666015 -2.32422,17.469726 -6.97266,23.411133 C 169.10352,88.529297 162.90039,91.5 155.14258,91.5 c -8.4961,0 -15.14551,-3.416992 -19.94776,-10.250977 -4.18652,-5.910644 -6.27978,-13.206054 -6.27978,-21.887695 0,-9.850586 2.33935,-17.623535 7.01855,-23.318359 C 140.61279,30.347656 147.01562,27.5 155.14258,27.5 c 7.63476,0 13.80664,2.90918 18.5166,8.727539 4.70996,5.81836 7.06543,13.467773 7.06543,22.949219 z m -10.99024,0.18457 c 0,-6.525879 -1.27734,-11.63623 -3.83251,-15.330566 -2.55518,-3.693848 -6.14112,-5.540528 -10.75928,-5.540528 -4.67871,0 -8.34229,1.84668 -10.98975,5.540528 -2.64746,3.694336 -3.97119,8.804687 -3.97119,15.330566 0,6.587891 1.32373,11.744141 3.97119,15.469238 2.64746,3.725098 6.31104,5.587403 10.98975,5.587403 5.29492,0 9.17383,-2.309082 11.63672,-6.926758 1.97021,-3.632324 2.95507,-8.342285 2.95507,-14.129883 z"
   clip-rule="evenodd" />
		</g>
		<g
   id="g33">
			<polygon
   style="fill:#ffffff;fill-rule:evenodd"
   id="polygon35"
   points="207.99512,28.515625 219.07715,28.515625 219.07715,80.879883 254.1709,80.879883 254.1709,90.391602 207.99512,90.391602 "
   clip-rule="evenodd" />
		</g>
		<g
   id="g37">
			<polygon
   style="fill:#ffffff;fill-rule:evenodd"
   id="polygon39"
   points="277.93164,28.515625 289.01367,28.515625 289.01367,80.879883 324.10742,80.879883 324.10742,90.391602 277.93164,90.391602 "
   clip-rule="evenodd" />
		</g>
	</g></g><g
     transform="matrix(0.12467297,0,0,0.12473977,1.6351473e-4,4.3141916e-5)"
     id="g41">
		<polygon
   clip-rule="evenodd"
   points="315.23242,367.46973 315.23242,344.8916 311.31836,323.73633 299.33691,300.19727 291.12695,253.59082 296.23926,222.50293 273.625,144.54883 262.34961,144.2627 259.42773,150.92822 143.59424,150.02344 141.25879,141.76855 72.21582,141.76855 75.327148,160.06445 86.529297,160.98486 90.388672,157.07227 119.81592,163.95605 153.08496,189.25635 190.74414,181.17676 207.74121,190.30176 201.46582,201.9917 188.76221,195.17188 149.90625,203.50879 114.03711,176.23047 94.61084,171.68652 91.62207,174.7168 63.974121,172.44482 56.500488,128.5 150.6543,128.5 152.14746,130.77246 153.64355,136.83301 250.78711,137.5918 253.77539,130.77246 283.66406,131.53076 309.81934,221.69141 304.58691,253.51367 312.06055,295.94434 324.01562,319.43066 328.5,343.6748 328.5,373.22461 299.35645,400.5 281.42285,400.5 261.99414,391.4082 267.61719,379.39062 284.37402,387.23145 294.11621,387.23145 "
   id="polygon43"
   style="fill-rule:evenodd" />
	</g></g>
<text
   xml:space="preserve"
   style="font-size:28px;font-style:normal;font-variant:normal;font-weight:normal;font-stretch:normal;text-align:center;line-height:125%;letter-spacing:0px;word-spacing:0px;writing-mode:lr;text-anchor:middle;fill:#000000;fill-opacity:1;stroke:none;font-family:Roadgeek 2005 Series B;-inkscape-font-specification:Roadgeek 2005 Series B"
   x="19.993052"
   y="45.015636"
   id="text3028"
   sodipodi:linespacing="125%"
   transform="scale(1.0003475,0.99965262)"><tspan
     sodipodi:role="line"
     id="tspan3064">%num%</tspan></text>

</svg>