<?xml version="1.0" encoding="UTF-8" standalone="no"?>
<!-- Created with Inkscape (http://www.inkscape.org/) -->

<svg
   xmlns:dc="http://purl.org/dc/elements/1.1/"
   xmlns:cc="http://creativecommons.org/ns#"
   xmlns:rdf="http://www.w3.org/1999/02/22-rdf-syntax-ns#"
   xmlns:svg="http://www.w3.org/2000/svg"
   xmlns="http://www.w3.org/2000/svg"
   xmlns:sodipodi="http://sodipodi.sourceforge.net/DTD/sodipodi-0.dtd"
   xmlns:inkscape="http://www.inkscape.org/namespaces/inkscape"
   version="1.0"
   width="48"
   height="48"
   id="svg3978"
   inkscape:version="0.48.1 r9760"
   sodipodi:docname="US:GA_1.5.svg">
  <metadata
     id="metadata10">
    <rdf:RDF>
      <cc:Work
         rdf:about="">
        <dc:format>image/svg+xml</dc:format>
        <dc:type
           rdf:resource="http://purl.org/dc/dcmitype/StillImage" />
        <dc:title />
      </cc:Work>
    </rdf:RDF>
  </metadata>
  <sodipodi:namedview
     pagecolor="#ffffff"
     bordercolor="#666666"
     borderopacity="1"
     objecttolerance="10"
     gridtolerance="10"
     guidetolerance="10"
     inkscape:pageopacity="0"
     inkscape:pageshadow="2"
     inkscape:window-width="1278"
     inkscape:window-height="996"
     id="namedview8"
     showgrid="true"
     inkscape:zoom="16.895833"
     inkscape:cx="24"
     inkscape:cy="24"
     inkscape:window-x="1"
     inkscape:window-y="27"
     inkscape:window-maximized="0"
     inkscape:current-layer="svg3978"
     inkscape:showpageshadow="false">
    <inkscape:grid
       type="xygrid"
       id="grid2987"
       empspacing="5"
       visible="true"
       enabled="true"
       snapvisiblegridlinesonly="true"
       spacingx="1px"
       spacingy="1px" />
  </sodipodi:namedview>
  <defs
     id="defs3980" />
  <g
     transform="matrix(0.07995081,0,0,0.07995081,0.01452722,8.0098787)"
     id="layer3" />
  <g
     id="g3764">
    <path
       transform="matrix(1.0020721,0,0,1.0027174,-0.04138796,-0.06534849)"
       d="m 30.84375,1.0625 c 0,0 -18.14869,-0.00484 -28.84375,0.09375 A 0.94764589,0.94764589 0 0 0 1.0625,2.3125 c 0.032357,0.1448549 0.2282702,1.536978 0.40625,3.28125 0.1779798,1.744272 0.3853005,3.9556005 0.59375,6.21875 0.416899,4.526299 0.8297151,9.198598 0.96875,10.59375 0.076411,0.766753 0.4120523,1.331593 0.65625,1.96875 0.1220989,0.318578 0.2047801,0.614252 0.25,0.8125 0.04522,0.198248 -0.042419,0.289694 0.09375,0.03125 a 0.94764589,0.94764589 0 0 0 -0.0625,0.1875 c -1.1325382,4.217775 -0.1616981,8.381733 0.125,9.65625 -0.861138,4.660133 0.46875,8.625 0.46875,8.625 a 0.94764589,0.94764589 0 0 0 0.09375,0.15625 L 5.125,44.65625 A 0.94764589,0.94764589 0 0 0 5.9375,45.125 c 0,0 6.363267,-0.02353 12.9375,-0.0625 3.287116,-0.01949 6.633869,-0.04195 9.25,-0.0625 2.616131,-0.02055 4.450633,-0.04324 4.9375,-0.0625 0.28208,-0.01116 0.359367,0.02463 0.46875,0.03125 0.0078,0.1361 -0.01818,0.291831 0.28125,0.78125 0.278372,0.455005 0.686751,0.815478 1.125,1 0.438249,0.184522 0.84669,0.189703 1.21875,0.1875 1.055739,-0.0059 1.788719,-0.702573 2.15625,-1.25 0.271159,-0.40389 0.296336,-0.543962 0.3125,-0.65625 0.06652,-0.0056 0.04594,-0.03465 0.1875,-0.03125 0.760985,0.01691 1.40807,-0.348709 1.90625,-0.84375 0.49818,-0.495041 0.902369,-1.12364 1.25,-1.84375 0.695262,-1.440221 1.174277,-3.259339 1.34375,-5.03125 0.56329,-5.128168 1.6856,-8.447758 3.53125,-13.625 a 0.94764589,0.94764589 0 0 0 0,-0.0625 c 0.248851,-0.923197 0.0054,-1.850923 -0.40625,-2.71875 -0.411648,-0.867827 -1.016297,-1.721102 -1.71875,-2.5625 -1.371094,-1.642297 -3.086388,-3.215573 -4.4375,-4.4375 -0.006,-0.0075 -0.02527,0.0075 -0.03125,0 -0.03586,-0.04484 -0.05834,-0.05056 -0.09375,-0.09375 -0.79667,-0.971738 -1.501514,-1.595144 -2.09375,-2.125 C 37.439556,11.09892 36.894046,10.562448 36.15625,9.4375 A 0.94764589,0.94764589 0 0 0 36.125,9.40625 C 35.310021,8.3158763 34.97483,7.6848769 34.6875,7.21875 34.40017,6.7526231 33.963289,6.2634244 33.40625,6.0625 a 0.94764589,0.94764589 0 0 0 -0.0625,0 C 32.994503,5.9682981 32.849147,5.9208195 32.625,5.90625 32.400853,5.8916805 32.309607,5.9030801 31.78125,5.875 c -0.303867,-0.01615 -0.324546,-0.043701 -0.3125,-0.03125 0.01205,0.012451 -0.194228,-0.2345772 0.03125,-1.375 0.06315,-0.3194647 0.09406,-0.8128632 0.15625,-1.34375 0.06219,-0.5308868 0.125,-1.03125 0.125,-1.03125 A 0.94764589,0.94764589 0 0 0 30.84375,1.0625 z"
       id="path3762"
       style="fill:#000000;fill-opacity:1;fill-rule:evenodd;stroke:none"
       inkscape:original="M 30.84375 2 C 30.84375 2 12.684884 1.995255 2 2.09375 C 2.3272117 3.5586007 3.6958304 19.573876 3.96875 22.3125 C 4.0431616 23.059187 5.1869091 25.064257 4.875 25.65625 C 3.7981343 29.666691 4.7940136 33.790351 5.0625 35 C 4.1555003 39.496334 5.46875 43.375 5.46875 43.375 L 5.9375 44.1875 C 5.9375 44.1875 31.432443 44.06326 33.03125 44 C 34.791773 43.930356 34.019619 44.260497 34.625 45.25 C 35.024297 45.90266 35.514547 46.0038 36.15625 46 C 36.826386 45.996233 37.243528 45.584804 37.53125 45.15625 C 38.024573 44.421449 37.53625 44.03106 38.84375 44.0625 C 40.536698 44.10012 42.057165 40.510588 42.375 37.1875 C 42.94825 31.968653 44.088748 28.529693 45.9375 23.34375 C 46.590242 20.922185 42.252969 16.928589 39.53125 14.46875 C 37.939664 12.470424 36.94414 12.361282 35.375 9.96875 C 33.69167 7.7165959 33.825335 7.2326333 33.09375 6.96875 C 32.376869 6.7753869 32.816762 6.870855 31.71875 6.8125 C 31.292499 6.7898449 30.055202 6.8470605 30.5625 4.28125 C 30.631369 3.9328743 30.84375 2 30.84375 2 z "
       inkscape:radius="0.94755113"
       sodipodi:type="inkscape:offset" />
    <path
       d="m 5.4768223,43.370945 c 0,0 -1.3083822,-3.859286 -0.4013825,-8.35562 C 4.8069534,33.805676 3.7988156,29.676149 4.8756813,25.665708 5.1875904,25.073715 4.0300249,23.057182 3.9556133,22.310495 3.6826937,19.571871 2.3272117,3.5445236 2,2.0796729 c 10.684884,-0.098495 28.847414,-0.077877 28.847414,-0.077877 0,0 -0.212895,1.9171854 -0.281764,2.2655611 -0.507298,2.5658105 0.742137,2.5105355 1.168388,2.5331906 1.098012,0.058355 0.635428,-0.00994 1.352309,0.1834231 0.731585,0.2638833 0.592343,0.7382523 2.275673,2.9904064 1.56914,2.3925319 2.566382,2.4857279 4.157968,4.4840539 2.721719,2.459839 7.066841,6.450871 6.414099,8.872436 -1.848752,5.185943 -2.999068,8.636174 -3.572318,13.855021 -0.317835,3.323088 -1.839356,6.907866 -3.532304,6.870246 -1.3075,-0.03144 -0.79002,0.369467 -1.283343,1.104268 -0.287722,0.428554 -0.721701,0.835728 -1.391837,0.839495 -0.641703,0.0038 -1.133512,-0.09236 -1.532809,-0.74502 -0.605381,-0.989503 0.182676,-1.325954 -1.577847,-1.25631 -1.598807,0.06326 -27.1186295,0.203345 -27.1186295,0.203345"
       id="path1356"
       style="fill:#ffffff;fill-opacity:1;fill-rule:evenodd;stroke:none"
       inkscape:connector-curvature="0" />
  </g>
  <text
     xml:space="preserve"
     style="font-size:32px;font-style:normal;font-variant:normal;font-weight:normal;font-stretch:normal;text-align:center;line-height:125%;letter-spacing:0px;word-spacing:0px;writing-mode:lr;text-anchor:middle;fill:#000000;fill-opacity:1;stroke:none;font-family:Roadgeek 2005 Series D;-inkscape-font-specification:Roadgeek 2005 Series D"
     x="23"
     y="38"
     id="text2995"
     sodipodi:linespacing="125%"><tspan
       sodipodi:role="line"
       id="tspan3047">%num%</tspan></text>
  <text
     xml:space="preserve"
     style="font-size:8px;font-style:normal;font-variant:normal;font-weight:normal;font-stretch:normal;text-align:center;line-height:125%;letter-spacing:0px;word-spacing:0px;writing-mode:lr;text-anchor:middle;fill:#000000;fill-opacity:1;stroke:none;font-family:Roadgeek 2005 Series D;-inkscape-font-specification:Roadgeek 2005 Series D"
     x="16"
     y="10"
     id="text3068"
     sodipodi:linespacing="125%"><tspan
       sodipodi:role="line"
       id="tspan2990">%mod%</tspan></text>
</svg>
