<?xml version="1.0" encoding="UTF-8" standalone="no"?>
<!-- Created with Inkscape (http://www.inkscape.org/) -->

<svg
   xmlns:dc="http://purl.org/dc/elements/1.1/"
   xmlns:cc="http://creativecommons.org/ns#"
   xmlns:rdf="http://www.w3.org/1999/02/22-rdf-syntax-ns#"
   xmlns:svg="http://www.w3.org/2000/svg"
   xmlns="http://www.w3.org/2000/svg"
   xmlns:sodipodi="http://sodipodi.sourceforge.net/DTD/sodipodi-0.dtd"
   xmlns:inkscape="http://www.inkscape.org/namespaces/inkscape"
   version="1.0"
   width="48"
   height="48"
   id="svg2"
   inkscape:version="0.48.1 r9760"
   sodipodi:docname="US:HI_2.svg">
  <metadata
     id="metadata10">
    <rdf:RDF>
      <cc:Work
         rdf:about="">
        <dc:format>image/svg+xml</dc:format>
        <dc:type
           rdf:resource="http://purl.org/dc/dcmitype/StillImage" />
      </cc:Work>
    </rdf:RDF>
  </metadata>
  <sodipodi:namedview
     pagecolor="#ffffff"
     bordercolor="#666666"
     borderopacity="1"
     objecttolerance="10"
     gridtolerance="10"
     guidetolerance="10"
     inkscape:pageopacity="0"
     inkscape:pageshadow="2"
     inkscape:window-width="1278"
     inkscape:window-height="996"
     id="namedview8"
     showgrid="true"
     inkscape:showpageshadow="false"
     inkscape:zoom="16.895833"
     inkscape:cx="24"
     inkscape:cy="24"
     inkscape:window-x="1"
     inkscape:window-y="27"
     inkscape:window-maximized="0"
     inkscape:current-layer="svg2">
    <inkscape:grid
       type="xygrid"
       id="grid2990"
       empspacing="5"
       visible="true"
       enabled="true"
       snapvisiblegridlinesonly="true" />
  </sodipodi:namedview>
  <defs
     id="defs4" />
  <g
     id="g3001">
    <path
       transform="matrix(0.99819054,0,0,0.99729142,0.03457454,0.06767867)"
       d="M 24.125,0.9375 C 21.488265,0.89382071 18.984796,2.0811338 17.25,4.0625 L 17.21875,4.03125 c -0.06487,0.048998 -0.0929,0.106322 -0.15625,0.15625 -1.71057,1.3480562 -2.902765,3.0094587 -4.21875,4.21875 a 1.0671009,1.0671009 0 0 0 -0.125,0.15625 c -1.418541,1.896474 -3.062359,3.765997 -4.375,5.96875 -0.035462,0.05951 -0.090022,0.09623 -0.125,0.15625 -1.3044585,1.636845 -1.9063723,3.428112 -2.8125,4.78125 a 1.0671009,1.0671009 0 0 0 -0.0625,0.0625 C 4.366188,21.250505 3.6925985,23.068037 2.875,24.625 A 1.0671009,1.0671009 0 0 0 2.8125,24.78125 C 2.0826886,26.961761 0.81341107,29.381116 1,32.25 c 9.9e-5,0.0015 -0.0313499,-0.0015 -0.03125,0 -8.986e-4,0.04168 5.7266e-4,0.08332 0,0.125 -0.0297131,2.16245 0.3590407,4.319055 1.34375,6.28125 a 1.0671009,1.0671009 0 0 0 0.03125,0.0625 c 1.8186579,3.213029 4.8634662,5.79942 8.625,6.59375 l 0,0.03125 c 0.01936,0.0056 0.04312,-0.0055 0.0625,0 2.611752,0.747141 5.330095,1.327678 8.15625,1.40625 l 0,0.03125 c 0.0523,0.0014 0.103887,-0.0011 0.15625,0 2.432976,0.415714 4.86869,0.295518 7.1875,0.09375 a 1.0671009,1.0671009 0 0 0 0.03125,0 c 2.096408,-0.222787 4.210813,-0.472192 6.34375,-0.9375 a 1.0671009,1.0671009 0 0 0 0.03125,0 c 2.003297,-0.457471 4.048965,-1.028493 6.03125,-1.875 a 1.0671009,1.0671009 0 0 0 0.03125,0 c 2.887793,-1.325825 5.139748,-3.715291 6.625,-6.375 a 1.0671009,1.0671009 0 0 0 0.0625,-0.125 c 0.775219,-1.878286 1.490718,-3.985732 1.34375,-6.28125 -0.0014,-0.02157 0.0015,-0.0409 0,-0.0625 -0.0023,-0.03241 0.0027,-0.06126 0,-0.09375 L 47,31.125 c 0.08473,-2.446407 -0.681326,-4.683759 -1.5,-6.6875 a 1.0671009,1.0671009 0 0 0 -0.03125,-0.03125 c -0.822681,-1.832725 -1.538675,-3.891265 -2.8125,-5.78125 -0.02894,-0.06604 -0.06406,-0.122064 -0.09375,-0.1875 -1.269357,-2.797205 -3.211671,-5.04763 -4.75,-7.34375 a 1.0671009,1.0671009 0 0 0 -0.125,-0.1875 C 36.702359,9.9594808 35.767891,8.5815807 34.5,7.375 34.470703,7.3399008 34.435752,7.316051 34.40625,7.28125 33.053221,5.6851912 31.488385,4.3852742 30,3.09375 A 1.0671009,1.0671009 0 0 0 29.96875,3.0625 C 28.381253,1.8272901 26.422321,0.87805165 24.1875,0.9375 c -0.02165,5.7601e-4 -0.04079,-7.6747e-4 -0.0625,0 z"
       id="path2999"
       style="fill:#000000;fill-opacity:1;stroke:none"
       inkscape:original="M 24.15625 2 C 21.756865 1.943138 19.414807 3.0227947 17.875 4.875 C 16.238131 6.1114565 15.045442 7.8247876 13.5625 9.1875 C 12.07106 11.181434 10.416456 13.056141 9.15625 15.21875 C 7.9204692 16.704124 7.3248445 18.50408 6.28125 20.0625 C 5.3591762 21.684167 4.6713384 23.489503 3.8125 25.125 C 3.0324154 27.455716 1.8245965 29.737218 2.03125 32.28125 C 1.98688 34.339225 2.3666196 36.364949 3.28125 38.1875 C 4.9817465 41.191773 7.8141223 43.609154 11.25 44.3125 C 13.883051 45.068452 16.608995 45.661394 19.375 45.71875 C 21.697651 46.13828 24.095239 46.016309 26.4375 45.8125 C 28.53008 45.59012 30.626368 45.355894 32.6875 44.90625 C 34.659125 44.456012 36.669236 43.902242 38.5625 43.09375 C 41.192947 41.886076 43.292555 39.654242 44.6875 37.15625 C 45.463302 35.276551 46.13903 33.293109 45.96875 31.21875 C 46.083295 28.981528 45.324794 26.86247 44.5 24.84375 C 43.623501 22.891132 42.926703 20.838568 41.6875 19.0625 C 40.506429 16.367332 38.560719 14.110328 36.9375 11.6875 C 35.798428 10.592796 34.877657 9.1674148 33.6875 8.0625 C 32.39857 6.5183115 30.846491 5.2373481 29.3125 3.90625 C 27.835162 2.7567536 26.092937 1.9315193 24.15625 2 z "
       inkscape:radius="1.0669942"
       sodipodi:type="inkscape:offset" />
    <path
       inkscape:connector-curvature="0"
       id="rect1955"
       style="fill:#ffffff;fill-opacity:1;stroke:none"
       d="m 24.147452,2.0039793 c -2.399385,-0.056862 -4.725253,1.0125098 -6.26506,2.8647151 -1.636869,1.2364565 -2.841393,2.9623472 -4.324335,4.3250596 -1.49144,1.993934 -3.144891,3.856526 -4.4050969,6.019135 -1.2357808,1.485374 -1.8422556,3.301928 -2.8858501,4.860348 -0.9220738,1.621667 -1.6006892,3.419606 -2.4595276,5.055103 -0.7800846,2.330716 -1.9908668,4.604151 -1.7842133,7.148183 -0.04437,2.057975 0.3412256,4.087493 1.255856,5.910044 1.7004965,3.004273 4.5497782,5.436005 7.9856559,6.139351 2.633051,0.755952 5.335636,1.322989 8.101641,1.380345 2.322651,0.41953 4.736758,0.323607 7.079019,0.119798 2.09258,-0.22238 4.179364,-0.459312 6.240496,-0.908956 1.971625,-0.450238 3.973388,-1.017543 5.866652,-1.826035 2.630447,-1.207674 4.73908,-3.440574 6.134025,-5.938566 0.775802,-1.879699 1.457221,-3.864166 1.286941,-5.938525 C 46.0882,28.976757 45.317391,26.858377 44.492597,24.839657 43.616098,22.887039 42.927194,20.823502 41.687991,19.047434 40.50692,16.352266 38.573746,14.099355 36.950527,11.676527 35.811455,10.581823 34.891908,9.16668 33.701751,8.0617652 32.412821,6.5175767 30.835376,5.2388003 29.301385,3.9077022 27.824047,2.7582058 26.084139,1.9354986 24.147452,2.0039793 l 0,0 z" />
  </g>
  <text
     xml:space="preserve"
     style="font-size:28px;font-style:normal;font-variant:normal;font-weight:normal;font-stretch:normal;text-align:center;line-height:125%;letter-spacing:0px;word-spacing:0px;writing-mode:lr;text-anchor:middle;fill:#000000;fill-opacity:1;stroke:none;font-family:Roadgeek 2005 Series D;-inkscape-font-specification:Roadgeek 2005 Series D"
     x="24"
     y="40"
     id="text2989"
     sodipodi:linespacing="125%"><tspan
       sodipodi:role="line"
       id="tspan3009">%num%</tspan></text>
</svg>
