<?xml version="1.0" encoding="UTF-8" standalone="no"?>
<!-- Created with Inkscape (http://www.inkscape.org/) -->

<svg
   xmlns:dc="http://purl.org/dc/elements/1.1/"
   xmlns:cc="http://creativecommons.org/ns#"
   xmlns:rdf="http://www.w3.org/1999/02/22-rdf-syntax-ns#"
   xmlns:svg="http://www.w3.org/2000/svg"
   xmlns="http://www.w3.org/2000/svg"
   xmlns:sodipodi="http://sodipodi.sourceforge.net/DTD/sodipodi-0.dtd"
   xmlns:inkscape="http://www.inkscape.org/namespaces/inkscape"
   version="1.0"
   width="48"
   height="48"
   viewBox="0 0 47.920133 47.920056"
   id="Layer_1"
   xml:space="preserve"
   sodipodi:version="0.32"
   inkscape:version="0.48.1 r9760"
   sodipodi:docname="US:I:Business_banner_2.svg"
   inkscape:output_extension="org.inkscape.output.svg.inkscape"
   sodipodi:modified="true"><metadata
   id="metadata36"><rdf:RDF><cc:Work
       rdf:about=""><dc:format>image/svg+xml</dc:format><dc:type
         rdf:resource="http://purl.org/dc/dcmitype/StillImage" /><dc:title></dc:title></cc:Work></rdf:RDF></metadata><sodipodi:namedview
   inkscape:window-height="996"
   inkscape:window-width="1278"
   inkscape:pageshadow="2"
   inkscape:pageopacity="0.0"
   guidetolerance="10.0"
   gridtolerance="10.0"
   objecttolerance="10.0"
   borderopacity="1.0"
   bordercolor="#666666"
   pagecolor="#ffffff"
   id="base"
   width="601px"
   height="601px"
   inkscape:zoom="16.895833"
   inkscape:cx="24"
   inkscape:cy="24"
   inkscape:window-x="1"
   inkscape:window-y="27"
   inkscape:current-layer="Layer_1"
   showgrid="true"
   inkscape:showpageshadow="false"
   inkscape:window-maximized="0"><inkscape:grid
     type="xygrid"
     id="grid2990"
     empspacing="5"
     visible="true"
     enabled="true"
     snapvisiblegridlinesonly="true"
     spacingx="1px"
     spacingy="1px" /></sodipodi:namedview><defs
   id="defs1659">
	
	
	
	
</defs>
<g
   id="g3130"><g
     id="g1600"
     style="fill:#ffffff;fill-opacity:1;stroke:#000000;stroke-width:0.99999928;stroke-miterlimit:4;stroke-opacity:1;stroke-dasharray:none"
     transform="matrix(0.07633113,0,0,0.07633125,1.0607321,1.0606872)">
		<path
   inkscape:connector-curvature="0"
   d="m 80.75293,0 c 34.67578,10.583496 71.48486,16.276856 109.62402,16.276856 38.13868,0 74.94727,-5.69336 109.62305,-16.2763677 34.67578,10.5830077 71.48438,16.2763677 109.62305,16.2763677 38.13867,0 74.94824,-5.69336 109.62402,-16.276856 C 569.8125,63.908203 600,144.67822 600,232.5 600,413.92383 471.16992,565.25391 300,599.99902 128.83008,565.25391 0,413.92383 0,232.5 0,144.67822 30.187988,63.907715 80.75293,0 z"
   style="fill:#ffffff;fill-opacity:1;stroke:#000000;stroke-width:0.99999928;stroke-miterlimit:4;stroke-opacity:1;stroke-dasharray:none"
   id="path1602" />
		
			<path
   inkscape:connector-curvature="0"
   d="m 80.75293,0 c 34.67578,10.583496 71.48486,16.276856 109.62402,16.276856 38.13868,0 74.94727,-5.69336 109.62305,-16.2763677 34.67578,10.5830077 71.48438,16.2763677 109.62305,16.2763677 38.13867,0 74.94824,-5.69336 109.62402,-16.276856 C 569.8125,63.908203 600,144.67822 600,232.5 600,413.92383 471.16992,565.25391 300,599.99902 128.83008,565.25391 0,413.92383 0,232.5 0,144.67822 30.187988,63.907715 80.75293,0 z"
   style="fill:#ffffff;fill-opacity:1;stroke:#000000;stroke-width:0.99999928;stroke-linecap:round;stroke-linejoin:round;stroke-miterlimit:4;stroke-opacity:1;stroke-dasharray:none"
   id="path1604" />
	</g><g
     id="g1606"
     transform="matrix(0.07706454,0,0,0.07745518,0.84070409,0.63717482)"
     style="fill:#006b54;fill-opacity:1;stroke:none">
		<path
   inkscape:connector-curvature="0"
   d="m 15,232.5 c 0,-31.979 4.169434,-62.98389 11.994629,-92.50098 l 546.011231,0 C 580.83008,169.51611 585,200.521 585,232.5 585,405.60547 462.82617,550.17188 300,584.67676 137.17432,550.17188 15,405.60547 15,232.5 z"
   style="fill:#006b54;fill-opacity:1;stroke:none"
   id="path1608" />
	</g><g
     id="g1610"
     transform="matrix(0.0774818,0,0,0.07760681,0.71553216,0.78171584)"
     style="fill:#006b54;fill-opacity:1;stroke:none">
		<path
   inkscape:connector-curvature="0"
   d="M 31.324219,124.99902 C 43.579102,85.77832 62.362793,49.44043 86.402832,17.259766 c 33.101558,9.132812 67.967778,14.012695 103.974118,14.012695 38.06055,0 74.84766,-5.45166 109.62305,-15.617676 34.77539,10.166016 71.5625,15.617676 109.62305,15.617676 36.00586,0 70.87304,-4.879883 103.97461,-14.012695 24.03906,32.180664 42.82324,68.518554 55.07812,107.739254 l -537.351561,0 0,0 z"
   style="fill:#006b54;fill-opacity:1;stroke:none"
   id="path1612" />
	</g></g><text
   xml:space="preserve"
   style="font-size:4.99168052px;font-style:normal;font-variant:normal;font-weight:normal;font-stretch:normal;text-align:center;line-height:125%;letter-spacing:0px;word-spacing:0px;writing-mode:lr;text-anchor:middle;fill:#ffffff;fill-opacity:1;stroke:none;font-family:Roadgeek 2005 Series D;-inkscape-font-specification:Roadgeek 2005 Series D"
   x="23.960066"
   y="15.973339"
   id="text2996"
   sodipodi:linespacing="125%"><tspan
     sodipodi:role="line"
     id="tspan3141">%mod%</tspan></text>









<text
   xml:space="preserve"
   style="font-size:6.98835273px;font-style:normal;font-variant:normal;font-weight:normal;font-stretch:normal;text-align:center;line-height:125%;letter-spacing:0px;word-spacing:0px;writing-mode:lr;text-anchor:middle;fill:#ffffff;fill-opacity:1;stroke:none;font-family:Roadgeek 2005 Series D;-inkscape-font-specification:Roadgeek 2005 Series D"
   x="23.960066"
   y="9.4841547"
   id="text3009"
   sodipodi:linespacing="125%"><tspan
     sodipodi:role="line"
     id="tspan3143">DOWNTOWN</tspan></text>






<text
   xml:space="preserve"
   style="font-size:27.95341092px;font-style:normal;font-variant:normal;font-weight:normal;font-stretch:normal;text-align:center;line-height:125%;letter-spacing:0px;word-spacing:0px;writing-mode:lr;text-anchor:middle;fill:#ffffff;fill-opacity:1;stroke:none;font-family:Roadgeek 2005 Series D;-inkscape-font-specification:Roadgeek 2005 Series D"
   x="23.960066"
   y="36.938396"
   id="text2992"
   sodipodi:linespacing="125%"><tspan
     sodipodi:role="line"
     id="tspan3139">%num%</tspan></text>

</svg>