<?xml version="1.0" encoding="UTF-8" standalone="no"?>
<!-- Created with Inkscape (http://www.inkscape.org/) -->

<svg
   xmlns:dc="http://purl.org/dc/elements/1.1/"
   xmlns:cc="http://creativecommons.org/ns#"
   xmlns:rdf="http://www.w3.org/1999/02/22-rdf-syntax-ns#"
   xmlns:svg="http://www.w3.org/2000/svg"
   xmlns="http://www.w3.org/2000/svg"
   xmlns:sodipodi="http://sodipodi.sourceforge.net/DTD/sodipodi-0.dtd"
   xmlns:inkscape="http://www.inkscape.org/namespaces/inkscape"
   version="1.0"
   width="60"
   height="48"
   viewBox="0 0 59.920106 47.920056"
   id="Layer_1"
   xml:space="preserve"
   sodipodi:version="0.32"
   inkscape:version="0.48.1 r9760"
   sodipodi:docname="US:I:Downtown_banner_3.svg"
   inkscape:output_extension="org.inkscape.output.svg.inkscape"
   sodipodi:modified="true"><metadata
   id="metadata36"><rdf:RDF><cc:Work
       rdf:about=""><dc:format>image/svg+xml</dc:format><dc:type
         rdf:resource="http://purl.org/dc/dcmitype/StillImage" /></cc:Work></rdf:RDF></metadata><sodipodi:namedview
   inkscape:window-height="996"
   inkscape:window-width="1278"
   inkscape:pageshadow="2"
   inkscape:pageopacity="0.0"
   guidetolerance="10.0"
   gridtolerance="10.0"
   objecttolerance="10.0"
   borderopacity="1.0"
   bordercolor="#666666"
   pagecolor="#ffffff"
   id="base"
   width="751px"
   height="601px"
   inkscape:zoom="16.895833"
   inkscape:cx="30"
   inkscape:cy="24"
   inkscape:window-x="1"
   inkscape:window-y="27"
   inkscape:current-layer="Layer_1"
   showgrid="true"
   inkscape:showpageshadow="false"
   inkscape:window-maximized="0"><inkscape:grid
     type="xygrid"
     id="grid3263"
     empspacing="5"
     visible="true"
     enabled="true"
     snapvisiblegridlinesonly="true"
     spacingx="1px"
     spacingy="1px" /></sodipodi:namedview><defs
   id="defs62">
	
	
	
	
</defs>
<g
   id="g3064"><g
     style="fill:#ffffff;fill-opacity:1;stroke:#000000;stroke-width:0.99999899;stroke-miterlimit:4;stroke-opacity:1;stroke-dasharray:none"
     id="g5"
     transform="matrix(0.07706991,0,0,0.07636263,1.0588381,1.0519448)">
		<path
   d="M 38.915039,0 C 92.236328,15.525391 148.625,23.849609 206.95801,23.849609 265.29053,23.849609 321.6792,15.525391 375,4.883e-4 428.32031,15.525391 484.70898,23.849609 543.04199,23.849609 601.375,23.849609 657.76367,15.525391 711.08398,0 736.06445,54.121094 750,114.3877 750,177.90918 750,395.71777 586.16016,575.25391 375,599.99902 163.83887,575.25391 0,395.71777 0,177.90918 0,114.3877 13.935059,54.121094 38.915039,0 z"
   style="fill:#ffffff;fill-opacity:1;stroke:#000000;stroke-width:0.99999899;stroke-miterlimit:4;stroke-opacity:1;stroke-dasharray:none"
   id="path7"
   inkscape:connector-curvature="0" />
		
			<path
   d="M 38.915039,0 C 92.236328,15.525391 148.625,23.849609 206.95801,23.849609 265.29053,23.849609 321.6792,15.525391 375,4.883e-4 428.32031,15.525391 484.70898,23.849609 543.04199,23.849609 601.375,23.849609 657.76367,15.525391 711.08398,0 736.06445,54.121094 750,114.3877 750,177.90918 750,395.71777 586.16016,575.25391 375,599.99902 163.83887,575.25391 0,395.71777 0,177.90918 0,114.3877 13.935059,54.121094 38.915039,0 z"
   style="fill:#ffffff;fill-opacity:1;stroke:#000000;stroke-width:0.99999899;stroke-linecap:round;stroke-linejoin:round;stroke-miterlimit:4;stroke-opacity:1;stroke-dasharray:none"
   id="path9"
   inkscape:connector-curvature="0" />
	</g><g
     style="fill:#006b54;fill-opacity:1"
     id="g11"
     transform="matrix(0.07767421,0,0,0.07744372,0.8322237,0.63462687)">
		<path
   d="m 15,177.90918 c 0,-12.78174 0.584961,-25.42676 1.729004,-37.91016 l 716.541506,0 C 734.41504,152.48242 735,165.12744 735,177.90918 735,387.42285 577.85547,560.22852 375,584.89062 172.14453,560.22852 15,387.42285 15,177.90918 z"
   style="fill:#006b54;fill-opacity:1"
   id="path13"
   inkscape:connector-curvature="0" />
	</g><g
     style="fill:#006b54;fill-opacity:1"
     id="g15"
     transform="matrix(0.07770795,0,0,0.0776018,0.81962289,0.77785533)">
		<path
   d="m 47.37793,17.942871 c 50.892089,13.635254 104.38769,20.90625 159.58203,20.90625 58.26074,0 114.6294,-8.101074 168.04004,-23.237793 53.41113,15.136719 109.7793,23.237793 168.04004,23.237793 55.19434,0 108.69043,-7.270508 159.58105,-20.90625 14.26172,33.624512 24.16407,69.546387 28.9961,107.056149 l -713.235354,0 C 23.214844,87.489258 33.116211,51.567383 47.37793,17.942871 z"
   style="fill:#006b54;fill-opacity:1"
   id="path17"
   inkscape:connector-curvature="0" />
	</g></g>











<text
   xml:space="preserve"
   style="font-size:6.99067926px;font-style:normal;font-variant:normal;font-weight:normal;font-stretch:normal;text-align:center;line-height:125%;letter-spacing:0px;word-spacing:0px;writing-mode:lr-tb;text-anchor:middle;fill:#ffffff;fill-opacity:1;stroke:none;font-family:Roadgeek 2005 Series D;-inkscape-font-specification:Roadgeek 2005 Series D"
   x="29.971281"
   y="9.4757528"
   id="text3265"
   sodipodi:linespacing="125%"
   transform="scale(0.99962534,1.0003748)"><tspan
     sodipodi:role="line"
     id="tspan3277"
     x="29.971281"
     y="9.4757528">DOWNTOWN</tspan></text>

<text
   xml:space="preserve"
   style="font-size:4.99334217px;font-style:normal;font-variant:normal;font-weight:normal;font-stretch:normal;text-align:center;line-height:125%;letter-spacing:0px;word-spacing:0px;writing-mode:lr;text-anchor:middle;fill:#ffffff;fill-opacity:1;stroke:none;font-family:Roadgeek 2005 Series D;-inkscape-font-specification:Roadgeek 2005 Series D"
   x="29.971283"
   y="15.964697"
   id="text3269"
   sodipodi:linespacing="125%"
   transform="scale(0.99962534,1.0003748)"><tspan
     sodipodi:role="line"
     id="tspan3075">%mod%</tspan></text>

<text
   xml:space="preserve"
   style="font-size:27.96271613px;font-style:normal;font-variant:normal;font-weight:normal;font-stretch:normal;text-align:center;line-height:125%;letter-spacing:0px;word-spacing:0px;writing-mode:lr;text-anchor:middle;fill:#ffffff;fill-opacity:1;stroke:none;font-family:Roadgeek 2005 Series C;-inkscape-font-specification:Roadgeek 2005 Series C"
   x="29.971283"
   y="35.930584"
   id="text3273"
   sodipodi:linespacing="125%"
   transform="scale(0.99962534,1.0003748)"><tspan
     sodipodi:role="line"
     id="tspan3077">%num%</tspan></text>

</svg>