<?xml version="1.0" encoding="UTF-8" standalone="no"?>
<!-- Created with Inkscape (http://www.inkscape.org/) -->

<svg
   xmlns:dc="http://purl.org/dc/elements/1.1/"
   xmlns:cc="http://creativecommons.org/ns#"
   xmlns:rdf="http://www.w3.org/1999/02/22-rdf-syntax-ns#"
   xmlns:svg="http://www.w3.org/2000/svg"
   xmlns="http://www.w3.org/2000/svg"
   xmlns:sodipodi="http://sodipodi.sourceforge.net/DTD/sodipodi-0.dtd"
   xmlns:inkscape="http://www.inkscape.org/namespaces/inkscape"
   version="1.0"
   width="60"
   height="48"
   viewBox="0 0 59.920107 47.920055"
   id="Layer_1"
   xml:space="preserve"
   sodipodi:version="0.32"
   inkscape:version="0.48.1 r9760"
   sodipodi:docname="US:I_3.svg"
   inkscape:output_extension="org.inkscape.output.svg.inkscape"
   sodipodi:modified="true"><metadata
   id="metadata36"><rdf:RDF><cc:Work
       rdf:about=""><dc:format>image/svg+xml</dc:format><dc:type
         rdf:resource="http://purl.org/dc/dcmitype/StillImage" /></cc:Work></rdf:RDF></metadata><sodipodi:namedview
   inkscape:window-height="1182"
   inkscape:window-width="1598"
   inkscape:pageshadow="2"
   inkscape:pageopacity="0.0"
   guidetolerance="10.0"
   gridtolerance="10000"
   objecttolerance="10.0"
   borderopacity="1.0"
   bordercolor="#666666"
   pagecolor="#ffffff"
   id="base"
   width="751px"
   height="601px"
   inkscape:zoom="16.895833"
   inkscape:cx="27.99176"
   inkscape:cy="22.480233"
   inkscape:window-x="1"
   inkscape:window-y="1"
   inkscape:current-layer="Layer_1"
   showgrid="true"
   inkscape:window-maximized="0"><inkscape:grid
     type="xygrid"
     id="grid3100"
     empspacing="5"
     visible="true"
     enabled="true"
     snapvisiblegridlinesonly="true" /></sodipodi:namedview><defs
   id="defs62">
	
	
	
	
</defs>




<g
   id="g3061"><g
     style="fill:#ffffff;fill-opacity:1;stroke:#000000;stroke-width:0.99999923;stroke-miterlimit:4;stroke-opacity:1;stroke-dasharray:none"
     id="g5"
     transform="matrix(0.07706391,0,0,0.07635668,1.0610853,1.0530531)">
		<path
   d="M 38.915039,0 C 92.236328,15.525391 148.625,23.849609 206.95801,23.849609 265.29053,23.849609 321.6792,15.525391 375,4.883e-4 428.32031,15.525391 484.70898,23.849609 543.04199,23.849609 601.375,23.849609 657.76367,15.525391 711.08398,0 736.06445,54.121094 750,114.3877 750,177.90918 750,395.71777 586.16016,575.25391 375,599.99902 163.83887,575.25391 0,395.71777 0,177.90918 0,114.3877 13.935059,54.121094 38.915039,0 z"
   style="fill:#ffffff;fill-opacity:1;stroke:#000000;stroke-width:0.99999923;stroke-miterlimit:4;stroke-opacity:1;stroke-dasharray:none"
   id="path7"
   inkscape:connector-curvature="0" />
		
			<path
   d="M 38.915039,0 C 92.236328,15.525391 148.625,23.849609 206.95801,23.849609 265.29053,23.849609 321.6792,15.525391 375,4.883e-4 428.32031,15.525391 484.70898,23.849609 543.04199,23.849609 601.375,23.849609 657.76367,15.525391 711.08398,0 736.06445,54.121094 750,114.3877 750,177.90918 750,395.71777 586.16016,575.25391 375,599.99902 163.83887,575.25391 0,395.71777 0,177.90918 0,114.3877 13.935059,54.121094 38.915039,0 z"
   style="fill:#ffffff;fill-opacity:1;stroke:#000000;stroke-width:0.99999923;stroke-linecap:round;stroke-linejoin:round;stroke-miterlimit:4;stroke-opacity:1;stroke-dasharray:none"
   id="path9"
   inkscape:connector-curvature="0" />
	</g><g
     style="fill:#003f87;fill-opacity:1"
     id="g11"
     transform="matrix(0.07759904,0,0,0.07723328,0.86039797,0.73950757)">
		<path
   d="m 15,177.90918 c 0,-12.78174 0.584961,-25.42676 1.729004,-37.91016 l 716.541506,0 C 734.41504,152.48242 735,165.12744 735,177.90918 735,387.42285 577.85547,560.22852 375,584.89062 172.14453,560.22852 15,387.42285 15,177.90918 z"
   style="fill:#003f87;fill-opacity:1"
   id="path13"
   inkscape:connector-curvature="0" />
	</g><g
     style="fill:#af1e2d;fill-opacity:1"
     id="g15"
     transform="matrix(0.07763275,0,0,0.07852907,0.84780938,0.78152905)">
		<path
   d="m 47.37793,17.942871 c 50.892089,13.635254 104.38769,20.90625 159.58203,20.90625 58.26074,0 114.6294,-8.101074 168.04004,-23.237793 53.41113,15.136719 109.7793,23.237793 168.04004,23.237793 55.19434,0 108.69043,-7.270508 159.58105,-20.90625 14.26172,33.624512 24.16407,69.546387 28.9961,107.056149 l -713.235354,0 C 23.214844,87.489258 33.116211,51.567383 47.37793,17.942871 z"
   style="fill:#af1e2d;fill-opacity:1"
   id="path17"
   inkscape:connector-curvature="0" />
	</g></g><path
   inkscape:connector-curvature="0"
   style="font-size:93.28099823px;font-style:normal;font-variant:normal;font-weight:normal;font-stretch:normal;text-align:center;line-height:125%;writing-mode:lr-tb;text-anchor:middle;fill:#ffffff;fill-opacity:1;font-family:Roadgeek 2005 Series C"
   d="m 15.18555,9.6431658 0,-4.7722483 0.675686,0 0,4.7722483 -0.675686,0 z m 3.919199,0 -1.488045,-3.198091 0,3.198091 -0.690165,0 0,-4.7722483 0.690165,0 1.322633,2.8633489 0,-2.8633489 0.690165,0 0,4.7722483 -0.524753,0 z m 2.770971,-4.1381946 0,4.1381946 -0.697185,0 0,-4.1381946 -0.877076,0 0,-0.6340537 2.451336,0 0,0.6340537 -0.877075,0 z m 1.537404,4.1381946 0,-4.7722483 2.264427,0 0,0.6697016 -1.574261,0 0,1.2035499 0.999269,0 0,0.6553555 -0.999269,0 0,1.5741574 1.761171,0 0,0.6694839 -2.451337,0 z m 5.248635,0 -0.639927,-2.2436413 -0.661209,0 0,2.2436413 -0.690165,0 0,-4.7722483 1.437808,0 c 0.186909,4.9e-6 0.358243,0.030871 0.514005,0.092598 0.155756,0.061736 0.289942,0.147233 0.402559,0.2564906 0.112611,0.1092666 0.198863,0.2434167 0.258757,0.4024513 0.05989,0.1590426 0.08983,0.3335503 0.08984,0.5235236 -3e-6,0.2848963 -0.05752,0.5270769 -0.172542,0.7265425 -0.11503,0.1994711 -0.287571,0.3418812 -0.517623,0.4272308 l 0.690165,2.3434119 -0.711664,0 z m 0.03598,-3.4971852 c -2e-6,-0.1851914 -0.05751,-0.3323835 -0.172542,-0.441577 C 28.410165,5.595218 28.259197,5.5406232 28.072288,5.5406191 l -0.711665,0 0,1.2035499 0.711665,0 c 0.201242,2.9e-6 0.355793,-0.051042 0.463657,-0.1531337 0.107859,-0.1020859 0.16179,-0.2504373 0.161792,-0.4450547 l 0,0 z m 3.934117,2.1936474 c -3e-6,0.1947602 -0.03474,0.3764045 -0.104205,0.5449333 -0.06947,0.1685325 -0.165304,0.3145283 -0.287496,0.4379902 -0.122196,0.1234649 -0.263586,0.2220037 -0.424169,0.295617 -0.160587,0.073616 -0.334335,0.1104227 -0.521244,0.1104227 -0.210897,0 -0.400184,-0.040358 -0.56786,-0.1210733 C 30.5592,9.5268031 30.417847,9.4176137 30.30282,9.2799489 30.187794,9.1422848 30.099127,8.9832094 30.036823,8.8027241 29.97452,8.6222396 29.943368,8.4346901 29.943368,8.2400749 l 0.675687,0 c -1e-6,0.099699 0.01316,0.1982018 0.03949,0.2955076 0.02632,0.097308 0.06705,0.1851599 0.122195,0.2635557 0.05513,0.078397 0.124641,0.1413233 0.208518,0.188781 0.08387,0.047459 0.185701,0.071189 0.305484,0.071188 0.09111,8e-7 0.17861,-0.018983 0.262487,-0.05695 0.08387,-0.037966 0.155756,-0.090206 0.215649,-0.1567205 0.05989,-0.066513 0.107786,-0.1436783 0.143693,-0.2314945 0.0359,-0.087814 0.05386,-0.1792522 0.05386,-0.2743143 -2e-6,-0.137663 -0.02874,-0.2598946 -0.08621,-0.3666948 -0.05748,-0.1067969 -0.158101,-0.2148271 -0.301865,-0.3240911 -0.02399,-0.023763 -0.03357,-0.036841 -0.02874,-0.039234 0.0048,-0.00239 -0.0095,-0.015431 -0.04311,-0.039126 -0.03357,-0.023691 -0.10428,-0.06999 -0.21214,-0.1388963 C 31.190497,7.3626834 31.014373,7.2451976 30.769987,7.0791285 30.573569,6.9461038 30.42622,6.790543 30.327939,6.6124458 30.229657,6.4343547 30.180517,6.238509 30.180517,6.0249084 c 0,-0.1709901 0.03115,-0.3312604 0.09346,-0.4808115 0.0623,-0.1495429 0.14976,-0.281302 0.262375,-0.3952783 0.112614,-0.113967 0.243218,-0.2030141 0.391811,-0.2671413 0.148591,-0.064118 0.309103,-0.096179 0.481536,-0.096184 0.172576,4.9e-6 0.331954,0.030871 0.478136,0.092598 0.146177,0.061736 0.27316,0.1472331 0.380951,0.2564906 0.107785,0.1092665 0.194037,0.2398665 0.258757,0.3918004 0.06471,0.1519421 0.09949,0.3181175 0.104315,0.4985267 l -0.661428,0 c -0.0095,-0.166208 -0.06698,-0.2991629 -0.172431,-0.398865 -0.105449,-0.099694 -0.234882,-0.1495429 -0.3883,-0.1495469 -0.158101,4e-6 -0.292251,0.052244 -0.40245,0.1567201 -0.110202,0.104484 -0.165304,0.2350477 -0.165302,0.3916918 -2e-6,0.1186846 0.03115,0.2183826 0.09346,0.2990941 0.0623,0.080718 0.182081,0.1709244 0.35934,0.2706193 0.464935,0.2659127 0.804021,0.5365681 1.01726,0.811967 0.213233,0.2754034 0.319851,0.5864162 0.319854,0.9330392 l 0,0 z m 2.006435,-2.8346568 0,4.1381946 -0.697186,0 0,-4.1381946 -0.877074,0 0,-0.6340537 2.451336,0 0,0.6340537 -0.877076,0 z m 3.550204,4.1381946 -0.337843,-1.3035378 -1.035247,0 -0.316124,1.3035378 -0.697405,0 1.200439,-4.7722483 0.675906,0 1.200439,4.7722483 -0.690165,0 z m -0.862597,-3.347638 -0.337841,1.3746161 0.690164,0 -0.352323,-1.3746161 z m 3.419893,-0.7905566 0,4.1381946 -0.697186,0 0,-4.1381946 -0.877074,0 0,-0.6340537 2.451336,0 0,0.6340537 -0.877076,0 z m 1.537406,4.1381946 0,-4.7722483 2.264427,0 0,0.6697016 -1.574262,0 0,1.2035499 0.99927,0 0,0.6553555 -0.99927,0 0,1.5741574 1.761172,0 0,0.6694839 -2.451337,0 z"
   id="text7023" />




<text
   xml:space="preserve"
   style="font-size:29.81099839px;font-style:normal;font-variant:normal;font-weight:normal;font-stretch:normal;text-align:center;line-height:125%;letter-spacing:0px;word-spacing:0px;writing-mode:lr;text-anchor:middle;fill:#ffffff;fill-opacity:1;stroke:none;font-family:Roadgeek 2005 Series C;-inkscape-font-specification:Roadgeek 2005 Series C"
   x="29.960054"
   y="33.946712"
   id="text3106"
   sodipodi:linespacing="125%"><tspan
     sodipodi:role="line"
     id="tspan3070">%num%</tspan></text>



</svg>