<?xml version="1.0" encoding="UTF-8" standalone="no"?>
<!-- Created with Inkscape (http://www.inkscape.org/) -->

<svg
   xmlns:dc="http://purl.org/dc/elements/1.1/"
   xmlns:cc="http://creativecommons.org/ns#"
   xmlns:rdf="http://www.w3.org/1999/02/22-rdf-syntax-ns#"
   xmlns:svg="http://www.w3.org/2000/svg"
   xmlns="http://www.w3.org/2000/svg"
   xmlns:sodipodi="http://sodipodi.sourceforge.net/DTD/sodipodi-0.dtd"
   xmlns:inkscape="http://www.inkscape.org/namespaces/inkscape"
   width="48"
   height="48"
   id="svg2"
   sodipodi:version="0.32"
   inkscape:version="0.48.1 r9760"
   sodipodi:docname="US:KS-Turnpike.svg"
   inkscape:export-filename="/home/scott/roadgeek/ks/k10.png"
   inkscape:export-xdpi="90.000000"
   inkscape:export-ydpi="90.000000"
   version="1.1">
  <defs
     id="defs4" />
  <sodipodi:namedview
     id="base"
     pagecolor="#ffffff"
     bordercolor="#666666"
     borderopacity="1.0"
     inkscape:pageopacity="0.0"
     inkscape:pageshadow="2"
     inkscape:zoom="16.895833"
     inkscape:cx="24"
     inkscape:cy="24"
     inkscape:document-units="px"
     inkscape:current-layer="layer1"
     inkscape:window-width="1278"
     inkscape:window-height="996"
     inkscape:window-x="1"
     inkscape:window-y="27"
     showgrid="true"
     inkscape:showpageshadow="false"
     inkscape:window-maximized="0">
    <inkscape:grid
       type="xygrid"
       id="grid3005"
       empspacing="5"
       visible="true"
       enabled="true"
       snapvisiblegridlinesonly="true" />
  </sodipodi:namedview>
  <metadata
     id="metadata7">
    <rdf:RDF>
      <cc:Work
         rdf:about="">
        <dc:format>image/svg+xml</dc:format>
        <dc:type
           rdf:resource="http://purl.org/dc/dcmitype/StillImage" />
        <dc:title>Kansas Turnpike Shield</dc:title>
        <dc:date>11 Jan 2006</dc:date>
        <dc:creator>
          <cc:Agent>
            <dc:title>Scott V. Nazelrod (Scott5114)</dc:title>
          </cc:Agent>
        </dc:creator>
        <dc:rights>
          <cc:Agent>
            <dc:title>Public Domain</dc:title>
          </cc:Agent>
        </dc:rights>
        <dc:publisher>
          <cc:Agent>
            <dc:title>Wikipedia</dc:title>
          </cc:Agent>
        </dc:publisher>
        <dc:language>English</dc:language>
        <dc:subject>
          <rdf:Bag>
            <rdf:li>Kansas Turnpike</rdf:li>
          </rdf:Bag>
        </dc:subject>
        <dc:description>Image of a Kansas Turnpike shield. Originally scanned from a Kansas Turnpike Authority questionnaire and converted to vector format using Peter Selinger's Potrace algorithm, part of Inkscape 0.43. </dc:description>
        <cc:license
           rdf:resource="http://web.resource.org/cc/PublicDomain" />
      </cc:Work>
      <cc:License
         rdf:about="http://web.resource.org/cc/PublicDomain">
        <cc:permits
           rdf:resource="http://web.resource.org/cc/Reproduction" />
        <cc:permits
           rdf:resource="http://web.resource.org/cc/Distribution" />
        <cc:permits
           rdf:resource="http://web.resource.org/cc/DerivativeWorks" />
      </cc:License>
    </rdf:RDF>
  </metadata>
  <g
     inkscape:label="Layer 1"
     inkscape:groupmode="layer"
     id="layer1"
     transform="translate(0,-177)">
    <g
       id="g3012">
      <path
         sodipodi:nodetypes="ccccscscccsssccccssccccscccccsscscsccsscsccccssscssscccsscccssccccscccssccccccccccccsscsccccccccccccsccsccssccccccccccsscccccccccccccscscscccccccccsscssssccscsscccsccccccccccccccccccccssccc"
         inkscape:connector-curvature="0"
         id="path3009"
         d="m 24.426191,178.00137 c -1.424598,0.0628 -2.59232,1.03602 -3.492102,2.41121 -0.114256,0.17461 -0.202899,0.30872 -0.309036,0.46369 -0.03529,-0.0243 -0.05675,-0.0358 -0.09271,-0.0618 -0.657847,-0.47535 -1.350648,-0.80243 -2.039635,-0.98921 -0.688986,-0.18678 -1.449017,-0.25263 -2.163249,0.12365 -0.715613,0.37697 -0.863554,0.80306 -1.174335,1.32926 -0.218201,0.36945 -0.411293,0.85821 -0.618071,1.32925 l -0.247229,-0.0927 c -0.711836,-0.26587 -1.614673,-0.59627 -1.977828,-0.74191 -0.357246,-0.14325 -0.798704,-0.403 -1.48337,-0.21639 -0.684667,0.18662 -0.912149,0.58188 -1.1743359,0.89648 -0.2787309,0.33445 -0.5824003,0.83017 -0.6798783,1.36016 -0.097478,0.53 -0.060058,1.01617 -0.030903,1.76204 l 0.030903,0.5873 -0.4944569,0.12365 -0.030904,0 c -1.245063,0.29965 -1.929207,0.41433 -2.6268026,0.86556 -0.3525038,0.22801 -0.7091762,0.69393 -0.8034925,1.14378 -0.094317,0.44984 -0.043957,0.76199 0,1.02012 0.098574,0.57892 0.335821,1.3249 0.5253605,1.9166 0.016693,0.0521 0.016503,0.1008 0.030904,0.15457 -0.2051077,0.0643 -0.4031864,0.12843 -0.6489748,0.18547 -0.8983931,0.2085 -1.6556687,0.43896 -2.2868634,0.74191 -0.6311947,0.30296 -1.2159913,0.57752 -1.545178,1.422 -0.010481,0.0101 -0.020784,0.0204 -0.030904,0.0309 -0.061552,0.16257 -0.022179,0.12862 -0.030904,0.21639 -0.010481,0.0101 -0.020785,0.0205 -0.030904,0.031 -0.009498,0.0524 0.036656,0.0446 0.030904,0.0927 -0.0769942,0.64362 0.1388554,0.97731 0.3090356,1.26743 0.1828948,0.31179 0.3938742,0.57805 0.6489747,0.86556 0.4350486,0.49033 0.9737695,0.95092 1.545178,1.32926 -0.1554274,0.13517 -0.2833587,0.25855 -0.4635534,0.40186 -0.4737052,0.37675 -0.8605522,0.71622 -1.1743353,1.05104 -0.1568915,0.16742 -0.3067887,0.33779 -0.4326498,0.52552 -0.125861,0.18773 -0.2889833,0.33506 -0.3090356,0.86556 -5.127e-4,0.0206 -5.127e-4,0.0412 0,0.0618 3.5e-6,0.69006 0.2199397,0.8776 0.4017463,1.14378 0.1818066,0.26617 0.4072875,0.51995 0.6489747,0.77282 0.3793672,0.39693 0.8261844,0.75081 1.2979495,1.08195 -0.1419831,0.19813 -0.2685423,0.40325 -0.4326498,0.61826 -0.2461611,0.3225 -0.5113605,0.63042 -0.7107819,0.86556 -0.08802,0.10379 -0.2163249,0.2473 -0.2163249,0.2473 l -0.3399396,0.21639 c 0,0 -0.041497,0.0201 -0.061807,0.0309 -0.4000449,0.40773 -0.4247839,0.87423 -0.4017462,1.1747 0.023038,0.30046 0.1198188,0.52535 0.2163249,0.7419 0.1930121,0.43313 0.4731941,0.8432 0.8652997,1.20561 0.8720948,0.80604 1.7756781,1.18465 3.1212595,1.36017 -0.02552,0.31965 -0.066004,0.66406 -0.1236142,1.26742 -0.043317,0.45365 -0.070644,0.85196 -0.030904,1.26743 0.03974,0.41547 0.1863514,0.93478 0.5562641,1.32926 0.3699126,0.39448 0.8286123,0.53593 1.2361424,0.61826 0.40753,0.0823 0.8213559,0.10988 1.2979495,0.12365 0.5154202,0.0149 0.4846946,0.0337 0.6489747,0.0618 -0.1252143,0.47339 -0.2735109,0.99257 -0.3399391,1.54565 -0.06299,0.52448 -0.1538732,0.9048 0.030904,1.48382 0.1847767,0.57901 0.6735951,0.96033 0.9580104,1.14377 0.7760607,0.50057 1.5511027,0.50349 2.3486707,0.43278 0.787954,-0.0698 1.588385,-0.29355 2.317767,-0.71099 0.31499,0.60231 0.660763,1.20861 0.988914,1.70021 0.173358,0.2597 0.358192,0.50892 0.52536,0.71099 0.167168,0.20208 0.152059,0.36526 0.772589,0.61826 0.02031,0.0109 0.04092,0.0212 0.06181,0.0309 3e-6,0 0.02473,-9.9e-4 0.0309,0 0.04064,0.0124 0.08192,0.0226 0.123614,0.0309 0.390848,0.0891 0.552786,0.031 0.710782,0 0.157996,-0.031 0.289128,-0.0764 0.43265,-0.12365 0.287045,-0.0947 0.571676,-0.22382 0.896203,-0.37096 0.588266,-0.2667 1.221809,-0.60576 1.761503,-0.9583 0.426532,1.0513 0.782654,1.95598 1.050721,2.47303 0.164403,0.31711 0.294233,0.57944 0.525361,0.83465 0.226242,0.24983 0.68384,0.54391 1.174335,0.55643 -0.0052,-1e-4 0.02299,-1.8e-4 0.0309,0 0.0087,-1e-5 0.03278,9.9e-4 0.06181,0 0.0206,5.2e-4 0.04121,5.2e-4 0.06181,0 0.02319,-0.002 0.09243,4e-5 0.09271,0 1.38e-4,-2e-5 0.154429,-0.0309 0.154518,-0.0309 4.5e-5,-1e-5 0.18539,-0.0618 0.185422,-0.0618 0,0 -0.01101,-0.0256 0,-0.0309 0.03455,-0.0166 0.03375,-0.0161 0.06181,-0.0309 l 0.123614,-0.0618 c 0.08979,-0.0596 0.206782,-0.12712 0.278132,-0.18547 0.11552,-0.0945 0.239055,-0.21783 0.370843,-0.34005 0.263574,-0.24442 0.54832,-0.52853 0.865299,-0.86556 0.362835,-0.38578 0.72209,-0.83846 1.019818,-1.23651 0.20686,-0.27657 0.346488,-0.51227 0.494457,-0.77283 0.340603,0.30313 0.688505,0.58281 1.081624,0.80374 0.49057,0.2757 0.788126,0.55643 1.637889,0.55643 0.0042,3e-5 0.02284,-1e-5 0.0309,0 0.03088,9.9e-4 0.06183,9.9e-4 0.09271,0 0.009,-6e-4 0.03093,0 0.0309,0 0.02869,-0.003 0.06178,1e-5 0.06181,0 0.03129,-0.009 0.06222,-0.0194 0.09271,-0.0309 7e-6,0 0.04337,-0.0234 0.06181,-0.0309 0.03816,-0.0111 0.02974,-0.0201 0.06181,-0.0309 0.111869,-0.0451 0.247204,-0.0927 0.247228,-0.0927 1.3e-5,-1e-5 0.05353,-0.0299 0.09271,-0.0618 0.03651,-0.0258 0.117281,-0.0672 0.154518,-0.0927 0.128896,-0.0886 0.24208,-0.2033 0.370843,-0.30913 0.257525,-0.21166 0.553124,-0.47195 0.834396,-0.74191 0.424591,-0.40754 0.757785,-0.77548 1.081624,-1.2056 0.149538,0.0266 0.259205,0.0324 0.556264,0.0927 0.342131,0.0695 0.733865,0.16214 1.050721,0.24731 0.316856,0.0852 0.597433,0.20572 0.556264,0.18548 0.180977,0.089 0.342067,0.16494 0.556265,0.2473 0.214197,0.0824 0.604671,0.21892 1.081624,0.0618 0.476953,-0.15709 0.709312,-0.48702 0.834396,-0.68008 0.125085,-0.19305 0.212386,-0.34154 0.309036,-0.52552 0.410974,-0.78231 0.483502,-1.70954 0.463553,-3.1222 l 0,-0.46369 c 0.469304,0.0275 0.936496,0.0685 1.452468,-0.0927 0.325577,-0.10177 0.931108,-0.26041 1.174335,-0.30913 l 0.587167,-0.12365 c 0.581297,-0.11959 1.027947,-0.70599 0.988914,-1.29835 l -0.123614,-1.57655 c -0.04558,-0.59682 -0.118747,-1.07843 -0.185421,-1.57656 0.06716,-0.0211 0.142512,-0.008 0.216325,-0.0309 0.403672,-0.12315 0.857825,-0.29003 1.297949,-0.46369 0.440124,-0.17366 0.864663,-0.37508 1.236143,-0.55643 0.371479,-0.18135 0.630921,-0.24519 1.019817,-0.61826 8.5e-5,-8e-5 0.03597,-0.0577 0.06181,-0.0927 -2.7e-5,3e-5 0.02695,-0.0245 0.0309,-0.0309 -0.334463,0.39829 0.0584,-0.0881 0.06181,-0.0927 0.01196,-0.0162 0.02089,-0.0173 0.0309,-0.0309 0.02583,-0.0351 0.06175,-0.0926 0.06181,-0.0927 9.3e-5,-1.9e-4 0.0095,-0.0637 0.0309,-0.12366 5.5e-5,-1.3e-4 -0.02992,0.0728 -0.06181,0.12366 0.05701,-0.10374 0.0077,-0.12415 0.0309,-0.21639 l 0.06181,0.0309 c 0.0027,-0.01 -0.0034,-0.0189 0,-0.0309 l -0.06181,-0.0309 c 0.05083,-0.23515 0.140645,-0.4834 0.123614,-0.55643 0.02358,-0.59751 -0.140369,-1.15339 -0.43265,-1.57656 -0.385525,-0.55817 -0.929658,-1.05617 -1.576082,-1.48382 0.345742,-0.25016 0.698856,-0.49025 1.019818,-0.77282 0.257388,-0.2266 0.480028,-0.43466 0.679878,-0.64917 0.09993,-0.10725 0.217362,-0.21534 0.309036,-0.34004 0.09167,-0.1247 0.187566,-0.2102 0.278132,-0.61826 l 0.0309,-0.0927 0,-0.0309 0,-0.0309 C 47,201 47,202 46.98578,201.74288 c 1.28e-4,-0.0103 1.28e-4,-0.0206 0,-0.0309 -5e-6,7e-5 -1.84e-4,-0.024 0,-0.0309 1.28e-4,-0.0103 1.28e-4,-0.0206 0,-0.0309 2.02e-4,-0.0139 0.03187,0.0793 0,-0.18548 -0.09238,-0.68027 -0.277563,-0.75273 -0.463553,-1.05104 -0.18599,-0.2983 -0.404581,-0.63538 -0.648975,-0.9583 -0.390056,-0.51539 -0.785659,-0.9308 -1.236142,-1.32925 0.200373,-0.22782 0.417725,-0.47461 0.679878,-0.74191 0.686075,-0.69955 1.032159,-0.98476 1.359757,-1.54565 0.163799,-0.28044 0.286033,-0.75049 0.216325,-1.14377 -0.06971,-0.39329 -0.195236,-0.59813 -0.278132,-0.74191 -0.667764,-1.15824 -1.936988,-1.84147 -3.492103,-2.13299 -0.284618,-0.0533 -0.171007,-0.037 -0.339939,-0.0927 0.187043,-0.55186 0.259646,-1.1219 0.278132,-1.76204 0.01783,-0.61749 0.0982,-0.95217 -0.09271,-1.54564 -0.09545,-0.29674 -0.327459,-0.64567 -0.556264,-0.83465 -0.228805,-0.18898 -0.427246,-0.26325 -0.587168,-0.34004 -0.663742,-0.31872 -1.388833,-0.46057 -2.163249,-0.61826 l -0.278132,-0.0618 0,-0.80373 c 0.01452,-0.58165 0.03111,-1.05583 0,-1.45291 -0.03111,-0.39708 0.0014,-0.68719 -0.370843,-1.23651 -0.221906,-0.31446 -0.286226,-0.31658 -0.185421,-0.21639 -2.54e-4,-2.4e-4 -0.163912,-0.0969 -0.247229,-0.15457 -0.02463,-0.017 -0.06171,-0.0618 -0.06181,-0.0618 -4.37e-4,-2.2e-4 -0.246696,-0.0926 -0.247228,-0.0927 -2.11e-4,-5e-5 -0.04651,0.002 -0.06181,0 -0.02371,-0.004 -0.05164,-0.0253 -0.09271,-0.0309 -0.01686,-0.004 -0.0444,-0.0266 -0.06181,-0.0309 -0.143462,-0.0357 -0.309332,-0.0706 -0.463554,-0.0927 -0.308445,-0.0442 -0.647872,-0.0608 -1.019817,-0.0618 -1.017491,-0.004 -1.923742,0.24182 -2.935838,0.77283 -0.1239,0.065 -0.08201,0.0477 -0.185422,0.0927 -0.139583,-0.32622 -0.33546,-0.70827 -0.52536,-1.11287 l 0.0309,0 -0.710782,-1.54564 c -0.220979,-0.48017 -0.774484,-0.78337 -1.297949,-0.711 l -1.019818,0.12256 c -0.0103,-1.2e-4 -0.0206,-1.2e-4 -0.0309,0 -0.948406,0.14002 -1.784458,0.494 -2.534092,0.9583 -0.199602,-0.30174 -0.437129,-0.63794 -0.648975,-1.05103 -0.240401,-0.4688 -0.451449,-0.83746 -0.741685,-1.1747 -0.290237,-0.33723 -0.842362,-0.68008 -1.39066,-0.68008 -2.96e-4,0 -0.03156,-0.003 -0.123615,0 -0.0103,-1.3e-4 -0.0206,-1.3e-4 -0.0309,0 z"
         style="fill:#10008d;fill-opacity:1" />
      <path
         inkscape:connector-curvature="0"
         id="path11783"
         d="m 24.495423,179.00233 c -0.873084,0.0385 -1.727616,0.6785 -2.515943,1.88298 -0.450944,0.68898 -0.901563,1.3045 -1.006381,1.36824 -8.19e-4,5.1e-4 -0.0058,-4.6e-4 -0.0066,0 -0.0019,8.3e-4 -0.0046,0.006 -0.0066,0.007 -0.0022,5.7e-4 -0.01085,-4.1e-4 -0.01324,0 -0.0012,1.6e-4 -0.0053,-1.3e-4 -0.0066,0 -0.0027,1.6e-4 -0.01034,1e-5 -0.01324,0 -0.003,-9e-5 -0.01004,2.4e-4 -0.01324,0 -0.184689,-0.0181 -0.674661,-0.28105 -1.178522,-0.64504 -1.136133,-0.82072 -2.247673,-1.11585 -2.906579,-0.76882 -0.387622,0.20413 -0.988336,1.22624 -1.522811,2.58665 l -0.225111,0.57336 -1.330802,-0.50169 c -0.731192,-0.27302 -1.64974,-0.6192 -2.03924,-0.77535 -0.681623,-0.27325 -0.729612,-0.26322 -1.23149,0.33881 -0.472149,0.56637 -0.5150959,0.78407 -0.456843,2.27391 l 0.0662,1.64191 -1.4830836,0.35834 c -2.550451,0.61626 -2.6906787,0.70666 -2.5358087,1.61585 0.073381,0.43083 0.2809363,1.22977 0.4568428,1.77874 0.1759025,0.54896 0.2661014,1.12749 0.2052483,1.28354 -4.707e-4,9.4e-4 5.728e-4,0.006 0,0.007 -0.0026,0.005 -0.00928,0.0143 -0.013242,0.0196 -0.00106,9.3e-4 -0.00546,0.006 -0.00662,0.007 -0.1474485,0.16237 -0.8750408,0.43373 -1.7015743,0.62548 -1.68994,0.39207 -2.8002933,0.92313 -2.9992723,1.43342 -0.00303,0.008 -0.00468,0.0233 -0.00662,0.0325 -0.085578,0.47265 1.1701449,1.91819 2.2047632,2.51499 0.4565545,0.26335 0.8372306,0.59095 0.8938229,0.75579 8.594e-4,0.003 0.00595,0.0104 0.00662,0.013 2.865e-4,9.3e-4 -2.456e-4,0.006 0,0.007 1.948e-4,9.3e-4 -1.463e-4,0.006 0,0.007 1.968e-4,0.003 0,0.0107 0,0.013 -8.06e-5,9.3e-4 1.608e-4,0.006 0,0.007 -0.0012,0.007 -0.00344,0.0179 -0.00662,0.0261 -0.084867,0.20128 -0.7181198,0.8109 -1.4764629,1.41387 -0.8853781,0.70395 -1.473944,1.32848 -1.4830841,1.57022 2.1e-6,0.42085 1.2067897,1.67026 2.1716587,2.24785 0.3004261,0.17985 0.5526629,0.39994 0.5826399,0.5017 7.572e-4,0.003 -2.455e-4,0.01 0,0.0129 0,0.002 2.66e-4,0.0105 0,0.013 -1.927e-4,9.3e-4 2.66e-4,0.006 0,0.007 -9.578e-4,0.005 -0.0051,0.0145 -0.00662,0.0195 -0.1339076,0.41198 -1.9645163,2.81666 -2.3040769,3.0297 -0.00277,0.002 -0.010689,0.006 -0.013242,0.007 -0.00366,0.002 -0.010085,0.006 -0.013242,0.007 -9.958e-4,2e-4 -0.00568,-1.7e-4 -0.00662,0 -0.06443,0 -0.1182316,0.0205 -0.152281,0.0522 -0.1848176,0.18831 0.096807,0.83172 0.6422283,1.33568 0.8352221,0.77173 1.2248241,0.93571 2.595397,1.0946 0.4281429,0.0497 0.6935048,0.0441 0.8408556,0.14334 0.023619,0.0166 0.048421,0.0421 0.066209,0.0652 0.00928,0.0126 0.018746,0.0309 0.026484,0.0457 0.1301999,0.25948 0.037854,0.86617 -0.1059346,2.37165 -0.1645311,1.72258 0.052534,1.95398 1.8803387,2.00677 1.839456,0.0531 2.191705,0.2859 1.893581,1.24445 -0.121849,0.39178 -0.2791591,1.20107 -0.3509091,1.79828 -0.1204832,1.00289 -0.090492,1.11039 0.4104971,1.43342 0.693669,0.44728 2.376901,0.28663 3.442874,-0.33229 0.900577,-0.52289 1.189325,-0.44809 1.655227,0.45609 0.617119,1.19764 1.462663,2.43668 1.734677,2.54755 0.0021,8.1e-4 0.0043,0.006 0.0066,0.007 0.0012,4e-4 0.0054,-4.1e-4 0.0066,0 0.325321,0.0742 2.080743,-0.71654 3.038998,-1.37476 0.748062,-0.51385 1.20879,-0.48547 1.436738,0.0848 1.19677,2.99348 1.556782,3.7008 1.900199,3.7008 8.19e-4,0 0.0058,7e-5 0.0066,0 8.18e-4,-1.3e-4 0.0056,2e-4 0.0066,0 10e-4,-2e-4 0.0055,4e-4 0.0066,0 0.0012,-3.9e-4 0.0054,-0.006 0.0066,-0.007 0.0012,-6.1e-4 0.0053,6e-4 0.0066,0 0.165287,-0.0796 0.739605,-0.61503 1.344044,-1.2575 0.655661,-0.69692 1.329689,-1.58824 1.496325,-1.98071 0.363961,-0.85724 0.893505,-0.93012 1.582397,-0.2085 0.487815,0.51098 1.674273,1.15975 2.118692,1.15975 0.0012,-5e-5 0.0054,1.2e-4 0.0066,0 0.0012,-1.5e-4 0.0053,2.1e-4 0.0066,0 0.0027,-6e-4 0.01039,-0.006 0.01324,-0.007 0.36461,-0.10616 2.145487,-1.81102 2.462976,-2.37166 0.05961,-0.10525 0.115447,-0.18501 0.185386,-0.23454 0.179579,-0.12146 0.489646,-0.072 1.390393,0.11076 0.742234,0.15054 1.612019,0.3991 1.926683,0.55382 0.759885,0.37363 0.736591,0.38099 1.138797,-0.38441 0.256715,-0.48852 0.343587,-1.16492 0.324425,-2.52151 l -0.02648,-1.8504 0.840854,0.13683 c 0.460358,0.0765 1.152245,0.0417 1.536053,-0.0782 0.383798,-0.11993 0.969235,-0.2717 1.304318,-0.3388 l 0.609124,-0.1238 -0.119179,-1.60933 c -0.06745,-0.88291 -0.187549,-1.86083 -0.264836,-2.17617 -0.05105,-0.20833 -0.07556,-0.34449 -0.05297,-0.43004 8.19e-4,-0.003 0.0056,-0.01 0.0066,-0.013 10e-4,-0.003 0.0054,-0.0102 0.0066,-0.013 0.0012,-0.003 0.0052,-0.0105 0.0066,-0.013 0.0023,-0.004 0.004,-0.009 0.0066,-0.013 0.0045,-0.006 0.01451,-0.0144 0.01985,-0.0195 0.001,-9.4e-4 0.0055,-0.006 0.0066,-0.007 0.0012,-9.4e-4 0.0054,-0.006 0.0066,-0.007 0.0012,-7.9e-4 0.0053,-0.006 0.0066,-0.007 0.0027,-0.002 0.01043,-0.005 0.01324,-0.007 0.0028,-0.002 0.01021,-0.005 0.01324,-0.007 0.06713,-0.0294 0.170007,-0.0394 0.317805,-0.0391 0.666415,0.002 3.451165,-1.11365 3.886476,-1.53112 0.0052,-0.005 0.01543,-0.0146 0.01985,-0.0195 0.0042,-0.005 0.0098,-0.0149 0.01324,-0.0195 0.0064,-0.009 0.01672,-0.018 0.01985,-0.0261 0.224297,-0.5752 -0.422157,-1.5114 -1.549295,-2.24786 -0.576622,-0.37675 -1.053799,-0.79083 -1.132176,-0.97081 -0.0012,-0.003 -0.0056,-0.0102 -0.0066,-0.013 -0.0016,-0.006 -0.0059,-0.0145 -0.0066,-0.0195 -1.24e-4,-9.3e-4 6.4e-5,-0.006 0,-0.007 3e-6,-0.1461 0.279099,-0.43245 0.622367,-0.632 0.821081,-0.47729 2.276238,-1.7676 2.343802,-2.07193 2.04e-4,-9.3e-4 -1.83e-4,-0.006 0,-0.007 1.35e-4,-9.4e-4 -9.1e-5,-0.006 0,-0.007 4.7e-5,-9.4e-4 0,-0.006 0,-0.007 -1.41e-4,-0.005 6.14e-4,-0.0144 0,-0.0195 -0.05906,-0.43476 -1.575382,-2.44712 -2.165037,-2.8603 -0.322303,-0.22585 -0.58926,-0.50748 -0.58926,-0.62549 0,-9.3e-4 -7.8e-5,-0.006 0,-0.007 1.55e-4,-9.3e-4 -2.05e-4,-0.006 0,-0.007 4.08e-4,-9.3e-4 0.0063,-0.006 0.0066,-0.007 0.05622,-0.16772 0.670324,-0.88743 1.416875,-1.64841 1.390943,-1.41784 1.416854,-1.46569 1.112313,-1.99376 -0.481032,-0.8341 -1.252737,-1.28386 -2.641745,-1.54416 -1.654518,-0.31008 -1.964173,-0.57748 -1.489702,-1.29008 0.220761,-0.33158 0.367036,-1.02712 0.390631,-1.84389 0.03584,-1.24078 0.0086,-1.32185 -0.549534,-1.58977 -0.323941,-0.1555 -1.18201,-0.39976 -1.906824,-0.54731 l -1.317561,-0.27365 0.04635,-1.8439 c 0.02818,-1.12845 -0.02264,-1.75363 -0.158902,-1.95465 -0.0072,-0.0102 -0.01874,-0.0248 -0.02649,-0.0325 -0.0012,-9.4e-4 -0.0053,-0.006 -0.0066,-0.007 -0.0053,-0.005 -0.01434,-0.01 -0.01987,-0.013 -0.141881,-0.0888 -0.765798,-0.16112 -1.390391,-0.16287 -0.868029,-0.003 -1.427739,0.14414 -2.370284,0.63851 -1.153861,0.60521 -1.688333,0.65778 -1.688333,0.16288 -0.0051,-0.12512 -0.331622,-0.92625 -0.73492,-1.78524 l -0.741543,-1.57024 -1.006377,0.14985 c -1.061857,0.15671 -2.025483,0.55944 -2.674848,1.12068 -0.133828,0.11566 -0.228428,0.1882 -0.311183,0.20849 -0.0052,9.3e-4 -0.01467,-7.3e-4 -0.01985,0 -0.0069,7.9e-4 -0.01964,-3e-5 -0.02649,0 -0.0051,-1.2e-4 -0.01476,5.5e-4 -0.01985,0 -0.114059,-0.0155 -0.228678,-0.13779 -0.436979,-0.39092 -0.234797,-0.28535 -0.707694,-1.06039 -1.046104,-1.72009 -0.452975,-0.88306 -0.727599,-1.19886 -1.052725,-1.19886 -0.0282,0 -0.05791,-9.4e-4 -0.08607,0 z m -1.277837,11.74092 c 1.423346,-0.0461 2.876973,0.22482 4.396287,0.80142 2.822684,1.0712 5.104385,3.66968 5.912473,6.73051 0.503628,1.9076 0.4992,3.21014 -0.02648,5.24498 -0.853333,3.30309 -3.248444,5.86087 -6.389181,6.82173 -2.046972,0.62625 -3.049296,0.7453 -4.52208,0.54731 -1.374913,-0.18486 -3.005879,-0.67169 -4.045377,-1.20538 -1.74078,-0.89375 -3.71099,-3.21633 -4.541945,-5.34923 -0.68103,-1.74805 -0.692722,-5.05551 -0.01986,-6.87386 0.939862,-2.5399 2.769896,-4.58272 5.078237,-5.66849 1.384372,-0.65114 2.756659,-1.00357 4.157931,-1.04899 z"
         style="fill:#ffd309;fill-opacity:1" />
    </g>
    <g
       id="g13538"
       transform="matrix(0.21186905,0,0,0.20849601,-130.83777,170.87749)">
      <path
         id="path11763"
         d="m 735.38525,119.06088 16.31097,0.0668 -0.12509,-6.55582 -39.55299,-0.1372 -0.20422,6.5557 14.52737,0.0626 -0.0132,59.50986 8.62581,-0.0907 0.43133,-59.41117 z"
         style="fill:#ffffff;fill-opacity:1"
         sodipodi:nodetypes="ccccccccc"
         inkscape:connector-curvature="0" />
    </g>
    <g
       id="g15297"
       transform="matrix(0.21186905,0,0,0.20849601,-130.83777,170.87749)">
      <path
         id="path11781"
         d="m 726.0212,222.20674 c -0.62657,-0.40408 -2.48258,-3.65969 -4.12448,-7.23469 -3.16544,-6.8923 -3.44516,-6.81057 -4.87888,1.42552 -0.47159,2.70903 -1.40333,5.1035 -2.07055,5.32104 -2.02395,0.65988 -2.54996,-4.2486 -1.38384,-12.91353 1.59164,-11.82678 4.03873,-12.6035 8.71122,-2.76498 1.54945,3.26257 3.14972,5.93195 3.55615,5.93195 0.40643,0 1.04359,-1.6875 1.4159,-3.75 1.89471,-10.49603 4.75397,-8.9665 3.91875,2.0963 -0.96295,12.75463 -1.58216,14.18563 -5.14427,11.88839 z"
         style="fill:#000000;fill-opacity:1"
         inkscape:connector-curvature="0" />
      <path
         id="path11779"
         d="m 747.78125,197.15625 c -1.02641,0.0737 -2.39519,0.49617 -4.6875,1.21875 -4.42803,1.39581 -5.43749,2.09683 -5.4375,3.90625 0,3.00953 3.8338,16.64106 5.15625,18.375 0.005,0.006 0.0262,0.0252 0.0312,0.0312 0.55305,0.66638 1.04975,0.95124 1.4375,0.90625 0.11484,-0.0184 0.24764,-0.0801 0.34375,-0.15625 0.5826,-0.49854 0.80583,-2.0716 0.4375,-4.375 -0.32053,-2.00447 -0.4259,-2.98085 0.15625,-3.6875 0.49029,-0.56963 1.47197,-0.98234 3.15625,-1.65625 2.15073,-0.86056 4.50005,-2.29026 5.21875,-3.15625 1.97026,-2.37402 0.48831,-8.25103 -2.5625,-10.25 -1.28536,-0.84219 -2.01123,-1.24523 -3.25,-1.15625 z m -1.71875,4.96875 c 3.07946,-0.27704 4.50163,2.07614 2.59375,4.375 -0.67888,0.818 -2.3433,1.46875 -3.6875,1.46875 -0.84346,0 -1.40792,-0.0748 -1.75,-0.3125 -0.006,-0.005 -0.025,-0.0264 -0.0312,-0.0312 -0.0917,-0.0743 -0.19087,-0.17534 -0.25,-0.28125 -0.008,-0.0144 -0.0242,-0.0475 -0.0312,-0.0625 -0.0136,-0.0307 -0.0197,-0.0917 -0.0312,-0.125 -0.13519,-0.41552 -0.13416,-1.04318 -0.0312,-1.9375 0.24871,-2.16156 0.89646,-2.81336 3.0625,-3.0625 0.0497,-0.006 0.10737,-0.0268 0.15625,-0.0312 z"
         style="fill:#000000;fill-opacity:1"
         inkscape:connector-curvature="0" />
      <path
         id="path11775"
         d="m 697.3125,190.40625 c -1.78801,0.2502 -3.20452,2.44153 -5.59375,7.625 -1.71426,3.71912 -3.53442,7.022 -4.09375,7.46875 -0.009,0.006 -0.0233,0.0263 -0.0312,0.0312 -0.016,0.01 -0.0467,0.0194 -0.0625,0.0312 -0.47766,0.39157 -0.87499,1.68914 -0.875,2.96875 0,3.25849 2.75111,3.1911 4,-0.0937 1.20505,-3.16951 3.42593,-4.05411 6.5625,-2.625 2.58894,1.1796 3.14569,3.96446 1.4375,7.15625 -0.54803,1.024 -0.70686,2.57265 -0.375,3.4375 1.05741,2.75555 3.12221,1.67763 4.78125,-2.46875 0.88472,-2.21113 1.59376,-4.79344 1.59375,-5.75 0,-0.95657 0.90001,-2.28179 2,-2.96875 1.37046,-0.85586 2.00001,-2.36112 2,-4.71875 0,-3.46331 -2.60709,-6.27358 -8.6875,-9.40625 -1.03327,-0.53235 -1.87274,-0.79714 -2.65625,-0.6875 z m 1.90625,5.53125 c 1.22526,-0.0986 2.631,0.34975 3.875,1.59375 1.87901,1.87901 2.00475,3.62024 0.375,5.25 -1.75789,1.75788 -4.26327,1.44529 -6.25,-0.75 -2.6309,-2.90711 -0.7452,-5.87272 2,-6.09375 z"
         style="fill:#000000;fill-opacity:1"
         inkscape:connector-curvature="0" />
      <path
         id="path11771"
         d="m 763.76716,207.18457 c -6.6191,-11.14321 -7.57003,-13.08257 -6.79486,-13.85774 0.99712,-0.99713 3.73476,0.70688 5.12128,3.18768 0.58676,1.04984 2.52933,4.29101 4.31683,7.20259 3.35526,5.46524 4.18363,9.28295 2,9.21747 -0.6875,-0.0206 -2.77696,-2.60812 -4.64325,-5.75 z"
         style="fill:#000000;fill-opacity:1"
         inkscape:connector-curvature="0" />
      <path
         id="path11769"
         d="m 779.66041,204.20567 c -2.54196,-0.79035 -14,-12.57225 -14,-14.39571 0,-2.69612 1.77823,-3.11978 3.6956,-0.88046 2.98928,3.49123 4.18016,2.51108 4.5045,-3.70745 0.35149,-6.73915 2.0509,-7.61565 2.86977,-1.48013 0.31343,2.34843 0.98843,4.66117 1.5,5.13943 0.51157,0.47827 3.63013,1.52691 6.93013,2.33032 4.24583,1.03369 6.10244,1.98418 6.35039,3.25109 0.31742,1.6219 -0.22476,1.72527 -5.76281,1.09871 -7.8166,-0.88435 -8.69293,-0.30497 -6.03749,3.99162 2.30739,3.73345 2.28967,5.38006 -0.0501,4.65258 z"
         style="fill:#000000;fill-opacity:1"
         inkscape:connector-curvature="0" />
      <path
         id="path11767"
         d="m 671.16041,198.76423 c -3.1398,-1.80067 -4.43379,-4.01666 -4.4682,-7.6519 -0.0267,-2.8229 0.94508,-4.30087 6.08208,-9.25 5.83715,-5.62367 8.15232,-6.88661 9.27985,-5.06222 0.28148,0.45543 -2.16697,3.47884 -5.44098,6.7187 -5.91292,5.85122 -7.17248,8.83351 -4.75275,11.25324 2.10666,2.10666 4.32311,1.31968 10.70235,-3.8 3.42656,-2.75 6.62375,-5 7.10486,-5 2.40286,0 1.45349,2.09561 -2.80213,6.18529 -8.16159,7.84337 -11.26937,9.15077 -15.70508,6.60689 z"
         style="fill:#000000;fill-opacity:1"
         inkscape:connector-curvature="0" />
      <path
         id="path11755"
         d="m 787.66041,179.58052 c -4.675,-2.372 -8.6312,-4.98006 -8.79156,-5.79568 -0.44221,-2.24913 4.69407,-11.81279 6.34418,-11.81279 1.9192,0 1.83336,2.538 -0.20238,5.98424 -0.90737,1.53606 -1.3715,3.51799 -1.03139,4.40429 1.0673,2.78134 4.35231,1.83399 6.54865,-1.88853 2.51486,-4.26237 4.66083,-4.69872 3.68848,-0.75 -1.85591,7.53683 -1.8309,8.02797 0.44569,8.75053 2.51708,0.79889 3.36934,0.14108 5.87824,-4.53702 2.05988,-3.84087 4.1247,-4.99469 4.11032,-2.29684 -0.0189,3.54063 -4.8077,12.33532 -6.69423,12.29393 -0.9878,-0.0217 -5.621,-1.98013 -10.296,-4.35213 z"
         style="fill:#000000;fill-opacity:1"
         inkscape:connector-curvature="0" />
      <path
         id="path11753"
         d="m 655.11974,172.90624 c -0.75181,-1.21644 0.33062,-2.93397 1.84969,-2.93498 0.65504,-4.3e-4 4.00348,-1.33132 7.44098,-2.95754 5.93402,-2.80726 6.25,-3.13584 6.25,-6.49921 0,-5.7476 2.40738,-4.22468 5.51177,3.48678 3.01775,7.49625 2.53692,10.89202 -0.99039,6.99439 -2.34269,-2.58865 -3.63655,-2.54556 -12.32789,0.41056 -4.09722,1.39355 -7.40363,2.03481 -7.73416,1.5 z"
         style="fill:#000000;fill-opacity:1"
         inkscape:connector-curvature="0" />
    </g>
    <g
       id="g13543"
       style="fill:#000000;fill-opacity:1"
       transform="matrix(0.21186905,0,0,0.20849601,-130.83777,170.87749)">
      <path
         id="path11751"
         d="m 781.41178,118.44233 c -3.60585,-3.34354 -4.40995,-6.81622 -2.31767,-10.00943 2.09519,-3.19768 3.88931,-2.208 3.03646,1.67499 -0.71288,3.24574 1.59537,7.86416 3.93045,7.86416 3.00153,0 3.63914,-2.50315 2.02345,-7.94377 -1.78441,-6.00875 -1.51866,-7.29292 1.98418,-9.58806 5.2671,-3.451142 12.38008,1.95136 11.42375,8.67667 -0.18259,1.2841 -1.11949,2.48482 -2.08199,2.66827 -1.43282,0.27309 -1.75,-0.39836 -1.75,-3.7046 0,-3.12061 -0.49325,-4.30212 -2.17083,-5.19994 -1.77647,-0.95073 -2.39349,-0.8573 -3.39644,0.51431 -0.97175,1.32896 -0.94652,2.73401 0.12183,6.78393 1.46101,5.53843 0.83332,7.98005 -2.51174,9.77027 -3.04436,1.62929 -5.36391,1.20776 -8.29145,-1.5068 z"
         style="fill:#000000;fill-opacity:1"
         inkscape:connector-curvature="0" />
      <path
         id="path11749"
         d="m 666.0236,105.43372 c -5.81129,-5.699242 -7.4048,-7.820062 -6.53173,-8.693132 0.87308,-0.87308 1.86452,-0.63009 4.0639,0.99597 l 2.90908,2.15078 0.63818,-2.54269 c 0.35099,-1.39847 0.38353,-3.34498 0.0723,-4.32556 -0.73312,-2.30986 1.17965,-7.35383 2.4832,-6.5482 0.55103,0.34056 1.00187,2.39264 1.00187,4.56018 0,4.34798 2.40574,7.57627 6.22456,8.3528 7.02584,1.428642 7.88489,1.757762 7.50435,2.875062 -0.27822,0.81691 -2.26107,1.0996 -6.07104,0.86554 -6.41605,-0.39415 -7.30023,0.9442 -3.6715,5.55739 1.91027,2.4285 1.90136,4.29019 -0.0205,4.29019 -0.50386,0 -4.37506,-3.39225 -8.60265,-7.53833 z"
         style="fill:#000000;fill-opacity:1"
         inkscape:connector-curvature="0" />
      <path
         id="path11747"
         d="m 775.3125,81.96875 c -2.03745,0.169681 -6.39087,2.958213 -9.8125,6.28125 -0.73511,0.71393 -2.80624,2.305649 -4.59375,3.5625 -2.46445,1.732829 -3.75726,3.95976 -3.125,4.8125 0.17266,0.212583 0.49371,0.34375 0.9375,0.34375 0.57731,0 2.30307,-0.64078 3.84375,-1.4375 4.08606,-2.11299 7.09376,0.158127 7.09375,5.34375 0,2.07714 0.28957,4.07084 0.65625,4.4375 0.29791,0.29792 0.66909,0.54026 0.875,0.625 0.015,0.005 0.0493,0.0279 0.0625,0.0312 0.006,0.001 0.0256,-5.8e-4 0.0312,0 0.006,0 0.0256,5e-4 0.0312,0 0.0115,-0.002 0.0506,0.004 0.0625,0 0.006,-0.002 0.0251,-0.0283 0.0312,-0.0312 0.0125,-0.007 0.0496,-0.0225 0.0625,-0.0312 0.007,-0.005 0.0246,-0.026 0.0312,-0.0312 0.0338,-0.0287 0.089,-0.085 0.125,-0.125 1.73602,-2.00948 5.961,-16.47339 6,-21.03125 0.0185,-2.15678 -0.43438,-2.749998 -2.125,-2.75 -0.0608,0 -0.12178,-0.0055 -0.1875,0 z m -4,6.03125 c 0.0349,-0.007 0.0907,0.0032 0.125,0 0.0342,-0.0022 0.0915,-0.0016 0.125,0 0.0333,0.0026 0.0925,-0.0064 0.125,0 0.0242,0.0055 0.0701,0.02367 0.0937,0.03125 0.10158,0.03586 0.22381,0.113147 0.3125,0.1875 0.007,0.0059 0.0246,0.02509 0.0312,0.03125 0.0131,0.01278 0.0498,0.04884 0.0625,0.0625 0.2818,0.317239 0.46875,0.86029 0.46875,1.59375 0,0.867376 -0.30947,1.812832 -0.71875,2.3125 -0.0636,0.07433 -0.15079,0.166701 -0.21875,0.21875 -0.0171,0.01225 -0.0452,0.02055 -0.0625,0.03125 -0.0572,0.03538 -0.13053,0.07325 -0.1875,0.09375 -0.0853,0.02717 -0.19792,0.03443 -0.28125,0.03125 -0.0646,-0.0049 -0.15627,-0.01 -0.21875,-0.03125 -0.91411,-0.345735 -1.57366,-2.3502 -0.84375,-3.53125 0.23981,-0.388013 0.52099,-0.677143 0.78125,-0.84375 0.0538,-0.03295 0.13399,-0.06986 0.1875,-0.09375 0.0534,-0.0224 0.13485,-0.049 0.1875,-0.0625 0.009,-0.002 0.0225,-0.02949 0.0312,-0.03125 z"
         style="fill:#000000;fill-opacity:1"
         inkscape:connector-curvature="0" />
      <path
         id="path11743"
         d="m 689.25,74.1875 c -0.45678,0.04769 -0.89624,0.324826 -1.46875,0.6875 -0.16877,0.106915 -0.317,0.242546 -0.4375,0.40625 -0.67062,0.952431 -0.5682,3.10294 0.25,9.3125 0.64259,4.87679 1.36618,9.887502 1.625,11.125 0.77727,3.71623 3.43751,2.772573 3.4375,-1.21875 0,-5.4638 5.19004,-7.399709 8.96875,-3.34375 1.48475,1.5937 2.35876,1.891219 3.15625,1.09375 1.5067,-1.5067 0.53472,-2.965797 -7.46875,-11.21875 -5.31402,-5.479664 -6.79963,-6.975603 -8.0625,-6.84375 z m 3.21875,7.78125 c 0.007,-0.0017 0.0237,0.0013 0.0312,0 0.0152,-0.0017 0.0471,0 0.0625,0 0.009,0 0.0225,-3.15e-4 0.0312,0 0.0438,0.0031 0.11287,0.02065 0.15625,0.03125 0.0433,0.01203 0.11366,0.04363 0.15625,0.0625 0.034,0.01614 0.0916,0.04236 0.125,0.0625 0.8633,0.548628 1.50446,2.396548 0.96875,3.15625 -0.0215,0.02842 -0.0375,0.06871 -0.0625,0.09375 -0.15047,0.150471 -0.32454,0.281562 -0.46875,0.375 -0.0539,0.03373 -0.13487,0.06781 -0.1875,0.09375 -0.0437,0.02055 -0.1136,0.04727 -0.15625,0.0625 -0.0764,0.02551 -0.17748,0.05387 -0.25,0.0625 -0.024,0.0023 -0.0702,-4.18e-4 -0.0937,0 -0.0234,-1.93e-4 -0.0709,0.002 -0.0937,0 -0.0151,-0.0017 -0.0476,0.0025 -0.0625,0 -0.0221,-0.0044 -0.0722,-0.02504 -0.0937,-0.03125 -0.0498,-0.01587 -0.10977,-0.03705 -0.15625,-0.0625 -0.0131,-0.0077 -0.0497,-0.02282 -0.0625,-0.03125 -0.39343,-0.273132 -0.65625,-0.93086 -0.65625,-1.875 0,-0.825 0.24227,-1.539062 0.5625,-1.84375 0.0135,-0.01198 0.0487,-0.05198 0.0625,-0.0625 0.014,-0.0098 0.0483,-0.02299 0.0625,-0.03125 0.0144,-0.0075 0.0479,-0.02536 0.0625,-0.03125 0.0147,-0.0051 0.0475,-0.02782 0.0625,-0.03125 z"
         style="fill:#000000;fill-opacity:1"
         inkscape:connector-curvature="0" />
      <path
         id="path11739"
         d="m 742.09008,92.007348 c -2.64268,-1.06957 -5.74764,-5.76431 -5.03704,-7.61609 0.83313,-2.1711 2.55305,-1.69228 3.57484,0.99522 1.03262,2.71601 4.03979,4.03543 7.03253,3.08557 3.42065,-1.08567 2.32994,-4.1166 -2.5,-6.94713 -4.08214,-2.3923 -4.5,-2.9903 -4.5,-6.44004 0,-4.63369 2.39596,-7.11283 6.8742,-7.11283 3.66515,0 8.45924,4.0373 7.94462,6.6905 -0.50769,2.61752 -2.37593,2.57694 -3.58555,-0.07787 -1.49955,-3.29116 -5.17467,-4.41325 -6.86833,-2.09704 -1.73642,2.3747 -0.32147,4.80262 3.99169,6.84935 5.34191,2.5349 6.24114,7.12819 2.18882,11.18051 -2.5061,2.50611 -5.42581,2.98329 -9.11578,1.48985 z"
         style="fill:#000000;fill-opacity:1"
         inkscape:connector-curvature="0" />
      <path
         id="path11737"
         d="m 712.16659,88.805208 c -0.70378,-1.89595 -2.14488,-19.41705 -1.70547,-20.7353 0.94179,-2.82537 4.34702,-0.77058 8.25163,4.97921 2.26977,3.34239 4.39963,5.80429 4.73303,5.47089 0.33339,-0.33339 0.63058,-3.1409 0.6604,-6.23891 0.0335,-3.48042 0.51777,-5.78909 1.26735,-6.04193 1.6546,-0.55812 2.27094,2.63237 2.55005,13.20021 0.30587,11.58149 -0.97831,11.99879 -7.72883,2.51149 -2.73111,-3.83835 -5.13796,-6.97882 -5.34857,-6.97882 -0.2106,0 -0.22605,3.21868 -0.0343,7.15262 0.2478,5.08484 -0.0126,7.27708 -0.9009,7.58316 -0.68721,0.23679 -1.47217,-0.16939 -1.74435,-0.90262 z"
         style="fill:#000000;fill-opacity:1"
         inkscape:connector-curvature="0" />
    </g>
    <path
       style="font-size:47.54439926px;font-style:normal;font-variant:normal;font-weight:bold;font-stretch:normal;text-align:start;line-height:125%;writing-mode:lr-tb;text-anchor:start;fill:#ffffff;fill-opacity:1;stroke:none;font-family:Nimbus Sans L Condensed"
       d="m 28.063324,202.83458 1.894974,0 0.331839,1.58271 1.170166,0 -1.816378,-7.67828 -1.240029,0 -1.833844,7.67828 1.135235,0 0.358037,-1.58271 m 0.951852,-4.39524 0.646212,3.07987 -1.309886,0 0.663674,-3.07987"
       id="text1327"
       inkscape:connector-curvature="0" />
    <path
       style="font-size:47.54441071px;font-style:normal;font-variant:normal;font-weight:bold;font-stretch:normal;text-align:start;line-height:125%;writing-mode:lr-tb;text-anchor:start;fill:#ffffff;fill-opacity:1;stroke:none;font-family:Nimbus Sans L Condensed"
       d="m 17.99414,201.81865 0.497758,-0.76997 1.598065,3.36861 1.379751,0 -2.21808,-4.53425 2.095819,-3.14403 -1.388481,0 -1.964832,3.12263 0,-3.12263 -1.074108,0 0,7.67828 1.074108,0 0,-2.59864"
       id="text2208"
       inkscape:connector-curvature="0" />
  </g>
</svg>
