<?xml version="1.0" encoding="UTF-8" standalone="no"?>
<!-- Created with Inkscape (http://www.inkscape.org/) -->

<svg
   xmlns:dc="http://purl.org/dc/elements/1.1/"
   xmlns:cc="http://creativecommons.org/ns#"
   xmlns:rdf="http://www.w3.org/1999/02/22-rdf-syntax-ns#"
   xmlns:svg="http://www.w3.org/2000/svg"
   xmlns="http://www.w3.org/2000/svg"
   xmlns:sodipodi="http://sodipodi.sourceforge.net/DTD/sodipodi-0.dtd"
   xmlns:inkscape="http://www.inkscape.org/namespaces/inkscape"
   version="1.0"
   width="48"
   height="48"
   id="svg2"
   inkscape:version="0.48.1 r9760"
   sodipodi:docname="US:MO_2D.svg">
  <metadata
     id="metadata9">
    <rdf:RDF>
      <cc:Work
         rdf:about="">
        <dc:format>image/svg+xml</dc:format>
        <dc:type
           rdf:resource="http://purl.org/dc/dcmitype/StillImage" />
      </cc:Work>
    </rdf:RDF>
  </metadata>
  <sodipodi:namedview
     pagecolor="#ffffff"
     bordercolor="#666666"
     borderopacity="1"
     objecttolerance="10"
     gridtolerance="10"
     guidetolerance="10"
     inkscape:pageopacity="0"
     inkscape:pageshadow="2"
     inkscape:window-width="1598"
     inkscape:window-height="1182"
     id="namedview7"
     showgrid="true"
     inkscape:showpageshadow="false"
     inkscape:zoom="19.916667"
     inkscape:cx="24"
     inkscape:cy="24"
     inkscape:window-x="1"
     inkscape:window-y="1"
     inkscape:window-maximized="0"
     inkscape:current-layer="svg2">
    <inkscape:grid
       type="xygrid"
       id="grid3011"
       empspacing="5"
       visible="true"
       enabled="true"
       snapvisiblegridlinesonly="true" />
  </sodipodi:namedview>
  <defs
     id="defs4" />
  <g
     id="g3790">
    <path
       inkscape:connector-curvature="0"
       id="path3787"
       d="m 2.3996866,2.0011341 a 1.0043325,1.0042586 0 0 0 -0.250012,0.062498 C 1.7852852,2.1934865 1.5082134,2.4091301 1.2746328,2.7511148 1.0410523,3.0930995 0.89870622,3.641133 1.0871239,4.1573286 1.2018514,4.4716403 1.5255153,5.2395457 1.8684112,6.157277 2.2113071,7.0750084 2.5654207,8.1310556 2.68095,8.6572126 c 0.3913919,1.7825224 1.530702,2.6159464 1.8750896,4.9686214 0.3674804,2.510434 1.04941,9.272358 1.0625507,9.406008 1.293e-4,0.0013 0,0.09375 0,0.09375 l 0,15.937089 c -8.929e-4,0.13472 -0.024266,0.254284 0,0.437489 0.024266,0.183204 0.1156578,0.467535 0.3437664,0.718731 0.2281086,0.251196 0.5163308,0.367589 0.7187844,0.40624 0.2024535,0.03865 0.3629846,0.03125 0.5312754,0.03125 l 27.0637935,0 c 0.08619,0.23543 0.113038,0.512761 0.125006,0.468738 0.01635,-0.06016 -0.119471,0.274331 -0.312515,0.624984 -0.193045,0.350653 -0.442417,0.786012 -0.687533,1.187469 -0.490234,0.802913 -0.968797,1.499961 -0.968797,1.499961 A 1.0043325,1.0042586 0 0 0 33.276162,46 l 7.75037,0 a 1.0043325,1.0042586 0 0 0 0.937545,-0.656233 c 0,0 0.1956,-0.579351 0.406269,-1.218719 0.210669,-0.639367 0.447055,-1.250117 0.531276,-1.781204 -0.03553,0.224067 -0.08022,0.179957 0.03125,0.0625 0.111475,-0.117458 0.323836,-0.310812 0.562527,-0.531237 0.477384,-0.440849 1.100486,-1.047588 1.437569,-1.968699 0.175244,-0.478867 0.280509,-0.549367 0.625029,-0.874977 0.344521,-0.325611 0.888726,-0.869352 1.281312,-1.812454 0.20873,-0.501427 0.170281,-0.907401 0.125006,-1.374964 -0.04527,-0.467563 -0.146167,-0.98202 -0.281264,-1.531211 -0.270193,-1.09838 -0.693701,-2.359607 -1.125054,-3.562408 -0.838343,-2.337667 -1.667861,-4.35003 -1.718832,-4.468635 -0.0095,-0.193249 -0.106172,-1.789865 -0.250012,-3.718654 -0.07613,-1.020883 -0.145525,-2.080402 -0.250012,-2.968673 -0.104487,-0.888271 -0.17125,-1.478026 -0.43752,-2.093696 -0.314566,-0.727341 -0.781071,-1.353473 -1.218809,-1.874952 -0.437738,-0.52148 -0.891328,-1.010253 -0.906293,-1.031223 0.02836,0.03974 -0.210903,-0.413158 -0.343766,-0.874978 -0.132864,-0.46182 -0.218761,-0.993842 -0.218761,-1.343715 0,-0.649212 -0.234674,-1.037728 -0.500024,-1.531211 C 39.44862,10.351173 39.102075,9.8173293 38.745173,9.3134457 38.03137,8.3056784 37.356375,7.435987 36.838832,6.9697561 c -0.02476,-0.022303 -0.0367,0.06886 0,-0.2499936 0.0367,-0.3188538 0.206672,-0.8446011 0.125006,-1.5312105 C 36.864221,4.3509758 36.443162,3.8045279 36.088796,3.2823511 35.73443,2.7601744 35.401263,2.3761245 35.401263,2.3761245 A 1.0043325,1.0042586 0 0 0 34.619976,2.0011341 l -32.126535,0 a 1.0043325,1.0042586 0 0 0 -0.093754,0 z"
       style="fill:#000000;fill-rule:evenodd;stroke:none" />
    <path
       d="M 2.5105531,3 34.612029,3 c 0,0 1.245731,1.5107915 1.341556,2.316547 0.09583,0.8057554 -0.479127,1.8129494 0.191649,2.4172658 0.670776,0.6043166 3.06641,3.6258992 3.06641,4.6330942 0,1.007192 0.479126,2.417265 0.766602,2.820143 0.287476,0.402878 1.533206,1.611511 2.01233,2.719423 0.479127,1.107915 0.862429,8.66187 0.862429,8.66187 0,0 3.737185,8.661872 3.066409,10.273382 -0.670776,1.611512 -1.437379,1.410074 -1.916509,2.719424 -0.479124,1.309353 -2.012329,2.014388 -2.108153,2.618706 C 41.798925,42.78417 41.032323,45 41.032323,45 l -7.761846,0 c 0,0 1.916503,-2.920863 2.108155,-3.6259 0.191649,-0.705039 -0.479127,-1.712233 -0.479127,-1.712233 l -27.6935127,0 c -0.5755861,0 -0.578331,-0.09443 -0.5749517,-0.604313 l 0,-16.014389 c 0,0 -0.670777,-6.949641 -1.0540782,-9.568346 C 5.1936614,10.856115 3.9479326,9.7482011 3.6604568,8.4388489 3.3729807,7.1294964 2.2073508,4.2877591 2.0314266,3.8057556 1.8960526,3.434853 2.2245768,3.1019181 2.5105531,3 z"
       style="fill:#ffffff;fill-rule:evenodd;stroke:none"
       id="path2821"
       inkscape:connector-curvature="0" />
  </g>
  <text
     xml:space="preserve"
     style="font-size:32px;font-style:normal;font-variant:normal;font-weight:normal;font-stretch:normal;text-align:center;line-height:125%;letter-spacing:0px;word-spacing:0px;writing-mode:lr;text-anchor:middle;fill:#000000;fill-opacity:1;stroke:none;font-family:Roadgeek 2005 Series D;-inkscape-font-specification:Roadgeek 2005 Series D"
     x="23"
     y="33"
     id="text2988"
     sodipodi:linespacing="125%"><tspan
       sodipodi:role="line"
       id="tspan3794">%num%</tspan></text>
</svg>
