<?xml version="1.0" encoding="UTF-8" standalone="no"?>
<!-- Created with Inkscape (http://www.inkscape.org/) -->

<svg
   xmlns:dc="http://purl.org/dc/elements/1.1/"
   xmlns:cc="http://creativecommons.org/ns#"
   xmlns:rdf="http://www.w3.org/1999/02/22-rdf-syntax-ns#"
   xmlns:svg="http://www.w3.org/2000/svg"
   xmlns="http://www.w3.org/2000/svg"
   xmlns:sodipodi="http://sodipodi.sourceforge.net/DTD/sodipodi-0.dtd"
   xmlns:inkscape="http://www.inkscape.org/namespaces/inkscape"
   version="1.0"
   width="60"
   height="48"
   id="svg2"
   inkscape:version="0.48.1 r9760"
   sodipodi:docname="US:MO_3D.svg">
  <metadata
     id="metadata9">
    <rdf:RDF>
      <cc:Work
         rdf:about="">
        <dc:format>image/svg+xml</dc:format>
        <dc:type
           rdf:resource="http://purl.org/dc/dcmitype/StillImage" />
        <dc:title></dc:title>
      </cc:Work>
    </rdf:RDF>
  </metadata>
  <sodipodi:namedview
     pagecolor="#ffffff"
     bordercolor="#666666"
     borderopacity="1"
     objecttolerance="10"
     gridtolerance="10"
     guidetolerance="10"
     inkscape:pageopacity="0"
     inkscape:pageshadow="2"
     inkscape:window-width="1598"
     inkscape:window-height="1182"
     id="namedview7"
     showgrid="true"
     inkscape:showpageshadow="false"
     inkscape:zoom="19.916667"
     inkscape:cx="30"
     inkscape:cy="24"
     inkscape:window-x="1"
     inkscape:window-y="1"
     inkscape:window-maximized="0"
     inkscape:current-layer="svg2">
    <inkscape:grid
       type="xygrid"
       id="grid3011"
       empspacing="5"
       visible="true"
       enabled="true"
       snapvisiblegridlinesonly="true" />
  </sodipodi:namedview>
  <defs
     id="defs4" />
  <g
     id="g3823">
    <path
       sodipodi:nodetypes="ccssssscccssssccssccccsccsssscsscsssscsssscssscccc"
       inkscape:connector-curvature="0"
       id="path3787"
       d="m 2.398826,2.0011341 c -0.085504,0.01 -0.1697109,0.03106 -0.2498583,0.062498 C 1.7848024,2.1934865 1.5079009,2.4091301 1.2744639,2.7511148 1.0410271,3.0930995 0.8987685,3.641133 1.0870703,4.1573286 c 0.114657,0.3143117 0.4381219,1.0822171 0.7808069,1.9999484 0.3426851,0.9177314 0.696581,1.9737786 0.8120392,2.4999356 0.3911513,1.7825224 1.5297609,2.6159464 1.8739367,4.9686214 0.3672545,2.510434 1.0487648,9.272358 1.0618974,9.406008 1.292e-4,0.0013 0,0.09375 0,0.09375 l 0,15.937089 c -8.924e-4,0.13472 -0.024251,0.254284 0,0.437489 0.024251,0.183204 0.1155867,0.467535 0.343555,0.718731 0.2279683,0.251196 0.5160133,0.367589 0.7183424,0.40624 0.2023291,0.03865 0.3627615,0.03125 0.5309488,0.03125 l 39.0754373,0 c 0.08614,0.23543 0.112969,0.512761 0.124929,0.468738 0.01634,-0.06016 -0.119397,0.274331 -0.312323,0.624984 -0.192926,0.350653 -0.442145,0.786012 -0.68711,1.187469 -0.489932,0.802913 -0.968201,1.499961 -0.968201,1.499961 C 44.037925,45.041134 44.558914,46.00645 45.284601,46 l 7.745605,0 c 0.405624,-0.0018 0.796402,-0.275533 0.936968,-0.656233 0,0 0.19548,-0.579351 0.406019,-1.218719 0.21054,-0.639367 0.44678,-1.250117 0.53095,-1.781204 -0.03551,0.224067 -0.08017,0.179957 0.03123,0.0625 0.111407,-0.117458 0.323637,-0.310812 0.562182,-0.531237 0.47709,-0.440849 1.099809,-1.047588 1.436685,-1.968699 0.175136,-0.478867 0.280336,-0.549367 0.624644,-0.874977 0.34431,-0.325611 0.88818,-0.869352 1.280525,-1.812454 0.208601,-0.501427 0.170176,-0.907401 0.124929,-1.374964 -0.04524,-0.467563 -0.146077,-0.98202 -0.281091,-1.531211 -0.270027,-1.09838 -0.693275,-2.359607 -1.124363,-3.562408 -0.837827,-2.337667 -1.666835,-4.35003 -1.717775,-4.468635 -0.0095,-0.193249 -0.106107,-1.789865 -0.249858,-3.718654 -0.07608,-1.020883 -0.145436,-2.080402 -0.249858,-2.968673 -0.104423,-0.888271 -0.171145,-1.478026 -0.437251,-2.093696 -0.314373,-0.727341 -0.780591,-1.353473 -1.21806,-1.874952 -0.437469,-0.52148 -0.89078,-1.010253 -0.905736,-1.031223 0.02834,0.03974 -0.210773,-0.413158 -0.343554,-0.874978 -0.132783,-0.46182 -0.218627,-0.993842 -0.218627,-1.343715 0,-0.649212 -0.23453,-1.037728 -0.499716,-1.531211 C 51.453264,10.351173 51.106932,9.8173293 50.750249,9.3134457 50.036885,8.3056784 49.362305,7.435987 48.84508,6.9697561 c -0.02474,-0.022303 -0.03668,0.06886 0,-0.2499936 C 48.881758,6.4009087 49.051625,5.8751614 48.97001,5.188552 48.870454,4.3509758 48.449654,3.8045279 48.095506,3.2823511 47.741358,2.7601744 47.408395,2.3761245 47.408395,2.3761245 47.221354,2.1433638 46.92609,2.0015598 46.627589,2.0011341 l -44.1350663,0 c -0.03121,-0.00146 -0.062486,-0.00146 -0.093696,0 z"
       style="fill:#000000;fill-rule:evenodd;stroke:none" />
    <path
       sodipodi:nodetypes="ccssssscsssccscsccsssc"
       d="M 2.5098195,3 46.628393,3 c 0,0 1.243941,1.5107915 1.339629,2.316547 0.09569,0.8057554 -0.478439,1.8129494 0.191373,2.4172658 0.669812,0.6043166 3.062004,3.6258992 3.062004,4.6330942 0,1.007192 0.478437,2.417265 0.7655,2.820143 0.287063,0.402878 1.531003,1.611511 2.009439,2.719423 0.478438,1.107915 0.861189,8.66187 0.861189,8.66187 0,0 3.731815,8.661872 3.062003,10.273382 -0.669812,1.611512 -1.435314,1.410074 -1.913755,2.719424 -0.478436,1.309353 -2.009437,2.014388 -2.105124,2.618706 C 53.804962,42.78417 53.039462,45 53.039462,45 l -7.750693,0 c 0,0 1.913749,-2.920863 2.105126,-3.6259 0.191373,-0.705039 -0.478439,-1.712233 -0.478439,-1.712233 l -39.7169445,0 c -0.574759,0 -0.5775,-0.09443 -0.5741255,-0.604313 l 0,-16.014389 c 0,0 -0.6698132,-6.949641 -1.0525636,-9.568346 C 5.1890722,10.856115 3.9451335,9.7482011 3.6580708,8.4388489 3.3710078,7.1294964 2.2070528,4.2877591 2.0313814,3.8057556 1.896202,3.434853 2.2242541,3.1019181 2.5098195,3 z"
       style="fill:#ffffff;fill-rule:evenodd;stroke:none"
       id="path2821"
       inkscape:connector-curvature="0" />
  </g>
  <text
     xml:space="preserve"
     style="font-size:28px;font-style:normal;font-variant:normal;font-weight:normal;font-stretch:normal;text-align:center;line-height:125%;letter-spacing:0px;word-spacing:0px;writing-mode:lr;text-anchor:middle;fill:#000000;fill-opacity:1;stroke:none;font-family:Roadgeek 2005 Series C;-inkscape-font-specification:Roadgeek 2005 Series C"
     x="29"
     y="32"
     id="text2988"
     sodipodi:linespacing="125%"><tspan
       sodipodi:role="line"
       id="tspan3827">%num%</tspan></text>
</svg>
