<?xml version="1.0" encoding="UTF-8" standalone="no"?>
<!-- Generator: Adobe Illustrator 12.0.1, SVG Export Plug-In . SVG Version: 6.00 Build 51448)  -->

<svg
   xmlns:dc="http://purl.org/dc/elements/1.1/"
   xmlns:cc="http://creativecommons.org/ns#"
   xmlns:rdf="http://www.w3.org/1999/02/22-rdf-syntax-ns#"
   xmlns:svg="http://www.w3.org/2000/svg"
   xmlns="http://www.w3.org/2000/svg"
   xmlns:sodipodi="http://sodipodi.sourceforge.net/DTD/sodipodi-0.dtd"
   xmlns:inkscape="http://www.inkscape.org/namespaces/inkscape"
   version="1.1"
   id="Layer_1"
   width="48"
   height="48"
   viewBox="0 0 48 48"
   overflow="visible"
   enable-background="new 0 0 113.025 113.745"
   xml:space="preserve"
   sodipodi:version="0.32"
   inkscape:version="0.48.1 r9760"
   sodipodi:docname="US:MT:Secondary_2.5.svg"
   style="overflow:visible"><metadata
   id="metadata24"><rdf:RDF><cc:Work
       rdf:about=""><dc:format>image/svg+xml</dc:format><dc:type
         rdf:resource="http://purl.org/dc/dcmitype/StillImage" /><dc:title /></cc:Work></rdf:RDF></metadata><defs
   id="defs22">
	
	
	
	
	
	
	
	
</defs><sodipodi:namedview
   inkscape:window-height="996"
   inkscape:window-width="1278"
   inkscape:pageshadow="2"
   inkscape:pageopacity="0.0"
   guidetolerance="10.0"
   gridtolerance="10.0"
   objecttolerance="10.0"
   borderopacity="1.0"
   bordercolor="#666666"
   pagecolor="#ffffff"
   id="base"
   showguides="true"
   inkscape:guide-bbox="true"
   inkscape:zoom="16.895833"
   inkscape:cx="24"
   inkscape:cy="24"
   inkscape:window-x="1"
   inkscape:window-y="27"
   inkscape:current-layer="Layer_1"
   showgrid="true"
   inkscape:showpageshadow="false"
   inkscape:window-maximized="0"><inkscape:grid
     type="xygrid"
     id="grid3098"
     empspacing="5"
     visible="true"
     enabled="true"
     snapvisiblegridlinesonly="true" /></sodipodi:namedview>
<g
   id="g3109"><path
     transform="matrix(1.000513,0,0,0.99936808,4.5263098e-4,0.01494534)"
     d="M 22.84375,1.03125 C 21.915985,1.1496558 21.397866,1.4940371 21.15625,1.5 19.707105,1.5360093 17.669561,0.74984433 15.46875,1.46875 14.498826,1.0854979 13.426577,0.98195813 12.375,1.0625 11.170312,1.1547688 10.036791,1.4174173 9.15625,1.9375 a 1.0062659,1.0062659 0 0 0 -0.5,1 c 0.084451,0.7194062 -0.1895315,1.4247596 0,2.78125 a 1.0062659,1.0062659 0 0 0 0.28125,0.5625 c 0.8782088,0.9235361 1.989968,1.0253853 2.71875,1.3125 0.364391,0.1435573 0.614917,0.3249332 0.71875,0.4375 0.103833,0.1125668 0.148042,0.1527646 0.125,0.46875 -0.01718,0.2357893 -0.05463,0.2409796 -0.0625,0.25 -0.0079,0.00902 -0.04821,0.070369 -0.21875,0.125 -0.341072,0.1092615 -1.086944,0.1503622 -1.9375,0.46875 C 9.83261,9.511914 9.542305,9.7332354 9.3125,9.90625 9.082695,10.079265 8.9114866,10.214517 8.8125,10.25 8.5562709,10.3419 7.9975803,10.236439 7.1875,10.5625 6.7157839,10.752432 6.4265329,11.03764 6.09375,11.375 5.7609671,11.71236 5.4272141,12.126858 5.125,12.5625 4.5205719,13.433785 3.9551284,14.313423 4,15.4375 c 0.029273,0.73197 0.4195328,1.230221 0.65625,1.53125 0.2367172,0.301029 0.3121515,0.466776 0.3125,0.46875 0.031587,0.178554 0.00636,0.518093 -0.0625,0.96875 -0.068856,0.450657 -0.1699526,0.999847 -0.09375,1.625 0.1024817,0.841579 0.4326776,1.519502 0.71875,2.09375 0.2860724,0.574248 0.5163723,1.051847 0.5625,1.34375 0.018435,0.116439 -0.182261,0.719339 -0.15625,1.59375 0.088027,2.959576 1.7360251,4.752126 3.25,6.3125 0.2991167,3.207593 2.052816,5.324296 4.40625,6.53125 0.881609,1.942473 2.289747,3.499133 4.28125,4.40625 1.337696,2.236077 3.408989,3.838793 6.09375,4.65625 a 1.0062659,1.0062659 0 0 0 0.6875,-0.03125 c 2.427092,-1.026478 4.487647,-2.583913 5.84375,-4.84375 1.93955,-0.857828 3.279522,-2.381501 4.0625,-4.3125 2.503296,-1.095896 4.115414,-3.348955 4.40625,-6.5 2.014643,-1.670304 3.581535,-4.390697 3.125,-7.9375 0.802505,-1.477933 1.472402,-3.517695 1.09375,-5.84375 0.746653,-1.038121 0.959599,-2.304816 0.65625,-3.40625 C 43.496728,12.833745 42.709075,11.729931 41.6875,11 c -0.520558,-0.371968 -1.067339,-0.472177 -1.46875,-0.53125 -0.401411,-0.05907 -0.712366,-0.09975 -1,-0.21875 -0.08123,-0.03362 -0.185246,-0.107686 -0.375,-0.28125 C 38.653996,9.7951865 38.378521,9.5206763 37.90625,9.34375 37.243093,9.0955049 36.674458,9.0531843 36.34375,9 36.013042,8.9468157 36.000256,8.9514765 35.90625,8.84375 35.543372,8.4281754 35.621099,8.3583247 35.625,8.34375 c 0.0039,-0.014575 0.117642,-0.2105827 0.46875,-0.4375 0.702216,-0.4538345 1.990387,-0.8649056 2.96875,-1.46875 a 1.0062659,1.0062659 0 0 0 0.46875,-0.75 c 0.127807,-1.2673084 -0.07354,-2.0346156 0,-2.78125 a 1.0062659,1.0062659 0 0 0 -0.375,-0.875 C 38.01837,1.1512057 36.713662,0.99707377 35.59375,1.09375 34.473838,1.1904262 33.447677,1.469945 32.5625,1.5 32.538741,1.500801 32.300615,1.4760695 32.03125,1.40625 31.761885,1.3364305 31.452247,1.2263772 31.0625,1.1875 29.343119,1.0170348 27.883053,1.5400375 26.84375,1.5 c -1.171261,-0.044928 -2.276228,-0.68843168 -4,-0.46875 z"
     id="path3107"
     style="fill:#000000;fill-rule:evenodd"
     inkscape:original="M 22.96875 2.03125 C 22.383671 2.1059206 21.817139 2.484461 21.1875 2.5 C 19.32889 2.546184 17.330869 1.7122896 15.4375 2.5 C 13.840012 1.6773282 10.987713 2.0260846 9.65625 2.8125 C 9.7689866 3.7728592 9.4958332 4.4456353 9.65625 5.59375 C 10.686039 6.6766898 13.658188 6.3931675 13.5 8.5625 C 13.38637 10.121951 11.967158 9.7788413 10.625 10.28125 C 10.15979 10.455625 9.7221661 10.984638 9.15625 11.1875 C 8.6135051 11.382162 7.9925073 11.32692 7.5625 11.5 C 6.7327864 11.834076 4.9514293 14.189507 5 15.40625 C 5.0289642 16.130511 5.8466546 16.558542 5.96875 17.25 C 6.1126798 18.063608 5.7100113 19.06545 5.8125 19.90625 C 5.9644508 21.154069 6.9257574 22.249415 7.09375 23.3125 C 7.1801971 23.858502 6.9223495 24.521936 6.9375 25.03125 C 7.0190455 27.772914 8.5515741 29.322802 10.125 30.9375 C 10.296558 34.189341 11.940998 36.035328 14.3125 37.15625 C 15.123052 39.16761 16.46086 40.648411 18.46875 41.5 C 19.658064 43.71379 21.606234 45.195025 24.25 46 C 26.668735 44.977056 28.671426 43.54416 29.875 41.34375 C 31.888683 40.549133 33.172283 39.063586 33.875 37 C 36.397562 36.025398 37.879746 34.052946 38.03125 30.78125 C 40.056072 29.259782 41.68551 26.719289 41.09375 23.15625 C 41.938168 21.679239 42.757039 19.575149 42.21875 17.25 C 43.826042 15.615016 42.727777 12.980038 41.09375 11.8125 C 40.468567 11.365771 39.718024 11.5492 38.84375 11.1875 C 38.29833 10.961762 38.040632 10.460372 37.5625 10.28125 C 36.542068 9.8992632 35.735534 10.163835 35.15625 9.5 C 33.205843 7.2663561 37.014416 6.5299382 38.53125 5.59375 C 38.642205 4.4935453 38.43857 3.7534362 38.53125 2.8125 C 36.738143 1.4256982 34.665806 2.429646 32.59375 2.5 C 32.120073 2.5159699 31.462033 2.236705 30.96875 2.1875 C 29.549504 2.0467912 28.134606 2.550932 26.8125 2.5 C 25.38345 2.4451839 24.350565 1.8551481 22.96875 2.03125 z "
     inkscape:radius="1.0061653"
     sodipodi:type="inkscape:offset" /><path
     sodipodi:nodetypes="cccccccccccccccsccccccccccccccccc"
     clip-rule="evenodd"
     d="m 38.523717,2.8088728 c -0.09268,0.9409362 0.110955,1.6962748 0,2.7964795 -1.516834,0.9361882 -5.318722,1.6505228 -3.368315,3.8841667 0.579284,0.663835 1.38538,0.3949342 2.405812,0.776921 0.478132,0.179122 0.737918,0.706564 1.283338,0.932302 0.874274,0.3617 1.620213,0.174808 2.245396,0.621537 1.634027,1.167538 2.730212,3.80259 1.12292,5.437574 0.538289,2.325149 -0.278502,4.426717 -1.12292,5.903728 0.59176,3.563039 -1.02266,6.091482 -3.047482,7.61295 -0.151504,3.271696 -1.647841,5.239892 -4.170403,6.214494 -0.702717,2.063586 -1.996303,3.555271 -4.009986,4.349888 C 28.658503,43.539323 26.667102,44.977056 24.248367,46 21.604601,45.195025 19.663552,43.708518 18.474238,41.494728 16.466348,40.643139 15.114387,39.155769 14.303835,37.144409 11.932333,36.023487 10.30499,34.182188 10.133432,30.930347 8.5600061,29.315649 7.0070782,27.767852 6.9255327,25.026188 6.9103822,24.516874 7.1723971,23.863398 7.08595,23.317396 6.9179574,22.254311 5.9550085,21.1472 5.8030577,19.899381 5.700569,19.058581 6.1074048,18.071893 5.963475,17.258285 5.8413796,16.566827 5.0299357,16.118371 5.0009715,15.39411 4.9524008,14.177367 6.7374881,11.844018 7.5672017,11.509942 7.997209,11.336862 8.6286291,11.393836 9.171374,11.199174 c 0.5659161,-0.202862 0.9781,-0.757928 1.44331,-0.932303 1.342158,-0.5024087 2.773435,-0.149341 2.887065,-1.7087921 0.158188,-2.1693325 -2.81978,-1.8689236 -3.8495689,-2.9518634 -0.1604168,-1.1481147 0.1127366,-1.8361203 0,-2.7964795 1.3314629,-0.7864154 4.1766419,-1.1334396 5.7741299,-0.3107678 1.893369,-0.7877104 3.915518,0.046184 5.774128,0 0.629639,-0.015539 1.179067,-0.3914813 1.764146,-0.4661519 1.381815,-0.1761019 2.420516,0.4113358 3.849566,0.4661519 1.322106,0.050932 2.750711,-0.4514768 4.169957,-0.310768 0.493283,0.049205 1.130496,0.3267379 1.604173,0.310768 2.072056,-0.070354 4.14233,-1.0768972 5.935437,0.3099046 z"
     id="path11"
     inkscape:connector-curvature="0"
     style="fill:#ffffff;fill-rule:evenodd" /></g>
<text
   xml:space="preserve"
   style="font-size:20px;font-style:normal;font-variant:normal;font-weight:normal;font-stretch:normal;text-align:center;line-height:125%;letter-spacing:0px;word-spacing:0px;writing-mode:lr;text-anchor:middle;fill:#000000;fill-opacity:1;stroke:none;font-family:Roadgeek 2005 Series D;-inkscape-font-specification:Roadgeek 2005 Series D"
   x="24"
   y="27"
   id="text3178"
   sodipodi:linespacing="125%"><tspan
     sodipodi:role="line"
     id="tspan3113">%num%</tspan></text>

</svg>