<?xml version="1.0" encoding="UTF-8" standalone="no"?>
<!-- Created with Inkscape (http://www.inkscape.org/) -->

<svg
   xmlns:dc="http://purl.org/dc/elements/1.1/"
   xmlns:cc="http://creativecommons.org/ns#"
   xmlns:rdf="http://www.w3.org/1999/02/22-rdf-syntax-ns#"
   xmlns:svg="http://www.w3.org/2000/svg"
   xmlns="http://www.w3.org/2000/svg"
   xmlns:sodipodi="http://sodipodi.sourceforge.net/DTD/sodipodi-0.dtd"
   xmlns:inkscape="http://www.inkscape.org/namespaces/inkscape"
   id="svg2284"
   sodipodi:version="0.32"
   inkscape:version="0.48.1 r9760"
   width="48"
   height="48"
   version="1.0"
   sodipodi:docname="US:NJ-ACX.svg"
   inkscape:output_extension="org.inkscape.output.svg.inkscape">
  <metadata
     id="metadata2289">
    <rdf:RDF>
      <cc:Work
         rdf:about="">
        <dc:format>image/svg+xml</dc:format>
        <dc:type
           rdf:resource="http://purl.org/dc/dcmitype/StillImage" />
      </cc:Work>
    </rdf:RDF>
  </metadata>
  <defs
     id="defs2287" />
  <sodipodi:namedview
     inkscape:window-height="996"
     inkscape:window-width="1278"
     inkscape:pageshadow="2"
     inkscape:pageopacity="0"
     guidetolerance="10000"
     gridtolerance="10000"
     objecttolerance="10000"
     borderopacity="1.0"
     bordercolor="#666666"
     pagecolor="#ffffff"
     id="base"
     showgrid="true"
     showguides="true"
     inkscape:guide-bbox="true"
     inkscape:guide-points="true"
     inkscape:grid-points="true"
     inkscape:zoom="16.895833"
     inkscape:cx="24"
     inkscape:cy="24"
     inkscape:window-x="1"
     inkscape:window-y="27"
     inkscape:current-layer="svg2284"
     inkscape:object-bbox="true"
     inkscape:object-points="true"
     inkscape:showpageshadow="false"
     inkscape:window-maximized="0">
    <inkscape:grid
       type="xygrid"
       id="grid3144"
       empspacing="5"
       visible="true"
       enabled="true"
       snapvisiblegridlinesonly="true" />
  </sodipodi:namedview>
  <path
     sodipodi:type="arc"
     style="fill:#ffffff;fill-opacity:1;stroke:#0000fe;stroke-width:1.35880136;stroke-miterlimit:4;stroke-opacity:1;stroke-dasharray:none"
     id="path2293"
     sodipodi:cx="17.990898"
     sodipodi:cy="25.006739"
     sodipodi:rx="126.75405"
     sodipodi:ry="144.33606"
     d="m 144.74495,25.006739 a 126.75405,144.33606 0 1 1 -253.5081,0 126.75405,144.33606 0 1 1 253.5081,0 z"
     transform="matrix(0.18054689,0,0,-0.15855393,20.7518,27.964918)" />
  <path
     style="fill:#ffffff;fill-opacity:1;stroke:#0000fe;stroke-width:0.22983977;stroke-linecap:butt;stroke-linejoin:round;stroke-miterlimit:4;stroke-opacity:1;stroke-dasharray:none"
     d="M 2.3971668,26.419409 C 3.5078993,36.499022 11.515228,44.500608 21.594978,45.610021 l 4.83,0 C 37.280556,44.400824 45.744802,35.182465 45.744802,24.00599 45.744802,12.829609 37.294591,3.6168918 26.43918,2.4075346 m -4.856624,-2.08e-4 C 11.51232,3.5135384 3.5186533,11.486523 2.3971668,21.553446"
     id="path5096"
     sodipodi:nodetypes="cccsccc"
     inkscape:connector-curvature="0" />
  <path
     style="fill:#0000fe;fill-opacity:1;fill-rule:nonzero;stroke:none"
     d="M 21.58779,9.8234522 C 15.595178,10.843306 10.863162,15.574595 9.8434155,21.567817 l 0.5821885,0 c -0.139624,0.787009 -0.215626,1.59532 -0.215626,2.422215 0,0.826872 0.07601,1.635183 0.215626,2.422169 l -0.5821885,0 c 0.2920085,1.716198 0.8889435,3.327983 1.7321895,4.779696 l 5.117499,-18.054993 -3.759063,19.99563 c 2.148196,2.598362 5.188314,4.434286 8.653749,5.024032 l 0,-0.582169 c 0.786994,0.139555 1.595301,0.21555 2.422188,0.21555 0.826886,0 1.635195,-0.07623 2.422187,-0.21555 l 0,0.582169 C 32.424777,37.136758 37.156792,32.405445 38.176539,26.4122 l -0.582189,0 c 0.139624,-0.786986 0.215619,-1.595296 0.215619,-2.422168 0,-0.826895 -0.076,-1.635206 -0.215619,-2.422215 l 0.582189,0 C 37.156792,15.574595 32.424777,10.843306 26.432165,9.8234522 l 0,0.5821908 c -0.786992,-0.139554 -1.595301,-0.21555 -2.422187,-0.21555 -0.826887,0 -1.635194,0.076 -2.422188,0.21555 l 0,-0.5821908 z"
     id="path2198"
     inkscape:connector-curvature="0" />
  <path
     style="fill:#0d0dfe;fill-opacity:1;fill-rule:evenodd;stroke:none"
     d="m 21.594978,45.51802 c 0,0 -0.114999,0 -0.114999,0 -0.0575,0 -0.114999,0 -0.114999,0 0,3.68e-4 0,0.0021 0,0.0021 0,8.06e-4 0,0.0016 0,0.0069 0,0.01151 0,0.04307 0,0.117447 0,0.148997 0,0.470524 0,1.161988 l 0.230001,0 c 0,-0.691464 0,-1.013014 0,-1.161988 0,-0.07462 0,-0.104781 0,-0.117447 0,-0.0046 0,-0.0046 0,-0.0069 0,0 0,-0.0017 0,-0.0021 z"
     id="path29592"
     inkscape:connector-curvature="0" />
  <path
     style="fill:#0d0dfe;fill-opacity:1;fill-rule:evenodd;stroke:none"
     d="m 26.654977,45.51802 c 0,0 -0.115007,0 -0.115007,0 -0.05751,0 -0.115006,0 -0.115006,0 0,3.68e-4 0,0.0021 0,0.0021 0,8.06e-4 0,0.0016 0,0.0069 0,0.01151 0,0.04307 0,0.117447 0,0.148997 0,0.470524 0,1.161988 l 0.229989,0 c 0,-0.691464 0,-1.013014 0,-1.161988 0,-0.07462 0,-0.104781 0,-0.117447 0,-0.0046 0,-0.0046 0,-0.0069 0,0 0,-0.0017 0,-0.0021 z"
     id="path29596"
     inkscape:connector-curvature="0" />
  <path
     style="fill:#0d0dfe;fill-opacity:1;fill-rule:evenodd;stroke:none"
     d="m 21.594978,1.1740197 c 0,0 -0.114999,0 -0.114999,0 -0.0575,0 -0.114999,0 -0.114999,0 0,3.919e-4 0,0.0022 0,0.0022 0,8.52e-4 0,0.00172 0,0.0069 0,0.013819 0,0.044908 0,0.1227434 0,0.1556755 0,0.4915042 0,1.2138479 l 0.230001,0 c 0,-0.7223437 0,-1.0582194 0,-1.2138479 0,-0.077836 0,-0.1093871 0,-0.1227434 0,-0.0046 0,-0.0069 0,-0.0069 0,0 0,-0.00182 0,-0.0022 z"
     id="path29599"
     inkscape:connector-curvature="0" />
  <path
     style="fill:#0d0dfe;fill-opacity:1;fill-rule:evenodd;stroke:none"
     d="m 26.654977,1.2430369 c 0,0 -0.115007,0 -0.115007,0 -0.05751,0 -0.115006,0 -0.115006,0 0,3.68e-4 0,0.00211 0,0.00211 0,8.06e-4 0,0.00163 0,0.0069 0,0.011519 0,0.042608 0,0.1162957 0,0.147615 0,0.4663106 0,1.1516014 l 0.229989,0 c 0,-0.6852908 0,-1.0039404 0,-1.1516014 0,-0.073926 0,-0.1038594 0,-0.1162957 0,-0.0046 0,-0.0046 0,-0.0069 0,0 0,-0.00172 0,-0.00211 z"
     id="path29601"
     inkscape:connector-curvature="0" />
  <path
     style="fill:#0000fe;fill-opacity:1;fill-rule:evenodd;stroke:#0000fe;stroke-width:0.22999994;stroke-linecap:butt;stroke-linejoin:miter;stroke-miterlimit:4;stroke-opacity:1;stroke-dasharray:none"
     d="m 10.449645,21.460019 c -9.2940261,0 -9.2940261,0 -9.2940261,0"
     id="path6118"
     inkscape:connector-curvature="0" />
  <path
     style="fill:#0000fe;fill-opacity:1;fill-rule:evenodd;stroke:#0000fe;stroke-width:0.22999994;stroke-linecap:butt;stroke-linejoin:miter;stroke-miterlimit:4;stroke-opacity:1;stroke-dasharray:none"
     d="m 10.510633,26.520021 c -9.2940262,0 -9.2940262,0 -9.2940262,0"
     id="path7091"
     inkscape:connector-curvature="0" />
  <path
     style="fill:#0000fe;fill-opacity:1;fill-rule:evenodd;stroke:#0000fe;stroke-width:0.22999994;stroke-linecap:butt;stroke-linejoin:miter;stroke-miterlimit:4;stroke-opacity:1;stroke-dasharray:none"
     d="m 46.851915,26.520021 c -9.294026,0 -9.294026,0 -9.294026,0"
     id="path7093"
     inkscape:connector-curvature="0" />
  <path
     style="fill:#0000fe;fill-opacity:1;fill-rule:evenodd;stroke:#0000fe;stroke-width:0.22999994;stroke-linecap:butt;stroke-linejoin:miter;stroke-miterlimit:4;stroke-opacity:1;stroke-dasharray:none"
     d="m 46.851915,21.460019 c -9.294026,0 -9.294026,0 -9.294026,0"
     id="path7095"
     inkscape:connector-curvature="0" />
  <rect
     style="fill:#ffffff;fill-opacity:1;fill-rule:nonzero;stroke:#0000fe;stroke-width:0;stroke-linejoin:miter;stroke-miterlimit:4;stroke-opacity:1;stroke-dasharray:none"
     id="rect7097"
     width="0.82948881"
     height="4.8299985"
     x="45.169228"
     y="21.575024" />
  <rect
     style="fill:#ffffff;fill-opacity:1;fill-rule:nonzero;stroke:#0000fe;stroke-width:0;stroke-linejoin:miter;stroke-miterlimit:4;stroke-opacity:1;stroke-dasharray:none"
     id="rect11034"
     width="0.82948869"
     height="4.8299994"
     x="45.334011"
     y="-26.424976"
     transform="matrix(0,1,-1,0,0,0)" />
  <g
     inkscape:groupmode="layer"
     id="layer1"
     inkscape:label="text"
     style="display:inline"
     transform="translate(-2.7237356e-7,-152.00002)">
    <path
       style="font-size:12px;font-style:normal;font-weight:normal;fill:#0000fe;fill-opacity:1;stroke:none;font-family:Roadgeek 2005 Series C"
       d="m 4.3809171,168.20596 -0.2803126,0.72597 4.6790617,3.29187 0.2875001,-0.74751 -1.2793749,-0.89124 0.43125,-1.10688 1.5525001,0.17963 0.2874995,-0.74031 -5.6781239,-0.71158 z m 1.401562,0.97032 1.6387498,0.20127 -0.2875,0.74031 -1.3512498,-0.94155 z"
       id="path2370"
       inkscape:connector-curvature="0" />
    <path
       style="font-size:12px;font-style:normal;font-weight:normal;fill:#0000fe;fill-opacity:1;stroke:none;font-family:Roadgeek 2005 Series C"
       d="m 7.309994,164.41566 3.97103,2.71532 -0.45327,0.66289 -3.9710279,-2.71532 -0.5702246,0.83391 -0.60844,-0.41603 1.5937159,-2.33073 0.608442,0.41604 -0.5702254,0.83392 z"
       id="path2366"
       inkscape:connector-curvature="0" />
    <path
       style="font-size:12px;font-style:normal;font-weight:normal;fill:#0000fe;fill-opacity:1;stroke:none;font-family:Roadgeek 2005 Series C"
       d="m 12.372095,165.72989 -3.7836119,-4.05726 0.5813765,-0.54217 3.2810854,3.51836 1.483566,-1.38347 0.502528,0.53884 -2.064944,1.9257 z"
       id="path2364"
       inkscape:connector-curvature="0" />
    <path
       style="font-size:12px;font-style:normal;font-weight:normal;fill:#0000fe;fill-opacity:1;stroke:none;font-family:Roadgeek 2005 Series C"
       d="m 14.027979,157.40604 -0.675624,0.38096 1.48781,5.51998 0.704375,-0.39531 -0.424061,-1.50217 1.042186,-0.57501 1.078126,1.12842 0.697188,-0.38092 -3.91,-4.17595 z m 0.452812,1.64595 1.135625,1.19313 -0.697187,0.38813 -0.438438,-1.58126 z"
       id="path2362"
       inkscape:connector-curvature="0" />
    <path
       style="font-size:12px;font-style:normal;font-weight:normal;fill:#0000fe;fill-opacity:1;stroke:none;font-family:Roadgeek 2005 Series C"
       d="m 21.318148,160.75325 -2.499413,-3.24225 0.828553,3.62423 -0.774956,0.17709 -1.236379,-5.40819 0.774957,-0.17709 2.226951,2.90537 -0.741828,-3.24492 0.774956,-0.17708 1.23638,5.40817 -0.589221,0.13472 z"
       id="path2358"
       inkscape:connector-curvature="0" />
    <path
       style="font-size:12px;font-style:normal;font-weight:normal;fill:#0000fe;fill-opacity:1;stroke:none;font-family:Roadgeek 2005 Series C"
       d="m 24.351243,155.75513 -0.01059,4.8106 -0.803031,-0.002 0.01057,-4.81062 -1.010233,-0.002 0.0016,-0.73708 2.823501,0.007 -0.0016,0.73708 -1.010232,-0.002 z"
       id="path2356"
       inkscape:connector-curvature="0" />
    <path
       style="font-size:12px;font-style:normal;font-weight:normal;fill:#0000fe;fill-opacity:1;stroke:none;font-family:Roadgeek 2005 Series C"
       d="m 26.21798,160.81694 0.606624,-5.51442 0.773606,0.0849 -0.606632,5.51443 -0.773598,-0.0852 z"
       id="path2354"
       inkscape:connector-curvature="0" />
    <path
       style="font-size:12px;font-style:normal;font-weight:normal;fill:#0000fe;fill-opacity:1;stroke:none;font-family:Roadgeek 2005 Series C"
       d="m 31.286442,158.01039 c 0.124587,-0.52734 0.02073,-0.85845 -0.311879,-0.99331 -0.148305,-0.0601 -0.287892,-0.0793 -0.418748,-0.0581 -0.130873,0.0207 -0.256776,0.0893 -0.377735,0.20426 -0.120947,0.11468 -0.242173,0.28148 -0.363614,0.50028 -0.12143,0.21878 -0.249583,0.49443 -0.38442,0.82695 -0.300764,0.74169 -0.448736,1.30117 -0.443925,1.67838 0.0048,0.37724 0.16583,0.63018 0.483039,0.75883 0.107406,0.0435 0.203943,0.0589 0.289602,0.0461 0.08567,-0.0138 0.164242,-0.0451 0.23573,-0.0967 0.07148,-0.0516 0.133037,-0.11883 0.184645,-0.20219 0.05161,-0.0831 0.09709,-0.17341 0.136469,-0.27064 l 0.73668,0.29875 c -0.09225,0.21279 -0.20795,0.39511 -0.347055,0.54721 -0.139095,0.15199 -0.29136,0.27053 -0.456725,0.35537 -0.165369,0.085 -0.340579,0.13125 -0.525638,0.13954 -0.18506,0.01 -0.367114,-0.0239 -0.546172,-0.0963 -0.552473,-0.22406 -0.864043,-0.61247 -0.934715,-1.1653 -0.07067,-0.55282 0.08692,-1.30497 0.472755,-2.25645 0.340198,-0.83897 0.725315,-1.42141 1.155347,-1.74735 0.430029,-0.32601 0.900754,-0.38526 1.412173,-0.17779 0.209815,0.0852 0.383514,0.20773 0.521118,0.3677 0.137621,0.16005 0.231034,0.34831 0.280317,0.56483 0.04518,0.16741 0.06385,0.32692 0.05596,0.47859 -0.0079,0.15153 -0.04672,0.35033 -0.116526,0.59597 l -0.736681,-0.29874 z"
       id="path2352"
       inkscape:connector-curvature="0" />
    <path
       style="font-size:12px;font-style:normal;font-weight:normal;fill:#0000fe;fill-opacity:1;stroke:none;font-family:Roadgeek 2005 Series C"
       d="m 36.966141,161.60969 c 0.298895,-0.45201 0.315563,-0.79864 0.05,-1.03993 -0.11846,-0.10754 -0.242788,-0.17387 -0.373016,-0.19897 -0.130228,-0.0251 -0.27191,-0.005 -0.425028,0.0615 -0.153142,0.0661 -0.324426,0.18054 -0.513897,0.34409 -0.189482,0.1635 -0.40486,0.37794 -0.646147,0.64354 -0.538199,0.59234 -0.870122,1.06639 -0.995765,1.42212 -0.125645,0.35573 -0.0618,0.64867 0.191577,0.87887 0.08576,0.0781 0.171103,0.12551 0.255942,0.14301 0.08484,0.0184 0.169698,0.0138 0.254553,-0.01 0.08484,-0.0237 0.165877,-0.0656 0.243053,-0.12597 0.07719,-0.0606 0.150999,-0.12942 0.221468,-0.20703 l 0.588367,0.53457 c -0.159981,0.16789 -0.331509,0.2991 -0.514553,0.39386 -0.183056,0.0949 -0.366812,0.15338 -0.551289,0.17594 -0.184483,0.023 -0.364999,0.007 -0.541554,-0.0505 -0.176539,-0.0563 -0.336343,-0.149 -0.47935,-0.27897 -0.441242,-0.40094 -0.599658,-0.873 -0.47524,-1.41625 0.124402,-0.54327 0.531841,-1.19485 1.22229,-1.95478 0.608769,-0.67005 1.171201,-1.08383 1.6873,-1.24142 0.516092,-0.15751 0.978362,-0.0509 1.386822,0.32031 0.167557,0.15223 0.288314,0.32722 0.362245,0.52492 0.07393,0.19782 0.09667,0.40665 0.06821,0.62685 -0.01543,0.17271 -0.05287,0.32887 -0.11261,0.46852 -0.05974,0.13956 -0.164747,0.3127 -0.315001,0.51918 l -0.588367,-0.53456 z"
       id="path2350"
       inkscape:connector-curvature="0" />
    <path
       style="font-size:12px;font-style:normal;font-weight:normal;fill:#0000fe;fill-opacity:1;stroke:none;font-family:Roadgeek 2005 Series C"
       d="m 35.641423,165.84782 4.467038,-3.28978 0.461513,0.62666 -4.467036,3.2898 -0.461515,-0.62668 z"
       id="path2348"
       inkscape:connector-curvature="0" />
    <path
       style="font-size:12px;font-style:normal;font-weight:normal;fill:#0000fe;fill-opacity:1;stroke:none;font-family:Roadgeek 2005 Series C"
       d="m 41.791729,166.68667 -4.023489,2.63695 -0.44019,-0.67161 4.023488,-2.637 -0.55377,-0.84492 0.616482,-0.40405 1.547726,2.36154 -0.61648,0.40401 -0.553767,-0.84492 z"
       id="path2346"
       inkscape:connector-curvature="0" />
    <path
       style="font-size:12px;font-style:normal;font-weight:normal;fill:#0000fe;fill-opacity:1;stroke:none;font-family:Roadgeek 2005 Series C"
       d="m 41.476803,171.2956 -2.367492,0.83044 -0.263124,-0.75013 2.367489,-0.83044 2.415274,-2.29508 0.276841,0.78923 -1.581216,1.54596 2.195122,0.20427 0.282277,0.80473 -3.325171,-0.29891 z"
       id="text2179"
       inkscape:connector-curvature="0" />
    <path
       style="font-size:12px;font-style:normal;font-weight:normal;fill:#0000fe;fill-opacity:1;stroke:none;font-family:Roadgeek 2005 Series C"
       d="m 3.7255228,182.24059 5.167449,-2.01855 0.9490072,2.42946 -0.7251593,0.28325 -0.6597654,-1.68898 -1.3032169,0.50908 0.4187877,1.07208 -0.7096274,0.27722 -0.4187874,-1.0721 -1.7045177,0.66582 0.7380974,1.88952 -0.7249268,0.28318 -1.0273404,-2.62998 z"
       id="path2337"
       inkscape:connector-curvature="0" />
    <path
       style="font-size:12px;font-style:normal;font-weight:normal;fill:#0000fe;fill-opacity:1;stroke:none;font-family:Roadgeek 2005 Series C"
       d="m 7.2734589,188.78954 1.0788837,-1.73364 -1.9872087,0.46961 -0.488078,-0.67921 3.0453182,-0.69977 1.5082059,-2.4703 0.487929,0.67901 -0.9524767,1.54106 1.7690857,-0.40467 0.488078,0.67922 -2.8127453,0.65493 -1.6344645,2.66311 -0.5025273,-0.69935 z"
       id="path2335"
       inkscape:connector-curvature="0" />
    <path
       style="font-size:12px;font-style:normal;font-weight:normal;fill:#0000fe;fill-opacity:1;stroke:none;font-family:Roadgeek 2005 Series C"
       d="m 13.152645,187.12202 -3.6326662,4.19657 0.6008202,0.52154 1.593922,-1.84584 0.646544,0.56675 c 0.354649,0.30713 0.714113,0.441 1.077456,0.40512 0.363332,-0.0359 0.711782,-0.24278 1.044163,-0.62661 0.151738,-0.17525 0.265635,-0.36308 0.339981,-0.55429 0.07434,-0.19113 0.110761,-0.37712 0.101265,-0.56429 -0.0095,-0.18723 -0.06179,-0.36627 -0.148617,-0.54007 -0.08682,-0.17387 -0.210529,-0.33647 -0.373271,-0.47742 l -1.249597,-1.08146 z m 0.09058,1.11094 0.619082,0.53507 c 0.162742,0.14094 0.244491,0.31018 0.250696,0.5054 0.0062,0.19528 -0.06776,0.38066 -0.219506,0.5559 -0.166194,0.19182 -0.336617,0.29821 -0.5209,0.32124 -0.184295,0.023 -0.366855,-0.0404 -0.542077,-0.19229 l -0.619083,-0.53508 1.031786,-1.19022 z"
       id="path2333"
       inkscape:connector-curvature="0" />
    <path
       style="font-size:12px;font-style:normal;font-weight:normal;fill:#0000fe;fill-opacity:1;stroke:none;font-family:Roadgeek 2005 Series C"
       d="m 16.398291,189.60602 -2.333776,5.03559 0.727602,0.33419 1.089123,-2.36958 0.692553,0.32628 -0.421435,2.67549 0.740036,0.34439 0.42196,-2.80802 c 0.282158,0.0207 0.534765,-0.0433 0.752317,-0.19828 0.217547,-0.15498 0.39313,-0.38955 0.532081,-0.6902 0.09265,-0.20058 0.14798,-0.39272 0.162928,-0.58951 0.01495,-0.19689 -0.009,-0.38486 -0.07343,-0.55458 -0.06446,-0.16971 -0.167117,-0.32542 -0.29986,-0.46582 -0.132755,-0.14047 -0.293577,-0.2562 -0.488998,-0.34651 l -1.501105,-0.69357 z m 0.391145,1.03921 0.747048,0.34598 c 0.195423,0.0905 0.323575,0.21993 0.390593,0.39058 0.06702,0.17087 0.05383,0.35636 -0.03648,0.55181 -0.09492,0.20541 -0.220995,0.33658 -0.383556,0.39216 -0.162568,0.0558 -0.350664,0.0366 -0.561071,-0.0608 l -0.740038,-0.34439 0.58351,-1.27546 z"
       id="path2329"
       inkscape:connector-curvature="0" />
    <path
       style="font-size:12px;font-style:normal;font-weight:normal;fill:#0000fe;fill-opacity:1;stroke:none;font-family:Roadgeek 2005 Series C"
       d="m 19.528831,196.63382 0.817397,-5.48714 2.579758,0.38428 -0.11471,0.77003 -1.793482,-0.26717 -0.206146,1.38385 1.13842,0.16948 -0.112251,0.75356 -1.13842,-0.16949 -0.269626,1.80999 2.00642,0.29887 -0.11467,0.76981 -2.792694,-0.41604 z"
       id="path2325"
       inkscape:connector-curvature="0" />
    <path
       style="font-size:12px;font-style:normal;font-weight:normal;fill:#0000fe;fill-opacity:1;stroke:none;font-family:Roadgeek 2005 Series C"
       d="m 27.571026,195.32385 c 0.03374,0.22384 0.02566,0.43865 -0.02427,0.6443 -0.04993,0.20565 -0.133774,0.38993 -0.251552,0.55282 -0.117792,0.16283 -0.261744,0.30047 -0.431889,0.41264 -0.17016,0.11215 -0.361656,0.18423 -0.574538,0.21647 -0.240206,0.0362 -0.462785,0.023 -0.667746,-0.0416 -0.204979,-0.064 -0.384883,-0.16535 -0.539747,-0.30372 -0.154868,-0.13841 -0.283415,-0.30612 -0.385649,-0.50294 -0.102226,-0.19689 -0.170229,-0.40701 -0.203943,-0.63071 l 0.769573,-0.11583 c 0.01727,0.11445 0.04932,0.22568 0.09619,0.3329 0.04686,0.10731 0.108443,0.20128 0.184829,0.28196 0.07639,0.0808 0.166453,0.14094 0.27021,0.18124 0.103745,0.0401 0.22384,0.05 0.360268,0.0294 0.103768,-0.0161 0.200143,-0.0525 0.28909,-0.11054 0.08894,-0.0581 0.161777,-0.13035 0.218451,-0.21716 0.0567,-0.0868 0.09787,-0.18376 0.123549,-0.29076 0.02567,-0.10709 0.03026,-0.21532 0.01382,-0.32459 -0.02385,-0.15821 -0.07777,-0.29382 -0.16173,-0.40672 -0.08396,-0.11283 -0.217301,-0.21991 -0.399967,-0.32071 -0.03143,-0.0232 -0.04463,-0.0366 -0.03954,-0.0403 0.0051,-0.005 -0.01359,-0.0161 -0.05586,-0.0375 -0.04235,-0.0207 -0.130896,-0.0627 -0.265686,-0.12321 -0.134787,-0.0609 -0.355747,-0.16557 -0.662865,-0.31443 -0.246763,-0.11906 -0.44154,-0.27271 -0.584337,-0.46058 -0.142802,-0.18791 -0.232702,-0.40453 -0.269711,-0.65008 -0.02961,-0.19667 -0.02188,-0.38612 0.02314,-0.56873 0.04507,-0.18262 0.121822,-0.34908 0.230345,-0.49944 0.108512,-0.15038 0.241835,-0.27512 0.399965,-0.37432 0.158115,-0.099 0.335391,-0.16351 0.531783,-0.19322 0.19655,-0.0297 0.383434,-0.0207 0.56062,0.0243 0.177183,0.0459 0.336628,0.12228 0.478331,0.2296 0.141695,0.10708 0.262563,0.24242 0.3626,0.40594 0.100037,0.16351 0.168432,0.34861 0.205187,0.55516 l -0.753337,0.11353 c -0.03963,-0.1893 -0.128133,-0.33238 -0.265504,-0.42889 -0.13739,-0.0965 -0.293432,-0.13149 -0.468169,-0.10523 -0.180061,0.0271 -0.323807,0.11006 -0.431218,0.24923 -0.107406,0.13886 -0.147546,0.29857 -0.120395,0.47863 0.0205,0.13633 0.07333,0.2457 0.158255,0.32779 0.08493,0.0822 0.237,0.16512 0.456167,0.24938 0.575617,0.22591 1.008719,0.47875 1.299306,0.75871 0.290582,0.27998 0.465907,0.61918 0.525973,1.01761 l 0,0 z"
       id="path2323"
       inkscape:connector-curvature="0" />
    <path
       style="font-size:12px;font-style:normal;font-weight:normal;fill:#0000fe;fill-opacity:1;stroke:none;font-family:Roadgeek 2005 Series C"
       d="m 32.458843,193.59326 c 0.106025,0.20012 0.169584,0.40535 0.190632,0.61593 0.02119,0.21072 0.003,0.41223 -0.05412,0.60494 -0.05714,0.19275 -0.147385,0.37022 -0.270729,0.53245 -0.123342,0.16213 -0.280134,0.29378 -0.470351,0.3946 -0.214629,0.11376 -0.429237,0.17433 -0.643828,0.18193 -0.214582,0.007 -0.417889,-0.0283 -0.609902,-0.10755 -0.192015,-0.0794 -0.368852,-0.19482 -0.530519,-0.34667 -0.161662,-0.15176 -0.295482,-0.32761 -0.401435,-0.5275 l 0.687644,-0.3645 c 0.05428,0.10248 0.121293,0.19644 0.201064,0.28224 0.07977,0.0859 0.169055,0.15406 0.267841,0.20473 0.09882,0.0509 0.203782,0.0781 0.314991,0.0813 0.111206,0.005 0.227754,-0.0271 0.349648,-0.0919 0.09274,-0.0494 0.171449,-0.11583 0.236125,-0.20013 0.06469,-0.0842 0.10941,-0.17663 0.134143,-0.27728 0.02473,-0.10064 0.03145,-0.20565 0.02027,-0.31528 -0.01129,-0.1094 -0.04279,-0.21325 -0.09453,-0.31083 -0.07496,-0.1414 -0.170759,-0.25143 -0.287384,-0.33013 -0.116641,-0.0788 -0.277856,-0.13539 -0.483653,-0.16994 -0.03736,-0.0115 -0.05421,-0.0207 -0.0506,-0.0248 0.0036,-0.005 -0.01819,-0.0115 -0.06518,-0.0161 -0.04707,-0.007 -0.144229,-0.0161 -0.291515,-0.0283 -0.147293,-0.0115 -0.390488,-0.0382 -0.729615,-0.0771 -0.272315,-0.0306 -0.506964,-0.11077 -0.703949,-0.24088 -0.196965,-0.12989 -0.353615,-0.30453 -0.469907,-0.52392 -0.0931,-0.17572 -0.148651,-0.35707 -0.166659,-0.5443 -0.01796,-0.18722 -7.4e-4,-0.36969 0.05182,-0.54753 0.05255,-0.17777 0.136999,-0.33969 0.253304,-0.48572 0.116319,-0.14601 0.262208,-0.26554 0.437692,-0.35856 0.175617,-0.0933 0.354634,-0.14739 0.537009,-0.16282 0.182364,-0.0161 0.358153,0.005 0.527336,0.0581 0.169192,0.0541 0.328061,0.14162 0.476643,0.26285 0.148581,0.12113 0.274441,0.27308 0.377578,0.45578 l -0.673131,0.35679 c -0.100177,-0.16558 -0.231049,-0.27114 -0.392642,-0.31667 -0.161593,-0.0456 -0.320452,-0.0269 -0.47659,0.056 -0.16088,0.0854 -0.268977,0.2114 -0.324245,0.37805 -0.05527,0.16673 -0.04025,0.33059 0.04502,0.49149 0.06462,0.12182 0.150609,0.20749 0.257949,0.25679 0.107337,0.0494 0.278362,0.0773 0.513034,0.0842 0.617936,0.023 1.110373,0.11723 1.477324,0.28524 0.366946,0.16788 0.644776,0.42979 0.833493,0.78582 l 0,0 z"
       id="path2321"
       inkscape:connector-curvature="0" />
    <path
       style="font-size:12px;font-style:normal;font-weight:normal;fill:#0000fe;fill-opacity:1;stroke:none;font-family:Roadgeek 2005 Series C"
       d="m 37.870219,191.85648 -0.537241,0.41516 -2.19137,-1.9691 1.35942,2.61202 -0.556835,0.43031 -4.086896,-3.85291 0.615814,-0.4759 2.18112,2.05048 -1.381762,-2.66821 0.497851,-0.38472 2.220512,2.02002 -1.421151,-2.63776 0.615815,-0.47592 2.684723,4.93653 z"
       id="path2319"
       inkscape:connector-curvature="0" />
    <path
       style="font-size:12px;font-style:normal;font-weight:normal;fill:#0000fe;fill-opacity:1;stroke:none;font-family:Roadgeek 2005 Series C"
       d="m 36.664078,184.94196 -0.459856,0.62871 3.649337,4.40336 0.477898,-0.64729 -1.007858,-1.19423 0.704314,-0.96087 1.456697,0.58253 0.465365,-0.63722 -5.285897,-2.17499 z m 1.09137,1.30853 1.530545,0.61807 -0.470874,0.64579 -1.059671,-1.26386 z"
       id="path2317"
       inkscape:connector-curvature="0" />
    <path
       style="font-size:12px;font-style:normal;font-weight:normal;fill:#0000fe;fill-opacity:1;stroke:none;font-family:Roadgeek 2005 Series C"
       d="m 41.368662,182.53928 2.320145,0.95475 -0.302514,0.73512 -2.320146,-0.95475 -3.330094,0.10686 0.318286,-0.77345 2.209013,-0.10248 -1.503208,-1.61263 0.32454,-0.78865 2.283978,2.43509 z"
       id="text2192"
       inkscape:connector-curvature="0" />
  </g>
  <g
     inkscape:groupmode="layer"
     id="layer2"
     inkscape:label="flag"
     style="display:inline"
     transform="translate(-2.7237356e-7,-152.00002)">
    <path
       sodipodi:type="arc"
       style="fill:#ffffff;fill-opacity:1;fill-rule:nonzero;stroke:none;display:inline"
       id="path17872"
       sodipodi:cx="-5.5999999"
       sodipodi:cy="50.400017"
       sodipodi:rx="4"
       sodipodi:ry="4"
       d="m -1.5999999,50.400017 a 4,4 0 1 1 -8,0 4,4 0 1 1 8,0 z"
       transform="matrix(0.21562498,0,0,0.21562493,17.914979,152.55304)" />
    <path
       id="path2253"
       d="m 26.635369,182.77827 c -0.92844,-0.14738 -2.257799,-0.47976 -2.954129,-0.73847 -1.949524,-0.72432 -3.182735,-1.03355 -5.591742,-1.40217 -1.218579,-0.18653 -2.269193,-0.43732 -2.359519,-0.47078 0.09032,-0.42654 0.09175,-0.93886 0.379799,-1.92535 0.766072,-2.62353 1.286459,-5.94999 1.580731,-10.10448 l 0.259867,-3.66871 1.70488,0.12435 c 2.970493,0.21669 5.859173,1.43946 9.195707,3.8923 1.102522,0.81053 2.497464,1.72182 3.099867,2.02515 1.045387,0.52635 3.953503,1.36462 5.075471,1.50215 0,0 0.112956,0.0541 -0.995645,1.23547 -1.005893,1.07195 -2.357096,2.19964 -3.960817,3.30568 l -0.458944,0.3165 0.631832,1.4621 c 0.347509,0.80417 1.103361,2.15402 1.679667,2.99971 0.576308,0.84566 1.047834,1.5883 1.047834,1.65029 0,0.22222 -6.681313,0.0589 -8.334859,-0.20381 z"
       style="fill:#f90003"
       sodipodi:nodetypes="csscscccsscscccscc"
       inkscape:connector-curvature="0" />
  </g>
</svg>
