<?xml version="1.0" encoding="UTF-8" standalone="no"?>
<!-- Generator: Adobe Illustrator 12.0.0, SVG Export Plug-In . SVG Version: 6.00 Build 51448)  -->

<svg
   xmlns:dc="http://purl.org/dc/elements/1.1/"
   xmlns:cc="http://creativecommons.org/ns#"
   xmlns:rdf="http://www.w3.org/1999/02/22-rdf-syntax-ns#"
   xmlns:svg="http://www.w3.org/2000/svg"
   xmlns="http://www.w3.org/2000/svg"
   xmlns:sodipodi="http://sodipodi.sourceforge.net/DTD/sodipodi-0.dtd"
   xmlns:inkscape="http://www.inkscape.org/namespaces/inkscape"
   version="1.1"
   id="Layer_1"
   width="60"
   height="48"
   viewBox="0 0 60 48"
   overflow="visible"
   enable-background="new 0 0 600 600"
   xml:space="preserve"
   sodipodi:version="0.32"
   inkscape:version="0.48.1 r9760"
   sodipodi:docname="US:NY_suf_2.svg"
   inkscape:output_extension="org.inkscape.output.svg.inkscape"
   style="overflow:visible"><metadata
   id="metadata2242"><rdf:RDF><cc:Work
       rdf:about=""><dc:format>image/svg+xml</dc:format><dc:type
         rdf:resource="http://purl.org/dc/dcmitype/StillImage" /><dc:title></dc:title></cc:Work></rdf:RDF></metadata><defs
   id="defs2240"><inkscape:perspective
     sodipodi:type="inkscape:persp3d"
     inkscape:vp_x="0 : 300 : 1"
     inkscape:vp_y="0 : 1000 : 0"
     inkscape:vp_z="600 : 300 : 1"
     inkscape:persp3d-origin="300 : 200 : 1"
     id="perspective15" /><inkscape:perspective
     id="perspective3050"
     inkscape:persp3d-origin="0.5 : 0.33333333 : 1"
     inkscape:vp_z="1 : 0.5 : 1"
     inkscape:vp_y="0 : 1000 : 0"
     inkscape:vp_x="0 : 0.5 : 1"
     sodipodi:type="inkscape:persp3d" /><inkscape:perspective
     id="perspective3298"
     inkscape:persp3d-origin="0.5 : 0.33333333 : 1"
     inkscape:vp_z="1 : 0.5 : 1"
     inkscape:vp_y="0 : 1000 : 0"
     inkscape:vp_x="0 : 0.5 : 1"
     sodipodi:type="inkscape:persp3d" /><inkscape:perspective
     id="perspective2974"
     inkscape:persp3d-origin="0.5 : 0.33333333 : 1"
     inkscape:vp_z="1 : 0.5 : 1"
     inkscape:vp_y="0 : 1000 : 0"
     inkscape:vp_x="0 : 0.5 : 1"
     sodipodi:type="inkscape:persp3d" /></defs><sodipodi:namedview
   inkscape:window-height="996"
   inkscape:window-width="1278"
   inkscape:pageshadow="2"
   inkscape:pageopacity="0.0"
   guidetolerance="10.0"
   gridtolerance="10000"
   objecttolerance="10.0"
   borderopacity="1.0"
   bordercolor="#666666"
   pagecolor="#ffffff"
   id="base"
   inkscape:zoom="16.895833"
   inkscape:cx="30"
   inkscape:cy="24"
   inkscape:window-x="1"
   inkscape:window-y="27"
   inkscape:current-layer="Layer_1"
   showgrid="true"
   inkscape:showpageshadow="false"
   showborder="true"
   inkscape:window-maximized="0"
   borderlayer="false"><inkscape:grid
     type="xygrid"
     id="grid2999"
     empspacing="5"
     visible="true"
     enabled="true"
     snapvisiblegridlinesonly="true" /></sodipodi:namedview>



<g
   id="g3079"><path
     transform="matrix(1.2869041,0,0,0.96088937,-1.006346,1.0007867)"
     d="m 23.9375,0 c -0.840287,0.00666899 -1.71999,0.0507121 -2.6875,0.15625 -0.426024,0.0464715 -1.011511,0.17894562 -1.625,0.3125 -0.613489,0.13355438 -1.088019,0.19964645 -1.53125,0.375 -0.004,0.001567 -0.284549,0.0984048 -0.46875,0.15625 -0.748843,0.2351615 -1.859106,0.7842664 -4.4375,2.0625 -0.646143,0.3203238 -1.264347,0.6474564 -1.71875,0.875 -0.454403,0.2275436 -0.674377,0.3327498 -0.8125,0.40625 0.04202,-0.022363 -0.7142982,0.3241095 -1.3125,0.59375 -0.2991009,0.1348203 -0.5956013,0.2796155 -0.8125,0.375 -0.096564,0.042466 -0.1610381,0.069121 -0.21875,0.09375 -0.0071,0.00303 -0.024904,-0.00269 -0.03125,0 C 8.2671651,5.4103056 8.2598068,5.4343964 8.25,5.4375 8.2173107,5.4478454 8.1810154,5.4599746 8.15625,5.46875 8.1067192,5.4863009 8.0638366,5.4762706 8,5.5 7.8723268,5.5474587 7.7019566,5.6255315 7.53125,5.6875 6.4374051,6.0845771 6.122943,6.1191019 4.09375,6.15625 l -1.5,0.03125 A 1.0654579,1.0654579 0 0 0 1.5625,7.25 l 0,15.65625 c -0.00446,5.555289 -0.00475,9.503315 0,12.09375 0.00237,1.295217 -0.00523,2.255375 0,2.90625 0.00261,0.325438 0.027736,0.569441 0.03125,0.75 0.00351,0.180559 -0.03418,0.186087 0,0.4375 0.037459,0.275536 0.1095661,0.545872 0.1875,0.8125 0.077934,0.266628 0.086664,0.45656 0.34375,0.8125 0.3805192,0.526832 0.837475,0.870431 1.34375,1.15625 0.7057087,0.398404 1.5159358,0.731168 2.34375,1 0.22409,0.07278 0.6197986,0.262583 0.53125,0.21875 0.2901995,0.143634 0.4395572,0.175379 0.6875,0.25 0.237214,0.0714 0.6909141,0.179449 1,0.28125 0.3344763,0.110163 0.8879297,0.321668 1.28125,0.4375 0.3613524,0.106413 0.855008,0.223426 1.03125,0.28125 0.277524,0.09105 0.997112,0.323562 1.625,0.5 0.592641,0.166535 1.336432,0.400177 1.65625,0.5 0.389257,0.121484 0.914314,0.236429 1.21875,0.3125 0.281316,0.0703 0.928404,0.248292 1.375,0.375 1.094977,0.310667 2.673806,0.731155 3.75,1 0.927148,0.231617 2.288523,0.539219 3.5,0.78125 0.383511,0.07662 0.630723,0.06905 0.96875,0.03125 0.338027,-0.0378 0.732625,-0.129237 1.15625,-0.21875 1.207019,-0.25505 2.249051,-0.467484 3.34375,-0.75 0.836516,-0.215885 2.297501,-0.635575 3.03125,-0.84375 0.458653,-0.130127 1.079446,-0.308958 1.34375,-0.375 0.304415,-0.07607 0.829499,-0.191021 1.21875,-0.3125 0.301799,-0.0942 1.085712,-0.330892 1.6875,-0.5 0.637021,-0.179006 1.342335,-0.417512 1.59375,-0.5 0.176211,-0.05782 0.66989,-0.174834 1.03125,-0.28125 0.376648,-0.110922 0.959925,-0.321376 1.3125,-0.4375 0.327196,-0.107765 0.758861,-0.218079 0.96875,-0.28125 0.110294,-0.0332 0.226079,-0.08671 0.34375,-0.125 0.117671,-0.03829 0.182518,-0.02972 0.375,-0.125 0.006,-0.003 0.298504,-0.153312 0.5,-0.21875 0.819644,-0.266178 1.656226,-0.594218 2.375,-1 0.529883,-0.299149 0.96306,-0.672456 1.3125,-1.15625 0.232916,-0.322477 0.25567,-0.513161 0.34375,-0.78125 0.08808,-0.268089 0.177725,-0.542006 0.21875,-0.84375 0.03418,-0.2514 -0.0035,-0.256941 0,-0.4375 0.0035,-0.180559 0.02864,-0.424562 0.03125,-0.75 0.0052,-0.650875 -0.0024,-1.611033 0,-2.90625 0.0047,-2.590435 0.0045,-6.538461 0,-12.09375 L 46.625,7.25 A 1.0654579,1.0654579 0 0 0 45.59375,6.1875 l -1.5,-0.03125 C 42.064557,6.1191022 41.750095,6.0845774 40.65625,5.6875 40.485543,5.6255309 40.315174,5.547459 40.1875,5.5 c -0.06384,-0.023729 -0.106719,-0.013699 -0.15625,-0.03125 -0.02477,-0.00878 -0.06106,-0.020905 -0.09375,-0.03125 -0.0098,-0.0031 -0.01716,-0.027194 -0.03125,-0.03125 -0.0063,-0.00269 -0.02415,0.00303 -0.03125,0 C 39.817288,5.3816215 39.752814,5.3549657 39.65625,5.3125 39.439351,5.2171156 39.142851,5.0723203 38.84375,4.9375 38.245548,4.6678594 37.489231,4.3213905 37.53125,4.34375 37.393124,4.2702481 37.173153,4.1650435 36.71875,3.9375 36.264347,3.7099565 35.646142,3.3828236 35,3.0625 32.418529,1.782742 31.268677,1.2315767 30.53125,1 30.378746,0.95210879 30.163446,0.87132337 30.09375,0.84375 29.650522,0.66839857 29.175989,0.60230435 28.5625,0.46875 27.949011,0.33519565 27.363523,0.20272155 26.9375,0.15625 25.843063,0.03686683 24.89136,-0.00757386 23.9375,0 z"
     id="path3036"
     style="fill:#000000"
     inkscape:original="M 23.9375 1.0625 C 23.133625 1.06888 22.311235 1.1166236 21.375 1.21875 C 20.753889 1.286502 18.869285 1.6976514 18.5 1.84375 C 18.392586 1.886246 18.128458 1.9712829 17.9375 2.03125 C 17.407307 2.1977481 16.229468 2.7555826 13.65625 4.03125 C 12.36694 4.6704221 11.241961 5.2356402 11.15625 5.28125 C 10.894657 5.420453 8.6356633 6.4375 8.59375 6.4375 C 8.572166 6.4375003 8.2613899 6.55858 7.90625 6.6875 C 6.744095 7.1093744 6.1754597 7.1812126 4.125 7.21875 L 2.625 7.25 L 2.625 22.90625 C 2.61609 34.01616 2.622778 38.691298 2.65625 38.9375 C 2.712243 39.349362 2.8724017 39.917088 3 40.09375 C 3.1984857 40.368555 3.6495773 40.739668 4 40.9375 C 4.6332968 41.295024 5.3971834 41.628494 6.15625 41.875 C 6.4307533 41.96415 6.728956 42.083644 6.8125 42.125 C 6.896044 42.16635 7.128922 42.247845 7.34375 42.3125 C 7.5585786 42.37716 8.028888 42.511004 8.375 42.625 C 8.7211117 42.738995 9.278888 42.929321 9.625 43.03125 C 9.9711124 43.133175 10.448802 43.265434 10.6875 43.34375 C 10.926198 43.42206 11.64132 43.64146 12.25 43.8125 C 12.85868 43.983542 13.603324 44.208196 13.9375 44.3125 C 14.271677 44.416794 14.795378 44.550444 15.09375 44.625 C 15.392122 44.69956 16.034539 44.86794 16.5 45 C 17.583712 45.307471 19.16362 45.736417 20.21875 46 C 21.127415 46.227 22.50016 46.544041 23.6875 46.78125 C 23.949233 46.83354 24.579134 46.761918 25.375 46.59375 C 26.578374 46.33947 27.585968 46.119965 28.65625 45.84375 C 29.458572 45.63669 30.950054 45.209224 31.6875 45 C 32.15296 44.867942 32.764127 44.699555 33.0625 44.625 C 33.360871 44.55044 33.884574 44.416791 34.21875 44.3125 C 34.552928 44.208198 35.32882 43.983545 35.9375 43.8125 C 36.54618 43.641458 37.23005 43.422066 37.46875 43.34375 C 37.707448 43.26543 38.185139 43.133175 38.53125 43.03125 C 38.877361 42.929321 39.466389 42.738995 39.8125 42.625 C 40.158616 42.511004 40.597671 42.377158 40.8125 42.3125 C 41.027325 42.24784 41.291453 42.166355 41.375 42.125 C 41.45854 42.08364 41.725498 41.964147 42 41.875 C 42.759067 41.628494 43.554207 41.295024 44.1875 40.9375 C 44.53792 40.739668 44.957761 40.368555 45.15625 40.09375 C 45.283848 39.917088 45.475254 39.349362 45.53125 38.9375 C 45.56472 38.691298 45.57141 34.01616 45.5625 22.90625 L 45.5625 7.25 L 44.0625 7.21875 C 42.01204 7.1812129 41.443405 7.1093746 40.28125 6.6875 C 39.926112 6.5585798 39.615333 6.4375 39.59375 6.4375 C 39.551837 6.4375003 37.292844 5.420453 37.03125 5.28125 C 36.945539 5.2356402 35.820558 4.6704221 34.53125 4.03125 C 31.95803 2.7555826 30.748943 2.1977482 30.21875 2.03125 C 30.027792 1.9712828 29.794915 1.886246 29.6875 1.84375 C 29.318213 1.6976514 27.433609 1.286502 26.8125 1.21875 C 25.751433 1.1030069 24.848558 1.055266 23.9375 1.0625 z "
     inkscape:radius="1.0653514"
     sodipodi:type="inkscape:offset" /><path
     sodipodi:nodetypes="sssssscsccsssscccsccsccssssssccsccsccssscsccssssssss"
     inkscape:connector-curvature="0"
     id="rect1560"
     style="fill:#ffffff"
     d="m 29.79086,2.0006102 c -1.048044,0.00614 -2.106645,0.058747 -3.327252,0.1569914 -0.809767,0.065177 -3.281285,0.4586939 -3.762737,0.5992393 -0.140039,0.04088 -0.458138,0.1213493 -0.707097,0.179037 C 21.30254,3.0960473 19.747932,3.629338 16.393126,4.856517 14.712201,5.471394 13.245521,6.0104515 13.133775,6.0543277 12.792727,6.1882396 9.8530183,7.1833294 9.7983748,7.1833294 9.7702348,7.1833296 9.3686854,7.284442 8.9056753,7.4084617 7.3905276,7.8143006 6.6455541,7.8927609 3.9722881,7.9288714 l -1.951988,0.026722 -0.016297,15.0718385 c -0.011617,10.68762 0.00163,15.168353 0.045269,15.405197 0.073,0.396207 0.3080615,0.95371 0.4744165,1.123657 0.2587737,0.264359 0.8224345,0.622035 1.2792946,0.812347 0.8256542,0.343935 1.8387653,0.668736 2.8283907,0.905873 0.3578808,0.08576 0.7403218,0.188022 0.8492415,0.227805 0.1089197,0.03978 0.4270179,0.12352 0.7070977,0.185717 0.2800807,0.0622 0.8787556,0.202316 1.3299956,0.311979 0.4512397,0.109662 1.1892993,0.28006 1.6405393,0.378115 0.45124,0.09805 1.074929,0.23998 1.386129,0.315319 0.3112,0.07533 1.215466,0.271697 2.009027,0.436237 0.79356,0.16454 1.798785,0.380655 2.234464,0.480994 0.43568,0.10033 1.110301,0.241592 1.499301,0.313315 0.388998,0.07173 1.203909,0.234374 1.810749,0.361414 1.412879,0.295784 3.490775,0.705085 4.86639,0.958649 1.184663,0.218371 2.978893,0.511338 4.526875,0.73953 0.341232,0.0503 1.168795,-0.0166 2.206396,-0.178369 1.568887,-0.244616 2.87619,-0.469805 4.271559,-0.735521 1.046019,-0.199189 2.97151,-0.583017 3.932948,-0.784289 0.606839,-0.127038 1.421748,-0.289693 1.810749,-0.361414 0.388999,-0.07173 1.063623,-0.212988 1.499302,-0.313315 0.43568,-0.100337 1.440904,-0.316451 2.234465,-0.480994 0.79356,-0.164542 1.697825,-0.360898 2.009028,-0.436237 0.311199,-0.07534 0.934888,-0.217268 1.386126,-0.315319 0.451239,-0.09805 1.1893,-0.268453 1.640539,-0.378115 0.451245,-0.109663 1.049916,-0.249778 1.329998,-0.311979 0.280075,-0.0622 0.598173,-0.145933 0.707096,-0.185717 0.108914,-0.03979 0.491362,-0.142046 0.849241,-0.227805 0.989626,-0.237137 2.002742,-0.561938 2.828391,-0.905873 0.456857,-0.190312 1.020518,-0.547988 1.279296,-0.812347 0.166355,-0.169947 0.401413,-0.72745 0.474417,-1.123657 0.04364,-0.236844 0.05688,-4.717577 0.04526,-15.405197 L 57.979706,7.9555933 56.027718,7.9288714 C 53.354451,7.8927613 52.609478,7.8143008 51.09433,7.4084617 50.631322,7.2844418 50.229768,7.1833294 50.201629,7.1833294 c -0.05464,2e-7 -2.99435,-0.9950898 -3.3354,-1.1290017 C 46.754483,6.0104515 45.287802,5.471394 43.60688,4.856517 40.25207,3.629338 38.697465,3.0960474 38.006232,2.9358779 37.757272,2.8781901 37.439176,2.7977217 37.299136,2.7568409 36.817681,2.6162955 34.346162,2.2227783 33.536398,2.1576016 32.153042,2.0462579 30.978643,1.9936512 29.79086,2.0006102 z" /></g><text
   xml:space="preserve"
   style="font-size:32px;font-style:normal;font-variant:normal;font-weight:normal;font-stretch:normal;text-align:end;line-height:125%;writing-mode:lr;text-anchor:end;fill:#000000;fill-opacity:1;stroke:none;font-family:Roadgeek 2005 Series D;-inkscape-font-specification:Roadgeek 2005 Series D"
   x="37"
   y="36"
   id="routenum"
   sodipodi:linespacing="125%"><tspan
     sodipodi:role="line"
     id="tspan3524">%num%</tspan></text>






<text
   xml:space="preserve"
   style="font-size:24px;font-style:normal;font-variant:normal;font-weight:normal;font-stretch:normal;text-align:start;line-height:125%;letter-spacing:0px;word-spacing:0px;writing-mode:lr;text-anchor:start;fill:#000000;fill-opacity:1;stroke:none;font-family:Roadgeek 2005 Series D;-inkscape-font-specification:Roadgeek 2005 Series D"
   x="37"
   y="36"
   id="text3520"
   sodipodi:linespacing="125%"><tspan
     sodipodi:role="line"
     id="tspan3526">%suf%</tspan></text>
</svg>