<?xml version="1.0" encoding="UTF-8" standalone="no"?>
<!-- Created with Inkscape (http://www.inkscape.org/) -->

<svg
   xmlns:dc="http://purl.org/dc/elements/1.1/"
   xmlns:cc="http://creativecommons.org/ns#"
   xmlns:rdf="http://www.w3.org/1999/02/22-rdf-syntax-ns#"
   xmlns:svg="http://www.w3.org/2000/svg"
   xmlns="http://www.w3.org/2000/svg"
   xmlns:sodipodi="http://sodipodi.sourceforge.net/DTD/sodipodi-0.dtd"
   xmlns:inkscape="http://www.inkscape.org/namespaces/inkscape"
   version="1.0"
   width="48"
   height="48"
   id="svg2"
   sodipodi:version="0.32"
   inkscape:version="0.48.1 r9760"
   sodipodi:docname="US:NY-MSP.svg">
  <metadata
     id="metadata2453">
    <rdf:RDF>
      <cc:Work
         rdf:about="">
        <dc:format>image/svg+xml</dc:format>
        <dc:type
           rdf:resource="http://purl.org/dc/dcmitype/StillImage" />
      </cc:Work>
    </rdf:RDF>
  </metadata>
  <sodipodi:namedview
     inkscape:window-height="996"
     inkscape:window-width="1278"
     inkscape:pageshadow="2"
     inkscape:pageopacity="0.0"
     borderopacity="1.0"
     bordercolor="#666666"
     pagecolor="#ffffff"
     id="base"
     inkscape:zoom="16.895833"
     inkscape:cx="24"
     inkscape:cy="24"
     inkscape:window-x="1"
     inkscape:window-y="27"
     inkscape:current-layer="svg2"
     showgrid="true"
     inkscape:showpageshadow="false"
     inkscape:window-maximized="0">
    <inkscape:grid
       type="xygrid"
       id="grid3603"
       empspacing="5"
       visible="true"
       enabled="true"
       snapvisiblegridlinesonly="true" />
  </sodipodi:namedview>
  <defs
     id="defs4" />
  <g
     id="g3609">
    <rect
       y="1.6999999"
       x="1.7"
       height="44.599998"
       width="44.599998"
       id="rect1474"
       style="fill:#ffffff;fill-opacity:1" />
    <path
       d="M 2.8335835,46.985244 C 2.5329677,46.942136 2.1979209,46.814695 1.9440415,46.646892 1.7645296,46.528245 1.4989403,46.2704 1.3749444,46.094394 1.2350982,45.895888 1.1069718,45.619332 1.048377,45.389515 L 1,45.199775 1,23.988668 1,2.7775599 1.0545729,2.5837077 C 1.1643811,2.1936509 1.3578624,1.8707429 1.6463812,1.596017 1.9345123,1.3216603 2.2642825,1.1393222 2.6384957,1.0474522 l 0.1933629,-0.0474709 21.1783194,0 21.178319,0 0.197551,0.0535508 c 0.383946,0.1040766 0.683588,0.2720756 0.967571,0.5424848 0.292769,0.278771 0.5009,0.6309131 0.598004,1.0117742 L 47,2.7975327 l 0,21.2111093 0,21.211105 -0.05457,0.193852 c -0.06729,0.239027 -0.184339,0.487699 -0.320583,0.681093 -0.123886,0.17585 -0.389512,0.433642 -0.569196,0.552407 -0.181918,0.120242 -0.467749,0.246684 -0.683966,0.302561 l -0.183186,0.04734 -21.117257,0.0028 C 12.2905,47.001289 2.9007507,46.994874 2.8335835,46.985244 z m 42.0903105,-1.10352 c 0.487215,-0.146351 0.820884,-0.485741 0.945456,-0.961669 l 0.04185,-0.159884 -0.0054,-20.801563 C 45.900673,3.8380967 45.899274,3.1531194 45.86311,3.0372061 45.714004,2.5592593 45.369375,2.2331143 44.883078,2.1097308 l -0.16294,-0.041341 -20.760952,0.00525 C 3.8796265,2.0787239 3.194222,2.0801004 3.0761063,2.115581 2.589046,2.2618884 2.256668,2.6000675 2.1309311,3.0772525 L 2.0888028,3.2371357 2.0941503,24.0387 c 0.00517,20.120508 0.00657,20.805487 0.042737,20.921403 0.1476153,0.473159 0.4899477,0.800123 0.9697474,0.926207 0.1524469,0.04006 0.1809955,0.04012 20.9238925,0.03611 20.091533,-0.0038 20.775236,-0.0052 20.893364,-0.0407 z M 3.0941697,28.324106 c -0.00616,-0.01574 -0.00678,-0.09889 -0.00137,-0.184758 0.00541,-0.08587 0.024564,-0.713364 0.042579,-1.394434 0.02616,-0.98902 0.038297,-1.242337 0.060284,-1.258285 0.015142,-0.01099 0.3745467,-0.104278 0.7986784,-0.207307 0.4241316,-0.103033 0.7829956,-0.198119 0.7974758,-0.211295 0.020256,-0.01844 0.1174538,-2.059337 0.4214895,-8.8502 0.2173391,-4.854429 0.3886775,-8.8324456 0.3807524,-8.8400379 -0.00793,-0.00759 -0.051046,-0.016651 -0.095826,-0.020132 l -0.081416,-0.00632 0,-0.5991837 0,-0.5991838 0.4783185,-0.00999 0.4783184,-0.00999 0.00533,-0.6491159 0.00533,-0.6491158 0.5746296,-0.5642313 C 7.2747859,3.9602018 7.5426493,3.7062978 7.553991,3.7062978 c 0.011342,0 0.2792053,0.253904 0.5952519,0.5642315 l 0.5746297,0.5642313 0.00533,0.6491158 0.00533,0.6491159 0.3969029,0.00999 0.3969027,0.00999 0,0.5991838 0,0.5991837 -0.10177,0.00619 c -0.055973,0.0034 -0.1084665,0.012673 -0.1166511,0.020595 -0.012796,0.012385 0.3876262,12.9857342 0.4235053,13.7212592 0.011989,0.245822 0.015899,0.265666 0.050523,0.256779 0.020642,-0.0053 0.4176166,-0.248764 0.8821646,-0.541036 0.464548,-0.292271 0.858892,-0.531403 0.876321,-0.531403 0.02425,0 2.958629,1.933585 3.028505,1.995608 0.0083,0.0074 0.06031,0.60961 0.11548,1.338227 0.05847,0.772122 0.109326,1.333608 0.121919,1.345966 0.01188,0.01166 0.367562,0.06885 0.790393,0.127073 l 0.768786,0.105866 1.098994,-0.327015 c 0.886176,-0.263691 1.105823,-0.322618 1.134258,-0.304304 0.0194,0.0125 0.507705,0.521536 1.085132,1.131207 0.577427,0.609667 1.079058,1.12937 1.114736,1.154891 0.03568,0.02552 0.207977,0.117134 0.382888,0.203585 l 0.318017,0.157179 0.424902,0.08012 c 0.277818,0.05238 0.53647,0.08756 0.747202,0.101645 l 0.322296,0.02153 0.288322,-0.06156 c 0.568128,-0.12132 0.819111,-0.181557 0.919293,-0.220638 0.08053,-0.03141 0.13775,-0.07933 0.274109,-0.229542 0.09479,-0.104413 0.183289,-0.187311 0.196671,-0.184221 0.01338,0.0031 0.119014,0.112715 0.234739,0.243607 0.115725,0.130893 0.233309,0.254375 0.261294,0.274411 0.02799,0.02004 0.224766,0.09039 0.437284,0.15634 l 0.386393,0.119909 0.479855,0.04031 0.47985,0.0403 0.639027,-0.04039 0.63903,-0.04039 0.357113,-0.131011 c 0.196414,-0.07206 0.375433,-0.142653 0.397821,-0.156885 0.02239,-0.01423 0.141099,-0.107966 0.2638,-0.208298 0.122696,-0.100331 0.232845,-0.182417 0.244775,-0.182417 0.01193,0 0.06725,0.05935 0.122929,0.131883 0.136878,0.178308 0.199063,0.22266 0.525876,0.375039 0.199624,0.09308 0.376107,0.156958 0.610676,0.221039 0.300234,0.08201 0.367369,0.0929 0.746413,0.12098 l 0.416504,0.03085 0.392533,-0.06186 c 0.46988,-0.07405 1.043329,-0.230761 1.390302,-0.379938 0.216524,-0.09309 0.259072,-0.121027 0.517238,-0.339617 0.154717,-0.130999 0.291427,-0.238181 0.303794,-0.238181 0.01237,0 0.122933,0.09887 0.245691,0.219701 0.12276,0.120835 0.230421,0.219701 0.239249,0.219701 0.0088,0 0.0502,0.02181 0.09194,0.04847 0.04174,0.02666 0.218191,0.10294 0.392118,0.169502 0.273975,0.104856 0.374302,0.131736 0.750909,0.201182 0.239075,0.04409 0.491481,0.08016 0.560898,0.08016 0.06941,0 0.308544,-0.0271 0.53139,-0.06022 0.394263,-0.0586 0.414566,-0.06397 0.753731,-0.199306 0.565629,-0.225703 0.790269,-0.33814 1.012503,-0.506781 0.110484,-0.08384 0.210534,-0.152439 0.222335,-0.152439 0.01181,0 0.136739,0.1101 0.27764,0.244666 0.235465,0.224879 0.282951,0.259805 0.587088,0.431808 l 0.330903,0.187143 0.391462,0.09633 c 0.370026,0.09105 0.414603,0.09754 0.814035,0.118397 0.408599,0.02133 0.435515,0.02034 0.814157,-0.03015 0.682636,-0.09101 1.086718,-0.213652 1.319351,-0.400416 l 0.135774,-0.108999 0.781065,0.0053 0.781063,0.0053 0,0.539265 0,0.539265 -21.224749,0.005 c -18.4143207,0.0043 -21.2262341,0.0012 -21.2359489,-0.02363 z m 5.0602552,-3.945969 0.010177,-1.987291 0.4314,-0.280186 c 0.2372699,-0.1541 0.4366986,-0.28538 0.4431748,-0.291736 0.01443,-0.01415 -0.08688,-3.250228 -0.1025305,-3.275077 -0.015505,-0.02462 -3.1577086,-0.02333 -3.1732215,0.0012 -0.016174,0.02567 -0.3791382,7.790977 -0.3651995,7.813105 0.00614,0.0098 0.6140559,0.01519 1.3785067,0.01231 l 1.3675159,-0.0052 0.010177,-1.987294 z M 8.8352237,12.056605 C 8.8495753,12.033819 8.748493,7.3835116 8.7331154,7.3590962 8.7183283,7.3356171 6.1860528,7.335688 6.1712647,7.3591602 6.1558278,7.3836695 6.0547531,12.033657 6.0691595,12.05653 c 0.015423,0.02449 2.7506427,0.02455 2.7660642,6.5e-5 z m -1.4440729,-6.5627453 0,-0.6391293 -0.3154867,0 -0.3154868,0 -0.00539,0.6189617 c -0.00296,0.340429 -8.689e-4,0.6305192 0.00466,0.6446451 0.00771,0.01972 0.082222,0.024403 0.3208764,0.020167 l 0.3108327,-0.00552 0,-0.6391296 z m 0.9566371,0 0,-0.6391293 -0.3154866,0 -0.3154867,0 -0.00539,0.6189617 c -0.00296,0.340429 -8.689e-4,0.6305192 0.00466,0.6446451 0.00771,0.01972 0.082222,0.024403 0.3208762,0.020167 l 0.3108328,-0.00552 0,-0.6391296 z"
       style="fill:#000000"
       id="path1317"
       inkscape:connector-curvature="0" />
  </g>
  <path
     inkscape:connector-curvature="0"
     id="text1331"
     style="font-size:376.64926147px;font-style:normal;font-variant:normal;font-weight:normal;font-stretch:normal;text-align:center;line-height:100%;writing-mode:lr-tb;text-anchor:middle;fill:#000000;fill-opacity:1;stroke:none;font-family:Roadgeek 2005 Series E"
     d="m 36.079294,23.011832 0,-10.26997 -4.946659,10.26997 -4.89644,-10.26997 0,10.26997 -2.962975,0 0,-16.8236674 2.962975,0 4.89644,9.9686504 4.946659,-9.9686504 2.962975,0 0,16.8236674 -2.962975,0" />
  <path
     inkscape:connector-curvature="0"
     id="text1335"
     style="font-size:212.95323181px;font-style:normal;font-variant:normal;font-weight:normal;font-stretch:normal;text-align:center;line-height:100%;writing-mode:lr-tb;text-anchor:middle;fill:#000000;fill-opacity:1;stroke:none;font-family:Roadgeek 2005 Series E"
     d="m 10.954849,40.418144 c -5e-6,0.123042 -0.01657,0.246082 -0.04969,0.369117 -0.03313,0.123043 -0.08282,0.238985 -0.149068,0.347825 -0.06152,0.108844 -0.13724,0.210589 -0.227149,0.305233 -0.08992,0.08992 -0.191662,0.165631 -0.305233,0.227149 -0.137241,0.07572 -0.2697446,0.125409 -0.3975132,0.149067 -0.1230427,0.02366 -0.274476,0.03549 -0.4543002,0.03549 l -1.3558021,0 0,1.866889 -0.8660097,0 0,-4.755955 2.2218118,0 c 0.1798242,6e-6 0.3312575,0.0142 0.4543002,0.04259 0.1277686,0.0284 0.2602722,0.08045 0.3975132,0.156166 0.227146,0.123045 0.404606,0.295774 0.532382,0.518187 0.1325,0.22242 0.198752,0.4685 0.198757,0.738238 m -0.851813,0 c -3e-6,-0.184558 -0.06389,-0.331258 -0.1916579,-0.440105 C 9.783603,39.869201 9.6132406,39.814779 9.4002904,39.814775 l -1.3841959,0 0,1.18544 1.3841959,0 c 0.2129502,2e-6 0.3833126,-0.05205 0.5110877,-0.156165 0.1277689,-0.10884 0.1916549,-0.250809 0.1916579,-0.425906 m 5.156573,3.300773 -0.468497,-1.121554 -2.072745,0 -0.461398,1.121554 -0.936994,0 2.00176,-4.755955 0.86601,0 1.987563,4.755955 -0.915699,0 m -1.504869,-3.570516 -0.667254,1.604249 1.334507,0 -0.667253,-1.604249 m 6.12795,3.570516 -0.766631,-1.866889 -1.270621,0 0,1.866889 -0.851813,0 0,-4.755955 2.18632,0 c 0.175092,6e-6 0.324159,0.0142 0.447201,0.04259 0.123037,0.0284 0.246076,0.08045 0.369119,0.156166 0.227147,0.123045 0.406973,0.295774 0.539482,0.518187 0.1325,0.22242 0.198752,0.4685 0.198756,0.738238 -4e-6,0.269742 -0.06862,0.515822 -0.205855,0.738237 -0.132508,0.217687 -0.3218,0.392783 -0.567875,0.525285 l 0.873108,2.037251 -0.951191,0 m 0,-3.300773 c -3e-6,-0.184558 -0.06152,-0.331258 -0.184559,-0.440105 -0.123043,-0.108838 -0.291039,-0.16326 -0.503989,-0.163264 l -1.348704,0 0,1.18544 1.348704,0 c 0.21295,2e-6 0.380946,-0.05205 0.503989,-0.156165 0.123036,-0.10884 0.184556,-0.250809 0.184559,-0.425906 m 4.875076,3.300773 -1.213833,-2.470256 -0.901502,1.135749 0,1.334507 -0.851813,0 0,-4.755955 0.851813,0 0,2.072746 1.682329,-2.072746 1.10026,0 -1.263522,1.554559 1.568755,3.201396 -0.972487,0 m 5.487871,0 -0.901502,0 -0.766631,-3.1872 -0.752436,3.1872 -0.901502,0 -0.866009,-4.755955 0.880207,0 0.518184,3.073626 0.702747,-3.073626 0.851813,0 0.73114,3.073626 0.489791,-3.073626 0.866011,0 -0.851813,4.755955 m 5.158568,0 -0.468497,-1.121554 -2.072745,0 -0.461397,1.121554 -0.936996,0 2.001762,-4.755955 0.866009,0 1.987564,4.755955 -0.9157,0 m -1.504868,-3.570516 -0.667254,1.604249 1.334507,0 -0.667253,-1.604249 m 5.659452,1.632642 0,1.937874 -0.851811,0 0,-1.937874 -2.001762,-2.818081 1.050571,0 1.384196,1.937875 1.369997,-1.937875 1.050571,0 -2.001762,2.818081" />
  <path
     inkscape:connector-curvature="0"
     id="text1339"
     style="font-size:212.95323181px;font-style:normal;font-variant:normal;font-weight:normal;font-stretch:normal;text-align:center;line-height:100%;writing-mode:lr-tb;text-anchor:middle;fill:#000000;fill-opacity:1;stroke:none;font-family:Roadgeek 2005 Series E"
     d="m 7.3091344,35.452251 0,-2.669013 -0.8802066,2.669013 -0.887305,-2.669013 0,2.669013 -0.6814504,0 0,-4.755955 0.6814504,0 0.887305,2.669015 0.8802066,-2.669015 0.6885486,0 0,4.755955 -0.6885486,0 m 1.7241445,0 0,-4.755955 2.2360091,0 0,0.667255 -1.5545587,0 0,1.199636 0.9866827,0 0,0.653055 -0.9866827,0 0,1.568756 1.7391177,0 0,0.667253 -2.4205681,0 m 5.2040441,0 -0.333627,-1.299013 -1.022175,0 -0.312331,1.299013 -0.688549,0 1.185439,-4.755955 0.667254,0 1.185439,4.755955 -0.68145,0 m -0.851813,-3.336267 -0.333626,1.37 0.68145,0 -0.347824,-1.37 m 4.860658,0.951191 c -4e-6,1.088429 -0.227153,1.810103 -0.681451,2.165025 -0.08518,0.08045 -0.184561,0.137237 -0.298134,0.170362 -0.113577,0.03313 -0.236617,0.04969 -0.369119,0.04969 l -1.32031,0 0,-4.755955 1.213833,0 c 0.203487,6e-6 0.362019,0.0142 0.475596,0.04259 0.113573,0.0284 0.212951,0.07572 0.298134,0.141969 0.141967,0.09938 0.260274,0.238986 0.354922,0.418809 0.09938,0.179831 0.17036,0.390417 0.212954,0.631759 0.03312,0.1751 0.05915,0.362025 0.07808,0.560778 0.02366,0.19876 0.03549,0.390418 0.03549,0.574973 m -0.667254,0.03549 c -2e-6,-0.26974 -0.01183,-0.520551 -0.03549,-0.752436 -0.02366,-0.236611 -0.05679,-0.404606 -0.09938,-0.503989 -0.108845,-0.321793 -0.3147,-0.482691 -0.617564,-0.482693 l -0.567876,0 0,3.421447 0.567876,0 c 0.09938,2e-6 0.186923,-0.01893 0.262642,-0.05679 0.08045,-0.03786 0.149065,-0.08755 0.205855,-0.149067 0.05679,-0.06152 0.101742,-0.132504 0.13487,-0.212953 0.03786,-0.08518 0.06625,-0.172729 0.08518,-0.262642 0.0142,-0.151434 0.02839,-0.309965 0.04259,-0.475596 0.01419,-0.170362 0.02129,-0.345455 0.0213,-0.525284 m 4.307422,-0.03549 c -3e-6,0.364389 -0.0213,0.674354 -0.06389,0.929896 -0.03786,0.255547 -0.10648,0.496893 -0.205855,0.724042 -0.11831,0.283938 -0.267377,0.492158 -0.447201,0.624662 -0.175097,0.127771 -0.397515,0.191658 -0.667254,0.191658 -0.283939,0 -0.515821,-0.06389 -0.695647,-0.191658 -0.175096,-0.132504 -0.321797,-0.340724 -0.440103,-0.624662 -0.09938,-0.231882 -0.170363,-0.473229 -0.212953,-0.724042 -0.03786,-0.255542 -0.05679,-0.565507 -0.05679,-0.929896 0,-0.359651 0.01893,-0.667251 0.05679,-0.922797 0.04259,-0.260271 0.113574,-0.503985 0.212953,-0.731138 0.123039,-0.283933 0.272106,-0.487422 0.447202,-0.610467 0.179825,-0.127766 0.409341,-0.191653 0.688548,-0.191657 0.274471,4e-6 0.499255,0.06389 0.674352,0.191657 0.175092,0.123045 0.321793,0.331265 0.440103,0.624663 0.04732,0.118311 0.08754,0.23662 0.120674,0.354922 0.03786,0.118311 0.06625,0.243718 0.08518,0.376218 0.02366,0.127775 0.04022,0.267377 0.04969,0.418808 0.0095,0.146703 0.01419,0.309967 0.0142,0.489791 m -0.653056,0 c -3e-6,-0.132502 -0.0047,-0.253175 -0.0142,-0.362019 -0.0047,-0.10884 -0.0142,-0.208218 -0.02839,-0.298136 -0.0095,-0.09464 -0.02366,-0.184556 -0.04259,-0.26974 -0.01893,-0.08518 -0.04023,-0.17036 -0.06389,-0.255544 -0.06152,-0.212949 -0.139605,-0.366749 -0.234248,-0.461398 -0.08992,-0.09464 -0.205857,-0.141965 -0.347824,-0.141969 -0.293403,4e-6 -0.494526,0.196393 -0.603367,0.589171 -0.05679,0.179829 -0.09701,0.362022 -0.120674,0.54658 -0.01893,0.179829 -0.02839,0.402247 -0.02839,0.667253 -2e-6,0.127774 0.0024,0.24608 0.0071,0.354922 0.0095,0.104112 0.01893,0.203489 0.02839,0.298134 0.0142,0.08992 0.03076,0.179829 0.04969,0.269742 0.01893,0.08991 0.04022,0.182193 0.06389,0.276838 0.108841,0.392782 0.309964,0.589171 0.603367,0.589171 0.141967,0 0.257908,-0.04732 0.347824,-0.141969 0.09464,-0.09464 0.172726,-0.243713 0.234248,-0.447202 0.02839,-0.09464 0.05205,-0.184558 0.07099,-0.26974 0.01893,-0.08991 0.03312,-0.182191 0.04259,-0.27684 0.01419,-0.09464 0.02366,-0.194022 0.02839,-0.298134 0.0047,-0.108842 0.0071,-0.23188 0.0071,-0.36912 m 4.07894,2.385076 -0.582071,0 -0.4543,-2.484453 -0.447202,2.484453 -0.603367,0 -0.752436,-4.755955 0.667254,0 0.404611,2.534144 0.461397,-2.534144 0.539483,0 0.447202,2.534144 0.418809,-2.534144 0.667253,0 -0.766633,4.755955 m 4.094579,-1.299013 c -2e-6,0.179828 -0.03313,0.350191 -0.09938,0.511086 -0.06626,0.156167 -0.158534,0.293405 -0.276838,0.411711 -0.113578,0.113574 -0.248449,0.205854 -0.404611,0.276838 -0.151436,0.06625 -0.3147,0.09938 -0.489794,0.09938 l -1.398393,0 0,-4.755955 1.497771,0 c 0.160896,6e-6 0.307598,0.03077 0.440105,0.09228 0.1325,0.05679 0.246075,0.139609 0.340724,0.248446 0.09464,0.108847 0.167993,0.238985 0.220051,0.390414 0.05679,0.151437 0.08518,0.319433 0.08518,0.503988 -4e-6,0.108847 -0.0095,0.20586 -0.02839,0.291038 -0.0142,0.08045 -0.04023,0.1609 -0.07808,0.241347 -0.03786,0.07572 -0.08992,0.153802 -0.156165,0.234249 -0.06152,0.08045 -0.139607,0.170364 -0.234249,0.26974 0.179825,0.151435 0.321794,0.326531 0.425907,0.525284 0.104107,0.194027 0.156162,0.414078 0.156164,0.660156 m -0.752433,-2.221814 c -2e-6,-0.198751 -0.04023,-0.343086 -0.120673,-0.433004 -0.08045,-0.08991 -0.212956,-0.134867 -0.397514,-0.134869 l -0.716942,0 0,1.27062 0.716942,0 c 0.160896,2e-6 0.286303,-0.06152 0.376218,-0.18456 0.09464,-0.127769 0.141967,-0.300498 0.141969,-0.518187 m 0.08518,2.172125 c -2e-6,-0.113574 -0.01656,-0.217685 -0.04969,-0.312331 -0.03313,-0.09938 -0.07808,-0.184558 -0.134869,-0.255545 -0.05679,-0.07572 -0.125409,-0.132502 -0.205855,-0.170362 -0.07572,-0.04259 -0.156169,-0.06388 -0.241347,-0.06389 l -0.688549,0 0,1.483574 0.688549,0 c 0.194022,2e-6 0.34782,-0.06152 0.461398,-0.184558 0.113573,-0.12304 0.17036,-0.288669 0.170362,-0.496891 m 3.430544,1.348702 -0.631762,-2.236009 -0.653056,0 0,2.236009 -0.681451,0 0,-4.755955 1.419689,0 c 0.184558,6e-6 0.352553,0.03077 0.503989,0.09228 0.156164,0.06152 0.288669,0.146706 0.397513,0.255544 0.113571,0.108847 0.198754,0.243718 0.255545,0.404611 0.06151,0.156169 0.09228,0.328898 0.09228,0.518187 -5e-6,0.28394 -0.05679,0.525286 -0.170365,0.72404 -0.113577,0.19876 -0.28394,0.340729 -0.511086,0.425906 l 0.681451,2.335387 -0.702747,0 m 0.03549,-3.485333 c -4e-6,-0.184556 -0.05679,-0.331258 -0.170364,-0.440105 -0.113576,-0.108837 -0.262644,-0.16326 -0.4472,-0.163262 l -0.702747,0 0,1.199636 0.702747,0 c 0.198753,2e-6 0.350187,-0.04969 0.4543,-0.149067 0.10884,-0.104109 0.16326,-0.253176 0.163264,-0.447202 m 4.16878,1.100257 c -4e-6,0.364389 -0.0213,0.674354 -0.06389,0.929896 -0.03786,0.255547 -0.10648,0.496893 -0.205855,0.724042 -0.118309,0.283938 -0.267376,0.492158 -0.4472,0.624662 -0.175098,0.127771 -0.397516,0.191658 -0.667256,0.191658 -0.283937,0 -0.51582,-0.06389 -0.695646,-0.191658 -0.175096,-0.132504 -0.321796,-0.340724 -0.440102,-0.624662 -0.09938,-0.231882 -0.170365,-0.473229 -0.212954,-0.724042 -0.03786,-0.255542 -0.05679,-0.565507 -0.05679,-0.929896 0,-0.359651 0.01893,-0.667251 0.05679,-0.922797 0.04259,-0.260271 0.113574,-0.503985 0.212954,-0.731138 0.123037,-0.283933 0.272104,-0.487422 0.447202,-0.610467 0.179824,-0.127766 0.40934,-0.191653 0.688546,-0.191657 0.274471,4e-6 0.499256,0.06389 0.674354,0.191657 0.175091,0.123045 0.321793,0.331265 0.440102,0.624663 0.04732,0.118311 0.08754,0.23662 0.120673,0.354922 0.03786,0.118311 0.06625,0.243718 0.08518,0.376218 0.02366,0.127775 0.04022,0.267377 0.04969,0.418808 0.0095,0.146703 0.01419,0.309967 0.0142,0.489791 m -0.653058,0 c -2e-6,-0.132502 -0.0047,-0.253175 -0.0142,-0.362019 -0.0047,-0.10884 -0.0142,-0.208218 -0.0284,-0.298136 -0.0095,-0.09464 -0.02366,-0.184556 -0.04259,-0.26974 -0.01893,-0.08518 -0.04023,-0.17036 -0.06389,-0.255544 -0.06152,-0.212949 -0.139605,-0.366749 -0.234249,-0.461398 -0.08992,-0.09464 -0.205856,-0.141965 -0.347825,-0.141969 -0.293402,4e-6 -0.494524,0.196393 -0.603366,0.589171 -0.05679,0.179829 -0.09701,0.362022 -0.120674,0.54658 -0.01893,0.179829 -0.0284,0.402247 -0.02839,0.667253 -2e-6,0.127774 0.0024,0.24608 0.0071,0.354922 0.0095,0.104112 0.01893,0.203489 0.02839,0.298134 0.0142,0.08992 0.03076,0.179829 0.04969,0.269742 0.01893,0.08991 0.04022,0.182193 0.06389,0.276838 0.108842,0.392782 0.309964,0.589171 0.603366,0.589171 0.141969,0 0.257909,-0.04732 0.347825,-0.141969 0.09464,-0.09464 0.172726,-0.243713 0.234249,-0.447202 0.02839,-0.09464 0.05205,-0.184558 0.07098,-0.26974 0.01893,-0.08991 0.03312,-0.182191 0.04259,-0.27684 0.01419,-0.09464 0.02366,-0.194022 0.02839,-0.298134 0.0047,-0.108842 0.0071,-0.23188 0.0071,-0.36912 m 4.313191,0 c -2e-6,0.364389 -0.0213,0.674354 -0.06388,0.929896 -0.03786,0.255547 -0.10648,0.496893 -0.205856,0.724042 -0.118311,0.283938 -0.267378,0.492158 -0.447202,0.624662 -0.175098,0.127771 -0.397516,0.191658 -0.667253,0.191658 -0.28394,0 -0.515823,-0.06389 -0.695647,-0.191658 -0.175096,-0.132504 -0.321798,-0.340724 -0.440104,-0.624662 -0.09938,-0.231882 -0.170363,-0.473229 -0.212954,-0.724042 -0.03786,-0.255542 -0.05679,-0.565507 -0.05679,-0.929896 0,-0.359651 0.01893,-0.667251 0.05679,-0.922797 0.04259,-0.260271 0.113576,-0.503985 0.212954,-0.731138 0.12304,-0.283933 0.272106,-0.487422 0.447202,-0.610467 0.179826,-0.127766 0.409342,-0.191653 0.688549,-0.191657 0.274471,4e-6 0.499255,0.06389 0.674351,0.191657 0.175093,0.123045 0.321793,0.331265 0.440104,0.624663 0.04732,0.118311 0.08754,0.23662 0.120673,0.354922 0.03786,0.118311 0.06625,0.243718 0.08518,0.376218 0.02366,0.127775 0.04022,0.267377 0.04969,0.418808 0.0095,0.146703 0.01419,0.309967 0.0142,0.489791 m -0.653055,0 c -3e-6,-0.132502 -0.0047,-0.253175 -0.0142,-0.362019 -0.0047,-0.10884 -0.0142,-0.208218 -0.02839,-0.298136 -0.0095,-0.09464 -0.02366,-0.184556 -0.04259,-0.26974 -0.01893,-0.08518 -0.04023,-0.17036 -0.06389,-0.255544 -0.06152,-0.212949 -0.139605,-0.366749 -0.234247,-0.461398 -0.08992,-0.09464 -0.205858,-0.141965 -0.347824,-0.141969 -0.293405,4e-6 -0.494527,0.196393 -0.603367,0.589171 -0.05679,0.179829 -0.09701,0.362022 -0.120673,0.54658 -0.01893,0.179829 -0.0284,0.402247 -0.0284,0.667253 0,0.127774 0.0024,0.24608 0.0071,0.354922 0.0095,0.104112 0.01893,0.203489 0.02839,0.298134 0.0142,0.08992 0.03076,0.179829 0.04969,0.269742 0.01893,0.08991 0.04022,0.182193 0.06389,0.276838 0.10884,0.392782 0.309962,0.589171 0.603367,0.589171 0.141966,0 0.257908,-0.04732 0.347824,-0.141969 0.09464,-0.09464 0.172727,-0.243713 0.234247,-0.447202 0.02839,-0.09464 0.05205,-0.184558 0.07098,-0.26974 0.01893,-0.08991 0.03312,-0.182191 0.04259,-0.27684 0.0142,-0.09464 0.02366,-0.194022 0.02839,-0.298134 0.0047,-0.108842 0.0071,-0.23188 0.0071,-0.36912 m 3.560755,2.385076 -0.837616,-2.321189 -0.433004,0.802124 0,1.519065 -0.681451,0 0,-4.755955 0.681451,0 0,1.902382 1.08606,-1.902382 0.787926,0 -0.986682,1.668135 1.100258,3.08782 -0.716942,0" />
</svg>
