<?xml version="1.0" encoding="UTF-8" standalone="no"?>
<!-- Created with Inkscape (http://www.inkscape.org/) -->

<svg
   xmlns:dc="http://purl.org/dc/elements/1.1/"
   xmlns:cc="http://creativecommons.org/ns#"
   xmlns:rdf="http://www.w3.org/1999/02/22-rdf-syntax-ns#"
   xmlns:svg="http://www.w3.org/2000/svg"
   xmlns="http://www.w3.org/2000/svg"
   xmlns:sodipodi="http://sodipodi.sourceforge.net/DTD/sodipodi-0.dtd"
   xmlns:inkscape="http://www.inkscape.org/namespaces/inkscape"
   version="1.1"
   width="48"
   height="48"
   id="svg3096"
   inkscape:version="0.48.1 r9760"
   sodipodi:docname="US:ND_2.svg">
  <sodipodi:namedview
     pagecolor="#ffffff"
     bordercolor="#666666"
     borderopacity="1"
     objecttolerance="10"
     gridtolerance="10"
     guidetolerance="10"
     inkscape:pageopacity="0"
     inkscape:pageshadow="2"
     inkscape:window-width="1598"
     inkscape:window-height="1198"
     id="namedview12"
     showgrid="true"
     inkscape:showpageshadow="false"
     inkscape:zoom="20.25"
     inkscape:cx="24"
     inkscape:cy="24"
     inkscape:window-x="1"
     inkscape:window-y="1"
     inkscape:window-maximized="0"
     inkscape:current-layer="svg3096">
    <inkscape:grid
       type="xygrid"
       id="grid3006"
       empspacing="5"
       visible="true"
       enabled="true"
       snapvisiblegridlinesonly="true" />
  </sodipodi:namedview>
  <metadata
     id="metadata3102">
    <rdf:RDF>
      <cc:Work
         rdf:about="">
        <dc:format>image/svg+xml</dc:format>
        <dc:type
           rdf:resource="http://purl.org/dc/dcmitype/StillImage" />
        <dc:title />
      </cc:Work>
    </rdf:RDF>
  </metadata>
  <defs
     id="defs3100" />
  <g
     id="g3018">
    <path
       transform="matrix(0.99796932,0,0,0.99811206,0.04860704,0.04713368)"
       d="m 26.59375,1.03125 c -0.504229,0.062326 -0.926713,0.1680752 -1.375,0.3125 -0.925503,0.2981731 -1.735986,0.7166854 -2.8125,1.40625 -0.691353,0.4428482 -1.176054,0.8274003 -1.875,1.46875 -0.346712,0.3181457 -0.403804,0.3584605 -0.5,0.40625 -0.0962,0.04779 -0.412863,0.1419701 -1.125,0.34375 C 17.861036,5.2649046 17.264774,5.6245288 16,6.78125 15.59266,7.1537886 15.602654,7.1578759 15.375,7.3125 c -0.03935,0.026729 -0.584493,0.3216153 -1.09375,0.5625 -0.571384,0.2702763 -0.943159,0.5186633 -1.4375,0.9375 -0.181116,0.1534701 -0.287578,0.2243039 -0.5,0.4375 -0.212422,0.2131961 -0.479384,0.5060903 -0.75,0.78125 -1.091387,1.109732 -1.452484,1.505337 -1.96875,2.25 -0.3952333,0.570084 -1.2226622,1.675707 -1.40625,1.90625 -0.171192,0.214983 -0.5410669,0.668784 -1,1.15625 C 6.6397133,15.958784 6.4099953,16.204179 6.1875,16.5 5.9582396,16.80481 5.8397308,16.943591 5.53125,17.46875 5.387157,17.714055 5.2204018,18.007026 5.1875,18.0625 c -0.021974,0.03705 -0.2204281,0.373512 -0.40625,0.65625 -0.3813134,0.5802 -0.5384019,0.879015 -0.625,1.15625 -0.1383141,0.442807 -0.1211767,0.947581 0,1.6875 0.032694,0.199635 0.019452,0.360216 -0.125,0.8125 -0.1132153,0.354477 -0.12379,0.415402 -0.5625,1.21875 -0.4471534,0.818804 -0.7373065,1.419347 -1.375,3 -0.072424,0.179523 -0.1146951,0.342568 -0.15625,0.46875 -0.015762,0.04786 -0.020725,0.09216 -0.03125,0.125 -0.00335,0.01045 -0.028543,0.02283 -0.03125,0.03125 -0.21451,0.499122 -0.5699231,1.504252 -0.75,2.125 -0.1212772,0.418055 -0.20840074,0.850996 -0.15625,1.34375 0.0476286,0.450016 0.3700075,1.023936 0.59375,1.25 0.1846055,0.186528 0.6058715,0.498085 0.96875,0.59375 0.2501243,0.06593 0.5415564,0.05588 0.84375,0.0625 -0.026437,0.122157 -0.04531,0.245217 -0.0625,0.375 -0.023007,0.1737 0.05503,0.552462 0.09375,0.65625 0.1151529,0.30868 0.1464143,0.246387 0.1875,0.3125 0.035044,0.05639 0.073735,0.0891 0.09375,0.125 0.00345,0.0062 -0.00268,0.02617 0,0.03125 -0.029242,0.09017 -0.078331,0.175449 -0.09375,0.25 -0.018884,0.0913 -0.031229,0.10193 -0.03125,0.3125 -1.8e-5,0.226378 0.012861,0.257421 0.03125,0.34375 0.018389,0.08633 0.028669,0.147799 0.0625,0.25 0.059493,0.17972 0.061202,0.165617 0.0625,0.125 0.0013,-0.04062 -0.016724,0.03097 -0.09375,0.28125 -0.077528,0.251921 -0.125542,0.496683 -0.15625,0.6875 -0.058359,0.362603 -0.00882,0.787364 0.09375,1.21875 0.1059863,0.445733 0.4563748,0.944589 0.8125,1.21875 0.6906754,0.531692 1.5638043,0.749768 2.53125,0.75 0.637995,0 1.2646294,-0.116972 2.3125,-0.375 0.073389,-0.01807 0.1727003,-0.01844 0.25,-0.03125 0.0773,-0.01281 0.026104,-0.0083 0.25,-0.0625 0.351946,-0.08517 0.923795,-0.06077 0.78125,-0.09375 0.176993,0.04096 0.0012,0.01096 0.03125,0.03125 -0.05672,-0.0383 0.06312,0.02813 0.125,0.09375 0.03713,0.03937 0.02183,0.01967 0.03125,0.03125 0.0051,0.04569 0.0214,0.125833 0.03125,0.34375 0.03177,0.703048 0.09269,1.026461 0.46875,1.875 0.270047,0.609339 0.315893,0.80137 0.34375,1.1875 0.05365,0.743484 0.05787,1.031523 0.15625,1.34375 0.12104,0.384136 0.288144,0.652857 0.53125,0.9375 0.178876,0.209428 0.38936,0.389475 0.6875,0.59375 0.349909,0.23975 0.74509,0.401232 1.21875,0.53125 a 1.038316,1.038316 0 0 0 0.0625,0.03125 L 14.34375,46 a 1.038316,1.038316 0 0 0 0.34375,0 l 0.28125,-0.03125 a 1.038316,1.038316 0 0 0 0.0625,0 c 0.421615,-0.08045 0.828557,-0.213193 1.40625,-0.5 0.144855,-0.07192 0.248058,-0.165749 0.34375,-0.21875 0.04551,-0.01286 0.0053,0.0081 0.03125,0 -0.127805,0.03559 -0.07299,0.0095 0.1875,0.09375 0.296247,0.09586 0.738038,0.294559 1.28125,0.5625 0.437083,0.215594 0.917204,0.431083 1.25,0.5625 0.144441,0.05703 0.360051,0.130086 0.5625,0.15625 0.202449,0.02616 0.399991,0.02808 0.8125,0.0625 0.27316,0.0228 0.615233,0.05104 0.75,0.0625 0.318815,0.02712 0.747285,0.02176 1.28125,0.03125 0.947597,0.01684 1.08091,0.03295 1.90625,0.125 0.294562,0.03285 0.631044,0.07774 1.125,0.125 0.242858,0.02323 0.275289,4.62e-4 0.46875,0 0.193461,-4.62e-4 0.43451,0.0034 0.6875,0 0.50598,-0.0069 1.034262,-0.01765 1.3125,-0.03125 0.932976,-0.04529 1.823149,-0.200428 3.40625,-0.625 0.44175,-0.118478 0.674941,-0.179106 0.75,-0.1875 0.04453,-0.005 0.159148,-0.0027 0.375,-0.03125 -0.188693,0.02495 0.01812,-5.44e-4 0.15625,0 0.13813,5.44e-4 0.314594,-0.0028 0.5,0 a 1.038316,1.038316 0 0 0 0.03125,0 l 0.65625,0 A 1.038316,1.038316 0 0 0 34.78125,46.0625 L 34.875,46 c 0.0078,-0.0038 0.02351,0.0039 0.03125,0 0.160045,-0.0799 0.299045,-0.177552 0.4375,-0.3125 0.145155,-0.141478 0.34363,-0.316102 0.40625,-0.75 0.03136,-0.217448 2.25e-4,-0.230731 0,-0.3125 -1.13e-4,-0.04089 8.93e-4,-0.0797 0,-0.125 0.44344,0.35369 0.919046,0.675738 1.46875,0.84375 0.747762,0.228529 1.392308,0.383428 2.21875,0.0625 0.314589,-0.122177 0.642297,-0.328502 0.875,-0.65625 0.232703,-0.327748 0.319747,-0.745702 0.3125,-1.09375 -0.0091,-0.437767 -0.174725,-0.869016 -0.375,-1.34375 0.420985,-0.0063 0.758195,-0.02123 1.03125,-0.0625 0.314296,-0.0475 0.6008,-0.132081 0.8125,-0.21875 0.492123,-0.201471 0.963612,-0.394525 1.28125,-1.125 0.284975,-0.655451 0.163567,-1.174058 0,-1.6875 -0.03661,-0.114897 -0.02713,-0.205401 -0.1875,-0.53125 -0.105156,-0.213618 -0.192851,-0.314349 -0.3125,-0.5 -0.119649,-0.185651 -0.238627,-0.386854 -0.34375,-0.53125 -0.09481,-0.130232 -0.08613,-0.119474 -0.15625,-0.21875 0.235139,-0.02736 0.382088,-0.07647 0.5,-0.125 0.140475,-0.05782 0.29405,-0.09918 0.5,-0.1875 0.03537,-0.01517 0.290356,-0.119732 0.46875,-0.1875 0.213183,-0.081 0.338642,-0.129747 0.5,-0.21875 0.161358,-0.089 0.363888,-0.258468 0.4375,-0.34375 0.147511,-0.170921 0.350949,-0.544073 0.40625,-0.8125 0.04228,-0.205204 -0.02222,-0.862564 -0.21875,-1.1875 -0.0081,-0.01347 -0.05364,-0.157771 -0.125,-0.28125 -0.143785,-0.2488 -0.347364,-0.515783 -0.5625,-0.78125 0.118512,-0.07815 0.188646,-0.130564 0.3125,-0.21875 0.461233,-0.328425 0.557276,-0.394138 0.875,-0.5625 0.273502,-0.144925 0.464657,-0.223277 0.6875,-0.40625 0.222843,-0.182973 0.42009,-0.532733 0.5,-0.75 0.05129,-0.13948 0.12193,-0.323382 0.125,-0.59375 0.0031,-0.270368 -0.08044,-0.531568 -0.15625,-0.6875 -0.199416,-0.410491 -0.585938,-0.717173 -1.0625,-1.0625 0.239113,-0.213293 0.460946,-0.461416 0.65625,-0.65625 0.200062,-0.199581 0.306263,-0.21418 0.53125,-0.59375 0.283252,-0.477894 0.380577,-1.03937 0.21875,-1.59375 C 46.882831,25.893181 46.637311,25.601441 46.5,25.46875 46.388029,25.360542 46.05923,25.169734 45.78125,25 c 0.04171,-0.0485 0.04583,-0.07198 0.09375,-0.125 0.186236,-0.206057 0.43489,-0.540218 0.59375,-0.75 0.244685,-0.323092 0.334142,-0.576352 0.40625,-0.84375 0.01129,-0.04188 0.03116,-0.06891 0.0625,-0.25 0.03134,-0.181088 -0.002,-0.44299 -0.03125,-0.5625 -0.06076,-0.248019 -0.412748,-0.74967 -0.5625,-0.875 -0.185793,-0.155489 -0.412126,-0.304663 -0.6875,-0.4375 C 45.3664,21.016424 45.225525,20.909748 45,20.78125 c 0.07065,-0.139267 0.136976,-0.289865 0.1875,-0.375 0.297001,-0.500428 0.498898,-0.933003 0.625,-1.3125 0.05186,-0.1561 0.146859,-0.350116 0.0625,-0.78125 -0.08436,-0.431134 -0.279022,-0.612991 -0.375,-0.71875 -0.246559,-0.271709 -0.586337,-0.537415 -1.03125,-0.6875 -0.159399,-0.05377 -0.492232,-0.137041 -0.9375,-0.15625 -0.09527,-0.0041 -0.0857,0.0067 -0.1875,0 0.06667,-0.162178 0.146875,-0.30027 0.1875,-0.46875 0.0611,-0.253372 -0.02904,-0.05366 0.15625,-0.3125 0.129113,-0.180353 0.187165,-0.258192 0.28125,-0.53125 0.123789,-0.359126 0.134511,-1.044378 -0.25,-1.46875 -0.249747,-0.27564 -0.607582,-0.465713 -0.9375,-0.5625 -0.329918,-0.09679 -0.680734,-0.149375 -1.1875,-0.21875 -0.178299,-0.02441 -0.206233,-0.06165 -0.34375,-0.09375 0.01653,-0.04679 0.01128,-0.0061 0.03125,-0.0625 0.331028,-0.934634 0.459364,-1.632498 0.46875,-2.46875 0.0015,-0.13385 0.0022,-0.151558 0,-0.3125 -0.0022,-0.160942 -0.07315,-0.4882301 -0.125,-0.59375 C 41.479216,9.3596486 41.156054,9.0461318 40.8125,8.90625 40.468946,8.7663682 40.146331,8.7786313 39.84375,8.8125 39.720845,8.8262565 39.590803,8.8549268 39.46875,8.875 39.770273,8.517282 39.970475,8.2932962 40.125,8 c 0.04309,-0.081822 0.1875,-0.3604546 0.1875,-0.6875 0,-0.2632623 -0.06356,-0.6291959 -0.28125,-0.9375 -0.217685,-0.3083041 -0.508518,-0.4684244 -0.75,-0.5625 -0.228481,-0.089014 -0.543875,-0.1671415 -0.84375,-0.15625 0.0129,-0.020104 0.05045,-0.043314 0.0625,-0.0625 0.04701,-0.074827 0.08409,-0.1414965 0.125,-0.21875 0.04091,-0.077254 0.107523,-0.1107586 0.15625,-0.375 0.034,-0.1843696 -0.06909,-0.6800004 -0.1875,-0.84375 C 38.475336,3.9925004 38.498776,4.0460602 38.53125,4.09375 38.429709,3.9446936 38.255919,3.6923224 37.96875,3.53125 37.681581,3.3701776 37.417837,3.3421309 37.15625,3.3125 36.617268,3.2514296 36.084824,3.2949439 35.625,3.4375 35.284257,3.5431331 34.81873,3.7407202 34.46875,3.90625 34.45846,3.9111178 34.265472,3.9976325 34.125,4.0625 33.682974,4.2666222 33.310502,4.4529904 32.96875,4.625 32.979843,4.4255885 32.958376,4.2271351 32.9375,4.15625 32.888105,3.9882478 32.709211,3.7201417 32.5625,3.59375 32.415789,3.4673583 32.382366,3.4422076 32.375,3.4375 c 0.02422,0.015478 -0.0025,0.00868 -0.0625,-0.03125 -0.05995,-0.039932 -0.07967,-0.1524565 -0.46875,-0.21875 -0.162457,-0.027765 -0.159558,0.00262 -0.1875,0 -0.02794,-0.00262 -0.06327,-0.00727 -0.03125,0 -0.373222,-0.084729 -0.751601,-0.1195264 -1.15625,-0.09375 -0.380636,0.024239 -0.832584,0.2164254 -1.25,0.375 0.07501,-0.1129687 0.151713,-0.1909511 0.21875,-0.3125 0.07923,-0.1436487 0.200493,-0.2759784 0.1875,-0.75 C 29.602682,1.5943271 29.001079,1.2012441 28.46875,1.0625 27.870868,0.9066863 27.322382,0.94119096 26.59375,1.03125 z"
       id="path3016"
       style="fill:#000000;fill-opacity:1"
       inkscape:original="M 26.71875 2.0625 C 26.294669 2.114919 25.955449 2.2070856 25.53125 2.34375 C 24.694816 2.6132274 24.007936 2.9593459 22.96875 3.625 C 22.300913 4.0527851 21.885723 4.3567384 21.21875 4.96875 C 20.540827 5.590818 20.609379 5.565869 19.1875 5.96875 C 18.203059 6.247685 17.936404 6.4202932 16.6875 7.5625 C 16.275623 7.9391877 16.2104 7.9921197 15.96875 8.15625 C 15.767556 8.292906 15.250595 8.560931 14.71875 8.8125 C 14.177507 9.068519 13.961864 9.20243 13.5 9.59375 C 13.40063 9.677952 12.883842 10.200839 12.34375 10.75 C 11.254947 11.857105 10.954409 12.174485 10.46875 12.875 C 10.055152 13.471573 9.2743117 14.538522 9.03125 14.84375 C 8.8408062 15.082909 8.4522661 15.548923 7.96875 16.0625 C 7.3949087 16.672016 7.2307476 16.859756 7.03125 17.125 C 6.7870043 17.449734 6.7323369 17.498068 6.4375 18 C 6.2995485 18.23485 6.1471546 18.503708 6.09375 18.59375 C 6.040347 18.68378 5.8498008 18.986752 5.65625 19.28125 C 5.2849223 19.846256 5.2235913 19.971914 5.15625 20.1875 C 5.071552 20.458657 5.072406 20.703473 5.1875 21.40625 C 5.251489 21.796978 5.1990445 22.162129 5.03125 22.6875 C 4.9072531 23.075734 4.8211194 23.276834 4.375 24.09375 C 3.9387169 24.892649 3.6947018 25.401709 3.0625 26.96875 C 2.943866 27.262815 2.8603785 27.555562 2.84375 27.59375 C 2.6862917 27.955349 2.2831802 29.079733 2.125 29.625 C 2.0176609 29.995009 1.9660419 30.272892 2 30.59375 C 2.03548 30.928981 2.0999511 31.003996 2.3125 31.21875 C 2.497643 31.405821 2.5649302 31.474222 2.78125 31.53125 C 3.0172923 31.59347 3.2057303 31.59587 3.75 31.59375 C 4.4078792 31.59115 4.4117024 31.601452 4.5 31.78125 L 4.5625 31.90625 L 4.53125 32.1875 C 4.51097 32.350749 4.460574 32.5744 4.4375 32.6875 C 4.347886 33.126764 4.334084 33.140327 4.375 33.25 C 4.395555 33.3051 4.5102461 33.466658 4.59375 33.625 C 4.7353852 33.89357 4.719633 33.947396 4.71875 34.0625 C 4.7180958 34.15107 4.708932 34.227381 4.65625 34.375 C 4.615888 34.4881 4.593754 34.616058 4.59375 34.65625 C 4.5937468 34.69644 4.617693 34.821023 4.65625 34.9375 C 4.7921396 35.348001 4.787474 35.440833 4.625 35.96875 C 4.569308 36.149716 4.5188999 36.382558 4.5 36.5 C 4.460088 36.747984 4.472692 36.934806 4.5625 37.3125 C 4.634559 37.615549 4.7385247 37.767455 5 37.96875 C 5.4730297 38.332895 6.0781932 38.499801 6.90625 38.5 C 7.4214663 38.5 7.9439126 38.408606 8.96875 38.15625 C 9.1966599 38.10013 9.4242799 38.073263 9.46875 38.0625 C 9.9384021 37.948851 10.461544 37.909245 10.71875 37.96875 C 10.902884 38.01136 10.989388 38.033432 11.125 38.125 C 11.278853 38.228892 11.552649 38.518163 11.625 38.65625 C 11.70552 38.809933 11.725807 38.902197 11.75 39.4375 C 11.78309 40.169673 11.748493 40.087952 12.125 40.9375 C 12.414751 41.591301 12.526304 41.967027 12.5625 42.46875 C 12.61604 43.210763 12.629794 43.379355 12.6875 43.5625 C 12.74681 43.750728 12.882972 43.987977 13 44.125 C 13.104443 44.247282 13.279875 44.411678 13.5 44.5625 C 13.714426 44.70942 13.98944 44.823087 14.40625 44.9375 L 14.5625 44.96875 L 14.84375 44.9375 C 15.221405 44.86544 15.424741 44.801334 15.96875 44.53125 C 16.226196 44.403435 16.457272 44.262069 16.5 44.25 C 16.849526 44.15127 17.611004 44.406937 18.75 44.96875 C 19.171349 45.176583 19.643981 45.396433 19.90625 45.5 C 20.162797 45.601292 20.162795 45.586397 21 45.65625 C 21.27238 45.67898 21.611029 45.70693 21.75 45.71875 C 21.888968 45.73057 22.435107 45.74052 22.96875 45.75 C 23.924618 45.76699 24.136521 45.782184 24.96875 45.875 C 25.285793 45.91036 25.590719 45.954859 26.0625 46 C 26.216799 46.01476 27.905924 45.99167 28.375 45.96875 C 29.229015 45.92729 30.008915 45.791656 31.5625 45.375 C 31.987791 45.260936 32.241518 45.181662 32.46875 45.15625 C 32.584938 45.14326 32.765927 45.13528 32.84375 45.125 C 32.92157 45.11471 33.283812 45.11934 33.65625 45.125 L 34.3125 45.125 L 34.4375 45.0625 C 34.577196 44.99486 34.70485 44.877564 34.71875 44.78125 C 34.73053 44.69958 34.71556 44.138412 34.6875 43.9375 C 34.63712 43.57684 34.62521 43.513652 34.625 43.40625 C 34.625 43.266557 34.672015 43.176381 34.78125 43.0625 C 34.87985 42.959689 34.954077 42.923002 35.25 42.9375 C 35.415753 42.9456 35.457507 42.95574 35.53125 43 C 35.6239 43.05559 35.929262 43.319414 36.25 43.59375 C 36.617467 43.908052 37.172369 44.234061 37.53125 44.34375 C 38.112384 44.521355 38.753725 44.557405 39.0625 44.4375 C 39.431913 44.294031 39.601444 44.057025 39.59375 43.6875 C 39.58725 43.373147 39.492404 43.067726 39.25 42.53125 C 39.19123 42.401189 39.109179 42.211567 39.0625 42.09375 C 38.97901 41.882982 38.99253 41.861745 39 41.65625 C 39.01397 41.272217 38.991871 41.291831 40.09375 41.28125 C 41.131989 41.27125 41.289862 41.225291 41.6875 41.0625 C 42.05414 40.912401 42.346725 40.708756 42.4375 40.5 C 42.53594 40.273585 42.50259 39.93176 42.375 39.53125 C 42.32996 39.389878 42.283401 39.224116 42.25 39.15625 C 42.18162 39.01734 41.846981 38.500312 41.6875 38.28125 C 41.249078 37.679012 41.064865 37.393744 40.9375 37.15625 C 40.8419 36.977995 40.814105 36.864157 40.875 36.6875 C 40.91832 36.561841 41.017854 36.491783 41.1875 36.4375 C 41.294726 36.40319 41.34215 36.39068 41.71875 36.40625 C 41.947404 36.41575 42.196631 36.43953 42.25 36.4375 C 42.34795 36.4337 42.542708 36.338962 42.96875 36.15625 C 43.091038 36.10381 43.323054 36.024097 43.46875 35.96875 C 43.861981 35.819343 43.927614 35.771361 44 35.6875 C 44.07952 35.59536 44.119799 35.520681 44.15625 35.34375 C 44.19228 35.168865 44.20152 35.084438 44.09375 34.90625 C 44.04588 34.82708 43.976715 34.692858 43.9375 34.625 C 43.797912 34.383463 43.605945 34.116647 43.34375 33.8125 C 43.197498 33.642847 43.044896 33.511312 43.03125 33.5 C 42.96025 33.44114 42.8125 33.230495 42.8125 33.1875 C 42.8125 33.12422 42.923868 32.985744 43.03125 32.90625 C 43.07753 32.87199 43.223589 32.76622 43.34375 32.6875 C 43.46392 32.60878 43.766529 32.416234 44 32.25 C 44.461365 31.921481 44.613867 31.813053 44.96875 31.625 C 45.487979 31.349867 45.604042 31.258165 45.6875 31.03125 C 45.76508 30.820289 45.77137 30.735014 45.6875 30.5625 C 45.565753 30.311888 45.361616 30.104886 44.84375 29.75 C 44.605186 29.58651 44.362498 29.390589 44.3125 29.34375 L 44.21875 29.28125 L 44.21875 29.125 C 44.22035 28.92794 44.273752 28.792523 44.40625 28.65625 C 44.46363 28.59725 44.665945 28.408182 44.84375 28.25 C 45.304445 27.840139 45.764651 27.383446 45.84375 27.25 C 45.997999 26.989756 46.037882 26.70558 45.96875 26.46875 C 45.94417 26.38455 45.900517 26.334004 45.78125 26.21875 C 45.61427 26.057382 45.55134 25.999033 44.9375 25.6875 C 44.484605 25.45764 44.397371 25.403183 44.375 25.3125 C 44.33271 25.141083 44.583964 24.751558 45.09375 24.1875 C 45.206962 24.062239 45.537094 23.657351 45.65625 23.5 C 45.74846 23.378242 45.825231 23.184559 45.875 23 C 45.91568 22.849162 45.93521 22.836965 45.90625 22.71875 C 45.85654 22.515825 45.83859 22.50145 45.6875 22.375 C 45.583389 22.28787 45.455139 22.207781 45.21875 22.09375 C 44.710165 21.848404 44.135566 21.529165 43.96875 21.40625 C 43.790167 21.274667 43.75 21.211551 43.75 21 C 43.75 20.865532 43.768979 20.865648 43.90625 20.59375 C 43.98544 20.436882 44.148121 20.099327 44.28125 19.875 C 44.551769 19.419192 44.721317 19.05566 44.8125 18.78125 C 44.90648 18.498389 44.89871 18.479551 44.71875 18.28125 C 44.558769 18.10495 44.363172 17.955344 44.125 17.875 C 43.940179 17.81265 43.925119 17.79959 43.5 17.78125 C 43.252948 17.77058 42.991677 17.7565 42.9375 17.75 C 42.784175 17.7316 42.661003 17.687955 42.5 17.5625 C 42.224322 17.347688 42.155588 17.244981 42.15625 17 C 42.15625 16.863586 42.19642 16.771189 42.3125 16.59375 C 42.429473 16.414956 42.460434 16.324942 42.53125 16.03125 C 42.60355 15.731413 42.644178 15.653785 42.84375 15.375 C 42.91448 15.2762 42.97825 15.156874 43 15.09375 C 43.05507 14.933986 43.05257 14.783249 42.9375 14.65625 C 42.755589 14.455479 42.412158 14.352178 41.4375 14.21875 C 40.910411 14.14659 40.480953 14.040527 40.21875 13.90625 C 40.046014 13.81779 40.015388 13.790378 40.03125 13.625 C 40.05029 13.42655 40.103935 13.276371 40.3125 12.6875 C 40.623712 11.808815 40.710189 11.325216 40.71875 10.5625 C 40.72235 10.240004 40.7478 10.247714 40.6875 10.125 C 40.576185 9.898526 40.361637 9.7997732 39.96875 9.84375 C 39.616827 9.88314 39.275689 9.9526145 38.84375 10.0625 C 38.50459 10.14879 38.393064 10.178051 38.1875 10.1875 L 37.96875 10.1875 L 37.90625 10.125 C 37.784993 9.9929169 37.749457 9.7766208 37.84375 9.5625 C 38.047523 9.0997783 38.095196 8.9977823 38.1875 8.84375 C 38.24369 8.749975 38.451504 8.5184447 38.625 8.3125 C 38.973955 7.8982732 39.154009 7.6541315 39.21875 7.53125 C 39.24947 7.47292 39.28125 7.4071502 39.28125 7.3125 C 39.28125 7.0294238 39.181683 6.8885519 38.90625 6.78125 C 38.598096 6.6611968 38.392439 6.6719856 37.8125 6.84375 C 36.930815 7.1048846 36.786294 7.0751861 36.8125 6.59375 C 36.82779 6.3130098 36.935353 6.062144 37.28125 5.5625 C 37.581629 5.1286012 37.73641 4.8861973 37.75 4.8125 C 37.76076 4.75415 37.73317 4.754568 37.6875 4.6875 C 37.539499 4.4702428 37.439902 4.3900395 37.03125 4.34375 C 36.604357 4.29538 36.285245 4.329691 35.9375 4.4375 C 35.718583 4.505366 35.166041 4.7208769 34.90625 4.84375 C 34.85067 4.870043 34.690355 4.9409589 34.5625 5 C 34.036335 5.2429764 33.5246 5.5012605 33.15625 5.6875 C 32.64357 5.9467047 31.848879 6.3237113 31.71875 6.375 C 31.65204 6.401293 31.453569 6.4810085 31.28125 6.5625 C 30.900505 6.7425592 30.623051 6.8634266 30.25 7.03125 C 29.591394 7.3275352 29.406542 7.4131163 29 7.625 C 28.669744 7.7971155 28.552705 7.8649602 28.46875 7.875 C 28.350183 7.889172 28.28125 7.86719 28.28125 7.8125 C 28.28125 7.6884291 28.636614 7.2839993 28.9375 7.0625 C 29.12286 6.9260603 29.449183 6.6875 29.46875 6.6875 C 29.50231 6.6875 30.152519 6.2359131 30.375 6.0625 C 31.095773 5.5006874 31.801526 4.8698058 31.90625 4.65625 C 31.95943 4.5478003 31.96133 4.5184172 31.9375 4.4375 C 31.91756 4.36968 31.884524 4.3585317 31.8125 4.3125 C 31.76185 4.280126 31.695162 4.22538 31.65625 4.21875 C 31.61734 4.2121 31.500746 4.208961 31.40625 4.1875 C 31.139436 4.126928 30.847401 4.104861 30.53125 4.125 C 30.007188 4.158372 29.82557 4.2209704 29 4.625 C 28.263767 4.9853097 28.078717 5.1104405 27.28125 5.6875 C 26.838984 6.0075341 26.579127 6.1586419 26.21875 6.34375 C 25.787067 6.5654826 25.512568 6.65625 25.375 6.65625 C 25.167549 6.65625 25.088052 6.6058883 25.15625 6.5 C 25.17368 6.472942 25.231724 6.3696118 25.3125 6.28125 C 25.39327 6.192897 25.547384 6.0335893 25.625 5.9375 C 26.047594 5.4143327 26.384426 5.0741904 27.03125 4.46875 C 27.671598 3.8693651 27.93716 3.5310867 28.3125 2.96875 C 28.486397 2.7082394 28.596293 2.5302786 28.59375 2.4375 C 28.58905 2.2665157 28.426415 2.116625 28.21875 2.0625 C 27.937463 1.989194 27.366629 1.982422 26.71875 2.0625 z "
       inkscape:radius="1.0382122"
       sodipodi:type="inkscape:offset" />
    <path
       d="m 28.38257,45.965459 c 0.854015,-0.04146 1.626168,-0.188385 3.179753,-0.605041 0.425291,-0.114064 0.688303,-0.170277 0.915535,-0.195689 0.116188,-0.01299 0.274926,-0.032 0.352749,-0.04228 0.07782,-0.01029 0.446223,-0.01406 0.818661,-0.0084 l 0.677158,0.01019 0.122459,-0.05929 c 0.139696,-0.06764 0.262751,-0.198982 0.276651,-0.295296 0.01178,-0.08167 -0.01907,-0.617301 -0.04713,-0.818213 -0.05038,-0.36066 -0.05757,-0.427253 -0.05778,-0.534655 0,-0.139693 0.04696,-0.249639 0.156195,-0.36352 0.0986,-0.102811 0.173316,-0.119538 0.469239,-0.10504 0.165753,0.0081 0.212245,0.01828 0.285988,0.06254 0.09265,0.05559 0.405308,0.305136 0.726046,0.579472 0.367467,0.314302 0.923434,0.63882 1.282315,0.748509 0.581134,0.177605 1.222627,0.219195 1.531402,0.09929 0.369413,-0.143469 0.53327,-0.375832 0.525576,-0.745357 -0.0065,-0.314353 -0.09705,-0.623648 -0.339454,-1.160124 -0.05877,-0.130061 -0.145043,-0.332869 -0.191722,-0.450686 -0.08349,-0.210768 -0.08473,-0.217548 -0.07726,-0.423043 0.01397,-0.384033 -0.0031,-0.377985 1.098779,-0.388566 1.038239,-0.01 1.215129,-0.03125 1.612767,-0.194041 0.36664,-0.150099 0.631877,-0.358189 0.722652,-0.566945 0.09844,-0.226415 0.08208,-0.578491 -0.04551,-0.979001 -0.04504,-0.141372 -0.109213,-0.312565 -0.142614,-0.380431 -0.06838,-0.13891 -0.39001,-0.64426 -0.549491,-0.863322 -0.438422,-0.602238 -0.629155,-0.885324 -0.75652,-1.122818 -0.0956,-0.178255 -0.105975,-0.284268 -0.04508,-0.460925 0.04332,-0.125659 0.145729,-0.212208 0.315375,-0.266491 0.107226,-0.03431 0.157511,-0.03626 0.534111,-0.02069 0.228654,0.0095 0.459402,0.01552 0.512771,0.01349 0.09795,-0.0038 0.305685,-0.07764 0.731727,-0.260352 0.122288,-0.05244 0.341548,-0.14065 0.487244,-0.195997 0.393231,-0.149407 0.476402,-0.191081 0.548788,-0.274942 0.07952,-0.09214 0.119777,-0.18555 0.156228,-0.362481 0.03603,-0.174885 0.01793,-0.263929 -0.08984,-0.442117 -0.04787,-0.07917 -0.119139,-0.199474 -0.158354,-0.267332 -0.139588,-0.241537 -0.328284,-0.49783 -0.590479,-0.801977 -0.146252,-0.169653 -0.277068,-0.317705 -0.290714,-0.329017 -0.071,-0.05886 -0.214477,-0.264662 -0.214477,-0.307657 0,-0.06328 0.109311,-0.208599 0.216693,-0.288093 0.04628,-0.03426 0.182457,-0.1267 0.302618,-0.20542 0.12017,-0.07872 0.409511,-0.279152 0.642982,-0.445386 0.461365,-0.328519 0.625483,-0.432377 0.980366,-0.62043 0.519229,-0.275133 0.644673,-0.37964 0.728131,-0.606555 0.07758,-0.210961 0.07627,-0.292419 -0.0076,-0.464933 -0.121747,-0.250612 -0.343378,-0.460417 -0.861244,-0.815303 -0.238564,-0.16349 -0.474668,-0.335572 -0.524666,-0.382411 l -0.0909,-0.08516 0.0012,-0.141041 c 0.0016,-0.19706 0.06341,-0.350461 0.195908,-0.486734 0.05738,-0.059 0.249791,-0.236705 0.427596,-0.394887 0.460695,-0.409861 0.917825,-0.869952 0.996924,-1.003398 0.154249,-0.260244 0.204289,-0.552479 0.135157,-0.789309 -0.02458,-0.0842 -0.05835,-0.131016 -0.177617,-0.24627 -0.16698,-0.161368 -0.243986,-0.208007 -0.857826,-0.51954 -0.452895,-0.22986 -0.540276,-0.288792 -0.562647,-0.379475 -0.04229,-0.171417 0.210086,-0.568459 0.719872,-1.132517 0.113212,-0.125261 0.441791,-0.524881 0.560947,-0.682232 0.09221,-0.121758 0.178125,-0.307108 0.227894,-0.491667 0.04068,-0.150838 0.04137,-0.166825 0.01241,-0.28504 -0.04971,-0.202925 -0.06485,-0.227746 -0.21594,-0.354196 -0.104111,-0.08713 -0.234976,-0.164447 -0.471365,-0.278478 -0.508585,-0.245346 -1.068591,-0.550682 -1.235407,-0.673597 -0.178583,-0.131583 -0.2137,-0.19905 -0.2137,-0.410601 0,-0.134468 0.0067,-0.154381 0.143971,-0.426279 0.07919,-0.156868 0.252906,-0.46876 0.386035,-0.693087 0.270519,-0.455808 0.449739,-0.81764 0.540922,-1.09205 0.09398,-0.282861 0.08594,-0.327902 -0.09402,-0.526203 -0.159981,-0.1763 -0.362675,-0.306941 -0.600847,-0.387285 -0.184821,-0.06235 -0.219342,-0.06692 -0.644461,-0.08526 -0.247052,-0.01067 -0.493507,-0.0247 -0.547684,-0.0312 -0.153325,-0.0184 -0.287141,-0.07965 -0.448144,-0.205105 -0.275678,-0.214812 -0.332757,-0.310227 -0.332095,-0.555208 0,-0.136414 0.03269,-0.223554 0.14877,-0.400993 0.116973,-0.178794 0.152688,-0.268653 0.223504,-0.562345 0.0723,-0.299837 0.112075,-0.38449 0.311647,-0.663275 0.07073,-0.0988 0.146398,-0.23129 0.168148,-0.294414 0.05507,-0.159764 0.02594,-0.29894 -0.08913,-0.425939 -0.181911,-0.200771 -0.516533,-0.297468 -1.491191,-0.430896 -0.527089,-0.07216 -0.950621,-0.182937 -1.212824,-0.317214 -0.172736,-0.08846 -0.190299,-0.116885 -0.174437,-0.282263 0.01904,-0.19845 0.06547,-0.359045 0.274035,-0.947916 0.311212,-0.878685 0.403647,-1.353185 0.412208,-2.115901 0.0036,-0.322496 0.0033,-0.324934 -0.057,-0.447648 -0.111315,-0.226474 -0.321769,-0.3026493 -0.714656,-0.2586725 -0.351923,0.03939 -0.669251,0.099827 -1.10119,0.2097125 -0.33916,0.08629 -0.449191,0.10563 -0.654755,0.115079 l -0.247085,0.01136 -0.05741,-0.06252 C 37.777154,9.9969359 37.761128,9.7911905 37.855421,9.5770697 38.059194,9.114348 38.110396,9.0076866 38.2027,8.8536543 c 0.05619,-0.093775 0.244116,-0.3389909 0.417612,-0.5449356 0.348955,-0.4142268 0.540874,-0.6633834 0.605615,-0.7862649 0.03072,-0.05833 0.04272,-0.1180237 0.04272,-0.2126739 0,-0.2830762 -0.08842,-0.4084031 -0.363853,-0.515705 -0.308154,-0.1200532 -0.516933,-0.1078924 -1.096872,0.063872 -0.881685,0.2611346 -1.025959,0.2239782 -0.999753,-0.2574579 0.01529,-0.2807402 0.131289,-0.5313774 0.477186,-1.0310214 0.300379,-0.4338988 0.445143,-0.6679416 0.458733,-0.7416389 0.01076,-0.05835 0.0027,-0.087222 -0.04297,-0.15429 -0.148001,-0.2172572 -0.267165,-0.273678 -0.675817,-0.3199675 -0.426893,-0.04837 -0.754287,-0.02324 -1.102032,0.084569 -0.218917,0.067866 -0.771114,0.2878851 -1.030905,0.4107582 -0.05558,0.026293 -0.205671,0.096114 -0.333526,0.1551551 -0.526165,0.2429764 -1.0264,0.4829998 -1.39475,0.6692393 -0.51268,0.2592047 -1.315151,0.6468305 -1.44528,0.6981192 -0.06671,0.026293 -0.262277,0.1144802 -0.434596,0.1959717 -0.380745,0.1800592 -0.647748,0.3032734 -1.020799,0.4710968 -0.658606,0.2962852 -0.850802,0.3879825 -1.257344,0.5998662 -0.330256,0.1721155 -0.45359,0.226357 -0.537545,0.2363968 -0.118567,0.014172 -0.196162,-0.012332 -0.196162,-0.067022 0,-0.1240709 0.360059,-0.5375813 0.660945,-0.7590806 0.18536,-0.1364397 0.518796,-0.3584631 0.538363,-0.3584631 0.03356,0 0.690543,-0.444962 0.913024,-0.6183751 0.720773,-0.5618126 1.407661,-1.2069878 1.512385,-1.4205436 0.05318,-0.1084497 0.05529,-0.1220246 0.03146,-0.2029418 -0.01994,-0.06782 -0.04558,-0.099562 -0.117604,-0.1455937 -0.05065,-0.032374 -0.123931,-0.064289 -0.162843,-0.070919 -0.03891,-0.00665 -0.148067,-0.029603 -0.242563,-0.051064 -0.266814,-0.060572 -0.547954,-0.080078 -0.864105,-0.059939 -0.524062,0.033372 -0.705661,0.092229 -1.531231,0.4962586 -0.736233,0.3603097 -0.945804,0.4883981 -1.743271,1.0654576 -0.442266,0.3200341 -0.685851,0.4733343 -1.046228,0.6584424 -0.431683,0.2217326 -0.706136,0.3286435 -0.843704,0.3286435 -0.207451,0 -0.29781,-0.068706 -0.229612,-0.1745943 0.01743,-0.027058 0.09777,-0.1214926 0.178546,-0.2098544 0.08077,-0.088353 0.210368,-0.2392748 0.287984,-0.3353641 0.422594,-0.5231673 0.75841,-0.8775711 1.405234,-1.4830115 0.640348,-0.5993849 0.926942,-0.9271712 1.302282,-1.4895079 0.173897,-0.2605106 0.26262,-0.4434478 0.260077,-0.5362264 -0.0047,-0.1709843 -0.159131,-0.3346904 -0.366796,-0.3888154 -0.281287,-0.073306 -0.838398,-0.069256 -1.486277,0.010822 -0.424081,0.052419 -0.770801,0.1297021 -1.195,0.2663665 -0.836434,0.2694774 -1.538069,0.6192981 -2.577255,1.2849522 -0.667837,0.4277851 -1.058753,0.732306 -1.725726,1.3443176 -0.677923,0.622068 -0.622261,0.5949015 -2.04414,0.9977825 -0.984441,0.278935 -1.26137,0.4551596 -2.510274,1.5973664 -0.411877,0.3766877 -0.475154,0.4290493 -0.716804,0.5931796 -0.201194,0.136656 -0.698211,0.3998866 -1.230056,0.6514556 -0.541243,0.256019 -0.762321,0.3986889 -1.224185,0.7900089 -0.09937,0.084202 -0.622565,0.6023961 -1.162657,1.1515571 -1.088803,1.107105 -1.381915,1.443617 -1.867574,2.144132 -0.413598,0.596573 -1.1912259,1.66451 -1.4342876,1.969738 -0.1904438,0.239159 -0.589282,0.684611 -1.0727981,1.198188 C 7.39383,16.661612 7.2184293,16.86002 7.0189317,17.125264 6.774686,17.449998 6.7467928,17.492768 6.4519559,17.9947 c -0.1379515,0.23485 -0.2945162,0.500659 -0.3479208,0.590701 -0.053403,0.09003 -0.2554581,0.404661 -0.4490089,0.699159 -0.3713277,0.565006 -0.4358024,0.679736 -0.5031437,0.895322 -0.084698,0.271157 -0.076627,0.52978 0.038467,1.232557 0.063989,0.390728 0.02382,0.745224 -0.1439745,1.270595 -0.1239969,0.388234 -0.218032,0.587017 -0.6641514,1.403933 -0.4362831,0.798899 -0.6725813,1.322141 -1.3047831,2.889182 -0.118634,0.294065 -0.2293033,0.565896 -0.2459318,0.604084 -0.1574583,0.361599 -0.5584297,1.513639 -0.7166099,2.058906 -0.1073391,0.370009 -0.1352951,0.633214 -0.101337,0.954072 0.03548,0.335231 0.073786,0.420174 0.2863349,0.634928 0.185143,0.187071 0.2635038,0.234716 0.4798236,0.291744 0.2360423,0.06222 0.4243234,0.07672 0.9685931,0.0746 0.6578792,-0.0026 0.6582823,-0.0025 0.7465799,0.177298 l 0.059814,0.121774 -0.036873,0.296819 c -0.02028,0.163249 -0.055751,0.389348 -0.078825,0.502448 -0.089614,0.439264 -0.090405,0.448188 -0.049489,0.557861 0.020555,0.0551 0.1056939,0.229725 0.1891978,0.388067 0.1416352,0.26857 0.1517625,0.29617 0.1508795,0.411274 -6.542e-4,0.08857 -0.02165,0.181398 -0.074332,0.329017 -0.040362,0.1131 -0.073387,0.238518 -0.073391,0.27871 -3.2e-6,0.04019 0.031542,0.168364 0.070099,0.284841 0.1358896,0.410501 0.133583,0.491925 -0.028891,1.019842 -0.055692,0.180966 -0.1167231,0.425098 -0.135623,0.54254 -0.039912,0.247984 -0.026406,0.417337 0.063402,0.795031 0.072059,0.303049 0.1840408,0.472378 0.4455161,0.673673 0.4730297,0.364145 1.0820153,0.534688 1.9100721,0.534887 0.5152163,0 1.0369661,-0.08532 2.0618035,-0.337676 0.2279099,-0.05612 0.4507669,-0.110837 0.495237,-0.1216 0.4696521,-0.113649 1.0045087,-0.153475 1.2617147,-0.09397 0.184134,0.04261 0.262965,0.07569 0.398577,0.167258 0.153853,0.103892 0.420488,0.389132 0.492839,0.527219 0.08052,0.153683 0.09712,0.262864 0.121313,0.798167 0.03309,0.732173 0.01223,0.651597 0.388737,1.501145 0.289751,0.653801 0.393045,1.019984 0.429241,1.521707 0.05354,0.742013 0.0743,0.914669 0.132006,1.097814 0.05931,0.188228 0.189974,0.429224 0.307002,0.566247 0.104443,0.122282 0.297589,0.284806 0.517714,0.435628 0.214426,0.14692 0.472255,0.253657 0.889065,0.36807 l 0.161468,0.04432 0.275296,-0.05252 c 0.377655,-0.07206 0.5728,-0.1445 1.116809,-0.414584 0.257446,-0.127815 0.503044,-0.242262 0.545772,-0.254331 0.349526,-0.09873 1.10195,0.135341 2.240946,0.697154 0.421349,0.207833 0.899637,0.425698 1.161906,0.529265 0.256547,0.101292 0.254338,0.100956 1.091543,0.170809 0.27238,0.02273 0.608938,0.05099 0.747909,0.06281 0.138968,0.01182 0.689289,0.02925 1.222932,0.03873 0.955868,0.01699 1.17904,0.03069 2.011269,0.123506 0.317043,0.03536 0.619764,0.06627 1.091545,0.111411 0.154299,0.01476 1.844382,-0.0068 2.313458,-0.02972 z"
       id="path3108"
       style="fill:#ffffff;fill-opacity:1"
       inkscape:connector-curvature="0" />
  </g>
  <g
     style="font-size:110.75949097000000165px;font-style:normal;font-variant:normal;font-weight:normal;font-stretch:normal;text-align:center;line-height:100%;letter-spacing:0px;word-spacing:0px;writing-mode:lr-tb;text-anchor:middle;fill:#000000;stroke:#000000;stroke-width:0.79113929999999999px;stroke-linecap:butt;stroke-linejoin:miter;stroke-opacity:1;font-family:Roadgeek 2005 Series D;-inkscape-font-specification:Roadgeek 2005 Series D"
     id="text3753"
     transform="matrix(0.07680346,0,0,0.07918165,0.11000193,0.05177698)">
    <path
       inkscape:connector-curvature="0"
       style="fill:#000000;fill-opacity:1;font-family:Roadgeek 2005 Series D;-inkscape-font-specification:Roadgeek 2005 Series D"
       id="path3763"
       d="m 65.490507,99.604431 -28.35443,-50.284809 0,50.284809 -11.740506,0 0,-74.208859 11.740506,0 27.025316,47.405062 0,-47.405062 11.740506,0 0,74.208859 -10.411392,0" />
  </g>
  <g
     style="font-size:110.75949097000000165px;font-style:normal;font-variant:normal;font-weight:normal;font-stretch:normal;text-align:center;line-height:100%;letter-spacing:0px;word-spacing:0px;writing-mode:lr-tb;text-anchor:middle;fill:#000000;stroke:#000000;stroke-width:0.79113929999999999px;stroke-linecap:butt;stroke-linejoin:miter;stroke-opacity:1;font-family:Roadgeek 2005 Series D;-inkscape-font-specification:Roadgeek 2005 Series D"
     id="text3757"
     transform="matrix(0.07680347,0,0,0.07918165,1.8078801,0.05177698)">
    <path
       inkscape:connector-curvature="0"
       style="fill:#000000;fill-opacity:1;font-family:Roadgeek 2005 Series D;-inkscape-font-specification:Roadgeek 2005 Series D"
       id="path3766"
       d="m 574.60489,62.389242 c -6e-5,7.457836 -1.14457,14.029559 -3.43354,19.71519 -2.21524,5.611826 -5.42727,10.042201 -9.63608,13.291138 -1.40299,1.329117 -3.06439,2.325952 -4.98417,2.990507 -1.84603,0.664557 -3.72894,1.070675 -5.64874,1.218354 l -4.20886,0 -22.59493,0 0,-74.208859 23.92405,0 c 1.84595,7.4e-5 3.4335,0.07391 4.76265,0.221519 1.40292,0.07391 2.65819,0.258513 3.76583,0.553798 1.10755,0.295431 2.10438,0.701549 2.9905,1.218354 0.88603,0.516949 1.84595,1.144586 2.87975,1.882911 3.91345,3.396692 6.90395,7.937826 8.97152,13.623418 2.14129,5.611865 3.21196,12.109749 3.21202,19.49367 m -11.96202,0 c -5e-5,-5.021055 -0.55385,-9.48835 -1.66139,-13.401898 -1.0338,-3.913448 -2.47368,-6.830111 -4.31962,-8.75 -0.95996,-0.886016 -2.06755,-1.624412 -3.32279,-2.21519 -1.25531,-0.590655 -2.65826,-0.886013 -4.20886,-0.886076 l -13.29114,0 0,50.506328 11.74051,0 c 1.9198,1.2e-5 3.50735,-0.221507 4.76266,-0.664557 1.32907,-0.443025 2.51051,-1.181421 3.5443,-2.21519 2.21515,-2.215172 3.87654,-5.242595 4.98418,-9.082278 1.18138,-3.913474 1.7721,-8.343849 1.77215,-13.291139" />
  </g>
  <text
     xml:space="preserve"
     style="font-size:32px;font-style:normal;font-variant:normal;font-weight:normal;font-stretch:normal;text-align:center;line-height:125%;letter-spacing:0px;word-spacing:0px;writing-mode:lr-tb;text-anchor:middle;fill:#000000;fill-opacity:1;stroke:none;font-family:Roadgeek 2005 Series C;-inkscape-font-specification:Roadgeek 2005 Series C"
     x="25"
     y="37"
     id="text3002"
     sodipodi:linespacing="125%"><tspan
       sodipodi:role="line"
       id="tspan3024"
       x="25"
       y="37">%num%</tspan></text>
</svg>
