<?xml version="1.0" encoding="UTF-8" standalone="no"?>
<!-- Created with Inkscape (http://www.inkscape.org/) -->

<svg
   xmlns:dc="http://purl.org/dc/elements/1.1/"
   xmlns:cc="http://creativecommons.org/ns#"
   xmlns:rdf="http://www.w3.org/1999/02/22-rdf-syntax-ns#"
   xmlns:svg="http://www.w3.org/2000/svg"
   xmlns="http://www.w3.org/2000/svg"
   xmlns:sodipodi="http://sodipodi.sourceforge.net/DTD/sodipodi-0.dtd"
   xmlns:inkscape="http://www.inkscape.org/namespaces/inkscape"
   version="1.0"
   width="48"
   height="48"
   id="svg2"
   sodipodi:version="0.32"
   inkscape:version="0.48.1 r9760"
   sodipodi:docname="US:NY-SMSP.svg">
  <metadata
     id="metadata2475">
    <rdf:RDF>
      <cc:Work
         rdf:about="">
        <dc:format>image/svg+xml</dc:format>
        <dc:type
           rdf:resource="http://purl.org/dc/dcmitype/StillImage" />
      </cc:Work>
    </rdf:RDF>
  </metadata>
  <sodipodi:namedview
     inkscape:window-height="996"
     inkscape:window-width="1278"
     inkscape:pageshadow="2"
     inkscape:pageopacity="0.0"
     borderopacity="1.0"
     bordercolor="#666666"
     pagecolor="#ffffff"
     id="base"
     inkscape:zoom="16.895833"
     inkscape:cx="24"
     inkscape:cy="24"
     inkscape:window-x="1"
     inkscape:window-y="27"
     inkscape:current-layer="svg2"
     showgrid="true"
     inkscape:showpageshadow="false"
     inkscape:window-maximized="0">
    <inkscape:grid
       type="xygrid"
       id="grid3515"
       empspacing="5"
       visible="true"
       enabled="true"
       snapvisiblegridlinesonly="true" />
  </sodipodi:namedview>
  <defs
     id="defs4" />
  <g
     id="g3521">
    <rect
       y="1.6999999"
       x="1.7"
       height="44.599998"
       width="44.599998"
       id="rect1474"
       style="fill:#ffffff;fill-opacity:1" />
    <path
       d="M 2.8335835,46.985244 C 2.5329677,46.942136 2.1979209,46.814695 1.9440415,46.646893 1.7645296,46.528245 1.4989403,46.2704 1.3749444,46.094394 1.2350982,45.895888 1.1069718,45.619332 1.048377,45.389516 L 1,45.199776 1,23.988678 1,2.7775781 1.0545729,2.5837259 C 1.1643811,2.1936693 1.3578624,1.8707614 1.6463812,1.5960356 1.9345123,1.3216791 2.2642825,1.139341 2.6384957,1.0474711 l 0.1933629,-0.047471 21.1783194,0 21.178319,0 0.197551,0.053551 c 0.383946,0.1040766 0.683588,0.2720755 0.967571,0.5424845 0.292769,0.2787709 0.5009,0.6309129 0.598004,1.0117738 L 47,2.7975508 l 0,21.2111002 0,21.211097 -0.05457,0.193851 c -0.06729,0.239028 -0.184339,0.4877 -0.320583,0.681093 -0.123886,0.175851 -0.389512,0.433642 -0.569196,0.552408 -0.181918,0.120241 -0.467749,0.246683 -0.683966,0.30256 l -0.183186,0.04734 -21.117257,0.0028 C 12.2905,47.001289 2.9007507,46.994874 2.8335835,46.985244 z m 42.0903105,-1.10352 c 0.487215,-0.146351 0.820884,-0.485741 0.945456,-0.961668 L 45.9112,44.760172 45.9058,23.958618 C 45.900673,3.8381144 45.899274,3.1531374 45.86311,3.0372242 45.714004,2.5592776 45.369375,2.2331327 44.883078,2.1097492 l -0.16294,-0.041341 -20.760952,0.00525 C 3.8796265,2.0787424 3.194222,2.0801188 3.0761063,2.1155995 2.589046,2.2619067 2.256668,2.6000857 2.1309311,3.0772705 l -0.042128,0.1598831 0.00535,20.8015554 c 0.00517,20.120501 0.00657,20.805479 0.042737,20.921395 0.1476153,0.473159 0.4899477,0.800123 0.9697474,0.926207 0.1524469,0.04006 0.1809955,0.04012 20.9238925,0.03611 20.091533,-0.0038 20.775236,-0.0052 20.893364,-0.0407 z M 3.0941697,28.324114 c -0.00616,-0.01575 -0.00678,-0.09889 -0.00137,-0.184758 0.00541,-0.08587 0.024564,-0.713364 0.042579,-1.394434 0.02616,-0.989019 0.038297,-1.242336 0.060284,-1.258285 0.015142,-0.01099 0.3745467,-0.104277 0.7986784,-0.207306 0.4241316,-0.103033 0.7829956,-0.198119 0.7974758,-0.211295 0.020256,-0.01844 0.1174538,-2.059336 0.4214895,-8.850196 0.2173391,-4.854427 0.3886775,-8.8324423 0.3807524,-8.8400346 -0.00793,-0.00759 -0.051046,-0.016651 -0.095826,-0.020132 l -0.081416,-0.00633 0,-0.5991835 0,-0.5991835 0.4783185,-0.00999 0.4783184,-0.00999 0.00533,-0.6491156 0.00533,-0.6491156 0.5746296,-0.564231 C 7.2747897,3.9602195 7.5426531,3.7063156 7.5539948,3.7063156 c 0.011342,0 0.2792053,0.2539039 0.5952519,0.5642313 l 0.5746297,0.564231 0.00533,0.6491156 0.00533,0.6491156 0.3969029,0.00999 0.3969027,0.00999 0,0.5991835 0,0.5991835 -0.10177,0.00619 c -0.055973,0.0034 -0.1084665,0.012673 -0.1166511,0.020595 -0.012796,0.012385 0.3876262,12.9857279 0.4235053,13.7212539 0.011989,0.245822 0.015899,0.265665 0.050523,0.256778 0.020642,-0.0053 0.4176168,-0.248764 0.8821648,-0.541035 0.464548,-0.292272 0.858892,-0.531403 0.876321,-0.531403 0.02425,0 2.958629,1.933584 3.028505,1.995607 0.0083,0.0074 0.06031,0.609609 0.11548,1.338226 0.05847,0.772122 0.109326,1.333608 0.121919,1.345966 0.01188,0.01166 0.367562,0.06885 0.790393,0.127073 l 0.768786,0.105866 1.098994,-0.327015 c 0.886176,-0.263691 1.105823,-0.322618 1.134258,-0.304303 0.0194,0.0125 0.507705,0.521535 1.085132,1.131205 0.577427,0.609668 1.079058,1.12937 1.114736,1.154891 0.03568,0.02552 0.207977,0.117134 0.382888,0.203585 l 0.318017,0.157179 0.424902,0.08012 c 0.277818,0.05238 0.53647,0.08756 0.747202,0.101645 l 0.322296,0.02153 0.288322,-0.06156 c 0.568128,-0.121321 0.819111,-0.181558 0.919293,-0.220638 0.08053,-0.03142 0.13775,-0.07933 0.274109,-0.229542 0.09479,-0.104414 0.183289,-0.187311 0.196671,-0.184222 0.01338,0.0031 0.119014,0.112716 0.234739,0.243607 0.115725,0.130893 0.233309,0.254375 0.261294,0.274411 0.02799,0.02004 0.224766,0.09039 0.437284,0.15634 l 0.386393,0.119909 0.479855,0.04031 0.47985,0.0403 0.639027,-0.04039 0.63903,-0.04039 0.357113,-0.131011 c 0.196414,-0.07206 0.375433,-0.142653 0.397821,-0.156885 0.02239,-0.01423 0.141099,-0.107966 0.2638,-0.208297 0.122696,-0.100331 0.232845,-0.182417 0.244775,-0.182417 0.01193,0 0.06725,0.05935 0.122929,0.131883 0.136878,0.178307 0.199063,0.222659 0.525876,0.375038 0.199624,0.09308 0.376107,0.156958 0.610676,0.221039 0.300234,0.08201 0.367369,0.0929 0.746413,0.12098 l 0.416504,0.03085 0.392533,-0.06186 c 0.46988,-0.07405 1.043329,-0.230761 1.390302,-0.379937 0.216524,-0.09309 0.259072,-0.121027 0.517238,-0.339617 0.154717,-0.131 0.291427,-0.238182 0.303794,-0.238182 0.01237,0 0.122933,0.09887 0.245691,0.219701 0.12276,0.120835 0.230421,0.219701 0.239249,0.219701 0.0088,0 0.0502,0.02181 0.09194,0.04847 0.04174,0.02666 0.218191,0.10294 0.392118,0.169502 0.273975,0.104856 0.374302,0.131736 0.750909,0.201182 0.239075,0.04409 0.491481,0.08015 0.560898,0.08015 0.06941,0 0.308544,-0.0271 0.53139,-0.06022 0.394263,-0.0586 0.414566,-0.06397 0.753731,-0.199306 0.565629,-0.225702 0.790269,-0.33814 1.012503,-0.506781 0.110484,-0.08384 0.210534,-0.152439 0.222335,-0.152439 0.01181,0 0.136739,0.1101 0.27764,0.244667 0.235465,0.224878 0.282951,0.259804 0.587088,0.431807 l 0.330903,0.187143 0.391462,0.09633 c 0.370026,0.09105 0.414603,0.09754 0.814035,0.118397 0.408599,0.02133 0.435515,0.02034 0.814157,-0.03015 0.682636,-0.09101 1.086718,-0.213652 1.319351,-0.400416 l 0.135774,-0.108999 0.781065,0.0053 0.781063,0.0053 0,0.539264 0,0.539265 -21.224749,0.005 c -18.4143209,0.0043 -21.2262343,0.0012 -21.2359491,-0.02363 z m 5.0602552,-3.945968 0.010177,-1.98729 0.4314,-0.280185 c 0.2372699,-0.154101 0.4366986,-0.28538 0.4431748,-0.291737 0.01443,-0.01415 -0.08688,-3.250227 -0.1025305,-3.275075 -0.015505,-0.02462 -3.1577086,-0.02334 -3.1732215,0.0012 -0.016174,0.02567 -0.3791382,7.790974 -0.3651995,7.813103 0.00614,0.0098 0.6140559,0.01519 1.3785067,0.01231 l 1.3675159,-0.0052 0.010177,-1.987293 z M 8.8352237,12.05662 C 8.8495753,12.033833 8.748493,7.3835279 8.7331154,7.3591125 8.7183283,7.3356334 6.1860528,7.3357043 6.1712647,7.3591764 6.1558278,7.3836858 6.0547531,12.033671 6.0691595,12.056545 c 0.015423,0.02449 2.7506427,0.02455 2.7660642,6.4e-5 z m -1.4440729,-6.5627433 0,-0.639129 -0.3154867,0 -0.3154868,0 -0.00539,0.6189615 c -0.00296,0.3404288 -8.689e-4,0.6305189 0.00466,0.6446447 0.00771,0.01972 0.082222,0.024403 0.3208764,0.020167 l 0.3108327,-0.00552 0,-0.6391294 z m 0.9566371,0 0,-0.639129 -0.3154866,0 -0.3154867,0 -0.00539,0.6189615 c -0.00296,0.3404288 -8.689e-4,0.6305189 0.00466,0.6446447 0.00771,0.01972 0.082222,0.024403 0.3208762,0.020167 l 0.3108328,-0.00552 0,-0.6391294 z"
       style="fill:#000000"
       id="path1317"
       inkscape:connector-curvature="0" />
  </g>
  <path
     inkscape:connector-curvature="0"
     id="text1331"
     style="font-size:376.64926147px;font-style:normal;font-variant:normal;font-weight:normal;font-stretch:normal;text-align:center;line-height:100%;writing-mode:lr-tb;text-anchor:middle;fill:#000000;fill-opacity:1;stroke:none;font-family:Roadgeek 2005 Series E"
     d="m 27.850619,17.937864 c -1.3e-5,0.770043 -0.142302,1.48149 -0.426869,2.134346 -0.284591,0.652861 -0.69472,1.222019 -1.230389,1.707476 -0.468728,0.418499 -1.021146,0.74493 -1.657255,0.979288 -0.619389,0.21762 -1.288986,0.326429 -2.008798,0.326429 -1.456381,0 -2.703507,-0.385018 -3.741381,-1.155057 -1.02114,-0.786777 -1.816288,-1.824654 -2.385445,-3.113634 l 2.536105,-0.929068 c 0.351535,0.803523 0.836994,1.422901 1.456377,1.858136 0.619373,0.418502 1.330821,0.627751 2.134344,0.627749 0.786772,2e-6 1.41452,-0.234357 1.883247,-0.703079 0.485451,-0.485455 0.72818,-1.079723 0.728189,-1.782806 -9e-6,-0.552413 -0.150669,-1.004392 -0.451978,-1.355937 C 24.402177,16.180174 24.025528,15.887225 23.556817,15.652858 23.088091,15.401766 22.569153,15.184147 22,15 21.447576,14.815868 20.895157,14.614989 20.342744,14.397361 20.09164,14.29693 19.781951,14.15464 19.413676,13.970492 c -0.368283,-0.184131 -0.728192,-0.43523 -1.079728,-0.753299 -0.334802,-0.334789 -0.627751,-0.744918 -0.878849,-1.230387 -0.234361,-0.485448 -0.35154,-1.079716 -0.351539,-1.782807 -1e-6,-0.8202446 0.133918,-1.5149526 0.401759,-2.0841256 0.267838,-0.5858835 0.627747,-1.0546021 1.079728,-1.4061572 0.468716,-0.3682629 1.021134,-0.6361019 1.657257,-0.8035184 0.652853,-0.1673826 1.355931,-0.2510824 2.109236,-0.2510995 1.188528,1.71e-5 2.176186,0.3097062 2.962975,0.9290681 0.803506,0.6193944 1.414515,1.4563919 1.833026,2.5109951 L 24.787206,9.80224 C 24.653277,9.5344139 24.477506,9.2916846 24.259895,9.0740515 24.075748,8.8899258 23.816279,8.7225262 23.481488,8.5718525 23.16342,8.4212071 22.770031,8.3375074 22.30132,8.3207529 c -0.301327,-0.016725 -0.619385,0.00838 -0.954178,0.07533 -0.318065,0.050234 -0.602644,0.150674 -0.853739,0.3013193 -0.251104,0.1506738 -0.451983,0.3599231 -0.602638,0.6277488 -0.150664,0.2511127 -0.209254,0.569172 -0.17577,0.954178 0.03348,0.518951 0.259465,0.92071 0.677969,1.205278 0.418494,0.26785 0.929062,0.50221 1.531707,0.703078 0.602631,0.20089 1.24712,0.41014 1.933466,0.627749 0.703069,0.20089 1.347558,0.502209 1.933467,0.903958 0.585886,0.385028 1.071346,0.912337 1.456375,1.581927 0.401749,0.652866 0.602627,1.531713 0.60264,2.636545 m 13.270217,4.846221 0,-9.742661 -3.892042,9.742661 -3.892042,-9.742661 0,9.742661 -2.661655,0 0,-16.8236674 2.661655,0 3.892042,9.4413414 3.892042,-9.4413414 2.661655,0 0,16.8236674 -2.661655,0" />
  <path
     inkscape:connector-curvature="0"
     id="text1335"
     style="font-size:212.95323181px;font-style:normal;font-variant:normal;font-weight:normal;font-stretch:normal;text-align:center;line-height:100%;writing-mode:lr-tb;text-anchor:middle;fill:#000000;fill-opacity:1;stroke:none;font-family:Roadgeek 2005 Series E"
     d="m 10.954849,40.418144 c -5e-6,0.123042 -0.01657,0.246082 -0.04969,0.369117 -0.03313,0.123043 -0.08282,0.238985 -0.149068,0.347825 -0.06152,0.108844 -0.13724,0.210589 -0.227149,0.305233 -0.08992,0.08992 -0.191662,0.165631 -0.305233,0.227149 -0.137241,0.07572 -0.2697446,0.125409 -0.3975132,0.149067 -0.1230427,0.02366 -0.274476,0.03549 -0.4543002,0.03549 l -1.3558021,0 0,1.866889 -0.8660097,0 0,-4.755955 2.2218118,0 c 0.1798242,6e-6 0.3312575,0.0142 0.4543002,0.04259 0.1277686,0.0284 0.2602722,0.08045 0.3975132,0.156166 0.227146,0.123045 0.404606,0.295774 0.532382,0.518187 0.1325,0.22242 0.198752,0.4685 0.198757,0.738238 m -0.851813,0 c -3e-6,-0.184558 -0.06389,-0.331258 -0.1916579,-0.440105 C 9.783603,39.869201 9.6132406,39.814779 9.4002904,39.814775 l -1.3841959,0 0,1.18544 1.3841959,0 c 0.2129502,2e-6 0.3833126,-0.05205 0.5110877,-0.156165 0.1277689,-0.10884 0.1916549,-0.250809 0.1916579,-0.425906 m 5.156573,3.300773 -0.468497,-1.121554 -2.072745,0 -0.461398,1.121554 -0.936994,0 2.00176,-4.755955 0.86601,0 1.987563,4.755955 -0.915699,0 m -1.504869,-3.570516 -0.667254,1.604249 1.334507,0 -0.667253,-1.604249 m 6.12795,3.570516 -0.766631,-1.866889 -1.270621,0 0,1.866889 -0.851813,0 0,-4.755955 2.18632,0 c 0.175092,6e-6 0.324159,0.0142 0.447201,0.04259 0.123037,0.0284 0.246076,0.08045 0.369119,0.156166 0.227147,0.123045 0.406973,0.295774 0.539482,0.518187 0.1325,0.22242 0.198752,0.4685 0.198756,0.738238 -4e-6,0.269742 -0.06862,0.515822 -0.205855,0.738237 -0.132508,0.217687 -0.3218,0.392783 -0.567875,0.525285 l 0.873108,2.037251 -0.951191,0 m 0,-3.300773 c -3e-6,-0.184558 -0.06152,-0.331258 -0.184559,-0.440105 -0.123043,-0.108838 -0.291039,-0.16326 -0.503989,-0.163264 l -1.348704,0 0,1.18544 1.348704,0 c 0.21295,2e-6 0.380946,-0.05205 0.503989,-0.156165 0.123036,-0.10884 0.184556,-0.250809 0.184559,-0.425906 m 4.875076,3.300773 -1.213833,-2.470256 -0.901502,1.135749 0,1.334507 -0.851813,0 0,-4.755955 0.851813,0 0,2.072746 1.682329,-2.072746 1.10026,0 -1.263522,1.554559 1.568755,3.201396 -0.972487,0 m 5.487871,0 -0.901502,0 -0.766631,-3.1872 -0.752436,3.1872 -0.901502,0 -0.866009,-4.755955 0.880207,0 0.518184,3.073626 0.702747,-3.073626 0.851813,0 0.73114,3.073626 0.489791,-3.073626 0.866011,0 -0.851813,4.755955 m 5.158568,0 -0.468497,-1.121554 -2.072745,0 -0.461397,1.121554 -0.936996,0 2.001762,-4.755955 0.866009,0 1.987564,4.755955 -0.9157,0 m -1.504868,-3.570516 -0.667254,1.604249 1.334507,0 -0.667253,-1.604249 m 5.659452,1.632642 0,1.937874 -0.851811,0 0,-1.937874 -2.001762,-2.818081 1.050571,0 1.384196,1.937875 1.369997,-1.937875 1.050571,0 -2.001762,2.818081" />
  <path
     inkscape:connector-curvature="0"
     id="text1339"
     style="font-size:212.95323181px;font-style:normal;font-variant:normal;font-weight:normal;font-stretch:normal;text-align:center;line-height:100%;writing-mode:lr-tb;text-anchor:middle;fill:#000000;fill-opacity:1;stroke:none;font-family:Roadgeek 2005 Series E"
     d="m 4.7607809,34.153238 c -2.9e-6,0.194024 -0.035495,0.376217 -0.1064765,0.54658 -0.066255,0.165631 -0.1609006,0.309964 -0.2839377,0.433004 -0.1183098,0.12304 -0.2579122,0.222418 -0.418808,0.298135 -0.1561675,0.07098 -0.32653,0.106476 -0.5110877,0.106476 -0.2082222,0 -0.3951477,-0.04022 -0.5607766,-0.120673 C 2.7140631,35.336311 2.5744606,35.227469 2.4608862,35.090231 2.3473107,34.952995 2.2597633,34.794464 2.198244,34.614635 2.1367238,34.434809 2.105964,34.247884 2.1059642,34.05386 l 0.6672535,0 c -9e-7,0.09938 0.01183,0.198758 0.035492,0.298133 0.028393,0.09465 0.068617,0.182196 0.1206734,0.262642 0.056786,0.07572 0.1254046,0.137238 0.2058548,0.18456 0.08518,0.04733 0.186924,0.07099 0.3052329,0.07099 0.089912,0 0.1750931,-0.01893 0.255544,-0.05679 0.085179,-0.03786 0.1561635,-0.08991 0.2129531,-0.156167 0.061518,-0.06625 0.1088406,-0.141968 0.1419688,-0.227151 0.037856,-0.08991 0.056785,-0.182191 0.056788,-0.276837 -2.5e-6,-0.137236 -0.028396,-0.257909 -0.085181,-0.36202 -0.05679,-0.108843 -0.1561678,-0.217685 -0.2981345,-0.326529 -0.023663,-0.02366 -0.033128,-0.03549 -0.028394,-0.03549 0.00473,-0.0047 -0.00947,-0.01893 -0.042591,-0.04259 C 3.6202963,33.362947 3.5493121,33.317989 3.440471,33.251735 3.336359,33.180753 3.1636306,33.062447 2.9222848,32.896813 2.72826,32.764311 2.5815591,32.610513 2.4821815,32.435416 2.3875351,32.255591 2.3402122,32.0592 2.3402129,31.846244 c -7e-7,-0.17036 0.030759,-0.328891 0.09228,-0.475595 0.061519,-0.151429 0.1467003,-0.283933 0.2555438,-0.397513 0.113574,-0.113571 0.243712,-0.201118 0.3904142,-0.262643 0.1466997,-0.06625 0.3052313,-0.09937 0.4755955,-0.09938 0.1703606,4e-6 0.3265262,0.03076 0.4684971,0.09228 0.1466986,0.06152 0.2721044,0.146704 0.3762173,0.255544 0.1088399,0.108847 0.1940213,0.238985 0.2555439,0.390413 0.066249,0.151438 0.1017413,0.317067 0.1064765,0.496891 l -0.6530564,0 c -0.00947,-0.165623 -0.066255,-0.298128 -0.170363,-0.39751 -0.1041124,-0.09937 -0.2318842,-0.149062 -0.3833157,-0.149066 -0.1561673,4e-6 -0.2886713,0.05206 -0.3975126,0.156164 -0.108844,0.104116 -0.1632654,0.234253 -0.1632642,0.390415 -1.2e-6,0.118312 0.030759,0.217689 0.09228,0.298134 0.061519,0.08045 0.1798258,0.170366 0.354922,0.269742 0.4590304,0.265011 0.7926568,0.534751 1.0008801,0.809222 0.2129504,0.274473 0.3194269,0.58444 0.3194298,0.929896 m 3.4649263,-0.120674 c -3.1e-6,0.09465 -0.00474,0.179829 -0.014197,0.255542 -0.00474,0.07572 -0.0142,0.146703 -0.028394,0.212954 -0.0142,0.06152 -0.033129,0.123042 -0.056788,0.18456 -0.023665,0.06152 -0.052058,0.12304 -0.085181,0.18456 -0.1183105,0.194024 -0.2815742,0.354922 -0.4897924,0.482693 -0.2034911,0.12304 -0.4188102,0.18456 -0.6459582,0.18456 -0.2366162,0 -0.4613999,-0.06152 -0.6743517,-0.18456 -0.208222,-0.12304 -0.371486,-0.283938 -0.4897924,-0.482693 -0.033127,-0.06152 -0.06152,-0.12304 -0.085181,-0.18456 -0.023662,-0.06152 -0.042591,-0.123038 -0.056788,-0.18456 -0.014197,-0.06625 -0.026028,-0.137236 -0.035492,-0.212954 -0.00473,-0.07571 -0.0071,-0.160895 -0.0071,-0.255542 l 0,-3.336268 0.6814503,0 0,3.421448 c -1.3e-6,0.227151 0.061519,0.409345 0.1845594,0.54658 0.1230382,0.137238 0.2839359,0.205856 0.4826939,0.205856 0.1845573,0 0.3359906,-0.06862 0.4543002,-0.205856 0.1230371,-0.137235 0.1845569,-0.319429 0.1845595,-0.54658 l 0,-3.421448 0.6814502,0 0,3.336268 0,0 m 3.1835397,1.419687 -1.4693771,-3.1872 0,3.1872 -0.6814503,0 0,-4.755955 0.6814503,0 1.3061131,2.853573 0,-2.853573 0.68145,0 0,4.755955 -0.518186,0 m 3.502969,0 -0.837616,-2.321189 -0.433005,0.802124 0,1.519065 -0.68145,0 0,-4.755955 0.68145,0 0,1.902382 1.086061,-1.902382 0.787927,0 -0.986683,1.668135 1.100258,3.08782 -0.716942,0 m 1.513964,0 0,-4.755955 2.236009,0 0,0.667255 -1.554559,0 0,1.199636 0.986684,0 0,0.653055 -0.986684,0 0,1.568756 1.739118,0 0,0.667253 -2.420568,0 m 5.367308,0 -1.469377,-3.1872 0,3.1872 -0.68145,0 0,-4.755955 0.68145,0 1.306113,2.853573 0,-2.853573 0.681449,0 0,4.755955 -0.518185,0 m 5.330818,0 0,-2.669013 -0.880206,2.669013 -0.887305,-2.669013 0,2.669013 -0.681451,0 0,-4.755955 0.681451,0 0.887305,2.669015 0.880206,-2.669015 0.688549,0 0,4.755955 -0.688549,0 m 1.724144,0 0,-4.755955 2.236009,0 0,0.667255 -1.554558,0 0,1.199636 0.986685,0 0,0.653055 -0.986685,0 0,1.568756 1.739118,0 0,0.667253 -2.420569,0 m 5.204044,0 -0.333626,-1.299013 -1.022176,0 -0.312331,1.299013 -0.688549,0 1.18544,-4.755955 0.667254,0 1.185437,4.755955 -0.681449,0 m -0.851813,-3.336267 -0.333627,1.37 0.681452,0 -0.347825,-1.37 m 4.860657,0.951191 c -2e-6,1.088429 -0.227153,1.810103 -0.681448,2.165025 -0.08519,0.08045 -0.184563,0.137237 -0.298136,0.170362 -0.113578,0.03313 -0.236615,0.04969 -0.369118,0.04969 l -1.320311,0 0,-4.755955 1.213834,0 c 0.203486,6e-6 0.362017,0.0142 0.475595,0.04259 0.113573,0.0284 0.212951,0.07572 0.298136,0.141969 0.141964,0.09938 0.260273,0.238986 0.354922,0.418809 0.09937,0.179831 0.170358,0.390417 0.212953,0.631759 0.03312,0.1751 0.05915,0.362025 0.07808,0.560778 0.02366,0.19876 0.03549,0.390418 0.03549,0.574973 m -0.667253,0.03549 c -2e-6,-0.26974 -0.01183,-0.520551 -0.03549,-0.752436 -0.02366,-0.236611 -0.05679,-0.404606 -0.09938,-0.503989 -0.108846,-0.321793 -0.3147,-0.482691 -0.617564,-0.482693 l -0.567876,0 0,3.421447 0.567876,0 c 0.09938,2e-6 0.186922,-0.01893 0.262642,-0.05679 0.08045,-0.03786 0.149064,-0.08755 0.205853,-0.149067 0.05679,-0.06152 0.101743,-0.132504 0.134871,-0.212953 0.03786,-0.08518 0.06625,-0.172729 0.08518,-0.262642 0.01419,-0.151434 0.02839,-0.309965 0.04259,-0.475596 0.0142,-0.170362 0.02129,-0.345455 0.0213,-0.525284 m 4.307422,-0.03549 c -2e-6,0.364389 -0.0213,0.674354 -0.06388,0.929896 -0.03786,0.255547 -0.10648,0.496893 -0.205855,0.724042 -0.118311,0.283938 -0.267378,0.492158 -0.447202,0.624662 -0.175098,0.127771 -0.397514,0.191658 -0.667253,0.191658 -0.28394,0 -0.51582,-0.06389 -0.695647,-0.191658 -0.175096,-0.132504 -0.321798,-0.340724 -0.440104,-0.624662 -0.09938,-0.231882 -0.170363,-0.473229 -0.212954,-0.724042 -0.03786,-0.255542 -0.05679,-0.565507 -0.05679,-0.929896 0,-0.359651 0.01893,-0.667251 0.05679,-0.922797 0.04259,-0.260271 0.113576,-0.503985 0.212954,-0.731138 0.123039,-0.283933 0.272106,-0.487422 0.447202,-0.610467 0.179826,-0.127766 0.409342,-0.191653 0.688549,-0.191657 0.274471,4e-6 0.499255,0.06389 0.674351,0.191657 0.175093,0.123045 0.321793,0.331265 0.440104,0.624663 0.04732,0.118311 0.08754,0.23662 0.120673,0.354922 0.03786,0.118311 0.06625,0.243718 0.08518,0.376218 0.02366,0.127775 0.04022,0.267377 0.04969,0.418808 0.0095,0.146703 0.01419,0.309967 0.0142,0.489791 m -0.653056,0 c -2e-6,-0.132502 -0.0047,-0.253175 -0.0142,-0.362019 -0.0047,-0.10884 -0.0142,-0.208218 -0.02839,-0.298136 -0.0095,-0.09464 -0.02366,-0.184556 -0.04259,-0.26974 -0.01893,-0.08518 -0.04023,-0.17036 -0.06388,-0.255544 -0.06152,-0.212949 -0.139607,-0.366749 -0.234249,-0.461398 -0.08992,-0.09464 -0.205858,-0.141965 -0.347824,-0.141969 -0.293405,4e-6 -0.494527,0.196393 -0.603367,0.589171 -0.05679,0.179829 -0.09701,0.362022 -0.120673,0.54658 -0.01893,0.179829 -0.0284,0.402247 -0.0284,0.667253 0,0.127774 0.0024,0.24608 0.0071,0.354922 0.0095,0.104112 0.01893,0.203489 0.02839,0.298134 0.0142,0.08992 0.03076,0.179829 0.04969,0.269742 0.01893,0.08991 0.04022,0.182193 0.06389,0.276838 0.10884,0.392782 0.309962,0.589171 0.603367,0.589171 0.141966,0 0.257908,-0.04732 0.347824,-0.141969 0.09464,-0.09464 0.172727,-0.243713 0.234249,-0.447202 0.02839,-0.09464 0.05205,-0.184558 0.07098,-0.26974 0.01893,-0.08991 0.03312,-0.182191 0.04259,-0.27684 0.0142,-0.09464 0.02366,-0.194022 0.0284,-0.298134 0.0047,-0.108842 0.0071,-0.23188 0.0071,-0.36912 m 4.078942,2.385076 -0.582071,0 -0.454302,-2.484453 -0.4472,2.484453 -0.603369,0 -0.752433,-4.755955 0.667253,0 0.404611,2.534144 0.461398,-2.534144 0.539482,0 0.447202,2.534144 0.418807,-2.534144 0.667253,0 -0.766631,4.755955" />
</svg>
