<?xml version="1.0" encoding="UTF-8" standalone="no"?>
<!-- Created with Inkscape (http://www.inkscape.org/) -->

<svg
   xmlns:dc="http://purl.org/dc/elements/1.1/"
   xmlns:cc="http://creativecommons.org/ns#"
   xmlns:rdf="http://www.w3.org/1999/02/22-rdf-syntax-ns#"
   xmlns:svg="http://www.w3.org/2000/svg"
   xmlns="http://www.w3.org/2000/svg"
   xmlns:sodipodi="http://sodipodi.sourceforge.net/DTD/sodipodi-0.dtd"
   xmlns:inkscape="http://www.inkscape.org/namespaces/inkscape"
   version="1.0"
   width="60"
   height="48"
   id="svg2"
   inkscape:version="0.48.1 r9760"
   sodipodi:docname="US:NY-TSP.svg">
  <metadata
     id="metadata3346">
    <rdf:RDF>
      <cc:Work
         rdf:about="">
        <dc:format>image/svg+xml</dc:format>
        <dc:type
           rdf:resource="http://purl.org/dc/dcmitype/StillImage" />
      </cc:Work>
    </rdf:RDF>
  </metadata>
  <sodipodi:namedview
     pagecolor="#ffffff"
     bordercolor="#666666"
     borderopacity="1"
     objecttolerance="10"
     gridtolerance="10"
     guidetolerance="10"
     inkscape:pageopacity="0"
     inkscape:pageshadow="2"
     inkscape:window-width="1278"
     inkscape:window-height="996"
     id="namedview3344"
     showgrid="true"
     inkscape:showpageshadow="false"
     inkscape:zoom="16.895833"
     inkscape:cx="30"
     inkscape:cy="24"
     inkscape:window-x="1"
     inkscape:window-y="27"
     inkscape:window-maximized="0"
     inkscape:current-layer="svg2">
    <inkscape:grid
       type="xygrid"
       id="grid3372"
       empspacing="5"
       visible="true"
       enabled="true"
       snapvisiblegridlinesonly="true" />
  </sodipodi:namedview>
  <defs
     id="defs4" />
  <path
     d="M 30.000003,1 C 25.066837,1 20.829935,1.7378813 16.238914,4.4269093 11.664805,7.1061199 7.2054518,8.5247826 1,8.5247826 L 1,35.649914 c 0,2.40974 0.00464,2.410772 1.5635115,3.629207 C 5.2873322,41.408537 30.000003,47 30.000003,47 c 0,0 24.712663,-5.591463 27.43649,-7.720879 C 58.995375,38.060686 59,38.059654 59,35.649914 L 59,8.5247826 c -6.205451,0 -10.664809,-1.4186627 -15.238911,-4.0978733 C 39.170069,1.7378813 34.933165,1 30.000003,1 z"
     id="rect4804-7"
     style="fill:#006b54;stroke:none"
     inkscape:connector-curvature="0" />
  <path
     d="m 14.520536,10.5059 0,7.000567 -1.654752,0 0,-7.000567 -2.385925,0 0,-1.7439418 6.388117,0 0,1.7439418 -2.34744,0"
     id="text1352"
     style="fill:#ffffff;stroke:none"
     inkscape:connector-curvature="0" />
  <path
     d="m 24.122683,26.878277 c -7e-6,0.459884 -0.111181,0.893674 -0.333517,1.301368 -0.22235,0.399169 -0.52166,0.707136 -0.897927,0.923901 -0.256558,0.157601 -0.590074,0.277739 -1.000549,0.364548 -0.410486,0.08784 -0.820967,0.131765 -1.231443,0.131765 -0.487451,0 -0.957794,-0.06459 -1.411031,-0.196354 -0.453243,-0.139516 -0.867999,-0.338455 -1.244273,-0.598883 -0.136826,-0.0775 -0.265102,-0.165352 -0.384824,-0.259912 -0.111175,-0.09559 -0.265105,-0.235109 -0.461792,-0.416737 l 1.20579,-1.223084 c 0.359168,0.338454 0.718338,0.581313 1.077512,0.728838 0.367721,0.147267 0.803856,0.219607 1.30841,0.219607 0.495994,0 0.897923,-0.08268 1.205788,-0.245443 0.316408,-0.165352 0.474613,-0.399169 0.474619,-0.702744 -6e-6,-0.12143 -0.03422,-0.258362 -0.10261,-0.403302 -0.06843,-0.147267 -0.162488,-0.260429 -0.282206,-0.338454 -0.07698,-0.04392 -0.158212,-0.08268 -0.243725,-0.118847 -0.08552,-0.04392 -0.192421,-0.08267 -0.320689,-0.118846 -0.119728,-0.03358 -0.27366,-0.06976 -0.461792,-0.103343 -0.179591,-0.04392 -0.410483,-0.09043 -0.692687,-0.144683 -0.461794,-0.113679 -0.833792,-0.217024 -1.115996,-0.312618 -0.282208,-0.105928 -0.513104,-0.21444 -0.692686,-0.338195 -0.290761,-0.201522 -0.521657,-0.472802 -0.692688,-0.819782 -0.162483,-0.347237 -0.243725,-0.702743 -0.243725,-1.067291 -1e-6,-0.442315 0.102611,-0.854144 0.307863,-1.235744 0.213789,-0.3816 0.513099,-0.685434 0.897927,-0.911241 0.239446,-0.147267 0.504548,-0.255779 0.795307,-0.325278 0.290755,-0.06976 0.628547,-0.105928 1.013376,-0.105928 0.487442,0 0.949233,0.05684 1.385376,0.170518 0.444681,0.11368 0.84661,0.281874 1.205788,0.507422 0.09407,0.06201 0.171028,0.116264 0.230895,0.170519 0.06841,0.04392 0.171027,0.121431 0.30786,0.235109 l -1.051858,1.366217 c -0.350625,-0.260428 -0.692694,-0.442573 -1.026204,-0.546434 -0.333522,-0.103344 -0.705518,-0.157601 -1.115995,-0.157601 -0.393382,0 -0.70552,0.06976 -0.936412,0.209272 -0.222348,0.139515 -0.333519,0.34698 -0.333516,0.62446 -3e-6,0.105929 0.02993,0.21444 0.08979,0.325278 0.05986,0.105928 0.141101,0.178269 0.243725,0.22219 0.07698,0.04392 0.158202,0.0775 0.243724,0.105929 0.08551,0.02584 0.175309,0.04392 0.269379,0.0775 l 0.269379,0.02584 0.30786,0.06459 0.384827,0.06459 c 1.009095,0.183438 1.770195,0.511557 2.283303,0.98901 0.513093,0.46841 0.769645,1.088735 0.769652,1.86072"
     id="text2229"
     style="fill:#ffffff;stroke:none"
     inkscape:connector-curvature="0" />
  <path
     d="m 29.571233,35.282782 c -7e-6,0.503289 -0.119729,0.971698 -0.359166,1.405487 -0.239484,0.425005 -0.564422,0.750541 -0.974895,0.976091 -0.128277,0.06976 -0.252279,0.131765 -0.371998,0.183436 -0.111208,0.04392 -0.230911,0.0775 -0.359174,0.105928 -0.119729,0.02584 -0.256555,0.04651 -0.410478,0.06459 -0.145394,0 -0.31642,0.02584 -0.513106,0.02584 l -2.257646,0 0,3.278868 -1.693235,0 0,-8.744509 4.040674,0 c 0.359165,0 0.649927,0.02584 0.872272,0.07751 0.22234,0.05168 0.453237,0.147266 0.692691,0.286265 0.410473,0.242859 0.735435,0.572529 0.974895,0.989008 0.239458,0.416479 0.359159,0.87197 0.359166,1.366475 m -1.693237,0 c -5e-6,-0.277739 -0.102631,-0.507681 -0.307856,-0.689568 -0.196725,-0.191187 -0.457525,-0.286264 -0.782481,-0.286264 l -2.462889,0 0,1.977758 2.462889,0 c 0.333507,0 0.598612,-0.09043 0.795305,-0.273088 0.1967,-0.183437 0.295027,-0.425263 0.295032,-0.728838"
     id="text2233"
     style="fill:#ffffff;stroke:none"
     inkscape:connector-curvature="0" />
  <path
     d="m 20.938834,16.046725 0,-0.139516 c -0.199629,0.08267 -0.393555,0.134348 -0.581771,0.157601 -0.188224,0.02842 -0.362184,0.04392 -0.521883,0.04392 -0.233853,0 -0.447738,-0.03617 -0.64166,-0.103343 -0.193924,-0.06976 -0.362182,-0.167935 -0.504772,-0.295049 -0.142591,-0.129182 -0.253815,-0.277741 -0.333662,-0.451101 -0.07415,-0.180853 -0.111223,-0.373332 -0.111223,-0.581313 0,-0.222191 0.04278,-0.422679 0.128332,-0.607666 0.09125,-0.186021 0.213884,-0.344396 0.367885,-0.477452 0.153997,-0.139515 0.336512,-0.248027 0.547549,-0.320885 0.211032,-0.08268 0.439177,-0.121431 0.684434,-0.121431 0.119775,0 0.26807,0 0.444885,0.03617 0.176812,0.02584 0.35077,0.06718 0.521883,0.131764 -0.01142,-0.204105 -0.08557,-0.347237 -0.222441,-0.434046 -0.136888,-0.09301 -0.310851,-0.139515 -0.521883,-0.139515 -0.399256,0 -0.79566,0.111094 -1.189208,0.329927 l -0.419217,-0.920027 c 0.153998,-0.08268 0.296588,-0.149851 0.427772,-0.209274 0.136887,-0.05942 0.26807,-0.105928 0.39355,-0.139515 0.131181,-0.03617 0.259515,-0.06201 0.384996,-0.07751 0.125478,-0.02584 0.259514,-0.02584 0.402107,-0.02584 0.576065,0 1.023799,0.144683 1.343207,0.434047 0.325103,0.283423 0.487656,0.723156 0.487661,1.319196 l 0,2.594726 -1.086543,0 m 0,-1.709321 c -0.171114,-0.06459 -0.347925,-0.111096 -0.530438,-0.139515 -0.176816,-0.03617 -0.322258,-0.05168 -0.43633,-0.05168 -0.182519,0 -0.336516,0.04651 -0.461994,0.139515 -0.119777,0.08784 -0.179664,0.198939 -0.179661,0.329928 -2e-6,0.134347 0.07415,0.248027 0.22244,0.346979 0.148292,0.09817 0.322254,0.147266 0.521883,0.147266 0.119775,0 0.250956,-0.02584 0.393551,-0.04392 0.148292,-0.02842 0.305142,-0.09043 0.470551,-0.183436 l 0,-0.546434 m 6.634222,0.936818 c -0.0913,0.116263 -0.165412,0.204107 -0.222468,0.260688 -0.05705,0.05942 -0.131201,0.118846 -0.222441,0.183437 -0.353631,0.260429 -0.750032,0.390385 -1.18921,0.390385 -0.296593,0 -0.576068,-0.05425 -0.838435,-0.165352 -0.256666,-0.111096 -0.48196,-0.260171 -0.675881,-0.4511 -0.193928,-0.198939 -0.347921,-0.428106 -0.461993,-0.694476 -0.114084,-0.271538 -0.171112,-0.569687 -0.171112,-0.893931 0,-0.318043 0.05703,-0.610249 0.171112,-0.876362 0.114081,-0.272055 0.268068,-0.506391 0.461993,-0.703003 0.193927,-0.198939 0.419215,-0.350339 0.675881,-0.459885 0.262367,-0.111094 0.541842,-0.165351 0.838435,-0.165351 0.245259,0 0.484807,0.04392 0.718655,0.131765 0.239561,0.08784 0.444885,0.21444 0.615995,0.381858 0.04564,0.04134 0.08842,0.08784 0.128326,0.139515 0.03993,0.04651 0.09697,0.111096 0.171112,0.191188 l -0.76144,0.954647 c -0.07985,-0.227358 -0.196802,-0.396326 -0.350768,-0.51233 -0.154018,-0.12143 -0.327964,-0.183437 -0.521884,-0.183437 -0.1369,0 -0.268078,0.02842 -0.39355,0.08784 -0.11978,0.05168 -0.228138,0.129181 -0.325107,0.227359 -0.0913,0.09817 -0.165388,0.21444 -0.222442,0.355763 -0.05133,0.134348 -0.07701,0.277739 -0.07701,0.433788 -4e-6,0.157601 0.02567,0.303834 0.07701,0.442833 0.05703,0.134347 0.131175,0.248027 0.222442,0.347237 0.09697,0.09817 0.205322,0.17827 0.325107,0.235109 0.125479,0.05168 0.256661,0.0775 0.39355,0.0775 0.171086,0 0.322251,-0.04392 0.45344,-0.131765 0.136898,-0.08784 0.262363,-0.227358 0.376438,-0.41622 l 0.804214,0.815388 0,0 m 5.149448,-1.344772 c -6e-6,0.306676 -0.0542,0.592941 -0.162564,0.858795 -0.108361,0.26637 -0.253805,0.500705 -0.436326,0.70326 -0.182532,0.196355 -0.393558,0.352664 -0.633106,0.468411 -0.233837,0.111095 -0.47911,0.165351 -0.735768,0.165351 -0.262372,0 -0.510479,-0.05425 -0.744326,-0.165351 -0.233837,-0.116264 -0.439183,-0.271798 -0.615993,-0.468411 -0.176834,-0.204106 -0.316552,-0.43689 -0.419217,-0.70326 -0.102695,-0.265854 -0.153993,-0.552119 -0.153993,-0.858795 -3e-6,-0.3183 0.04848,-0.613349 0.14542,-0.885404 0.102694,-0.271796 0.23956,-0.506133 0.410665,-0.703004 0.176833,-0.204105 0.382142,-0.358864 0.615995,-0.468926 0.233861,-0.116262 0.487656,-0.175686 0.761434,-0.175686 0.250956,0 0.493361,0.05942 0.727214,0.175686 0.23956,0.116264 0.450585,0.275156 0.633105,0.477711 0.182531,0.201522 0.327951,0.439475 0.436326,0.71153 0.114083,0.272054 0.171085,0.56116 0.171085,0.868093 m -1.163543,0 c -3e-6,-0.157599 -0.02289,-0.303832 -0.06844,-0.442831 -0.04561,-0.139515 -0.105506,-0.258361 -0.179658,-0.356022 -0.07418,-0.105928 -0.159715,-0.18602 -0.256664,-0.242859 -0.09698,-0.05942 -0.196801,-0.08784 -0.299439,-0.08784 -0.114082,0 -0.219594,0.02842 -0.316555,0.08784 -0.09127,0.05942 -0.173984,0.139515 -0.248106,0.242859 -0.06844,0.09817 -0.122628,0.217024 -0.162564,0.356022 -0.03993,0.139515 -0.05988,0.286523 -0.05988,0.442831 -1e-6,0.149851 0.0201,0.292208 0.05988,0.425005 0.03993,0.134349 0.09411,0.250611 0.162564,0.346981 0.07415,0.09817 0.15684,0.178268 0.248106,0.235108 0.09698,0.05942 0.202501,0.08784 0.316555,0.08784 0.102662,0 0.202499,-0.02842 0.299439,-0.08784 0.09697,-0.05942 0.182533,-0.136932 0.256664,-0.235108 0.07415,-0.09817 0.134049,-0.214441 0.179658,-0.346981 0.04564,-0.134348 0.06844,-0.274637 0.06844,-0.425005 m 5.582968,2.117275 0,-2.551321 c -2e-6,-0.198938 -0.06276,-0.361706 -0.188229,-0.494763 -0.11978,-0.134347 -0.29089,-0.201522 -0.513327,-0.201522 -0.102684,0 -0.202499,0.02584 -0.299445,0.06201 -0.09126,0.03617 -0.176835,0.08526 -0.256661,0.147267 -0.07415,0.06459 -0.134051,0.136931 -0.179657,0.21444 -0.04561,0.08009 -0.06844,0.165351 -0.06844,0.253193 l 0,2.568891 -1.14643,0 0,-4.24385 1.14643,0 0,0.227358 c 0.193952,-0.12143 0.382142,-0.206689 0.564661,-0.253194 0.182532,-0.05168 0.370735,-0.07751 0.564658,-0.07751 0.216768,0 0.416364,0.03875 0.598884,0.113679 0.182533,0.06976 0.339364,0.167935 0.470549,0.295049 0.136873,0.12918 0.242409,0.28058 0.316555,0.459883 0.07984,0.175688 0.119778,0.361709 0.119778,0.564005 l 0,2.916128 -1.129323,0 m 4.559527,-5.346019 c -2e-6,0.152433 -0.0542,0.283422 -0.162563,0.399168 -0.10836,0.116263 -0.24241,0.175686 -0.402107,0.175686 -0.148294,0 -0.276623,-0.05942 -0.384997,-0.175686 -0.108358,-0.116263 -0.162563,-0.248028 -0.162563,-0.399168 -2e-6,-0.167936 0.0542,-0.303834 0.162563,-0.407953 0.108361,-0.111096 0.236737,-0.165352 0.384997,-0.165352 0.159715,0 0.293737,0.05425 0.402107,0.165352 0.108358,0.105928 0.162563,0.237692 0.162563,0.407953 m -1.12932,5.346019 0,-4.24385 1.14643,0 0,4.24385 -1.14643,0 m 6.701858,-0.772502 c -0.09124,0.116262 -0.165413,0.204105 -0.222441,0.260687 -0.05705,0.05942 -0.131201,0.118847 -0.222441,0.183436 -0.353625,0.26043 -0.750033,0.390386 -1.189207,0.390386 -0.296588,0 -0.576072,-0.05425 -0.838433,-0.165352 -0.256669,-0.111097 -0.481959,-0.26017 -0.67588,-0.451099 -0.193953,-0.19894 -0.347927,-0.428106 -0.461995,-0.694478 -0.114082,-0.271537 -0.171111,-0.569686 -0.171111,-0.89393 0,-0.318043 0.05705,-0.61025 0.171111,-0.876362 0.114081,-0.272055 0.268069,-0.50639 0.461995,-0.703004 0.193951,-0.198938 0.419211,-0.350338 0.67588,-0.459883 0.262361,-0.111096 0.541845,-0.165352 0.838433,-0.165352 0.245258,0 0.484807,0.04392 0.718662,0.131765 0.23956,0.08784 0.444875,0.21444 0.61599,0.381858 0.04565,0.04134 0.08842,0.08784 0.128327,0.139515 0.03993,0.04651 0.09697,0.111096 0.171084,0.191188 l -0.76143,0.954648 c -0.07984,-0.227359 -0.196802,-0.396327 -0.350774,-0.512332 -0.154017,-0.121429 -0.327963,-0.183436 -0.521884,-0.183436 -0.1369,0 -0.26807,0.02842 -0.39355,0.08784 -0.119781,0.05168 -0.22814,0.129181 -0.325108,0.227358 -0.09127,0.09817 -0.165413,0.21444 -0.222467,0.355764 -0.05137,0.134348 -0.07702,0.277739 -0.07702,0.433789 0,0.157601 0.02567,0.303833 0.07702,0.442831 0.05703,0.134348 0.131175,0.250611 0.222467,0.347239 0.09696,0.09817 0.205321,0.178269 0.325108,0.235108 0.125478,0.05168 0.25666,0.07751 0.39355,0.07751 0.171085,0 0.322256,-0.04392 0.453439,-0.131764 0.136898,-0.08784 0.262364,-0.227359 0.376442,-0.41622 l 0.804207,0.815388 0,0"
     id="text2239"
     style="fill:#ffffff;stroke:none"
     inkscape:connector-curvature="0" />
  <path
     d="m 27.119901,24.787874 0,1.588407 c -2e-6,0.198938 0.03134,0.346979 0.09412,0.451357 0.06276,0.09817 0.199626,0.139516 0.410666,0.12143 0.148295,0 0.253805,-0.04134 0.316552,-0.08784 0.06844,-0.04651 0.151119,-0.12143 0.248108,-0.227358 l -0.299441,1.20629 c -0.09698,0.04134 -0.171111,0.07493 -0.222467,0.105928 -0.05133,0.02842 -0.09982,0.05168 -0.145445,0.06976 -0.03993,0.02584 -0.08841,0.02842 -0.145446,0.03617 -0.05132,0 -0.128327,0.02584 -0.231014,0.02584 -0.393551,0 -0.684434,-0.113679 -0.872654,-0.338453 -0.182532,-0.227358 -0.273775,-0.546694 -0.273775,-0.963431 l 0,-1.978792 -0.787102,0 0,-1.006835 0.787102,0 0,-1.24117 1.120763,-0.450841 0,1.6747 1.069432,0 0,1.024146 -1.069432,0 m 5.067236,3.22022 0,-0.139516 c -0.199624,0.08267 -0.39355,0.134348 -0.581773,0.157601 -0.188228,0.02842 -0.36218,0.04392 -0.521877,0.04392 -0.233864,0 -0.447738,-0.03617 -0.641662,-0.105928 -0.193932,-0.06976 -0.362184,-0.167934 -0.504776,-0.295307 -0.142597,-0.126597 -0.253804,-0.277738 -0.333665,-0.451358 -0.07414,-0.180853 -0.111208,-0.373074 -0.111208,-0.581313 -2e-6,-0.219608 0.04279,-0.422421 0.128327,-0.607926 0.09124,-0.186019 0.213869,-0.343879 0.367879,-0.477193 0.154017,-0.139515 0.336516,-0.248027 0.547553,-0.321144 0.21102,-0.08267 0.439174,-0.12143 0.684432,-0.12143 0.119781,0 0.268073,0 0.444886,0.03617 0.176834,0.02584 0.35077,0.06718 0.521881,0.131765 -0.01145,-0.204106 -0.08554,-0.347238 -0.222441,-0.43379 -0.136899,-0.09301 -0.310851,-0.139514 -0.521885,-0.139514 -0.399255,0 -0.795659,0.111095 -1.189203,0.329928 l -0.419215,-0.920034 c 0.153991,-0.08268 0.296585,-0.152433 0.427772,-0.209274 0.136899,-0.05942 0.268069,-0.105928 0.393549,-0.139515 0.131177,-0.03617 0.259517,-0.06201 0.384998,-0.0775 0.125478,-0.02584 0.259514,-0.02584 0.402104,-0.02584 0.576068,0 1.023801,0.144683 1.34321,0.43379 0.3251,0.283422 0.487653,0.723412 0.487658,1.319452 l 0,2.595243 -1.086542,0 m 0,-1.710096 c -0.171111,-0.06459 -0.347923,-0.111095 -0.530438,-0.139515 -0.176834,-0.03617 -0.322255,-0.05168 -0.43633,-0.05168 -0.182531,0 -0.336513,0.04651 -0.461993,0.139515 -0.11978,0.08784 -0.179657,0.196355 -0.179657,0.32967 -2e-6,0.134347 0.07418,0.250611 0.222466,0.347238 0.148294,0.09817 0.322253,0.147266 0.521884,0.147266 0.119781,0 0.250956,-0.02584 0.393553,-0.04392 0.148296,-0.02842 0.30514,-0.09043 0.470546,-0.183437 l 0,-0.546951 m 4.657916,-1.510124 0,1.588149 c -3e-6,0.198938 0.03136,0.347237 0.09411,0.451615 0.06276,0.09817 0.199624,0.139516 0.410657,0.12143 0.148294,0 0.253804,-0.04134 0.316553,-0.08784 0.06844,-0.04651 0.151118,-0.121429 0.248107,-0.227358 l -0.29944,1.20629 c -0.09698,0.04134 -0.17111,0.07493 -0.222467,0.105928 -0.05133,0.02842 -0.09981,0.05168 -0.145444,0.06976 -0.03993,0.02584 -0.08841,0.02842 -0.145446,0.03617 -0.05133,0 -0.128327,0.02584 -0.231014,0.02584 -0.393551,0 -0.684439,-0.113679 -0.872655,-0.338453 -0.182532,-0.227358 -0.273777,-0.546952 -0.273777,-0.963431 l 0,-1.978792 -0.787099,0 0,-1.006835 0.787099,0 0,-1.24117 1.12077,-0.451099 0,1.674959 1.069428,0 0,1.024145 -1.069428,0 m 3.535807,1.466977 c 0.06276,0.242861 0.171111,0.43379 0.325107,0.572789 0.154018,0.134347 0.322254,0.201522 0.504771,0.201522 0.23956,0 0.453437,-0.131765 0.641661,-0.390384 l 0.787102,0.693959 c -0.216768,0.260428 -0.439183,0.448516 -0.667326,0.56452 -0.22814,0.116262 -0.481959,0.175685 -0.761437,0.175685 -0.268072,0 -0.521885,-0.05425 -0.761435,-0.165351 -0.239554,-0.116262 -0.450582,-0.272054 -0.633102,-0.468667 -0.182532,-0.198938 -0.327956,-0.428363 -0.436325,-0.694217 -0.10836,-0.272055 -0.162565,-0.564263 -0.162565,-0.876622 0,-0.306933 0.05134,-0.593198 0.153992,-0.859569 0.10836,-0.265854 0.250957,-0.497346 0.427773,-0.694218 0.176834,-0.204105 0.382142,-0.361706 0.615993,-0.477452 0.233837,-0.116263 0.479102,-0.173102 0.735768,-0.173102 0.342215,0 0.655912,0.100758 0.9411,0.303833 0.290881,0.198939 0.513326,0.462725 0.667324,0.798337 0.07985,0.198939 0.139748,0.402011 0.17966,0.616193 0.03993,0.20669 0.05988,0.445416 0.05988,0.711786 l 0,0.165352 -2.617969,0 m 1.42876,-0.963689 c -0.07984,-0.211856 -0.17111,-0.364548 -0.273774,-0.4511 -0.09698,-0.09301 -0.225315,-0.139515 -0.384995,-0.139515 -0.154017,0 -0.296591,0.05168 -0.427772,0.157601 -0.125479,0.09817 -0.219594,0.24286 -0.282329,0.434047 l 1.36887,0 0,0"
     id="text3116"
     style="fill:#ffffff;stroke:none"
     inkscape:connector-curvature="0" />
  <path
     d="m 34.10189,36.862146 1.163542,2.942224 -1.163542,0 -0.761437,-1.961482 -0.667327,0.676907 0,1.284575 -1.146429,0 0,-5.467967 1.146429,-0.451099 0,2.881507 1.20632,-1.18898 1.428761,0 -1.206317,1.284315 m 6.950773,2.942224 -1.103655,0 -0.521884,-2.100223 -0.667325,2.100223 -1.103655,0 -1.20632,-4.244108 1.163543,0 0.590326,2.022455 0.581774,-2.022455 1.249094,0 0.496217,1.99636 0.564662,-1.99636 1.189203,0 -1.23198,4.244108 m 4.703224,1.631554 -1.146431,0 0.684439,-1.692269 -1.976309,-4.183393 1.308985,0 1.146432,2.812008 1.146429,-2.812008 1.206316,0 -2.369861,5.875662"
     id="text3120"
     style="fill:#ffffff;stroke:none"
     inkscape:connector-curvature="0" />
</svg>
