<?xml version="1.0" encoding="UTF-8" standalone="no"?>
<!-- Created with Inkscape (http://www.inkscape.org/) -->

<svg
   xmlns:dc="http://purl.org/dc/elements/1.1/"
   xmlns:cc="http://creativecommons.org/ns#"
   xmlns:rdf="http://www.w3.org/1999/02/22-rdf-syntax-ns#"
   xmlns:svg="http://www.w3.org/2000/svg"
   xmlns="http://www.w3.org/2000/svg"
   xmlns:sodipodi="http://sodipodi.sourceforge.net/DTD/sodipodi-0.dtd"
   xmlns:inkscape="http://www.inkscape.org/namespaces/inkscape"
   version="1.1"
   width="60"
   height="48"
   id="svg2"
   inkscape:version="0.48.1 r9760"
   sodipodi:docname="US:ND_2.5.svg">
  <sodipodi:namedview
     pagecolor="#ffffff"
     bordercolor="#666666"
     borderopacity="1"
     objecttolerance="10"
     gridtolerance="10"
     guidetolerance="10"
     inkscape:pageopacity="0"
     inkscape:pageshadow="2"
     inkscape:window-width="1598"
     inkscape:window-height="1198"
     id="namedview2998"
     showgrid="true"
     inkscape:showpageshadow="false"
     inkscape:zoom="20.25"
     inkscape:cx="30"
     inkscape:cy="24"
     inkscape:window-x="1"
     inkscape:window-y="1"
     inkscape:window-maximized="0"
     inkscape:current-layer="svg2">
    <inkscape:grid
       type="xygrid"
       id="grid3094"
       empspacing="5"
       visible="true"
       enabled="true"
       snapvisiblegridlinesonly="true" />
  </sodipodi:namedview>
  <metadata
     id="metadata8">
    <rdf:RDF>
      <cc:Work
         rdf:about="">
        <dc:format>image/svg+xml</dc:format>
        <dc:type
           rdf:resource="http://purl.org/dc/dcmitype/StillImage" />
        <dc:title></dc:title>
      </cc:Work>
    </rdf:RDF>
  </metadata>
  <defs
     id="defs6" />
  <g
     id="g3100">
    <path
       transform="matrix(0.9960392,0,0,0.99565566,0.10554841,0.10016242)"
       d="m 28.15625,0.9375 c -0.62482,-0.0843956 -1.286117,-0.006248 -2.03125,0.1875 -1.011958,0.2617156 -1.945988,0.5823797 -2.75,1.03125 -0.268566,0.1498452 -0.47363,0.3015377 -0.4375,0.28125 -0.530328,0.2977988 -1.368849,0.8757943 -2.28125,1.59375 -0.164202,0.1291955 -0.362649,0.3033391 -0.375,0.3125 0.117007,-0.086741 -0.02998,-0.00492 -0.1875,0.0625 -0.157525,0.067422 -0.376044,0.1628084 -0.625,0.25 C 18.442897,5.0155393 18.078304,5.1723813 17.625,5.4375 17.087676,5.7517631 16.543575,6.1912695 15.75,6.875 c -0.08989,0.077486 -0.333679,0.2387201 -0.5625,0.34375 -0.641186,0.2943336 -1.213676,0.6252172 -1.65625,0.9375 -0.525574,0.3708571 -1.112668,0.8996408 -1.96875,1.78125 -0.759282,0.781913 -1.2343,1.279203 -1.78125,1.96875 -0.2541901,0.320384 -0.7573908,1.049338 -1,1.40625 -0.1983544,0.291813 -0.4277071,0.594472 -0.59375,0.8125 -0.00422,0.0055 0.00416,0.02582 0,0.03125 -0.1467526,0.192917 -0.1994237,0.254399 -0.40625,0.5 0.1036037,-0.123099 -0.069217,0.07199 -0.21875,0.21875 -0.1495332,0.146764 -0.3373665,0.332357 -0.53125,0.53125 -1.0161471,1.042409 -1.3375125,1.476561 -1.75,2.25 -0.09662,0.181242 -0.2499212,0.481149 -0.1875,0.375 a 1.1054381,1.1054381 0 0 0 -0.03125,0 c -0.1117131,0.190531 -0.079434,0.222088 -0.09375,0.25 0.05899,-0.11458 0.01264,-0.03216 -0.03125,0.03125 -0.04389,0.06341 -0.1229326,0.149554 -0.1875,0.25 -0.2924656,0.454786 -0.4963132,0.80733 -0.625,1.1875 l -0.0625,0.1875 a 1.1054381,1.1054381 0 0 0 -0.03125,0.34375 l 0,0.375 a 1.1054381,1.1054381 0 0 0 0,0.03125 c 0.038337,1.14433 0.013671,1.179017 0,1.25 -0.054308,0.281958 -0.1188993,0.482539 -0.84375,1.84375 -0.28422,0.533783 -0.7228459,1.444631 -0.9375,1.9375 -0.1655779,0.380223 -0.4064944,1.000722 -0.6875,1.71875 -0.4323218,1.104676 -0.63273663,1.827881 -0.65625,2.59375 -0.009803,0.319294 -0.0273918,0.598132 0.0625,0.9375 0.0898918,0.339368 0.3060597,0.68728 0.53125,0.90625 0.2698568,0.262589 0.7274152,0.458861 0.96875,0.53125 0.2456705,0.07359 0.5306269,0.07673 0.8125,0.09375 -0.038305,0.28281 -0.068712,0.510561 -0.03125,0.84375 0.031009,0.275796 0.1450402,0.516945 0.25,0.71875 0.00821,0.01578 -0.00818,0.04738 0,0.0625 -0.043949,0.305357 -0.060494,0.656515 0,0.9375 -0.029684,-0.137853 0.017737,0.02088 0.03125,0.125 5.947e-4,-0.0042 0.0035,0.07001 0,0.03125 -0.00397,0.02159 -0.033708,0.09426 -0.0625,0.25 -0.1116265,0.603639 -0.1122008,0.873302 -0.125,1.15625 -0.011364,0.251393 0.010496,0.583865 0.0625,0.78125 0.1568477,0.595571 0.6005501,1.081044 1.0625,1.40625 0.2217689,0.156017 0.4771719,0.301475 0.78125,0.40625 0.4528198,0.156145 0.9701065,0.248701 1.5,0.25 0.6994566,0.0013 1.2549496,-0.08355 2.125,-0.28125 1.0090471,-0.229403 1.170127,-0.232221 1.46875,-0.21875 0.26471,0.01186 -0.05289,-0.09087 0.125,0.03125 -0.01055,-0.02012 0.0027,-0.03869 0,0.1875 -0.0043,0.361029 -0.01028,0.600601 0.03125,0.8125 0.09606,0.490122 0.297824,1.005666 0.65625,1.78125 0.360327,0.779717 0.249503,0.266796 0.25,1 3.27e-4,0.458555 -0.007,0.689526 0.0625,0.96875 0.101473,0.40828 0.218356,0.580429 0.375,0.90625 0.156644,0.325821 0.301528,0.644535 0.46875,0.90625 0.38434,0.601504 1.091705,1.019145 1.8125,1.21875 0.871551,0.241226 1.777091,0.205633 2.78125,-0.125 0.478526,-0.157444 0.878331,-0.267288 0.78125,-0.25 -0.117594,0.02047 0.0024,0.0048 0.09375,0 0.09135,-0.0048 0.223043,-0.02886 0.34375,-0.03125 0.410601,-0.0091 0.249134,0.0064 0.5625,0.0625 0.15869,0.02773 0.329211,0.06801 0.46875,0.09375 0.139539,0.02574 0.313524,0.07263 0.1875,0.03125 0.226795,0.07451 0.37071,0.08125 0.65625,0.15625 0.28554,0.075 0.573375,0.147236 0.75,0.1875 0.37016,0.08444 0.802772,0.159546 1.28125,0.1875 0.33136,0.02019 0.867517,0.0069 1.53125,0 0.663733,-0.0069 1.351784,-0.0154 1.78125,-0.03125 1.329657,-0.04714 1.236759,-0.03827 1.875,-0.09375 C 28.305073,46.874263 29.245414,46.752331 30,46.5 c 0.19665,-0.06576 0.374444,-0.140562 0.5625,-0.25 0.188056,-0.109438 0.392392,-0.315484 0.5,-0.46875 0.131269,-0.186636 0.230778,-0.452135 0.28125,-0.65625 0.05047,-0.204115 0.107421,-0.42994 0.1875,-0.8125 0.172526,-0.824235 0.143913,-0.752141 0.40625,-1.09375 0.09595,-0.12494 0.183034,-0.215863 0.4375,-0.375 0.275928,-0.172538 0.475353,-0.250494 1.15625,-0.25 1.210859,8.39e-4 2.144896,0.141684 3.4375,0.5 0.39181,0.108523 0.901593,0.299775 1.625,0.59375 0.54056,0.219651 1.421009,0.666303 1.65625,0.8125 0.09562,0.0594 0.4131,0.247637 0.6875,0.4375 1.52927,1.05803 1.679496,1.157478 2.21875,1.4375 0.845242,0.438928 1.517471,0.657118 2.21875,0.6875 a 1.1054381,1.1054381 0 0 0 0.03125,0 c 0.329236,0.01308 0.721972,0.0149 1.15625,-0.09375 0.41697,-0.105642 0.891027,-0.373933 1.15625,-0.6875 0.168898,-0.199778 0.338211,-0.60178 0.375,-0.75 0.0547,-0.220172 0.0625,-0.450761 0.0625,-0.625 0,-0.01579 5.96e-4,-0.04481 0,-0.0625 0.492837,0.332137 0.948965,0.701093 1.625,0.78125 0.354764,0.04268 0.699625,0.03159 1.0625,0 0.388174,-0.03341 1.010907,-0.297723 1.28125,-0.5625 0.177347,-0.173579 0.408182,-0.533755 0.46875,-0.71875 0.140465,-0.429103 0.09616,-0.815329 0,-1.1875 -0.05942,-0.230244 -0.145673,-0.498222 -0.25,-0.75 0.445522,-0.0052 0.925363,0.06825 1.3125,-0.0625 0.482907,-0.162916 0.954268,-0.448436 1.28125,-0.8125 0.13628,-0.151891 0.32157,-0.446247 0.40625,-0.6875 0.15615,-0.444831 0.174757,-1.018863 0.03125,-1.5 -0.143507,-0.481137 -0.391651,-0.912221 -0.71875,-1.40625 -0.121497,-0.183499 -0.127929,-0.204757 -0.21875,-0.34375 0.204086,-0.04584 0.445963,-0.128318 0.5,-0.15625 0.10512,-0.05381 0.216037,-0.10945 0.34375,-0.1875 -0.03182,0.01941 0.161785,-0.05328 0.40625,-0.125 0.05071,-0.01492 0.20262,-0.05214 0.34375,-0.09375 0.310381,-0.09207 0.676823,-0.29876 0.90625,-0.65625 0.229427,-0.35749 0.267171,-0.7462 0.25,-1.03125 -0.04191,-0.695621 -0.40833,-1.273748 -0.90625,-1.875 0.164784,-0.124023 0.339779,-0.2312 0.46875,-0.34375 0.0081,-0.0071 0.215743,-0.160938 0.625,-0.375 0.242457,-0.126841 0.434846,-0.204658 0.625,-0.34375 0.190154,-0.139092 0.370657,-0.333315 0.46875,-0.46875 0.22153,-0.305594 0.304742,-0.680905 0.34375,-0.875 0.116358,-0.577271 -0.171193,-1.085208 -0.46875,-1.40625 C 58.177137,29.476358 57.936261,29.304422 57.6875,29.125 57.795218,29.006825 57.806684,28.984415 58,28.78125 c 0.162308,-0.170591 0.311772,-0.330895 0.4375,-0.46875 0.125728,-0.137855 0.146934,-0.114546 0.3125,-0.34375 0.44307,-0.61341 0.539046,-1.442361 0.0625,-2.15625 -0.10388,-0.155589 -0.295887,-0.194548 -0.4375,-0.3125 -0.0045,-0.04211 0.06362,-0.152586 0.0625,-0.1875 -0.0049,-0.153941 0.01616,-0.224177 -0.1875,-0.5625 a 1.1054381,1.1054381 0 0 0 0,-0.03125 c -0.0145,-0.02241 -0.07178,-0.06445 -0.09375,-0.09375 0.201061,-0.261414 0.454102,-0.495137 0.59375,-0.78125 0.06413,-0.131447 0.111113,-0.273667 0.15625,-0.40625 C 58.951387,23.304917 59,23.291342 59,22.875 c 0,-0.417806 -0.110413,-0.541469 -0.1875,-0.6875 -0.07709,-0.146031 -0.15788,-0.261729 -0.25,-0.375 -0.304401,-0.374241 -0.746262,-0.641228 -1.34375,-0.90625 -0.0649,-0.02879 -0.04099,-0.0377 -0.09375,-0.0625 0.08462,-0.147515 0.149739,-0.256487 0.28125,-0.46875 0.233541,-0.376972 0.385181,-0.715239 0.5,-1.03125 0.07337,-0.201951 0.168294,-0.778608 0.03125,-1.15625 -0.223391,-0.615338 -0.539673,-0.762248 -0.84375,-0.96875 -0.391134,-0.265615 -0.929724,-0.427301 -1.5625,-0.5 -0.03584,-0.0041 -0.0017,0.0035 -0.03125,0 0.03654,-0.08917 0.05807,-0.149152 0.09375,-0.25 0.07661,-0.216569 0.108313,-0.25355 0.25,-0.46875 0.144876,-0.219956 0.19562,-0.306371 0.28125,-0.5625 0.0074,-0.02211 0.0248,-0.06149 0.0625,-0.25 0.0377,-0.188512 0.02307,-0.417058 0,-0.53125 -0.037,-0.183783 -0.165627,-0.488733 -0.34375,-0.6875 C 55.665627,13.769983 55.503471,13.69501 55.375,13.625 55.124701,13.488793 54.793019,13.396401 54.34375,13.3125 54.124459,13.271623 53.860903,13.215666 53.875,13.21875 l 0,0.03125 c -0.06933,-0.01569 -0.266976,-0.0875 -0.4375,-0.125 0.09654,-0.246282 0.186514,-0.46261 0.25,-0.71875 0.151768,-0.612252 0.248443,-1.286514 0.25,-1.875 C 53.938071,10.310373 53.998453,10.130481 53.84375,9.75 53.689047,9.3695185 53.264112,9.0861468 53.15625,9.03125 53.01743,8.9606697 52.558059,8.8758866 52.3125,8.875 52.125772,8.8744309 51.936708,8.8863366 51.75,8.90625 c 0.272485,-0.3402846 0.537962,-0.6117357 0.6875,-1 0.166628,-0.4326374 0.09341,-1.2245992 -0.28125,-1.625 C 51.722552,5.8177488 51.307253,5.7823664 50.9375,5.75 c -0.07763,-0.0068 -0.170432,0.00219 -0.25,0 0.07085,-0.1162301 0.159371,-0.2126113 0.21875,-0.375 0.109225,-0.2987037 0.08207,-0.8687157 -0.125,-1.21875 C 50.517608,3.7103522 50.243369,3.5936848 49.96875,3.46875 49.694131,3.3438152 49.426252,3.2744884 49.09375,3.25 c -0.741564,-0.054639 -1.448183,0.1469984 -2.25,0.5 -0.07785,0.034232 -0.153775,0.067731 -0.21875,0.09375 -0.03249,0.01301 -0.06299,0.018646 -0.09375,0.03125 -0.01538,0.0063 -0.03589,0.019345 -0.0625,0.03125 -0.01331,0.00595 -0.03315,-0.014964 -0.0625,0 -0.01467,0.00748 -0.03423,0.014609 -0.0625,0.03125 -0.0071,0.00416 -0.01692,0.021432 -0.03125,0.03125 -0.01,0.00584 -0.03322,0.015133 -0.0625,0.03125 -0.05857,0.032234 -0.131242,0.082342 -0.21875,0.125 -0.237903,0.115697 -0.574613,0.2734102 -0.71875,0.34375 -0.03161,0.015421 -0.09143,0.046354 -0.125,0.0625 -0.0164,-0.1514595 0.03351,-0.398477 0,-0.5 C 45.126768,3.8472396 45.052928,3.6830244 44.875,3.46875 44.727401,3.290784 44.493234,3.1144996 44.15625,3 43.289926,2.70453 42.340449,2.7193933 41.28125,2.84375 c -0.668206,0.07851 -1.47333,0.2886891 -2.65625,0.6875 -0.13055,0.044013 -0.371808,0.1147878 -0.5,0.15625 0.105414,-0.090295 0.342828,-0.1890365 0.4375,-0.3125 0.107681,-0.1403374 0.252124,-0.2767185 0.34375,-0.65625 0.09163,-0.3795315 -0.131753,-0.9494667 -0.28125,-1.125 -0.137944,-0.1620892 -0.527149,-0.4356255 -0.8125,-0.5 -0.285351,-0.064375 -0.475062,-0.031791 -0.75,-0.03125 -0.542789,0.001 -0.981066,0.033279 -1.71875,0.1875 -1.092522,0.2282085 -2.410176,0.6990986 -4.6875,1.59375 -0.52604,0.2066521 -0.780381,0.3224487 -1.21875,0.5 C 29.605639,3.0257974 29.769608,2.654488 29.75,2.375 29.735673,2.1674441 29.510939,1.6119896 29.375,1.46875 29.202614,1.2868399 28.929049,1.1309035 28.71875,1.0625 28.508451,0.99409652 28.344217,0.96276017 28.15625,0.9375 z"
       id="path3098"
       style="fill:#000000;fill-opacity:1"
       inkscape:original="M 28 2.03125 C 27.546944 1.9700549 27.071954 2.0144053 26.40625 2.1875 C 25.455911 2.4332795 24.584905 2.7461149 23.90625 3.125 C 23.774187 3.1986839 23.584626 3.3411834 23.46875 3.40625 C 23.072426 3.6288004 22.222441 4.2148203 21.34375 4.90625 C 21.168833 5.0438765 20.979662 5.1874781 20.9375 5.21875 C 20.800708 5.320159 20.378919 5.5000682 19.84375 5.6875 C 18.84011 6.0390096 18.625162 6.1502797 18.1875 6.40625 C 17.751382 6.6613212 17.24259 7.0520232 16.46875 7.71875 C 16.260706 7.8980891 15.962998 8.0779514 15.65625 8.21875 C 15.077959 8.4842119 14.518946 8.8065796 14.15625 9.0625 C 13.731829 9.3619813 13.178124 9.8594958 12.34375 10.71875 C 11.590109 11.494854 11.17654 11.937813 10.65625 12.59375 C 10.479284 12.8168 9.9033462 13.61996 9.6875 13.9375 C 9.4757668 14.248995 9.2509515 14.566246 9.0625 14.8125 C 8.9234712 14.994088 8.8618243 15.093777 8.625 15.375 C 8.557939 15.45468 8.1784336 15.812112 7.8125 16.1875 C 6.8113468 17.214528 6.6470976 17.442918 6.25 18.1875 C 6.15293 18.369586 6.0513137 18.559631 6.03125 18.59375 C 6.011186 18.62797 5.971577 18.71481 5.9375 18.78125 C 5.903423 18.84744 5.7838835 19.006309 5.6875 19.15625 C 5.4230437 19.567481 5.2564493 19.890058 5.1875 20.09375 L 5.125 20.28125 L 5.125 20.65625 C 5.163533 21.806443 5.159997 21.974538 5.125 22.15625 C 5.043329 22.58027 4.88804 22.938258 4.15625 24.3125 C 3.8909482 24.810753 3.4321561 25.738 3.25 26.15625 C 3.1240321 26.445515 2.8801425 27.111957 2.59375 27.84375 C 2.1746412 28.914664 2.0182012 29.469657 2 30.0625 C 1.982941 30.618102 2.03825 30.857462 2.28125 31.09375 C 2.437316 31.245613 2.5271066 31.267519 2.78125 31.34375 C 3.0122158 31.41294 3.2437071 31.43675 3.65625 31.4375 C 3.9685797 31.438 3.9896406 31.44905 4.09375 31.5 C 4.2326915 31.56644 4.277887 31.620116 4.34375 31.75 C 4.418403 31.897368 4.433292 32.225886 4.375 32.65625 C 4.300543 33.205981 4.299202 33.305814 4.5 33.65625 C 4.557693 33.75691 4.6184187 33.856644 4.625 33.90625 C 4.63164 33.9562 4.619028 34.100085 4.59375 34.25 C 4.549905 34.510142 4.5493161 34.63736 4.59375 34.84375 C 4.604775 34.89495 4.615765 35.022617 4.625 35.125 C 4.640121 35.2926 4.622774 35.330218 4.5625 35.65625 C 4.4566712 36.228537 4.4504833 36.400482 4.4375 36.6875 C 4.426717 36.926036 4.428759 36.973211 4.46875 37.125 C 4.54789 37.425505 4.7424244 37.658922 5.09375 37.90625 C 5.318847 38.064608 5.362151 38.096931 5.625 38.1875 C 5.9668924 38.305394 6.3425039 38.374001 6.75 38.375 C 7.3790094 38.3762 7.7807939 38.316832 8.625 38.125 C 9.6665253 37.888213 10.019211 37.857541 10.40625 37.875 C 10.740696 37.88999 10.850349 37.926651 11.09375 38.09375 C 11.49373 38.368129 11.570752 38.500092 11.5625 39.1875 C 11.5585 39.5226 11.56873 39.65359 11.59375 39.78125 C 11.66535 40.146572 11.814321 40.572613 12.15625 41.3125 C 12.518416 42.096196 12.499516 42.06754 12.5 42.78125 C 12.500323 43.233719 12.50415 43.359823 12.53125 43.46875 C 12.59439 43.722797 13.03107 44.626107 13.25 44.96875 C 13.493419 45.349708 13.815189 45.555071 14.40625 45.71875 C 15.105641 45.912326 15.672676 45.886737 16.5625 45.59375 C 17.051393 45.432895 17.372926 45.335129 17.5 45.3125 C 17.57174 45.30001 17.82889 45.28649 18.09375 45.28125 C 18.542786 45.27125 18.594353 45.29354 18.875 45.34375 C 19.186615 45.3982 19.577963 45.464032 19.6875 45.5 C 19.799263 45.53672 20.731449 45.78253 21 45.84375 C 21.319737 45.91669 21.683309 45.976021 22.09375 46 C 22.462641 46.02248 24.500136 45.99873 25.3125 45.96875 C 26.644167 45.92154 26.481393 45.93095 27.125 45.875 C 28.161693 45.78483 29.063251 45.635797 29.65625 45.4375 C 29.983433 45.328098 30.083174 45.260332 30.15625 45.15625 C 30.258846 45.010381 30.274881 44.870628 30.4375 44.09375 C 30.620739 43.218336 30.742055 42.948525 31.0625 42.53125 C 31.240699 42.299208 31.451905 42.112215 31.78125 41.90625 C 32.244491 41.616585 32.740798 41.499426 33.53125 41.5 C 34.828655 41.500899 35.88914 41.654013 37.25 42.03125 C 37.705402 42.157387 38.255173 42.353571 39 42.65625 C 39.614943 42.906126 40.476569 43.334305 40.84375 43.5625 C 40.94308 43.6242 41.259016 43.821263 41.5625 44.03125 C 43.095916 45.092148 43.140081 45.138216 43.65625 45.40625 C 44.433486 45.809863 44.891519 45.945096 45.4375 45.96875 C 45.752014 45.98124 45.97181 45.98367 46.28125 45.90625 C 46.573053 45.83232 46.725465 45.739292 46.875 45.5625 C 46.982273 45.435614 46.998101 45.383556 47.03125 45.25 C 47.05688 45.146843 47.0625 45.052094 47.0625 44.90625 C 47.0625 44.709177 47.06106 44.662429 47 44.5 C 46.9115 44.264711 46.803122 44.135726 46.3125 43.71875 C 45.898327 43.366741 45.63955 43.112998 45.59375 43 C 45.55898 42.91433 45.56337 42.756314 45.59375 42.6875 C 45.62135 42.62506 45.719283 42.564941 45.875 42.5 C 45.977403 42.45729 46.034059 42.45876 46.125 42.46875 C 46.565123 42.51746 46.940409 42.721967 48.21875 43.6875 C 48.772042 44.1054 49.494405 44.482418 49.90625 44.53125 C 50.113891 44.55623 50.464752 44.55608 50.75 44.53125 C 51.054758 44.50502 51.160154 44.461066 51.34375 44.28125 C 51.464714 44.162856 51.49638 44.106505 51.53125 44 C 51.58366 43.839894 51.58244 43.635622 51.53125 43.4375 C 51.46333 43.174336 51.32946 42.785653 51.21875 42.59375 C 51.011546 42.234622 50.85619 41.974614 50.84375 41.90625 C 50.80936 41.717419 50.895946 41.491073 51.03125 41.40625 C 51.13171 41.34331 51.296493 41.33528 51.65625 41.375 C 52.504949 41.46892 52.786688 41.45884 53.3125 41.28125 C 53.689349 41.154114 53.916077 41.013866 54.125 40.78125 C 54.21509 40.68084 54.263746 40.60765 54.3125 40.46875 C 54.498381 39.939225 54.35358 39.474108 53.75 38.5625 C 52.950087 37.354384 52.834274 37.155305 52.8125 36.9375 C 52.80111 36.823103 52.7932 36.810168 52.875 36.71875 C 52.9208 36.66755 53.004829 36.589226 53.0625 36.5625 C 53.16156 36.51654 53.196788 36.52325 53.5 36.53125 C 54.280163 36.55123 54.292538 36.54368 54.4375 36.46875 C 54.50923 36.43203 54.641504 36.359708 54.71875 36.3125 C 54.87972 36.21434 55.114228 36.139007 55.375 36.0625 C 55.47433 36.03328 55.639144 35.99222 55.71875 35.96875 C 56.011761 35.88183 56.111703 35.704282 56.09375 35.40625 C 56.06824 34.982805 55.793123 34.512972 55.15625 33.8125 C 54.850113 33.475802 54.821565 33.387848 54.90625 33.21875 C 54.95665 33.11809 55.053783 33.009679 55.25 32.875 C 55.471647 32.722886 55.910494 32.386631 56.03125 32.28125 C 56.207729 32.127388 56.469381 31.993409 56.875 31.78125 C 57.336693 31.539716 57.423236 31.473528 57.5625 31.28125 C 57.65756 31.150118 57.67947 31.0392 57.71875 30.84375 C 57.74201 30.728353 57.694623 30.582517 57.53125 30.40625 C 57.376023 30.238651 57.239526 30.140309 56.8125 29.84375 C 56.39711 29.555259 56.31087 29.44762 56.3125 29.21875 C 56.3143 28.963005 56.373322 28.886907 57.1875 28.03125 C 57.501052 27.701695 57.799852 27.373271 57.84375 27.3125 C 58.04051 27.040095 58.066132 26.677011 57.90625 26.4375 C 57.753494 26.208706 57.575225 26.112115 57.125 25.90625 C 56.759874 25.73915 56.606503 25.60942 56.5 25.4375 C 56.45062 25.35782 56.43716 25.321187 56.4375 25.25 C 56.438338 25.07216 56.504017 24.929546 56.84375 24.5625 C 57.232047 24.143002 57.593367 23.664662 57.75 23.34375 C 57.82165 23.196882 57.90625 22.958175 57.90625 22.875 C 57.90625 22.77634 57.807581 22.609227 57.71875 22.5 C 57.545858 22.287441 57.336089 22.152354 56.78125 21.90625 C 56.095916 21.602223 55.926557 21.482891 55.84375 21.25 C 55.82025 21.18431 55.8125 21.094471 55.8125 21.0625 C 55.8125 20.892402 56.037966 20.476551 56.46875 19.78125 C 56.639971 19.504873 56.824378 19.108075 56.875 18.96875 C 56.93662 18.799152 56.95991 18.710367 56.90625 18.5625 C 56.8581 18.429869 56.699764 18.281884 56.46875 18.125 C 56.196571 17.940166 55.99368 17.879989 55.40625 17.8125 C 54.95817 17.76105 54.809646 17.734684 54.65625 17.65625 C 54.500247 17.57632 54.418199 17.493819 54.34375 17.375 C 54.220532 17.178427 54.221755 16.942159 54.375 16.5625 C 54.42891 16.42887 54.516218 16.224558 54.5625 16.09375 C 54.65635 15.828438 54.734201 15.667565 54.90625 15.40625 C 54.97041 15.30884 55.040062 15.160865 55.0625 15.09375 C 55.09805 14.987346 55.11348 14.972662 55.09375 14.875 C 55.06775 14.745865 55.011139 14.684968 54.84375 14.59375 C 54.701462 14.51632 54.592272 14.487677 54.15625 14.40625 C 53.968649 14.37128 53.724322 14.334228 53.625 14.3125 C 53.52567 14.29002 53.279445 14.233459 53.0625 14.1875 C 52.384691 14.043879 52.149776 13.954276 52.09375 13.84375 C 52.03276 13.723608 52.113203 13.480487 52.34375 12.9375 C 52.495634 12.579771 52.549143 12.431051 52.625 12.125 C 52.755778 11.597424 52.842563 10.979872 52.84375 10.53125 C 52.84475 10.144322 52.816043 10.112577 52.65625 10.03125 C 52.556032 9.980296 52.52022 9.9695 52.3125 9.96875 C 52.091265 9.9680757 51.192336 10.06733 50.59375 10.15625 C 50.444775 10.17873 50.246908 10.1875 50.15625 10.1875 C 49.966008 10.18755 49.9375 10.161602 49.9375 10 C 49.9375 9.8521327 50.013215 9.6986437 50.125 9.46875 C 50.358496 8.9885241 50.450002 8.829464 50.84375 8.34375 C 51.427904 7.6231215 51.56875 7.2717092 51.34375 7.03125 C 51.177812 6.8539091 50.669427 6.8058401 49.875 6.90625 C 49.250474 6.985179 49.140815 6.988455 49.0625 6.9375 C 48.96284 6.872558 48.926184 6.7878039 48.9375 6.625 C 48.9453 6.5128506 48.96434 6.468613 49.03125 6.34375 C 49.11805 6.1816454 49.332037 5.818658 49.59375 5.4375 C 49.859222 5.0508968 49.936293 4.8751846 49.84375 4.71875 C 49.742292 4.5471539 49.375432 4.3714001 49 4.34375 C 48.461 4.304036 48.027483 4.4214694 47.28125 4.75 C 47.088125 4.834924 46.917287 4.897258 46.90625 4.90625 C 46.8951 4.91624 46.715204 5.0200941 46.5 5.125 C 46.2848 5.2296561 45.983553 5.3852749 45.8125 5.46875 C 45.480169 5.6308546 45.065222 5.8213164 44.53125 6.0625 C 44.349149 6.144676 44.115876 6.2580488 44 6.3125 C 43.884125 6.367201 43.757367 6.420765 43.71875 6.4375 C 43.46389 6.5479009 42.496831 7.0113982 41.84375 7.34375 C 40.809269 7.8701777 40.704744 7.90625 40.625 7.90625 C 40.49902 7.90625 40.493746 7.7421139 40.59375 7.5625 C 40.69057 7.3884062 40.800577 7.2891224 41.5 6.8125 C 42.610954 6.0554293 42.66817 6.0181905 42.90625 5.8125 C 43.738397 5.0935701 44.088162 4.7465598 44.15625 4.5625 C 44.18259 4.491314 44.11805 4.2920312 44.03125 4.1875 C 43.97884 4.124307 43.906595 4.0632214 43.8125 4.03125 C 43.302786 3.857406 42.357219 3.8258502 41.40625 3.9375 C 40.906677 3.996197 40.121313 4.2051736 38.96875 4.59375 C 38.042738 4.9059449 37.238709 5.1384335 35.4375 5.59375 C 34.70732 5.7783344 34.51502 5.8032302 34.375 5.78125 C 34.28934 5.768761 34.28773 5.7679277 34.25 5.6875 C 34.19778 5.57635 34.198125 5.4712576 34.25 5.3125 C 34.388047 4.890104 34.605809 4.6964251 35.65625 4 C 35.814192 3.8953439 36.037699 3.7495292 36.40625 3.53125 C 37.340372 2.9778216 37.562164 2.8509534 37.6875 2.6875 C 37.847913 2.4784376 37.861895 2.40719 37.78125 2.3125 C 37.67199 2.1841152 37.57019 2.1552509 37.0625 2.15625 C 36.575603 2.1571492 36.275769 2.1946336 35.5625 2.34375 C 34.595119 2.5458187 33.324427 2.9863973 31.0625 3.875 C 29.798059 4.3717293 28.716536 4.808378 28.1875 5.0625 C 27.334475 5.4722573 27.020627 5.6469441 26.15625 6.28125 C 25.81527 6.5314755 25.614133 6.6671932 25.53125 6.6875 C 25.46124 6.704984 25.343202 6.668461 25.3125 6.625 C 25.29845 6.605018 25.28113 6.5576986 25.28125 6.5 C 25.281575 6.3601255 25.393018 6.1437869 25.59375 5.90625 C 25.751013 5.720167 25.854089 5.6185633 26.375 5.1875 C 26.899907 4.7531647 27.038129 4.6286164 27.34375 4.3125 C 27.636099 4.0100959 27.677529 3.9552574 28.09375 3.40625 C 28.218252 3.2421472 28.392202 3.0330143 28.46875 2.9375 C 28.632482 2.7331833 28.668923 2.618138 28.65625 2.4375 C 28.64875 2.3288475 28.63148 2.2914347 28.5625 2.21875 C 28.46356 2.1143436 28.330838 2.0757101 28 2.03125 z M 57.28125 25.3125 C 57.2701 25.32499 57.27328 25.36176 57.28125 25.375 C 57.29095 25.38999 57.29919 25.38998 57.3125 25.375 C 57.32365 25.36251 57.32047 25.32574 57.3125 25.3125 C 57.3028 25.29751 57.29456 25.29752 57.28125 25.3125 z "
       inkscape:radius="1.1053276"
       sodipodi:type="inkscape:offset" />
    <path
       inkscape:connector-curvature="0"
       style="fill:#ffffff;fill-opacity:1"
       id="path2989"
       d="m 25.312482,45.96824 c 1.331667,-0.04721 1.162248,-0.03847 1.805855,-0.09442 1.036693,-0.09017 1.93335,-0.248777 2.526349,-0.447074 0.327183,-0.109402 0.429934,-0.164103 0.50301,-0.268185 0.102596,-0.145869 0.139767,-0.275303 0.302386,-1.052181 0.183239,-0.875414 0.292039,-1.154614 0.612484,-1.571889 0.178199,-0.232042 0.402032,-0.425219 0.731377,-0.631184 0.463241,-0.289665 0.954759,-0.403038 1.745211,-0.402464 1.297405,8.99e-4 2.341142,0.149366 3.702002,0.526603 0.455402,0.126137 1.010866,0.324708 1.755693,0.627387 0.614943,0.249876 1.468772,0.665478 1.835953,0.893673 0.09933,0.0617 0.428889,0.28402 0.732373,0.494007 1.533416,1.060898 1.590094,1.097665 2.106263,1.365699 0.777236,0.403613 1.230345,0.549932 1.776326,0.573586 0.314514,0.01249 0.533294,-0.01 0.842734,-0.08742 0.291803,-0.07393 0.433089,-0.154361 0.582624,-0.331153 0.107273,-0.126886 0.128597,-0.16635 0.161746,-0.299906 0.02563,-0.103157 0.03816,-0.225048 0.03816,-0.370892 0,-0.197073 -0.0063,-0.23379 -0.06736,-0.396219 -0.0885,-0.235289 -0.20941,-0.371442 -0.700032,-0.788418 -0.414173,-0.352009 -0.651788,-0.592219 -0.697588,-0.705217 -0.03477,-0.08567 -0.03908,-0.238286 -0.0087,-0.3071 0.0276,-0.06244 0.12724,-0.131632 0.282957,-0.196573 0.102403,-0.04271 0.145729,-0.04995 0.23667,-0.03996 0.440123,0.04871 0.82959,0.2785 2.107931,1.244033 0.553292,0.4179 1.279357,0.768985 1.691202,0.817817 0.207641,0.02498 0.541578,0.02498 0.826826,1.5e-4 0.304758,-0.02623 0.421719,-0.07543 0.605315,-0.255246 0.120964,-0.118394 0.150938,-0.161605 0.185808,-0.26811 0.05241,-0.160106 0.05309,-0.349761 0.0019,-0.547883 -0.06792,-0.263164 -0.220193,-0.651066 -0.330903,-0.842969 -0.207204,-0.359128 -0.351789,-0.64055 -0.364229,-0.708914 -0.03439,-0.188831 0.04166,-0.395046 0.176964,-0.479869 0.10046,-0.06294 0.29064,-0.07244 0.650397,-0.03272 0.848699,0.09392 1.111042,0.07793 1.636854,-0.09966 0.376849,-0.127136 0.612462,-0.271981 0.821385,-0.504597 0.09009,-0.10041 0.125253,-0.160856 0.174007,-0.299756 0.185881,-0.529525 0.04296,-1.022632 -0.56062,-1.93424 -0.799913,-1.208116 -0.912004,-1.402641 -0.933778,-1.620446 -0.01139,-0.114397 -0.01018,-0.118144 0.07162,-0.209562 0.0458,-0.0512 0.130487,-0.114897 0.188158,-0.141623 0.09906,-0.04596 0.122709,-0.04796 0.425921,-0.03996 0.780163,0.01998 0.808127,0.01998 0.953089,-0.05495 0.07173,-0.03672 0.193635,-0.105156 0.270881,-0.152364 0.16097,-0.09816 0.401372,-0.197822 0.662144,-0.274329 0.09933,-0.02922 0.245721,-0.07244 0.325327,-0.09591 0.293011,-0.08692 0.417133,-0.260691 0.39918,-0.558723 -0.02551,-0.423445 -0.295624,-0.881759 -0.932497,-1.582231 -0.306137,-0.336698 -0.349914,-0.436708 -0.265229,-0.605806 0.0504,-0.10066 0.156027,-0.201569 0.352244,-0.336248 0.221647,-0.152114 0.662376,-0.483791 0.783132,-0.589172 0.176479,-0.153862 0.415351,-0.304202 0.82097,-0.516361 0.461693,-0.241534 0.547586,-0.303478 0.68685,-0.495756 0.09506,-0.131132 0.138362,-0.236537 0.177642,-0.431987 0.02326,-0.115397 -0.04422,-0.255571 -0.207593,-0.431838 -0.155227,-0.167599 -0.288363,-0.273604 -0.715389,-0.570163 -0.41539,-0.288491 -0.501133,-0.39572 -0.499503,-0.62459 0.0018,-0.255745 0.06421,-0.340744 0.878388,-1.196401 0.313552,-0.329555 0.606013,-0.648893 0.649911,-0.709664 0.19676,-0.272405 0.221792,-0.619818 0.06191,-0.859329 -0.152756,-0.228794 -0.309409,-0.341818 -0.759634,-0.547683 -0.365126,-0.1671 -0.530562,-0.285844 -0.637065,-0.457764 -0.04938,-0.07968 -0.06511,-0.128135 -0.06477,-0.199322 8.38e-4,-0.17784 0.08105,-0.3061 0.420783,-0.673146 0.388297,-0.419498 0.741456,-0.899368 0.898089,-1.22028 0.07165,-0.146868 0.145438,-0.383606 0.145438,-0.466781 0,-0.09866 -0.07798,-0.281273 -0.166811,-0.3905 -0.172892,-0.212559 -0.381935,-0.344416 -0.936774,-0.59052 -0.685334,-0.304027 -0.857819,-0.424569 -0.940626,-0.65746 -0.0235,-0.06569 -0.04255,-0.145869 -0.04255,-0.17784 0,-0.170098 0.213989,-0.599812 0.644773,-1.295113 0.171221,-0.276377 0.377349,-0.662606 0.427971,-0.801931 0.06162,-0.169598 0.06356,-0.247528 0.0099,-0.395395 -0.04815,-0.132631 -0.206696,-0.297084 -0.43771,-0.453968 -0.272179,-0.184834 -0.44875,-0.236538 -1.03618,-0.304027 -0.44808,-0.05145 -0.601556,-0.08467 -0.754952,-0.163104 -0.156003,-0.07993 -0.248778,-0.159856 -0.323227,-0.278675 -0.123218,-0.196573 -0.110835,-0.434485 0.04241,-0.814144 0.05391,-0.13363 0.135867,-0.349861 0.182149,-0.480669 0.09385,-0.265312 0.17328,-0.422596 0.345329,-0.683911 0.06416,-0.09741 0.135019,-0.232292 0.157457,-0.299407 0.03555,-0.106404 0.0379,-0.136627 0.01817,-0.234289 -0.026,-0.129135 -0.06664,-0.175343 -0.234029,-0.266561 -0.142288,-0.07743 -0.261441,-0.110151 -0.697463,-0.191578 -0.187601,-0.03497 -0.42237,-0.08168 -0.521692,-0.103408 -0.09933,-0.02248 -0.358084,-0.07743 -0.575029,-0.123389 -0.677809,-0.143621 -0.899867,-0.220552 -0.955893,-0.331078 -0.06099,-0.120142 0.0021,-0.367046 0.232647,-0.910033 0.151884,-0.357729 0.200856,-0.500426 0.276713,-0.806477 0.130778,-0.527576 0.216921,-1.16478 0.218108,-1.613402 10e-4,-0.386928 -0.0099,-0.419574 -0.169693,-0.500901 -0.100218,-0.050954 -0.131384,-0.056199 -0.339104,-0.056949 -0.221235,-6.743e-4 -1.129011,0.097413 -1.727597,0.1863327 -0.148975,0.02248 -0.345052,0.04046 -0.43571,0.04046 -0.190242,5e-5 -0.20638,-0.01499 -0.20638,-0.176592 0,-0.147867 0.05265,-0.3256575 0.164435,-0.5555512 C 50.350169,8.9742816 50.449591,8.821194 50.843339,8.33548 51.427493,7.6148515 51.556999,7.2683124 51.331999,7.0278532 51.166061,6.8505123 50.656058,6.8095491 49.861631,6.909959 c -0.624526,0.078929 -0.728014,0.082926 -0.806329,0.031971 -0.09966,-0.064942 -0.132958,-0.1508647 -0.121642,-0.3136686 0.0078,-0.1121494 0.02515,-0.1673498 0.09206,-0.2922128 0.0868,-0.1621046 0.313096,-0.5148131 0.574809,-0.8959711 0.265472,-0.3866032 0.324488,-0.5719369 0.231945,-0.7283715 -0.101458,-0.1715961 -0.470456,-0.3256329 -0.845888,-0.353283 -0.539,-0.039714 -0.956768,0.054201 -1.703001,0.3827316 -0.193125,0.084924 -0.360166,0.1618547 -0.371203,0.1708467 -0.01115,0.00999 -0.196131,0.1019085 -0.411335,0.2068144 -0.2152,0.1046561 -0.531222,0.2587678 -0.702275,0.3422429 -0.332331,0.1621046 -0.730127,0.3473884 -1.264099,0.588572 -0.182101,0.082176 -0.425882,0.1943256 -0.541758,0.2487768 -0.115875,0.054701 -0.242292,0.1128987 -0.280909,0.1296337 -0.25486,0.1104009 -1.212969,0.5774069 -1.86605,0.9097587 -1.034481,0.5264277 -1.134899,0.5738601 -1.214643,0.5738601 -0.12598,0 -0.149824,-0.1651018 -0.04982,-0.3447157 0.09682,-0.1740938 0.213892,-0.269683 0.913315,-0.7463054 1.110954,-0.7570707 1.186539,-0.8110223 1.424619,-1.0167128 0.832147,-0.7189299 1.168903,-1.0567269 1.236991,-1.2407867 0.02634,-0.071186 -0.04754,-0.2860434 -0.13434,-0.3905746 -0.05241,-0.063193 -0.100824,-0.094665 -0.194919,-0.1266364 -0.509714,-0.173844 -1.471657,-0.215057 -2.422626,-0.1034072 -0.499573,0.058697 -1.285341,0.2713565 -2.437904,0.6599329 -0.926012,0.3121949 -1.73024,0.5385168 -3.531449,0.9938333 -0.73018,0.1845844 -0.917124,0.219553 -1.057144,0.1975728 -0.08566,-0.012489 -0.0977,-0.02248 -0.13543,-0.1029077 C 34.190386,5.5798024 34.190246,5.4826396 34.242121,5.323882 34.380168,4.901486 34.605484,4.6893513 35.655925,3.9929262 35.813867,3.8882701 36.029782,3.7556391 36.398333,3.5373599 37.332455,2.9839315 37.54902,2.837388 37.674356,2.6739346 37.834769,2.4648722 37.853331,2.3939608 37.772686,2.2992708 37.663426,2.170886 37.568171,2.1514034 37.060481,2.1524025 c -0.486897,8.992e-4 -0.781578,0.037716 -1.494847,0.1868324 -0.967381,0.2020687 -2.24268,0.6328822 -4.504607,1.5214849 -1.264441,0.4967293 -2.337679,0.9460512 -2.866715,1.2001732 -0.853025,0.4097573 -1.161256,0.5971392 -2.025633,1.2314451 -0.34098,0.2502255 -0.552691,0.3853293 -0.635574,0.4056361 -0.07001,0.017484 -0.204538,-0.017484 -0.23524,-0.060945 -0.01405,-0.019982 -0.02549,-0.083175 -0.02537,-0.1408736 3.25e-4,-0.1398745 0.11905,-0.3628744 0.319782,-0.6004113 0.157263,-0.186083 0.2526,-0.2728801 0.773511,-0.7039434 0.524907,-0.4343353 0.667535,-0.5632196 0.973156,-0.879336 C 27.631293,4.0100608 27.680808,3.9505642 28.097029,3.4015568 28.221531,3.237454 28.386024,3.0248448 28.462572,2.9293305 28.626304,2.7250138 28.67186,2.6089929 28.659187,2.4283549 28.651687,2.3197024 28.641977,2.296723 28.572997,2.2240383 28.474057,2.1196319 28.331941,2.0701763 28.001103,2.0257162 27.548047,1.9645211 27.073272,2.0107296 26.407568,2.1838243 25.457229,2.4296038 24.595852,2.7599574 23.917197,3.1388425 23.785134,3.2125264 23.582275,3.3261744 23.466399,3.391241 23.070075,3.6137914 22.211171,4.2295888 21.33248,4.9210185 21.157563,5.058645 20.979951,5.196871 20.937789,5.2281429 20.800997,5.3295519 20.381815,5.5098652 19.846646,5.697297 18.843006,6.0488066 18.633474,6.1371274 18.195812,6.3930977 17.759694,6.6481689 17.242273,7.0423652 16.468433,7.709092 16.260389,7.8884311 15.957809,8.0764624 15.651061,8.217261 15.07277,8.4827229 14.508877,8.7951673 14.146181,9.0510877 13.72176,9.350569 13.163342,9.8645828 12.328968,10.723837 c -0.753641,0.776104 -1.145498,1.216608 -1.665788,1.872545 -0.176966,0.22305 -0.7696591,1.038893 -0.9855053,1.356433 -0.2117332,0.311495 -0.4395659,0.62901 -0.6280174,0.875264 -0.1390288,0.181588 -0.2015148,0.258593 -0.4383391,0.539816 -0.067061,0.07968 -0.4213316,0.45192 -0.7872652,0.827308 -1.0011532,1.027028 -1.1863302,1.261643 -1.5834278,2.006225 -0.09707,0.182086 -0.1929029,0.358853 -0.2129666,0.392972 -0.020064,0.03422 -0.064359,0.116146 -0.098436,0.182586 -0.034077,0.06619 -0.1408171,0.243032 -0.2372006,0.392973 -0.2644563,0.411231 -0.4391969,0.733542 -0.5081462,0.937234 l -0.062031,0.183335 0.012479,0.372291 c 0.038533,1.150193 0.038977,1.317793 0.00398,1.499505 -0.081671,0.42402 -0.2412522,0.776778 -0.9730422,2.15102 -0.2653018,0.498253 -0.7218144,1.433289 -0.9039705,1.851539 -0.1259679,0.289265 -0.3900147,0.943079 -0.6764072,1.674872 -0.4191088,1.070914 -0.5642075,1.622944 -0.5824087,2.215787 -0.017059,0.555602 0.049737,0.789717 0.292737,1.026005 0.156066,0.151863 0.240043,0.198322 0.4941864,0.274553 0.2309658,0.06919 0.4402218,0.09192 0.8527647,0.09267 0.3123297,5e-4 0.3373214,0.0025 0.4414308,0.05345 0.1389415,0.06644 0.19118,0.116645 0.257043,0.246529 0.074653,0.147368 0.084094,0.480569 0.025802,0.910933 -0.074457,0.549731 -0.060989,0.645695 0.139809,0.996131 0.057693,0.10066 0.1051118,0.21156 0.1116931,0.261166 0.00664,0.04995 -0.00686,0.194825 -0.032138,0.34474 -0.043845,0.260142 -0.043707,0.372716 7.269e-4,0.579106 0.011025,0.0512 0.02759,0.176841 0.036825,0.279224 0.015121,0.1676 0.010129,0.222051 -0.050145,0.548083 -0.1058288,0.572287 -0.128575,0.736789 -0.1415583,1.023807 -0.010783,0.238536 -0.00708,0.288216 0.032911,0.440005 0.07914,0.300505 0.2659854,0.538292 0.617311,0.78562 0.225097,0.158358 0.2907864,0.192078 0.5536354,0.282647 0.3418924,0.117894 0.7192857,0.17759 1.1267818,0.178589 0.6290094,0.0012 1.0318766,-0.05095 1.8760827,-0.242782 1.0415253,-0.236787 1.3679443,-0.286867 1.7549833,-0.269408 0.334446,0.01499 0.465986,0.05645 0.709387,0.223549 0.39998,0.274379 0.458133,0.417151 0.449881,1.104559 -0.004,0.3351 0.0022,0.472152 0.02722,0.599812 0.0716,0.365322 0.225431,0.776453 0.56736,1.51634 0.362166,0.783696 0.353591,0.748278 0.354075,1.461988 3.23e-4,0.452469 0.0067,0.583926 0.0338,0.692853 0.06314,0.254047 0.489962,1.156862 0.708892,1.499505 0.243419,0.380958 0.584419,0.603533 1.17548,0.767212 0.699391,0.193576 1.264833,0.158357 2.154657,-0.13463 0.488893,-0.160855 0.785886,-0.249526 0.91296,-0.272155 0.07174,-0.01249 0.347125,-0.02773 0.611985,-0.03297 0.449036,-0.01 0.501889,-0.0075 0.782536,0.04271 0.311615,0.05445 0.710497,0.140374 0.820034,0.176342 0.111763,0.03672 1.018246,0.270432 1.286797,0.331652 0.319737,0.07294 0.683106,0.121141 1.093547,0.14512 0.368891,0.02248 2.418107,0.01 3.230471,-0.01998 z M 57.306213,25.326535 c -0.0097,-0.01499 -0.02132,-0.01748 -0.03463,-0.0025 -0.01115,0.01249 -0.01357,0.03172 -0.0056,0.04496 0.0097,0.01499 0.02132,0.01748 0.03463,0.0025 0.01115,-0.01249 0.01357,-0.03172 0.0056,-0.04496 z" />
  </g>
  <g
     transform="matrix(0.07672506,0,0,0.07916866,0.11397265,0.05197435)"
     id="text3753"
     style="font-size:110.75949097px;font-style:normal;font-variant:normal;font-weight:normal;font-stretch:normal;text-align:center;line-height:100%;letter-spacing:0px;word-spacing:0px;writing-mode:lr-tb;text-anchor:middle;fill:#000000;stroke:#000000;stroke-width:0.7911393px;stroke-linecap:butt;stroke-linejoin:miter;stroke-opacity:1;font-family:Roadgeek 2005 Series D;-inkscape-font-specification:Roadgeek 2005 Series D">
    <path
       d="m 65.490507,99.604431 -28.35443,-50.284809 0,50.284809 -11.740506,0 0,-74.208859 11.740506,0 27.025316,47.405062 0,-47.405062 11.740506,0 0,74.208859 -10.411392,0"
       id="path3763"
       style="fill:#000000;fill-opacity:1;font-family:Roadgeek 2005 Series D;-inkscape-font-specification:Roadgeek 2005 Series D"
       inkscape:connector-curvature="0" />
  </g>
  <g
     transform="matrix(0.07672507,0,0,0.07916866,13.851001,0.05195067)"
     id="text3757"
     style="font-size:110.75949097px;font-style:normal;font-variant:normal;font-weight:normal;font-stretch:normal;text-align:center;line-height:100%;letter-spacing:0px;word-spacing:0px;writing-mode:lr-tb;text-anchor:middle;fill:#000000;stroke:#000000;stroke-width:0.7911393px;stroke-linecap:butt;stroke-linejoin:miter;stroke-opacity:1;font-family:Roadgeek 2005 Series D;-inkscape-font-specification:Roadgeek 2005 Series D">
    <path
       d="m 574.60489,62.389242 c -6e-5,7.457836 -1.14457,14.029559 -3.43354,19.71519 -2.21524,5.611826 -5.42727,10.042201 -9.63608,13.291138 -1.40299,1.329117 -3.06439,2.325952 -4.98417,2.990507 -1.84603,0.664557 -3.72894,1.070675 -5.64874,1.218354 l -4.20886,0 -22.59493,0 0,-74.208859 23.92405,0 c 1.84595,7.4e-5 3.4335,0.07391 4.76265,0.221519 1.40292,0.07391 2.65819,0.258513 3.76583,0.553798 1.10755,0.295431 2.10438,0.701549 2.9905,1.218354 0.88603,0.516949 1.84595,1.144586 2.87975,1.882911 3.91345,3.396692 6.90395,7.937826 8.97152,13.623418 2.14129,5.611865 3.21196,12.109749 3.21202,19.49367 m -11.96202,0 c -5e-5,-5.021055 -0.55385,-9.48835 -1.66139,-13.401898 -1.0338,-3.913448 -2.47368,-6.830111 -4.31962,-8.75 -0.95996,-0.886016 -2.06755,-1.624412 -3.32279,-2.21519 -1.25531,-0.590655 -2.65826,-0.886013 -4.20886,-0.886076 l -13.29114,0 0,50.506328 11.74051,0 c 1.9198,1.2e-5 3.50735,-0.221507 4.76266,-0.664557 1.32907,-0.443025 2.51051,-1.181421 3.5443,-2.21519 2.21515,-2.215172 3.87654,-5.242595 4.98418,-9.082278 1.18138,-3.913474 1.7721,-8.343849 1.77215,-13.291139"
       id="path3766"
       style="fill:#000000;fill-opacity:1;font-family:Roadgeek 2005 Series D;-inkscape-font-specification:Roadgeek 2005 Series D"
       inkscape:connector-curvature="0" />
  </g>
  <text
     xml:space="preserve"
     style="font-size:32px;font-style:normal;font-variant:normal;font-weight:normal;font-stretch:normal;text-align:center;line-height:125%;letter-spacing:0px;word-spacing:0px;writing-mode:lr;text-anchor:middle;fill:#000000;fill-opacity:1;stroke:none;font-family:Roadgeek 2005 Series D;-inkscape-font-specification:Roadgeek 2005 Series D"
     x="31"
     y="37"
     id="text3062"
     sodipodi:linespacing="125%"><tspan
       sodipodi:role="line"
       id="tspan3234">%num%</tspan></text>
</svg>
