<?xml version="1.0" encoding="UTF-8" standalone="no"?>
<!-- Created with Inkscape (http://www.inkscape.org/) -->

<svg
   xmlns:dc="http://purl.org/dc/elements/1.1/"
   xmlns:cc="http://creativecommons.org/ns#"
   xmlns:rdf="http://www.w3.org/1999/02/22-rdf-syntax-ns#"
   xmlns:svg="http://www.w3.org/2000/svg"
   xmlns="http://www.w3.org/2000/svg"
   xmlns:sodipodi="http://sodipodi.sourceforge.net/DTD/sodipodi-0.dtd"
   xmlns:inkscape="http://www.inkscape.org/namespaces/inkscape"
   version="1.0"
   width="60"
   height="48"
   id="svg2"
   inkscape:version="0.48.1 r9760"
   sodipodi:docname="US:NY-SMP.svg">
  <metadata
     id="metadata3306">
    <rdf:RDF>
      <cc:Work
         rdf:about="">
        <dc:format>image/svg+xml</dc:format>
        <dc:type
           rdf:resource="http://purl.org/dc/dcmitype/StillImage" />
      </cc:Work>
    </rdf:RDF>
  </metadata>
  <sodipodi:namedview
     pagecolor="#ffffff"
     bordercolor="#666666"
     borderopacity="1"
     objecttolerance="10"
     gridtolerance="10"
     guidetolerance="10"
     inkscape:pageopacity="0"
     inkscape:pageshadow="2"
     inkscape:window-width="1278"
     inkscape:window-height="996"
     id="namedview3304"
     showgrid="true"
     inkscape:showpageshadow="false"
     inkscape:zoom="16.895833"
     inkscape:cx="30"
     inkscape:cy="24"
     inkscape:window-x="1"
     inkscape:window-y="27"
     inkscape:window-maximized="0"
     inkscape:current-layer="svg2">
    <inkscape:grid
       type="xygrid"
       id="grid3525"
       empspacing="5"
       visible="true"
       enabled="true"
       snapvisiblegridlinesonly="true" />
  </sodipodi:namedview>
  <defs
     id="defs4" />
  <path
     d="M 29.999999,1 C 25.066837,1 20.829935,1.7378814 16.238914,4.4269089 11.664806,7.1061181 7.2054518,8.5247815 1,8.5247815 L 1,35.649914 c 0,2.40974 0.00463,2.410773 1.5635114,3.629207 C 5.2873324,41.408539 29.999999,47 29.999999,47 c 0,0 24.712669,-5.591461 27.436494,-7.720879 C 58.995378,38.060687 59,38.059654 59,35.649914 L 59,8.5247815 c -6.205447,0 -10.664809,-1.4186634 -15.238912,-4.0978726 C 39.170065,1.7378814 34.933161,1 29.999999,1 z"
     id="rect4804"
     style="fill:#006b54;stroke:none"
     inkscape:connector-curvature="0" />
  <path
     d="m 16.327024,14.943003 c -9e-6,0.459885 -0.111176,0.893673 -0.333516,1.301111 -0.222351,0.399167 -0.521661,0.707393 -0.897929,0.924159 -0.256557,0.157599 -0.590073,0.277738 -1.000548,0.364289 -0.410486,0.08784 -0.820967,0.131764 -1.231445,0.131764 -0.48745,0 -0.957793,-0.06459 -1.411029,-0.196354 -0.453243,-0.139517 -0.868,-0.338195 -1.244271,-0.598625 C 10.071459,16.791843 9.9431806,16.703996 9.8234591,16.609179 9.7122856,16.51358 9.5583549,16.374067 9.361666,16.1927 l 1.205791,-1.223085 c 0.359168,0.338453 0.718339,0.581312 1.077513,0.728838 0.36772,0.147265 0.803855,0.222192 1.308409,0.222192 0.495994,0 0.897923,-0.0827 1.20579,-0.248028 0.316407,-0.165352 0.474613,-0.399169 0.474619,-0.702485 -6e-6,-0.121432 -0.03421,-0.258363 -0.102621,-0.403303 -0.06842,-0.147267 -0.162489,-0.26017 -0.282207,-0.338197 -0.07697,-0.04392 -0.158211,-0.08268 -0.243723,-0.118846 -0.08552,-0.04392 -0.192421,-0.08268 -0.320689,-0.118845 -0.119729,-0.03617 -0.273659,-0.06976 -0.461792,-0.105927 -0.179591,-0.04392 -0.410485,-0.09043 -0.692686,-0.144684 -0.461795,-0.113678 -0.833794,-0.217021 -1.115996,-0.312359 -0.28221,-0.105927 -0.513105,-0.21444 -0.692689,-0.338453 -0.29076,-0.201523 -0.521654,-0.472543 -0.692687,-0.819783 -0.1624827,-0.346978 -0.2437237,-0.702483 -0.2437237,-1.067031 -10e-7,-0.442575 0.1026212,-0.854405 0.3078617,-1.2362611 0.213791,-0.3816019 0.5131,-0.6851763 0.897928,-0.9109828 0.239446,-0.1472663 0.504547,-0.2557784 0.795307,-0.3252789 0.290755,-0.06976 0.628547,-0.1059273 1.013377,-0.1059273 0.487441,0 0.949232,0.056846 1.385375,0.1705208 0.444681,0.1136787 0.846611,0.281873 1.205789,0.507421 0.09406,0.062005 0.171028,0.1188464 0.230896,0.1705176 0.0684,0.043922 0.171028,0.1214312 0.307861,0.235111 l -1.051858,1.3664727 c -0.350625,-0.260422 -0.692693,-0.442569 -1.026203,-0.546688 -0.333522,-0.105927 -0.70552,-0.1576 -1.115997,-0.1576 -0.393381,0 -0.705519,0.06976 -0.936411,0.209274 -0.222346,0.139515 -0.333519,0.347238 -0.333516,0.624717 -3e-6,0.103343 0.02993,0.214442 0.08979,0.325536 0.05986,0.105927 0.141101,0.17827 0.243723,0.219609 0.07696,0.04392 0.158204,0.0775 0.243724,0.103342 0.08551,0.02584 0.175307,0.04392 0.269378,0.0775 l 0.269379,0.02584 0.307861,0.06459 0.384826,0.06459 c 1.009094,0.183436 1.770194,0.512073 2.283303,0.989267 0.513094,0.46841 0.769644,1.088476 0.769653,1.860461"
     id="text1352"
     style="fill:#ffffff;stroke:none"
     inkscape:connector-curvature="0" />
  <path
     d="m 22.296391,29.442001 0,-4.736803 -2.29613,4.736803 -2.34744,-4.736803 0,4.736803 -1.693236,0 0,-8.744509 1.693236,0 2.34744,4.801652 2.29613,-4.801652 1.680408,0 0,8.744509 -1.680408,0"
     id="text2229"
     style="fill:#ffffff;stroke:none"
     inkscape:connector-curvature="0" />
  <path
     d="m 29.628109,35.282783 c -9e-6,0.503288 -0.119716,0.971698 -0.35917,1.405486 -0.239457,0.425006 -0.564421,0.750541 -0.974893,0.976092 -0.128269,0.06976 -0.252273,0.131764 -0.371997,0.183436 -0.111188,0.04392 -0.230904,0.0775 -0.359172,0.105927 -0.119716,0.02584 -0.256563,0.04651 -0.410483,0.06459 -0.145401,0 -0.316418,0.02584 -0.5131,0.02584 l -2.25765,0 0,3.278866 -1.693234,0 0,-8.744507 4.040672,0 c 0.359167,0 0.649924,0.02584 0.872276,0.0775 0.22235,0.05168 0.453233,0.147266 0.692688,0.286264 0.410472,0.24286 0.735434,0.57253 0.974893,0.989009 0.239457,0.416479 0.359161,0.87197 0.35917,1.366475 m -1.693233,0 c -8e-6,-0.277738 -0.1026,-0.507679 -0.30786,-0.689566 -0.196702,-0.191187 -0.457523,-0.286265 -0.782485,-0.286265 l -2.462887,0 0,1.977759 2.462887,0 c 0.333509,0 0.598612,-0.09043 0.795312,-0.273088 0.196693,-0.183438 0.295025,-0.425264 0.295033,-0.728839"
     id="text2233"
     style="fill:#ffffff;stroke:none"
     inkscape:connector-curvature="0" />
  <path
     d="m 20.938836,16.046724 0,-0.139516 c -0.19963,0.08268 -0.393555,0.134347 -0.581772,0.1576 -0.188224,0.02842 -0.362183,0.04392 -0.521883,0.04392 -0.233852,0 -0.447737,-0.03617 -0.641659,-0.103342 -0.193924,-0.06976 -0.362182,-0.167936 -0.504771,-0.295047 -0.142593,-0.129184 -0.253817,-0.27774 -0.333664,-0.451101 -0.07414,-0.180854 -0.111222,-0.373333 -0.111222,-0.581315 0,-0.222189 0.04278,-0.422678 0.128334,-0.607665 0.09125,-0.186022 0.213885,-0.344397 0.367884,-0.477453 0.153997,-0.139514 0.336513,-0.248026 0.547549,-0.320884 0.211034,-0.08267 0.439178,-0.12143 0.684437,-0.12143 0.119773,0 0.268068,0 0.444884,0.03617 0.176811,0.02584 0.350769,0.06718 0.521883,0.131764 -0.01142,-0.204105 -0.08555,-0.34724 -0.222445,-0.434047 -0.136888,-0.09301 -0.310851,-0.139516 -0.521882,-0.139516 -0.399257,0 -0.79566,0.111095 -1.189208,0.329927 l -0.419218,-0.920025 c 0.153997,-0.08267 0.296587,-0.149851 0.427772,-0.209273 0.136886,-0.05942 0.26807,-0.105927 0.393552,-0.139516 0.131181,-0.03617 0.259514,-0.06201 0.384994,-0.0775 0.125479,-0.02584 0.259514,-0.02584 0.402108,-0.02584 0.576064,0 1.023799,0.144681 1.343206,0.434048 0.325103,0.283421 0.487657,0.723152 0.487661,1.319193 l 0,2.594726 -1.086541,0 m 0,-1.709321 c -0.171115,-0.06459 -0.347927,-0.111094 -0.530439,-0.139515 -0.176817,-0.03617 -0.322259,-0.05166 -0.436329,-0.05166 -0.18252,0 -0.336517,0.04649 -0.461995,0.139513 -0.119777,0.08784 -0.179663,0.19894 -0.179661,0.329927 -1e-6,0.13435 0.07414,0.248029 0.222445,0.346982 0.148291,0.09817 0.322252,0.147264 0.521882,0.147264 0.119774,0 0.250954,-0.02584 0.39355,-0.04392 0.148293,-0.02842 0.305142,-0.09043 0.470552,-0.183437 l 0,-0.546435 m 7.352877,1.709321 -1.103655,0 -0.521881,-2.099963 -0.667322,2.099963 -1.103656,0 -1.20632,-4.243849 1.163542,0 0.590328,2.022197 0.581768,-2.022197 1.249096,0 0.49622,1.996361 0.564659,-1.996361 1.189205,0 -1.231984,4.243849"
     id="text2239"
     style="fill:#ffffff;stroke:none"
     inkscape:connector-curvature="0" />
  <path
     d="m 26.965905,22.661558 c -2e-6,0.152432 -0.05421,0.283422 -0.162558,0.399168 -0.108344,0.116263 -0.242402,0.175686 -0.402104,0.175686 -0.148294,0 -0.27663,-0.05942 -0.384995,-0.175686 -0.108346,-0.116263 -0.162558,-0.248027 -0.162558,-0.399168 -2e-6,-0.167936 0.05421,-0.303576 0.162558,-0.407954 0.108347,-0.111095 0.236719,-0.165351 0.384995,-0.165351 0.159715,0 0.29373,0.05425 0.402104,0.165351 0.108347,0.105927 0.162558,0.240276 0.162558,0.407954 m -1.129317,5.346536 0,-4.244366 1.146426,0 0,4.244366 -1.146426,0 m 3.442234,0 0,-5.467967 1.146428,-0.451099 0,5.919066 -1.146428,0 m 3.442235,0 0,-5.467967 1.146431,-0.451099 0,5.919066 -1.146431,0"
     id="text3116"
     style="fill:#ffffff;stroke:none"
     inkscape:connector-curvature="0" />
  <path
     d="m 34.101893,36.862147 1.163539,2.942223 -1.163539,0 -0.761439,-1.961482 -0.667324,0.676908 0,1.284574 -1.146433,0 0,-5.467966 1.146433,-0.451099 0,2.881507 1.206318,-1.188981 1.42876,0 -1.206315,1.284316 m 6.950772,2.942223 -1.103653,0 -0.521885,-2.100222 -0.667327,2.100222 -1.103655,0 -1.206319,-4.244108 1.163541,0 0.59033,2.022457 0.581771,-2.022457 1.249095,0 0.496217,1.996361 0.564662,-1.996361 1.189205,0 -1.231982,4.244108 m 4.703224,1.631553 -1.146432,0 0.68444,-1.692269 -1.97631,-4.183392 1.308983,0 1.146433,2.812009 1.146432,-2.812009 1.206314,0 -2.36986,5.875661"
     id="text3120"
     style="fill:#ffffff;stroke:none"
     inkscape:connector-curvature="0" />
</svg>
