<?xml version="1.0" encoding="UTF-8" standalone="no"?>
<!-- Generator: Adobe Illustrator 12.0.0, SVG Export Plug-In . SVG Version: 6.00 Build 51448)  -->

<svg
   xmlns:dc="http://purl.org/dc/elements/1.1/"
   xmlns:cc="http://creativecommons.org/ns#"
   xmlns:rdf="http://www.w3.org/1999/02/22-rdf-syntax-ns#"
   xmlns:svg="http://www.w3.org/2000/svg"
   xmlns="http://www.w3.org/2000/svg"
   xmlns:sodipodi="http://sodipodi.sourceforge.net/DTD/sodipodi-0.dtd"
   xmlns:inkscape="http://www.inkscape.org/namespaces/inkscape"
   version="1.1"
   id="Layer_1"
   width="48"
   height="48"
   viewBox="0 0 48 48"
   overflow="visible"
   enable-background="new 0 0 600 600"
   xml:space="preserve"
   sodipodi:version="0.32"
   inkscape:version="0.48.1 r9760"
   sodipodi:docname="US:NH_suffix_3.svg"
   inkscape:output_extension="org.inkscape.output.svg.inkscape"
   style="overflow:visible"><metadata
   id="metadata2242"><rdf:RDF><cc:Work
       rdf:about=""><dc:format>image/svg+xml</dc:format><dc:type
         rdf:resource="http://purl.org/dc/dcmitype/StillImage" /><dc:title></dc:title></cc:Work></rdf:RDF></metadata><defs
   id="defs2240"><inkscape:perspective
     sodipodi:type="inkscape:persp3d"
     inkscape:vp_x="0 : 300 : 1"
     inkscape:vp_y="0 : 1000 : 0"
     inkscape:vp_z="600 : 300 : 1"
     inkscape:persp3d-origin="300 : 200 : 1"
     id="perspective15" /><inkscape:perspective
     id="perspective3050"
     inkscape:persp3d-origin="0.5 : 0.33333333 : 1"
     inkscape:vp_z="1 : 0.5 : 1"
     inkscape:vp_y="0 : 1000 : 0"
     inkscape:vp_x="0 : 0.5 : 1"
     sodipodi:type="inkscape:persp3d" /><inkscape:perspective
     id="perspective3298"
     inkscape:persp3d-origin="0.5 : 0.33333333 : 1"
     inkscape:vp_z="1 : 0.5 : 1"
     inkscape:vp_y="0 : 1000 : 0"
     inkscape:vp_x="0 : 0.5 : 1"
     sodipodi:type="inkscape:persp3d" /><inkscape:perspective
     id="perspective2974"
     inkscape:persp3d-origin="0.5 : 0.33333333 : 1"
     inkscape:vp_z="1 : 0.5 : 1"
     inkscape:vp_y="0 : 1000 : 0"
     inkscape:vp_x="0 : 0.5 : 1"
     sodipodi:type="inkscape:persp3d" /><inkscape:perspective
     id="perspective2985"
     inkscape:persp3d-origin="0.5 : 0.33333333 : 1"
     inkscape:vp_z="1 : 0.5 : 1"
     inkscape:vp_y="0 : 1000 : 0"
     inkscape:vp_x="0 : 0.5 : 1"
     sodipodi:type="inkscape:persp3d" /><inkscape:perspective
     id="perspective3199"
     inkscape:persp3d-origin="0.5 : 0.33333333 : 1"
     inkscape:vp_z="1 : 0.5 : 1"
     inkscape:vp_y="0 : 1000 : 0"
     inkscape:vp_x="0 : 0.5 : 1"
     sodipodi:type="inkscape:persp3d" /></defs><sodipodi:namedview
   inkscape:window-height="996"
   inkscape:window-width="1278"
   inkscape:pageshadow="2"
   inkscape:pageopacity="0.0"
   guidetolerance="10.0"
   gridtolerance="10.0"
   objecttolerance="10.0"
   borderopacity="1.0"
   bordercolor="#666666"
   pagecolor="#ffffff"
   id="base"
   inkscape:zoom="16.895833"
   inkscape:cx="24"
   inkscape:cy="24"
   inkscape:window-x="1"
   inkscape:window-y="27"
   inkscape:current-layer="Layer_1"
   showgrid="true"
   inkscape:showpageshadow="false"
   showborder="true"
   inkscape:window-maximized="0"
   borderlayer="false"><inkscape:grid
     type="xygrid"
     id="grid2998"
     empspacing="5"
     visible="true"
     enabled="true"
     snapvisiblegridlinesonly="true"
     spacingx="1px"
     spacingy="1px" /></sodipodi:namedview>



<g
   id="g3060"><path
     transform="matrix(0.99448111,0,0,0.99448111,0.13507791,0.13507791)"
     d="M 16.84375,0.875 A 1.1359161,1.1359161 0 0 0 16.25,1.1875 L 16.09375,1.34375 16.03125,1.375 a 1.1359161,1.1359161 0 0 0 -0.1875,0.09375 L 15.6875,1.59375 15.53125,1.6875 15.4375,1.71875 A 1.1359161,1.1359161 0 0 0 15.25,1.84375 1.1359161,1.1359161 0 0 0 15.21875,1.875 l -0.03125,0.03125 -0.03125,0 L 15,1.875 a 1.1359161,1.1359161 0 0 0 -0.28125,0 l -0.125,0.03125 -0.09375,0 -0.46875,0.03125 A 1.1359161,1.1359161 0 0 0 13.4375,2.125 L 13.125,2.34375 A 1.1359161,1.1359161 0 0 0 13.03125,2.4375 L 12.8125,2.65625 12.75,2.6875 l -0.125,0.03125 0,-0.03125 -0.21875,0.0625 -0.09375,0 -0.09375,0.03125 -0.125,0 -0.1875,0 -0.09375,0 -0.75,-0.1875 a 1.1359161,1.1359161 0 0 0 -1,0.21875 L 9.84375,2.96875 9.53125,3.1875 9.40625,3.25 9.21875,3.34375 9.0625,3.40625 9,3.4375 8.625,3.53125 8.21875,3.5625 l -0.0625,0 -0.125,-0.03125 -0.09375,0 L 7.78125,3.5 7.6875,3.46875 7.46875,3.40625 7.15625,3.3125 A 1.1359161,1.1359161 0 0 0 6.1875,3.46875 1.1359161,1.1359161 0 0 0 6.09375,3.53125 L 5.9375,3.5625 l 0,0.03125 -0.3125,0.0625 a 1.1359161,1.1359161 0 0 0 -0.03125,0 L 5.21875,3.75 4.625,3.90625 a 1.1359161,1.1359161 0 0 0 -0.03125,0 L 4.3125,3.96875 4.25,4 4.03125,4 A 1.1359161,1.1359161 0 0 0 3.4375,4.21875 l -0.25,0.1875 -0.03125,0.03125 -0.375,0.25 A 1.1359161,1.1359161 0 0 0 2.59375,4.875 L 2.375,5.125 2.09375,5.4375 A 1.1359161,1.1359161 0 0 0 2.03125,5.5 L 1.8125,5.78125 A 1.1359161,1.1359161 0 0 0 1.6875,6 l 0,0.03125 a 1.1359161,1.1359161 0 0 0 -0.5,0.5625 L 1.125,6.6875 A 1.1359161,1.1359161 0 0 0 0.9375,7.09375 L 0.875,7.4375 a 1.1359161,1.1359161 0 0 0 0,0.21875 l 0,0.15625 0,0.25 a 1.1359161,1.1359161 0 0 0 0,0.09375 l 0.03125,0.28125 0,0.09375 0,0.125 A 1.1359161,1.1359161 0 0 0 1,9.125 l 0.0625,0.125 0.0625,0.15625 0,0.0625 a 1.1359161,1.1359161 0 0 0 0.0625,0.1875 l 0.09375,0.1875 A 1.1359161,1.1359161 0 0 0 1.21875,10.375 L 1.25,10.6875 a 1.1359161,1.1359161 0 0 0 0.03125,0.125 l 0.125,0.53125 a 1.1359161,1.1359161 0 0 0 0,0.03125 l 0.125,0.46875 A 1.1359161,1.1359161 0 0 0 1.5625,11.9375 l 0.21875,0.625 a 1.1359161,1.1359161 0 0 0 0.875,0.75 L 2.8125,13.34375 2.71875,13.5 A 1.1359161,1.1359161 0 0 0 2.6875,13.625 L 2.53125,14.0625 2.21875,14.625 A 1.1359161,1.1359161 0 0 0 2.1875,14.71875 l -0.15625,0.3125 0,0.03125 -0.25,0.46875 A 1.1359161,1.1359161 0 0 0 1.75,15.625 l -0.125,0.3125 -0.21875,0.375 A 1.1359161,1.1359161 0 0 0 1.3125,16.46875 L 1.15625,16.875 a 1.1359161,1.1359161 0 0 0 -0.0625,0.40625 l 0,0.25 a 1.1359161,1.1359161 0 0 0 -0.0625,0.40625 l 0,0.1875 0,0.15625 a 1.1359161,1.1359161 0 0 0 0.09375,0.5 l 0.0625,0.125 a 1.1359161,1.1359161 0 0 0 1,0.71875 l 0.0625,0 0.25,0.09375 a 1.1359161,1.1359161 0 0 0 0.03125,0 l 0.4375,0.125 A 1.1359161,1.1359161 0 0 0 3.125,19.875 1.1359161,1.1359161 0 0 0 2.96875,20.3125 L 2.9375,20.53125 a 1.1359161,1.1359161 0 0 0 0,0.03125 L 2.90625,20.875 a 1.1359161,1.1359161 0 0 0 0.28125,0.875 1.1359161,1.1359161 0 0 0 -0.5,0.75 l -0.625,3.71875 a 1.1359161,1.1359161 0 0 0 0,0.3125 l 0.03125,0.3125 a 1.1359161,1.1359161 0 0 0 0.0625,0.21875 L 2.25,27.34375 a 1.1359161,1.1359161 0 0 0 0.0625,0.21875 l 0.125,0.21875 a 1.1359161,1.1359161 0 0 0 0.125,0.15625 l 0.125,0.15625 a 1.1359161,1.1359161 0 0 0 0.46875,0.34375 l 0.21875,0.125 0.21875,0.125 a 1.1359161,1.1359161 0 0 0 0.5625,0.125 l 2.75,0 -0.15625,1.3125 0,0.03125 -0.03125,0.21875 -0.03125,0.09375 -0.09375,0.3125 -0.03125,0 L 6.40625,31.1875 6.375,31.25 6.25,31.40625 A 1.1359161,1.1359161 0 0 0 6.125,31.625 L 6.09375,31.71875 6.0625,31.75 5.875,32.0625 l 0.03125,0 -0.1875,0.28125 A 1.1359161,1.1359161 0 0 0 5.59375,32.625 L 5.5,32.90625 A 1.1359161,1.1359161 0 0 0 5.4375,33.25 l 0,0.0625 -0.0625,0.3125 a 1.1359161,1.1359161 0 0 0 0,0.21875 l 0,0.3125 0,0.21875 0,0.25 0,0.34375 0,0.09375 -0.09375,0.375 A 1.1359161,1.1359161 0 0 0 5.25,35.46875 L 5.15625,35.90625 5.125,35.96875 4.96875,36.25 3.875,38.3125 a 1.1359161,1.1359161 0 0 0 -0.03125,0.09375 l -1.1875,2.78125 a 1.1359161,1.1359161 0 0 0 -0.0625,0.09375 l -0.125,0.40625 a 1.1359161,1.1359161 0 0 0 0,0.0625 l -0.125,0.5 A 1.1359161,1.1359161 0 0 0 2.3125,42.28125 l -0.09375,0.4375 a 1.1359161,1.1359161 0 0 0 0,0.3125 L 2.25,43.625 a 1.1359161,1.1359161 0 0 0 0,0.125 l 0.09375,0.53125 A 1.1359161,1.1359161 0 0 0 2.4375,44.5625 l 0.21875,0.46875 a 1.1359161,1.1359161 0 0 0 0,0.03125 L 2.875,45.5 a 1.1359161,1.1359161 0 0 0 0.15625,0.21875 l 0.25,0.3125 A 1.1359161,1.1359161 0 0 0 3.3125,46.0625 l 0.28125,0.3125 a 1.1359161,1.1359161 0 0 0 0.1875,0.15625 l 0.34375,0.25 a 1.1359161,1.1359161 0 0 0 0.3125,0.15625 l 0.375,0.125 a 1.1359161,1.1359161 0 0 0 0.34375,0.0625 l 0.59375,0 38.34375,0 c 1.66493,0 3.03125,-1.366233 3.03125,-3.03125 l 0,-40.1875 C 47.125,2.2412649 45.758734,0.875 44.09375,0.875 l -27.03125,0 a 1.1359161,1.1359161 0 0 0 -0.21875,0 z"
     id="path3058"
     style="fill:#000000;fill-rule:evenodd"
     inkscape:original="M 17.0625 2 L 16.78125 2.28125 L 16.5 2.40625 L 16.1875 2.625 L 15.9375 2.75 L 15.78125 2.875 L 15.375 3.03125 L 15.15625 3.03125 L 14.875 3 L 14.65625 3.03125 L 14.09375 3.0625 L 13.78125 3.28125 L 13.5 3.53125 L 13.34375 3.6875 L 13.125 3.75 L 12.84375 3.8125 L 12.53125 3.875 L 12.21875 3.90625 L 11.90625 3.90625 L 11.65625 3.90625 L 10.78125 3.6875 L 10.46875 3.9375 L 10.03125 4.21875 L 9.71875 4.375 L 9.375 4.5 L 8.84375 4.65625 L 8.09375 4.6875 L 7.8125 4.65625 L 7.46875 4.59375 L 7.15625 4.5 L 6.84375 4.40625 L 6.78125 4.5 L 6.28125 4.65625 L 5.875 4.75 L 5.5 4.84375 L 4.90625 5 L 4.5625 5.09375 L 4.125 5.125 L 3.84375 5.34375 L 3.4375 5.625 L 3.21875 5.875 L 2.9375 6.1875 L 2.71875 6.46875 L 2.5625 6.8125 L 2.40625 6.9375 L 2.21875 7.03125 L 2.1875 7.125 L 2.0625 7.3125 L 2 7.65625 L 2 7.8125 L 2 8.0625 L 2.03125 8.4375 L 2.03125 8.65625 L 2.15625 8.9375 L 2.21875 9.15625 L 2.34375 9.40625 L 2.53125 9.75 L 2.53125 9.78125 L 2.34375 10.25 L 2.375 10.5625 L 2.5 11.09375 L 2.625 11.5625 L 2.84375 12.1875 L 4.15625 12.40625 L 4.0625 13.375 L 3.75 14 L 3.53125 14.625 L 3.21875 15.1875 L 3.0625 15.53125 L 2.8125 16.03125 L 2.6875 16.34375 L 2.375 16.875 L 2.21875 17.28125 L 2.21875 17.78125 L 2.15625 17.9375 L 2.15625 18.125 L 2.15625 18.28125 L 2.21875 18.40625 L 2.25 18.5 L 2.4375 18.5 L 2.84375 18.625 L 3.28125 18.75 L 4.03125 18.78125 L 4.65625 18.9375 L 4.65625 19.09375 L 4.53125 19.46875 L 4.375 19.71875 L 4.3125 20.03125 L 4.25 20.28125 L 4.09375 20.46875 L 4.0625 20.6875 L 4.03125 21 L 5.0625 21.875 L 3.8125 22.6875 L 3.1875 26.40625 L 3.21875 26.71875 L 3.3125 27 L 3.4375 27.21875 L 3.5625 27.375 L 3.71875 27.4375 L 3.9375 27.5625 L 4.15625 27.6875 L 8.1875 27.6875 L 7.875 30.28125 L 7.84375 30.53125 L 7.75 30.8125 L 7.625 31.1875 L 7.4375 31.65625 L 7.1875 32.03125 L 7.0625 32.34375 L 6.84375 32.6875 L 6.65625 32.96875 L 6.5625 33.25 L 6.5625 33.53125 L 6.5 33.84375 L 6.5 34.15625 L 6.5 34.375 L 6.5 34.625 L 6.5 34.96875 L 6.5 35.21875 L 6.375 35.71875 L 6.28125 36.15625 L 6.15625 36.4375 L 5.96875 36.78125 L 4.875 38.84375 L 3.6875 41.625 L 3.5625 42.03125 L 3.4375 42.53125 L 3.34375 42.96875 L 3.375 43.5625 L 3.46875 44.09375 L 3.6875 44.5625 L 3.90625 45 L 4.15625 45.3125 L 4.4375 45.625 L 4.78125 45.875 L 5.15625 46 L 5.75 46 L 44.09375 46 C 45.152098 46 46 45.152174 46 44.09375 L 46 3.90625 C 46 2.8479012 45.152098 2 44.09375 2 L 17.0625 2 z "
     inkscape:radius="1.1358025"
     sodipodi:type="inkscape:offset" /><path
     inkscape:connector-curvature="0"
     d="M 5.7400779,46 5.1438303,45.98645 4.7780345,45.87798 4.4527745,45.620617 4.141064,45.308907 3.9106496,45.01082 3.6804225,44.577165 3.4771818,44.089313 3.3687867,43.547188 l -0.013624,-0.582623 0.067709,-0.44713 0.1491554,-0.501326 0.1219819,-0.393158 1.1788709,-2.764222 1.097612,-2.08698 0.1761044,-0.325109 0.1491555,-0.298087 0.094845,-0.433655 0.108395,-0.501401 0.013587,-0.257589 0,-0.32511 -0.013587,-0.257512 0.013587,-0.216941 -0.013587,-0.298086 0.054122,-0.311636 0.013588,-0.311711 L 6.661547,32.977549 6.8512383,32.679463 7.0680657,32.340578 7.1900851,32.042493 7.4340488,31.64956 7.62374,31.202281 7.759159,30.809349 7.8404182,30.524812 7.8811412,30.280998 8.192815,27.679069 4.1682376,27.692618 3.9242364,27.557274 3.7209583,27.435254 3.5720274,27.367358 3.422872,27.204839 3.3144395,27.001599 3.206007,26.717062 3.178871,26.405352 3.8022174,22.692373 5.0489849,21.879335 4.0326691,20.985002 l 0.040723,-0.298237 0.013399,-0.216716 0.149118,-0.18969 0.081297,-0.257513 0.067859,-0.311712 0.1353816,-0.230414 0.135606,-0.379382 0,-0.176142 -0.6098342,-0.149118 -0.7589149,-0.04057 -0.4335053,-0.108395 -0.4201057,-0.122018 -0.176329,-0.01355 -0.054122,-0.09492 -0.054273,-0.121945 0,-0.135344 0.01355,-0.189692 0.067934,-0.176291 0,-0.487853 L 2.3793835,16.865395 2.6910558,16.33689 2.8266619,16.038729 3.0704385,15.537402 3.2195939,15.198742 3.5177177,14.616119 3.7479448,13.992698 4.0598051,13.369352 4.1680504,12.407121 2.8536109,12.190406 2.6097969,11.55351 2.5013645,11.092681 2.3793826,10.577655 2.3522464,10.239071 2.5419003,9.7917914 l 0,-0.054122 L 2.3522464,9.3988591 2.2168275,9.1684447 2.1489684,8.9381806 2.026949,8.6534938 l 0,-0.2033155 L 2.0135871,8.0572463 2,7.8269817 2,7.65069 2.0541227,7.3256547 2.1896913,7.1357388 2.2302271,7.0275683 2.4065188,6.9460475 2.5554872,6.8242528 2.7315916,6.4582698 2.9348698,6.1873571 3.206007,5.8891958 3.449821,5.6179837 3.8563399,5.347071 4.1139278,5.1166566 4.5609824,5.0897077 4.9134534,4.994862 5.5096261,4.8592933 5.8754593,4.737274 6.2683914,4.6695271 6.7697933,4.5068598 l 0.081446,-0.094845 0.2981238,0.081521 0.3116731,0.094845 0.352209,0.067672 0.2709876,0.027098 0.7453659,-0.027098 0.5420869,-0.1491927 0.33866,-0.1217948 0.3252594,-0.1627422 0.420106,-0.2980864 0.32526,-0.2438139 0.880822,0.2166404 0.257326,0.013625 0.284762,-0.013625 0.338622,-0.013399 0.311673,-0.081446 0.271174,-0.040499 0.216642,-0.081297 0.162741,-0.1627423 0.284537,-0.243814 0.311674,-0.2167901 0.555486,-0.027173 0.230452,-0.027173 0.270913,0.013624 0.216865,0.01355 0.39297,-0.1625937 0.176291,-0.1219443 0.257364,-0.10847 L 16.485821,2.392932 16.783945,2.2711373 17.068669,2 44.083624,2 C 45.141972,2 46,2.8580275 46,3.9163763 L 46,44.083624 C 46,45.142048 45.141972,46 44.083624,46 L 5.7400779,46 z"
     id="path2517"
     style="fill:#ffffff;fill-rule:evenodd" /></g>



<text
   xml:space="preserve"
   style="font-size:28px;font-style:normal;font-variant:normal;font-weight:normal;font-stretch:normal;text-align:center;line-height:125%;writing-mode:lr;text-anchor:middle;fill:#000000;fill-opacity:1;stroke:none;font-family:Roadgeek 2005 Series D;-inkscape-font-specification:Roadgeek 2005 Series D"
   x="25.500156"
   y="26"
   id="routenum"
   sodipodi:linespacing="125%"><tspan
     sodipodi:role="line"
     id="tspan3146">%num%</tspan></text>



<text
   xml:space="preserve"
   style="font-size:16.80000114px;font-style:normal;font-variant:normal;font-weight:normal;font-stretch:normal;text-align:center;line-height:125%;letter-spacing:0px;word-spacing:0px;writing-mode:lr;text-anchor:middle;fill:#000000;fill-opacity:1;stroke:none;font-family:Roadgeek 2005 Series D;-inkscape-font-specification:Roadgeek 2005 Series D"
   x="25.49995"
   y="43"
   id="text3000"
   sodipodi:linespacing="125%"><tspan
     sodipodi:role="line"
     id="tspan3066">%suf%</tspan></text>


</svg>