<?xml version="1.0" encoding="UTF-8" standalone="no"?>
<!-- Created with Inkscape (http://www.inkscape.org/) -->

<svg
   xmlns:dc="http://purl.org/dc/elements/1.1/"
   xmlns:cc="http://creativecommons.org/ns#"
   xmlns:rdf="http://www.w3.org/1999/02/22-rdf-syntax-ns#"
   xmlns:svg="http://www.w3.org/2000/svg"
   xmlns="http://www.w3.org/2000/svg"
   xmlns:sodipodi="http://sodipodi.sourceforge.net/DTD/sodipodi-0.dtd"
   xmlns:inkscape="http://www.inkscape.org/namespaces/inkscape"
   version="1.0"
   width="48"
   height="48"
   id="svg2"
   inkscape:version="0.48.1 r9760"
   sodipodi:docname="US:NY-PIP.svg">
  <metadata
     id="metadata3051">
    <rdf:RDF>
      <cc:Work
         rdf:about="">
        <dc:format>image/svg+xml</dc:format>
        <dc:type
           rdf:resource="http://purl.org/dc/dcmitype/StillImage" />
      </cc:Work>
    </rdf:RDF>
  </metadata>
  <sodipodi:namedview
     pagecolor="#ffffff"
     bordercolor="#666666"
     borderopacity="1"
     objecttolerance="10"
     gridtolerance="10"
     guidetolerance="10"
     inkscape:pageopacity="0"
     inkscape:pageshadow="2"
     inkscape:window-width="1278"
     inkscape:window-height="996"
     id="namedview3049"
     showgrid="true"
     inkscape:showpageshadow="false"
     inkscape:zoom="16.895833"
     inkscape:cx="24"
     inkscape:cy="24"
     inkscape:window-x="1"
     inkscape:window-y="27"
     inkscape:window-maximized="0"
     inkscape:current-layer="svg2">
    <inkscape:grid
       type="xygrid"
       id="grid3572"
       empspacing="5"
       visible="true"
       enabled="true"
       snapvisiblegridlinesonly="true" />
  </sodipodi:namedview>
  <defs
     id="defs4" />
  <g
     id="g3583">
    <path
       inkscape:connector-curvature="0"
       id="path1992"
       style="fill:#ffffff;fill-opacity:1;stroke:#000000;stroke-width:0.07658578;stroke-linecap:square;stroke-miterlimit:3.863693;stroke-opacity:1;stroke-dasharray:none"
       d="m 46.937512,23.999997 a 22.937506,22.937503 0 0 1 -45.875012,0 22.937506,22.937503 0 1 1 45.875012,0 z" />
    <path
       inkscape:connector-curvature="0"
       id="path2969"
       style="fill:#613314;fill-opacity:1;stroke:none"
       d="m 46,24.001454 a 22,22 0 0 1 -43.9999999,0 22,22 0 1 1 43.9999999,0 z" />
  </g>
  <path
     d="m 24.088476,3.6657909 -2.013663,2.9139694 c 0,0 -2.893267,-0.3900471 -2.893267,-0.3900471 0,0 -0.185001,4.8401368 -0.185001,4.8401368 0,0 -2.691567,-1.5201018 -2.691567,-1.5201018 0,0 -1.068611,2.2828238 -1.068611,2.2828238 0,0 -2.355622,-0.824835 -2.355622,-0.824835 0,0 1.043899,2.934005 1.043899,2.934005 0,0 -1.331757,0.57838 -1.331757,0.57838 0,0 2.974081,6.447059 2.974081,6.447059 0,0 -2.005653,0.227081 -2.005653,0.227081 0,0 0.37936,1.122777 0.485552,1.34044 0.803894,1.607506 2.430506,2.881239 4.048703,3.275957 0.288925,0.07048 1.028423,0.126281 1.685068,0.126897 1.398802,0.0013 2.132457,-0.210686 3.737716,-0.920972 l 0.0038,3.344718 c 0,0 1.128302,0.008 1.128302,0.008 0,0 0.0019,-3.352096 0.0019,-3.352096 0.431863,0.152118 0.933618,0.430687 1.317523,0.539649 1.387897,0.426801 3.086228,0.509611 4.204986,0.205037 1.804658,-0.4913 3.053264,-1.601828 3.983918,-3.543777 0.178023,-0.371473 0.366,-0.956409 0.366,-0.956409 0,0 -2.051735,-0.196351 -2.051735,-0.196351 0,0 2.934007,-6.423015 2.934007,-6.423015 l -1.295023,-0.537649 c 0,0 0.995812,-2.924648 0.995812,-2.924648 l -2.264141,0.833514 -1.063269,-2.3168781 c 0,0 -2.709597,1.4459631 -2.709597,1.4459631 L 28.884541,6.3192801 26.074764,6.6184918 c 0,0 -1.986287,-2.9527009 -1.986287,-2.9527009 z M 24.056416,5.62402 c 0,0 1.452647,2.156588 1.452647,2.156588 0,0 2.310205,-0.2224026 2.310205,-0.2224026 l 0.109533,1.953551 -0.886947,0.6030936 -0.491561,-0.4715263 -0.651855,0.6451803 -0.0034,-1.8533756 -0.643841,0 -1.188164,-1.7919235 c 0,0 -1.186826,1.783914 -1.186826,1.783914 0,0 -0.693258,0.00334 -0.693258,0.00334 l -0.01403,1.8426807 c 0,0 -0.539649,-0.6678773 -0.539649,-0.6678773 L 21.060301,10.108172 20.223444,9.5324609 c 0,0 0.09617,-1.9909514 0.09617,-1.9909514 l 2.317555,0.2431071 1.41925,-2.1605966 z m 0.02204,2.9126306 c 0,0 0.50425,0.8297585 0.50425,0.8297585 0,0 0.326311,0.0032 0.326311,0.0032 0,0 7.85e-4,3.7620248 7.85e-4,3.7620248 0,0 1.693254,-1.978226 1.693254,-1.978226 0,0 0.364664,0.26515 0.364664,0.26515 0,0 0.919005,-0.706624 0.919005,-0.706624 0,0 -0.333214,1.097879 -0.333214,1.097879 0,0 0.367278,0.32204 0.367278,0.32204 -0.584315,1.143966 -1.866064,3.372131 -1.866064,3.372131 0,0 3.125688,-1.586885 3.125688,-1.586885 0,0 0.261141,0.396724 0.261141,0.396724 0,0 1.209536,-0.317915 1.209536,-0.317915 0,0 -0.448605,1.156099 -0.448605,1.156099 0,0 0.331057,0.37936 0.331057,0.37936 0,0 -3.526417,4.428725 -3.526417,4.428725 l 3.081607,-0.0034 -0.282515,0.42611 c -0.400761,0.544665 -1.173647,0.92194 -2.643476,1.289006 -1.496823,0.373812 -1.994779,0.598192 -2.646152,1.193506 l -0.492897,0.450823 -0.31858,-0.334612 C 23.111034,22.359292 22.37006,22.002291 20.81118,21.586345 19.404127,21.210917 18.625578,20.802573 18.262541,20.249921 l -0.1643,-0.250462 2.91798,-0.09349 -3.50438,-4.459446 0.407407,-0.434126 c 0,0 -0.567031,-1.073281 -0.567031,-1.073281 0,0 1.262298,0.342621 1.262298,0.342621 l 0.370675,-0.398057 c 0,0 3.019496,1.624287 3.019496,1.624287 l -1.883428,-3.448271 0.455495,-0.245116 c 0,0 -0.412084,-1.174803 -0.412084,-1.174803 0,0 0.947057,0.776078 0.947057,0.776078 0,0 0.358028,-0.258857 0.358028,-0.258857 l 1.729102,1.97264 c 0.02837,-1.252636 0.02427,-2.505334 0.02204,-3.7581621 0,0 0.294536,-6.925e-4 0.294536,-6.925e-4 0,0 0.563026,-0.8341826 0.563026,-0.8341826 z M 19.17019,12.479153 c 0,0 0.332606,0.577719 0.332606,0.577719 L 18.6399,12.577329 18.048823,13.209144 c 0,0 -2.109839,-0.598416 -2.109839,-0.598416 l 0.789436,2.074439 c 0,0 -0.68458,0.669885 -0.68458,0.669885 l 2.672199,3.380149 c 0,0 -2.399702,0.04207 -2.399702,0.04207 2e-6,0.0643 0.169954,0.554206 0.37802,0.984462 0.553131,1.071674 1.287599,1.935363 2.407718,2.405704 0.296133,0.131045 0.983626,0.355324 1.528114,0.49824 0.544488,0.142923 1.19819,0.351954 1.451977,0.464178 0.429564,0.18995 0.97644,0.615489 0.97644,0.760052 0,0.111702 -1.42289,0.664622 -2.055738,0.798783 -0.775973,0.164505 -1.967109,0.159466 -2.598732,-0.01069 -1.189991,-0.320562 -2.158254,-0.968681 -2.73431,-1.831324 -0.210824,-0.315723 -0.426109,-0.692143 -0.426109,-0.731337 0,0 2.00899,-0.245108 2.00899,-0.245108 0,0 -3.096969,-6.841114 -3.096969,-6.841114 0,0 1.173469,-0.516267 1.173469,-0.516267 0,0 -0.642504,-1.668365 -0.642504,-1.668365 0,0 1.071284,0.436787 1.071284,0.436787 0,0 1.074623,-2.156588 1.074623,-2.156588 0,0 2.337588,1.354466 2.337588,1.354466 z m 12.076655,-1.277657 c 0,0 0.707286,1.544139 0.707286,1.544139 0,0 -1.944204,0.560353 -1.944204,0.560353 l -0.52362,-0.683242 c 0,0 -0.892288,0.468857 -0.892288,0.468857 0,0 0.260472,-0.571041 0.260472,-0.571041 0,0 2.392354,-1.319066 2.392354,-1.319066 z m 0.750031,1.655678 c 0,0 0.259807,0.550336 0.259807,0.550336 0,0 1.086643,-0.410081 1.086643,-0.410081 l -0.617123,1.664356 1.168794,0.528962 c 0,0 -3.107655,6.740931 -3.107655,6.740931 0,0 2.003647,0.254464 2.003647,0.254464 0,0 -0.006,0.242653 -0.263815,0.640495 -0.431693,0.66613 -1.108539,1.211442 -2.030361,1.632304 -0.592204,0.270374 -0.749307,0.299503 -1.773225,0.330602 -0.89487,0.02718 -1.258432,-0.0024 -1.785918,-0.145601 -0.364296,-0.09885 -0.950121,-0.310106 -1.301703,-0.469518 -0.628076,-0.284786 -0.636369,-0.293242 -0.470192,-0.476866 0.257083,-0.284078 1.070835,-0.634885 1.966249,-0.847547 2.510373,-0.596208 3.442944,-1.25833 4.311178,-3.060894 0.229366,-0.476197 0.417426,-0.955741 0.417426,-0.955741 l -2.529269,-0.004 c 0,0 2.665517,-3.3 2.665517,-3.3 l -0.669218,-0.735338 c 0,0 0.669218,-1.936855 0.669218,-1.936855 z"
     style="fill:#ffffff;fill-opacity:1;stroke:none"
     id="path6825"
     inkscape:connector-curvature="0" />
  <path
     d="m 12.104563,32.52894 0,-3.524812 1.329621,0 c 0.234023,0 0.412749,0.01121 0.536176,0.03366 0.173113,0.02885 0.318176,0.08375 0.435192,0.164699 0.11701,0.08095 0.211181,0.19435 0.282513,0.34022 0.07132,0.145862 0.106991,0.306151 0.106995,0.480875 -4e-6,0.299742 -0.09537,0.553405 -0.28612,0.760981 -0.19075,0.207577 -0.535377,0.311369 -1.033882,0.311369 l -0.904046,0 0,1.433007 -0.466449,0 z m 0.466449,-1.848968 0.911259,0 c 0.301346,0 0.515335,-0.05609 0.641969,-0.168306 0.126627,-0.112201 0.189943,-0.270089 0.189946,-0.473657 -3e-6,-0.147471 -0.03726,-0.273698 -0.111805,-0.378691 -0.07454,-0.104992 -0.172716,-0.174315 -0.294535,-0.207976 -0.07854,-0.02084 -0.223609,-0.03126 -0.435192,-0.03126 l -0.901642,0 0,1.259891 z m 2.055682,1.848968 1.353664,-3.524812 0.502515,0 1.442625,3.524812 -0.531365,0 -0.411148,-1.067542 -1.473884,0 -0.387103,1.067542 -0.495304,0 z m 1.017052,-1.447433 1.194976,0 -0.367871,-0.976176 c -0.112204,-0.296541 -0.195557,-0.540187 -0.250055,-0.730929 -0.04488,0.226011 -0.108197,0.450414 -0.189946,0.673224 l -0.387104,1.033881 z m 2.260056,1.447433 0,-3.524812 0.466449,0 0,3.108851 1.735959,0 0,0.415961 -2.202408,0 z m 2.459618,0 0,-3.524812 0.466449,0 0,3.524812 -0.466449,0 z m 0.747702,-1.132464 0.440001,-0.03847 c 0.02084,0.176323 0.06932,0.320986 0.145463,0.433988 0.07614,0.113009 0.194353,0.204375 0.354648,0.274098 0.160288,0.06972 0.340618,0.104592 0.540985,0.104592 0.177921,0 0.335008,-0.02644 0.471257,-0.07934 0.136246,-0.0529 0.23763,-0.125427 0.304153,-0.217601 0.06652,-0.09217 0.09978,-0.19275 0.09978,-0.301743 -2e-6,-0.110601 -0.03206,-0.207176 -0.09617,-0.289733 -0.06412,-0.08255 -0.169911,-0.151872 -0.317378,-0.207977 -0.09457,-0.03686 -0.303753,-0.09417 -0.627542,-0.171914 -0.32379,-0.07774 -0.550602,-0.151071 -0.680439,-0.219994 -0.168306,-0.08816 -0.293736,-0.197559 -0.376286,-0.328203 -0.08255,-0.130628 -0.123824,-0.276899 -0.123824,-0.438796 0,-0.177924 0.05049,-0.344222 0.151476,-0.498909 0.100981,-0.154673 0.248451,-0.272091 0.442405,-0.352239 0.193952,-0.08014 0.409543,-0.120218 0.646778,-0.120218 0.261273,0 0.491694,0.04208 0.691259,0.126227 0.199561,0.08416 0.353039,0.207984 0.460437,0.371482 0.107393,0.163496 0.165098,0.34863 0.173115,0.555406 l -0.447214,0.03366 c -0.02405,-0.222803 -0.105395,-0.391108 -0.244043,-0.504918 -0.138655,-0.113802 -0.343428,-0.170707 -0.614319,-0.170707 -0.282115,0 -0.48769,0.05169 -0.616725,0.15508 -0.129034,0.103392 -0.19355,0.228011 -0.19355,0.373882 0,0.126627 0.04568,0.23082 0.137048,0.312568 0.08976,0.08175 0.324189,0.165498 0.703283,0.251255 0.379085,0.08575 0.63916,0.16069 0.780219,0.224812 0.205171,0.09456 0.356646,0.214385 0.454427,0.359447 0.09777,0.145071 0.146662,0.312169 0.146667,0.501318 -5e-6,0.187541 -0.0537,0.364256 -0.161093,0.530163 -0.107398,0.165897 -0.261679,0.294933 -0.462841,0.3871 -0.201171,0.09217 -0.427582,0.138252 -0.679239,0.138252 -0.318982,0 -0.586269,-0.04649 -0.801861,-0.139453 -0.215592,-0.09296 -0.384698,-0.23282 -0.507321,-0.419561 -0.122625,-0.186741 -0.187142,-0.397926 -0.193553,-0.633554 l 0,0 z m 2.680822,1.132464 1.353664,-3.524812 0.502516,0 1.442625,3.524812 -0.531367,0 -0.411149,-1.067542 -1.473882,0 -0.387105,1.067542 -0.495302,0 z m 1.017052,-1.447433 1.194975,0 -0.36787,-0.976176 c -0.112206,-0.296541 -0.195558,-0.540187 -0.250055,-0.730929 -0.04488,0.226011 -0.108199,0.450414 -0.189946,0.673224 l -0.387104,1.033881 z m 2.279289,1.447433 0,-3.524812 1.214212,0 c 0.274097,0 0.483277,0.01683 0.627542,0.05049 0.201963,0.04649 0.374279,0.130636 0.516942,0.252463 0.185933,0.15708 0.324987,0.357847 0.417157,0.602292 0.09217,0.244446 0.138249,0.523754 0.138253,0.837923 -4e-6,0.267689 -0.03126,0.504918 -0.09377,0.711694 -0.06252,0.206776 -0.142664,0.377891 -0.240438,0.513336 -0.09778,0.135445 -0.204775,0.242038 -0.320984,0.319778 -0.116215,0.07774 -0.256469,0.136652 -0.420766,0.176723 -0.164302,0.04007 -0.353045,0.06011 -0.56623,0.06011 l -1.271917,0 z m 0.466451,-0.415961 0.75257,0 c 0.23242,0 0.414751,-0.02164 0.546994,-0.06491 0.132239,-0.04328 0.23763,-0.104192 0.316177,-0.182733 0.110599,-0.110601 0.196755,-0.259272 0.258469,-0.446013 0.06171,-0.186741 0.09256,-0.413151 0.09257,-0.679233 -5e-6,-0.368673 -0.06051,-0.651989 -0.181532,-0.849948 -0.121023,-0.197959 -0.268089,-0.330603 -0.441202,-0.397926 -0.12503,-0.04809 -0.326196,-0.07213 -0.603498,-0.07213 l -0.740548,0 0,2.692898 z m 2.721694,0.415961 0,-3.524812 2.548637,0 0,0.415953 -2.082188,0 0,1.079567 1.949951,0 0,0.413552 -1.949951,0 0,1.199779 2.163936,0 0,0.415961 -2.630385,0 z m 2.740933,-1.132464 0.439997,-0.03847 c 0.02084,0.176323 0.06933,0.320986 0.14547,0.433988 0.07613,0.113009 0.19435,0.204375 0.35464,0.274098 0.160288,0.06972 0.34062,0.104592 0.540987,0.104592 0.177924,0 0.335006,-0.02644 0.471258,-0.07934 0.136245,-0.0529 0.237629,-0.125427 0.304153,-0.217601 0.06652,-0.09217 0.09978,-0.19275 0.09978,-0.301743 0,-0.110601 -0.03206,-0.207176 -0.09617,-0.289733 -0.06412,-0.08255 -0.169913,-0.151872 -0.317378,-0.207977 -0.09457,-0.03686 -0.303759,-0.09417 -0.627544,-0.171914 -0.323788,-0.07774 -0.550601,-0.151071 -0.680437,-0.219994 -0.168306,-0.08816 -0.293734,-0.197559 -0.376282,-0.328203 -0.08256,-0.130628 -0.123827,-0.276899 -0.123827,-0.438796 0,-0.177924 0.05049,-0.344222 0.151473,-0.498909 0.100983,-0.154673 0.248454,-0.272091 0.442404,-0.352239 0.19395,-0.08014 0.409544,-0.120218 0.64678,-0.120218 0.261273,0 0.491694,0.04208 0.691261,0.126227 0.19956,0.08416 0.35304,0.207984 0.460431,0.371482 0.107394,0.163496 0.165099,0.34863 0.173115,0.555406 l -0.447213,0.03366 c -0.02405,-0.222803 -0.105392,-0.391108 -0.244038,-0.504918 -0.138654,-0.113802 -0.34343,-0.170707 -0.614321,-0.170707 -0.282116,0 -0.487691,0.05169 -0.61672,0.15508 -0.129036,0.103392 -0.193557,0.228011 -0.193557,0.373882 0,0.126627 0.04569,0.23082 0.137052,0.312568 0.08976,0.08175 0.324187,0.165498 0.703279,0.251255 0.37909,0.08575 0.639164,0.16069 0.780217,0.224812 0.205177,0.09456 0.356649,0.214385 0.454432,0.359447 0.09778,0.145071 0.146662,0.312169 0.146662,0.501318 0,0.187541 -0.0537,0.364256 -0.161089,0.530163 -0.1074,0.165897 -0.26168,0.294933 -0.46284,0.3871 -0.201176,0.09217 -0.427587,0.138252 -0.679241,0.138252 -0.318979,0 -0.586269,-0.04649 -0.801854,-0.139453 -0.215595,-0.09296 -0.384709,-0.23282 -0.507328,-0.419561 -0.122627,-0.186741 -0.187142,-0.397926 -0.193549,-0.633554 l 0,0 z m -22.278456,6.005331 0,-3.524811 0.466448,0 0,3.524811 -0.466448,0 z m 0.901582,0 0,-3.524811 0.478471,0 1.85137,2.76743 0,-2.76743 0.447214,0 0,3.524811 -0.478471,0 -1.85137,-2.769838 0,2.769838 -0.447214,0 z m 4.080169,0 0,-3.108858 -1.161316,0 0,-0.415953 2.793887,0 0,0.415953 -1.166122,0 0,3.108858 -0.466449,0 z m 1.743113,0 0,-3.524811 2.548639,0 0,0.415953 -2.08219,0 0,1.079568 1.949949,0 0,0.413552 -1.949949,0 0,1.199778 2.16394,0 0,0.41596 -2.630389,0 z m 2.906833,0 0,-3.524811 1.562845,0 c 0.314169,0 0.553005,0.03166 0.716505,0.09498 0.163495,0.06331 0.294133,0.175116 0.391913,0.335405 0.09777,0.160296 0.146664,0.33742 0.146667,0.531369 -3e-6,0.250056 -0.08095,0.46084 -0.242842,0.632347 -0.161899,0.171514 -0.411952,0.280515 -0.750167,0.326994 0.123422,0.05931 0.217195,0.117819 0.281314,0.175524 0.136245,0.125027 0.26528,0.281308 0.387104,0.468849 l 0.613116,0.959348 -0.586668,0 -0.466449,-0.733337 c -0.136251,-0.211586 -0.248455,-0.373475 -0.336613,-0.485683 -0.08816,-0.112203 -0.167108,-0.190742 -0.236832,-0.235629 -0.06973,-0.04488 -0.140658,-0.07614 -0.212786,-0.09376 -0.0529,-0.01121 -0.139457,-0.01684 -0.259673,-0.01684 l -0.540985,0 0,1.565251 -0.466449,0 z m 0.466449,-1.969185 1.002625,0 c 0.213185,0 0.379889,-0.02204 0.500111,-0.06612 0.120217,-0.04408 0.211583,-0.11461 0.274099,-0.211585 0.06252,-0.09698 0.09376,-0.202368 0.09377,-0.316178 -10e-7,-0.166705 -0.06051,-0.303751 -0.181531,-0.411151 -0.121022,-0.107393 -0.312171,-0.161089 -0.573443,-0.161089 l -1.115631,0 0,1.166117 z m 2.546175,0.836721 0.440004,-0.03847 c 0.02083,0.176324 0.06932,0.320987 0.145463,0.433996 0.07614,0.113002 0.194353,0.204368 0.354646,0.274099 0.16029,0.06973 0.340618,0.104584 0.540983,0.104584 0.177924,0 0.335011,-0.02644 0.471258,-0.07934 0.136248,-0.0529 0.237632,-0.125428 0.304155,-0.217594 0.06652,-0.09217 0.09978,-0.19275 0.09978,-0.301751 -3e-6,-0.110602 -0.03207,-0.207176 -0.09618,-0.289725 -0.06411,-0.08256 -0.169913,-0.151879 -0.317379,-0.207984 -0.09457,-0.03686 -0.303754,-0.09417 -0.627541,-0.171907 -0.323791,-0.07774 -0.550604,-0.151079 -0.680437,-0.220002 -0.16831,-0.08816 -0.293736,-0.197558 -0.376286,-0.328196 -0.08255,-0.130636 -0.123827,-0.276906 -0.123827,-0.438803 0,-0.177923 0.05049,-0.344221 0.151478,-0.498902 0.100984,-0.15468 0.24845,-0.272097 0.442405,-0.352246 0.193951,-0.08014 0.409543,-0.120211 0.646775,-0.120219 0.261275,8e-6 0.491694,0.04208 0.691259,0.126236 0.199561,0.08415 0.353042,0.207976 0.460439,0.371473 0.107391,0.163498 0.165096,0.348639 0.173115,0.555407 l -0.447213,0.03366 c -0.02405,-0.222802 -0.105396,-0.391108 -0.244046,-0.504918 -0.138654,-0.113801 -0.343426,-0.170706 -0.614319,-0.170706 -0.282114,0 -0.487687,0.05169 -0.616722,0.15508 -0.129034,0.103392 -0.193553,0.228019 -0.193551,0.373882 -2e-6,0.126627 0.04568,0.230819 0.137048,0.312569 0.08976,0.08175 0.324191,0.165504 0.70328,0.251254 0.379091,0.08575 0.639163,0.160697 0.780222,0.224811 0.205172,0.09457 0.356647,0.214386 0.454427,0.359456 0.09778,0.145063 0.146662,0.312169 0.146667,0.50131 -5e-6,0.187541 -0.05371,0.364264 -0.161093,0.530162 -0.1074,0.165906 -0.26168,0.294934 -0.462844,0.387108 -0.201168,0.09217 -0.42758,0.138246 -0.679237,0.138246 -0.318981,0 -0.586266,-0.04648 -0.801859,-0.139454 -0.215592,-0.09296 -0.384699,-0.23282 -0.507323,-0.419562 -0.122623,-0.186732 -0.187142,-0.397925 -0.193554,-0.633554 l 0,0 z m 3.96476,1.132464 0,-3.108858 -1.161312,0 0,-0.415953 2.793882,0 0,0.415953 -1.166121,0 0,3.108858 -0.466449,0 z m 1.346393,0 1.353663,-3.524811 0.502515,0 1.442623,3.524811 -0.531363,0 -0.411149,-1.067542 -1.473884,0 -0.387106,1.067542 -0.495299,0 z m 1.01705,-1.447432 1.194976,0 -0.36787,-0.976176 c -0.112206,-0.296542 -0.195558,-0.540179 -0.250055,-0.730929 -0.04488,0.226011 -0.108199,0.450422 -0.189946,0.673225 l -0.387105,1.03388 z m 3.176125,1.447432 0,-3.108858 -1.161317,0 0,-0.415953 2.793885,0 0,0.415953 -1.166119,0 0,3.108858 -0.466449,0 z m 1.743116,0 0,-3.524811 2.548637,0 0,0.415953 -2.082188,0 0,1.079568 1.949945,0 0,0.413552 -1.949945,0 0,1.199778 2.163936,0 0,0.41596 -2.630385,0 z m -21.530757,4.872868 0,-3.52481 1.329623,0 c 0.234023,0 0.412747,0.01122 0.536176,0.03366 0.173111,0.02885 0.318176,0.08376 0.43519,0.164698 0.11701,0.08096 0.211181,0.194358 0.282515,0.34022 0.07132,0.145872 0.106991,0.30616 0.106993,0.480875 -2e-6,0.29975 -0.09537,0.553406 -0.28612,0.760983 -0.19075,0.207584 -0.535376,0.311367 -1.033879,0.311367 l -0.904049,0 0,1.433007 -0.466449,0 z m 0.466449,-1.848958 0.911262,0 c 0.301345,0 0.515333,-0.0561 0.641968,-0.168307 0.126625,-0.112209 0.189941,-0.27009 0.189946,-0.473665 -5e-6,-0.147464 -0.03727,-0.273699 -0.111805,-0.378691 -0.07454,-0.104984 -0.172718,-0.174315 -0.294535,-0.207976 -0.07854,-0.02083 -0.223609,-0.03126 -0.435192,-0.03126 l -0.901644,0 0,1.259892 z m 2.055684,1.848958 1.353664,-3.52481 0.502516,0 1.442625,3.52481 -0.531367,0 -0.411149,-1.067541 -1.473882,0 -0.387105,1.067541 -0.495302,0 z m 1.017052,-1.447432 1.194975,0 -0.36787,-0.976176 c -0.112206,-0.296534 -0.195559,-0.54018 -0.250055,-0.73093 -0.04488,0.226011 -0.1082,0.450422 -0.189946,0.673225 L 16.6391,40.827243 z m 2.286504,1.447432 0,-3.52481 1.562844,0 c 0.314167,0 0.553005,0.03166 0.716504,0.09498 0.163494,0.06331 0.294131,0.175123 0.391913,0.335404 0.09777,0.160297 0.146664,0.33742 0.146668,0.53137 -4e-6,0.250055 -0.08095,0.460839 -0.242843,0.632354 -0.161899,0.171507 -0.411954,0.280508 -0.750166,0.326995 0.123424,0.05931 0.217194,0.117811 0.281313,0.175516 0.136244,0.125027 0.265279,0.281315 0.387105,0.468856 l 0.613115,0.959341 -0.586667,0 -0.466449,-0.73333 c -0.136251,-0.211585 -0.248457,-0.373481 -0.336613,-0.485691 -0.08816,-0.112201 -0.167107,-0.190742 -0.236832,-0.23562 -0.06972,-0.04489 -0.140656,-0.07614 -0.212788,-0.09377 -0.0529,-0.01121 -0.139454,-0.01683 -0.259673,-0.01683 l -0.540982,0 0,1.565243 -0.466449,0 z m 0.466449,-1.969178 1.002622,0 c 0.213189,0 0.379892,-0.02205 0.500113,-0.06612 0.120214,-0.04408 0.211583,-0.114609 0.274098,-0.211585 0.06252,-0.09697 0.09376,-0.202367 0.09377,-0.316176 -4e-6,-0.166699 -0.06051,-0.303751 -0.181531,-0.411144 -0.121023,-0.107394 -0.312172,-0.161098 -0.573443,-0.161098 l -1.11563,0 0,1.166125 z m 2.685628,1.969178 0,-3.52481 0.46645,0 0,1.747983 1.750388,-1.747983 0.632349,0 -1.478689,1.428197 1.543607,2.096613 -0.61552,0 -1.255083,-1.784044 -0.577052,0.562623 0,1.221421 -0.46645,0 z m 3.543994,0 -0.935302,-3.52481 0.47847,0 0.536176,2.310606 c 0.0577,0.242038 0.107393,0.482475 0.149072,0.721312 0.08976,-0.37669 0.142658,-0.593884 0.158689,-0.651589 l 0.670821,-2.380329 0.562624,0 0.504919,1.784044 c 0.126626,0.442405 0.217993,0.858365 0.274099,1.247874 0.04488,-0.222811 0.103383,-0.478475 0.175519,-0.766999 l 0.553006,-2.264919 0.468854,0 -0.966559,3.52481 -0.449618,0 -0.742953,-2.685681 c -0.06252,-0.224411 -0.09938,-0.362256 -0.110601,-0.413552 -0.03687,0.161897 -0.07133,0.299743 -0.103388,0.413552 l -0.747761,2.685681 -0.476067,0 z m 3.262681,0 1.353664,-3.52481 0.502515,0 1.442627,3.52481 -0.531369,0 -0.411148,-1.067541 -1.473883,0 -0.387104,1.067541 -0.495302,0 z m 1.017051,-1.447432 1.194976,0 -0.367871,-0.976176 c -0.112206,-0.296534 -0.195558,-0.54018 -0.250055,-0.73093 -0.04489,0.226011 -0.108199,0.450422 -0.189946,0.673225 l -0.387104,1.033881 z m 3.272298,1.447432 0,-1.493111 -1.358476,-2.031699 0.567432,0 0.694869,1.062732 c 0.128236,0.198767 0.247646,0.397525 0.358255,0.596284 0.105786,-0.184332 0.234021,-0.391908 0.384699,-0.622729 l 0.682844,-1.036287 0.543389,0 -1.406565,2.031699 0,1.493111 -0.466447,0 z"
     style="text-align:center;line-height:98.95842671%;text-anchor:middle;fill:#ffffff;fill-opacity:1;stroke:none"
     id="flowRoot4653"
     inkscape:connector-curvature="0" />
</svg>
