<?xml version="1.0" encoding="UTF-8" standalone="no"?>
<!-- Created with Inkscape (http://www.inkscape.org/) -->

<svg
   xmlns:dc="http://purl.org/dc/elements/1.1/"
   xmlns:cc="http://creativecommons.org/ns#"
   xmlns:rdf="http://www.w3.org/1999/02/22-rdf-syntax-ns#"
   xmlns:svg="http://www.w3.org/2000/svg"
   xmlns="http://www.w3.org/2000/svg"
   xmlns:sodipodi="http://sodipodi.sourceforge.net/DTD/sodipodi-0.dtd"
   xmlns:inkscape="http://www.inkscape.org/namespaces/inkscape"
   version="1.1"
   width="60"
   height="48"
   id="svg2"
   inkscape:version="0.48.1 r9760"
   sodipodi:docname="US:NY-GCP.svg">
  <metadata
     id="metadata32">
    <rdf:RDF>
      <cc:Work
         rdf:about="">
        <dc:format>image/svg+xml</dc:format>
        <dc:type
           rdf:resource="http://purl.org/dc/dcmitype/StillImage" />
      </cc:Work>
    </rdf:RDF>
  </metadata>
  <sodipodi:namedview
     pagecolor="#ffffff"
     bordercolor="#666666"
     borderopacity="1"
     objecttolerance="10"
     gridtolerance="10"
     guidetolerance="10"
     inkscape:pageopacity="0"
     inkscape:pageshadow="2"
     inkscape:window-width="1278"
     inkscape:window-height="1006"
     id="namedview30"
     showgrid="true"
     inkscape:showpageshadow="false"
     inkscape:zoom="17.104167"
     inkscape:cx="30"
     inkscape:cy="24"
     inkscape:window-x="1"
     inkscape:window-y="1"
     inkscape:window-maximized="0"
     inkscape:current-layer="svg2">
    <inkscape:grid
       type="xygrid"
       id="grid3037"
       empspacing="5"
       visible="true"
       enabled="true"
       snapvisiblegridlinesonly="true" />
  </sodipodi:namedview>
  <defs
     id="defs4" />
  <g
     id="g3895">
    <path
       transform="matrix(0.99784946,0,0,0.99728997,0.06451613,0.06504065)"
       d="M 24.15625,0.9375 C 11.351386,0.9375 0.9375,11.273482 0.9375,24 c 0,12.726518 10.413886,23.0625 23.21875,23.0625 l 11.6875,0 C 48.648614,47.0625 59.0625,36.726518 59.0625,24 59.0625,11.273482 48.648614,0.9375 35.84375,0.9375 l -11.6875,0 z"
       id="path3125"
       style="fill:#000000;stroke:none"
       inkscape:original="M 24.15625 2 C 11.919541 2 2 11.849734 2 24 C 2 36.150266 11.919541 46 24.15625 46 L 35.84375 46 C 48.080459 46 58 36.150266 58 24 C 58 11.849734 48.080459 2 35.84375 2 L 24.15625 2 z "
       inkscape:radius="1.058761"
       sodipodi:type="inkscape:offset" />
    <path
       style="fill:#ffffff;stroke:none"
       id="path3657"
       d="M 24.156522,2 C 11.919813,2 2,11.849734 2,24 2,36.150266 11.919813,46 24.156522,46 l 11.686956,0 C 48.080187,46 58,36.150266 58,24 58,11.849734 48.080187,2 35.843478,2 L 24.156522,2 z"
       inkscape:connector-curvature="0" />
    <path
       style="fill:none;stroke:#000000;stroke-width:1.00853848;stroke-miterlimit:4;stroke-dasharray:none"
       id="path3708"
       d="M 24.108246,7.5042696 C 14.870347,7.5042696 7.5042693,14.822326 7.5042693,24 c 0,9.177673 7.3660777,16.495731 16.6039767,16.495731 l 11.78351,0 c 9.237899,0 16.603975,-7.318058 16.603975,-16.495731 0,-9.177682 -7.366076,-16.4957304 -16.603975,-16.4957304 l -11.78351,0 z"
       inkscape:connector-curvature="0" />
  </g>
  <path
     inkscape:connector-curvature="0"
     d="m 21.761933,27.009662 c -1.2e-5,0.684017 -0.119813,1.312116 -0.3594,1.884314 -0.23961,0.572205 -0.568972,1.070126 -0.988088,1.493772 -0.419137,0.423653 -0.920604,0.754317 -1.504402,0.991998 -0.583817,0.237681 -1.21993,0.356518 -1.908341,0.356518 -1.137473,0 -2.057951,-0.219191 -2.76144,-0.657591 -0.703497,-0.43839 -1.279996,-1.12568 -1.729497,-2.061891 -0.314291,-0.669032 -0.55743,-1.438319 -0.729418,-2.307844 -0.171992,-0.869525 -0.257988,-1.765129 -0.257986,-2.686827 -2e-6,-0.594185 0.04112,-1.184872 0.123341,-1.772046 0.08222,-0.587159 0.194486,-1.144503 0.336784,-1.672038 0.142296,-0.527506 0.31817,-1.017947 0.527621,-1.471322 0.209447,-0.453345 0.441394,-0.843547 0.695842,-1.170589 0.449045,-0.550188 0.991739,-0.966469 1.628086,-1.248843 0.636335,-0.282342 1.380941,-0.423521 2.233819,-0.423537 1.15299,1.6e-5 2.096196,0.256403 2.829619,0.769171 0.733404,0.512798 1.354557,1.356352 1.86346,2.530678 l -2.268082,0.891976 c -0.314297,-0.654062 -0.654738,-1.114904 -1.021321,-1.382532 -0.366602,-0.267605 -0.834493,-0.401411 -1.403676,-0.401427 -0.613508,1.6e-5 -1.126052,0.141195 -1.537635,0.423537 -0.411595,0.282374 -0.744612,0.758069 -0.999052,1.427101 -0.194608,0.445887 -0.34056,0.984633 -0.437857,1.616244 -0.0973,0.631628 -0.145956,1.259503 -0.145952,1.883627 -4e-6,0.802861 0.0636,1.568395 0.190834,2.296626 0.127219,0.728237 0.310515,1.330258 0.54989,1.806068 0.464118,0.802399 1.152764,1.203593 2.06594,1.203593 0.76333,0 1.391904,-0.215447 1.885729,-0.646357 0.493806,-0.430909 0.740714,-0.988362 0.740723,-1.672379 l 0,-0.623907 -2.738828,0 0,-2.363644 5.119287,0 0,2.987551 z"
     id="path3998"
     style="fill:#000000;stroke:none" />
  <path
     inkscape:connector-curvature="0"
     d="m 34.962026,28.437103 c -0.898106,2.199443 -2.40993,3.299161 -4.535475,3.299161 -1.122855,0 -2.050987,-0.215455 -2.784397,-0.646357 -0.733417,-0.43091 -1.339723,-1.107206 -1.818918,-2.028897 -0.343983,-0.66904 -0.613275,-1.449436 -0.807875,-2.341188 -0.194604,-0.891743 -0.291906,-1.80572 -0.291905,-2.741933 -10e-7,-1.188839 0.149605,-2.325868 0.44882,-3.411088 0.299212,-1.08519 0.7108,-1.962087 1.234768,-2.630685 0.449044,-0.550188 0.991739,-0.966469 1.628085,-1.248843 0.636337,-0.282342 1.380942,-0.423521 2.233821,-0.423537 1.137915,1.6e-5 2.077351,0.245294 2.818313,0.735835 0.740941,0.490564 1.365863,1.263362 1.874763,2.318396 l -2.222855,0.936884 C 32.529484,19.942794 32.338536,19.682662 32.166326,19.474456 31.994099,19.266265 31.814457,19.102752 31.6274,18.9839 c -0.187073,-0.11883 -0.389099,-0.200587 -0.606079,-0.245279 -0.216994,-0.04467 -0.467784,-0.06701 -0.752371,-0.06702 -0.613508,1.6e-5 -1.126053,0.141194 -1.537636,0.423537 -0.411594,0.282374 -0.744612,0.758069 -0.999052,1.427101 -0.194607,0.445887 -0.340559,0.973516 -0.437856,1.582901 -0.0973,0.609401 -0.145957,1.233656 -0.145953,1.872748 -4e-6,0.817367 0.08234,1.601392 0.247022,2.352072 0.164678,0.750697 0.396624,1.363718 0.695843,1.839072 0.269514,0.386458 0.583917,0.676297 0.943206,0.869526 0.359278,0.193228 0.800674,0.289839 1.324189,0.289839 0.509341,0 0.951079,-0.137435 1.325218,-0.412311 0.37412,-0.27487 0.710793,-0.717114 1.010015,-1.326739 l 2.26808,0.847755 z"
     id="path4000"
     style="fill:#000000;stroke:none" />
  <path
     inkscape:connector-curvature="0"
     d="m 48.476639,20.72295 c -1.2e-5,0.401435 -0.05997,0.791636 -0.17987,1.170597 -0.119925,0.378977 -0.284608,0.73561 -0.494045,1.069894 -0.20946,0.334299 -0.452714,0.627775 -0.72976,0.88041 -0.277068,0.252659 -0.58005,0.453368 -0.908945,0.602137 -0.344447,0.163754 -0.744958,0.290195 -1.201535,0.379317 -0.456594,0.08914 -0.97679,0.133698 -1.56059,0.13369 l -2.784053,0 0,6.50988 -2.380458,0 0,-14.93775 5.164511,0 c 0.61395,1.6e-5 1.134146,0.03347 1.56059,0.100355 0.426427,0.06693 0.826938,0.189731 1.201535,0.368431 0.328895,0.163305 0.631877,0.375015 0.908945,0.635132 0.277046,0.260148 0.5203,0.557359 0.72976,0.891644 0.209437,0.334298 0.37412,0.691048 0.494045,1.070234 0.119901,0.379208 0.179858,0.754548 0.17987,1.126029 z m -2.424997,0 c -1e-5,-0.312058 -0.08612,-0.60927 -0.258328,-0.891635 -0.172228,-0.282351 -0.38556,-0.505404 -0.639996,-0.669157 -0.209687,-0.118828 -0.408058,-0.193105 -0.595115,-0.222828 -0.187073,-0.02969 -0.46767,-0.04455 -0.841794,-0.04456 l -3.098568,0 0,3.656359 3.098568,0 c 0.374124,8e-6 0.654721,-0.01484 0.841794,-0.04456 0.187057,-0.0297 0.385428,-0.09672 0.595115,-0.201057 0.254436,-0.133799 0.467768,-0.35299 0.639996,-0.657583 0.172209,-0.304576 0.258318,-0.612898 0.258328,-0.924978 z"
     id="path4002"
     style="fill:#000000;stroke:none" />
  <path
     inkscape:connector-curvature="0"
     d="m 10.193665,11.382796 c 0.129904,0.102622 0.231218,0.219277 0.303945,0.34998 0.07272,0.130713 0.117874,0.267088 0.135456,0.409118 0.01758,0.142037 0.0052,0.285545 -0.0373,0.430515 -0.04244,0.144969 -0.115308,0.281909 -0.218586,0.410803 -0.170647,0.212987 -0.35037,0.352457 -0.5391675,0.418408 -0.188799,0.06596 -0.4058171,0.0708 -0.6510539,0.0145 C 9.0127466,13.374605 8.8301699,13.304716 8.6392291,13.206473 8.44829,13.10823 8.265298,12.989966 8.0902527,12.851696 7.9774056,12.762551 7.871393,12.666234 7.7722145,12.562746 7.6730388,12.459266 7.5840315,12.354633 7.5051926,12.248847 7.4263573,12.143061 7.3595995,12.036549 7.3049191,11.929317 7.2502426,11.822084 7.2109353,11.72012 7.1869961,11.62341 c -0.037122,-0.166624 -0.034764,-0.330688 0.00708,-0.492205 0.041844,-0.161503 0.1267399,-0.322108 0.2546887,-0.481807 0.1729784,-0.215888 0.363174,-0.354027 0.5705874,-0.414432 0.207416,-0.0604 0.4608091,-0.05015 0.7601808,0.03074 l -0.170864,0.558497 c -0.1713693,-0.03928 -0.3099655,-0.04467 -0.4157886,-0.01617 -0.1058213,0.0285 -0.2014284,0.09603 -0.2868215,0.202605 -0.092038,0.114876 -0.1421197,0.232026 -0.1502448,0.351451 -0.00812,0.119432 0.032261,0.253154 0.1211486,0.401163 0.055485,0.103334 0.1359068,0.211487 0.2412631,0.324459 0.1053588,0.112981 0.2173044,0.216291 0.3358375,0.309923 0.1524756,0.120445 0.307408,0.223385 0.4647977,0.308816 0.1573899,0.08543 0.2992228,0.141427 0.4254988,0.167986 0.2220179,0.03348 0.4015248,-0.03527 0.5385224,-0.206265 0.1145175,-0.142928 0.1679002,-0.292949 0.1601492,-0.450057 -0.0077,-0.157108 -0.076583,-0.286976 -0.2064871,-0.38959 l -0.1184902,-0.0936 -0.4108884,0.512821 -0.4488953,-0.354599 0.768013,-0.958554 0.567386,0.448208 z"
     id="path3913"
     style="fill:#000000;stroke:none" />
  <path
     inkscape:connector-curvature="0"
     d="M 13.576115,9.8234125 12.12961,8.9663428 11.594729,9.3945219 12.586309,10.615769 12.139739,10.973254 9.8644319,8.1709546 10.795364,7.4257358 c 0.109523,-0.087675 0.208693,-0.1567058 0.29751,-0.2070998 0.08882,-0.050386 0.181932,-0.086909 0.279339,-0.1095765 0.08666,-0.018822 0.17579,-0.02464 0.267389,-0.017453 0.0916,0.00719 0.181796,0.026991 0.270595,0.059375 0.0888,0.0324 0.172615,0.075722 0.251456,0.129977 0.07884,0.05427 0.146553,0.1162452 0.20314,0.1859257 0.06114,0.075312 0.110037,0.1569533 0.146681,0.2449223 0.03665,0.087969 0.06149,0.1784757 0.07452,0.2715042 0.01304,0.093037 0.01256,0.1865755 -0.0015,0.2806175 -0.01399,0.094042 -0.04198,0.1808816 -0.08393,0.260511 l 1.559969,0.9111305 z M 11.918222,7.82437 c -0.04753,-0.058541 -0.108231,-0.1019485 -0.18209,-0.1302245 -0.07386,-0.028268 -0.151369,-0.035262 -0.232528,-0.020981 -0.05233,0.00974 -0.09677,0.023487 -0.133333,0.041242 -0.03656,0.017754 -0.09135,0.055856 -0.16436,0.1143033 l -0.534881,0.428179 0.556935,0.6859278 0.53488,-0.4281787 c 0.07027,-0.056258 0.119279,-0.1000841 0.147018,-0.1314855 0.02774,-0.031402 0.05192,-0.071499 0.07253,-0.1202989 0.03135,-0.075629 0.04036,-0.1529846 0.02707,-0.232057 -0.0133,-0.079072 -0.04371,-0.1478787 -0.09125,-0.2064267 z"
     id="path3915"
     style="fill:#000000;stroke:none" />
  <path
     inkscape:connector-curvature="0"
     d="m 17.145769,7.7874602 -0.767422,-0.7517405 -1.015951,0.4928929 0.125631,1.0631017 -0.549366,0.2665298 -0.468413,-3.7790254 0.510348,-0.2475992 2.71454,2.689311 z M 15.174506,5.849735 15.285669,6.9200471 15.937106,6.6039975 z"
     id="path3917"
     style="fill:#000000;stroke:none" />
  <path
     inkscape:connector-curvature="0"
     d="M 20.862447,6.6871082 18.967196,4.613658 19.511907,6.992064 18.952563,7.1183585 18.148697,3.6083925 18.70804,3.4820902 20.508819,5.4336169 19.995304,3.1914233 20.554649,3.0651288 21.358515,6.5750949 z"
     id="path3919"
     style="fill:#000000;stroke:none" />
  <path
     inkscape:connector-curvature="0"
     d="m 25.366182,4.5702576 c 0.0086,0.3616858 -0.0389,0.6807603 -0.142399,0.9572234 -0.103505,0.2764554 -0.256176,0.4958712 -0.458012,0.6582477 -0.06703,0.066067 -0.146141,0.1162684 -0.237323,0.1505941 -0.09118,0.034334 -0.183571,0.056196 -0.27716,0.065603 l -0.205518,0.0048 -1.103517,0.025785 -0.08528,-3.598585 1.16839,-0.027301 c 0.09024,-0.00208 0.168769,-0.00124 0.235587,0.00263 0.06681,0.00387 0.127438,0.012301 0.181869,0.025352 0.05443,0.013051 0.103561,0.03161 0.147408,0.055678 0.04384,0.024067 0.09145,0.05338 0.142804,0.08793 0.195058,0.1603186 0.347227,0.3762145 0.456504,0.6477032 0.109275,0.2714888 0.168156,0.5862774 0.176644,0.9443581 z m -0.584196,0.013647 C 24.77622,4.3404519 24.744916,4.1244322 24.688095,3.9358453 24.631265,3.7472661 24.556683,3.6074795 24.46435,3.5164778 c -0.0479,-0.041845 -0.102839,-0.076365 -0.164813,-0.1035653 -0.06198,-0.027193 -0.130822,-0.039904 -0.206534,-0.03814 l -0.649069,0.015163 0.05804,2.4491077 0.573302,-0.013399 c 0.09376,-0.00216 0.171944,-0.014753 0.234548,-0.037707 0.06261,-0.022945 0.118567,-0.060087 0.167893,-0.1114177 0.10563,-0.10994 0.184174,-0.2595671 0.235624,-0.4488735 0.05145,-0.1893063 0.07433,-0.4038871 0.06865,-0.6437422 z"
     id="path3921"
     style="fill:#000000;stroke:none" />
  <path
     inkscape:connector-curvature="0"
     d="m 30.759323,5.6736886 c -0.216419,0.5300037 -0.580726,0.7950017 -1.092925,0.7950017 -0.270578,0 -0.49423,-0.051918 -0.670961,-0.1557542 C 28.818702,6.2091 28.6726,6.0461355 28.557126,5.8240274 28.474237,5.6628115 28.409345,5.4747583 28.362451,5.2598682 28.315557,5.0449857 28.292105,4.8247419 28.292115,4.599137 c -3e-6,-0.2864738 0.03605,-0.5604691 0.108151,-0.821978 0.0721,-0.2615011 0.171284,-0.4728095 0.297546,-0.6339172 0.108206,-0.1325841 0.23898,-0.2328925 0.392322,-0.3009406 0.153339,-0.068033 0.332769,-0.1020568 0.538288,-0.1020568 0.274207,0 0.500586,0.059105 0.679136,0.1773151 0.178549,0.1182102 0.329137,0.3044375 0.451768,0.5586665 l -0.535648,0.2257598 c -0.05053,-0.075197 -0.09654,-0.1378758 -0.13804,-0.1880532 -0.0415,-0.050162 -0.08479,-0.08957 -0.129866,-0.1182101 -0.04508,-0.028632 -0.09376,-0.048336 -0.146047,-0.059105 -0.05229,-0.010761 -0.112723,-0.016146 -0.181303,-0.016146 -0.147838,0 -0.271347,0.034025 -0.370526,0.1020568 -0.09918,0.068048 -0.179431,0.1826764 -0.240744,0.3438924 -0.04689,0.107449 -0.08207,0.2345944 -0.105512,0.3814365 -0.02345,0.1468498 -0.03517,0.2972737 -0.03517,0.4512794 -2e-6,0.1969653 0.01984,0.3858926 0.05952,0.5667897 0.03968,0.1808893 0.09558,0.3286133 0.167677,0.4431641 0.06495,0.093121 0.140709,0.1629644 0.227287,0.209529 0.08658,0.046565 0.192941,0.069843 0.319093,0.069843 0.122737,0 0.229184,-0.033119 0.31934,-0.099357 0.09016,-0.06623 0.171283,-0.172805 0.243387,-0.3197089 l 0.546545,0.2042915 z"
     id="path3923"
     style="fill:#000000;stroke:none" />
  <path
     inkscape:connector-curvature="0"
     d="m 32.022276,6.4042627 0,-3.5995908 2.137304,0 0,0.5695747 -1.563679,0 0,0.8810831 1.05511,0 0,0.5802275 -1.05511,0 0,0.9884702 1.677281,0 0,0.5802353 z"
     id="path3925"
     style="fill:#000000;stroke:none" />
  <path
     inkscape:connector-curvature="0"
     d="m 37.381527,6.4591128 -1.257155,-2.5064721 -0.126042,2.4359096 -0.572868,-0.029219 0.186006,-3.5948484 0.572869,0.029227 1.199566,2.3636684 0.118825,-2.2964093 0.572868,0.029219 -0.186007,3.5948484 z"
     id="path3927"
     style="fill:#000000;stroke:none" />
  <path
     inkscape:connector-curvature="0"
     d="M 41.25548,4.0030812 40.4993,7.0050532 39.942976,6.8668912 40.699158,3.8649192 39.895991,3.6654551 40.019431,3.175417 42.1925,3.715091 42.069059,4.2051369 z"
     id="path3929"
     style="fill:#000000;stroke:none" />
  <path
     inkscape:connector-curvature="0"
     d="m 44.16323,8.4141982 0.14865,-1.6660431 -0.620846,-0.2922064 -0.67669,1.4175156 -0.518343,-0.2439553 1.552751,-3.2526813 1.08055,0.5085666 c 0.127119,0.059832 0.232836,0.1185118 0.317148,0.176031 0.0843,0.057527 0.157907,0.1249174 0.2208,0.2021717 0.05474,0.069309 0.09876,0.1464862 0.132052,0.2315232 0.03328,0.085037 0.05454,0.174298 0.06376,0.267783 0.0092,0.093485 0.0063,0.1872717 -0.0086,0.2813525 -0.01495,0.094088 -0.04173,0.1815778 -0.08034,0.2624681 -0.04173,0.087412 -0.09453,0.166616 -0.158387,0.2376194 -0.06387,0.071011 -0.135155,0.1325609 -0.213867,0.1846569 -0.07872,0.052104 -0.163766,0.092333 -0.255143,0.1206857 -0.09139,0.028361 -0.182306,0.041088 -0.272769,0.038178 l -0.148366,1.7910068 z m 1.092548,-2.3514297 c 0.03244,-0.067955 0.04543,-0.1411017 0.03897,-0.2194391 -0.0064,-0.078329 -0.03381,-0.1506869 -0.08204,-0.2170563 -0.03158,-0.042558 -0.06337,-0.076326 -0.09535,-0.1013064 -0.03199,-0.024973 -0.09037,-0.057404 -0.175113,-0.097291 L 44.321399,5.135469 43.941327,5.9316389 44.562175,6.2238453 c 0.08156,0.038388 0.142615,0.063159 0.183156,0.074314 0.04053,0.011163 0.08742,0.015349 0.140637,0.012579 0.08222,-0.00488 0.156307,-0.030396 0.222247,-0.076659 0.06593,-0.046256 0.115123,-0.1033642 0.147565,-0.1713118 z"
     id="path3931"
     style="fill:#000000;stroke:none" />
  <path
     inkscape:connector-curvature="0"
     d="M 47.561297,10.721577 47.909583,9.7085832 47.020953,9.0143077 46.111305,9.5887176 45.630784,9.2132921 48.854818,7.1519029 49.30121,7.5006615 48.041817,11.097003 z m 0.900747,-2.6049929 -0.922468,0.5646078 0.569797,0.4451756 z"
     id="path3933"
     style="fill:#000000;stroke:none" />
  <path
     inkscape:connector-curvature="0"
     d="m 48.927483,12.042065 2.79811,-2.2886269 0.364713,0.4396289 -2.384673,1.950459 1.066419,1.285465 -0.413438,0.33816 z"
     id="path3935"
     style="fill:#000000;stroke:none" />
  <path
     inkscape:connector-curvature="0"
     d="m 19.771755,42.193704 c -0.0293,0.09225 -0.07156,0.177617 -0.126761,0.256079 -0.05522,0.07848 -0.11909,0.14859 -0.191618,0.210341 -0.07253,0.06176 -0.149854,0.111703 -0.231961,0.149836 -0.08212,0.03812 -0.166391,0.06246 -0.252835,0.07298 -0.09111,0.01285 -0.192382,0.0131 -0.303817,7.74e-4 -0.111439,-0.01236 -0.234243,-0.03955 -0.368411,-0.08155 l -0.639831,-0.200308 -0.475057,1.496101 -0.547078,-0.171266 1.090079,-3.432997 1.186909,0.371572 c 0.141097,0.04417 0.258207,0.0893 0.351331,0.135346 0.09312,0.04606 0.176202,0.103101 0.249251,0.171118 0.06367,0.0612 0.117852,0.131648 0.162545,0.211363 0.04469,0.07973 0.07891,0.165525 0.102647,0.257416 0.02373,0.0919 0.03555,0.18574 0.03544,0.281508 -7.8e-5,0.09578 -0.01373,0.186358 -0.04083,0.271728 z m -0.557313,-0.174476 c 0.02277,-0.07172 0.02467,-0.146215 0.0057,-0.2235 -0.01898,-0.07728 -0.05173,-0.143895 -0.09825,-0.199836 -0.03952,-0.0424 -0.07969,-0.07373 -0.120509,-0.09402 -0.04082,-0.02029 -0.104228,-0.04389 -0.190208,-0.07081 l -0.712114,-0.222937 -0.266823,0.840306 0.712114,0.222936 c 0.08598,0.02692 0.151551,0.0437 0.196712,0.05032 0.04516,0.0067 0.09564,0.0055 0.151442,-0.0034 0.06824,-0.01245 0.133263,-0.04748 0.195071,-0.105082 0.06181,-0.05761 0.104093,-0.122272 0.12687,-0.193995 z"
     id="path3976"
     style="fill:#000000;stroke:none" />
  <path
     inkscape:connector-curvature="0"
     d="M 22.555898,45.194663 22.31821,44.1506 l -1.12322,-0.129242 -0.471868,0.962406 -0.607372,-0.06988 1.658966,-3.432774 0.564233,0.06492 0.82432,3.718528 z m -0.606882,-2.687524 -0.487962,0.96072 0.720219,0.08287 z"
     id="path3978"
     style="fill:#000000;stroke:none" />
  <path
     inkscape:connector-curvature="0"
     d="m 26.437692,45.232802 -0.584358,-1.568697 -0.687061,0 0,1.568697 -0.573625,0 0,-3.599582 1.195795,0 c 0.140681,8e-6 0.261519,0.008 0.362519,0.02418 0.100997,0.01613 0.196572,0.04572 0.28673,0.08878 0.07936,0.03935 0.15243,0.09036 0.219196,0.153054 0.06676,0.06268 0.12447,0.134302 0.173127,0.214859 0.04865,0.08056 0.08652,0.166523 0.113601,0.257896 0.02707,0.09138 0.04062,0.181826 0.04062,0.271342 -4e-6,0.09673 -0.01355,0.190761 -0.04062,0.282079 -0.02708,0.09132 -0.06495,0.177261 -0.113601,0.25782 -0.04866,0.08056 -0.108156,0.153077 -0.178495,0.217566 -0.07035,0.06448 -0.147014,0.114652 -0.23001,0.150501 l 0.638516,1.6815 z m -0.02708,-2.589466 c -3e-6,-0.0752 -0.01982,-0.146819 -0.05944,-0.214859 -0.03963,-0.06804 -0.09556,-0.121784 -0.167763,-0.161247 -0.04689,-0.02502 -0.09019,-0.04202 -0.129865,-0.05099 -0.03968,-0.0089 -0.106421,-0.01345 -0.200209,-0.01345 l -0.687061,0 0,0.881084 0.687061,0 c 0.09026,0 0.15612,-0.0036 0.197566,-0.01074 0.04144,-0.0071 0.08561,-0.02331 0.132508,-0.04845 0.07221,-0.03934 0.12813,-0.09394 0.167763,-0.163784 0.03962,-0.06985 0.05943,-0.142363 0.05944,-0.217567 z"
     id="path3980"
     style="fill:#000000;stroke:none" />
  <path
     inkscape:connector-curvature="0"
     d="m 30.158313,45.232802 -0.919716,-1.702975 -0.378782,0.46727 0,1.235705 -0.573625,0 0,-3.599582 0.573625,0 0,1.429182 1.141632,-1.429182 0.741223,0 -1.120005,1.40229 1.195794,2.197292 z"
     id="path3982"
     style="fill:#000000;stroke:none" />
  <path
     inkscape:connector-curvature="0"
     d="m 34.41821,45.232802 -0.508568,0 -0.573625,-2.310095 -0.557276,2.310095 -0.508566,0 -0.535649,-3.599582 0.584356,0 0.281364,1.896607 0.459858,-1.896607 0.557277,0 0.470755,1.896607 0.281364,-1.896607 0.584356,0 z"
     id="path3984"
     style="fill:#000000;stroke:none" />
  <path
     inkscape:connector-curvature="0"
     d="m 38.667501,45.070875 -0.444557,-0.975148 -1.12642,0.09798 -0.267026,1.037046 -0.609105,0.05299 0.928815,-3.694167 0.565844,-0.04921 1.561553,3.477536 z m -1.139485,-2.511129 -0.283129,1.038609 0.722271,-0.06283 z"
     id="path3986"
     style="fill:#000000;stroke:none" />
  <path
     inkscape:connector-curvature="0"
     d="m 41.871969,42.751535 0.45324,1.502762 -0.549354,0.163351 -0.453239,-1.502761 -1.804906,-1.583289 0.658339,-0.195766 1.23136,1.086373 0.43758,-1.582647 0.6479,-0.192656 z"
     id="path3988"
     style="fill:#000000;stroke:none" />
</svg>
