<?xml version="1.0" encoding="UTF-8" standalone="no"?>
<!-- Created with Inkscape (http://www.inkscape.org/) -->

<svg
   xmlns:dc="http://purl.org/dc/elements/1.1/"
   xmlns:cc="http://creativecommons.org/ns#"
   xmlns:rdf="http://www.w3.org/1999/02/22-rdf-syntax-ns#"
   xmlns:svg="http://www.w3.org/2000/svg"
   xmlns="http://www.w3.org/2000/svg"
   xmlns:sodipodi="http://sodipodi.sourceforge.net/DTD/sodipodi-0.dtd"
   xmlns:inkscape="http://www.inkscape.org/namespaces/inkscape"
   version="1.0"
   width="48"
   height="72"
   id="svg2"
   inkscape:version="0.48.1 r9760"
   sodipodi:docname="US:NY-RMSP.svg">
  <metadata
     id="metadata3254">
    <rdf:RDF>
      <cc:Work
         rdf:about="">
        <dc:format>image/svg+xml</dc:format>
        <dc:type
           rdf:resource="http://purl.org/dc/dcmitype/StillImage" />
      </cc:Work>
    </rdf:RDF>
  </metadata>
  <sodipodi:namedview
     pagecolor="#ffffff"
     bordercolor="#666666"
     borderopacity="1"
     objecttolerance="10"
     gridtolerance="10"
     guidetolerance="10"
     inkscape:pageopacity="0"
     inkscape:pageshadow="2"
     inkscape:window-width="1278"
     inkscape:window-height="996"
     id="namedview3252"
     showgrid="true"
     inkscape:showpageshadow="false"
     inkscape:zoom="11.263889"
     inkscape:cx="24"
     inkscape:cy="36"
     inkscape:window-x="1"
     inkscape:window-y="27"
     inkscape:window-maximized="0"
     inkscape:current-layer="svg2">
    <inkscape:grid
       type="xygrid"
       id="grid3558"
       empspacing="5"
       visible="true"
       enabled="true"
       snapvisiblegridlinesonly="true" />
  </sodipodi:namedview>
  <defs
     id="defs4" />
  <path
     d="m 24.009705,1.0000008 c -9.513602,0 -12.910279,9.4902182 -20.3987598,9.4902182 0,0 -1.6109395,0 -1.6109395,0 0,0 0,48.473416 0,48.473416 0,2.30384 1.5257412,4.010974 3.6294653,4.822292 0,0 18.380234,7.214078 18.380234,7.214078 0,0 18.360821,-7.214078 18.360821,-7.214078 2.103724,-0.811318 3.629469,-2.518452 3.629469,-4.822292 0,0 0,-48.473416 0,-48.473416 0,0 -1.610939,0 -1.610939,0 -7.488484,0 -10.86575,-9.49024456 -20.379351,-9.4902182 z"
     id="rect1571"
     style="fill:#006b54;stroke:none"
     inkscape:connector-curvature="0" />
  <path
     d="m 6.8515792,22.298116 0,-7.775945 3.3250438,0 c 0.83615,0 1.443696,0.07009 1.822639,0.209523 0.378933,0.139683 0.682259,0.388054 0.909986,0.745221 0.227708,0.357137 0.341567,0.765566 0.341575,1.225305 -8e-6,0.583427 -0.172575,1.065226 -0.517702,1.445375 -0.345144,0.380145 -0.861067,0.619688 -1.547775,0.718704 0.341571,0.197928 0.623552,0.415516 0.845938,0.652396 0.222378,0.236932 0.522147,0.657747 0.899312,1.262415 l 0.955349,1.517006 -1.889353,0 -1.142149,-1.69203 C 10.448814,20.001391 10.171284,19.620347 10.021848,19.462981 9.8724027,19.305905 9.7140687,19.197769 9.5468405,19.139444 9.3796067,19.080948 9.114529,19.051951 8.7516035,19.051951 l -0.3202276,0 0,3.246171 -1.5797967,0 z m 1.5797967,-4.487369 1.1688365,0 c 0.7578706,0 1.2310966,-0.03163 1.4196826,-0.0954 0.188573,-0.06378 0.336235,-0.173155 0.442982,-0.32886 0.106738,-0.155496 0.160111,-0.350078 0.160116,-0.583478 -5e-6,-0.261708 -0.07028,-0.472945 -0.210819,-0.633871 -0.14055,-0.160766 -0.338914,-0.262496 -0.595092,-0.30498 -0.128098,-0.01844 -0.512373,-0.02636 -1.1528252,-0.02636 l -1.2328819,0 0,1.973164 z m 5.9562611,1.591274 c 0,-0.495056 0.122755,-0.974194 0.368265,-1.437438 0.245506,-0.463221 0.593312,-0.816854 1.043412,-1.060824 0.450097,-0.244049 0.952679,-0.365995 1.507745,-0.365995 0.8575,0 1.560224,0.276705 2.108175,0.830083 0.547943,0.553408 0.821916,1.25269 0.821923,2.097848 -7e-6,0.852196 -0.276649,1.558542 -0.829929,2.118986 -0.553288,0.560498 -1.249786,0.840732 -2.089494,0.840732 -0.519486,0 -1.01495,-0.116756 -1.486397,-0.350077 -0.471448,-0.233506 -0.829928,-0.575519 -1.075435,-1.026351 -0.245511,-0.450886 -0.368265,-0.999839 -0.368265,-1.646964 l 0,0 z m 1.537101,0.07986 c -2e-6,0.558679 0.13343,0.986555 0.400286,1.283579 0.266854,0.29705 0.595979,0.445588 0.987372,0.445588 0.391389,0 0.719625,-0.148381 0.984706,-0.445588 0.265072,-0.297024 0.397613,-0.728431 0.397618,-1.294199 -5e-6,-0.551641 -0.132545,-0.975986 -0.397618,-1.273009 -0.26508,-0.29705 -0.593317,-0.445588 -0.984706,-0.445588 -0.391393,0 -0.720518,0.148379 -0.987372,0.445588 -0.26686,0.297023 -0.400288,0.7249 -0.400286,1.283629 l 0,0 z m 5.427885,2.816504 0,-7.775946 1.499737,0 0,2.800608 c 0.462553,-0.52336 1.0105,-0.785014 1.643846,-0.785014 0.690266,0 1.261342,0.248527 1.713226,0.745246 0.451871,0.496795 0.677811,1.210256 0.677816,2.140225 -5e-6,0.961833 -0.230402,1.702654 -0.691158,2.222457 -0.460779,0.519829 -1.020291,0.779718 -1.678536,0.779718 -0.323789,0 -0.64313,-0.08065 -0.958018,-0.241413 -0.314896,-0.160768 -0.586202,-0.398728 -0.813917,-0.713488 l 0,0.827501 -1.392996,0 z m 1.489064,-2.938528 c -1e-6,0.583452 0.09252,1.014887 0.277532,1.294225 0.259739,0.396067 0.604875,0.594073 1.035408,0.594073 0.3309,0 0.612879,-0.140736 0.845937,-0.421709 0.23306,-0.281131 0.349582,-0.724005 0.349587,-1.328671 -5e-6,-0.643596 -0.117432,-1.107709 -0.352252,-1.392347 -0.234843,-0.284687 -0.535501,-0.427006 -0.901981,-0.427006 -0.35937,0 -0.658251,0.138891 -0.896641,0.416386 -0.238395,0.277598 -0.357591,0.699256 -0.35759,1.265049 l 0,0 z m 8.539445,1.145687 1.494406,0.24932 c -0.19216,0.544577 -0.495472,0.959174 -0.909988,1.243837 -0.414523,0.284635 -0.933118,0.426978 -1.555781,0.426978 -0.985595,0 -1.715001,-0.320003 -2.18823,-0.960066 -0.373603,-0.512741 -0.560399,-1.159842 -0.560399,-1.941327 0,-0.933553 0.245523,-1.664646 0.736527,-2.193304 0.491013,-0.528633 1.111905,-0.792949 1.862664,-0.792949 0.843269,0 1.508629,0.276703 1.996094,0.830081 0.487455,0.553408 0.720515,1.401202 0.699166,2.543382 l -3.757356,0 c 0.01059,0.44203 0.13165,0.785888 0.362926,1.031677 0.231279,0.245895 0.519482,0.368631 0.864619,0.368631 0.234865,0 0.432308,-0.06378 0.592426,-0.191075 0.160112,-0.127296 0.28109,-0.332419 0.362926,-0.615316 l 0,0 z m 0.08538,-1.506359 c -0.01059,-0.431407 -0.122777,-0.759398 -0.336241,-0.983917 -0.213501,-0.224547 -0.473232,-0.336846 -0.779226,-0.336846 -0.327351,0 -0.597764,0.118598 -0.81125,0.355373 -0.213501,0.236932 -0.318449,0.558704 -0.314888,0.96539 l 2.241605,0 z m 4.152304,3.2992 -1.499742,0 0,-5.633058 1.392999,0 0,0.800933 c 0.238399,-0.378352 0.452767,-0.627673 0.643125,-0.74788 0.190352,-0.12018 0.406514,-0.180268 0.648462,-0.180268 0.341578,0 0.670703,0.09382 0.987376,0.281104 l -0.464331,1.29955 c -0.252616,-0.162612 -0.487463,-0.244051 -0.704506,-0.244051 -0.209939,0 -0.387833,0.05745 -0.533711,0.172363 -0.145895,0.114911 -0.260643,0.322693 -0.344251,0.623274 -0.08364,0.300555 -0.125431,0.929971 -0.125405,1.888271 l 0,1.739787 z m 5.411871,-5.633058 0,1.188147 -1.024732,0 0,2.270182 c -4e-6,0.459688 0.0099,0.727564 0.02937,0.803573 0.01966,0.07616 0.06404,0.138892 0.133432,0.188438 0.06938,0.04929 0.153893,0.07459 0.253521,0.07459 0.138773,0 0.339796,-0.04771 0.6031,-0.143373 l 0.128089,1.156308 c -0.348696,0.148643 -0.743646,0.222702 -1.184847,0.222702 -0.270416,0 -0.514146,-0.04507 -0.731191,-0.135466 -0.217033,-0.09013 -0.376268,-0.206888 -0.477671,-0.35005 -0.101441,-0.143371 -0.171671,-0.336819 -0.210842,-0.58084 -0.03203,-0.173154 -0.04805,-0.52331 -0.04805,-1.050205 l 0,-2.45583 -0.688489,0 0,-1.188145 0.688489,0 0,-1.119202 1.505079,-0.869879 0,1.989081 1.024732,0 z m -33.6080508,15.409783 0,-7.775974 2.3643581,0 1.4196827,5.304197 1.403671,-5.304197 2.369695,0 0,7.775974 -1.467717,0 0,-6.12105 -1.553111,6.12105 -1.521088,0 -1.5477737,-6.12105 0,6.12105 -1.4677171,0 z m 8.7796188,-2.896098 c 0,-0.495029 0.122756,-0.974194 0.368264,-1.437412 0.245507,-0.463272 0.593312,-0.816907 1.043413,-1.060851 0.450097,-0.244047 0.95268,-0.36602 1.507746,-0.36602 0.857498,0 1.560221,0.27673 2.108175,0.830109 0.54794,0.553433 0.821916,1.252715 0.821921,2.097822 -5e-6,0.852195 -0.276647,1.558542 -0.829928,2.119039 -0.553287,0.560469 -1.249788,0.840704 -2.089493,0.840704 -0.519486,0 -1.014953,-0.116753 -1.486398,-0.350076 -0.47145,-0.233507 -0.829927,-0.575491 -1.075436,-1.026378 -0.245507,-0.450858 -0.368264,-0.999811 -0.368264,-1.646937 l 0,0 z m 1.5371,0.07986 c -1e-6,0.558677 0.133432,0.986581 0.400287,1.28363 0.266854,0.297022 0.595978,0.445535 0.987372,0.445535 0.391389,0 0.719623,-0.148381 0.984704,-0.445535 0.265072,-0.297049 0.397614,-0.728459 0.397618,-1.294253 -4e-6,-0.551585 -0.132545,-0.97596 -0.397618,-1.273007 -0.26508,-0.296999 -0.593315,-0.445537 -0.984704,-0.445563 -0.391394,2.6e-5 -0.720518,0.148382 -0.987372,0.445563 -0.26686,0.297047 -0.400288,0.724927 -0.400287,1.28363 l 0,0 z M 22.702907,30.468235 24.207983,30.24 c 0.06404,0.289959 0.193914,0.510051 0.389612,0.660355 0.195695,0.150225 0.469669,0.225337 0.821923,0.225337 0.38783,0 0.679591,-0.0709 0.875294,-0.212161 0.131652,-0.09909 0.197477,-0.231661 0.197477,-0.397777 -6e-6,-0.113064 -0.03559,-0.20689 -0.106748,-0.281158 -0.07474,-0.0709 -0.241963,-0.136257 -0.501691,-0.196346 -1.209762,-0.265213 -1.976531,-0.507417 -2.300318,-0.726692 -0.448321,-0.304087 -0.672481,-0.72664 -0.672481,-1.267686 0,-0.487992 0.193918,-0.898186 0.58175,-1.230577 0.387833,-0.332419 0.989151,-0.498614 1.803958,-0.498614 0.775664,0 1.352077,0.125715 1.729239,0.376644 0.377153,0.251164 0.636897,0.622323 0.779221,1.113847 l -1.414339,0.259865 c -0.06051,-0.219278 -0.17526,-0.387186 -0.344251,-0.503887 -0.169015,-0.116753 -0.410076,-0.174997 -0.723184,-0.174997 -0.394953,0 -0.677821,0.05456 -0.848608,0.164191 -0.113872,0.07801 -0.170793,0.178426 -0.170793,0.302321 -4e-6,0.105942 0.04983,0.196346 0.149428,0.270512 0.135211,0.09909 0.602207,0.238778 1.401005,0.41902 0.798791,0.180269 1.356522,0.401363 1.673197,0.663043 0.313105,0.265212 0.469662,0.63474 0.469667,1.108606 -5e-6,0.516245 -0.217061,0.960042 -0.651131,1.331334 -0.434093,0.371266 -1.076325,0.556938 -1.926713,0.556938 -0.772112,0 -1.383214,-0.155494 -1.833312,-0.466776 -0.450103,-0.311149 -0.744534,-0.733756 -0.8833,-1.267686 l 0,0 z m 9.895084,-0.185805 1.4944,0.249321 c -0.192163,0.544551 -0.495471,0.959172 -0.909987,1.243807 -0.41452,0.284689 -0.933117,0.427008 -1.555777,0.427008 -0.985596,0 -1.715005,-0.320031 -2.188234,-0.960041 -0.373597,-0.512741 -0.560397,-1.159867 -0.560397,-1.941351 0,-0.933527 0.24552,-1.664621 0.736525,-2.193279 0.491013,-0.528661 1.111905,-0.793004 1.862667,-0.793004 0.843267,0 1.50863,0.27673 1.996094,0.83011 0.487458,0.553434 0.720507,1.401229 0.699167,2.543384 l -3.757355,0 c 0.01059,0.442002 0.131653,0.78591 0.362925,1.031646 0.231277,0.245896 0.519482,0.36866 0.864619,0.36866 0.234839,0 0.432306,-0.06351 0.592426,-0.191077 0.160112,-0.127295 0.281084,-0.332366 0.362927,-0.615288 l 0,0 z m 0.08539,-1.506384 c -0.01059,-0.431384 -0.12278,-0.759374 -0.336249,-0.983893 -0.2135,-0.224547 -0.473231,-0.336847 -0.779221,-0.336847 -0.327348,0 -0.597766,0.118599 -0.811249,0.355399 -0.2135,0.236933 -0.318452,0.558731 -0.314891,0.965339 l 2.241605,0 z m 2.188233,1.692057 1.505076,-0.228236 c 0.06404,0.289959 0.193942,0.510052 0.389615,0.660356 0.195695,0.150224 0.469665,0.225338 0.821918,0.225338 0.387831,0 0.679596,-0.0709 0.875296,-0.212161 0.13165,-0.09909 0.197477,-0.231662 0.197477,-0.397779 -5e-6,-0.113064 -0.03559,-0.206889 -0.106748,-0.281157 -0.07474,-0.0709 -0.241961,-0.136257 -0.501694,-0.196345 -1.20976,-0.265217 -1.976529,-0.507419 -2.300314,-0.726695 -0.448321,-0.304087 -0.672482,-0.72664 -0.672482,-1.267687 0,-0.487991 0.193941,-0.898185 0.58175,-1.230575 0.387834,-0.332419 0.989146,-0.498615 1.80396,-0.498615 0.775663,0 1.352075,0.125716 1.729239,0.376644 0.377151,0.251163 0.636891,0.622325 0.779221,1.113849 l -1.414347,0.260127 c -0.06051,-0.219278 -0.175257,-0.387186 -0.344246,-0.503886 -0.169014,-0.116754 -0.410072,-0.174999 -0.723181,-0.174999 -0.394955,0 -0.677823,0.05456 -0.848609,0.164191 -0.113846,0.07801 -0.170796,0.178427 -0.170796,0.302321 0,0.105942 0.04981,0.196346 0.149428,0.270512 0.135213,0.09909 0.602208,0.238778 1.401005,0.41902 0.798793,0.180269 1.356522,0.401364 1.673199,0.663044 0.313106,0.265213 0.469659,0.63474 0.469663,1.108604 -4e-6,0.516247 -0.217034,0.960043 -0.651127,1.331337 -0.434094,0.371291 -1.076329,0.556937 -1.926716,0.556937 -0.772108,0 -1.383211,-0.155495 -1.833308,-0.466776 -0.450102,-0.31115 -0.744532,-0.733757 -0.883299,-1.267686 l 0,0 z m -24.187978,8.853714 1.537101,-0.148381 c 0.0925,0.512767 0.280196,0.889357 0.563069,1.129821 0.282864,0.240624 0.664471,0.360698 1.14482,0.360698 0.508804,0 0.892187,-0.107004 1.150157,-0.320926 0.257954,-0.214005 0.386937,-0.464117 0.386943,-0.750545 -6e-6,-0.183696 -0.05426,-0.340324 -0.162783,-0.469438 -0.108525,-0.129141 -0.297996,-0.241413 -0.568406,-0.336768 -0.185026,-0.06378 -0.606661,-0.17658 -1.264905,-0.339481 -0.846833,-0.208732 -1.441034,-0.46501 -1.782611,-0.769123 -0.480343,-0.427878 -0.720515,-0.949446 -0.720514,-1.564709 -10e-7,-0.396039 0.112971,-0.766488 0.33891,-1.111241 0.225936,-0.344779 0.551502,-0.607354 0.976697,-0.787651 0.425192,-0.18027 0.938446,-0.270537 1.53977,-0.270537 0.98203,0 1.721224,0.214005 2.217588,0.641777 0.496346,0.427902 0.756977,0.998993 0.781891,1.713272 l -1.579797,0.06905 c -0.06761,-0.399572 -0.212602,-0.686869 -0.43498,-0.86192 -0.222385,-0.174999 -0.555956,-0.262498 -1.000715,-0.262498 -0.458998,0 -0.818366,0.09356 -1.078105,0.281104 -0.167233,0.12018 -0.250846,0.281131 -0.250846,0.482696 -2e-6,0.183959 0.07827,0.341247 0.234838,0.472048 0.199254,0.166039 0.683153,0.339482 1.451707,0.519829 0.768546,0.180271 1.336951,0.366865 1.70522,0.559574 0.368258,0.19292 0.656464,0.456209 0.864621,0.79034 0.208141,0.334184 0.312213,0.747012 0.31222,1.238563 -7e-6,0.445508 -0.124542,0.86279 -0.373598,1.25174 -0.249071,0.389004 -0.601325,0.678068 -1.056758,0.867299 -0.455444,0.18923 -1.022959,0.283713 -1.702552,0.283713 -0.989155,0 -1.748808,-0.227181 -2.278963,-0.681571 -0.530158,-0.454392 -0.846829,-1.116514 -0.950013,-1.986419 l 0,0 z m 10.290029,-3.102983 0,1.188145 -1.024732,0 0,2.270211 c -4e-6,0.459714 0.0097,0.727588 0.02936,0.803596 0.01959,0.07616 0.06404,0.138892 0.133431,0.188439 0.06939,0.04928 0.153887,0.07433 0.253511,0.07433 0.138769,0 0.339797,-0.04771 0.603099,-0.143373 l 0.128096,1.156283 c -0.348697,0.14838 -0.743648,0.222702 -1.184848,0.222702 -0.270419,0 -0.514148,-0.04507 -0.73119,-0.135466 -0.217046,-0.09013 -0.376271,-0.206888 -0.477675,-0.350077 -0.101408,-0.143371 -0.171679,-0.336818 -0.210819,-0.580816 -0.03203,-0.173154 -0.04804,-0.523335 -0.04804,-1.050202 l 0,-2.455884 -0.688494,0 0,-1.188119 0.688494,0 0,-1.119173 1.505076,-0.869881 0,1.989054 1.024732,0 z m 2.172222,1.718596 -1.360974,-0.244049 c 0.152998,-0.544551 0.416296,-0.947653 0.789898,-1.209361 0.373599,-0.261443 0.928663,-0.392455 1.665193,-0.392455 0.66892,0 1.167052,0.07879 1.494404,0.236142 0.327341,0.15734 0.557725,0.357166 0.691162,0.599344 0.13343,0.242468 0.200132,0.686922 0.200132,1.334021 l -0.0162,1.739787 c -4e-6,0.495082 0.02418,0.860153 0.07208,1.095323 0.04805,0.235088 0.137867,0.487096 0.269524,0.755814 l -1.483722,0 c -0.03915,-0.09909 -0.0872,-0.245894 -0.144115,-0.440185 -0.02498,-0.08856 -0.04271,-0.146534 -0.05337,-0.174998 -0.256178,0.247737 -0.530162,0.4332 -0.821921,0.556938 -0.291769,0.123869 -0.603103,0.185541 -0.934002,0.185541 -0.583529,0 -1.043416,-0.157078 -1.379654,-0.472048 -0.336242,-0.314709 -0.504362,-0.712488 -0.504362,-1.193445 0,-0.318265 0.07649,-0.602006 0.229495,-0.851325 0.153,-0.249319 0.367374,-0.440236 0.643129,-0.572831 0.275751,-0.132566 0.673369,-0.248529 1.192853,-0.34744 0.700944,-0.130985 1.186624,-0.25301 1.457044,-0.365994 l 0,-0.148644 c -5e-6,-0.286428 -0.07117,-0.490603 -0.213501,-0.612626 -0.142332,-0.122025 -0.410966,-0.182906 -0.805911,-0.182906 -0.266861,0 -0.47501,0.05192 -0.624448,0.156286 -0.149443,0.104364 -0.270416,0.287325 -0.362926,0.549006 l 0,0 z m 2.00677,1.209336 c -0.192134,0.06351 -0.496358,0.139682 -0.912653,0.228234 -0.4163,0.08856 -0.688495,0.175 -0.816585,0.260127 -0.195695,0.138101 -0.293545,0.312968 -0.293543,0.525102 -2e-6,0.208732 0.07827,0.388976 0.234832,0.541044 0.156555,0.151807 0.355807,0.228238 0.59776,0.228238 0.270414,0 0.528377,-0.08829 0.773888,-0.265187 0.181451,-0.134411 0.300656,-0.298788 0.357589,-0.49329 0.03915,-0.127296 0.05871,-0.369526 0.05871,-0.726665 l 0,-0.297051 z m 5.555978,-2.927932 0,1.188145 -1.024736,0 0,2.270211 c -3e-6,0.459714 0.0099,0.727588 0.02937,0.803596 0.01966,0.07616 0.06404,0.138892 0.133432,0.188439 0.06939,0.04928 0.153893,0.07433 0.253521,0.07433 0.138772,0 0.339797,-0.04771 0.603098,-0.143373 l 0.128091,1.156283 c -0.3487,0.14838 -0.743647,0.222702 -1.184851,0.222702 -0.270415,0 -0.514144,-0.04507 -0.731189,-0.135466 -0.21706,-0.09013 -0.376272,-0.206888 -0.477675,-0.350077 -0.101408,-0.143371 -0.171672,-0.336818 -0.210843,-0.580816 -0.03203,-0.173154 -0.04805,-0.523335 -0.04805,-1.050202 l 0,-2.455884 -0.688496,0 0,-1.188119 0.688496,0 0,-1.119173 1.505074,-0.869881 0,1.989054 1.024735,0 z m 4.333765,3.840268 1.494404,0.249322 c -0.192161,0.544551 -0.495469,0.959172 -0.909985,1.243834 -0.414521,0.284637 -0.933113,0.426955 -1.555781,0.426955 -0.985597,0 -1.715004,-0.319979 -2.188232,-0.960042 -0.373602,-0.512715 -0.560403,-1.159814 -0.560403,-1.941325 0,-0.933527 0.245523,-1.66462 0.736529,-2.193278 0.491016,-0.528662 1.111903,-0.792951 1.862666,-0.792951 0.843266,0 1.50863,0.276651 1.996097,0.830084 0.487453,0.553407 0.720507,1.401174 0.699162,2.543357 l -3.75735,0 c 0.01058,0.442002 0.131651,0.785912 0.362926,1.031674 0.231279,0.245893 0.519478,0.36863 0.864617,0.36863 0.234839,0 0.432307,-0.06351 0.592422,-0.191076 0.160111,-0.127295 0.281088,-0.332418 0.362928,-0.615288 l 0,0 z m 0.08538,-1.506409 c -0.01058,-0.431409 -0.122774,-0.759347 -0.33624,-0.98392 -0.213499,-0.224545 -0.473229,-0.336793 -0.779225,-0.336793 -0.327347,0 -0.597765,0.118599 -0.811248,0.355375 -0.213498,0.236932 -0.318451,0.558703 -0.31489,0.965338 l 2.241603,0 z m -24.641635,13.075979 0,-7.775945 2.535147,0 c 0.960683,2.7e-5 1.586909,0.03874 1.878679,0.116752 0.448313,0.116755 0.823693,0.370397 1.126139,0.761113 0.302431,0.390767 0.45365,0.895551 0.453658,1.51437 -8e-6,0.477372 -0.08718,0.878762 -0.261522,1.204063 -0.174352,0.32533 -0.395845,0.580817 -0.664474,0.766436 -0.268643,0.185805 -0.541727,0.308567 -0.819253,0.368683 -0.377162,0.07406 -0.923329,0.111486 -1.638504,0.111486 l -1.030071,0 0,2.933203 -1.579797,0 z m 1.579797,-6.460505 0,2.206537 0.864619,0 c 0.622663,0 1.038961,-0.04058 1.248893,-0.122024 0.209925,-0.08143 0.374484,-0.208734 0.493687,-0.381913 0.119193,-0.173156 0.178792,-0.374824 0.178797,-0.60467 -5e-6,-0.282869 -0.08363,-0.516297 -0.250844,-0.700177 -0.167223,-0.183701 -0.378931,-0.298795 -0.63511,-0.344758 -0.188587,-0.03532 -0.567522,-0.05298 -1.136815,-0.05298 l -0.763212,0 z m 5.657382,6.460505 0,-7.775945 1.49974,0 0,4.126671 1.755922,-1.983756 1.846654,0 -1.937385,2.058025 2.076153,3.575005 -1.617157,0 -1.425021,-2.530074 -0.699166,0.726666 0,1.803408 -1.49974,0 z m 7.19448,0 -1.793283,-5.63303 1.457044,0 1.062092,3.691732 0.9767,-3.691732 1.446371,0 0.944673,3.691732 1.083441,-3.691732 1.478393,0 -1.819972,5.63303 -1.441027,0 -0.9767,-3.622735 -0.960688,3.622735 -1.457044,0 z m 6.730154,-5.63303 1.595807,0 1.355635,3.99935 1.323613,-3.99935 1.553113,0 -2.001432,5.420871 -0.357591,0.981282 c -0.131648,0.328887 -0.25708,0.57992 -0.376269,0.75318 -0.119186,0.173152 -0.256205,0.313864 -0.410958,0.421711 -0.154772,0.107792 -0.345142,0.191863 -0.571078,0.251955 -0.225938,0.06008 -0.481234,0.09014 -0.765878,0.09014 -0.288214,0 -0.571076,-0.02979 -0.848607,-0.09014 l -0.133417,-1.166908 c 0.23484,0.04586 0.44654,0.06905 0.635119,0.06905 0.348694,0 0.606657,-0.101734 0.773891,-0.305035 0.167233,-0.203463 0.295318,-0.462348 0.384272,-0.777032 L 31.64797,45.995743 z"
     id="text1352"
     style="fill:#ffffff;stroke:none"
     inkscape:connector-curvature="0" />
  <path
     d="m 30.350331,61.045275 c 0,3.484132 -2.842017,6.308619 -6.347811,6.308619 -3.5058,0 -6.347807,-2.824487 -6.347807,-6.308619 0,-3.484185 2.842007,-6.308592 6.347807,-6.308592 3.505794,0 6.347811,2.824407 6.347811,6.308592 z"
     id="path1361"
     style="fill:#ffffff;stroke:none"
     inkscape:connector-curvature="0" />
  <path
     d="m 24.002513,66.972165 0,-1.263046"
     id="path2249"
     style="fill:none;stroke:#006b54;stroke-width:0.2742362;stroke-linecap:square;stroke-linejoin:miter;stroke-miterlimit:4;stroke-opacity:1;stroke-dasharray:none"
     inkscape:connector-curvature="0" />
  <path
     d="m 24.003897,55.856225 -0.704225,1.62667 -1.229636,0.07406 -0.112791,2.178943 -0.852767,-0.344517 -0.291591,0.590568 -0.558427,0.05482 0.121039,0.377274 -0.569429,0.04348 0.872025,2.977217 -0.750998,0 c 0.665024,1.144739 2.09092,2.27456 4.0768,2.27456 1.98588,0 3.409022,-1.129821 4.074048,-2.27456 l -0.751003,0 0.872031,-2.977217 -0.569431,-0.04348 0.121046,-0.377274 -0.558425,-0.05482 -0.291594,-0.59057 -0.852769,0.344515 -0.112809,-2.178941 -1.229641,-0.07406 -0.701471,-1.626671 z"
     id="path3360"
     style="fill:none;stroke:#006b54;stroke-width:0.54847246;stroke-linecap:square;stroke-linejoin:miter;stroke-miterlimit:4;stroke-opacity:1;stroke-dasharray:none"
     inkscape:connector-curvature="0" />
</svg>
