<?xml version="1.0" encoding="UTF-8" standalone="no"?>
<!-- Created with Inkscape (http://www.inkscape.org/) -->

<svg
   xmlns:dc="http://purl.org/dc/elements/1.1/"
   xmlns:cc="http://creativecommons.org/ns#"
   xmlns:rdf="http://www.w3.org/1999/02/22-rdf-syntax-ns#"
   xmlns:svg="http://www.w3.org/2000/svg"
   xmlns="http://www.w3.org/2000/svg"
   xmlns:sodipodi="http://sodipodi.sourceforge.net/DTD/sodipodi-0.dtd"
   xmlns:inkscape="http://www.inkscape.org/namespaces/inkscape"
   version="1.0"
   width="60"
   height="48"
   id="svg2"
   inkscape:version="0.48.1 r9760"
   sodipodi:docname="US:NY-CCP.svg">
  <metadata
     id="metadata3045">
    <rdf:RDF>
      <cc:Work
         rdf:about="">
        <dc:format>image/svg+xml</dc:format>
        <dc:type
           rdf:resource="http://purl.org/dc/dcmitype/StillImage" />
      </cc:Work>
    </rdf:RDF>
  </metadata>
  <sodipodi:namedview
     pagecolor="#ffffff"
     bordercolor="#666666"
     borderopacity="1"
     objecttolerance="10"
     gridtolerance="10"
     guidetolerance="10"
     inkscape:pageopacity="0"
     inkscape:pageshadow="2"
     inkscape:window-width="1278"
     inkscape:window-height="996"
     id="namedview3043"
     showgrid="true"
     inkscape:showpageshadow="false"
     inkscape:zoom="16.895833"
     inkscape:cx="30"
     inkscape:cy="24"
     inkscape:window-x="1"
     inkscape:window-y="27"
     inkscape:window-maximized="0"
     inkscape:current-layer="svg2">
    <inkscape:grid
       type="xygrid"
       id="grid3661"
       empspacing="5"
       visible="true"
       enabled="true"
       snapvisiblegridlinesonly="true" />
  </sodipodi:namedview>
  <defs
     id="defs4" />
  <path
     d="M 30,1 C 25.066835,1 20.829935,1.737881 16.238913,4.426909 11.664806,7.106119 7.2054515,8.524783 1,8.524783 L 1,35.649914 C 1,38.059653 1.00463,38.060687 2.5635114,39.27912 5.2873319,41.408537 30,47 30,47 30,47 54.712666,41.408537 57.436492,39.27912 58.995376,38.060687 59,38.059653 59,35.649914 L 59,8.524783 c -6.205451,0 -10.66481,-1.418664 -15.238914,-4.097874 C 39.170066,1.737881 34.933162,1 30,1 z"
     id="rect4804"
     style="fill:#006b54;stroke:none"
     inkscape:connector-curvature="0" />
  <path
     d="m 16.005782,15.736949 c -0.384833,0.615675 -0.833797,1.092869 -1.346892,1.431323 -0.504556,0.32967 -1.133104,0.494504 -1.885648,0.494504 -0.624278,0 -1.171586,-0.126597 -1.641926,-0.377466 C 10.669522,17.02514 10.28042,16.682294 9.9640097,16.257289 9.6561474,15.832284 9.4252513,15.350698 9.2713225,14.812789 9.1173915,14.266612 9.040426,13.707001 9.040426,13.134213 c -10e-7,-0.676649 0.08979,-1.288191 0.2693783,-1.834884 0.1881379,-0.554961 0.4489622,-1.028021 0.7824797,-1.418147 0.333514,-0.399169 0.731167,-0.707136 1.192962,-0.923902 0.470339,-0.217023 0.987717,-0.325535 1.552133,-0.325535 0.342062,0 0.671303,0.04392 0.98772,0.131764 0.316407,0.08784 0.61144,0.211857 0.8851,0.377467 0.273648,0.1576 0.517371,0.355505 0.731171,0.598365 0.222334,0.235109 0.410473,0.498897 0.564411,0.793946 l -1.51365,0.819781 c -0.196695,-0.329669 -0.444694,-0.572529 -0.743997,-0.728838 -0.299315,-0.165352 -0.624279,-0.248027 -0.974893,-0.248027 -0.307866,0 -0.585796,0.06459 -0.833791,0.196354 -0.248002,0.131765 -0.461794,0.316752 -0.641377,0.559612 -0.171037,0.235109 -0.303588,0.524991 -0.397654,0.87197 -0.09407,0.338196 -0.141103,0.715662 -0.1411,1.131883 -3e-6,0.425263 0.04703,0.811514 0.1411,1.158493 0.09406,0.338196 0.226616,0.628594 0.397654,0.871713 0.179582,0.24286 0.393375,0.429397 0.641377,0.559353 0.247998,0.131764 0.525925,0.196354 0.833791,0.196354 0.350614,0 0.675578,-0.08268 0.974893,-0.245443 0.299303,-0.173102 0.547302,-0.429397 0.743997,-0.767593 l 1.51365,0.832958 0,0"
     id="text1352"
     style="fill:#ffffff;stroke:none"
     inkscape:connector-curvature="0" />
  <path
     d="m 23.83412,27.672223 c -0.384833,0.615934 -0.833797,1.09287 -1.346892,1.431324 -0.504556,0.329928 -1.133104,0.494504 -1.885649,0.494504 -0.624277,0 -1.171585,-0.126597 -1.641925,-0.377208 -0.461794,-0.260429 -0.850896,-0.603016 -1.167307,-1.028279 -0.307862,-0.425005 -0.538758,-0.906333 -0.692686,-1.444242 -0.153931,-0.546693 -0.230897,-1.106046 -0.230897,-1.678834 -10e-7,-0.676649 0.08979,-1.288191 0.269378,-1.834884 0.188138,-0.55522 0.448962,-1.027763 0.78248,-1.417889 0.333514,-0.399169 0.731168,-0.707394 1.192962,-0.92416 0.470339,-0.217024 0.987717,-0.325535 1.552132,-0.325535 0.342063,0 0.671303,0.04392 0.987721,0.131764 0.316407,0.08784 0.61144,0.211857 0.8851,0.377208 0.273648,0.157601 0.517371,0.355506 0.73117,0.598624 0.222335,0.235109 0.410474,0.498896 0.564413,0.793687 l -1.513651,0.819523 c -0.196694,-0.329411 -0.444693,-0.572529 -0.743997,-0.72858 -0.299315,-0.165351 -0.624279,-0.248027 -0.974893,-0.248027 -0.307865,0 -0.585795,0.06459 -0.833791,0.196355 -0.248002,0.131764 -0.461795,0.316493 -0.641377,0.559611 -0.171037,0.235109 -0.303588,0.524733 -0.397654,0.871712 -0.09407,0.338454 -0.141103,0.715662 -0.141101,1.132141 -2e-6,0.425263 0.04703,0.811256 0.141101,1.158235 0.09406,0.338454 0.226616,0.629111 0.397654,0.871971 0.179584,0.240276 0.393375,0.429397 0.641377,0.559353 0.247998,0.131764 0.525926,0.196355 0.833791,0.196355 0.350614,0 0.675578,-0.08268 0.974893,-0.245444 0.299304,-0.175686 0.547303,-0.429397 0.743997,-0.767851 l 1.513651,0.832958 0,0"
     id="text2229"
     style="fill:#ffffff;stroke:none"
     inkscape:connector-curvature="0" />
  <path
     d="m 32.058804,35.282782 c -1.1e-5,0.503289 -0.11973,0.971699 -0.35917,1.405488 -0.239484,0.425005 -0.564422,0.75054 -0.974897,0.97609 -0.128276,0.06976 -0.252278,0.131765 -0.371995,0.183437 -0.111208,0.04392 -0.230912,0.07751 -0.359172,0.105928 -0.11973,0.02584 -0.256557,0.04651 -0.410483,0.06459 -0.145395,0 -0.316419,0.02584 -0.513101,0.02584 l -2.25765,0 0,3.278867 -1.693234,0 0,-8.744507 4.040677,0 c 0.359167,0 0.649924,0.02584 0.872271,0.07751 0.222365,0.05167 0.453236,0.147267 0.692687,0.286265 0.410475,0.24286 0.735441,0.57253 0.974897,0.989008 0.239458,0.416479 0.359159,0.871971 0.35917,1.366475 m -1.693234,0 c -8e-6,-0.277743 -0.102636,-0.507685 -0.307862,-0.689572 -0.196726,-0.191187 -0.457523,-0.286264 -0.782483,-0.286264 l -2.462889,0 0,1.977758 2.462889,0 c 0.333512,0 0.598615,-0.09043 0.79531,-0.273088 0.1967,-0.183437 0.295027,-0.425264 0.295035,-0.728839"
     id="text2233"
     style="fill:#ffffff;stroke:none"
     inkscape:connector-curvature="0" />
  <path
     d="m 20.688752,13.174259 c -0.07986,-0.134348 -0.182522,-0.229942 -0.307997,-0.286264 -0.125485,-0.05942 -0.242406,-0.08784 -0.350773,-0.08784 -0.256667,0 -0.433479,0.07492 -0.530439,0.227358 -0.09126,0.152433 -0.136888,0.376174 -0.136886,0.676907 l 0,2.343082 -1.146431,0 0,-4.243848 1.146431,0 0,0.209273 c 0.142589,-0.116263 0.276624,-0.198939 0.402107,-0.245444 0.13118,-0.0465 0.270919,-0.06976 0.419217,-0.06976 0.171105,0 0.325104,0.02584 0.461994,0.06976 0.142587,0.0465 0.285178,0.129181 0.427773,0.245444 l -0.384995,1.162885 m 5.151186,0.755192 c -5e-6,0.306675 -0.0542,0.59294 -0.162564,0.858794 -0.108359,0.266371 -0.25383,0.500705 -0.436328,0.70326 -0.182507,0.196355 -0.393555,0.352922 -0.633103,0.46841 -0.233862,0.111095 -0.47911,0.165351 -0.735769,0.165351 -0.26237,0 -0.510479,-0.05426 -0.744325,-0.165351 -0.233853,-0.116263 -0.439182,-0.271797 -0.615993,-0.46841 -0.176814,-0.204106 -0.316553,-0.436889 -0.419218,-0.70326 -0.102664,-0.265854 -0.153999,-0.552119 -0.153999,-0.858794 -1e-6,-0.318302 0.04848,-0.613351 0.14544,-0.885406 0.102664,-0.271796 0.239553,-0.50613 0.410662,-0.703002 0.176811,-0.204106 0.382142,-0.358864 0.615993,-0.468926 0.233847,-0.116263 0.487658,-0.175686 0.761435,-0.175686 0.250956,0 0.493363,0.05942 0.727215,0.175686 0.23956,0.116263 0.450583,0.275155 0.633105,0.47771 0.182532,0.204106 0.327949,0.439732 0.436326,0.711528 0.114082,0.272055 0.171085,0.561162 0.171111,0.868096 m -1.163544,0 c -2e-6,-0.157601 -0.02289,-0.303834 -0.06845,-0.442832 -0.04563,-0.139516 -0.10551,-0.258362 -0.179657,-0.355764 -0.07415,-0.105929 -0.15969,-0.186021 -0.256664,-0.24286 -0.09696,-0.05942 -0.196776,-0.08784 -0.29944,-0.08784 -0.114083,0 -0.219593,0.02842 -0.316553,0.08784 -0.09126,0.05942 -0.173965,0.139515 -0.248109,0.24286 -0.06845,0.09818 -0.122629,0.21444 -0.162554,0.355764 -0.03993,0.139515 -0.05989,0.286523 -0.05989,0.442832 -2e-6,0.149849 0.01997,0.292207 0.05989,0.425005 0.03993,0.134348 0.09411,0.248027 0.162554,0.347238 0.07414,0.09818 0.156848,0.178269 0.248109,0.235109 0.09696,0.05942 0.202476,0.08784 0.316553,0.08784 0.102661,0 0.202474,-0.02842 0.29944,-0.08784 0.09696,-0.05942 0.182506,-0.136932 0.256664,-0.235109 0.07415,-0.09818 0.134024,-0.211857 0.179657,-0.347238 0.04563,-0.134349 0.06845,-0.274639 0.06845,-0.425005 m 6.070629,0.893673 c -3e-6,0.18602 -0.02852,0.346979 -0.08554,0.485978 -0.05705,0.134348 -0.151143,0.258361 -0.282326,0.373332 -0.182532,0.14985 -0.396407,0.260429 -0.641665,0.32967 -0.23956,0.06459 -0.527584,0.09559 -0.8641,0.09559 -0.199625,0 -0.382144,0 -0.547547,-0.02584 -0.159716,0 -0.316551,-0.031 -0.470549,-0.06201 -0.148294,-0.03617 -0.293739,-0.07751 -0.436328,-0.131765 -0.136899,-0.05167 -0.282329,-0.116262 -0.436329,-0.191187 l 0.444883,-1.023888 c 0.21102,0.105929 0.44488,0.186021 0.701547,0.24286 0.256666,0.05942 0.490513,0.08784 0.701549,0.08784 0.233862,0 0.419217,-0.02584 0.556106,-0.06201 0.142597,-0.04134 0.21387,-0.100762 0.21387,-0.183437 -3e-6,-0.06459 -0.02567,-0.118847 -0.077,-0.165352 -0.05133,-0.04651 -0.134049,-0.08268 -0.248106,-0.105928 -0.05705,-0.02584 -0.125478,-0.03617 -0.205323,-0.05167 -0.07984,-0.02584 -0.162564,-0.03617 -0.248107,-0.05167 -0.07985,-0.02584 -0.156866,-0.04392 -0.231014,-0.06201 -0.07415,-0.02584 -0.13405,-0.04392 -0.179657,-0.06201 -0.456291,-0.134348 -0.789951,-0.306934 -1.000989,-0.520857 -0.205323,-0.219608 -0.307995,-0.494763 -0.307995,-0.824432 0,-0.381859 0.154018,-0.680008 0.461994,-0.89419 0.307995,-0.217024 0.724364,-0.329669 1.249097,-0.329669 0.290883,0 0.581771,0.03617 0.87266,0.105928 0.290883,0.06459 0.60458,0.180853 0.941101,0.347238 l -0.444888,1.024145 c -0.211046,-0.116262 -0.439182,-0.206689 -0.684438,-0.269212 -0.23956,-0.06976 -0.45344,-0.105929 -0.641654,-0.105929 -0.216769,0 -0.373595,0.02584 -0.470551,0.05167 -0.09127,0.03617 -0.136899,0.09301 -0.136899,0.175686 -2e-6,0.04134 0.0059,0.07492 0.0173,0.105928 0.0173,0.02842 0.04848,0.05426 0.09412,0.07751 0.05133,0.02584 0.122629,0.03876 0.213869,0.06201 0.09127,0.02584 0.211021,0.03875 0.359333,0.06201 0.604583,0.129181 1.058018,0.309776 1.360317,0.546952 0.302286,0.232525 0.453435,0.546951 0.453437,0.945862 m 4.929413,0 c -2e-6,0.18602 -0.02851,0.346979 -0.08554,0.485978 -0.05705,0.134348 -0.151144,0.258361 -0.282327,0.373332 -0.182532,0.14985 -0.396406,0.260429 -0.641662,0.32967 -0.239585,0.06459 -0.527589,0.09559 -0.864103,0.09559 -0.199625,0 -0.382144,0 -0.547549,-0.02584 -0.159716,0 -0.316549,-0.031 -0.470546,-0.06201 -0.148294,-0.03617 -0.29374,-0.07751 -0.436329,-0.131765 -0.136899,-0.05167 -0.282331,-0.116262 -0.436331,-0.191187 L 32.357101,14.6717 c 0.211021,0.105929 0.444881,0.186021 0.701547,0.24286 0.256664,0.05942 0.490513,0.08784 0.701549,0.08784 0.233863,0 0.41921,-0.02584 0.556107,-0.06201 0.142596,-0.04134 0.213869,-0.100761 0.213869,-0.183437 -3e-6,-0.06459 -0.02567,-0.118847 -0.07702,-0.165352 -0.05131,-0.0465 -0.13405,-0.08268 -0.248107,-0.105928 -0.05705,-0.02584 -0.125478,-0.03617 -0.205323,-0.05167 -0.07984,-0.02584 -0.162564,-0.03617 -0.248107,-0.05167 -0.07984,-0.02584 -0.156866,-0.04392 -0.230988,-0.06201 -0.07417,-0.02584 -0.13405,-0.04392 -0.179658,-0.06201 -0.456302,-0.134348 -0.789962,-0.306934 -1.001,-0.520857 -0.205323,-0.219608 -0.307994,-0.494763 -0.307994,-0.824432 0,-0.381859 0.154017,-0.680008 0.461994,-0.89419 0.307994,-0.217024 0.72436,-0.329669 1.249096,-0.329669 0.290883,0 0.581772,0.03617 0.87266,0.105928 0.290878,0.06459 0.604581,0.180853 0.941102,0.347238 l -0.444888,1.024145 c -0.211046,-0.116262 -0.439183,-0.206689 -0.684438,-0.269212 -0.239561,-0.06976 -0.45344,-0.105929 -0.641654,-0.105929 -0.21677,0 -0.373595,0.02584 -0.470551,0.05167 -0.09127,0.03617 -0.136899,0.09301 -0.136899,0.175686 -3e-6,0.04134 0.0058,0.07492 0.0173,0.105928 0.0173,0.02842 0.04848,0.05426 0.09411,0.07751 0.05133,0.02584 0.122629,0.03876 0.21387,0.06201 0.09124,0.02584 0.21102,0.03875 0.359332,0.06201 0.604581,0.129181 1.058018,0.309776 1.360315,0.546952 0.302289,0.229941 0.453435,0.546951 0.453437,0.945862"
     id="text2239"
     style="fill:#ffffff;stroke:none"
     inkscape:connector-curvature="0" />
  <path
     d="m 28.666468,25.890303 c -5e-6,0.306417 -0.0542,0.59294 -0.162565,0.859311 -0.108359,0.265854 -0.253804,0.500446 -0.436328,0.702744 -0.182532,0.198938 -0.393555,0.35318 -0.633105,0.468926 -0.233837,0.111095 -0.479108,0.165351 -0.735764,0.165351 -0.262374,0 -0.510481,-0.05426 -0.744328,-0.165351 -0.233837,-0.116263 -0.439183,-0.272055 -0.615994,-0.468926 -0.176834,-0.204106 -0.316551,-0.43689 -0.419218,-0.702744 -0.102661,-0.266371 -0.153992,-0.552894 -0.153992,-0.859311 0,-0.318302 0.04848,-0.613609 0.145446,-0.885405 0.102661,-0.272055 0.23956,-0.506389 0.410663,-0.703002 0.176834,-0.204106 0.382142,-0.358606 0.615991,-0.468668 0.233838,-0.116263 0.487657,-0.173103 0.761437,-0.173103 0.250956,0 0.49336,0.05942 0.727212,0.173103 0.23956,0.116262 0.450584,0.274638 0.633105,0.477193 0.182532,0.204106 0.327954,0.43999 0.436326,0.711787 0.114083,0.272055 0.171111,0.56142 0.171137,0.868095 m -1.163546,0 c -3e-6,-0.157601 -0.02289,-0.303833 -0.06845,-0.442574 -0.04561,-0.139515 -0.10551,-0.258361 -0.179657,-0.356022 -0.07417,-0.105928 -0.159715,-0.18602 -0.256664,-0.24286 -0.09699,-0.05942 -0.196801,-0.08784 -0.299442,-0.08784 -0.114083,0 -0.219593,0.02842 -0.316552,0.08784 -0.09129,0.05942 -0.173985,0.139515 -0.248106,0.24286 -0.06845,0.09818 -0.122629,0.217024 -0.162565,0.356022 -0.03993,0.139516 -0.05988,0.286265 -0.05988,0.442574 -3e-6,0.152433 0.02009,0.292207 0.05988,0.425263 0.03994,0.134348 0.09411,0.250611 0.162565,0.347238 0.07415,0.09818 0.156866,0.17827 0.248106,0.235109 0.09699,0.05684 0.2025,0.08784 0.316552,0.08784 0.102686,0 0.202499,-0.02842 0.299442,-0.08784 0.09696,-0.05942 0.182532,-0.136931 0.256664,-0.235109 0.07415,-0.09818 0.13405,-0.21444 0.179657,-0.347238 0.04563,-0.134348 0.06845,-0.275155 0.06845,-0.425263 m 5.625748,2.11779 0,-0.269212 c -0.102687,0.06976 -0.199626,0.12918 -0.290884,0.175686 -0.09127,0.04134 -0.179657,0.07234 -0.265223,0.09559 -0.08554,0.02584 -0.173985,0.03876 -0.265218,0.04392 -0.08554,0 -0.179657,0.02584 -0.282329,0.02584 -0.256666,0 -0.479107,-0.031 -0.667329,-0.09559 -0.182532,-0.06976 -0.350771,-0.180853 -0.504768,-0.329669 -0.131201,-0.134348 -0.233837,-0.286265 -0.307995,-0.459884 -0.07415,-0.180853 -0.111233,-0.367649 -0.111233,-0.564262 l 0,-2.855413 1.146432,0 0,2.46477 c -2e-6,0.204106 0.06275,0.373333 0.18823,0.512331 0.125477,0.139516 0.296586,0.209273 0.513329,0.209273 0.102662,0 0.199626,-0.02584 0.290881,-0.05167 0.09699,-0.04134 0.179658,-0.09301 0.248107,-0.1576 0.07417,-0.06459 0.13405,-0.136932 0.179657,-0.217024 0.04563,-0.08268 0.06845,-0.165351 0.06845,-0.253194 l 0,-2.508175 1.146432,0 0,4.244365 -1.086545,0 m 6.039617,0 0,-2.552097 c -5e-6,-0.198938 -0.06275,-0.361448 -0.18823,-0.494762 -0.11978,-0.134348 -0.290888,-0.198939 -0.513327,-0.198939 -0.102662,0 -0.2025,0.02584 -0.299443,0.06201 -0.09129,0.03617 -0.176834,0.08526 -0.256664,0.147267 -0.07415,0.06459 -0.134049,0.136931 -0.179657,0.217023 -0.04561,0.08268 -0.06845,0.165352 -0.06845,0.253195 l 0,2.569148 -1.14643,0 0,-4.244365 1.14643,0 0,0.227358 c 0.193927,-0.12143 0.382141,-0.206689 0.56466,-0.250611 0.182532,-0.05167 0.370733,-0.07751 0.564661,-0.07751 0.216769,0 0.416361,0.03875 0.598882,0.113679 0.182532,0.06976 0.339363,0.167936 0.470551,0.295049 0.136874,0.129181 0.242409,0.280581 0.316554,0.459884 0.07984,0.173103 0.11978,0.361707 0.11978,0.564262 l 0,2.916386 -1.129318,0 m 4.713521,-3.220219 0,1.588149 c -3e-6,0.198938 0.03139,0.347238 0.09412,0.451616 0.06275,0.09818 0.199625,0.139515 0.410666,0.12143 0.148294,0 0.25383,-0.04134 0.316551,-0.08784 0.06845,-0.0465 0.151118,-0.12143 0.248107,-0.227358 l -0.29944,1.20629 c -0.09699,0.04134 -0.171111,0.07493 -0.222467,0.105929 -0.05131,0.02842 -0.09981,0.05167 -0.145446,0.06976 -0.03993,0.02584 -0.08842,0.02842 -0.145445,0.03617 -0.0513,0 -0.128327,0.02584 -0.231014,0.02584 -0.393555,0 -0.684438,-0.113679 -0.872652,-0.338454 -0.182532,-0.227358 -0.27378,-0.546951 -0.27378,-0.96343 l 0,-1.978792 -0.787102,0 0,-1.006836 0.787102,0 0,-1.241169 1.120767,-0.451099 0,1.674958 1.069433,0 0,1.024146 -1.069433,0 m 4.707905,4.851773 -1.14643,0 0.684431,-1.692527 -1.976303,-4.183392 1.308983,0 1.146427,2.812008 1.146433,-2.812008 1.206319,0 -2.36986,5.875919"
     id="text3116"
     style="fill:#ffffff;stroke:none"
     inkscape:connector-curvature="0" />
  <path
     d="m 36.589455,36.862147 1.163543,2.942223 -1.163543,0 -0.761434,-1.961482 -0.667322,0.676908 0,1.284574 -1.146432,0 0,-5.467966 1.146432,-0.4511 0,2.881508 1.206317,-1.188981 1.428761,0 -1.206322,1.284316 m 6.950774,2.942223 -1.103653,0 -0.521884,-2.100222 -0.667325,2.100222 -1.103653,0 -1.20632,-4.244107 1.163544,0 0.590326,2.022455 0.581769,-2.022455 1.249098,0 0.496217,1.99636 0.564658,-1.99636 1.189211,0 -1.231988,4.244107 m 4.703225,1.631554 -1.14643,0 0.684436,-1.692269 -1.976308,-4.183392 1.308981,0 1.146432,2.812008 1.146432,-2.812008 1.206317,0 -2.36986,5.875661"
     id="text3120"
     style="fill:#ffffff;stroke:none"
     inkscape:connector-curvature="0" />
</svg>
