<?xml version="1.0" encoding="UTF-8" standalone="no"?>
<!-- Created with Inkscape (http://www.inkscape.org/) -->

<svg
   xmlns:dc="http://purl.org/dc/elements/1.1/"
   xmlns:cc="http://creativecommons.org/ns#"
   xmlns:rdf="http://www.w3.org/1999/02/22-rdf-syntax-ns#"
   xmlns:svg="http://www.w3.org/2000/svg"
   xmlns="http://www.w3.org/2000/svg"
   xmlns:sodipodi="http://sodipodi.sourceforge.net/DTD/sodipodi-0.dtd"
   xmlns:inkscape="http://www.inkscape.org/namespaces/inkscape"
   version="1.0"
   width="60"
   height="48"
   id="svg2"
   inkscape:version="0.48.1 r9760"
   sodipodi:docname="US:NY-MP.svg">
  <metadata
     id="metadata3190">
    <rdf:RDF>
      <cc:Work
         rdf:about="">
        <dc:format>image/svg+xml</dc:format>
        <dc:type
           rdf:resource="http://purl.org/dc/dcmitype/StillImage" />
      </cc:Work>
    </rdf:RDF>
  </metadata>
  <sodipodi:namedview
     pagecolor="#ffffff"
     bordercolor="#666666"
     borderopacity="1"
     objecttolerance="10"
     gridtolerance="10"
     guidetolerance="10"
     inkscape:pageopacity="0"
     inkscape:pageshadow="2"
     inkscape:window-width="1278"
     inkscape:window-height="996"
     id="namedview3188"
     showgrid="true"
     inkscape:showpageshadow="false"
     inkscape:zoom="16.895833"
     inkscape:cx="30"
     inkscape:cy="24"
     inkscape:window-x="1"
     inkscape:window-y="27"
     inkscape:window-maximized="0"
     inkscape:current-layer="svg2">
    <inkscape:grid
       type="xygrid"
       id="grid3613"
       empspacing="5"
       visible="true"
       enabled="true"
       snapvisiblegridlinesonly="true" />
  </sodipodi:namedview>
  <defs
     id="defs4" />
  <path
     d="M 30,1 C 25.066835,1 20.829937,1.737881 16.238913,4.426909 11.664806,7.106119 7.2054515,8.524783 1,8.524783 L 1,35.649914 C 1,38.059653 1.00463,38.060687 2.5635114,39.27912 5.2873319,41.408537 30,47 30,47 30,47 54.712668,41.408537 57.436492,39.27912 58.995376,38.060687 59,38.059653 59,35.649914 L 59,8.524783 c -6.205449,0 -10.66481,-1.418664 -15.238911,-4.097874 C 39.170066,1.737881 34.933165,1 30,1 z"
     id="rect4804"
     style="fill:#006b54;stroke:none"
     inkscape:connector-curvature="0" />
  <path
     d="m 29.049293,29.408414 c -1.2e-5,0.642803 -0.152974,1.240911 -0.458832,1.795096 -0.305893,0.543076 -0.721021,0.958522 -1.24539,1.246595 -0.163887,0.08784 -0.322277,0.167935 -0.475211,0.235109 -0.142011,0.05684 -0.294968,0.100761 -0.45883,0.134349 -0.152974,0.03359 -0.32774,0.06201 -0.524374,0.08268 -0.185711,0 -0.40421,0.02584 -0.655469,0.02584 l -2.884059,0 0,4.189076 -2.163046,0 0,-11.171299 5.161814,0 c 0.458822,0 0.830252,0.03359 1.114293,0.100761 0.284031,0.06717 0.578991,0.188604 0.884882,0.36584 0.524369,0.310292 0.939497,0.73168 1.24539,1.263647 0.305881,0.531966 0.45882,1.113797 0.458832,1.745491 m -2.163044,0 c -8e-6,-0.354731 -0.131099,-0.648488 -0.393283,-0.881272 -0.251261,-0.245443 -0.584465,-0.365581 -0.999593,-0.365581 l -3.146245,0 0,2.526518 3.146245,0 c 0.42605,0 0.764708,-0.116262 1.015979,-0.349046 0.251236,-0.235109 0.376887,-0.542818 0.376897,-0.930619"
     id="text2229"
     style="fill:#ffffff;stroke:none"
     inkscape:connector-curvature="0" />
  <path
     d="m 34.966492,31.514578 1.486382,3.758387 -1.486382,0 -0.972704,-2.505592 -0.852484,0.864737 0,1.640855 -1.464525,0 0,-6.984808 1.464525,-0.576404 0,3.68062 1.54103,-1.518908 1.825188,0 -1.54103,1.641113 m 8.879358,3.758387 -1.409879,0 -0.666687,-2.683086 -0.852483,2.683086 -1.409878,0 -1.54103,-5.421461 1.486383,0 0.754121,2.583358 0.743194,-2.583358 1.59567,0 0.633903,2.549771 0.721329,-2.549771 1.519172,0 -1.573815,5.421461 m 6.0082,2.084462 -1.464527,0 0.874346,-2.161971 -2.524672,-5.343952 1.672186,0 1.464522,3.59226 1.464525,-3.59226 1.541027,0 -3.02741,7.505923"
     id="text3116"
     style="fill:#ffffff;stroke:none"
     inkscape:connector-curvature="0" />
  <path
     d="m 12.682641,21.8317 0,-6.059356 -2.9371698,6.059356 -3.0028041,-6.059356 0,6.059356 -2.1659576,0 0,-11.186026 2.1659576,0 3.0028041,6.142031 2.9371698,-6.142031 2.149548,0 0,11.186026 -2.149548,0"
     id="text2318"
     style="fill:#ffffff;stroke:none"
     inkscape:connector-curvature="0" />
  <path
     d="m 22.443675,17.202893 c -5e-6,0.400202 -0.07078,0.774568 -0.21231,1.122064 -0.141546,0.347755 -0.331508,0.653655 -0.569888,0.918476 -0.23839,0.255778 -0.51402,0.460917 -0.826895,0.612059 -0.305434,0.144682 -0.625763,0.21444 -0.960988,0.21444 -0.34268,0 -0.666733,-0.07234 -0.97216,-0.21444 -0.305433,-0.152434 -0.573615,-0.355248 -0.804548,-0.612059 -0.230935,-0.264821 -0.413449,-0.570721 -0.547539,-0.918476 -0.134093,-0.347496 -0.201136,-0.721862 -0.201136,-1.122064 -10e-7,-0.415963 0.06332,-0.80118 0.189962,-1.156427 0.13409,-0.355247 0.312878,-0.661148 0.536364,-0.918218 0.230935,-0.264562 0.499115,-0.468409 0.804548,-0.6118 0.305427,-0.152433 0.63693,-0.224775 0.994509,-0.224775 0.327775,2.59e-4 0.64438,0.07751 0.949813,0.224775 0.312876,0.152433 0.588507,0.358864 0.826897,0.623168 0.23838,0.264563 0.428341,0.574338 0.569887,0.929586 0.148981,0.355247 0.223479,0.732972 0.223487,1.133691 m -1.5197,0 c -5e-6,-0.204106 -0.0298,-0.396844 -0.08939,-0.578214 -0.0596,-0.183437 -0.137822,-0.336387 -0.234659,-0.464792 -0.09685,-0.136932 -0.208591,-0.24286 -0.335228,-0.317269 -0.126642,-0.07492 -0.257011,-0.113679 -0.391099,-0.113679 -0.148991,0 -0.286809,0.03876 -0.413448,0.113679 -0.119195,0.07493 -0.227213,0.180854 -0.324054,0.317269 -0.0894,0.12918 -0.160168,0.283164 -0.21231,0.464792 -0.05215,0.183437 -0.07822,0.374108 -0.07822,0.578214 -2e-6,0.196354 0.02607,0.3816 0.07822,0.555219 0.05214,0.175686 0.122914,0.325019 0.21231,0.453683 0.09684,0.129181 0.20486,0.232525 0.324054,0.3059 0.126638,0.07493 0.264455,0.113679 0.413448,0.113679 0.134088,0 0.264454,-0.03875 0.391099,-0.113679 0.126636,-0.07493 0.23838,-0.17827 0.335228,-0.3059 0.09684,-0.129181 0.175061,-0.279548 0.234659,-0.453683 0.05959,-0.175686 0.08939,-0.358865 0.08939,-0.555219 m 7.928844,1.167536 c -7e-6,0.240276 -0.03726,0.453424 -0.111767,0.634536 -0.0745,0.175686 -0.197438,0.336645 -0.368749,0.487528 -0.238391,0.196355 -0.517746,0.340004 -0.838072,0.430948 -0.312883,0.08268 -0.689083,0.126597 -1.128601,0.126597 -0.260736,0 -0.499121,0 -0.715153,-0.03359 -0.208578,-0.02584 -0.413451,-0.04134 -0.614587,-0.08009 -0.193673,-0.0465 -0.38365,-0.103345 -0.569885,-0.170519 -0.178793,-0.06717 -0.368752,-0.152433 -0.569888,-0.250611 l 0.581062,-1.337796 c 0.275629,0.136931 0.581059,0.240276 0.916291,0.317526 0.335224,0.07751 0.640655,0.113679 0.916286,0.113679 0.30543,0 0.547539,-0.02584 0.726332,-0.08009 0.186246,-0.05426 0.27935,-0.134348 0.279356,-0.237692 -6e-6,-0.08268 -0.03353,-0.155017 -0.100576,-0.214441 -0.06705,-0.06201 -0.175079,-0.105928 -0.32405,-0.136931 -0.0745,-0.02584 -0.163912,-0.04651 -0.268184,-0.06717 -0.104289,-0.02584 -0.212318,-0.04651 -0.324055,-0.06717 -0.104289,-0.031 -0.204865,-0.05684 -0.301704,-0.08009 -0.09686,-0.031 -0.175078,-0.05684 -0.234651,-0.08009 -0.595965,-0.175686 -1.031759,-0.400202 -1.307391,-0.680008 -0.268181,-0.287298 -0.402274,-0.646162 -0.402274,-1.076851 0,-0.498896 0.201125,-0.887989 0.60341,-1.167536 0.402275,-0.28704 0.946085,-0.430431 1.631441,-0.430689 0.379926,2.58e-4 0.759847,0.0465 1.139778,0.136932 0.379924,0.08268 0.789641,0.235109 1.22917,0.452908 l -0.581062,1.337796 c -0.275637,-0.152433 -0.573617,-0.268438 -0.893943,-0.351372 -0.312881,-0.09043 -0.592239,-0.136931 -0.838069,-0.136931 -0.283087,0 -0.487944,0.02584 -0.614585,0.06717 -0.119195,0.0465 -0.178818,0.12143 -0.178818,0.224774 -2e-6,0.05426 0.0074,0.09818 0.02238,0.136932 0.02238,0.03875 0.06331,0.07234 0.122909,0.103345 0.06703,0.02584 0.160148,0.04909 0.279353,0.08009 0.119195,0.02584 0.275634,0.04909 0.46932,0.08009 0.789648,0.167935 1.381879,0.404336 1.776708,0.714111 0.394819,0.302284 0.592231,0.714112 0.592239,1.235745 m 5.801366,1.598483 0,-3.333124 c -5e-6,-0.255778 -0.08196,-0.472285 -0.245843,-0.645904 -0.163912,-0.175686 -0.368754,-0.260687 -0.614585,-0.260687 -0.1341,0 -0.268183,0.02584 -0.402272,0.06717 -0.126647,0.0465 -0.242103,0.111096 -0.346403,0.193771 -0.104289,0.07493 -0.189959,0.167935 -0.257007,0.272055 -0.06705,0.09818 -0.100576,0.204106 -0.100576,0.317268 l 0,3.389705 -1.49735,0 0,-7.141633 1.49735,-0.589322 0,2.482338 c 0.312879,-0.175686 0.577336,-0.290657 0.793375,-0.351372 0.216057,-0.06717 0.45069,-0.103344 0.703976,-0.103344 0.268181,0 0.517738,0.04909 0.74868,0.147266 0.23839,0.09818 0.446964,0.232525 0.625762,0.396585 0.178792,0.167935 0.316594,0.362481 0.413443,0.589323 0.10429,0.227358 0.156434,0.468668 0.156434,0.725479 l 0,3.84313 -1.475002,0 m 8.894018,-2.76602 c -3e-6,0.400202 -0.07076,0.774568 -0.212318,1.122065 -0.141554,0.347755 -0.331508,0.653655 -0.569888,0.918476 -0.23839,0.255778 -0.514022,0.460917 -0.826897,0.612058 -0.305433,0.144683 -0.625759,0.217024 -0.960988,0.217024 -0.34268,0 -0.666732,-0.07234 -0.97216,-0.217024 -0.305426,-0.152433 -0.573613,-0.355247 -0.804545,-0.612058 -0.230937,-0.264821 -0.413446,-0.570721 -0.547536,-0.918476 -0.134101,-0.347497 -0.201152,-0.721863 -0.201152,-1.122065 0,-0.415962 0.06334,-0.801179 0.18996,-1.156427 0.1341,-0.355247 0.312878,-0.661147 0.536365,-0.918217 0.230937,-0.264562 0.499116,-0.46841 0.804549,-0.6118 0.305425,-0.152434 0.63693,-0.227359 0.994508,-0.227359 0.327776,2.59e-4 0.64438,0.07751 0.949813,0.227359 0.312876,0.152433 0.588508,0.358864 0.826898,0.623168 0.23839,0.264562 0.428339,0.574338 0.569887,0.929585 0.148982,0.355248 0.223485,0.732972 0.223485,1.133691 m -1.519704,0 c -3e-6,-0.204106 -0.02978,-0.396843 -0.08938,-0.578213 -0.05962,-0.183437 -0.137815,-0.336387 -0.234651,-0.464793 -0.09686,-0.136931 -0.208579,-0.240276 -0.335229,-0.317268 -0.126648,-0.07492 -0.257012,-0.113679 -0.391101,-0.113679 -0.148981,0 -0.286808,0.03875 -0.413448,0.113679 -0.119195,0.07493 -0.227198,0.180853 -0.324055,0.317268 -0.08938,0.129181 -0.160173,0.283165 -0.212318,0.464793 -0.05217,0.183437 -0.07824,0.374107 -0.07824,0.578213 -3e-6,0.196355 0.02605,0.3816 0.07824,0.555219 0.05215,0.175686 0.122909,0.32502 0.212318,0.453684 0.09686,0.12918 0.204865,0.229941 0.324055,0.306158 0.126648,0.07493 0.264457,0.113679 0.413448,0.113679 0.134101,0 0.264455,-0.03875 0.391101,-0.113679 0.126622,-0.07493 0.23839,-0.178269 0.335229,-0.306158 0.09686,-0.129181 0.175053,-0.279548 0.234651,-0.453684 0.0596,-0.175686 0.08938,-0.358864 0.08938,-0.555219 m 3.827892,2.76602 0,-7.141633 1.49735,-0.589323 0,7.730956 -1.49735,0 m 8.015787,0 0,-0.35163 c -0.134101,0.09043 -0.260736,0.167935 -0.379921,0.227358 -0.119195,0.05167 -0.234677,0.09559 -0.346409,0.124014 -0.111742,0.031 -0.227198,0.04909 -0.346398,0.05684 -0.111768,0.02584 -0.234676,0.02584 -0.368752,0.02584 -0.335234,0 -0.625761,-0.04134 -0.871591,-0.126598 -0.238389,-0.09043 -0.458146,-0.235109 -0.659282,-0.430947 -0.17134,-0.175686 -0.305428,-0.373849 -0.402277,-0.600691 -0.09686,-0.235109 -0.145268,-0.479777 -0.145268,-0.736847 l 0,-3.729192 1.497353,0 0,3.219186 c 0,0.264304 0.08196,0.48727 0.245843,0.668898 0.163887,0.183437 0.387371,0.271797 0.670459,0.271797 0.1341,0 0.260723,-0.02584 0.379918,-0.06717 0.126622,-0.05426 0.234676,-0.12143 0.32406,-0.204106 0.09686,-0.08268 0.175079,-0.178269 0.234651,-0.283423 0.0596,-0.105928 0.08938,-0.217024 0.08938,-0.328894 l 0,-3.275768 1.497346,0 0,5.54315 -1.419131,0"
     id="text2239"
     style="fill:#ffffff;stroke:none"
     inkscape:connector-curvature="0" />
</svg>
