<?xml version="1.0" encoding="UTF-8" standalone="no"?>
<!-- Created with Inkscape (http://www.inkscape.org/) -->

<svg
   xmlns:dc="http://purl.org/dc/elements/1.1/"
   xmlns:cc="http://creativecommons.org/ns#"
   xmlns:rdf="http://www.w3.org/1999/02/22-rdf-syntax-ns#"
   xmlns:svg="http://www.w3.org/2000/svg"
   xmlns="http://www.w3.org/2000/svg"
   xmlns:sodipodi="http://sodipodi.sourceforge.net/DTD/sodipodi-0.dtd"
   xmlns:inkscape="http://www.inkscape.org/namespaces/inkscape"
   version="1.0"
   width="60"
   height="48"
   id="svg2"
   inkscape:version="0.48.1 r9760"
   sodipodi:docname="US:NY-KWVP.svg">
  <metadata
     id="metadata3152">
    <rdf:RDF>
      <cc:Work
         rdf:about="">
        <dc:format>image/svg+xml</dc:format>
        <dc:type
           rdf:resource="http://purl.org/dc/dcmitype/StillImage" />
      </cc:Work>
    </rdf:RDF>
  </metadata>
  <sodipodi:namedview
     pagecolor="#ffffff"
     bordercolor="#666666"
     borderopacity="1"
     objecttolerance="10"
     gridtolerance="10"
     guidetolerance="10"
     inkscape:pageopacity="0"
     inkscape:pageshadow="2"
     inkscape:window-width="1278"
     inkscape:window-height="996"
     id="namedview3150"
     showgrid="true"
     inkscape:showpageshadow="false"
     inkscape:zoom="16.895833"
     inkscape:cx="30"
     inkscape:cy="24"
     inkscape:window-x="1"
     inkscape:window-y="27"
     inkscape:window-maximized="0"
     inkscape:current-layer="svg2">
    <inkscape:grid
       type="xygrid"
       id="grid3637"
       empspacing="5"
       visible="true"
       enabled="true"
       snapvisiblegridlinesonly="true" />
  </sodipodi:namedview>
  <defs
     id="defs4" />
  <path
     d="M 29.999997,1 C 25.066835,1 20.829935,1.737881 16.238913,4.426909 11.664806,7.106119 7.2054515,8.524783 1,8.524783 L 1,35.649914 C 1,38.059653 1.00463,38.060687 2.5635114,39.27912 5.2873319,41.408537 29.999997,47 29.999997,47 c 0,0 24.712669,-5.591463 27.436495,-7.72088 C 58.995376,38.060687 59,38.059653 59,35.649914 L 59,8.524783 c -6.205451,0 -10.66481,-1.418664 -15.238914,-4.097874 C 39.170064,1.737881 34.933162,1 29.999997,1 z"
     id="rect4804"
     style="fill:#006b54;stroke:none"
     inkscape:connector-curvature="0" />
  <path
     d="m 7.6825657,18.533455 -1.9882689,-4.345901 -1.5008223,1.87338 0,2.472521 -1.6932359,0 0,-8.744508 1.6932359,0 0,3.448353 2.7066112,-3.448353 2.1421997,0 -2.1678549,2.875823 2.7066118,5.868685 -1.8984766,0"
     id="text1352"
     style="fill:#ffffff;stroke:none"
     inkscape:connector-curvature="0" />
  <path
     d="m 16.093677,30.46873 -1.808683,0 -3.104266,-8.744509 1.808684,0 2.206337,6.14229 2.103717,-6.14229 1.783029,0 -2.988818,8.744509"
     id="text2229"
     style="fill:#ffffff;stroke:none"
     inkscape:connector-curvature="0" />
  <path
     d="m 27.696488,36.310028 c -8e-6,0.50303 -0.119729,0.97144 -0.359175,1.405229 -0.239459,0.424747 -0.564414,0.750024 -0.974889,0.975832 -0.128276,0.06976 -0.252279,0.131765 -0.372,0.183437 -0.111183,0.04392 -0.230912,0.07751 -0.359167,0.103345 -0.11973,0.02584 -0.25656,0.04909 -0.410483,0.06459 -0.145395,0 -0.316419,0.02584 -0.513104,0.02584 l -2.257647,0 0,3.279126 -1.693236,0 0,-8.74425 4.040676,0 c 0.359168,0 0.649921,0.02584 0.872274,0.07751 0.222365,0.05167 0.453231,0.147266 0.692687,0.286265 0.410475,0.24286 0.735441,0.572529 0.974889,0.989267 0.239458,0.41622 0.359167,0.871712 0.359175,1.366475 m -1.693234,0 c -8e-6,-0.278001 -0.102636,-0.507685 -0.307865,-0.689829 -0.196699,-0.191188 -0.457519,-0.286265 -0.782477,-0.286265 l -2.462889,0 0,1.978017 2.462889,0 c 0.333512,0 0.59861,-0.09043 0.79531,-0.273347 0.1967,-0.183437 0.295024,-0.425263 0.295032,-0.72858"
     id="text2233"
     style="fill:#ffffff;stroke:none"
     inkscape:connector-curvature="0" />
  <path
     d="m 14.646163,14.95618 c -4e-6,0.306675 -0.05419,0.593198 -0.162554,0.859052 -0.108372,0.266371 -0.253817,0.500705 -0.436328,0.703261 -0.182522,0.196354 -0.393554,0.352663 -0.633104,0.468668 -0.233852,0.111095 -0.479108,0.165351 -0.735769,0.165351 -0.26237,0 -0.510477,-0.05426 -0.744324,-0.165351 -0.233853,-0.116263 -0.439182,-0.272055 -0.615993,-0.468668 -0.176814,-0.204106 -0.316553,-0.43689 -0.419218,-0.703261 -0.102663,-0.265854 -0.153999,-0.552377 -0.153999,-0.859052 -10e-7,-0.318044 0.04848,-0.613093 0.145445,-0.885147 0.102667,-0.271797 0.239553,-0.506131 0.410662,-0.703002 0.176811,-0.204106 0.382142,-0.358606 0.615992,-0.468668 0.233848,-0.116263 0.48766,-0.175686 0.761436,-0.175686 0.250956,0 0.493362,0.05684 0.727214,0.175686 0.23955,0.116262 0.450584,0.274896 0.633104,0.477193 0.182514,0.204106 0.327955,0.439732 0.436328,0.712045 0.114069,0.271797 0.171105,0.561162 0.171108,0.867579 m -1.163542,0 c -3e-6,-0.157601 -0.02282,-0.303575 -0.06844,-0.442574 -0.04563,-0.139515 -0.105521,-0.258362 -0.179663,-0.355764 -0.07415,-0.105928 -0.159702,-0.18602 -0.256663,-0.24286 -0.09697,-0.05684 -0.196779,-0.08784 -0.299441,-0.08784 -0.114077,0 -0.219593,0.02842 -0.316552,0.08784 -0.09126,0.05942 -0.173965,0.139515 -0.248107,0.24286 -0.06845,0.09818 -0.122629,0.217024 -0.162554,0.355764 -0.03993,0.139515 -0.05989,0.286265 -0.05989,0.442574 -3e-6,0.149849 0.01997,0.292207 0.05989,0.425263 0.03993,0.134348 0.09411,0.248027 0.162554,0.347238 0.07414,0.09818 0.156846,0.178269 0.248107,0.235109 0.09696,0.05942 0.202476,0.08784 0.316552,0.08784 0.102661,0 0.202477,-0.02842 0.299441,-0.08784 0.09696,-0.05942 0.182514,-0.136932 0.256663,-0.235109 0.07414,-0.09818 0.134032,-0.21444 0.179663,-0.347238 0.04562,-0.134348 0.06844,-0.274897 0.06844,-0.425263 m 5.403305,-0.754933 c -0.07986,-0.134348 -0.182521,-0.227358 -0.307996,-0.286523 -0.125483,-0.05684 -0.242407,-0.08784 -0.350774,-0.08784 -0.256666,0 -0.433479,0.07493 -0.530438,0.227358 -0.09126,0.152433 -0.136889,0.375916 -0.136887,0.676649 l 0,2.343082 -1.14643,0 0,-4.24359 1.14643,0 0,0.209273 c 0.142589,-0.116263 0.276624,-0.196355 0.402107,-0.24286 0.13118,-0.0465 0.27092,-0.06976 0.419217,-0.06976 0.171106,0 0.325104,0.02584 0.461995,0.06976 0.142586,0.04651 0.285178,0.129181 0.427773,0.24286 L 18.885927,14.2028 m 2.413441,1.119223 c 0.06274,0.24286 0.171106,0.434047 0.325107,0.573046 0.153997,0.134348 0.322253,0.198938 0.504772,0.198938 0.23955,0 0.453436,-0.131764 0.641659,-0.390384 l 0.787102,0.694218 c -0.216741,0.260428 -0.439184,0.448515 -0.667326,0.564261 -0.228149,0.116263 -0.48196,0.175686 -0.761435,0.175686 -0.268074,0 -0.521885,-0.05426 -0.761436,-0.165351 -0.239555,-0.116263 -0.450588,-0.271797 -0.633103,-0.468668 -0.182519,-0.196355 -0.327961,-0.428105 -0.436329,-0.694218 -0.108369,-0.272055 -0.162554,-0.564262 -0.162554,-0.876621 0,-0.306417 0.05133,-0.592682 0.154,-0.859052 0.108367,-0.266113 0.250958,-0.497605 0.427773,-0.694477 0.176811,-0.204105 0.382142,-0.361447 0.615993,-0.477194 0.233847,-0.116262 0.479103,-0.175685 0.735768,-0.175685 0.342216,0 0.655916,0.100761 0.941101,0.303833 0.290881,0.198938 0.513323,0.462984 0.667325,0.798337 0.07984,0.198939 0.139723,0.402269 0.179658,0.616193 0.03993,0.209273 0.05988,0.445415 0.05988,0.711786 l 0,0.165352 -2.617968,0 m 1.42876,-0.962914 c -0.07985,-0.211857 -0.17111,-0.364548 -0.273774,-0.451358 -0.09697,-0.09301 -0.225298,-0.139515 -0.384996,-0.139515 -0.154002,0 -0.296591,0.05167 -0.427773,0.1576 -0.125483,0.09818 -0.219592,0.245444 -0.28233,0.434048 l 1.368873,0 0,0 m 5.132342,2.716156 0,-0.139515 c -0.199625,0.08268 -0.393555,0.134348 -0.581775,0.1576 -0.188229,0.02842 -0.362181,0.04392 -0.521884,0.04392 -0.233837,0 -0.447737,-0.03617 -0.641656,-0.105929 -0.193953,-0.06976 -0.362184,-0.167935 -0.504773,-0.295307 -0.142597,-0.129181 -0.253805,-0.27748 -0.333663,-0.451099 -0.07415,-0.180853 -0.111233,-0.373333 -0.111233,-0.581831 -3e-6,-0.217024 0.04278,-0.422163 0.128327,-0.607408 0.09127,-0.18602 0.213869,-0.344138 0.367884,-0.476936 0.154018,-0.139515 0.336511,-0.248027 0.54755,-0.321402 0.21102,-0.08009 0.439177,-0.121429 0.684435,-0.121429 0.11978,0 0.268069,0 0.444883,0.03617 0.176834,0.02584 0.350773,0.06717 0.521887,0.131765 -0.01145,-0.204106 -0.08554,-0.347238 -0.222442,-0.434306 -0.136899,-0.09301 -0.310848,-0.139516 -0.521881,-0.139516 -0.399255,0 -0.795657,0.111096 -1.189209,0.329928 l -0.419221,-0.920284 c 0.154018,-0.08009 0.296589,-0.14985 0.427777,-0.209273 0.136899,-0.05942 0.268065,-0.105928 0.393548,-0.139515 0.131175,-0.03617 0.259515,-0.06201 0.384995,-0.07751 0.125478,-0.02584 0.259515,-0.02584 0.402107,-0.02584 0.576063,0 1.023798,0.144683 1.343206,0.434048 0.325108,0.283422 0.487656,0.723154 0.487661,1.319194 l 0,2.594726 -1.086539,0 m 0,-1.709837 C 27.68933,15.301864 27.512514,15.255358 27.33,15.226939 c -0.176834,-0.03617 -0.322254,-0.05167 -0.436329,-0.05167 -0.182532,0 -0.336516,0.0465 -0.461996,0.139516 -0.119781,0.08784 -0.179658,0.196354 -0.179658,0.329927 -2e-6,0.134348 0.07417,0.248028 0.222467,0.34698 0.148294,0.09818 0.322249,0.147266 0.521879,0.147266 0.11978,0 0.250956,-0.02584 0.393552,-0.04392 0.148295,-0.02842 0.305138,-0.09043 0.470551,-0.183437 l 0,-0.546952 m 6.026779,1.709838 0,-2.551322 c -3e-6,-0.196354 -0.06275,-0.361706 -0.18823,-0.494762 -0.11978,-0.134348 -0.290891,-0.201522 -0.513327,-0.201522 -0.102662,0 -0.202499,0.02584 -0.29944,0.06201 -0.09129,0.03617 -0.176834,0.08526 -0.256661,0.147266 -0.07415,0.06459 -0.13405,0.136931 -0.179658,0.217024 -0.04563,0.08268 -0.06845,0.165351 -0.06845,0.25061 l 0,2.568632 -1.146432,0 0,-4.24359 1.146432,0 0,0.227358 c 0.193927,-0.12143 0.382141,-0.206689 0.564655,-0.253194 0.182532,-0.05167 0.370739,-0.07751 0.564663,-0.07751 0.216744,0 0.416364,0.03875 0.598881,0.113679 0.182531,0.06976 0.339365,0.167935 0.47055,0.295308 0.136899,0.126597 0.24241,0.280839 0.316554,0.460142 0.07984,0.175686 0.11978,0.361448 0.11978,0.564003 l 0,2.91587 -1.129323,0"
     id="text2239"
     style="fill:#ffffff;stroke:none"
     inkscape:connector-curvature="0" />
  <path
     d="m 20.854002,27.281839 c 0.06274,0.240276 0.171108,0.433789 0.325107,0.572788 0.153998,0.134348 0.322254,0.201522 0.504772,0.201522 0.23955,0 0.453436,-0.131765 0.641659,-0.390643 l 0.787102,0.694476 c -0.216741,0.26017 -0.439183,0.448257 -0.667326,0.564004 -0.228149,0.116262 -0.48196,0.175685 -0.761435,0.175685 -0.268073,0 -0.521885,-0.05426 -0.761435,-0.165351 -0.239555,-0.116263 -0.450589,-0.272313 -0.633104,-0.468926 -0.182519,-0.196355 -0.327961,-0.428106 -0.436328,-0.694218 -0.10837,-0.272055 -0.162554,-0.564262 -0.162554,-0.876621 -1e-6,-0.306676 0.05133,-0.593199 0.153999,-0.859053 0.108367,-0.266371 0.250959,-0.497863 0.427773,-0.694476 0.176811,-0.204106 0.382142,-0.361706 0.615993,-0.477452 0.233847,-0.116263 0.479103,-0.175686 0.735769,-0.175686 0.342215,0 0.655915,0.100761 0.9411,0.303833 0.290882,0.198939 0.513323,0.462984 0.667326,0.798596 0.07984,0.198938 0.139735,0.402011 0.179662,0.616193 0.03992,0.209273 0.05988,0.445415 0.05989,0.711528 l 0,0.165351 -2.61797,0 m 1.428761,-0.963431 c -0.07985,-0.21444 -0.171111,-0.364548 -0.273774,-0.451357 -0.09697,-0.09301 -0.225298,-0.139516 -0.384996,-0.139516 -0.154002,0 -0.296592,0.05167 -0.427772,0.157601 -0.125483,0.09818 -0.219593,0.24286 -0.282331,0.434047 l 1.368873,0 0,0 m 4.24257,-0.503546 0,1.588407 c -2e-6,0.196355 0.03136,0.347238 0.09411,0.451358 0.06275,0.09818 0.199625,0.139515 0.410661,0.12143 0.148294,0 0.25383,-0.04134 0.316551,-0.08784 0.06845,-0.0465 0.151118,-0.12143 0.248107,-0.227358 l -0.29944,1.20629 c -0.09699,0.04134 -0.171111,0.07493 -0.222441,0.105928 -0.05133,0.02842 -0.09981,0.05167 -0.145446,0.06976 -0.03993,0.02584 -0.08842,0.02842 -0.145445,0.03617 -0.05133,0 -0.128327,0.02584 -0.231014,0.02584 -0.393557,0 -0.684441,-0.113679 -0.872657,-0.338454 -0.182532,-0.227358 -0.27378,-0.546693 -0.273775,-0.96343 l 0,-1.978792 -0.787102,0 0,-1.006577 0.787102,0 0,-1.241428 1.120764,-0.451099 0,1.674958 1.069434,0 0,1.024146 -1.069434,0 m 3.53581,1.466977 c 0.06275,0.240277 0.171086,0.433789 0.325108,0.572788 0.154018,0.134348 0.322254,0.201522 0.504771,0.201522 0.23956,0 0.453437,-0.131764 0.641659,-0.390643 l 0.787104,0.694218 c -0.216769,0.260428 -0.439185,0.448516 -0.667327,0.564262 -0.228139,0.116262 -0.481959,0.175686 -0.761436,0.175686 -0.268072,0 -0.521882,-0.05426 -0.761435,-0.165352 -0.23956,-0.116262 -0.450588,-0.272313 -0.633102,-0.468926 -0.182532,-0.198939 -0.327962,-0.428105 -0.436331,-0.694218 -0.108359,-0.272055 -0.162564,-0.564262 -0.162564,-0.876621 0,-0.306675 0.05133,-0.593198 0.154017,-0.859311 0.108359,-0.266112 0.250956,-0.497604 0.427775,-0.694218 0.176834,-0.204105 0.382144,-0.361706 0.615994,-0.477452 0.233837,-0.116263 0.4791,-0.175686 0.735768,-0.175686 0.342217,0 0.655917,0.100761 0.941097,0.303833 0.290883,0.198939 0.513322,0.462726 0.667327,0.798338 0.07984,0.198938 0.139748,0.402269 0.179658,0.616451 0.03993,0.209273 0.05988,0.445415 0.05988,0.711528 l 0,0.165351 -2.61797,0 m 1.428764,-0.963689 c -0.07985,-0.211856 -0.171111,-0.36429 -0.273778,-0.451099 -0.09699,-0.09301 -0.22529,-0.139515 -0.384992,-0.139515 -0.154018,0 -0.296594,0.05167 -0.427775,0.1576 -0.125478,0.09818 -0.219593,0.24286 -0.282329,0.434048 l 1.368874,0 0,0 m 5.431777,-0.157601 c -0.07984,-0.134348 -0.182532,-0.229942 -0.307994,-0.286265 -0.125478,-0.05942 -0.242409,-0.08784 -0.350779,-0.08784 -0.256663,0 -0.43348,0.07493 -0.530436,0.227359 -0.09129,0.152433 -0.136898,0.376174 -0.136898,0.676907 l 0,2.34334 -1.14643,0 0,-4.244106 1.14643,0 0,0.209273 c 0.142596,-0.116263 0.276626,-0.198939 0.402109,-0.24286 0.131175,-0.0465 0.270915,-0.06976 0.419215,-0.06976 0.171085,0 0.325103,0.02584 0.461994,0.06976 0.142596,0.0465 0.28518,0.126597 0.427774,0.24286 l -0.384995,1.162885 m 3.944866,2.872723 0,-0.139515 c -0.199625,0.08268 -0.393553,0.134348 -0.581772,0.157601 -0.188229,0.02842 -0.362181,0.04392 -0.521882,0.04392 -0.233862,0 -0.447736,-0.03617 -0.641659,-0.105928 -0.193927,-0.06976 -0.362181,-0.167935 -0.504773,-0.295049 -0.142596,-0.129181 -0.253804,-0.277739 -0.333662,-0.451099 -0.07417,-0.180854 -0.111208,-0.373591 -0.111208,-0.581572 0,-0.222191 0.04278,-0.42268 0.128327,-0.607667 0.09124,-0.18602 0.213869,-0.344396 0.367882,-0.477452 0.154017,-0.139516 0.336513,-0.245444 0.547552,-0.320886 0.211046,-0.08268 0.439175,-0.12143 0.684435,-0.12143 0.11978,0 0.268067,0 0.444883,0.03617 0.176834,0.02584 0.350768,0.06717 0.521882,0.131764 -0.01145,-0.204106 -0.08554,-0.347238 -0.222442,-0.434048 -0.136898,-0.09301 -0.310848,-0.139515 -0.521881,-0.139515 -0.399255,0 -0.795659,0.111096 -1.189206,0.329669 l -0.419218,-0.920025 c 0.154018,-0.08268 0.296589,-0.152434 0.427772,-0.209273 0.136899,-0.05942 0.268069,-0.103345 0.39355,-0.139516 0.131175,-0.03617 0.259515,-0.06201 0.384998,-0.07751 0.125478,-0.02584 0.259512,-0.02584 0.402104,-0.02584 0.576063,0 1.023803,0.144683 1.343208,0.43379 0.325103,0.283681 0.487657,0.723412 0.48766,1.319453 l 0,2.594984 -1.086543,0 m 0,-1.709579 c -0.17111,-0.06459 -0.347924,-0.111095 -0.530438,-0.139515 -0.176834,-0.03617 -0.322257,-0.05167 -0.436326,-0.05167 -0.182532,0 -0.336516,0.04651 -0.461997,0.139516 -0.11978,0.08784 -0.179683,0.198938 -0.179683,0.329669 -2e-6,0.134348 0.07417,0.250611 0.222467,0.347238 0.148295,0.09818 0.322249,0.147266 0.521882,0.147266 0.11978,0 0.250956,-0.02584 0.393552,-0.04392 0.148294,-0.02842 0.30514,-0.09043 0.470548,-0.183437 l 0,-0.546435 m 6.026781,1.709579 0,-2.551579 c -5e-6,-0.198939 -0.06275,-0.361707 -0.188229,-0.494763 -0.11978,-0.134348 -0.290891,-0.201522 -0.51333,-0.201522 -0.102661,0 -0.202499,0.02584 -0.299443,0.06201 -0.09124,0.03359 -0.176834,0.08526 -0.256661,0.147266 -0.07415,0.06459 -0.13405,0.136932 -0.179657,0.217024 -0.04561,0.08268 -0.06845,0.165351 -0.06845,0.250611 l 0,2.569148 -1.146429,0 0,-4.244107 1.146432,0 0,0.227358 c 0.193953,-0.12143 0.382141,-0.206689 0.564663,-0.253194 0.182532,-0.05167 0.370731,-0.07751 0.564658,-0.07751 0.216769,0 0.416366,0.03875 0.598885,0.113679 0.182532,0.06976 0.339363,0.167935 0.470546,0.295049 0.136874,0.129181 0.242409,0.280581 0.316551,0.459884 0.07984,0.175686 0.11978,0.361706 0.11978,0.564262 l 0,2.916128 -1.129321,0 m 6.57006,-1.223601 c -3e-6,0.18602 -0.02851,0.347238 -0.08554,0.485978 -0.05705,0.134348 -0.151143,0.258362 -0.282329,0.373074 -0.182531,0.152434 -0.396406,0.260687 -0.641661,0.329928 -0.239561,0.06459 -0.527585,0.09559 -0.864099,0.09559 -0.19965,0 -0.382149,0 -0.547549,-0.02584 -0.159715,0 -0.316554,-0.031 -0.470551,-0.06201 -0.148294,-0.03617 -0.293742,-0.07751 -0.436329,-0.131766 -0.136898,-0.05167 -0.282331,-0.116263 -0.436328,-0.191188 l 0.444885,-1.024145 c 0.21102,0.105928 0.44488,0.18602 0.701544,0.240276 0.256663,0.05942 0.490513,0.08784 0.701552,0.08784 0.233837,0 0.419205,-0.02584 0.556098,-0.06201 0.142597,-0.04134 0.21387,-0.100761 0.21387,-0.183437 -5e-6,-0.06459 -0.02567,-0.118846 -0.07702,-0.165351 -0.05133,-0.0465 -0.13405,-0.08009 -0.248107,-0.103345 -0.05705,-0.02584 -0.125478,-0.03617 -0.205322,-0.05167 -0.07984,-0.02584 -0.162565,-0.03617 -0.248107,-0.05167 -0.07984,-0.02584 -0.156867,-0.04392 -0.231014,-0.06201 -0.07415,-0.02584 -0.13405,-0.04392 -0.179657,-0.06201 -0.456297,-0.134348 -0.789956,-0.306675 -1.00099,-0.520599 -0.205322,-0.222191 -0.307999,-0.494762 -0.307999,-0.824432 0,-0.381858 0.154017,-0.680008 0.461994,-0.89419 0.307997,-0.219607 0.724363,-0.329669 1.249099,-0.329669 0.290878,0 0.581769,0.03617 0.87266,0.105928 0.29088,0.06459 0.60458,0.180853 0.941099,0.347238 l -0.444891,1.024146 c -0.211046,-0.116263 -0.43918,-0.206689 -0.684428,-0.269213 -0.23956,-0.06976 -0.453447,-0.105928 -0.641664,-0.105928 -0.216769,0 -0.37359,0.02584 -0.470551,0.05167 -0.09127,0.03617 -0.136899,0.09301 -0.136899,0.173102 0,0.04134 0.0059,0.07493 0.0173,0.105928 0.0173,0.02842 0.04848,0.05426 0.09412,0.07751 0.0513,0.02584 0.122629,0.03875 0.213869,0.06201 0.09124,0.02584 0.211046,0.03875 0.359336,0.06201 0.60458,0.129181 1.058017,0.309776 1.360317,0.546952 0.302286,0.232526 0.453437,0.546693 0.453439,0.94612"
     id="text3116"
     style="fill:#ffffff;stroke:none"
     inkscape:connector-curvature="0" />
  <path
     d="m 32.227142,37.889135 1.163543,2.942222 -1.163543,0 -0.761437,-1.961481 -0.667324,0.676907 0,1.284574 -1.146433,0 0,-5.467707 1.146433,-0.451358 0,2.881507 1.206317,-1.18898 1.428761,0 -1.206317,1.284316 m 6.950771,2.942222 -1.10365,0 -0.521884,-2.10048 -0.66733,2.10048 -1.103648,0 -1.206322,-4.243848 1.16354,0 0.590329,2.021938 0.581771,-2.021938 1.249097,0 0.496213,1.995844 0.564663,-1.995844 1.189209,0 -1.231988,4.243848 m 4.703228,1.631812 -1.146432,0 0.684438,-1.692527 -1.976314,-4.183133 1.308989,0 1.146427,2.81175 1.146433,-2.81175 1.206319,0 -2.36986,5.87566"
     id="text3120"
     style="fill:#ffffff;stroke:none"
     inkscape:connector-curvature="0" />
  <path
     d="m 46.45582,18.533455 -1.808682,0 -1.321236,-5.231048 -1.475168,5.231048 -1.808687,0 -1.359716,-8.744508 1.718889,0 0.756825,4.710708 1.20579,-4.710708 1.808685,0 1.205788,4.710708 0.718343,-4.710708 1.718889,0 -1.35972,8.744508"
     id="text1373"
     style="fill:#ffffff;stroke:none"
     inkscape:connector-curvature="0" />
  <path
     d="m 51.872163,17.073712 0,-0.139516 c -0.199625,0.08268 -0.393555,0.134348 -0.581774,0.157601 -0.18823,0.02842 -0.362182,0.04392 -0.521882,0.04392 -0.233837,0 -0.447737,-0.03617 -0.641659,-0.105928 -0.193927,-0.06976 -0.362182,-0.167935 -0.504773,-0.295307 -0.142597,-0.129181 -0.25383,-0.277481 -0.333665,-0.4511 -0.07417,-0.180853 -0.111233,-0.373332 -0.111233,-0.581572 0,-0.219607 0.04278,-0.422421 0.128326,-0.607666 0.09127,-0.186021 0.21387,-0.344138 0.367887,-0.476936 0.154018,-0.139515 0.336514,-0.245443 0.547547,-0.321143 0.211046,-0.08009 0.43918,-0.12143 0.684438,-0.12143 0.11978,0 0.268067,0 0.444883,0.03617 0.176834,0.02584 0.350771,0.06717 0.521887,0.131765 -0.01145,-0.204106 -0.08557,-0.347238 -0.222467,-0.434306 -0.136899,-0.09301 -0.310848,-0.139516 -0.521884,-0.139516 -0.399255,0 -0.795654,0.111096 -1.189201,0.329928 L 49.519368,13.17865 c 0.154017,-0.08009 0.296591,-0.149849 0.427777,-0.209272 0.136899,-0.05942 0.268069,-0.105929 0.393552,-0.139516 0.131176,-0.03617 0.25951,-0.06201 0.384993,-0.07751 0.125478,-0.02584 0.259512,-0.02584 0.402104,-0.02584 0.576071,0 1.023801,0.144682 1.343211,0.434047 0.3251,0.283423 0.487657,0.723154 0.487662,1.319195 l 0,2.594726 -1.086542,0 m 0,-1.709838 c -0.171111,-0.06459 -0.34793,-0.111095 -0.530439,-0.139515 -0.176834,-0.03617 -0.322261,-0.05167 -0.436331,-0.05167 -0.182532,0 -0.336514,0.0465 -0.461994,0.139515 -0.11978,0.08784 -0.179658,0.196355 -0.179658,0.329928 0,0.134348 0.07417,0.250611 0.222467,0.347238 0.148295,0.09818 0.322249,0.147266 0.521885,0.147266 0.11978,0 0.250955,-0.02584 0.393549,-0.04392 0.148295,-0.02842 0.305138,-0.09043 0.470551,-0.183437 l 0,-0.546952 m 5.847121,-1.162627 c -0.07984,-0.134348 -0.182532,-0.229942 -0.307999,-0.286523 -0.125504,-0.05684 -0.242409,-0.08784 -0.350774,-0.08784 -0.256668,0 -0.433479,0.07493 -0.530438,0.227358 -0.09129,0.152433 -0.136899,0.376175 -0.136899,0.676649 l 0,2.34334 -1.146432,0 0,-4.24359 1.146432,0 0,0.209273 c 0.142597,-0.116263 0.276624,-0.198938 0.402104,-0.245443 0.131176,-0.0465 0.270921,-0.06976 0.419218,-0.06976 0.171085,0 0.325103,0.02584 0.461997,0.06976 0.142571,0.0465 0.28518,0.12918 0.427771,0.245443 l -0.38499,1.163144"
     id="text1377"
     style="fill:#ffffff;stroke:none"
     inkscape:connector-curvature="0" />
</svg>
