<?xml version="1.0" encoding="UTF-8" standalone="no"?>
<!-- Created with Inkscape (http://www.inkscape.org/) -->

<svg
   xmlns:dc="http://purl.org/dc/elements/1.1/"
   xmlns:cc="http://creativecommons.org/ns#"
   xmlns:rdf="http://www.w3.org/1999/02/22-rdf-syntax-ns#"
   xmlns:svg="http://www.w3.org/2000/svg"
   xmlns="http://www.w3.org/2000/svg"
   xmlns:sodipodi="http://sodipodi.sourceforge.net/DTD/sodipodi-0.dtd"
   xmlns:inkscape="http://www.inkscape.org/namespaces/inkscape"
   version="1.0"
   width="48"
   height="48"
   id="svg2"
   sodipodi:version="0.32"
   inkscape:version="0.48.1 r9760"
   sodipodi:docname="US:NY-SASP.svg">
  <metadata
     id="metadata2431">
    <rdf:RDF>
      <cc:Work
         rdf:about="">
        <dc:format>image/svg+xml</dc:format>
        <dc:type
           rdf:resource="http://purl.org/dc/dcmitype/StillImage" />
      </cc:Work>
    </rdf:RDF>
  </metadata>
  <sodipodi:namedview
     inkscape:window-height="996"
     inkscape:window-width="1278"
     inkscape:pageshadow="2"
     inkscape:pageopacity="0.0"
     borderopacity="1.0"
     bordercolor="#666666"
     pagecolor="#ffffff"
     id="base"
     inkscape:zoom="16.895833"
     inkscape:cx="24"
     inkscape:cy="24"
     inkscape:window-x="1"
     inkscape:window-y="27"
     inkscape:current-layer="svg2"
     showgrid="true"
     inkscape:showpageshadow="false"
     inkscape:window-maximized="0">
    <inkscape:grid
       type="xygrid"
       id="grid3548"
       empspacing="5"
       visible="true"
       enabled="true"
       snapvisiblegridlinesonly="true" />
  </sodipodi:namedview>
  <defs
     id="defs4" />
  <g
     id="g3554">
    <rect
       y="1.6999999"
       x="1.7"
       height="44.599998"
       width="44.599998"
       id="rect1474"
       style="fill:#ffffff;fill-opacity:1" />
    <path
       d="M 2.8335835,46.985244 C 2.5329677,46.942136 2.1979209,46.814695 1.9440415,46.646893 1.7645296,46.528245 1.4989403,46.2704 1.3749444,46.094394 1.2350982,45.895888 1.1069718,45.619332 1.048377,45.389516 L 1,45.199776 1,23.988678 1,2.7775781 1.0545729,2.5837259 C 1.1643811,2.1936693 1.3578624,1.8707614 1.6463812,1.5960356 1.9345123,1.3216791 2.2642825,1.139341 2.6384957,1.0474711 l 0.1933629,-0.047471 21.1783194,0 21.178319,0 0.197551,0.053551 c 0.383946,0.1040766 0.683588,0.2720755 0.967571,0.5424845 0.292769,0.2787709 0.5009,0.6309129 0.598004,1.0117738 L 47,2.7975508 l 0,21.2111002 0,21.211097 -0.05457,0.193851 c -0.06729,0.239028 -0.184339,0.4877 -0.320583,0.681093 -0.123886,0.175851 -0.389512,0.433642 -0.569196,0.552408 -0.181918,0.120241 -0.467749,0.246683 -0.683966,0.30256 l -0.183186,0.04734 -21.117257,0.0028 C 12.2905,47.001289 2.9007507,46.994874 2.8335835,46.985244 z m 42.0903105,-1.10352 c 0.487215,-0.146351 0.820884,-0.485741 0.945456,-0.961668 L 45.9112,44.760172 45.9058,23.958618 C 45.900673,3.8381144 45.899274,3.1531374 45.86311,3.0372242 45.714004,2.5592776 45.369375,2.2331327 44.883078,2.1097492 l -0.16294,-0.041341 -20.760952,0.00525 C 3.8796265,2.0787424 3.194222,2.0801188 3.0761063,2.1155995 2.589046,2.2619067 2.256668,2.6000857 2.1309311,3.0772705 l -0.042128,0.1598831 0.00535,20.8015554 c 0.00517,20.120501 0.00657,20.805479 0.042737,20.921395 0.1476153,0.473159 0.4899477,0.800123 0.9697474,0.926207 0.1524469,0.04006 0.1809955,0.04012 20.9238925,0.03611 20.091533,-0.0038 20.775236,-0.0052 20.893364,-0.0407 z M 3.0941697,28.324114 c -0.00616,-0.01575 -0.00678,-0.09889 -0.00137,-0.184758 0.00541,-0.08587 0.024564,-0.713364 0.042579,-1.394434 0.02616,-0.989019 0.038297,-1.242336 0.060284,-1.258285 0.015142,-0.01099 0.3745467,-0.104277 0.7986784,-0.207306 0.4241316,-0.103033 0.7829956,-0.198119 0.7974758,-0.211295 0.020256,-0.01844 0.1174538,-2.059336 0.4214895,-8.850196 0.2173391,-4.854427 0.3886775,-8.8324423 0.3807524,-8.8400346 -0.00793,-0.00759 -0.051046,-0.016651 -0.095826,-0.020132 l -0.081416,-0.00633 0,-0.5991835 0,-0.5991835 0.4783185,-0.00999 0.4783184,-0.00999 0.00533,-0.6491156 0.00533,-0.6491156 0.5746296,-0.564231 C 7.2747897,3.9602195 7.5426531,3.7063156 7.5539948,3.7063156 c 0.011342,0 0.2792053,0.2539039 0.5952519,0.5642313 l 0.5746297,0.564231 0.00533,0.6491156 0.00533,0.6491156 0.3969029,0.00999 0.3969027,0.00999 0,0.5991835 0,0.5991835 -0.10177,0.00619 c -0.055973,0.0034 -0.1084665,0.012673 -0.1166511,0.020595 -0.012796,0.012385 0.3876262,12.9857279 0.4235053,13.7212539 0.011989,0.245822 0.015899,0.265665 0.050523,0.256778 0.020642,-0.0053 0.4176168,-0.248764 0.8821648,-0.541035 0.464548,-0.292272 0.858892,-0.531403 0.876321,-0.531403 0.02425,0 2.958629,1.933584 3.028505,1.995607 0.0083,0.0074 0.06031,0.609609 0.11548,1.338226 0.05847,0.772122 0.109326,1.333608 0.121919,1.345966 0.01188,0.01166 0.367562,0.06885 0.790393,0.127073 l 0.768786,0.105866 1.098994,-0.327015 c 0.886176,-0.263691 1.105823,-0.322618 1.134258,-0.304303 0.0194,0.0125 0.507705,0.521535 1.085132,1.131205 0.577427,0.609668 1.079058,1.12937 1.114736,1.154891 0.03568,0.02552 0.207977,0.117134 0.382888,0.203585 l 0.318017,0.157179 0.424902,0.08012 c 0.277818,0.05238 0.53647,0.08756 0.747202,0.101645 l 0.322296,0.02153 0.288322,-0.06156 c 0.568128,-0.121321 0.819111,-0.181558 0.919293,-0.220638 0.08053,-0.03142 0.13775,-0.07933 0.274109,-0.229542 0.09479,-0.104414 0.183289,-0.187311 0.196671,-0.184222 0.01338,0.0031 0.119014,0.112716 0.234739,0.243607 0.115725,0.130893 0.233309,0.254375 0.261294,0.274411 0.02799,0.02004 0.224766,0.09039 0.437284,0.15634 l 0.386393,0.119909 0.479855,0.04031 0.47985,0.0403 0.639027,-0.04039 0.63903,-0.04039 0.357113,-0.131011 c 0.196414,-0.07206 0.375433,-0.142653 0.397821,-0.156885 0.02239,-0.01423 0.141099,-0.107966 0.2638,-0.208297 0.122696,-0.100331 0.232845,-0.182417 0.244775,-0.182417 0.01193,0 0.06725,0.05935 0.122929,0.131883 0.136878,0.178307 0.199063,0.222659 0.525876,0.375038 0.199624,0.09308 0.376107,0.156958 0.610676,0.221039 0.300234,0.08201 0.367369,0.0929 0.746413,0.12098 l 0.416504,0.03085 0.392533,-0.06186 c 0.46988,-0.07405 1.043329,-0.230761 1.390302,-0.379937 0.216524,-0.09309 0.259072,-0.121027 0.517238,-0.339617 0.154717,-0.131 0.291427,-0.238182 0.303794,-0.238182 0.01237,0 0.122933,0.09887 0.245691,0.219701 0.12276,0.120835 0.230421,0.219701 0.239249,0.219701 0.0088,0 0.0502,0.02181 0.09194,0.04847 0.04174,0.02666 0.218191,0.10294 0.392118,0.169502 0.273975,0.104856 0.374302,0.131736 0.750909,0.201182 0.239075,0.04409 0.491481,0.08015 0.560898,0.08015 0.06941,0 0.308544,-0.0271 0.53139,-0.06022 0.394263,-0.0586 0.414566,-0.06397 0.753731,-0.199306 0.565629,-0.225702 0.790269,-0.33814 1.012503,-0.506781 0.110484,-0.08384 0.210534,-0.152439 0.222335,-0.152439 0.01181,0 0.136739,0.1101 0.27764,0.244667 0.235465,0.224878 0.282951,0.259804 0.587088,0.431807 l 0.330903,0.187143 0.391462,0.09633 c 0.370026,0.09105 0.414603,0.09754 0.814035,0.118397 0.408599,0.02133 0.435515,0.02034 0.814157,-0.03015 0.682636,-0.09101 1.086718,-0.213652 1.319351,-0.400416 l 0.135774,-0.108999 0.781065,0.0053 0.781063,0.0053 0,0.539264 0,0.539265 -21.224749,0.005 c -18.4143209,0.0043 -21.2262343,0.0012 -21.2359491,-0.02363 z m 5.0602552,-3.945968 0.010177,-1.98729 0.4314,-0.280185 c 0.2372699,-0.154101 0.4366986,-0.28538 0.4431748,-0.291737 0.01443,-0.01415 -0.08688,-3.250227 -0.1025305,-3.275075 -0.015505,-0.02462 -3.1577086,-0.02334 -3.1732215,0.0012 -0.016174,0.02567 -0.3791382,7.790974 -0.3651995,7.813103 0.00614,0.0098 0.6140559,0.01519 1.3785067,0.01231 l 1.3675159,-0.0052 0.010177,-1.987293 z M 8.8352237,12.05662 C 8.8495753,12.033833 8.748493,7.3835279 8.7331154,7.3591125 8.7183283,7.3356334 6.1860528,7.3357043 6.1712647,7.3591764 6.1558278,7.3836858 6.0547531,12.033671 6.0691595,12.056545 c 0.015423,0.02449 2.7506427,0.02455 2.7660642,6.4e-5 z m -1.4440729,-6.5627433 0,-0.639129 -0.3154867,0 -0.3154868,0 -0.00539,0.6189615 c -0.00296,0.3404288 -8.689e-4,0.6305189 0.00466,0.6446447 0.00771,0.01972 0.082222,0.024403 0.3208764,0.020167 l 0.3108327,-0.00552 0,-0.6391294 z m 0.9566371,0 0,-0.639129 -0.3154866,0 -0.3154867,0 -0.00539,0.6189615 c -0.00296,0.3404288 -8.689e-4,0.6305189 0.00466,0.6446447 0.00771,0.01972 0.082222,0.024403 0.3208762,0.020167 l 0.3108328,-0.00552 0,-0.6391294 z"
       style="fill:#000000"
       id="path1317"
       inkscape:connector-curvature="0" />
  </g>
  <path
     inkscape:connector-curvature="0"
     id="text1331"
     style="font-size:376.64926147px;font-style:normal;font-variant:normal;font-weight:normal;font-stretch:normal;text-align:center;line-height:100%;writing-mode:lr-tb;text-anchor:middle;fill:#000000;fill-opacity:1;stroke:none;font-family:Roadgeek 2005 Series E"
     d="m 29.247819,18.165611 c -1.3e-5,0.770043 -0.142302,1.48149 -0.426869,2.134346 -0.284591,0.652861 -0.694719,1.222019 -1.230388,1.707476 -0.468729,0.418499 -1.021147,0.74493 -1.657256,0.979288 -0.619389,0.21762 -1.288986,0.326429 -2.008797,0.326429 -1.456382,0 -2.703508,-0.385018 -3.741382,-1.155057 -1.02114,-0.786777 -1.816288,-1.824654 -2.385445,-3.113634 l 2.536105,-0.929068 c 0.351535,0.803523 0.836994,1.422901 1.456377,1.858136 0.619374,0.418502 1.33082,0.627751 2.134345,0.627749 0.786771,2e-6 1.41452,-0.234357 1.883246,-0.703079 0.485451,-0.485455 0.72818,-1.079723 0.728189,-1.782806 -9e-6,-0.552413 -0.150669,-1.004392 -0.451978,-1.355937 C 25.799377,16.407921 25.422729,16.114972 24.954018,15.880605 24.485291,15.629513 23.966353,15.411894 23.3972,15.227747 22.844775,15.043615 22.292358,14.842736 21.739944,14.625108 21.48884,14.524677 21.179151,14.382387 20.810876,14.198239 20.442593,14.014108 20.082684,13.763009 19.731148,13.44494 19.396346,13.110151 19.103397,12.700022 18.8523,12.214553 c -0.234362,-0.485448 -0.351541,-1.079716 -0.35154,-1.782807 -1e-6,-0.8202446 0.133918,-1.5149526 0.401759,-2.0841256 0.267838,-0.5858835 0.627747,-1.0546021 1.079728,-1.4061572 0.468716,-0.3682629 1.021134,-0.6361019 1.657257,-0.8035184 0.652854,-0.1673826 1.355931,-0.2510824 2.109236,-0.2510995 1.188529,1.71e-5 2.176186,0.3097062 2.962975,0.9290681 0.803507,0.6193944 1.414516,1.4563919 1.833024,2.5109951 L 26.184404,10.029987 C 26.050475,9.7621609 25.874706,9.5194316 25.657095,9.3017985 25.472949,9.1176728 25.21348,8.9502732 24.878689,8.7995995 24.56062,8.6489541 24.167231,8.5652544 23.69852,8.5484999 c -0.301327,-0.016725 -0.619385,0.00838 -0.954178,0.07533 -0.318064,0.050234 -0.602644,0.150674 -0.853738,0.3013193 -0.251105,0.1506738 -0.451984,0.3599231 -0.602639,0.6277488 -0.150664,0.2511127 -0.209254,0.569172 -0.17577,0.954178 0.03348,0.518951 0.259465,0.92071 0.677969,1.205278 0.418494,0.26785 0.929063,0.50221 1.531707,0.703078 0.602631,0.20089 1.24712,0.41014 1.933466,0.627749 0.703069,0.20089 1.347558,0.502209 1.933467,0.903958 0.585887,0.385028 1.071347,0.912337 1.456375,1.581927 0.401749,0.652866 0.602627,1.531713 0.60264,2.636545 m 12.742908,4.846221 -1.657258,-4.720671 -5.247979,0 -1.657256,4.720671 -2.837424,0 5.800397,-16.8236674 2.636547,0 5.800397,16.8236674 -2.837424,0 m -4.243582,-12.153217 -1.732586,4.720671 3.364733,0 -1.632147,-4.720671" />
  <path
     inkscape:connector-curvature="0"
     id="text1335"
     style="font-size:212.95323181px;font-style:normal;font-variant:normal;font-weight:normal;font-stretch:normal;text-align:center;line-height:100%;writing-mode:lr-tb;text-anchor:middle;fill:#000000;fill-opacity:1;stroke:none;font-family:Roadgeek 2005 Series E"
     d="m 10.954849,40.418144 c -5e-6,0.123042 -0.01657,0.246082 -0.04969,0.369117 -0.03313,0.123043 -0.08282,0.238985 -0.149068,0.347825 -0.06152,0.108844 -0.13724,0.210589 -0.227149,0.305233 -0.08992,0.08992 -0.191662,0.165631 -0.305233,0.227149 -0.137241,0.07572 -0.2697446,0.125409 -0.3975132,0.149067 -0.1230427,0.02366 -0.274476,0.03549 -0.4543002,0.03549 l -1.3558021,0 0,1.866889 -0.8660097,0 0,-4.755955 2.2218118,0 c 0.1798242,6e-6 0.3312575,0.0142 0.4543002,0.04259 0.1277686,0.0284 0.2602722,0.08045 0.3975132,0.156166 0.227146,0.123045 0.404606,0.295774 0.532382,0.518187 0.1325,0.22242 0.198752,0.4685 0.198757,0.738238 m -0.851813,0 c -3e-6,-0.184558 -0.06389,-0.331258 -0.1916579,-0.440105 C 9.783603,39.869201 9.6132406,39.814779 9.4002904,39.814775 l -1.3841959,0 0,1.18544 1.3841959,0 c 0.2129502,2e-6 0.3833126,-0.05205 0.5110877,-0.156165 0.1277689,-0.10884 0.1916549,-0.250809 0.1916579,-0.425906 m 5.156573,3.300773 -0.468497,-1.121554 -2.072745,0 -0.461398,1.121554 -0.936994,0 2.00176,-4.755955 0.86601,0 1.987563,4.755955 -0.915699,0 m -1.504869,-3.570516 -0.667254,1.604249 1.334507,0 -0.667253,-1.604249 m 6.12795,3.570516 -0.766631,-1.866889 -1.270621,0 0,1.866889 -0.851813,0 0,-4.755955 2.18632,0 c 0.175092,6e-6 0.324159,0.0142 0.447201,0.04259 0.123037,0.0284 0.246076,0.08045 0.369119,0.156166 0.227147,0.123045 0.406973,0.295774 0.539482,0.518187 0.1325,0.22242 0.198752,0.4685 0.198756,0.738238 -4e-6,0.269742 -0.06862,0.515822 -0.205855,0.738237 -0.132508,0.217687 -0.3218,0.392783 -0.567875,0.525285 l 0.873108,2.037251 -0.951191,0 m 0,-3.300773 c -3e-6,-0.184558 -0.06152,-0.331258 -0.184559,-0.440105 -0.123043,-0.108838 -0.291039,-0.16326 -0.503989,-0.163264 l -1.348704,0 0,1.18544 1.348704,0 c 0.21295,2e-6 0.380946,-0.05205 0.503989,-0.156165 0.123036,-0.10884 0.184556,-0.250809 0.184559,-0.425906 m 4.875076,3.300773 -1.213833,-2.470256 -0.901502,1.135749 0,1.334507 -0.851813,0 0,-4.755955 0.851813,0 0,2.072746 1.682329,-2.072746 1.10026,0 -1.263522,1.554559 1.568755,3.201396 -0.972487,0 m 5.487871,0 -0.901502,0 -0.766631,-3.1872 -0.752436,3.1872 -0.901502,0 -0.866009,-4.755955 0.880207,0 0.518184,3.073626 0.702747,-3.073626 0.851813,0 0.73114,3.073626 0.489791,-3.073626 0.866011,0 -0.851813,4.755955 m 5.158568,0 -0.468497,-1.121554 -2.072745,0 -0.461397,1.121554 -0.936996,0 2.001762,-4.755955 0.866009,0 1.987564,4.755955 -0.9157,0 m -1.504868,-3.570516 -0.667254,1.604249 1.334507,0 -0.667253,-1.604249 m 5.659452,1.632642 0,1.937874 -0.851811,0 0,-1.937874 -2.001762,-2.818081 1.050571,0 1.384196,1.937875 1.369997,-1.937875 1.050571,0 -2.001762,2.818081" />
  <path
     inkscape:connector-curvature="0"
     id="text1339"
     style="font-size:212.95323181px;font-style:normal;font-variant:normal;font-weight:normal;font-stretch:normal;text-align:center;line-height:100%;writing-mode:lr-tb;text-anchor:middle;fill:#000000;fill-opacity:1;stroke:none;font-family:Roadgeek 2005 Series E"
     d="m 10.955958,34.068055 c -4e-6,0.482696 -0.222422,0.85418 -0.667253,1.114456 -0.165634,0.104111 -0.3525593,0.18456 -0.5607771,0.241346 -0.2082237,0.05206 -0.4235428,0.07808 -0.6459581,0.07808 -0.4117113,0 -0.7760977,-0.07335 -1.0931597,-0.220051 C 7.6764777,35.130455 7.3854419,34.898573 7.115702,34.586242 L 7.7971521,34.05386 c 0.179826,0.208222 0.3691175,0.359655 0.5678753,0.4543 0.1987544,0.09465 0.4330028,0.141969 0.7027455,0.141969 0.3028642,0 0.5513095,-0.05679 0.7453363,-0.170363 0.1940208,-0.118306 0.2910328,-0.267373 0.2910358,-0.447202 -3e-6,-0.189291 -0.09938,-0.333626 -0.2981342,-0.433004 C 9.7208266,33.566435 9.630913,33.533309 9.5362699,33.50018 9.4463537,33.467058 9.3469757,33.438662 9.2381355,33.415 L 9.0180838,33.351113 8.7980322,33.301424 8.570882,33.23044 C 8.3248014,33.173655 8.1307774,33.112135 7.9888101,33.04588 7.8515723,32.974898 7.7332652,32.88262 7.6338879,32.769042 c -0.099379,-0.10884 -0.1750955,-0.23188 -0.22715,-0.36912 -0.047324,-0.137233 -0.070985,-0.281569 -0.070984,-0.433004 -5e-7,-0.198754 0.040224,-0.37858 0.1206735,-0.539482 0.080448,-0.160894 0.1916571,-0.298129 0.3336267,-0.411709 0.1419677,-0.118302 0.3123299,-0.208216 0.5110877,-0.26974 0.2034869,-0.06625 0.4259044,-0.09937 0.6672533,-0.09938 0.3549195,6e-6 0.6767152,0.05916 0.9653879,0.177462 0.2933984,0.118311 0.5607734,0.302871 0.8021234,0.553678 l -0.631761,0.567875 C 9.8060077,31.633296 9.4274246,31.477129 8.9683947,31.477125 c -0.2413489,4e-6 -0.4306404,0.04496 -0.5678751,0.134871 -0.1325058,0.08518 -0.1987578,0.203491 -0.1987564,0.354922 -1.4e-6,0.06625 0.011829,0.125409 0.035492,0.17746 0.02366,0.04733 0.063884,0.09228 0.1206735,0.134871 0.056786,0.03786 0.1325025,0.07335 0.22715,0.106475 0.099376,0.03313 0.2224158,0.06626 0.3691189,0.09938 0.3170613,0.06625 0.5820695,0.132507 0.7950254,0.198756 0.21295,0.06626 0.3856788,0.132507 0.5181858,0.198755 0.21295,0.108847 0.380946,0.269745 0.503989,0.482696 0.123036,0.208222 0.184556,0.442471 0.18456,0.702744 m 4.456157,1.384196 -0.468497,-1.121553 -2.072745,0 -0.461398,1.121553 -0.936995,0 2.00176,-4.755955 0.86601,0 1.987563,4.755955 -0.915698,0 m -1.50487,-3.570515 -0.667253,1.604248 1.334507,0 -0.667254,-1.604248 m 6.944271,1.199637 0,0.617565 c -4e-6,0.260277 -0.04969,0.501624 -0.149067,0.72404 -0.09938,0.22242 -0.234253,0.416442 -0.404611,0.582073 -0.170366,0.165629 -0.371489,0.295766 -0.603368,0.390413 -0.227153,0.09465 -0.470865,0.141969 -0.731139,0.141969 -0.350192,0 -0.650692,-0.07098 -0.901502,-0.212953 -0.24608,-0.141969 -0.449569,-0.328894 -0.610466,-0.560778 -0.156166,-0.23188 -0.272107,-0.494522 -0.347823,-0.787927 -0.07099,-0.298131 -0.106477,-0.600997 -0.106477,-0.9086 0,-0.364384 0.04732,-0.695644 0.141969,-0.993782 0.09464,-0.302862 0.227149,-0.563137 0.397512,-0.780826 0.170362,-0.217682 0.376216,-0.385678 0.617565,-0.503991 0.241345,-0.118303 0.511085,-0.177456 0.809222,-0.17746 0.430636,4e-6 0.79029,0.106482 1.078963,0.319429 0.293398,0.208226 0.522914,0.496895 0.688549,0.866011 l -0.86601,0.298133 c -0.09465,-0.198751 -0.215323,-0.352551 -0.362021,-0.461398 -0.146703,-0.113571 -0.32653,-0.17036 -0.539481,-0.170362 -0.165632,2e-6 -0.317066,0.04023 -0.4543,0.120673 -0.137239,0.08045 -0.255546,0.19166 -0.354922,0.333627 -0.09465,0.141971 -0.170364,0.312333 -0.22715,0.511087 -0.05206,0.194026 -0.07808,0.406979 -0.07808,0.638859 -1e-6,0.194027 0.01656,0.388052 0.04969,0.582074 0.03312,0.189293 0.09228,0.36202 0.177461,0.518184 0.08518,0.151436 0.198755,0.27684 0.340725,0.376218 0.141967,0.09465 0.32416,0.141971 0.54658,0.141969 0.118305,2e-6 0.229514,-0.01893 0.333627,-0.05679 0.10884,-0.03786 0.208218,-0.08991 0.298134,-0.156167 0.08991,-0.06625 0.165627,-0.144333 0.22715,-0.234248 0.06625,-0.09464 0.113572,-0.196389 0.141969,-0.305232 l -0.780828,0 0,-0.851813 1.668133,0 m 2.859119,-1.54746 0,3.918338 -0.830517,0 0,-3.918338 -1.369999,0 0,-0.837617 3.570514,0 0,0.837617 -1.369998,0 m 2.169905,3.918338 0,-4.755955 0.851813,0 0,4.755955 -0.851813,0 m 5.060632,0 -1.213833,-2.470256 -0.901502,1.135749 0,1.334507 -0.851813,0 0,-4.755955 0.851813,0 0,2.072746 1.682331,-2.072746 1.100258,0 -1.263522,1.55456 1.568755,3.201395 -0.972487,0 m 5.573053,-2.406371 c -4e-6,0.373853 -0.04733,0.714578 -0.141969,1.022175 -0.08992,0.302869 -0.220055,0.563145 -0.390413,0.780829 -0.170367,0.217687 -0.378587,0.388049 -0.624662,0.511089 -0.241351,0.118307 -0.513458,0.17746 -0.816322,0.17746 -0.350191,0 -0.653058,-0.07098 -0.9086,-0.212953 -0.250813,-0.1467 -0.459033,-0.335994 -0.624662,-0.567876 -0.165631,-0.236613 -0.288671,-0.501622 -0.36912,-0.795024 -0.07572,-0.298133 -0.113576,-0.596267 -0.113574,-0.894405 -2e-6,-0.378579 0.04496,-0.719304 0.134869,-1.022175 0.09465,-0.302862 0.229516,-0.560773 0.404611,-0.773729 0.175094,-0.212949 0.38568,-0.376213 0.631763,-0.489793 0.250808,-0.113571 0.532379,-0.170358 0.844713,-0.170362 0.2934,4e-6 0.560773,0.05916 0.802124,0.17746 0.241345,0.118313 0.449565,0.283942 0.624662,0.496891 0.175091,0.212958 0.309962,0.470866 0.404611,0.773731 0.09464,0.298138 0.141965,0.627031 0.141969,0.986682 m -0.851813,0.0213 c -2e-6,-0.501619 -0.09702,-0.894399 -0.291036,-1.178339 -0.194026,-0.283936 -0.470866,-0.425905 -0.830517,-0.425907 -0.359656,2e-6 -0.641227,0.141971 -0.844713,0.425907 -0.203492,0.28394 -0.305236,0.67672 -0.305234,1.178339 -2e-6,0.511089 0.101742,0.908603 0.305234,1.192538 0.203486,0.28394 0.485057,0.425909 0.844713,0.425907 0.227149,2e-6 0.411706,-0.04969 0.55368,-0.149067 0.146697,-0.09938 0.260271,-0.227149 0.340724,-0.383315 0.08518,-0.156165 0.144331,-0.328894 0.17746,-0.518187 0.03312,-0.194022 0.04969,-0.383313 0.04969,-0.567876 m 5.503508,1.00088 c -2e-6,0.482696 -0.22242,0.85418 -0.667253,1.114456 -0.165633,0.104111 -0.352558,0.18456 -0.560775,0.241346 -0.208225,0.05206 -0.423543,0.07808 -0.645958,0.07808 -0.411711,0 -0.776098,-0.07335 -1.09316,-0.220051 -0.312333,-0.151434 -0.603369,-0.383316 -0.873109,-0.695647 l 0.681451,-0.532382 c 0.179825,0.208222 0.369118,0.359655 0.567876,0.4543 0.198753,0.09465 0.433002,0.141969 0.702744,0.141969 0.302864,0 0.551309,-0.05679 0.745336,-0.170363 0.194022,-0.118306 0.291033,-0.267373 0.291037,-0.447202 -4e-6,-0.189291 -0.09938,-0.333626 -0.298135,-0.433004 -0.08519,-0.03312 -0.175098,-0.06625 -0.26974,-0.09938 -0.08992,-0.03312 -0.189296,-0.06152 -0.298136,-0.08518 l -0.220051,-0.06389 -0.220051,-0.04969 -0.227151,-0.07098 c -0.24608,-0.05679 -0.440104,-0.118305 -0.582071,-0.18456 -0.137238,-0.07098 -0.255544,-0.16326 -0.354922,-0.276838 -0.09938,-0.10884 -0.175096,-0.23188 -0.227151,-0.36912 -0.04732,-0.137233 -0.07099,-0.281569 -0.07099,-0.433004 0,-0.198754 0.04022,-0.37858 0.120674,-0.539482 0.08045,-0.160894 0.191657,-0.298129 0.333626,-0.411709 0.141969,-0.118302 0.312331,-0.208216 0.511089,-0.26974 0.203487,-0.06625 0.425904,-0.09937 0.667253,-0.09938 0.35492,6e-6 0.676716,0.05916 0.965387,0.177462 0.2934,0.118311 0.560773,0.302871 0.802124,0.553678 l -0.63176,0.567875 c -0.298137,-0.312326 -0.676722,-0.468493 -1.135751,-0.468497 -0.241349,4e-6 -0.43064,0.04496 -0.567875,0.134871 -0.132507,0.08518 -0.198758,0.203491 -0.198756,0.354922 -2e-6,0.06625 0.01183,0.125409 0.03549,0.17746 0.02366,0.04733 0.06388,0.09228 0.120674,0.134871 0.05679,0.03786 0.132502,0.07335 0.227151,0.106475 0.09938,0.03313 0.222415,0.06626 0.369118,0.09938 0.317062,0.06625 0.582071,0.132507 0.795026,0.198756 0.212949,0.06626 0.385678,0.132507 0.518187,0.198755 0.212949,0.108847 0.380944,0.269745 0.503989,0.482696 0.123035,0.208222 0.184555,0.442471 0.184557,0.702744" />
</svg>
