<?xml version="1.0" encoding="UTF-8" standalone="no"?>
<!-- Created with Inkscape (http://www.inkscape.org/) -->

<svg
   xmlns:dc="http://purl.org/dc/elements/1.1/"
   xmlns:cc="http://creativecommons.org/ns#"
   xmlns:rdf="http://www.w3.org/1999/02/22-rdf-syntax-ns#"
   xmlns:svg="http://www.w3.org/2000/svg"
   xmlns="http://www.w3.org/2000/svg"
   xmlns:sodipodi="http://sodipodi.sourceforge.net/DTD/sodipodi-0.dtd"
   xmlns:inkscape="http://www.inkscape.org/namespaces/inkscape"
   version="1.0"
   width="60"
   height="48"
   id="svg2"
   inkscape:version="0.48.1 r9760"
   sodipodi:docname="US:NY-HHP.svg">
  <metadata
     id="metadata3084">
    <rdf:RDF>
      <cc:Work
         rdf:about="">
        <dc:format>image/svg+xml</dc:format>
        <dc:type
           rdf:resource="http://purl.org/dc/dcmitype/StillImage" />
      </cc:Work>
    </rdf:RDF>
  </metadata>
  <sodipodi:namedview
     pagecolor="#ffffff"
     bordercolor="#666666"
     borderopacity="1"
     objecttolerance="10"
     gridtolerance="10"
     guidetolerance="10"
     inkscape:pageopacity="0"
     inkscape:pageshadow="2"
     inkscape:window-width="1278"
     inkscape:window-height="996"
     id="namedview3082"
     showgrid="true"
     inkscape:showpageshadow="false"
     inkscape:zoom="16.895833"
     inkscape:cx="30"
     inkscape:cy="24"
     inkscape:window-x="1"
     inkscape:window-y="27"
     inkscape:window-maximized="0"
     inkscape:current-layer="svg2">
    <inkscape:grid
       type="xygrid"
       id="grid3655"
       empspacing="5"
       visible="true"
       enabled="true"
       snapvisiblegridlinesonly="true" />
  </sodipodi:namedview>
  <defs
     id="defs4" />
  <path
     d="M 29.999997,1 C 25.066835,1 20.829935,1.737881 16.238913,4.426909 11.664806,7.106119 7.2054515,8.524783 1,8.524783 L 1,35.649914 C 1,38.059653 1.00463,38.060687 2.5635114,39.27912 5.2873319,41.408537 29.999997,47 29.999997,47 c 0,0 24.712669,-5.591463 27.436495,-7.72088 C 58.995376,38.060687 59,38.059653 59,35.649914 L 59,8.524783 c -6.205451,0 -10.66481,-1.418664 -15.238914,-4.097874 C 39.170064,1.737881 34.933162,1 29.999997,1 z"
     id="rect4804"
     style="fill:#006b54;stroke:none"
     inkscape:connector-curvature="0" />
  <path
     d="m 14.343757,17.506467 0,-3.82556 -3.553229,0 0,3.82556 -1.6932356,0 0,-8.718413 1.6932356,0 0,3.14917 3.553229,0 0,-3.14917 1.693235,0 0,8.718413 -1.693235,0"
     id="text1352"
     style="fill:#ffffff;stroke:none"
     inkscape:connector-curvature="0" />
  <path
     d="m 22.172095,29.442001 0,-3.826078 -3.553229,0 0,3.826078 -1.693236,0 0,-8.718673 1.693236,0 0,3.148912 3.553229,0 0,-3.148912 1.693236,0 0,8.718673 -1.693236,0"
     id="text2229"
     style="fill:#ffffff;stroke:none"
     inkscape:connector-curvature="0" />
  <path
     d="m 29.571234,35.282782 c -8e-6,0.503289 -0.11973,0.971699 -0.359168,1.405488 -0.239484,0.425005 -0.564421,0.75054 -0.974894,0.97609 -0.128276,0.06976 -0.252278,0.131765 -0.371997,0.183437 -0.111208,0.04392 -0.230912,0.07751 -0.359175,0.105928 -0.11973,0.02584 -0.256555,0.04651 -0.410478,0.06459 -0.145395,0 -0.316419,0.02584 -0.513106,0.02584 l -2.257645,0 0,3.278867 -1.693236,0 0,-8.744507 4.040674,0 c 0.359165,0 0.649926,0.02584 0.872273,0.07751 0.22234,0.05167 0.453237,0.147267 0.69269,0.286265 0.410473,0.24286 0.735436,0.57253 0.974894,0.989008 0.239459,0.416479 0.35916,0.871971 0.359168,1.366475 m -1.693237,0 c -5e-6,-0.277743 -0.102636,-0.507685 -0.307857,-0.689572 -0.196725,-0.191187 -0.457525,-0.286264 -0.78248,-0.286264 l -2.462889,0 0,1.977758 2.462889,0 c 0.333507,0 0.59861,-0.09043 0.795305,-0.273088 0.1967,-0.183437 0.295027,-0.425264 0.295032,-0.728839"
     id="text2233"
     style="fill:#ffffff;stroke:none"
     inkscape:connector-curvature="0" />
  <path
     d="m 19.407407,14.293999 c 0.06274,0.24286 0.171108,0.433789 0.325108,0.572529 0.153997,0.134348 0.322253,0.201522 0.504771,0.201522 0.23955,0 0.453436,-0.131764 0.64166,-0.390384 l 0.787102,0.693959 c -0.216742,0.260429 -0.439184,0.448516 -0.667326,0.564262 -0.228149,0.116263 -0.48196,0.173102 -0.761436,0.173102 -0.268072,0 -0.521885,-0.05426 -0.761435,-0.165351 -0.239555,-0.116263 -0.450589,-0.272055 -0.633104,-0.468927 -0.182519,-0.196354 -0.32796,-0.428105 -0.436328,-0.694217 -0.108369,-0.271797 -0.162554,-0.564004 -0.162554,-0.876363 0,-0.306675 0.05133,-0.593198 0.154,-0.859311 0.108367,-0.266112 0.250958,-0.497604 0.427773,-0.694218 0.176811,-0.204105 0.382142,-0.361706 0.615993,-0.47771 0.233847,-0.116263 0.479103,-0.175686 0.735769,-0.175686 0.342215,0 0.655915,0.100761 0.9411,0.303833 0.290881,0.198939 0.513323,0.462726 0.667325,0.798338 0.07985,0.198938 0.139735,0.402269 0.179663,0.61645 0.03992,0.209273 0.05988,0.445416 0.05989,0.711528 l 0,0.165352 -2.61797,0 m 1.428762,-0.963689 c -0.07985,-0.211857 -0.171111,-0.36429 -0.273775,-0.451099 -0.09697,-0.09301 -0.225298,-0.139516 -0.384995,-0.139516 -0.154003,0 -0.296592,0.05167 -0.427773,0.157601 -0.125483,0.09818 -0.219593,0.24286 -0.28233,0.433789 l 1.368873,0 0,0 m 5.611443,2.716414 0,-2.551321 c -5e-6,-0.198938 -0.06275,-0.361706 -0.188229,-0.494762 -0.11978,-0.134348 -0.290888,-0.201523 -0.51333,-0.201523 -0.102661,0 -0.202499,0.02584 -0.299437,0.06201 -0.09129,0.03617 -0.176834,0.08526 -0.256667,0.147266 -0.07415,0.06459 -0.134024,0.136932 -0.179657,0.217024 -0.04563,0.08009 -0.06845,0.165352 -0.06845,0.250611 l 0,2.56889 -1.146432,0 0,-4.243849 1.146432,0 0,0.227359 c 0.193901,-0.12143 0.382138,-0.20669 0.564655,-0.253195 0.182532,-0.05167 0.370733,-0.07751 0.564663,-0.07751 0.216769,0 0.416359,0.03875 0.598878,0.113679 0.182531,0.06976 0.339365,0.167935 0.470553,0.295049 0.136874,0.129181 0.242409,0.280581 0.316551,0.459884 0.07984,0.175686 0.11978,0.361706 0.11978,0.564261 l 0,2.91587 -1.129316,0 m 5.902728,-2.872465 c -0.07984,-0.134348 -0.182532,-0.229942 -0.307997,-0.286264 -0.125503,-0.05942 -0.242409,-0.08784 -0.350773,-0.08784 -0.256667,0 -0.433483,0.07492 -0.530439,0.227358 -0.09129,0.152433 -0.136899,0.376174 -0.136899,0.676907 l 0,2.343082 -1.146429,0 0,-4.243848 1.146429,0 0,0.209273 c 0.142597,-0.116263 0.276627,-0.198939 0.40211,-0.24286 0.13115,-0.0465 0.270918,-0.06976 0.419217,-0.06976 0.171086,0 0.325103,0.02584 0.461994,0.06976 0.142597,0.0465 0.285178,0.12918 0.427772,0.24286 l -0.384995,1.162885 m 3.585538,4.504277 -1.14643,0 0.684436,-1.692268 -1.976311,-4.183392 1.308984,0 1.146432,2.812266 1.146432,-2.812266 1.206317,0 -2.36986,5.87566"
     id="text2239"
     style="fill:#ffffff;stroke:none"
     inkscape:connector-curvature="0" />
  <path
     d="m 28.531553,28.008093 0,-0.269212 c -0.102662,0.06976 -0.199625,0.12918 -0.290883,0.175686 -0.09127,0.04134 -0.179658,0.07234 -0.265221,0.09559 -0.08554,0.02584 -0.173985,0.03876 -0.265218,0.04392 -0.08554,0 -0.179657,0.02584 -0.282331,0.02584 -0.256664,0 -0.479108,-0.031 -0.667327,-0.09559 -0.182532,-0.06976 -0.350771,-0.180853 -0.504768,-0.329669 C 26.124604,27.520307 26.021968,27.36839 25.947808,27.194771 25.873638,27.013918 25.8366,26.827122 25.8366,26.630509 l 0,-2.855413 1.146429,0 0,2.46477 c -2e-6,0.204106 0.06275,0.373333 0.18823,0.512331 0.125478,0.139516 0.296586,0.209273 0.513325,0.209273 0.102686,0 0.199625,-0.02584 0.290885,-0.05167 0.09696,-0.04134 0.179658,-0.09301 0.248107,-0.1576 0.07415,-0.06459 0.13405,-0.136932 0.179658,-0.217024 0.04561,-0.08268 0.06845,-0.165351 0.06845,-0.253194 l 0,-2.508175 1.14643,0 0,4.244365 -1.086545,0 m 5.577622,0 0,-0.209273 c -0.09699,0.09818 -0.236737,0.167935 -0.419215,0.209273 -0.176834,0.04134 -0.345075,0.06201 -0.504773,0.06201 -0.239586,0 -0.467699,-0.05942 -0.684438,-0.175686 -0.216769,-0.12143 -0.407809,-0.280581 -0.573212,-0.477453 -0.159716,-0.204105 -0.288035,-0.436889 -0.384996,-0.70326 -0.09699,-0.271797 -0.145445,-0.555219 -0.145445,-0.850268 0,-0.295308 0.04848,-0.57563 0.145445,-0.842001 0.09696,-0.266112 0.225291,-0.500446 0.384996,-0.703002 0.165387,-0.204106 0.356473,-0.361706 0.573212,-0.477194 0.222467,-0.12143 0.456291,-0.183437 0.701547,-0.183437 0.154017,0 0.313699,0.02584 0.47911,0.06976 0.165387,0.0465 0.307992,0.118847 0.427769,0.214441 l 0,-1.406005 1.069436,-0.450841 0,5.919066 -1.069436,0 m 0,-2.838361 c -0.07984,-0.144683 -0.188229,-0.250611 -0.325105,-0.31236 -0.136899,-0.06459 -0.276631,-0.09559 -0.419218,-0.09559 -0.114082,0 -0.222441,0.02842 -0.32511,0.08784 -0.09699,0.05942 -0.182532,0.139516 -0.256662,0.24286 -0.07417,0.09818 -0.134049,0.211857 -0.179657,0.347238 -0.03993,0.134348 -0.0599,0.274639 -0.0599,0.425264 -2e-6,0.1576 0.0201,0.300991 0.0599,0.433789 0.04561,0.134348 0.10551,0.248027 0.179657,0.347238 0.07415,0.09818 0.162565,0.17827 0.265216,0.235109 0.108359,0.05942 0.222441,0.08784 0.342224,0.08784 0.131176,0 0.262361,-0.031 0.39355,-0.09559 0.136899,-0.06459 0.245258,-0.167935 0.325105,-0.312101 l 0,-1.388952 m 6.497335,1.614502 c -5e-6,0.18602 -0.02851,0.347238 -0.08554,0.485978 -0.05705,0.134348 -0.151143,0.258362 -0.282329,0.373074 -0.182532,0.152434 -0.396406,0.260429 -0.641659,0.32967 -0.239586,0.06459 -0.52759,0.09559 -0.864103,0.09559 -0.199625,0 -0.382142,0 -0.547547,-0.02584 -0.159716,0 -0.316554,-0.031 -0.470551,-0.06201 -0.148295,-0.03617 -0.293738,-0.07751 -0.436326,-0.131765 -0.136899,-0.05167 -0.282332,-0.116262 -0.436329,-0.191187 l 0.444883,-1.024146 c 0.211046,0.103345 0.44488,0.18602 0.701549,0.240276 0.256661,0.05942 0.490511,0.08784 0.701544,0.08784 0.233837,0 0.419215,-0.02584 0.556106,-0.06201 0.142597,-0.04134 0.21387,-0.100761 0.21387,-0.183436 -5e-6,-0.06459 -0.02567,-0.118847 -0.07702,-0.165352 -0.05133,-0.0465 -0.13405,-0.08268 -0.248106,-0.105928 -0.05705,-0.02584 -0.125504,-0.03617 -0.205323,-0.05167 -0.07984,-0.02584 -0.162564,-0.03617 -0.248107,-0.05167 -0.07984,-0.02584 -0.156867,-0.04392 -0.231014,-0.06201 -0.07417,-0.02584 -0.13405,-0.04392 -0.179657,-0.06201 -0.456291,-0.134348 -0.789954,-0.306417 -1.000987,-0.520599 -0.205323,-0.219607 -0.307997,-0.494762 -0.307997,-0.82469 0,-0.381859 0.154018,-0.67975 0.461997,-0.893673 0.307992,-0.222191 0.724358,-0.329928 1.249096,-0.329928 0.290881,0 0.581767,0.03617 0.872655,0.105928 0.290883,0.06459 0.604583,0.180853 0.941102,0.347238 l -0.444886,1.024146 c -0.211046,-0.116263 -0.439183,-0.206689 -0.684438,-0.269213 -0.23956,-0.06976 -0.453437,-0.105928 -0.641657,-0.105928 -0.216769,0 -0.373592,0.02584 -0.470548,0.05167 -0.09129,0.03617 -0.136899,0.09301 -0.136899,0.175686 0,0.04134 0.0059,0.07493 0.0173,0.105928 0.0173,0.02842 0.04848,0.05426 0.09411,0.07751 0.05133,0.02584 0.122629,0.03875 0.213869,0.06201 0.09124,0.02584 0.211021,0.03875 0.35933,0.06201 0.604583,0.126597 1.058023,0.309259 1.36032,0.546435 0.302286,0.232525 0.453432,0.546952 0.453437,0.946379 m 5.168966,-0.89419 c -5e-6,0.306675 -0.0542,0.593198 -0.162564,0.859569 -0.10836,0.265854 -0.253831,0.500188 -0.436329,0.702744 -0.182532,0.198938 -0.393555,0.35318 -0.633103,0.468668 -0.233837,0.111095 -0.47911,0.165351 -0.735768,0.165351 -0.262372,0 -0.510479,-0.05426 -0.744326,-0.165351 -0.233837,-0.116263 -0.439183,-0.271797 -0.615994,-0.468668 -0.176834,-0.204106 -0.316551,-0.43689 -0.419217,-0.702744 -0.102662,-0.266371 -0.153993,-0.552894 -0.153993,-0.859569 -2e-6,-0.318043 0.04848,-0.613351 0.145446,-0.885147 0.102687,-0.272055 0.23956,-0.506389 0.410661,-0.703002 0.176834,-0.204106 0.382144,-0.358864 0.615994,-0.468668 0.233837,-0.116263 0.487656,-0.173102 0.761436,-0.173102 0.250931,0 0.49336,0.05942 0.727212,0.173102 0.23956,0.116263 0.450584,0.274638 0.633105,0.477194 0.182532,0.204106 0.32796,0.43999 0.436329,0.711786 0.114082,0.272055 0.171085,0.56142 0.171085,0.867837 m -1.163543,0 c -3e-6,-0.157601 -0.02289,-0.303575 -0.06845,-0.442573 -0.04561,-0.139516 -0.105511,-0.258362 -0.179658,-0.355764 -0.07417,-0.105929 -0.159715,-0.186021 -0.256664,-0.245444 -0.09699,-0.05942 -0.196801,-0.08784 -0.29944,-0.08784 -0.114082,0 -0.219592,0.02842 -0.316553,0.08784 -0.09127,0.05942 -0.17396,0.139515 -0.248107,0.245444 -0.06845,0.09818 -0.122629,0.21444 -0.162564,0.355764 -0.03994,0.139515 -0.05988,0.286523 -0.05988,0.442573 -2e-6,0.152433 0.0201,0.292207 0.05988,0.425522 0.03993,0.134348 0.09411,0.248027 0.162564,0.346979 0.07417,0.09818 0.156866,0.17827 0.248107,0.235109 0.09696,0.05684 0.202499,0.08784 0.316553,0.08784 0.102662,0 0.2025,-0.02842 0.29944,-0.08784 0.09696,-0.05942 0.182532,-0.136931 0.256664,-0.235109 0.07417,-0.09818 0.13405,-0.211856 0.179658,-0.346979 0.04561,-0.134348 0.06845,-0.275156 0.06845,-0.425522 m 5.582969,2.118049 0,-2.552097 c -5e-6,-0.198938 -0.06275,-0.361448 -0.18823,-0.494762 -0.11978,-0.134348 -0.290891,-0.201522 -0.51333,-0.201522 -0.102686,0 -0.202499,0.02584 -0.29944,0.06201 -0.09129,0.03617 -0.176834,0.08526 -0.256663,0.147266 -0.07417,0.06459 -0.13405,0.136932 -0.179658,0.217024 -0.04563,0.08268 -0.06845,0.165351 -0.06845,0.25061 l 0,2.569149 -1.146432,0 0,-4.244365 1.146432,0 0,0.227358 c 0.193953,-0.12143 0.382139,-0.206689 0.56466,-0.253195 0.182532,-0.05167 0.370731,-0.07751 0.564658,-0.07751 0.21677,0 0.416364,0.03875 0.598888,0.113679 0.182532,0.06976 0.339358,0.167936 0.470543,0.295049 0.136874,0.129181 0.24241,0.280581 0.316552,0.459884 0.07984,0.173103 0.11978,0.361707 0.11978,0.564262 l 0,2.916386 -1.129321,0"
     id="text3116"
     style="fill:#ffffff;stroke:none"
     inkscape:connector-curvature="0" />
  <path
     d="m 34.10189,36.862147 1.163541,2.942223 -1.163541,0 -0.761437,-1.961482 -0.667327,0.676908 0,1.284574 -1.146429,0 0,-5.467966 1.146429,-0.4511 0,2.881508 1.20632,-1.188981 1.428761,0 -1.206317,1.284316 m 6.950772,2.942223 -1.103654,0 -0.521884,-2.100222 -0.667324,2.100222 -1.103656,0 -1.20632,-4.244107 1.163544,0 0.590325,2.022455 0.581775,-2.022455 1.249093,0 0.496216,1.99636 0.564664,-1.99636 1.189203,0 -1.231982,4.244107 m 4.703224,1.631554 -1.146429,0 0.684438,-1.692269 -1.976308,-4.183392 1.308983,0 1.146433,2.812008 1.146429,-2.812008 1.206315,0 -2.369861,5.875661"
     id="text3120"
     style="fill:#ffffff;stroke:none"
     inkscape:connector-curvature="0" />
</svg>
