<?xml version="1.0" encoding="UTF-8" standalone="no"?>
<!-- Created with Inkscape (http://www.inkscape.org/) -->

<svg
   xmlns:dc="http://purl.org/dc/elements/1.1/"
   xmlns:cc="http://creativecommons.org/ns#"
   xmlns:rdf="http://www.w3.org/1999/02/22-rdf-syntax-ns#"
   xmlns:svg="http://www.w3.org/2000/svg"
   xmlns="http://www.w3.org/2000/svg"
   xmlns:sodipodi="http://sodipodi.sourceforge.net/DTD/sodipodi-0.dtd"
   xmlns:inkscape="http://www.inkscape.org/namespaces/inkscape"
   version="1.0"
   width="48"
   height="48"
   id="svg2"
   sodipodi:version="0.32"
   inkscape:version="0.48.1 r9760"
   sodipodi:docname="US:NY-BSP.svg">
  <metadata
     id="metadata2379">
    <rdf:RDF>
      <cc:Work
         rdf:about="">
        <dc:format>image/svg+xml</dc:format>
        <dc:type
           rdf:resource="http://purl.org/dc/dcmitype/StillImage" />
      </cc:Work>
    </rdf:RDF>
  </metadata>
  <sodipodi:namedview
     inkscape:window-height="996"
     inkscape:window-width="1278"
     inkscape:pageshadow="2"
     inkscape:pageopacity="0.0"
     borderopacity="1.0"
     bordercolor="#666666"
     pagecolor="#ffffff"
     id="base"
     inkscape:zoom="16.895833"
     inkscape:cx="24"
     inkscape:cy="24"
     inkscape:window-x="1"
     inkscape:window-y="27"
     inkscape:current-layer="svg2"
     showgrid="true"
     inkscape:showpageshadow="false"
     inkscape:window-maximized="0">
    <inkscape:grid
       type="xygrid"
       id="grid3663"
       empspacing="5"
       visible="true"
       enabled="true"
       snapvisiblegridlinesonly="true" />
  </sodipodi:namedview>
  <defs
     id="defs4" />
  <g
     id="g3669">
    <rect
       y="1.6999999"
       x="1.7"
       height="44.599998"
       width="44.599998"
       id="rect1474"
       style="fill:#ffffff;fill-opacity:1" />
    <path
       d="M 2.8335835,46.985244 C 2.5329677,46.942136 2.1979209,46.814695 1.9440415,46.646892 1.7645296,46.528245 1.4989403,46.2704 1.3749444,46.094394 1.2350982,45.895888 1.1069718,45.619332 1.048377,45.389515 L 1,45.199775 1,23.988668 1,2.7775599 1.0545729,2.5837077 C 1.1643811,2.1936509 1.3578624,1.8707429 1.6463812,1.596017 1.9345123,1.3216603 2.2642825,1.1393222 2.6384957,1.0474522 l 0.1933629,-0.0474709 21.1783194,0 21.178319,0 0.197551,0.0535508 c 0.383946,0.1040766 0.683588,0.2720756 0.967571,0.5424848 0.292769,0.278771 0.5009,0.6309131 0.598004,1.0117742 L 47,2.7975327 l 0,21.2111093 0,21.211105 -0.05457,0.193852 c -0.06729,0.239027 -0.184339,0.487699 -0.320583,0.681093 -0.123886,0.17585 -0.389512,0.433642 -0.569196,0.552407 -0.181918,0.120242 -0.467749,0.246684 -0.683966,0.302561 l -0.183186,0.04734 -21.117257,0.0028 C 12.2905,47.001289 2.9007507,46.994874 2.8335835,46.985244 z m 42.0903105,-1.10352 c 0.487215,-0.146351 0.820884,-0.485741 0.945456,-0.961669 l 0.04185,-0.159884 -0.0054,-20.801563 C 45.900673,3.8380967 45.899274,3.1531194 45.86311,3.0372061 45.714004,2.5592593 45.369375,2.2331143 44.883078,2.1097308 l -0.16294,-0.041341 -20.760952,0.00525 C 3.8796265,2.0787239 3.194222,2.0801004 3.0761063,2.115581 2.589046,2.2618884 2.256668,2.6000675 2.1309311,3.0772525 L 2.0888028,3.2371357 2.0941503,24.0387 c 0.00517,20.120508 0.00657,20.805487 0.042737,20.921403 0.1476153,0.473159 0.4899477,0.800123 0.9697474,0.926207 0.1524469,0.04006 0.1809955,0.04012 20.9238925,0.03611 20.091533,-0.0038 20.775236,-0.0052 20.893364,-0.0407 z M 3.0941697,28.324106 c -0.00616,-0.01574 -0.00678,-0.09889 -0.00137,-0.184758 0.00541,-0.08587 0.024564,-0.713364 0.042579,-1.394434 0.02616,-0.98902 0.038297,-1.242337 0.060284,-1.258285 0.015142,-0.01099 0.3745467,-0.104278 0.7986784,-0.207307 0.4241316,-0.103033 0.7829956,-0.198119 0.7974758,-0.211295 0.020256,-0.01844 0.1174538,-2.059337 0.4214895,-8.8502 0.2173391,-4.854429 0.3886775,-8.8324456 0.3807524,-8.8400379 -0.00793,-0.00759 -0.051046,-0.016651 -0.095826,-0.020132 l -0.081416,-0.00632 0,-0.5991837 0,-0.5991838 0.4783185,-0.00999 0.4783184,-0.00999 0.00533,-0.6491159 0.00533,-0.6491158 0.5746296,-0.5642313 C 7.2747859,3.9602018 7.5426493,3.7062978 7.553991,3.7062978 c 0.011342,0 0.2792053,0.253904 0.5952519,0.5642315 l 0.5746297,0.5642313 0.00533,0.6491158 0.00533,0.6491159 0.3969029,0.00999 0.3969027,0.00999 0,0.5991838 0,0.5991837 -0.10177,0.00619 c -0.055973,0.0034 -0.1084665,0.012673 -0.1166511,0.020595 -0.012796,0.012385 0.3876262,12.9857342 0.4235053,13.7212592 0.011989,0.245822 0.015899,0.265666 0.050523,0.256779 0.020642,-0.0053 0.4176166,-0.248764 0.8821646,-0.541036 0.464548,-0.292271 0.858892,-0.531403 0.876321,-0.531403 0.02425,0 2.958629,1.933585 3.028505,1.995608 0.0083,0.0074 0.06031,0.60961 0.11548,1.338227 0.05847,0.772122 0.109326,1.333608 0.121919,1.345966 0.01188,0.01166 0.367562,0.06885 0.790393,0.127073 l 0.768786,0.105866 1.098994,-0.327015 c 0.886176,-0.263691 1.105823,-0.322618 1.134258,-0.304304 0.0194,0.0125 0.507705,0.521536 1.085132,1.131207 0.577427,0.609667 1.079058,1.12937 1.114736,1.154891 0.03568,0.02552 0.207977,0.117134 0.382888,0.203585 l 0.318017,0.157179 0.424902,0.08012 c 0.277818,0.05238 0.53647,0.08756 0.747202,0.101645 l 0.322296,0.02153 0.288322,-0.06156 c 0.568128,-0.12132 0.819111,-0.181557 0.919293,-0.220638 0.08053,-0.03141 0.13775,-0.07933 0.274109,-0.229542 0.09479,-0.104413 0.183289,-0.187311 0.196671,-0.184221 0.01338,0.0031 0.119014,0.112715 0.234739,0.243607 0.115725,0.130893 0.233309,0.254375 0.261294,0.274411 0.02799,0.02004 0.224766,0.09039 0.437284,0.15634 l 0.386393,0.119909 0.479855,0.04031 0.47985,0.0403 0.639027,-0.04039 0.63903,-0.04039 0.357113,-0.131011 c 0.196414,-0.07206 0.375433,-0.142653 0.397821,-0.156885 0.02239,-0.01423 0.141099,-0.107966 0.2638,-0.208298 0.122696,-0.100331 0.232845,-0.182417 0.244775,-0.182417 0.01193,0 0.06725,0.05935 0.122929,0.131883 0.136878,0.178308 0.199063,0.22266 0.525876,0.375039 0.199624,0.09308 0.376107,0.156958 0.610676,0.221039 0.300234,0.08201 0.367369,0.0929 0.746413,0.12098 l 0.416504,0.03085 0.392533,-0.06186 c 0.46988,-0.07405 1.043329,-0.230761 1.390302,-0.379938 0.216524,-0.09309 0.259072,-0.121027 0.517238,-0.339617 0.154717,-0.130999 0.291427,-0.238181 0.303794,-0.238181 0.01237,0 0.122933,0.09887 0.245691,0.219701 0.12276,0.120835 0.230421,0.219701 0.239249,0.219701 0.0088,0 0.0502,0.02181 0.09194,0.04847 0.04174,0.02666 0.218191,0.10294 0.392118,0.169502 0.273975,0.104856 0.374302,0.131736 0.750909,0.201182 0.239075,0.04409 0.491481,0.08016 0.560898,0.08016 0.06941,0 0.308544,-0.0271 0.53139,-0.06022 0.394263,-0.0586 0.414566,-0.06397 0.753731,-0.199306 0.565629,-0.225703 0.790269,-0.33814 1.012503,-0.506781 0.110484,-0.08384 0.210534,-0.152439 0.222335,-0.152439 0.01181,0 0.136739,0.1101 0.27764,0.244666 0.235465,0.224879 0.282951,0.259805 0.587088,0.431808 l 0.330903,0.187143 0.391462,0.09633 c 0.370026,0.09105 0.414603,0.09754 0.814035,0.118397 0.408599,0.02133 0.435515,0.02034 0.814157,-0.03015 0.682636,-0.09101 1.086718,-0.213652 1.319351,-0.400416 l 0.135774,-0.108999 0.781065,0.0053 0.781063,0.0053 0,0.539265 0,0.539265 -21.224749,0.005 c -18.4143207,0.0043 -21.2262341,0.0012 -21.2359489,-0.02363 z m 5.0602552,-3.945969 0.010177,-1.987291 0.4314,-0.280186 c 0.2372699,-0.1541 0.4366986,-0.28538 0.4431748,-0.291736 0.01443,-0.01415 -0.08688,-3.250228 -0.1025305,-3.275077 -0.015505,-0.02462 -3.1577086,-0.02333 -3.1732215,0.0012 -0.016174,0.02567 -0.3791382,7.790977 -0.3651995,7.813105 0.00614,0.0098 0.6140559,0.01519 1.3785067,0.01231 l 1.3675159,-0.0052 0.010177,-1.987294 z M 8.8352237,12.056605 C 8.8495753,12.033819 8.748493,7.3835116 8.7331154,7.3590962 8.7183283,7.3356171 6.1860528,7.335688 6.1712647,7.3591602 6.1558278,7.3836695 6.0547531,12.033657 6.0691595,12.05653 c 0.015423,0.02449 2.7506427,0.02455 2.7660642,6.5e-5 z m -1.4440729,-6.5627453 0,-0.6391293 -0.3154867,0 -0.3154868,0 -0.00539,0.6189617 c -0.00296,0.340429 -8.689e-4,0.6305192 0.00466,0.6446451 0.00771,0.01972 0.082222,0.024403 0.3208764,0.020167 l 0.3108327,-0.00552 0,-0.6391296 z m 0.9566371,0 0,-0.6391293 -0.3154866,0 -0.3154867,0 -0.00539,0.6189617 c -0.00296,0.340429 -8.689e-4,0.6305192 0.00466,0.6446451 0.00771,0.01972 0.082222,0.024403 0.3208762,0.020167 l 0.3108328,-0.00552 0,-0.6391296 z"
       style="fill:#000000"
       id="path1317"
       inkscape:connector-curvature="0" />
  </g>
  <path
     inkscape:connector-curvature="0"
     id="text1331"
     style="font-size:376.64926147px;font-style:normal;font-variant:normal;font-weight:normal;font-stretch:normal;text-align:center;line-height:100%;writing-mode:lr-tb;text-anchor:middle;fill:#000000;fill-opacity:1;stroke:none;font-family:Roadgeek 2005 Series E"
     d="m 38.451596,18.065171 c -1.5e-5,0.853743 -0.234375,1.674 -0.703078,2.460775 -0.451993,0.77004 -1.063002,1.364309 -1.833026,1.782806 -0.820271,0.46872 -1.690749,0.70308 -2.611435,0.70308 l -0.828629,0 -7.608315,0 0,-16.8236674 7.859415,0 c 0.368269,1.69e-5 0.677958,0.00839 0.929069,0.02511 0.267826,0.016757 0.510557,0.050237 0.728188,0.1004398 0.217607,0.050237 0.418487,0.1171964 0.602638,0.2008797 0.200867,0.066976 0.410118,0.159046 0.627749,0.2762093 0.703064,0.4017751 1.263853,0.9374535 1.682366,1.607037 0.418485,0.6696126 0.627734,1.4061703 0.627749,2.2096756 -1.5e-5,1.372688 -0.552433,2.536115 -1.657255,3.490283 1.456362,1.054626 2.184549,2.377082 2.184564,3.967372 M 34.911094,10.858615 C 34.911081,10.356429 34.718572,9.9546702 34.333565,9.6533378 33.948534,9.3520321 33.412857,9.2013725 32.726528,9.2013587 l -4.796,0 0,3.3647333 4.796,0 c 0.636109,1e-5 1.155046,-0.159019 1.556817,-0.477089 0.418487,-0.318048 0.627736,-0.728177 0.627749,-1.230388 m 0.527309,7.005677 c -1.3e-5,-0.318054 -0.07534,-0.611003 -0.225991,-0.878849 -0.133931,-0.284573 -0.32644,-0.527302 -0.577529,-0.728188 -0.234371,-0.217613 -0.518949,-0.385012 -0.853737,-0.502199 -0.318069,-0.117173 -0.669609,-0.175763 -1.054618,-0.17577 l -4.796,0 0,4.419351 4.796,0 c 0.803509,3e-6 1.456366,-0.192506 1.958575,-0.577529 0.502187,-0.401755 0.753287,-0.920693 0.7533,-1.556816" />
  <path
     inkscape:connector-curvature="0"
     id="text1335"
     style="font-size:212.95323181px;font-style:normal;font-variant:normal;font-weight:normal;font-stretch:normal;text-align:center;line-height:100%;writing-mode:lr-tb;text-anchor:middle;fill:#000000;fill-opacity:1;stroke:none;font-family:Roadgeek 2005 Series E"
     d="m 10.954849,40.418144 c -5e-6,0.123042 -0.01657,0.246082 -0.04969,0.369117 -0.03313,0.123043 -0.08282,0.238985 -0.149068,0.347825 -0.06152,0.108844 -0.13724,0.210589 -0.227149,0.305233 -0.08992,0.08992 -0.191662,0.165631 -0.305233,0.227149 -0.137241,0.07572 -0.2697446,0.125409 -0.3975132,0.149067 -0.1230427,0.02366 -0.274476,0.03549 -0.4543002,0.03549 l -1.3558021,0 0,1.866889 -0.8660097,0 0,-4.755955 2.2218118,0 c 0.1798242,6e-6 0.3312575,0.0142 0.4543002,0.04259 0.1277686,0.0284 0.2602722,0.08045 0.3975132,0.156166 0.227146,0.123045 0.404606,0.295774 0.532382,0.518187 0.1325,0.22242 0.198752,0.4685 0.198757,0.738238 m -0.851813,0 c -3e-6,-0.184558 -0.06389,-0.331258 -0.1916579,-0.440105 C 9.783603,39.869201 9.6132406,39.814779 9.4002904,39.814775 l -1.3841959,0 0,1.18544 1.3841959,0 c 0.2129502,2e-6 0.3833126,-0.05205 0.5110877,-0.156165 0.1277689,-0.10884 0.1916549,-0.250809 0.1916579,-0.425906 m 5.156573,3.300773 -0.468497,-1.121554 -2.072745,0 -0.461398,1.121554 -0.936994,0 2.00176,-4.755955 0.86601,0 1.987563,4.755955 -0.915699,0 m -1.504869,-3.570516 -0.667254,1.604249 1.334507,0 -0.667253,-1.604249 m 6.12795,3.570516 -0.766631,-1.866889 -1.270621,0 0,1.866889 -0.851813,0 0,-4.755955 2.18632,0 c 0.175092,6e-6 0.324159,0.0142 0.447201,0.04259 0.123037,0.0284 0.246076,0.08045 0.369119,0.156166 0.227147,0.123045 0.406973,0.295774 0.539482,0.518187 0.1325,0.22242 0.198752,0.4685 0.198756,0.738238 -4e-6,0.269742 -0.06862,0.515822 -0.205855,0.738237 -0.132508,0.217687 -0.3218,0.392783 -0.567875,0.525285 l 0.873108,2.037251 -0.951191,0 m 0,-3.300773 c -3e-6,-0.184558 -0.06152,-0.331258 -0.184559,-0.440105 -0.123043,-0.108838 -0.291039,-0.16326 -0.503989,-0.163264 l -1.348704,0 0,1.18544 1.348704,0 c 0.21295,2e-6 0.380946,-0.05205 0.503989,-0.156165 0.123036,-0.10884 0.184556,-0.250809 0.184559,-0.425906 m 4.875076,3.300773 -1.213833,-2.470256 -0.901502,1.135749 0,1.334507 -0.851813,0 0,-4.755955 0.851813,0 0,2.072746 1.682329,-2.072746 1.10026,0 -1.263522,1.554559 1.568755,3.201396 -0.972487,0 m 5.487871,0 -0.901502,0 -0.766631,-3.1872 -0.752436,3.1872 -0.901502,0 -0.866009,-4.755955 0.880207,0 0.518184,3.073626 0.702747,-3.073626 0.851813,0 0.73114,3.073626 0.489791,-3.073626 0.866011,0 -0.851813,4.755955 m 5.158568,0 -0.468497,-1.121554 -2.072745,0 -0.461397,1.121554 -0.936996,0 2.001762,-4.755955 0.866009,0 1.987564,4.755955 -0.9157,0 m -1.504868,-3.570516 -0.667254,1.604249 1.334507,0 -0.667253,-1.604249 m 5.659452,1.632642 0,1.937874 -0.851811,0 0,-1.937874 -2.001762,-2.818081 1.050571,0 1.384196,1.937875 1.369997,-1.937875 1.050571,0 -2.001762,2.818081" />
  <path
     inkscape:connector-curvature="0"
     id="text1339"
     style="font-size:212.95323181px;font-style:normal;font-variant:normal;font-weight:normal;font-stretch:normal;text-align:center;line-height:100%;writing-mode:lr-tb;text-anchor:middle;fill:#000000;fill-opacity:1;stroke:none;font-family:Roadgeek 2005 Series E"
     d="m 9.8673457,34.05386 c -4.5e-6,0.241346 -0.066256,0.473229 -0.1987564,0.695646 -0.127776,0.217687 -0.3005045,0.385683 -0.5181862,0.503989 C 8.9185173,35.386 8.6724382,35.452251 8.4121654,35.452251 l -0.2342484,0 -2.1508274,0 0,-4.755955 2.2218118,0 c 0.1041073,6e-6 0.1916546,0.0024 0.2626422,0.0071 0.075714,0.0047 0.1443318,0.0142 0.2058546,0.02839 0.061517,0.0142 0.118304,0.03313 0.1703627,0.05679 0.056784,0.01894 0.1159375,0.04496 0.1774611,0.07808 0.1987524,0.113578 0.3572839,0.265011 0.4755955,0.4543 0.1183031,0.189296 0.1774566,0.397516 0.1774609,0.624662 -4.3e-6,0.388051 -0.1561698,0.716945 -0.4684971,0.986682 0.4117053,0.298138 0.6175599,0.671989 0.6175644,1.121556 M 8.8664656,32.016607 c -3.4e-6,-0.141965 -0.054425,-0.25554 -0.163264,-0.340725 -0.108846,-0.08518 -0.2602793,-0.127769 -0.4543002,-0.127773 l -1.3558021,0 0,0.951191 1.3558021,0 c 0.179824,4e-6 0.3265251,-0.04495 0.4401033,-0.134869 0.1183038,-0.08991 0.1774575,-0.205853 0.1774609,-0.347824 m 0.1490673,1.980464 c -3.6e-6,-0.08991 -0.021299,-0.172727 -0.063886,-0.248444 -0.037862,-0.08045 -0.092283,-0.149067 -0.1632642,-0.205856 -0.066255,-0.06152 -0.1467042,-0.10884 -0.2413469,-0.141969 -0.089917,-0.03312 -0.1892946,-0.04969 -0.2981344,-0.04969 l -1.3558021,0 0,1.249327 1.3558021,0 c 0.2271469,0 0.4117062,-0.05442 0.5536782,-0.163265 C 8.9445449,34.3236 9.0155293,34.1769 9.0155329,33.997071 m 1.8085491,1.45518 0,-4.755955 3.471138,0 0,0.851813 -2.605128,0 0,0.880207 1.419688,0 0,0.873108 -1.419688,0 0,1.299016 2.690309,0 0,0.851811 -3.556319,0 m 6.273358,-3.918338 0,3.918338 -0.830518,0 0,-3.918338 -1.369999,0 0,-0.837617 3.570516,0 0,0.837617 -1.369999,0 m 5.158347,3.918338 0,-2.08694 -2.13663,0.0142 0,2.072744 -0.851813,0 0,-4.755955 0.851813,0 0,1.838497 2.13663,0 0,-1.838497 0.851813,0 0,4.755955 -0.851813,0 m 5.890597,-3.300773 c -5e-6,0.123042 -0.01657,0.246082 -0.04969,0.369118 -0.03313,0.123042 -0.08282,0.238984 -0.149069,0.347824 -0.06152,0.108844 -0.13724,0.210589 -0.227149,0.305233 -0.08992,0.08992 -0.191662,0.165631 -0.305233,0.227149 -0.13724,0.07572 -0.269744,0.125409 -0.397513,0.149067 -0.123043,0.02366 -0.274476,0.03549 -0.4543,0.03549 l -1.355802,0 0,1.866889 -0.866009,0 0,-4.755955 2.221811,0 c 0.179824,6e-6 0.331257,0.0142 0.4543,0.04259 0.127769,0.0284 0.260273,0.08045 0.397513,0.156166 0.227147,0.123045 0.404607,0.295774 0.532382,0.518187 0.1325,0.22242 0.198753,0.4685 0.198758,0.738238 m -0.851813,0 c -5e-6,-0.184558 -0.06389,-0.331258 -0.191658,-0.440105 -0.127776,-0.108837 -0.298138,-0.16326 -0.511089,-0.163264 l -1.384195,0 0,1.18544 1.384195,0 c 0.212951,2e-6 0.383313,-0.05205 0.511089,-0.156165 0.127769,-0.10884 0.191653,-0.250808 0.191658,-0.425906 m 5.156572,3.300773 -0.468497,-1.121553 -2.072745,0 -0.461397,1.121553 -0.936996,0 2.00176,-4.755955 0.866011,0 1.987562,4.755955 -0.915698,0 m -1.504871,-3.570515 -0.667253,1.604248 1.334509,0 -0.667256,-1.604248 m 6.944273,1.199637 0,0.617565 c -4e-6,0.260277 -0.04969,0.501624 -0.149067,0.72404 -0.09938,0.22242 -0.234253,0.416442 -0.404611,0.582073 -0.170366,0.165629 -0.371488,0.295766 -0.603368,0.390413 -0.227152,0.09465 -0.470865,0.141969 -0.731138,0.141969 -0.350193,0 -0.650693,-0.07098 -0.901502,-0.212953 -0.24608,-0.141969 -0.449569,-0.328894 -0.610467,-0.560778 -0.156167,-0.23188 -0.272107,-0.494522 -0.347822,-0.787927 -0.07099,-0.298131 -0.106478,-0.600997 -0.106478,-0.9086 0,-0.364384 0.04732,-0.695644 0.141969,-0.993782 0.09464,-0.302862 0.227149,-0.563137 0.397513,-0.780826 0.17036,-0.217682 0.376216,-0.385678 0.617565,-0.503991 0.241344,-0.118303 0.511084,-0.177456 0.809222,-0.17746 0.430635,4e-6 0.790289,0.106482 1.078962,0.319429 0.293398,0.208226 0.522915,0.496895 0.688549,0.866011 l -0.866009,0.298133 c -0.09465,-0.198751 -0.215322,-0.352551 -0.362022,-0.461398 -0.146702,-0.113571 -0.326529,-0.17036 -0.53948,-0.170362 -0.165633,2e-6 -0.317067,0.04023 -0.4543,0.120673 -0.13724,0.08045 -0.255547,0.19166 -0.354922,0.333627 -0.09465,0.141971 -0.170365,0.312333 -0.227151,0.511087 -0.05206,0.194026 -0.07809,0.406979 -0.07808,0.638859 -2e-6,0.194027 0.01656,0.388052 0.04969,0.582074 0.03313,0.189293 0.09228,0.36202 0.17746,0.518184 0.08518,0.151436 0.198756,0.27684 0.340727,0.376218 0.141967,0.09465 0.32416,0.141971 0.54658,0.141969 0.118304,2e-6 0.229513,-0.01893 0.333626,-0.05679 0.10884,-0.03786 0.208218,-0.08991 0.298134,-0.156167 0.08991,-0.06625 0.165626,-0.144333 0.227151,-0.234248 0.06625,-0.09464 0.113571,-0.196389 0.141969,-0.305232 l -0.780829,0 0,-0.851813 1.668133,0 m 1.091609,2.370878 0,-4.755955 3.471137,0 0,0.851813 -2.605128,0 0,0.880207 1.419688,0 0,0.873108 -1.419688,0 0,1.299016 2.690308,0 0,0.851811 -3.556317,0" />
</svg>
