<?xml version="1.0" encoding="UTF-8" standalone="no"?>
<!-- Created with Inkscape (http://www.inkscape.org/) -->

<svg
   xmlns:dc="http://purl.org/dc/elements/1.1/"
   xmlns:cc="http://creativecommons.org/ns#"
   xmlns:rdf="http://www.w3.org/1999/02/22-rdf-syntax-ns#"
   xmlns:svg="http://www.w3.org/2000/svg"
   xmlns="http://www.w3.org/2000/svg"
   xmlns:sodipodi="http://sodipodi.sourceforge.net/DTD/sodipodi-0.dtd"
   xmlns:inkscape="http://www.inkscape.org/namespaces/inkscape"
   id="svg2"
   sodipodi:version="0.32"
   inkscape:version="0.48.1 r9760"
   width="48"
   height="48"
   version="1.0"
   sodipodi:docname="US:NY-TBR.svg"
   inkscape:output_extension="org.inkscape.output.svg.inkscape">
  <metadata
     id="metadata7">
    <rdf:RDF>
      <cc:Work
         rdf:about="">
        <dc:format>image/svg+xml</dc:format>
        <dc:type
           rdf:resource="http://purl.org/dc/dcmitype/StillImage" />
      </cc:Work>
    </rdf:RDF>
  </metadata>
  <defs
     id="defs5" />
  <sodipodi:namedview
     inkscape:window-height="996"
     inkscape:window-width="1278"
     inkscape:pageshadow="2"
     inkscape:pageopacity="0.0"
     guidetolerance="10.0"
     gridtolerance="10.0"
     objecttolerance="10.0"
     borderopacity="1.0"
     bordercolor="#666666"
     pagecolor="#ffffff"
     id="base"
     inkscape:zoom="16.895833"
     inkscape:cx="24"
     inkscape:cy="24"
     inkscape:window-x="1"
     inkscape:window-y="27"
     inkscape:current-layer="svg2"
     showgrid="true"
     inkscape:showpageshadow="false"
     inkscape:window-maximized="0">
    <inkscape:grid
       type="xygrid"
       id="grid3374"
       empspacing="5"
       visible="true"
       enabled="true"
       snapvisiblegridlinesonly="true" />
  </sodipodi:namedview>
  <g
     id="g3376">
    <path
       inkscape:connector-curvature="0"
       d="m 46.937506,24.000002 c 0,12.668035 -10.269472,22.937503 -22.937508,22.937503 -12.668034,0 -22.9375044,-10.269468 -22.9375044,-22.937503 0,-12.668035 10.2694704,-22.9375034 22.9375044,-22.9375034 12.668036,0 22.937508,10.2694684 22.937508,22.9375034 z"
       style="fill:#ffffff;fill-opacity:1;stroke:#000000;stroke-width:0.07658578;stroke-linecap:square;stroke-miterlimit:3.863693;stroke-opacity:1;stroke-dasharray:none"
       id="path2212" />
    <path
       inkscape:connector-curvature="0"
       id="path2237"
       d="M 24,2 C 11.849736,2 2,11.849703 2,24 2,36.150297 11.849737,46 24,46 36.150268,46 46.000002,36.150297 46,24 46,11.849703 36.15027,2 24,2 z m 0.08895,3.106462 c 0,0 1.986011,2.9525361 1.986011,2.9525361 l 2.810711,-0.2981336 0.185136,4.7823115 c 0,0 2.709728,-1.445033 2.70973,-1.445033 l 1.062732,2.315412 2.264918,-0.831909 c 0,0 -0.995413,2.923691 -0.995413,2.923691 l 1.293555,0.538597 c 0,0 -2.933331,6.422082 -2.933331,6.422082 0,0 2.050926,0.197102 2.050926,0.197102 0,0 -0.187455,0.585438 -0.365463,0.956917 -0.930651,1.941984 -2.179389,3.052757 -3.984045,3.544073 -1.118755,0.304557 -2.817351,0.220058 -4.205245,-0.206841 -0.383905,-0.108986 -0.885736,-0.386481 -1.317594,-0.538574 0,0 0,3.351678 0,3.351678 0,0 -1.130057,-0.0069 -1.130057,-0.0069 l -0.0024,-3.344467 c -1.605256,0.710285 -2.339998,0.922158 -3.738797,0.920859 -0.656645,-6.26e-4 -1.396541,-0.05705 -1.685464,-0.127304 -1.618195,-0.394737 -3.245071,-1.66966 -4.048963,-3.277152 -0.106191,-0.217739 -0.485683,-1.339247 -0.485683,-1.339247 0,0 2.00765,-0.228406 2.00765,-0.228406 0,0 -2.974207,-6.446153 -2.974208,-6.446153 0,0 1.332023,-0.579431 1.332023,-0.579431 0,0 -1.045902,-2.933315 -1.045902,-2.933315 0,0 2.356284,0.824697 2.356284,0.824697 0,0 1.069947,-2.281741 1.069946,-2.281741 0,0 2.69049,1.519537 2.69049,1.519537 0,0 0.185138,-4.8399816 0.185138,-4.8399816 0,0 2.892459,0.389496 2.892459,0.389496 L 24.088957,5.1067421 z M 24.05531,7.0659995 22.636731,9.2251441 20.318916,8.9822913 c 0,0 -0.09617,1.9908197 -0.09617,1.9908197 l 0.83672,0.577043 0.569837,-0.504928 c 0,0 0.538579,0.668454 0.538579,0.668454 l 0.01442,-1.8417636 c 0,0 0.694862,-0.00462 0.694862,-0.00462 0,0 1.185357,-1.7816606 1.185357,-1.7816606 l 1.187759,1.7912603 0.644371,0 0.0048,1.8537987 0.651585,-0.646818 0.490491,0.471281 0.887213,-0.601089 -0.110609,-1.9547847 c 0,0 -2.308196,0.2237679 -2.308196,0.2237679 0,0 -1.45465,-2.1567331 -1.454647,-2.1567331 z m 0.02405,2.9117019 c 0,0 -0.565028,0.8343206 -0.565027,0.8343206 0,0 -0.293333,0 -0.293334,0 0.0022,1.2528 0.0067,2.505417 -0.02166,3.758033 l -1.728738,-1.971574 c 0,0 -0.358252,0.259664 -0.358252,0.259664 0,0 -0.947323,-0.776627 -0.947323,-0.776627 0,0 0.411149,1.173335 0.411148,1.173335 l -0.454426,0.24524 1.882623,3.447865 c 0,0 -3.019891,-1.622934 -3.019891,-1.622934 l -0.37028,0.39673 c 0,0 -1.262295,-0.341426 -1.262295,-0.341426 0,0 0.567431,1.072348 0.567431,1.072348 l -0.406338,0.435178 3.503168,4.460132 -2.918906,0.09368 0.165901,0.250041 c 0.363037,0.552649 1.141586,0.961415 2.548634,1.336836 1.558878,0.41593 2.298382,0.77229 2.89246,1.394552 l 0.31978,0.334215 0.492899,-0.452059 c 0.651369,-0.595293 1.147987,-0.818737 2.644807,-1.192534 1.469827,-0.367096 2.244046,-0.744094 2.644808,-1.28879 l 0.281312,-0.425531 -3.08,0.0023 c 0,0 3.524809,-4.428851 3.524812,-4.428851 0,0 -0.329399,-0.379874 -0.329402,-0.379874 0,0 0.447213,-1.15411 0.447213,-1.15411 0,0 -1.209396,0.31738 -1.209396,0.31738 0,0 -0.259675,-0.396754 -0.259675,-0.396754 0,0 -3.125682,1.5869 -3.125682,1.5869 0,0 1.281477,-2.229382 1.865794,-3.373337 0,0 -0.367871,-0.32218 -0.367871,-0.32218 0,0 0.334208,-1.096396 0.334208,-1.096396 0,0 -0.920875,0.706877 -0.920875,0.706877 0,0 -0.363056,-0.266853 -0.363058,-0.266853 0,0 -1.695084,1.978785 -1.695084,1.978785 0,0 0,-3.762833 0,-3.762833 0,0 -0.326993,-0.0023 -0.326993,-0.0023 0,0 -0.502515,-0.8295197 -0.502515,-0.8295197 z m -7.246776,2.5871326 c 0,0 -0.44498,0.89257 -0.759781,1.524338 0.236012,0.06701 1.976392,0.560233 1.976393,0.560233 l 0.591476,-0.62996 0.863168,0.478493 c 0,0 -0.334207,-0.577044 -0.334207,-0.577044 0,0 -2.33705,-1.35606 -2.337049,-1.35606 z m 14.414209,0.07675 c 0,0 -2.392349,1.320025 -2.392351,1.320025 0,0 -0.259674,0.569832 -0.259674,0.569832 0,0 0.892022,-0.468846 0.892024,-0.468846 l 0.524153,0.685241 c 0,0 1.942731,-0.56021 1.942733,-0.56021 0,0 -0.706885,-1.546042 -0.706885,-1.546042 z m -15.241308,1.584489 c -0.08742,0.175537 -0.24765,0.495282 -0.24765,0.495282 0,0 -1.069945,-0.435201 -1.069945,-0.435201 0,0 0.641966,1.668662 0.641966,1.668662 0,0 -1.173333,0.514529 -1.173334,0.514529 0,0 3.096833,6.842836 3.096833,6.842836 0,0 -2.010056,0.245264 -2.010057,0.245264 0,0.03919 0.214752,0.415212 0.425575,0.7309 0.576056,0.862656 1.546186,1.509172 2.736176,1.829752 0.63162,0.170204 1.820749,0.176464 2.59672,0.01159 0.632847,-0.134028 2.055738,-0.686539 2.055739,-0.798238 0,-0.144464 -0.546612,-0.572244 -0.976176,-0.76218 -0.253787,-0.112232 -0.907754,-0.321137 -1.45224,-0.464048 -0.544487,-0.142841 -1.230643,-0.366678 -1.526777,-0.497715 -1.120116,-0.470332 -1.853646,-1.332709 -2.406776,-2.404386 -0.208065,-0.430261 -0.379888,-0.921485 -0.37989,-0.985786 0,0 2.399561,-0.04081 2.399562,-0.04081 l -2.671257,-3.380548 c 0,0 0.685247,-0.670819 0.685247,-0.670819 L 16.005485,14.22573 z m 15.991477,0.07211 c 0,0 -0.668416,1.937926 -0.668416,1.937926 l 0.668416,0.733335 c 0,0 -2.66645,3.301221 -2.66645,3.301221 l 2.529399,0.0046 c 0,0 -0.186597,0.47833 -0.415956,0.954528 -0.868232,1.802576 -1.80067,2.464559 -4.311039,3.060757 -0.895411,0.212638 -1.709693,0.564661 -1.966775,0.848743 -0.166168,0.183652 -0.159234,0.191304 0.468854,0.476082 0.35158,0.159536 0.938872,0.369994 1.303169,0.468847 0.527481,0.143072 0.891581,0.173913 1.786447,0.14655 1.023916,-0.03108 1.179821,-0.06145 1.772022,-0.331803 0.921821,-0.420847 1.600002,-0.966447 2.031694,-1.632559 0.257829,-0.397843 0.262077,-0.639583 0.262077,-0.639583 0,0 -2.002841,-0.254864 -2.002844,-0.254864 0,0 3.106449,-6.739416 3.106451,-6.739416 l -1.168525,-0.528998 0.617923,-1.666227 c 0,0 -1.086776,0.411154 -1.086776,0.411154 0,0 -0.259674,-0.550609 -0.259671,-0.550609 z m -10.62973,16.650294 c 0.226034,0 0.411162,0.05055 0.55541,0.153971 0.144244,0.103421 0.265624,0.277612 0.36306,0.519352 0.03903,0.09739 0.07171,0.193391 0.100983,0.290922 0.02927,0.09739 0.05458,0.200579 0.07213,0.307733 0.01756,0.107131 0.02827,0.220986 0.03607,0.343861 0.0077,0.1229 0.01204,0.258204 0.01204,0.406308 -10e-7,0.300175 -0.01496,0.556499 -0.04808,0.767027 -0.03315,0.210551 -0.09116,0.409137 -0.173116,0.596291 -0.09744,0.233878 -0.219316,0.404916 -0.365465,0.512093 -0.146151,0.107131 -0.330777,0.161159 -0.553005,0.161159 -0.23389,0 -0.423628,-0.05403 -0.569836,-0.161159 -0.146217,-0.107131 -0.268038,-0.278215 -0.365472,-0.512093 -0.08184,-0.191073 -0.13998,-0.390169 -0.173115,-0.598702 -0.03312,-0.208465 -0.04809,-0.464441 -0.04809,-0.764616 0,-0.296186 0.01496,-0.549682 0.04809,-0.76218 0.03314,-0.212638 0.09127,-0.411549 0.173115,-0.59868 0.10136,-0.233901 0.224063,-0.403988 0.370274,-0.507316 0.146208,-0.103421 0.335064,-0.153971 0.565027,-0.153971 z m -5.034754,0.06979 1.993224,0 0,0.52174 -0.711693,0 0,3.39736 -0.567432,0 0,-3.39736 -0.714099,0 0,-0.52174 z m 2.531804,0 0.548197,0 0,3.9191 -0.548197,0 0,-3.9191 z m 4.431256,0 1.168525,0 c 0.152046,0 0.291659,0.0262 0.418361,0.07698 0.126702,0.05078 0.235388,0.119652 0.326996,0.20916 0.0916,0.08974 0.162875,0.201275 0.211595,0.33178 0.04869,0.130551 0.07213,0.274435 0.07213,0.430377 -3e-6,0.233879 -0.04589,0.43251 -0.139455,0.596291 -0.09356,0.16371 -0.233633,0.278562 -0.420766,0.348615 l 0.560216,1.925891 -0.579449,0 -0.519346,-1.841717 -0.53858,0 0,1.841717 -0.560219,0 0,-3.9191 z m 3.527214,0 0.550603,0 0.976172,3.9191 -0.562623,0 -0.274097,-1.069937 -0.84153,0 -0.257268,1.069937 -0.567432,0 0.976175,-3.9191 z m 1.764808,0 1.993226,0 0,0.52174 -0.714099,0 0,3.39736 -0.567429,0 0,-3.39736 -0.711698,0 0,-0.52174 z m 2.529401,0 0.550599,0 0,3.9191 -0.550599,0 0,-3.9191 z m -9.793007,0.480859 c -0.217716,0.01855 -0.370445,0.17971 -0.454427,0.483317 -0.04687,0.148174 -0.07869,0.297113 -0.09617,0.447188 -0.01751,0.150029 -0.02645,0.334702 -0.02644,0.552998 -1e-6,0.105275 0.0038,0.203131 0.0097,0.290922 0.0058,0.08765 0.01428,0.169275 0.02405,0.245264 0.0098,0.07606 0.02048,0.151884 0.03607,0.225855 0.01559,0.0742 0.03338,0.148174 0.0529,0.226087 0.08958,0.323618 0.255964,0.485706 0.497705,0.485706 0.116943,0 0.212502,-0.03733 0.288524,-0.115479 0.07602,-0.07792 0.139265,-0.202667 0.189947,-0.370273 0.02332,-0.07768 0.04447,-0.15142 0.06011,-0.223768 0.01565,-0.07211 0.02877,-0.147942 0.03848,-0.226087 0.0097,-0.07791 0.01531,-0.16 0.01922,-0.247653 0.0039,-0.08765 0.0072,-0.189913 0.0072,-0.302957 -2e-6,-0.109217 -0.0038,-0.208464 -0.0097,-0.298134 -0.0058,-0.08951 -0.01428,-0.171593 -0.02405,-0.247651 -0.0098,-0.07606 -0.02289,-0.148638 -0.03848,-0.218899 -0.01559,-0.07026 -0.03339,-0.14145 -0.0529,-0.211711 -0.05067,-0.175304 -0.113929,-0.30189 -0.189948,-0.379896 -0.07602,-0.07792 -0.171583,-0.115478 -0.288525,-0.115478 -0.01512,0 -0.02876,-0.0013 -0.04327,0 z m 2.531803,0.06979 0,0.988198 0.579453,0 c 0.16371,2.3e-5 0.289748,-0.04359 0.377489,-0.127304 0.08775,-0.08371 0.132244,-0.203363 0.132244,-0.363061 -3e-6,-0.152116 -0.0483,-0.273416 -0.141868,-0.363062 -0.09356,-0.08951 -0.215837,-0.134492 -0.36787,-0.134492 l -0.579451,0 z m 3.229074,0.620337 -0.274099,1.127653 0.562623,0 -0.288524,-1.127653 z m -9.778582,3.974427 c 0.226034,2.3e-5 0.411161,0.05055 0.55541,0.153971 0.144243,0.103421 0.26322,0.275201 0.360655,0.51694 0.03902,0.09739 0.07411,0.195943 0.103391,0.293311 0.02926,0.09739 0.05218,0.200579 0.06973,0.307803 0.01756,0.107131 0.03068,0.220986 0.03848,0.343815 0.0077,0.122899 0.01203,0.258226 0.01203,0.406331 -2e-6,0.300151 -0.01738,0.556476 -0.05049,0.767004 -0.03313,0.210551 -0.09116,0.40916 -0.173115,0.596267 -0.09744,0.233902 -0.219314,0.404962 -0.365466,0.512162 -0.146151,0.107131 -0.328372,0.158841 -0.550601,0.158841 -0.233888,0 -0.423626,-0.05148 -0.569835,-0.158841 -0.14621,-0.107131 -0.268032,-0.27826 -0.365465,-0.512162 -0.08185,-0.191072 -0.139981,-0.39251 -0.173115,-0.60109 -0.03314,-0.208465 -0.05049,-0.46203 -0.05049,-0.762181 0,-0.296233 0.01738,-0.549706 0.05049,-0.762181 0.03313,-0.212406 0.09127,-0.413937 0.173115,-0.601091 0.101362,-0.233901 0.224063,-0.401599 0.370273,-0.504928 0.146209,-0.103419 0.335065,-0.153971 0.565027,-0.153971 z m 3.015082,0 c 0.226034,2.3e-5 0.411161,0.05055 0.55541,0.153971 0.144244,0.103421 0.26322,0.275201 0.360655,0.51694 0.03903,0.09739 0.07411,0.195943 0.103391,0.293311 0.02926,0.09739 0.05218,0.200579 0.06973,0.307803 0.01756,0.107131 0.03068,0.220986 0.03848,0.343815 0.0077,0.122899 0.01203,0.258226 0.01203,0.406331 -3e-6,0.300151 -0.01738,0.556476 -0.05049,0.767004 -0.03314,0.210551 -0.09116,0.40916 -0.173116,0.596267 -0.09743,0.233902 -0.219313,0.404962 -0.365465,0.512162 -0.146151,0.107131 -0.328373,0.158841 -0.5506,0.158841 -0.233889,0 -0.423627,-0.05148 -0.569836,-0.158841 -0.14621,-0.107131 -0.268032,-0.27826 -0.365464,-0.512162 -0.08185,-0.191072 -0.139982,-0.39251 -0.173116,-0.60109 -0.03313,-0.208465 -0.05049,-0.46203 -0.05049,-0.762181 -1e-6,-0.296233 0.01738,-0.549706 0.05049,-0.762181 0.03313,-0.212406 0.09127,-0.413937 0.173116,-0.601091 0.101361,-0.233901 0.224061,-0.401599 0.370272,-0.504928 0.146209,-0.103419 0.335065,-0.153971 0.565028,-0.153971 z m 10.305136,0 c 0.226041,2.3e-5 0.411163,0.05055 0.555411,0.153971 0.144233,0.103421 0.263219,0.275201 0.360656,0.51694 0.03901,0.09739 0.07411,0.195943 0.103375,0.293311 0.02927,0.09739 0.0522,0.200579 0.06973,0.307803 0.01763,0.107131 0.03068,0.220986 0.03848,0.343815 0.0079,0.122899 0.01206,0.258226 0.01206,0.406331 -2e-6,0.300151 -0.01739,0.556476 -0.05048,0.767004 -0.03313,0.210551 -0.09114,0.40916 -0.173125,0.596267 -0.09744,0.233902 -0.219338,0.404962 -0.365465,0.512162 -0.146156,0.107131 -0.328373,0.158841 -0.550602,0.158841 -0.233888,0 -0.426029,-0.05148 -0.572239,-0.158841 -0.146203,-0.107131 -0.268033,-0.27826 -0.365464,-0.512162 -0.08186,-0.191072 -0.137577,-0.39251 -0.170713,-0.60109 -0.03311,-0.208465 -0.05048,-0.46203 -0.05048,-0.762181 0,-0.296233 0.0174,-0.549706 0.05048,-0.762181 0.03314,-0.212406 0.08888,-0.413937 0.170713,-0.601091 0.101357,-0.233901 0.226458,-0.401599 0.372675,-0.504928 0.146204,-0.103419 0.335066,-0.153971 0.565028,-0.153971 z m -20.119781,0.06979 1.233443,0 c 0.132526,0 0.253905,0.02342 0.36306,0.07211 0.10915,0.0487 0.203327,0.119653 0.281311,0.20916 0.07798,0.08951 0.140283,0.195015 0.185136,0.319792 0.04485,0.124522 0.06731,0.263885 0.06732,0.415931 -3e-6,0.08974 -0.0079,0.16742 -0.02163,0.235641 -0.01368,0.06841 -0.03616,0.135188 -0.06732,0.199652 -0.03117,0.06446 -0.07238,0.130783 -0.125027,0.197102 -0.05265,0.06632 -0.119237,0.139363 -0.19716,0.221218 0.14811,0.124985 0.265262,0.268592 0.351039,0.430401 0.08577,0.161855 0.129831,0.343165 0.129834,0.545786 -3e-6,0.148174 -0.02715,0.287791 -0.08175,0.418342 -0.05461,0.130551 -0.130542,0.243478 -0.226011,0.339015 -0.09547,0.09553 -0.207511,0.172058 -0.334207,0.228405 -0.126702,0.05658 -0.262035,0.08418 -0.406339,0.08418 l -1.151694,0 0,-3.916758 z m 2.856393,0 1.168525,0 c 0.152037,0 0.291659,0.02388 0.418361,0.07466 0.126696,0.05078 0.235388,0.12174 0.326995,0.211711 0.09161,0.08974 0.162866,0.198725 0.211584,0.329414 0.04872,0.130552 0.07212,0.274389 0.07212,0.430378 -3e-6,0.233879 -0.04588,0.432534 -0.139453,0.596268 -0.09357,0.16371 -0.233634,0.280974 -0.420766,0.351026 l 0.56022,1.923526 -0.57705,0 -0.521748,-1.841763 -0.538579,0 0,1.841763 -0.56022,0 0,-3.916758 z m 8.884154,0 0.562623,0 0,1.567678 0.894427,-1.567678 0.649178,0 -0.812676,1.372918 0.906448,2.54384 -0.591476,0 -0.690055,-1.911491 -0.355846,0.661195 0,1.250296 -0.562623,0 0,-3.916758 z m 4.436066,0 1.168523,0 c 0.152046,0 0.291661,0.02388 0.418361,0.07466 0.126701,0.05078 0.23539,0.12174 0.326996,0.211711 0.0916,0.08974 0.162875,0.198725 0.211594,0.329414 0.04869,0.130552 0.07213,0.274389 0.07213,0.430378 -4e-6,0.233879 -0.04589,0.432534 -0.139478,0.596268 -0.09356,0.16371 -0.233632,0.280974 -0.420763,0.351026 l 0.560221,1.923526 -0.579455,0 -0.519344,-1.841763 -0.53858,0 0,1.841763 -0.560218,0 0,-3.916758 z m 6.542293,0 0.550605,0 0.976175,3.916758 -0.562626,0 -0.274096,-1.069936 -0.841533,0 -0.257268,1.069936 -0.567429,0 0.976172,-3.916758 z m 2.067763,0 1.000219,0 c 0.167629,0 0.298342,0.0092 0.391912,0.03363 0.09356,0.02319 0.17505,0.0633 0.245245,0.117797 0.116939,0.08185 0.215791,0.19803 0.295738,0.34625 0.07993,0.148175 0.138017,0.320533 0.173125,0.519328 0.02724,0.144232 0.04976,0.297879 0.06735,0.461658 0.01763,0.163711 0.02645,0.321601 0.02645,0.473647 -2e-6,0.896651 -0.18836,1.491759 -0.562623,1.784048 -0.0702,0.06632 -0.151676,0.112232 -0.245245,0.139362 -0.09356,0.02736 -0.193879,0.04082 -0.30295,0.04082 l -1.089181,0 0,-3.916757 z m -17.987106,0.478494 c -0.24174,2.3e-5 -0.408125,0.162087 -0.497706,0.485682 -0.04687,0.148174 -0.07869,0.297136 -0.09617,0.447211 -0.01751,0.15003 -0.02645,0.334703 -0.02644,0.552999 -10e-7,0.105276 0.0038,0.200811 0.0097,0.288534 0.0058,0.08765 0.01189,0.169275 0.02166,0.24524 0.0098,0.07583 0.02286,0.151885 0.03848,0.225856 0.01559,0.0742 0.03339,0.150493 0.0529,0.228638 0.08958,0.323571 0.255965,0.485681 0.497706,0.485681 0.116943,0 0.212502,-0.03988 0.288524,-0.118029 0.07602,-0.07792 0.139263,-0.200348 0.189947,-0.367838 0.02332,-0.07815 0.04206,-0.153971 0.0577,-0.226087 0.01565,-0.07188 0.02877,-0.145624 0.03848,-0.223769 0.0097,-0.07792 0.01769,-0.162319 0.02166,-0.250064 0.0039,-0.08765 0.0048,-0.187362 0.0048,-0.300545 -3e-6,-0.109218 -0.0013,-0.208464 -0.0072,-0.298157 -0.0058,-0.08951 -0.01428,-0.171826 -0.02405,-0.247629 -0.0098,-0.07606 -0.02289,-0.148638 -0.03848,-0.218899 -0.01559,-0.07026 -0.03339,-0.14145 -0.0529,-0.21171 -0.05069,-0.175305 -0.113948,-0.30189 -0.189967,-0.379874 -0.07602,-0.07791 -0.171583,-0.117797 -0.288525,-0.118028 z m 3.015082,0 c -0.241741,2.3e-5 -0.408124,0.162087 -0.497705,0.485682 -0.04687,0.148174 -0.07869,0.297136 -0.09617,0.447211 -0.01751,0.15003 -0.02645,0.334703 -0.02645,0.552999 -1e-6,0.105276 0.0038,0.200811 0.0097,0.288534 0.0058,0.08765 0.01189,0.169275 0.02166,0.24524 0.0098,0.07583 0.02286,0.151885 0.03848,0.225856 0.01558,0.0742 0.03339,0.150493 0.0529,0.228638 0.08958,0.323571 0.255965,0.485681 0.497705,0.485681 0.116944,0 0.212504,-0.03988 0.288525,-0.118029 0.07602,-0.07792 0.139263,-0.200348 0.189948,-0.367838 0.02331,-0.07815 0.04206,-0.153971 0.0577,-0.226087 0.01565,-0.07188 0.02877,-0.145624 0.03848,-0.223769 0.0097,-0.07792 0.01772,-0.162319 0.02166,-0.250064 0.0039,-0.08765 0.0048,-0.187362 0.0048,-0.300545 -2e-6,-0.109218 -0.0013,-0.208464 -0.0072,-0.298157 -0.0058,-0.08951 -0.01428,-0.171826 -0.02405,-0.247629 -0.0098,-0.07606 -0.02289,-0.148638 -0.03848,-0.218899 -0.01561,-0.07026 -0.03341,-0.14145 -0.05292,-0.21171 -0.05067,-0.175305 -0.113928,-0.30189 -0.189948,-0.379874 -0.07602,-0.07791 -0.171582,-0.117797 -0.288524,-0.118028 z m 10.305136,0 c -0.241742,2.3e-5 -0.408126,0.162087 -0.497704,0.485682 -0.04689,0.148174 -0.07868,0.297136 -0.09618,0.447211 -0.01763,0.15003 -0.02645,0.334703 -0.02645,0.552999 -2e-6,0.105276 0.0013,0.200811 0.0071,0.288534 0.0058,0.08765 0.01437,0.169275 0.02405,0.24524 0.0097,0.07583 0.02296,0.151885 0.03847,0.225856 0.01577,0.0742 0.03337,0.150493 0.05289,0.228638 0.08957,0.323571 0.255962,0.485681 0.497706,0.485681 0.11694,0 0.212498,-0.03988 0.288525,-0.118029 0.07601,-0.07792 0.13927,-0.200348 0.18996,-0.367838 0.02331,-0.07815 0.04207,-0.153971 0.05772,-0.226087 0.01577,-0.07188 0.02877,-0.145624 0.03848,-0.223769 0.0097,-0.07792 0.01786,-0.162319 0.02179,-0.250064 0.0039,-0.08765 0.0048,-0.187362 0.0048,-0.300545 -3e-6,-0.109218 -0.0037,-0.208464 -0.0097,-0.298157 -0.0058,-0.08951 -0.01182,-0.171826 -0.02179,-0.247629 -0.0097,-0.07606 -0.02296,-0.148638 -0.03848,-0.218899 -0.01577,-0.07026 -0.03339,-0.14145 -0.05292,-0.21171 -0.05068,-0.175305 -0.113925,-0.301891 -0.189936,-0.379874 -0.07604,-0.07792 -0.171595,-0.117797 -0.288526,-0.118029 z m -19.557158,0.06979 0,1.048325 0.589071,0 c 0.132526,0 0.238951,-0.05287 0.314972,-0.15629 0.07602,-0.103421 0.113007,-0.243895 0.113007,-0.423188 -2e-6,-0.16371 -0.03232,-0.281763 -0.09858,-0.355827 -0.06627,-0.0742 -0.177362,-0.113159 -0.3294,-0.113159 l -0.589071,0 z m 2.853989,0 0,0.988221 0.579454,0 c 0.163694,0 0.289746,-0.04128 0.377486,-0.125218 0.08774,-0.08371 0.132239,-0.20568 0.132241,-0.365449 -2e-6,-0.152116 -0.04829,-0.273415 -0.141857,-0.363061 -0.09358,-0.08951 -0.215832,-0.134493 -0.367869,-0.134493 l -0.579454,0 z m 13.32022,0 0,0.988221 0.579453,0 c 0.16371,0 0.289747,-0.04128 0.377486,-0.125218 0.08775,-0.08371 0.132244,-0.20568 0.132244,-0.365449 -2e-6,-0.152116 -0.04828,-0.273415 -0.141866,-0.363061 -0.09356,-0.08951 -0.215839,-0.134493 -0.367869,-0.134493 l -0.579453,0 z m 8.61246,0 0,2.820316 0.466447,0 c 0.08185,0 0.154435,-0.01623 0.218806,-0.048 0.06434,-0.03108 0.121554,-0.07211 0.168325,-0.122667 0.04675,-0.05078 0.08373,-0.109682 0.11302,-0.177855 0.02927,-0.06841 0.05173,-0.139827 0.06735,-0.21403 0.01182,-0.124753 0.02435,-0.25593 0.03608,-0.394319 0.01182,-0.138435 0.01692,-0.282296 0.01692,-0.430377 -3e-6,-0.222377 -0.0092,-0.429775 -0.02885,-0.622749 -0.01971,-0.192928 -0.04666,-0.329298 -0.08176,-0.411154 -0.08969,-0.265044 -0.260255,-0.399119 -0.509725,-0.399119 l -0.466448,0 z m -2.368308,0.620313 -0.274099,1.130089 0.562626,0 -0.288527,-1.130089 z m -22.418361,0.976187 0,1.223816 0.567431,0 c 0.159889,0 0.286323,-0.05264 0.379891,-0.153971 0.09356,-0.101334 0.13945,-0.237194 0.139453,-0.408743 -3e-6,-0.09345 -0.01356,-0.17971 -0.04087,-0.259687 -0.0273,-0.07977 -0.06379,-0.151188 -0.110602,-0.21171 -0.04681,-0.06052 -0.101601,-0.106436 -0.165901,-0.139363 -0.0643,-0.03293 -0.13178,-0.05055 -0.201968,-0.05055 l -0.567432,0 z"
       style="fill:#613314;fill-opacity:1;stroke:none" />
  </g>
</svg>
