<?xml version="1.0" encoding="UTF-8" standalone="no"?>
<!-- Generator: Adobe Illustrator 12.0.0, SVG Export Plug-In . SVG Version: 6.00 Build 51448)  -->

<svg
   xmlns:dc="http://purl.org/dc/elements/1.1/"
   xmlns:cc="http://creativecommons.org/ns#"
   xmlns:rdf="http://www.w3.org/1999/02/22-rdf-syntax-ns#"
   xmlns:svg="http://www.w3.org/2000/svg"
   xmlns="http://www.w3.org/2000/svg"
   xmlns:sodipodi="http://sodipodi.sourceforge.net/DTD/sodipodi-0.dtd"
   xmlns:inkscape="http://www.inkscape.org/namespaces/inkscape"
   version="1.1"
   id="Layer_1"
   width="48"
   height="48"
   viewBox="0 0 48 48"
   overflow="visible"
   enable-background="new 0 0 600 600"
   xml:space="preserve"
   sodipodi:version="0.32"
   inkscape:version="0.48.1 r9760"
   sodipodi:docname="US:NH_3.svg"
   inkscape:output_extension="org.inkscape.output.svg.inkscape"
   style="overflow:visible"><metadata
   id="metadata2242"><rdf:RDF><cc:Work
       rdf:about=""><dc:format>image/svg+xml</dc:format><dc:type
         rdf:resource="http://purl.org/dc/dcmitype/StillImage" /><dc:title /></cc:Work></rdf:RDF></metadata><defs
   id="defs2240"><inkscape:perspective
     sodipodi:type="inkscape:persp3d"
     inkscape:vp_x="0 : 300 : 1"
     inkscape:vp_y="0 : 1000 : 0"
     inkscape:vp_z="600 : 300 : 1"
     inkscape:persp3d-origin="300 : 200 : 1"
     id="perspective15" /><inkscape:perspective
     id="perspective3050"
     inkscape:persp3d-origin="0.5 : 0.33333333 : 1"
     inkscape:vp_z="1 : 0.5 : 1"
     inkscape:vp_y="0 : 1000 : 0"
     inkscape:vp_x="0 : 0.5 : 1"
     sodipodi:type="inkscape:persp3d" /><inkscape:perspective
     id="perspective3298"
     inkscape:persp3d-origin="0.5 : 0.33333333 : 1"
     inkscape:vp_z="1 : 0.5 : 1"
     inkscape:vp_y="0 : 1000 : 0"
     inkscape:vp_x="0 : 0.5 : 1"
     sodipodi:type="inkscape:persp3d" /><inkscape:perspective
     id="perspective2974"
     inkscape:persp3d-origin="0.5 : 0.33333333 : 1"
     inkscape:vp_z="1 : 0.5 : 1"
     inkscape:vp_y="0 : 1000 : 0"
     inkscape:vp_x="0 : 0.5 : 1"
     sodipodi:type="inkscape:persp3d" /><inkscape:perspective
     id="perspective2985"
     inkscape:persp3d-origin="0.5 : 0.33333333 : 1"
     inkscape:vp_z="1 : 0.5 : 1"
     inkscape:vp_y="0 : 1000 : 0"
     inkscape:vp_x="0 : 0.5 : 1"
     sodipodi:type="inkscape:persp3d" /></defs><sodipodi:namedview
   inkscape:window-height="996"
   inkscape:window-width="1278"
   inkscape:pageshadow="2"
   inkscape:pageopacity="0.0"
   guidetolerance="10.0"
   gridtolerance="10000"
   objecttolerance="10.0"
   borderopacity="1.0"
   bordercolor="#666666"
   pagecolor="#ffffff"
   id="base"
   inkscape:zoom="16.895834"
   inkscape:cx="24"
   inkscape:cy="24"
   inkscape:window-x="1"
   inkscape:window-y="27"
   inkscape:current-layer="Layer_1"
   showgrid="true"
   inkscape:showpageshadow="false"
   showborder="true"
   inkscape:window-maximized="0"
   borderlayer="false"><inkscape:grid
     type="xygrid"
     id="grid3309"
     empspacing="5"
     visible="true"
     enabled="true"
     snapvisiblegridlinesonly="true" /></sodipodi:namedview>



<g
   id="g5379"><path
     transform="matrix(0.95824611,0,0,0.95821372,1.0041867,1.0041865)"
     d="M 16.5625,0 A 1.0080053,1.0080053 0 0 0 16.03125,0.28125 L 15.875,0.4375 15.78125,0.46875 a 1.0080053,1.0080053 0 0 0 -0.25,0.15625 L 15.3125,0.8125 15.15625,0.875 A 1.0080053,1.0080053 0 0 0 14.9375,1 l -0.03125,0.03125 -0.09375,0.03125 -0.0625,0 -0.28125,0 -0.25,0 a 1.0080053,1.0080053 0 0 0 -0.0625,0 l -0.5625,0.03125 a 1.0080053,1.0080053 0 0 0 -0.53125,0.1875 l -0.34375,0.25 a 1.0080053,1.0080053 0 0 0 -0.0625,0.0625 l -0.21875,0.21875 -0.03125,0.03125 -0.03125,0 0,-0.03125 -0.0625,0.0625 -0.09375,0 A 1.0080053,1.0080053 0 0 0 12.0625,1.90625 l -0.21875,0.0625 -0.1875,0 a 1.0080053,1.0080053 0 0 0 -0.125,0 L 11.375,2 11.34375,2 11.21875,1.96875 10.4375,1.78125 A 1.0080053,1.0080053 0 0 0 9.59375,1.9375 L 9.25,2.1875 8.9375,2.4375 8.8125,2.5 8.71875,2.5625 8.59375,2.625 8.46875,2.65625 8.375,2.6875 7.96875,2.78125 l -0.5,0.03125 -0.125,0 L 7.25,2.78125 l -0.09375,0 -0.25,-0.0625 -0.1875,-0.0625 A 1.0080053,1.0080053 0 0 0 6.5625,2.59375 L 6.25,2.53125 A 1.0080053,1.0080053 0 0 0 5.40625,2.75 L 5.25,2.8125 l -0.0625,0 -0.34375,0.09375 a 1.0080053,1.0080053 0 0 0 -0.0625,0 L 4.46875,3 4.375,3.03125 3.84375,3.125 a 1.0080053,1.0080053 0 0 0 -0.0625,0.03125 l -0.15625,0.0625 -0.09375,0 L 3.15625,3.25 A 1.0080053,1.0080053 0 0 0 2.5625,3.5 L 2.375,3.65625 1.96875,3.9375 A 1.0080053,1.0080053 0 0 0 1.8125,4.0625 L 1.53125,4.34375 A 1.0080053,1.0080053 0 0 0 1.5,4.375 L 1.21875,4.6875 A 1.0080053,1.0080053 0 0 0 1.1875,4.75 L 0.96875,5.03125 a 1.0080053,1.0080053 0 0 0 -0.15625,0.25 L 0.78125,5.375 A 1.0080053,1.0080053 0 0 0 0.34375,5.8125 L 0.28125,5.9375 0.21875,6 A 1.0080053,1.0080053 0 0 0 0.0625,6.375 L 0,6.71875 a 1.0080053,1.0080053 0 0 0 0,0.1875 l 0,0.1875 0,0.25 a 1.0080053,1.0080053 0 0 0 0,0.0625 L 0.03125,7.75 l 0,0.0625 0,0.15625 A 1.0080053,1.0080053 0 0 0 0.125,8.375 l 0.0625,0.125 0,0.03125 L 0.25,8.75 A 1.0080053,1.0080053 0 0 0 0.375,9.03125 L 0.46875,9.1875 0.4375,9.25 A 1.0080053,1.0080053 0 0 0 0.375,9.71875 l 0.03125,0.34375 a 1.0080053,1.0080053 0 0 0 0.03125,0.125 l 0.125,0.5 -0.03125,0 0.09375,0.5 a 1.0080053,1.0080053 0 0 0 0.0625,0.21875 L 0.96875,12.0625 A 1.0080053,1.0080053 0 0 0 1.75,12.65625 l 0.34375,0.0625 -0.1875,0.34375 a 1.0080053,1.0080053 0 0 0 -0.0625,0.15625 L 1.6875,13.75 1.625,13.875 l -0.25,0.5 a 1.0080053,1.0080053 0 0 0 0,0.03125 l -0.15625,0.3125 0,0.03125 -0.25,0.5 -0.125,0.25 -0.03125,0.0625 -0.28125,0.46875 A 1.0080053,1.0080053 0 0 0 0.46875,16.1875 L 0.3125,16.625 A 1.0080053,1.0080053 0 0 0 0.25,16.96875 l 0,0.28125 a 1.0080053,1.0080053 0 0 0 -0.09375,0.4375 l 0,0.1875 0,0.125 a 1.0080053,1.0080053 0 0 0 0.0625,0.375 l 0.0625,0.15625 A 1.0080053,1.0080053 0 0 0 0.375,18.71875 L 0.4375,18.8125 A 1.0080053,1.0080053 0 0 0 1.28125,19.25 l 0.03125,0 0.3125,0.09375 0.4375,0.125 A 1.0080053,1.0080053 0 0 0 2.3125,19.5 l 0.15625,0 0,0.03125 -0.03125,0.0625 0,0.03125 0,0.03125 -0.03125,0 a 1.0080053,1.0080053 0 0 0 -0.21875,0.5 L 2.15625,20.375 a 1.0080053,1.0080053 0 0 0 0,0.0625 L 2.125,20.75 a 1.0080053,1.0080053 0 0 0 0.34375,0.84375 l 0.0625,0.0625 -0.1875,0.125 A 1.0080053,1.0080053 0 0 0 1.875,22.46875 l -0.65625,3.875 a 1.0080053,1.0080053 0 0 0 0,0.25 L 1.25,26.9375 A 1.0080053,1.0080053 0 0 0 1.34375,27.25 l 0.125,0.28125 A 1.0080053,1.0080053 0 0 0 1.5,27.625 l 0.125,0.21875 A 1.0080053,1.0080053 0 0 0 1.71875,28 L 1.875,28.1875 a 1.0080053,1.0080053 0 0 0 0.375,0.25 1.0080053,1.0080053 0 0 0 0.03125,0.03125 L 2.3125,28.5 2.4375,28.5625 A 1.0080053,1.0080053 0 0 0 2.5,28.59375 L 2.78125,28.75 a 1.0080053,1.0080053 0 0 0 0.5,0.125 L 6.34375,28.84375 6.1875,30.3125 6.15625,30.4375 6.125,30.5625 A 1.0080053,1.0080053 0 0 0 6.09375,30.625 l -0.0625,0.25 0,0.0625 L 5.9375,31.15625 5.75,31.625 5.59375,31.875 A 1.0080053,1.0080053 0 0 0 5.5,32.03125 L 5.40625,32.25 5.25,32.46875 a 1.0080053,1.0080053 0 0 0 -0.0625,0.0625 L 5,32.84375 A 1.0080053,1.0080053 0 0 0 4.90625,33.0625 L 4.8125,33.34375 A 1.0080053,1.0080053 0 0 0 4.78125,33.5625 L 4.75,33.875 4.71875,34.21875 a 1.0080053,1.0080053 0 0 0 0,0.09375 l 0,0.3125 0,0.21875 0,0.28125 0,0.34375 0,0.15625 -0.09375,0.40625 a 1.0080053,1.0080053 0 0 0 -0.03125,0 l -0.09375,0.375 0,0.0625 -0.03125,0.0625 L 4.4375,36.5625 4.28125,36.875 a 1.0080053,1.0080053 0 0 0 -0.03125,0 L 3.09375,39.0625 A 1.0080053,1.0080053 0 0 0 3.0625,39.15625 L 1.84375,42.0625 A 1.0080053,1.0080053 0 0 0 1.8125,42.15625 l -0.125,0.375 0,0.03125 -0.15625,0.46875 A 1.0080053,1.0080053 0 0 0 1.5,43.15625 L 1.40625,43.625 a 1.0080053,1.0080053 0 0 0 0,0.25 L 1.4375,44.5 a 1.0080053,1.0080053 0 0 0 0,0.09375 l 0.09375,0.5625 a 1.0080053,1.0080053 0 0 0 0.0625,0.25 l 0.21875,0.5 a 1.0080053,1.0080053 0 0 0 0.0625,0.0625 l 0.25,0.46875 a 1.0080053,1.0080053 0 0 0 0.09375,0.15625 l 0.25,0.3125 A 1.0080053,1.0080053 0 0 0 2.53125,47 l 0.3125,0.3125 A 1.0080053,1.0080053 0 0 0 2.9375,47.375 l 0.34375,0.28125 a 1.0080053,1.0080053 0 0 0 0.3125,0.1875 l 0.375,0.125 A 1.0080053,1.0080053 0 0 0 4.28125,48 l 0.625,0 L 45,48 c 1.649046,0 3,-1.350866 3,-3 L 48,3 C 48,1.350906 46.649093,0 45,0 L 16.75,0 a 1.0080053,1.0080053 0 0 0 -0.1875,0 z"
     id="path3322"
     style="fill:#000000;fill-rule:evenodd"
     inkscape:original="M 16.75 1 L 16.46875 1.28125 L 16.15625 1.40625 L 15.84375 1.65625 L 15.5625 1.78125 L 15.40625 1.90625 L 14.96875 2.0625 L 14.75 2.0625 L 14.46875 2.0625 L 14.21875 2.0625 L 13.65625 2.09375 L 13.3125 2.34375 L 13.03125 2.59375 L 12.84375 2.75 L 12.625 2.84375 L 12.34375 2.875 L 12.03125 2.96875 L 11.65625 2.96875 L 11.375 3 L 11.09375 2.96875 L 10.1875 2.75 L 9.84375 3 L 9.40625 3.3125 L 9.0625 3.5 L 8.71875 3.625 L 8.125 3.78125 L 7.375 3.8125 L 7.0625 3.78125 L 6.71875 3.71875 L 6.375 3.59375 L 6.0625 3.53125 L 6 3.625 L 5.46875 3.78125 L 5.0625 3.875 L 4.65625 4 L 4.03125 4.125 L 3.6875 4.21875 L 3.21875 4.25 L 2.9375 4.5 L 2.53125 4.78125 L 2.25 5.0625 L 1.96875 5.375 L 1.75 5.65625 L 1.59375 6.03125 L 1.4375 6.15625 L 1.25 6.25 L 1.1875 6.375 L 1.0625 6.5625 L 1 6.90625 L 1 7.09375 L 1 7.34375 L 1.03125 7.75 L 1.03125 7.96875 L 1.15625 8.25 L 1.21875 8.5 L 1.375 8.75 L 1.5625 9.09375 L 1.5625 9.15625 L 1.375 9.625 L 1.40625 9.96875 L 1.53125 10.5 L 1.625 11 L 1.90625 11.65625 L 3.28125 11.875 L 3.15625 12.875 L 2.8125 13.53125 L 2.59375 14.1875 L 2.28125 14.8125 L 2.125 15.15625 L 1.875 15.6875 L 1.71875 16 L 1.40625 16.53125 L 1.25 16.96875 L 1.25 17.5 L 1.15625 17.6875 L 1.15625 17.875 L 1.15625 18 L 1.21875 18.15625 L 1.28125 18.25 L 1.46875 18.25 L 1.90625 18.375 L 2.34375 18.5 L 3.125 18.53125 L 3.78125 18.6875 L 3.78125 18.875 L 3.625 19.28125 L 3.5 19.53125 L 3.4375 19.84375 L 3.34375 20.125 L 3.1875 20.3125 L 3.15625 20.53125 L 3.125 20.84375 L 4.1875 21.78125 L 2.875 22.625 L 2.21875 26.5 L 2.25 26.84375 L 2.375 27.125 L 2.5 27.34375 L 2.65625 27.53125 L 2.8125 27.59375 L 3 27.71875 L 3.28125 27.875 L 7.46875 27.84375 L 7.15625 30.5625 L 7.09375 30.8125 L 7.03125 31.125 L 6.875 31.53125 L 6.6875 32 L 6.4375 32.40625 L 6.3125 32.71875 L 6.0625 33.0625 L 5.875 33.375 L 5.78125 33.65625 L 5.75 33.96875 L 5.71875 34.3125 L 5.71875 34.625 L 5.71875 34.84375 L 5.71875 35.125 L 5.71875 35.46875 L 5.71875 35.71875 L 5.59375 36.25 L 5.5 36.6875 L 5.34375 37 L 5.15625 37.34375 L 4 39.53125 L 2.78125 42.4375 L 2.65625 42.84375 L 2.5 43.34375 L 2.40625 43.8125 L 2.4375 44.4375 L 2.53125 45 L 2.75 45.5 L 3 45.96875 L 3.25 46.28125 L 3.5625 46.59375 L 3.90625 46.875 L 4.28125 47 L 4.90625 47 L 45 47 C 46.106455 47 47 46.106534 47 45 L 47 3 C 47 1.8935445 46.106455 1 45 1 L 16.75 1 z "
     inkscape:radius="1.0079045"
     sodipodi:type="inkscape:offset" /><path
     d="M 5.7400779,46 5.1438303,45.98645 4.7780345,45.87798 4.4527745,45.620617 4.1410639,45.308906 3.9106496,45.01082 3.6804225,44.577165 3.4771818,44.089313 3.3687867,43.547187 3.3551625,42.964565 3.4228719,42.517435 3.5720273,42.016109 3.6940092,41.622952 4.87288,38.858729 5.9704921,36.771749 6.1465965,36.44664 6.295752,36.148553 l 0.094845,-0.433654 0.1083951,-0.501402 0.013587,-0.257589 0,-0.32511 -0.013587,-0.257512 0.013587,-0.216941 -0.013587,-0.298086 0.054122,-0.311636 0.013587,-0.311711 L 6.6615461,32.97755 6.8512383,32.679463 7.0680658,32.340579 7.190085,32.042493 7.4340488,31.64956 7.6237401,31.202281 7.759159,30.809349 7.840418,30.524812 7.881141,30.280998 8.1928148,27.679069 4.1682374,27.692623 3.9242364,27.557274 3.7209583,27.435254 3.5720274,27.367357 3.422872,27.204839 3.3144395,27.001599 3.206007,26.717062 l -0.027136,-0.31171 0.6233464,-3.712979 1.2467675,-0.813038 -1.0163158,-0.894334 0.040723,-0.298236 0.013399,-0.216716 0.1491181,-0.18969 0.081297,-0.257513 0.067859,-0.311712 0.1353815,-0.230414 0.1356061,-0.379383 0,-0.176141 -0.6098352,-0.149118 -0.7589149,-0.04057 -0.4335053,-0.108395 -0.4201057,-0.122019 -0.176329,-0.01354 -0.054122,-0.09492 -0.054273,-0.121945 0,-0.135344 0.01355,-0.189691 0.067934,-0.176291 0,-0.487853 L 2.379383,16.865406 2.6910557,16.336901 2.8266617,16.038739 3.0704383,15.537412 3.2195936,15.198753 3.5177175,14.61613 3.7479447,13.992709 4.0598049,13.369363 4.1680502,12.407121 2.8536109,12.190406 2.6097969,11.55351 2.5013645,11.092681 2.3793826,10.577655 2.3522476,10.23907 2.5419015,9.7917914 l 0,-0.054122 L 2.3522464,9.3988591 2.2168275,9.1684447 2.1489684,8.9381807 2.026949,8.6534939 l 0,-0.2033156 L 2.0135871,8.0572463 2,7.8269817 2,7.6506901 2.0541227,7.3256547 2.1896913,7.1357388 2.2302271,7.0275683 2.4065188,6.9460475 2.5554872,6.8242528 2.7315916,6.4582698 2.9348698,6.1873571 3.206007,5.8891959 3.4498209,5.6179838 3.8563399,5.347071 4.1139278,5.1166566 4.5609824,5.0897077 4.9134534,4.994862 5.509626,4.8592933 5.8754594,4.7372741 6.2683914,4.6695274 6.7697933,4.50686 l 0.081446,-0.094845 0.2981239,0.081521 0.3116732,0.094845 0.3522089,0.067672 0.2709876,0.027098 0.745366,-0.027098 0.5420869,-0.1491928 0.33866,-0.1217946 0.3252602,-0.1627423 0.420105,-0.2980864 0.32526,-0.2438139 0.880823,0.2166404 0.257325,0.013625 0.284762,-0.013625 0.338621,-0.013399 0.311674,-0.081446 0.271174,-0.040499 0.216642,-0.081297 0.162742,-0.1627423 0.284536,-0.243814 0.311674,-0.21679 0.555487,-0.027173 0.230452,-0.027173 0.270911,0.013625 0.216867,0.01355 L 15.76763,2.8673109 15.943921,2.7453665 16.201285,2.6368966 16.485822,2.3929329 16.783945,2.2711373 17.068669,2 44.083624,2 C 45.141972,2 46,2.8580275 46,3.9163763 L 46,44.083624 C 46,45.142048 45.141972,46 44.083624,46 L 5.7400779,46 z"
     id="path2517"
     style="fill:#ffffff;fill-rule:evenodd"
     inkscape:connector-curvature="0" /></g><text
   xml:space="preserve"
   style="font-size:30px;font-style:normal;font-variant:normal;font-weight:normal;font-stretch:normal;text-align:center;line-height:125%;writing-mode:lr;text-anchor:middle;fill:#000000;fill-opacity:1;stroke:none;font-family:Roadgeek 2005 Series B;-inkscape-font-specification:Roadgeek 2005 Series B"
   x="27"
   y="34"
   id="routenum"
   sodipodi:linespacing="125%"><tspan
     sodipodi:role="line"
     id="tspan3065">%num%</tspan></text>







</svg>