<?xml version="1.0" encoding="UTF-8" standalone="no"?>
<!-- Created with Inkscape (http://www.inkscape.org/) -->

<svg
   xmlns:dc="http://purl.org/dc/elements/1.1/"
   xmlns:cc="http://creativecommons.org/ns#"
   xmlns:rdf="http://www.w3.org/1999/02/22-rdf-syntax-ns#"
   xmlns:svg="http://www.w3.org/2000/svg"
   xmlns="http://www.w3.org/2000/svg"
   xmlns:sodipodi="http://sodipodi.sourceforge.net/DTD/sodipodi-0.dtd"
   xmlns:inkscape="http://www.inkscape.org/namespaces/inkscape"
   version="1.0"
   width="48"
   height="48"
   id="svg2"
   sodipodi:version="0.32"
   inkscape:version="0.48.1 r9760"
   sodipodi:docname="US:NY-OP.svg">
  <metadata
     id="metadata2357">
    <rdf:RDF>
      <cc:Work
         rdf:about="">
        <dc:format>image/svg+xml</dc:format>
        <dc:type
           rdf:resource="http://purl.org/dc/dcmitype/StillImage" />
      </cc:Work>
    </rdf:RDF>
  </metadata>
  <sodipodi:namedview
     inkscape:window-height="996"
     inkscape:window-width="1278"
     inkscape:pageshadow="2"
     inkscape:pageopacity="0.0"
     borderopacity="1.0"
     bordercolor="#666666"
     pagecolor="#ffffff"
     id="base"
     inkscape:zoom="16.895833"
     inkscape:cx="24"
     inkscape:cy="24"
     inkscape:window-x="1"
     inkscape:window-y="27"
     inkscape:current-layer="svg2"
     showgrid="true"
     inkscape:showpageshadow="false"
     inkscape:window-maximized="0">
    <inkscape:grid
       type="xygrid"
       id="grid3587"
       empspacing="5"
       visible="true"
       enabled="true"
       snapvisiblegridlinesonly="true" />
  </sodipodi:namedview>
  <defs
     id="defs4" />
  <rect
     style="fill:#ffffff;fill-opacity:1"
     id="rect1474"
     width="44.599998"
     height="44.599998"
     x="1.7"
     y="1.6999999" />
  <path
     inkscape:connector-curvature="0"
     id="path1317"
     style="fill:#000000"
     d="M 2.8335835,46.985244 C 2.5329677,46.942136 2.1979209,46.814695 1.9440415,46.646892 1.7645296,46.528245 1.4989403,46.2704 1.3749444,46.094394 1.2350982,45.895888 1.1069718,45.619332 1.048377,45.389515 L 1,45.199775 1,23.988668 1,2.7775599 1.0545729,2.5837077 C 1.1643811,2.1936509 1.3578624,1.8707429 1.6463812,1.596017 1.9345123,1.3216603 2.2642825,1.1393222 2.6384957,1.0474522 l 0.1933629,-0.0474709 21.1783194,0 21.178319,0 0.197551,0.0535508 c 0.383946,0.1040766 0.683588,0.2720756 0.967571,0.5424848 0.292769,0.278771 0.5009,0.6309131 0.598004,1.0117742 L 47,2.7975327 l 0,21.2111093 0,21.211105 -0.05457,0.193852 c -0.06729,0.239027 -0.184339,0.487699 -0.320583,0.681093 -0.123886,0.17585 -0.389512,0.433642 -0.569196,0.552407 -0.181918,0.120242 -0.467749,0.246684 -0.683966,0.302561 l -0.183186,0.04734 -21.117257,0.0028 C 12.2905,47.001289 2.9007507,46.994874 2.8335835,46.985244 z m 42.0903105,-1.10352 c 0.487215,-0.146351 0.820884,-0.485741 0.945456,-0.961669 l 0.04185,-0.159884 -0.0054,-20.801563 C 45.900673,3.8380967 45.899274,3.1531194 45.86311,3.0372061 45.714004,2.5592593 45.369375,2.2331143 44.883078,2.1097308 l -0.16294,-0.041341 -20.760952,0.00525 C 3.8796265,2.0787239 3.194222,2.0801004 3.0761063,2.115581 2.589046,2.2618884 2.256668,2.6000675 2.1309311,3.0772525 L 2.0888028,3.2371357 2.0941503,24.0387 c 0.00517,20.120508 0.00657,20.805487 0.042737,20.921403 0.1476153,0.473159 0.4899477,0.800123 0.9697474,0.926207 0.1524469,0.04006 0.1809955,0.04012 20.9238925,0.03611 20.091533,-0.0038 20.775236,-0.0052 20.893364,-0.0407 z M 3.0941697,28.324106 c -0.00616,-0.01574 -0.00678,-0.09889 -0.00137,-0.184758 0.00541,-0.08587 0.024564,-0.713364 0.042579,-1.394434 0.02616,-0.98902 0.038297,-1.242337 0.060284,-1.258285 0.015142,-0.01099 0.3745467,-0.104278 0.7986784,-0.207307 0.4241316,-0.103033 0.7829956,-0.198119 0.7974758,-0.211295 0.020256,-0.01844 0.1174538,-2.059337 0.4214895,-8.8502 0.2173391,-4.854429 0.3886775,-8.8324456 0.3807524,-8.8400379 -0.00793,-0.00759 -0.051046,-0.016651 -0.095826,-0.020132 l -0.081416,-0.00632 0,-0.5991837 0,-0.5991838 0.4783185,-0.00999 0.4783184,-0.00999 0.00533,-0.6491159 0.00533,-0.6491158 0.5746296,-0.5642313 C 7.2747859,3.9602018 7.5426493,3.7062978 7.553991,3.7062978 c 0.011342,0 0.2792053,0.253904 0.5952519,0.5642315 l 0.5746297,0.5642313 0.00533,0.6491158 0.00533,0.6491159 0.3969029,0.00999 0.3969027,0.00999 0,0.5991838 0,0.5991837 -0.10177,0.00619 c -0.055973,0.0034 -0.1084665,0.012673 -0.1166511,0.020595 -0.012796,0.012385 0.3876262,12.9857342 0.4235053,13.7212592 0.011989,0.245822 0.015899,0.265666 0.050523,0.256779 0.020642,-0.0053 0.4176166,-0.248764 0.8821646,-0.541036 0.464548,-0.292271 0.858892,-0.531403 0.876321,-0.531403 0.02425,0 2.958629,1.933585 3.028505,1.995608 0.0083,0.0074 0.06031,0.60961 0.11548,1.338227 0.05847,0.772122 0.109326,1.333608 0.121919,1.345966 0.01188,0.01166 0.367562,0.06885 0.790393,0.127073 l 0.768786,0.105866 1.098994,-0.327015 c 0.886176,-0.263691 1.105823,-0.322618 1.134258,-0.304304 0.0194,0.0125 0.507705,0.521536 1.085132,1.131207 0.577427,0.609667 1.079058,1.12937 1.114736,1.154891 0.03568,0.02552 0.207977,0.117134 0.382888,0.203585 l 0.318017,0.157179 0.424902,0.08012 c 0.277818,0.05238 0.53647,0.08756 0.747202,0.101645 l 0.322296,0.02153 0.288322,-0.06156 c 0.568128,-0.12132 0.819111,-0.181557 0.919293,-0.220638 0.08053,-0.03141 0.13775,-0.07933 0.274109,-0.229542 0.09479,-0.104413 0.183289,-0.187311 0.196671,-0.184221 0.01338,0.0031 0.119014,0.112715 0.234739,0.243607 0.115725,0.130893 0.233309,0.254375 0.261294,0.274411 0.02799,0.02004 0.224766,0.09039 0.437284,0.15634 l 0.386393,0.119909 0.479855,0.04031 0.47985,0.0403 0.639027,-0.04039 0.63903,-0.04039 0.357113,-0.131011 c 0.196414,-0.07206 0.375433,-0.142653 0.397821,-0.156885 0.02239,-0.01423 0.141099,-0.107966 0.2638,-0.208298 0.122696,-0.100331 0.232845,-0.182417 0.244775,-0.182417 0.01193,0 0.06725,0.05935 0.122929,0.131883 0.136878,0.178308 0.199063,0.22266 0.525876,0.375039 0.199624,0.09308 0.376107,0.156958 0.610676,0.221039 0.300234,0.08201 0.367369,0.0929 0.746413,0.12098 l 0.416504,0.03085 0.392533,-0.06186 c 0.46988,-0.07405 1.043329,-0.230761 1.390302,-0.379938 0.216524,-0.09309 0.259072,-0.121027 0.517238,-0.339617 0.154717,-0.130999 0.291427,-0.238181 0.303794,-0.238181 0.01237,0 0.122933,0.09887 0.245691,0.219701 0.12276,0.120835 0.230421,0.219701 0.239249,0.219701 0.0088,0 0.0502,0.02181 0.09194,0.04847 0.04174,0.02666 0.218191,0.10294 0.392118,0.169502 0.273975,0.104856 0.374302,0.131736 0.750909,0.201182 0.239075,0.04409 0.491481,0.08016 0.560898,0.08016 0.06941,0 0.308544,-0.0271 0.53139,-0.06022 0.394263,-0.0586 0.414566,-0.06397 0.753731,-0.199306 0.565629,-0.225703 0.790269,-0.33814 1.012503,-0.506781 0.110484,-0.08384 0.210534,-0.152439 0.222335,-0.152439 0.01181,0 0.136739,0.1101 0.27764,0.244666 0.235465,0.224879 0.282951,0.259805 0.587088,0.431808 l 0.330903,0.187143 0.391462,0.09633 c 0.370026,0.09105 0.414603,0.09754 0.814035,0.118397 0.408599,0.02133 0.435515,0.02034 0.814157,-0.03015 0.682636,-0.09101 1.086718,-0.213652 1.319351,-0.400416 l 0.135774,-0.108999 0.781065,0.0053 0.781063,0.0053 0,0.539265 0,0.539265 -21.224749,0.005 c -18.4143207,0.0043 -21.2262341,0.0012 -21.2359489,-0.02363 z m 5.0602552,-3.945969 0.010177,-1.987291 0.4314,-0.280186 c 0.2372699,-0.1541 0.4366986,-0.28538 0.4431748,-0.291736 0.01443,-0.01415 -0.08688,-3.250228 -0.1025305,-3.275077 -0.015505,-0.02462 -3.1577086,-0.02333 -3.1732215,0.0012 -0.016174,0.02567 -0.3791382,7.790977 -0.3651995,7.813105 0.00614,0.0098 0.6140559,0.01519 1.3785067,0.01231 l 1.3675159,-0.0052 0.010177,-1.987294 z M 8.8352237,12.056605 C 8.8495753,12.033819 8.748493,7.3835116 8.7331154,7.3590962 8.7183283,7.3356171 6.1860528,7.335688 6.1712647,7.3591602 6.1558278,7.3836695 6.0547531,12.033657 6.0691595,12.05653 c 0.015423,0.02449 2.7506427,0.02455 2.7660642,6.5e-5 z m -1.4440729,-6.5627453 0,-0.6391293 -0.3154867,0 -0.3154868,0 -0.00539,0.6189617 c -0.00296,0.340429 -8.689e-4,0.6305192 0.00466,0.6446451 0.00771,0.01972 0.082222,0.024403 0.3208764,0.020167 l 0.3108327,-0.00552 0,-0.6391296 z m 0.9566371,0 0,-0.6391293 -0.3154866,0 -0.3154867,0 -0.00539,0.6189617 c -0.00296,0.340429 -8.689e-4,0.6305192 0.00466,0.6446451 0.00771,0.01972 0.082222,0.024403 0.3208762,0.020167 l 0.3108328,-0.00552 0,-0.6391296 z" />
  <path
     inkscape:connector-curvature="0"
     id="text1331"
     style="font-size:376.64926147px;font-style:normal;font-variant:normal;font-weight:normal;font-stretch:normal;text-align:center;line-height:100%;writing-mode:lr-tb;text-anchor:middle;fill:#000000;fill-opacity:1;stroke:none;font-family:Roadgeek 2005 Series E"
     d="m 38.206383,14.499558 c -1.6e-5,1.322465 -0.167416,2.527741 -0.5022,3.615833 -0.318073,1.071362 -0.778422,1.992059 -1.381047,2.762095 -0.602653,0.77004 -1.339211,1.372677 -2.209675,1.807915 -0.853749,0.4185 -1.816298,0.627749 -2.887644,0.627749 -1.238767,0 -2.310122,-0.251098 -3.214075,-0.753298 -0.887222,-0.518938 -1.62378,-1.188536 -2.209676,-2.008796 -0.585902,-0.836995 -1.02114,-1.774432 -1.305717,-2.812314 -0.26784,-1.054612 -0.40176,-2.109229 -0.401758,-3.163854 -2e-6,-1.339187 0.159027,-2.544464 0.477089,-3.615833 0.334795,-1.0713445 0.811884,-1.9836718 1.431266,-2.7369844 0.619376,-0.753283 1.364302,-1.3308112 2.234787,-1.7325865 0.887211,-0.4017424 1.883237,-0.6026217 2.988084,-0.6026388 1.037866,1.71e-5 1.983675,0.2092664 2.837424,0.6277488 0.853724,0.4185151 1.590282,1.0044135 2.209675,1.7576965 0.619365,0.7533124 1.096454,1.6656396 1.431267,2.7369844 0.334784,1.054629 0.502184,2.218056 0.5022,3.490283 m -3.013195,0.07533 c -1.2e-5,-1.774426 -0.34318,-3.163842 -1.029507,-4.168252 -0.686351,-1.0043842 -1.665638,-1.5065826 -2.937864,-1.5065968 -1.272247,1.42e-5 -2.268273,0.5022126 -2.988084,1.5065968 -0.719825,1.00441 -1.079733,2.393826 -1.079729,4.168252 -4e-6,1.807923 0.359904,3.214079 1.079729,4.218472 0.719811,1.004401 1.715837,1.506599 2.988084,1.506597 0.803509,2e-6 1.456366,-0.175767 1.958575,-0.527309 0.518927,-0.351536 0.920687,-0.803515 1.205278,-1.355938 0.301307,-0.552413 0.510555,-1.163421 0.627749,-1.833026 0.117166,-0.686331 0.175757,-1.355929 0.175769,-2.008796" />
  <path
     inkscape:connector-curvature="0"
     id="text1335"
     style="font-size:212.95323181px;font-style:normal;font-variant:normal;font-weight:normal;font-stretch:normal;text-align:center;line-height:100%;writing-mode:lr-tb;text-anchor:middle;fill:#000000;fill-opacity:1;stroke:none;font-family:Roadgeek 2005 Series E"
     d="m 10.954849,40.418144 c -5e-6,0.123042 -0.01657,0.246082 -0.04969,0.369117 -0.03313,0.123043 -0.08282,0.238985 -0.149068,0.347825 -0.06152,0.108844 -0.13724,0.210589 -0.227149,0.305233 -0.08992,0.08992 -0.191662,0.165631 -0.305233,0.227149 -0.137241,0.07572 -0.2697446,0.125409 -0.3975132,0.149067 -0.1230427,0.02366 -0.274476,0.03549 -0.4543002,0.03549 l -1.3558021,0 0,1.866889 -0.8660097,0 0,-4.755955 2.2218118,0 c 0.1798242,6e-6 0.3312575,0.0142 0.4543002,0.04259 0.1277686,0.0284 0.2602722,0.08045 0.3975132,0.156166 0.227146,0.123045 0.404606,0.295774 0.532382,0.518187 0.1325,0.22242 0.198752,0.4685 0.198757,0.738238 m -0.851813,0 c -3e-6,-0.184558 -0.06389,-0.331258 -0.1916579,-0.440105 C 9.783603,39.869201 9.6132406,39.814779 9.4002904,39.814775 l -1.3841959,0 0,1.18544 1.3841959,0 c 0.2129502,2e-6 0.3833126,-0.05205 0.5110877,-0.156165 0.1277689,-0.10884 0.1916549,-0.250809 0.1916579,-0.425906 m 5.156573,3.300773 -0.468497,-1.121554 -2.072745,0 -0.461398,1.121554 -0.936994,0 2.00176,-4.755955 0.86601,0 1.987563,4.755955 -0.915699,0 m -1.504869,-3.570516 -0.667254,1.604249 1.334507,0 -0.667253,-1.604249 m 6.12795,3.570516 -0.766631,-1.866889 -1.270621,0 0,1.866889 -0.851813,0 0,-4.755955 2.18632,0 c 0.175092,6e-6 0.324159,0.0142 0.447201,0.04259 0.123037,0.0284 0.246076,0.08045 0.369119,0.156166 0.227147,0.123045 0.406973,0.295774 0.539482,0.518187 0.1325,0.22242 0.198752,0.4685 0.198756,0.738238 -4e-6,0.269742 -0.06862,0.515822 -0.205855,0.738237 -0.132508,0.217687 -0.3218,0.392783 -0.567875,0.525285 l 0.873108,2.037251 -0.951191,0 m 0,-3.300773 c -3e-6,-0.184558 -0.06152,-0.331258 -0.184559,-0.440105 -0.123043,-0.108838 -0.291039,-0.16326 -0.503989,-0.163264 l -1.348704,0 0,1.18544 1.348704,0 c 0.21295,2e-6 0.380946,-0.05205 0.503989,-0.156165 0.123036,-0.10884 0.184556,-0.250809 0.184559,-0.425906 m 4.875076,3.300773 -1.213833,-2.470256 -0.901502,1.135749 0,1.334507 -0.851813,0 0,-4.755955 0.851813,0 0,2.072746 1.682329,-2.072746 1.10026,0 -1.263522,1.554559 1.568755,3.201396 -0.972487,0 m 5.487871,0 -0.901502,0 -0.766631,-3.1872 -0.752436,3.1872 -0.901502,0 -0.866009,-4.755955 0.880207,0 0.518184,3.073626 0.702747,-3.073626 0.851813,0 0.73114,3.073626 0.489791,-3.073626 0.866011,0 -0.851813,4.755955 m 5.158568,0 -0.468497,-1.121554 -2.072745,0 -0.461397,1.121554 -0.936996,0 2.001762,-4.755955 0.866009,0 1.987564,4.755955 -0.9157,0 m -1.504868,-3.570516 -0.667254,1.604249 1.334507,0 -0.667253,-1.604249 m 5.659452,1.632642 0,1.937874 -0.851811,0 0,-1.937874 -2.001762,-2.818081 1.050571,0 1.384196,1.937875 1.369997,-1.937875 1.050571,0 -2.001762,2.818081" />
  <path
     inkscape:connector-curvature="0"
     id="text1339"
     style="font-size:212.95323181px;font-style:normal;font-variant:normal;font-weight:normal;font-stretch:normal;text-align:center;line-height:100%;writing-mode:lr-tb;text-anchor:middle;fill:#000000;fill-opacity:1;stroke:none;font-family:Roadgeek 2005 Series E"
     d="m 16.321103,33.04588 c -4e-6,0.373853 -0.04733,0.714578 -0.141969,1.022175 -0.08992,0.302869 -0.220055,0.563145 -0.390414,0.780829 -0.170366,0.217687 -0.378587,0.388049 -0.624662,0.511089 -0.241351,0.118307 -0.513457,0.17746 -0.816321,0.17746 -0.350192,0 -0.653058,-0.07098 -0.9086,-0.212953 -0.250813,-0.1467 -0.459034,-0.335994 -0.624663,-0.567876 -0.165631,-0.236613 -0.288671,-0.501622 -0.369119,-0.795024 -0.07572,-0.298133 -0.113576,-0.596267 -0.113575,-0.894405 -1e-6,-0.378579 0.04496,-0.719304 0.13487,-1.022175 0.09464,-0.302862 0.229516,-0.560773 0.404611,-0.773729 0.175094,-0.212949 0.385681,-0.376213 0.631761,-0.489793 0.25081,-0.113571 0.532381,-0.170358 0.844715,-0.170362 0.293399,4e-6 0.560774,0.05916 0.802124,0.17746 0.241343,0.118313 0.449564,0.283942 0.624662,0.496891 0.175091,0.212958 0.309961,0.470866 0.404611,0.773731 0.09464,0.298138 0.141965,0.627031 0.141969,0.986682 m -0.851813,0.0213 c -3e-6,-0.501619 -0.09702,-0.894399 -0.291036,-1.178339 -0.194027,-0.283936 -0.470866,-0.425905 -0.830517,-0.425907 -0.359657,2e-6 -0.641228,0.141971 -0.844715,0.425907 -0.20349,0.28394 -0.305234,0.67672 -0.305232,1.178339 -2e-6,0.511089 0.101742,0.908603 0.305232,1.192538 0.203487,0.28394 0.485058,0.425909 0.844715,0.425907 0.227147,2e-6 0.411707,-0.04969 0.553678,-0.149067 0.146698,-0.09938 0.260273,-0.227149 0.340725,-0.383315 0.08518,-0.156165 0.144332,-0.328894 0.177461,-0.518187 0.03312,-0.194022 0.04969,-0.383313 0.04969,-0.567876 m 5.652577,1.419689 c -0.08519,0.165631 -0.194028,0.314698 -0.326528,0.447202 -0.132508,0.127771 -0.279209,0.236614 -0.440103,0.326527 -0.15617,0.08992 -0.326532,0.158533 -0.511088,0.205856 -0.184562,0.04732 -0.371488,0.07098 -0.560777,0.07098 -0.312333,0 -0.593905,-0.05915 -0.844714,-0.17746 -0.246081,-0.118309 -0.456668,-0.283938 -0.631761,-0.496891 -0.175096,-0.217684 -0.309966,-0.477962 -0.404612,-0.780829 -0.08991,-0.307598 -0.13487,-0.645955 -0.13487,-1.015078 0,-0.373848 0.04496,-0.712206 0.13487,-1.015077 0.09465,-0.302862 0.229516,-0.560771 0.404612,-0.773729 0.175093,-0.212949 0.38568,-0.376213 0.631761,-0.489793 0.250809,-0.118303 0.532381,-0.177456 0.844714,-0.17746 0.383313,4e-6 0.738235,0.09228 1.064766,0.27684 0.331257,0.179831 0.589166,0.43774 0.77373,0.773729 l -0.752435,0.404611 c -0.06625,-0.09938 -0.123043,-0.172725 -0.170362,-0.220052 -0.04259,-0.04732 -0.09701,-0.09227 -0.163264,-0.134871 -0.09465,-0.07571 -0.212956,-0.134866 -0.354922,-0.17746 -0.13724,-0.04732 -0.269743,-0.07098 -0.397513,-0.07098 -0.217688,2e-6 -0.399881,0.04969 -0.54658,0.149067 -0.146703,0.09465 -0.26501,0.217688 -0.354922,0.369117 -0.08991,0.151438 -0.153801,0.3218 -0.191658,0.511089 -0.03786,0.184562 -0.05679,0.369122 -0.05679,0.553678 -2e-6,0.520555 0.101743,0.925164 0.305233,1.213833 0.203486,0.28394 0.485058,0.425909 0.844714,0.425907 0.10884,2e-6 0.205852,-0.0095 0.291036,-0.02839 0.08991,-0.02366 0.175092,-0.05679 0.255544,-0.09938 0.08518,-0.04732 0.170359,-0.108843 0.255544,-0.18456 0.08518,-0.08045 0.179824,-0.17746 0.283937,-0.291036 l 0.752435,0.404611 0,0 m 1.091607,0.965387 0,-4.755955 3.471137,0 0,0.851813 -2.605127,0 0,0.880207 1.419687,0 0,0.873108 -1.419687,0 0,1.299016 2.690309,0 0,0.851811 -3.556319,0 m 8.012474,0 -0.468495,-1.121553 -2.072745,0 -0.4614,1.121553 -0.936993,0 2.00176,-4.755955 0.866009,0 1.987564,4.755955 -0.9157,0 m -1.504869,-3.570515 -0.667253,1.604248 1.334507,0 -0.667254,-1.604248 m 6.340904,3.570515 -2.264402,-3.27238 0,3.27238 -0.837615,0 0,-4.755955 0.837615,0 2.179222,3.137511 0,-3.137511 0.823418,0 0,4.755955 -0.738238,0" />
</svg>
