<?xml version="1.0" encoding="UTF-8" standalone="no"?>
<!-- Created with Inkscape (http://www.inkscape.org/) -->

<svg
   xmlns:dc="http://purl.org/dc/elements/1.1/"
   xmlns:cc="http://creativecommons.org/ns#"
   xmlns:rdf="http://www.w3.org/1999/02/22-rdf-syntax-ns#"
   xmlns:svg="http://www.w3.org/2000/svg"
   xmlns="http://www.w3.org/2000/svg"
   xmlns:sodipodi="http://sodipodi.sourceforge.net/DTD/sodipodi-0.dtd"
   xmlns:inkscape="http://www.inkscape.org/namespaces/inkscape"
   version="1.0"
   width="60"
   height="48"
   id="svg2"
   inkscape:version="0.48.1 r9760"
   sodipodi:docname="US:NY-PP.svg">
  <metadata
     id="metadata3232">
    <rdf:RDF>
      <cc:Work
         rdf:about="">
        <dc:format>image/svg+xml</dc:format>
        <dc:type
           rdf:resource="http://purl.org/dc/dcmitype/StillImage" />
      </cc:Work>
    </rdf:RDF>
  </metadata>
  <sodipodi:namedview
     pagecolor="#ffffff"
     bordercolor="#666666"
     borderopacity="1"
     objecttolerance="10"
     gridtolerance="10"
     guidetolerance="10"
     inkscape:pageopacity="0"
     inkscape:pageshadow="2"
     inkscape:window-width="1278"
     inkscape:window-height="996"
     id="namedview3230"
     showgrid="true"
     inkscape:showpageshadow="false"
     inkscape:zoom="16.895833"
     inkscape:cx="30"
     inkscape:cy="24"
     inkscape:window-x="1"
     inkscape:window-y="27"
     inkscape:window-maximized="0"
     inkscape:current-layer="svg2">
    <inkscape:grid
       type="xygrid"
       id="grid3570"
       empspacing="5"
       visible="true"
       enabled="true"
       snapvisiblegridlinesonly="true" />
  </sodipodi:namedview>
  <defs
     id="defs4" />
  <path
     d="M 30.000001,1 C 25.066839,1 20.829935,1.7378811 16.238914,4.4269079 11.664806,7.1061184 7.2054516,8.5247819 1,8.5247819 L 1,35.649914 c 0,2.409739 0.00463,2.410773 1.5635115,3.629207 C 5.2873318,41.408537 30.000001,47 30.000001,47 c 0,0 24.712664,-5.591463 27.436491,-7.720879 C 58.995376,38.060687 59,38.059653 59,35.649914 L 59,8.5247819 c -6.205453,0 -10.664811,-1.4186635 -15.238913,-4.097874 C 39.170069,1.7378811 34.933165,1 30.000001,1 z"
     id="rect4804"
     style="fill:#006b54;stroke:none"
     inkscape:connector-curvature="0" />
  <path
     d="m 29.049288,29.408413 c -1.1e-5,0.642804 -0.152974,1.240911 -0.45883,1.795097 -0.305893,0.543076 -0.72102,0.958521 -1.245388,1.246595 -0.163888,0.08784 -0.322278,0.167935 -0.475212,0.235109 -0.142012,0.05683 -0.294968,0.100756 -0.45883,0.134349 -0.152976,0.03358 -0.32774,0.062 -0.524375,0.08267 -0.18571,0 -0.404209,0.02584 -0.655468,0.02584 l -2.88406,0 0,4.189075 -2.163046,0 0,-11.1713 5.161815,0 c 0.458819,0 0.830252,0.03358 1.114292,0.100756 0.284032,0.06717 0.578992,0.188604 0.884884,0.365839 0.524368,0.310293 0.939495,0.731681 1.245388,1.263648 0.305879,0.531966 0.458819,1.113796 0.45883,1.745491 m -2.163044,0 c -7e-6,-0.35473 -0.1311,-0.648488 -0.393282,-0.881271 C 26.2417,28.294867 25.908497,28.17473 25.493371,28.17473 l -3.146246,0 0,2.526519 3.146246,0 c 0.426048,0 0.764708,-0.116263 1.015977,-0.349047 0.251235,-0.235109 0.376889,-0.542819 0.376896,-0.930619"
     id="text2229"
     style="fill:#ffffff;stroke:none"
     inkscape:connector-curvature="0" />
  <path
     d="m 34.966487,31.514578 1.486383,3.758387 -1.486383,0 -0.972702,-2.505592 -0.852485,0.864736 0,1.640856 -1.464524,0 0,-6.984808 1.464524,-0.576405 0,3.68062 1.541031,-1.518907 1.825186,0 -1.54103,1.641113 m 8.879359,3.758387 -1.409876,0 -0.666687,-2.683087 -0.852486,2.683087 -1.409877,0 -1.54103,-5.421461 1.486381,0 0.754125,2.583358 0.74319,-2.583358 1.595673,0 0.633902,2.54977 0.721328,-2.54977 1.519173,0 -1.573816,5.421461 m 6.0082,2.084462 -1.464525,0 0.874347,-2.161971 -2.524671,-5.343952 1.672184,0 1.464522,3.592259 1.464525,-3.592259 1.541029,0 -3.027411,7.505923"
     id="text3116"
     style="fill:#ffffff;stroke:none"
     inkscape:connector-curvature="0" />
  <path
     d="m 16.627629,14.124771 c -1.1e-5,0.643321 -0.153159,1.242462 -0.459444,1.797423 -0.306308,0.543852 -0.721996,0.960071 -1.247067,1.248403 -0.164098,0.09043 -0.322715,0.167936 -0.475855,0.23511 -0.142217,0.05684 -0.295366,0.100756 -0.459446,0.134347 -0.153155,0.03358 -0.328183,0.062 -0.52508,0.08268 -0.185973,0 -0.404757,0.02584 -0.656351,0.02584 l -2.887943,0 0,4.195018 -2.1659571,0 0,-11.186024 5.1687611,0 c 0.459438,0 0.831372,0.03358 1.115796,0.100756 0.284411,0.06717 0.579768,0.188604 0.886075,0.366357 0.525071,0.31081 0.940759,0.732454 1.247067,1.265197 0.306284,0.532483 0.459433,1.115089 0.459444,1.747816 m -2.165956,0 c -9e-6,-0.355248 -0.131278,-0.649263 -0.393811,-0.882304 -0.251611,-0.242861 -0.585254,-0.366099 -1.000936,-0.366099 l -3.1504831,0 0,2.529619 3.1504831,0 c 0.426621,0 0.765735,-0.116263 1.017344,-0.349306 0.251594,-0.235108 0.377394,-0.543593 0.377403,-0.93191"
     id="text2318"
     style="fill:#ffffff;stroke:none"
     inkscape:connector-curvature="0" />
  <path
     d="m 19.653242,17.718323 c 0.0794,0.307708 0.216537,0.549278 0.411432,0.724963 0.194883,0.167934 0.407817,0.253194 0.638799,0.253194 0.303156,0 0.573835,-0.165352 0.812035,-0.494245 l 0.996098,0.878687 c -0.274293,0.329412 -0.555799,0.567362 -0.844518,0.713853 -0.288727,0.147266 -0.609932,0.222191 -0.963615,0.222191 -0.339253,0 -0.660456,-0.06976 -0.963613,-0.209273 -0.303164,-0.147266 -0.570232,-0.344396 -0.80121,-0.593198 -0.230978,-0.248027 -0.415041,-0.542042 -0.552183,-0.878946 -0.137143,-0.344137 -0.205716,-0.713854 -0.205714,-1.109146 -1e-6,-0.38806 0.06496,-0.750541 0.194885,-1.087445 0.137142,-0.336904 0.317597,-0.629626 0.541358,-0.878688 0.223758,-0.258361 0.483609,-0.457816 0.779553,-0.60379 0.295939,-0.147267 0.606317,-0.217025 0.931133,-0.217025 0.433082,0 0.830076,0.129183 1.190985,0.384184 0.368118,0.250612 0.649623,0.585707 0.844516,1.010453 0.101045,0.250611 0.176837,0.508713 0.227373,0.779735 0.05052,0.263529 0.07579,0.563745 0.07579,0.90065 l 0,0.209272 -3.313103,0 m 1.808131,-1.219209 c -0.101055,-0.270762 -0.216545,-0.461175 -0.346468,-0.571238 -0.122709,-0.118846 -0.285118,-0.175685 -0.487222,-0.175685 -0.194893,0 -0.375343,0.06717 -0.541356,0.198937 -0.158801,0.124015 -0.277898,0.307711 -0.357295,0.549278 l 1.732341,0 0,0 m 3.745004,3.437759 0,-6.91944 1.450838,-0.57098 0,7.49042 -1.450838,0 m 7.712642,0 0,-3.229003 c -5e-6,-0.25061 -0.07939,-0.457815 -0.238211,-0.62601 -0.158826,-0.170518 -0.357298,-0.25061 -0.595492,-0.25061 -0.12993,0 -0.259855,0.02584 -0.389778,0.06717 -0.122704,0.04392 -0.234599,0.105926 -0.335641,0.188604 -0.101054,0.07492 -0.184083,0.162767 -0.249022,0.263269 -0.06497,0.09559 -0.09747,0.198939 -0.09747,0.307711 l 0,3.284033 -1.450837,0 0,-6.919442 1.450837,-0.570978 0,2.405088 c 0.303153,-0.170519 0.559398,-0.281613 0.768726,-0.340264 0.209316,-0.06717 0.436689,-0.100756 0.682105,-0.100756 0.259851,0 0.501657,0.04908 0.725424,0.144684 0.230989,0.0956 0.433079,0.22219 0.606319,0.384183 0.173221,0.162769 0.30676,0.351371 0.400603,0.570979 0.101054,0.219607 0.15155,0.4542 0.151576,0.70326 l 0,3.723249 -1.429179,0 m 7.091092,0 0,-0.175684 c -0.252636,0.103341 -0.49805,0.167934 -0.736245,0.198937 -0.238212,0.03617 -0.458349,0.05426 -0.660454,0.05426 -0.295945,0 -0.566622,-0.04392 -0.812035,-0.131764 -0.245437,-0.08784 -0.458349,-0.211856 -0.638802,-0.373333 -0.180446,-0.162768 -0.321207,-0.351631 -0.422255,-0.571237 -0.09384,-0.227359 -0.140765,-0.472544 -0.140765,-0.735815 0,-0.278254 0.05416,-0.53455 0.162411,-0.768885 0.115507,-0.235108 0.270682,-0.435855 0.465565,-0.604306 0.194894,-0.175687 0.42587,-0.311069 0.692939,-0.406146 0.267068,-0.103341 0.555791,-0.155016 0.866171,-0.155016 0.15155,0 0.33925,0.02584 0.563012,0.04392 0.223764,0.02842 0.443909,0.08526 0.660453,0.165352 -0.0145,-0.255778 -0.108258,-0.439216 -0.281502,-0.54902 -0.173272,-0.118846 -0.393392,-0.175685 -0.660458,-0.175685 -0.505268,0 -1.006926,0.139516 -1.504974,0.417512 l -0.530524,-1.164436 c 0.194893,-0.103341 0.375336,-0.191189 0.541356,-0.263786 0.173247,-0.07234 0.339243,-0.131765 0.498044,-0.175686 0.165998,-0.04392 0.328423,-0.0775 0.487225,-0.09818 0.1588,-0.02584 0.328418,-0.03358 0.508873,-0.03358 0.72902,0 1.295641,0.183437 1.69986,0.548761 0.411427,0.358864 0.617141,0.915118 0.617146,1.669534 l 0,3.284034 -1.375046,0 m 0,-2.16352 c -0.216566,-0.08009 -0.440304,-0.139515 -0.67128,-0.175687 -0.223764,-0.04392 -0.407827,-0.06717 -0.552185,-0.06717 -0.230987,0 -0.425868,0.05942 -0.584663,0.17569 -0.151576,0.111095 -0.227376,0.248027 -0.22735,0.417253 -3e-6,0.170519 0.09384,0.315202 0.281502,0.439474 0.18767,0.124013 0.407821,0.188604 0.660454,0.188604 0.15155,0 0.317592,-0.02584 0.498047,-0.05426 0.187671,-0.03617 0.386165,-0.113679 0.595492,-0.232525 l 0,-0.691633 m 10.810218,2.163519 0,-3.229007 c -8e-6,-0.124013 -0.02518,-0.237692 -0.0758,-0.34052 -0.05056,-0.111095 -0.11912,-0.206689 -0.205731,-0.285489 -0.08664,-0.0801 -0.187695,-0.144683 -0.30316,-0.188603 -0.108258,-0.04392 -0.227403,-0.06718 -0.357297,-0.06718 -0.122704,0 -0.238211,0.02584 -0.346466,0.0775 -0.108258,0.04392 -0.205729,0.105927 -0.292336,0.188604 -0.07942,0.07234 -0.144378,0.162767 -0.194894,0.263787 -0.05054,0.0956 -0.0758,0.196356 -0.0758,0.296599 l 0,3.284037 -1.375047,0 0,-3.229007 c -4e-6,-0.25061 -0.09022,-0.457815 -0.270679,-0.62601 -0.180472,-0.170518 -0.397001,-0.25061 -0.649623,-0.25061 -0.12993,0 -0.252636,0.02584 -0.36813,0.06717 -0.108256,0.04392 -0.205729,0.105926 -0.292329,0.188604 -0.08661,0.07492 -0.155215,0.165352 -0.205731,0.274639 -0.05054,0.103341 -0.0758,0.211856 -0.0758,0.32941 l 0,3.251225 -1.450836,0 0,-5.370565 1.450836,0 0,0.285231 c 0.252634,-0.155018 0.480002,-0.259911 0.682107,-0.318559 0.209316,-0.06717 0.440297,-0.09818 0.69294,-0.09818 0.548571,0 1.014134,0.209274 1.396698,0.626011 0.173222,-0.124013 0.324808,-0.227358 0.454743,-0.307709 0.137127,-0.0801 0.267061,-0.142099 0.389774,-0.188603 0.122705,-0.05167 0.245436,-0.08526 0.368124,-0.09818 0.129904,-0.02584 0.270666,-0.03358 0.422253,-0.03358 0.281499,0 0.548569,0.04651 0.801212,0.142099 0.252608,0.08784 0.476383,0.211856 0.67128,0.373074 0.194895,0.162769 0.350071,0.355247 0.465566,0.582347 0.115481,0.219607 0.173222,0.457559 0.173222,0.713854 l 0,3.690439 -1.429182,0"
     id="text3195"
     style="fill:#ffffff;stroke:none"
     inkscape:connector-curvature="0" />
</svg>
