<?xml version="1.0" encoding="UTF-8" standalone="no"?>
<!-- Created with Inkscape (http://www.inkscape.org/) -->

<svg
   xmlns:dc="http://purl.org/dc/elements/1.1/"
   xmlns:cc="http://creativecommons.org/ns#"
   xmlns:rdf="http://www.w3.org/1999/02/22-rdf-syntax-ns#"
   xmlns:svg="http://www.w3.org/2000/svg"
   xmlns="http://www.w3.org/2000/svg"
   xmlns:sodipodi="http://sodipodi.sourceforge.net/DTD/sodipodi-0.dtd"
   xmlns:inkscape="http://www.inkscape.org/namespaces/inkscape"
   version="1.0"
   width="60"
   height="48"
   id="svg2"
   inkscape:version="0.48.1 r9760"
   sodipodi:docname="US:NY-BMP.svg">
  <metadata
     id="metadata2995">
    <rdf:RDF>
      <cc:Work
         rdf:about="">
        <dc:format>image/svg+xml</dc:format>
        <dc:type
           rdf:resource="http://purl.org/dc/dcmitype/StillImage" />
      </cc:Work>
    </rdf:RDF>
  </metadata>
  <sodipodi:namedview
     pagecolor="#ffffff"
     bordercolor="#666666"
     borderopacity="1"
     objecttolerance="10"
     gridtolerance="10"
     guidetolerance="10"
     inkscape:pageopacity="0"
     inkscape:pageshadow="2"
     inkscape:window-width="1278"
     inkscape:window-height="996"
     id="namedview2993"
     showgrid="true"
     inkscape:showpageshadow="false"
     inkscape:zoom="16.895833"
     inkscape:cx="30"
     inkscape:cy="24"
     inkscape:window-x="1"
     inkscape:window-y="27"
     inkscape:window-maximized="0"
     inkscape:current-layer="svg2">
    <inkscape:grid
       type="xygrid"
       id="grid3677"
       empspacing="5"
       visible="true"
       enabled="true"
       snapvisiblegridlinesonly="true" />
  </sodipodi:namedview>
  <defs
     id="defs4" />
  <path
     d="M 29.999997,1 C 25.066835,1 20.829935,1.737881 16.238913,4.426909 11.664806,7.106119 7.2054515,8.524783 1,8.524783 L 1,35.649914 C 1,38.059653 1.00463,38.060687 2.5635114,39.27912 5.2873319,41.408537 29.999997,47 29.999997,47 c 0,0 24.712669,-5.591463 27.436495,-7.72088 C 58.995376,38.060687 59,38.059653 59,35.649914 L 59,8.524783 c -6.205451,0 -10.66481,-1.418664 -15.238914,-4.097874 C 39.170064,1.737881 34.933162,1 29.999997,1 z"
     id="rect4804"
     style="fill:#006b54;stroke:none"
     inkscape:connector-curvature="0" />
  <path
     d="m 18.144698,14.903991 c -8e-6,0.476935 -0.115456,0.919509 -0.346344,1.327462 -0.22235,0.39891 -0.530212,0.711269 -0.923583,0.936819 -0.401936,0.227358 -0.825245,0.338195 -1.269927,0.338195 l -0.384826,0 -4.01502,0 0,-8.744508 4.01502,0 c 0.188136,0 0.346338,0 0.474619,0.02584 0.13682,0 0.260821,0.02584 0.371999,0.05167 0.11117,0.02584 0.213785,0.06201 0.307861,0.105928 0.102616,0.04392 0.20951,0.100761 0.320689,0.170519 0.359164,0.201522 0.645645,0.490112 0.859445,0.871712 0.213783,0.373332 0.320681,0.772243 0.320688,1.197506 -7e-6,0.667865 -0.230901,1.231868 -0.692687,1.691752 0.64137,0.537909 0.962058,1.21895 0.962066,2.042866 m -1.962614,-3.734618 c -6e-6,-0.442574 -0.260833,-0.663731 -0.78248,-0.663731 l -2.501371,0 0,1.496689 2.34744,0 c 0.273649,0 0.495993,-0.07751 0.667032,-0.235109 0.179582,-0.165352 0.269373,-0.364032 0.269379,-0.598366 m 0.269379,3.734618 c -7e-6,-0.217024 -0.05132,-0.420613 -0.153931,-0.611542 -0.09408,-0.191188 -0.235178,-0.334062 -0.423309,-0.429397 -0.09407,-0.04392 -0.192416,-0.07493 -0.295034,-0.09043 -0.09407,-0.02584 -0.213795,-0.02584 -0.359171,-0.02584 l -2.321785,0 0,2.016771 2.565508,0 c 0.316408,0 0.56013,-0.07751 0.73117,-0.235109 0.171027,-0.157601 0.256545,-0.36429 0.256552,-0.62446"
     id="text1352"
     style="fill:#ffffff;stroke:none"
     inkscape:connector-curvature="0" />
  <path
     d="m 23.791753,29.442001 0,-4.736803 -2.296131,4.736803 -2.34744,-4.736803 0,4.736803 -1.693236,0 0,-8.744509 1.693236,0 2.34744,4.801651 2.296131,-4.801651 1.680409,0 0,8.744509 -1.680409,0"
     id="text2229"
     style="fill:#ffffff;stroke:none"
     inkscape:connector-curvature="0" />
  <path
     d="m 31.177864,35.282782 c -8e-6,0.503289 -0.119729,0.971699 -0.35917,1.405488 -0.239484,0.425005 -0.564419,0.75054 -0.974894,0.97609 -0.128276,0.06976 -0.252278,0.131765 -0.371997,0.183437 -0.111208,0.04392 -0.230912,0.07751 -0.359175,0.105928 -0.11973,0.02584 -0.256552,0.04651 -0.410478,0.06459 -0.145395,0 -0.316419,0.02584 -0.513104,0.02584 l -2.257647,0 0,3.278867 -1.693234,0 0,-8.744507 4.040674,0 c 0.35917,0 0.649926,0.02584 0.872274,0.07751 0.222365,0.05167 0.453234,0.147267 0.692687,0.286265 0.410475,0.24286 0.735438,0.57253 0.974894,0.989008 0.239459,0.416479 0.359162,0.871971 0.35917,1.366475 m -1.693231,0 c -8e-6,-0.277743 -0.102636,-0.507685 -0.307862,-0.689572 -0.196726,-0.191187 -0.457523,-0.286264 -0.782483,-0.286264 l -2.462889,0 0,1.977758 2.462889,0 c 0.333509,0 0.598613,-0.09043 0.795308,-0.273088 0.196699,-0.183437 0.295029,-0.425264 0.295037,-0.728839"
     id="text2233"
     style="fill:#ffffff;stroke:none"
     inkscape:connector-curvature="0" />
  <path
     d="m 21.014037,14.293999 c 0.06274,0.24286 0.171108,0.433789 0.325107,0.572529 0.153998,0.134348 0.322253,0.201522 0.504772,0.201522 0.23955,0 0.453436,-0.131764 0.641659,-0.390384 l 0.787102,0.693959 c -0.216743,0.260429 -0.439183,0.448516 -0.667325,0.564262 -0.22815,0.116263 -0.481961,0.173102 -0.761436,0.173102 -0.268073,0 -0.521885,-0.05426 -0.761436,-0.165351 -0.239555,-0.116263 -0.450588,-0.272055 -0.633103,-0.468927 -0.182519,-0.196354 -0.32796,-0.428105 -0.436328,-0.694217 -0.10837,-0.271797 -0.162554,-0.564004 -0.162554,-0.876363 -10e-7,-0.306675 0.05133,-0.593198 0.153999,-0.859311 0.108367,-0.266112 0.250959,-0.497604 0.427774,-0.694218 0.176811,-0.204105 0.382141,-0.361706 0.615992,-0.47771 0.233847,-0.116263 0.479103,-0.175686 0.735769,-0.175686 0.342216,0 0.655915,0.100761 0.9411,0.303833 0.290882,0.198939 0.513324,0.462726 0.667326,0.798338 0.07984,0.198938 0.139735,0.402269 0.179662,0.61645 0.03993,0.209273 0.05988,0.445416 0.05989,0.711528 l 0,0.165352 -2.61797,0 m 1.428761,-0.963689 c -0.07985,-0.211857 -0.17111,-0.36429 -0.273775,-0.451099 -0.09697,-0.09301 -0.225298,-0.139516 -0.384995,-0.139516 -0.154002,0 -0.296591,0.05167 -0.427773,0.157601 -0.125483,0.09818 -0.219592,0.24286 -0.28233,0.433789 l 1.368873,0 0,0 m 5.132335,2.716414 0,-0.139515 c -0.199625,0.08268 -0.393553,0.134348 -0.581772,0.157601 -0.188229,0.02842 -0.362179,0.04392 -0.521879,0.04392 -0.233862,0 -0.447737,-0.03617 -0.641662,-0.103344 -0.193927,-0.06976 -0.362179,-0.167936 -0.50477,-0.295049 -0.142597,-0.129181 -0.253805,-0.277739 -0.333662,-0.4511 -0.07415,-0.180853 -0.111234,-0.373332 -0.111234,-0.581314 0,-0.222191 0.04278,-0.422679 0.128327,-0.607666 0.09124,-0.186021 0.213869,-0.344396 0.367884,-0.477453 0.154018,-0.139515 0.336511,-0.245443 0.547552,-0.320885 0.211021,-0.08268 0.439175,-0.12143 0.684433,-0.12143 0.11978,0 0.268067,0 0.444883,0.03617 0.176834,0.02584 0.350771,0.06717 0.521882,0.131764 -0.01145,-0.204105 -0.08554,-0.347238 -0.222442,-0.434047 -0.136898,-0.09301 -0.31085,-0.139515 -0.521881,-0.139515 -0.399258,0 -0.795659,0.111095 -1.189209,0.329927 l -0.419219,-0.920025 c 0.154017,-0.08268 0.296588,-0.14985 0.427771,-0.209273 0.136899,-0.05942 0.26807,-0.105929 0.393553,-0.139516 0.131175,-0.03617 0.259512,-0.06201 0.384995,-0.07751 0.125478,-0.02584 0.259518,-0.02584 0.402107,-0.02584 0.576064,0 1.023803,0.144682 1.343206,0.434047 0.325105,0.283423 0.487659,0.723154 0.487662,1.319195 l 0,2.594726 -1.086545,0 m 0,-1.709321 c -0.171111,-0.06459 -0.347922,-0.111095 -0.530436,-0.139515 -0.176834,-0.03617 -0.322259,-0.05167 -0.436329,-0.05167 -0.182531,0 -0.336516,0.0465 -0.461996,0.139515 -0.11978,0.08784 -0.179658,0.198938 -0.179658,0.329928 -2e-6,0.134348 0.07417,0.248027 0.222467,0.346979 0.148295,0.09818 0.322254,0.147267 0.521884,0.147267 0.11978,0 0.250956,-0.02584 0.39355,-0.04392 0.148294,-0.02842 0.30514,-0.09043 0.470551,-0.183437 l 0,-0.546435 m 5.847116,-1.163144 c -0.07985,-0.134348 -0.182532,-0.229942 -0.307994,-0.286523 -0.125478,-0.05942 -0.24241,-0.08784 -0.350771,-0.08784 -0.256672,0 -0.43348,0.07493 -0.530439,0.227358 -0.09129,0.152434 -0.136899,0.376175 -0.136899,0.676908 l 0,2.343082 -1.146432,0 0,-4.243849 1.146432,0 0,0.209273 c 0.142597,-0.116263 0.276627,-0.198938 0.402105,-0.24286 0.131175,-0.0465 0.27092,-0.06976 0.41922,-0.06976 0.171085,0 0.325103,0.02584 0.461994,0.06976 0.142596,0.04651 0.28518,0.129181 0.427772,0.24286 l -0.384998,1.162886"
     id="text2239"
     style="fill:#ffffff;stroke:none"
     inkscape:connector-curvature="0" />
  <path
     d="m 29.663906,24.787874 0,1.588407 c -3e-6,0.198939 0.03136,0.34698 0.09411,0.451358 0.06275,0.09818 0.199625,0.139515 0.410663,0.12143 0.148295,0 0.253805,-0.04134 0.316554,-0.08784 0.06845,-0.0465 0.151118,-0.12143 0.248107,-0.227358 l -0.299443,1.20629 c -0.09699,0.04134 -0.171111,0.07493 -0.222441,0.105929 -0.05133,0.02842 -0.09981,0.05167 -0.145446,0.06976 -0.03993,0.02584 -0.08839,0.02842 -0.145445,0.03617 -0.05133,0 -0.128327,0.02584 -0.231014,0.02584 -0.393555,0 -0.684441,-0.113679 -0.872657,-0.338454 -0.182532,-0.227358 -0.273775,-0.546693 -0.273775,-0.96343 l 0,-1.978792 -0.787102,0 0,-1.006835 0.787102,0 0,-1.24117 1.120764,-0.450841 0,1.6747 1.069434,0 0,1.024146 -1.069434,0 m 5.546341,3.220219 0,-2.552096 c -3e-6,-0.198938 -0.06275,-0.361448 -0.18823,-0.494763 -0.11978,-0.134348 -0.290891,-0.198938 -0.513332,-0.198938 -0.102662,0 -0.2025,0.02584 -0.29944,0.06201 -0.09127,0.03617 -0.176834,0.08526 -0.256662,0.147266 -0.07415,0.06459 -0.134049,0.136932 -0.179657,0.217024 -0.04561,0.08268 -0.06845,0.165351 -0.06845,0.253194 l 0,2.569149 -1.146433,0 0,-4.244366 1.146433,0 0,0.227359 c 0.193952,-0.12143 0.382141,-0.20669 0.56466,-0.253195 0.182532,-0.05167 0.370736,-0.07751 0.564661,-0.07751 0.216769,0 0.416366,0.03875 0.59888,0.113679 0.182532,0.06976 0.339362,0.167935 0.470553,0.295049 0.136874,0.129181 0.242409,0.280581 0.316549,0.459884 0.07984,0.173102 0.11978,0.361706 0.11978,0.564262 l 0,2.916386 -1.129321,0"
     id="text3116"
     style="fill:#ffffff;stroke:none"
     inkscape:connector-curvature="0" />
  <path
     d="m 34.771145,36.862147 1.163541,2.942223 -1.163541,0 -0.761437,-1.961482 -0.667324,0.676908 0,1.284574 -1.146432,0 0,-5.467966 1.146432,-0.4511 0,2.881508 1.20632,-1.188981 1.428758,0 -1.206317,1.284316 m 6.950774,2.942223 -1.103653,0 -0.521882,-2.100222 -0.667329,2.100222 -1.103651,0 -1.206322,-4.244107 1.163541,0 0.590328,2.022455 0.581769,-2.022455 1.249099,0 0.496214,1.99636 0.564663,-1.99636 1.189208,0 -1.231985,4.244107 m 4.703225,1.631554 -1.14643,0 0.684436,-1.692269 -1.976311,-4.183392 1.308986,0 1.146433,2.812008 1.146429,-2.812008 1.20632,0 -2.369863,5.875661"
     id="text3120"
     style="fill:#ffffff;stroke:none"
     inkscape:connector-curvature="0" />
</svg>
