<?xml version="1.0" encoding="UTF-8" standalone="no"?>
<!-- Created with Inkscape (http://www.inkscape.org/) -->

<svg
   xmlns:dc="http://purl.org/dc/elements/1.1/"
   xmlns:cc="http://creativecommons.org/ns#"
   xmlns:rdf="http://www.w3.org/1999/02/22-rdf-syntax-ns#"
   xmlns:svg="http://www.w3.org/2000/svg"
   xmlns="http://www.w3.org/2000/svg"
   xmlns:sodipodi="http://sodipodi.sourceforge.net/DTD/sodipodi-0.dtd"
   xmlns:inkscape="http://www.inkscape.org/namespaces/inkscape"
   version="1.0"
   width="60"
   height="48"
   id="svg2"
   inkscape:version="0.48.1 r9760"
   sodipodi:docname="US:NY-SBP.svg">
  <metadata
     id="metadata3278">
    <rdf:RDF>
      <cc:Work
         rdf:about="">
        <dc:format>image/svg+xml</dc:format>
        <dc:type
           rdf:resource="http://purl.org/dc/dcmitype/StillImage" />
      </cc:Work>
    </rdf:RDF>
  </metadata>
  <sodipodi:namedview
     pagecolor="#ffffff"
     bordercolor="#666666"
     borderopacity="1"
     objecttolerance="10"
     gridtolerance="10"
     guidetolerance="10"
     inkscape:pageopacity="0"
     inkscape:pageshadow="2"
     inkscape:window-width="1278"
     inkscape:window-height="996"
     id="namedview3276"
     showgrid="true"
     inkscape:showpageshadow="false"
     inkscape:zoom="16.895833"
     inkscape:cx="30"
     inkscape:cy="24"
     inkscape:window-x="1"
     inkscape:window-y="27"
     inkscape:window-maximized="0"
     inkscape:current-layer="svg2">
    <inkscape:grid
       type="xygrid"
       id="grid3546"
       empspacing="5"
       visible="true"
       enabled="true"
       snapvisiblegridlinesonly="true" />
  </sodipodi:namedview>
  <defs
     id="defs4" />
  <path
     d="M 30.000001,1 C 25.066836,1 20.829934,1.737881 16.238913,4.4269078 11.664805,7.1061184 7.2054516,8.524782 1,8.524782 l 0,27.125132 c 0,2.409739 0.00463,2.410773 1.5635113,3.629206 C 5.2873319,41.408538 30.000001,47 30.000001,47 c 0,0 24.712665,-5.591462 27.436491,-7.72088 C 58.995376,38.060687 59,38.059653 59,35.649914 L 59,8.524782 c -6.205452,0 -10.66481,-1.4186636 -15.238917,-4.0978742 C 39.170065,1.737881 34.933162,1 30.000001,1 z"
     id="rect4804"
     style="fill:#006b54;stroke:none"
     inkscape:connector-curvature="0" />
  <path
     d="m 16.327023,14.943003 c -8e-6,0.459883 -0.111178,0.893672 -0.333515,1.30111 -0.222352,0.399168 -0.521662,0.707394 -0.89793,0.924159 -0.256556,0.157601 -0.590072,0.277738 -1.000548,0.36429 -0.410486,0.08784 -0.820967,0.131763 -1.231445,0.131763 -0.487449,0 -0.957792,-0.06459 -1.411029,-0.196355 -0.453243,-0.139514 -0.867999,-0.338194 -1.244271,-0.598622 -0.136828,-0.0775 -0.2651048,-0.165353 -0.3848265,-0.26017 -0.1111725,-0.0956 -0.2651035,-0.23511 -0.4617919,-0.41648 l 1.2057894,-1.223084 c 0.359168,0.338453 0.718341,0.581314 1.077514,0.728839 0.367719,0.147265 0.803855,0.222191 1.308408,0.222191 0.495995,0 0.897923,-0.08267 1.20579,-0.248027 0.316407,-0.165352 0.474613,-0.399169 0.47462,-0.702486 -7e-6,-0.121431 -0.03422,-0.258362 -0.102619,-0.403303 -0.06843,-0.147265 -0.162487,-0.260171 -0.282207,-0.338195 -0.07696,-0.04392 -0.158211,-0.08268 -0.243723,-0.118847 -0.08552,-0.04392 -0.192422,-0.08268 -0.320689,-0.118846 -0.119729,-0.03617 -0.273659,-0.06976 -0.461792,-0.105927 -0.179591,-0.04392 -0.410485,-0.09043 -0.692687,-0.144683 C 12.068278,13.626651 11.696278,13.523306 11.414075,13.427971 11.131867,13.322044 10.900972,13.21353 10.721388,13.089517 10.430626,12.887996 10.199729,12.616973 10.028698,12.269736 9.8662159,11.922755 9.7849748,11.567251 9.7849748,11.202702 9.7849726,10.760129 9.8875851,10.3483 10.092835,9.9664416 10.306625,9.5848415 10.605934,9.2812658 10.990763,9.055458 11.230208,8.9081916 11.49531,8.7996804 11.78607,8.7301809 c 0.290753,-0.06976 0.628548,-0.1059274 1.013375,-0.1059274 0.487442,0 0.949234,0.056836 1.385375,0.1705177 0.444682,0.1136788 0.846612,0.2818723 1.20579,0.5074226 0.09406,0.062005 0.171027,0.1188465 0.230897,0.1705177 0.06841,0.043922 0.171026,0.1214303 0.307862,0.2351102 l -1.05186,1.3664743 c -0.350625,-0.260428 -0.692694,-0.442573 -1.026204,-0.546693 -0.333521,-0.105927 -0.705519,-0.1576 -1.115996,-0.1576 -0.39338,0 -0.705518,0.06976 -0.93641,0.209272 -0.222345,0.139516 -0.333519,0.347239 -0.333516,0.62472 -3e-6,0.103342 0.02993,0.214439 0.0898,0.325533 0.05986,0.105928 0.141098,0.178271 0.243724,0.21961 0.07696,0.04392 0.158204,0.0775 0.243724,0.103342 0.08551,0.02584 0.175308,0.04392 0.269378,0.0775 l 0.269378,0.02584 0.307861,0.06459 0.384827,0.06459 c 1.009094,0.183437 1.770194,0.512073 2.283303,0.989268 0.513094,0.46841 0.769645,1.088478 0.769652,1.860463"
     id="text1352"
     style="fill:#ffffff;stroke:none"
     inkscape:connector-curvature="0" />
  <path
     d="m 22.899285,26.839264 c -9e-6,0.477195 -0.115456,0.919768 -0.346344,1.327463 -0.22235,0.39891 -0.530212,0.711269 -0.923583,0.93682 C 21.227422,29.330904 20.804113,29.442 20.359432,29.442 l -0.384826,0 -4.015021,0 0,-8.744509 4.015021,0 c 0.188135,0 0.346337,0 0.474619,0.02584 0.136819,0 0.260821,0.02584 0.371997,0.05167 0.111171,0.02584 0.213785,0.062 0.307861,0.105927 0.102609,0.04392 0.20951,0.100757 0.320689,0.170519 0.359165,0.201521 0.645645,0.490369 0.859445,0.871969 0.213783,0.373333 0.320681,0.771728 0.32069,1.197248 -9e-6,0.667866 -0.230903,1.231611 -0.692688,1.691494 0.641369,0.53791 0.962057,1.218951 0.962066,2.043125 M 20.93667,23.12067 c -6e-6,-0.442573 -0.260832,-0.663731 -0.78248,-0.663731 l -2.50137,0 0,1.496431 2.34744,0 c 0.273649,0 0.495993,-0.07751 0.667032,-0.23511 0.179581,-0.165351 0.269372,-0.364289 0.269378,-0.598365 m 0.269379,3.734618 c -6e-6,-0.217024 -0.05132,-0.420872 -0.153932,-0.6118 -0.09407,-0.191188 -0.235174,-0.333803 -0.423309,-0.429398 -0.09407,-0.04392 -0.192421,-0.07493 -0.295033,-0.09043 -0.09407,-0.02584 -0.213796,-0.02584 -0.35917,-0.02584 l -2.321786,0 0,2.016771 2.565509,0 c 0.316407,0 0.560129,-0.0775 0.731169,-0.235109 0.171028,-0.157601 0.256545,-0.364549 0.256551,-0.624719"
     id="text2229"
     style="fill:#ffffff;stroke:none"
     inkscape:connector-curvature="0" />
  <path
     d="m 29.628109,35.282782 c -7e-6,0.503288 -0.119728,0.971698 -0.359171,1.405488 -0.239459,0.425005 -0.56442,0.75054 -0.974893,0.976089 -0.128275,0.06976 -0.252277,0.131765 -0.371999,0.183437 -0.111183,0.04392 -0.230911,0.0775 -0.35917,0.105928 -0.119729,0.02584 -0.25656,0.04651 -0.410482,0.06459 -0.145395,0 -0.316417,0.02584 -0.513101,0.02584 l -2.257649,0 0,3.278868 -1.693236,0 0,-8.744509 4.040673,0 c 0.35917,0 0.649925,0.02584 0.872275,0.0775 0.222365,0.05167 0.453233,0.147267 0.692689,0.286265 0.410473,0.24286 0.735434,0.57253 0.974893,0.989009 0.239458,0.416479 0.359164,0.871971 0.359171,1.366475 m -1.693235,0 c -8e-6,-0.277738 -0.102608,-0.507681 -0.30786,-0.689567 -0.1967,-0.191187 -0.457523,-0.286264 -0.782482,-0.286264 l -2.462888,0 0,1.977758 2.462888,0 c 0.33351,0 0.598609,-0.09043 0.795309,-0.273089 0.196701,-0.183436 0.295025,-0.425263 0.295033,-0.728838"
     id="text2233"
     style="fill:#ffffff;stroke:none"
     inkscape:connector-curvature="0" />
  <path
     d="m 22.547259,13.903355 c -4e-6,0.295307 -0.04848,0.57873 -0.145442,0.850268 -0.09696,0.266371 -0.22815,0.500705 -0.393551,0.703261 -0.159705,0.196356 -0.350778,0.355505 -0.573215,0.477194 -0.222445,0.116263 -0.456295,0.173103 -0.701549,0.173103 -0.148296,0 -0.293738,-0.02584 -0.436328,-0.06201 -0.136887,-0.04134 -0.26522,-0.111096 -0.384995,-0.209273 l 0,1.492555 -1.146431,0.425263 0,-5.953687 1.146431,0 0,0.183438 c 0.10266,-0.09818 0.228143,-0.170518 0.376439,-0.217024 0.148293,-0.04651 0.305143,-0.06976 0.470552,-0.06976 0.239549,0 0.467694,0.062 0.684436,0.183435 0.216732,0.116264 0.404954,0.275157 0.56466,0.477454 0.1654,0.204106 0.296584,0.436889 0.393551,0.703002 0.09695,0.266112 0.145438,0.546951 0.145442,0.842 m -1.146431,0 c -4e-6,-0.14985 -0.02282,-0.292206 -0.06845,-0.425521 -0.03994,-0.134349 -0.09696,-0.248027 -0.171108,-0.34698 -0.07414,-0.105928 -0.165408,-0.186021 -0.273774,-0.245444 -0.10266,-0.05942 -0.21389,-0.08784 -0.333663,-0.08784 -0.131187,0 -0.25096,0.031 -0.359329,0.0956 -0.108371,0.06458 -0.202481,0.167935 -0.28233,0.312358 l 0,1.388695 c 0.07984,0.144682 0.173961,0.248026 0.28233,0.312359 0.114067,0.06459 0.242401,0.0956 0.384995,0.0956 0.114073,0 0.219587,-0.02842 0.316552,-0.08784 0.10266,-0.05942 0.191068,-0.136933 0.265219,-0.235111 0.07415,-0.09818 0.131179,-0.21444 0.171108,-0.347238 0.04563,-0.134347 0.06845,-0.277997 0.06845,-0.434047 m 5.385127,-0.729097 c -0.07984,-0.134349 -0.182532,-0.229942 -0.307999,-0.286263 -0.125478,-0.05942 -0.242409,-0.08784 -0.35077,-0.08784 -0.256669,0 -0.43348,0.07492 -0.530442,0.227358 -0.0913,0.152434 -0.136898,0.376174 -0.136898,0.676909 l 0,2.343082 -1.146433,0 0,-4.243849 1.146433,0 0,0.209273 c 0.142596,-0.116264 0.276624,-0.198938 0.402104,-0.24286 0.131175,-0.04651 0.270921,-0.06976 0.419217,-0.06976 0.171086,0 0.325107,0.02584 0.461994,0.06976 0.142597,0.04651 0.285179,0.12918 0.427775,0.24286 l -0.384996,1.162885 m 3.944867,2.872467 0,-0.139516 c -0.199625,0.08267 -0.393554,0.134348 -0.581772,0.1576 -0.18823,0.02842 -0.362182,0.04392 -0.52188,0.04392 -0.233862,0 -0.447736,-0.03618 -0.641664,-0.103342 -0.193927,-0.06976 -0.362179,-0.167934 -0.504768,-0.295048 -0.142596,-0.129181 -0.253805,-0.27774 -0.333665,-0.4511 -0.07414,-0.180854 -0.111207,-0.373333 -0.111207,-0.581314 0,-0.222191 0.04278,-0.422678 0.128327,-0.607666 0.09126,-0.186021 0.213869,-0.344396 0.367883,-0.477453 0.153993,-0.139515 0.336515,-0.245443 0.547547,-0.320885 0.211022,-0.08267 0.439181,-0.121429 0.684436,-0.121429 0.119781,0 0.268069,0 0.444885,0.03618 0.176835,0.02584 0.350771,0.06718 0.521882,0.131764 -0.01144,-0.204106 -0.08554,-0.347238 -0.222466,-0.434048 -0.1369,-0.093 -0.310851,-0.139514 -0.521885,-0.139514 -0.399255,0 -0.795658,0.111094 -1.189205,0.329669 l -0.419219,-0.920026 c 0.154018,-0.08267 0.296588,-0.14985 0.427772,-0.209273 0.1369,-0.05942 0.268069,-0.105927 0.393553,-0.139516 0.131176,-0.03618 0.259512,-0.06201 0.384994,-0.0775 0.125479,-0.02584 0.259512,-0.02584 0.402105,-0.02584 0.576069,0 1.023804,0.144684 1.343212,0.434049 0.325098,0.283422 0.48765,0.723153 0.487655,1.319195 l 0,2.594725 -1.08654,0 m 0,-1.70932 c -0.171112,-0.06459 -0.347925,-0.111095 -0.530436,-0.139515 -0.176835,-0.03618 -0.32226,-0.05167 -0.436332,-0.05167 -0.182532,0 -0.336516,0.04651 -0.461994,0.139515 -0.119781,0.08784 -0.179658,0.198939 -0.179658,0.329929 -2e-6,0.134349 0.07415,0.248027 0.222441,0.34698 0.148295,0.09818 0.322258,0.147266 0.521887,0.147266 0.119781,0 0.250957,-0.02584 0.393549,-0.04392 0.148292,-0.02842 0.305144,-0.09042 0.470551,-0.183435 l 0,-0.546436 m 4.503915,-3.636698 c -3e-6,0.152433 -0.0542,0.283423 -0.162564,0.399169 -0.10836,0.116262 -0.24241,0.175686 -0.402108,0.175686 -0.148295,0 -0.276626,-0.05942 -0.384998,-0.175686 -0.10836,-0.116263 -0.162564,-0.248027 -0.162564,-0.399169 -3e-6,-0.167934 0.0542,-0.303834 0.162564,-0.407953 0.10836,-0.111096 0.236737,-0.165351 0.384998,-0.165351 0.159715,0 0.293733,0.05426 0.402108,0.165351 0.108358,0.105928 0.162564,0.237692 0.162564,0.407953 m -1.129322,5.34602 0,-4.243849 1.14643,0 0,4.243849 -1.14643,0 m 6.094422,0 0,-2.551322 c -4e-6,-0.198937 -0.06275,-0.361707 -0.188231,-0.494763 -0.119779,-0.134347 -0.290887,-0.201522 -0.513326,-0.201522 -0.10266,0 -0.2025,0.02584 -0.299446,0.06201 -0.09124,0.03618 -0.176833,0.08526 -0.256657,0.147266 -0.07419,0.06458 -0.13405,0.136931 -0.179658,0.217022 -0.04564,0.0801 -0.06846,0.165352 -0.06846,0.250612 l 0,2.56889 -1.146431,0 0,-4.243848 1.146431,0 0,0.224774 c 0.193927,-0.121431 0.382141,-0.20669 0.564661,-0.25061 0.182531,-0.05167 0.370733,-0.07751 0.564657,-0.07751 0.216769,0 0.416365,0.03875 0.598883,0.11368 0.182532,0.06976 0.339365,0.167935 0.470548,0.295049 0.136874,0.129181 0.242409,0.28058 0.316557,0.459883 0.07984,0.175686 0.11978,0.361707 0.11978,0.564004 l 0,2.916128 -1.129326,0"
     id="text2239"
     style="fill:#ffffff;stroke:none"
     inkscape:connector-curvature="0" />
  <path
     d="m 28.309114,25.135111 c -0.07984,-0.134348 -0.182532,-0.229942 -0.308,-0.286523 -0.125477,-0.05942 -0.242408,-0.08784 -0.350772,-0.08784 -0.256663,0 -0.433479,0.07493 -0.530439,0.227359 -0.0913,0.152433 -0.136899,0.375916 -0.136899,0.676907 l 0,2.343599 -1.146429,0 0,-4.244366 1.146429,0 0,0.209273 c 0.142598,-0.116263 0.276624,-0.196355 0.402106,-0.24286 0.131177,-0.04651 0.270923,-0.06976 0.419219,-0.06976 0.171086,0 0.325105,0.02584 0.461993,0.06976 0.142597,0.04651 0.285182,0.126597 0.427775,0.24286 l -0.384993,1.163145 m 5.151185,0.755191 c -5e-6,0.306417 -0.0542,0.59294 -0.162564,0.85931 -0.10836,0.265854 -0.253829,0.500447 -0.436328,0.702745 -0.182532,0.198937 -0.393556,0.35318 -0.633105,0.468925 -0.233839,0.111096 -0.479107,0.165353 -0.735769,0.165353 -0.262369,0 -0.510475,-0.05426 -0.744322,-0.165353 -0.233837,-0.116262 -0.439184,-0.272055 -0.615996,-0.468925 -0.176833,-0.204107 -0.31655,-0.436891 -0.419217,-0.702745 -0.10265,-0.26637 -0.154018,-0.552893 -0.154018,-0.85931 0,-0.318302 0.04848,-0.61361 0.145446,-0.885406 0.102681,-0.272054 0.23956,-0.506389 0.410661,-0.703002 0.176834,-0.204105 0.382141,-0.358605 0.615988,-0.468667 0.233839,-0.116263 0.487663,-0.173103 0.761441,-0.173103 0.250956,0 0.493361,0.05942 0.727213,0.173103 0.239561,0.116262 0.450583,0.274637 0.633103,0.477193 0.18253,0.204106 0.327957,0.43999 0.436331,0.711786 0.114083,0.272055 0.171086,0.56142 0.171086,0.868096 m -1.163544,0 c -3e-6,-0.157601 -0.02289,-0.303833 -0.06846,-0.442574 -0.04564,-0.139515 -0.105506,-0.258361 -0.179657,-0.356022 -0.07415,-0.105928 -0.159715,-0.186021 -0.256661,-0.24286 -0.09698,-0.05942 -0.196801,-0.08784 -0.299442,-0.08784 -0.114082,0 -0.219592,0.02842 -0.316552,0.08784 -0.0913,0.05942 -0.173985,0.139515 -0.248107,0.24286 -0.06845,0.09818 -0.122629,0.217024 -0.162563,0.356022 -0.03994,0.139516 -0.05989,0.286266 -0.05989,0.442574 0,0.152433 0.0201,0.292206 0.05989,0.425263 0.03994,0.134348 0.09411,0.250611 0.162563,0.347238 0.07417,0.09818 0.156867,0.17827 0.248107,0.232526 0.09698,0.05684 0.202499,0.08784 0.316552,0.08784 0.10268,0 0.202499,-0.02842 0.299442,-0.08784 0.09696,-0.05942 0.182531,-0.136933 0.256661,-0.232526 0.07416,-0.09818 0.13405,-0.21444 0.179657,-0.347238 0.04564,-0.134348 0.06846,-0.275156 0.06846,-0.425263 m 6.310184,0 c -2e-6,0.306417 -0.0542,0.59294 -0.162565,0.85931 -0.108358,0.265854 -0.25383,0.500447 -0.436329,0.702745 -0.182532,0.198937 -0.393551,0.35318 -0.633102,0.468925 -0.233862,0.111096 -0.479109,0.165353 -0.735772,0.165353 -0.262368,0 -0.510475,-0.05426 -0.74432,-0.165353 -0.233837,-0.116262 -0.439183,-0.272053 -0.615994,-0.468925 -0.176833,-0.204106 -0.316552,-0.436889 -0.419216,-0.702744 -0.10266,-0.266371 -0.154018,-0.552894 -0.154018,-0.859311 0,-0.318301 0.04847,-0.613609 0.145446,-0.885405 0.102681,-0.272055 0.23956,-0.50639 0.410658,-0.703002 0.176833,-0.204106 0.382146,-0.358606 0.615992,-0.468668 0.233838,-0.116263 0.487662,-0.173103 0.761437,-0.173103 0.250982,0 0.493366,0.05942 0.727215,0.173103 0.239559,0.116262 0.450584,0.274638 0.633106,0.477194 0.18253,0.204105 0.327955,0.43999 0.436326,0.711786 0.114083,0.272055 0.17111,0.561419 0.17111,0.868095 m -1.16354,0 c -6e-6,-0.157601 -0.02289,-0.303833 -0.06845,-0.442574 -0.04564,-0.139515 -0.105507,-0.258361 -0.179659,-0.356022 -0.07416,-0.105928 -0.159715,-0.18602 -0.256664,-0.24286 -0.09698,-0.05942 -0.196801,-0.08784 -0.299443,-0.08784 -0.114081,0 -0.219592,0.02842 -0.316548,0.08784 -0.09126,0.05942 -0.173985,0.139515 -0.248106,0.24286 -0.06846,0.09818 -0.122629,0.217024 -0.162564,0.356022 -0.03994,0.139516 -0.05989,0.286266 -0.05989,0.442574 -2e-6,0.152433 0.0201,0.292207 0.05989,0.425263 0.03994,0.134349 0.09412,0.250611 0.162564,0.347238 0.07417,0.09818 0.156865,0.17827 0.248106,0.232526 0.09696,0.05684 0.2025,0.08784 0.316548,0.08784 0.102681,0 0.202501,-0.02842 0.299443,-0.08784 0.09696,-0.05942 0.182532,-0.136932 0.256664,-0.232526 0.07415,-0.09818 0.134051,-0.21444 0.179659,-0.347238 0.04564,-0.134348 0.06845,-0.275154 0.06845,-0.425263 m 5.505971,-0.824433 1.163539,2.942223 -1.163539,0 -0.761437,-1.961739 -0.667326,0.676907 0,1.284832 -1.146432,0 0,-5.467965 1.146432,-0.4511 0,2.881249 1.206322,-1.189239 1.428757,0 -1.206316,1.284832"
     id="text3116"
     style="fill:#ffffff;stroke:none"
     inkscape:connector-curvature="0" />
  <path
     d="m 34.101889,36.862147 1.163543,2.942223 -1.163543,0 -0.761437,-1.961482 -0.667326,0.676908 0,1.284574 -1.146428,0 0,-5.467967 1.146428,-0.451099 0,2.881507 1.20632,-1.18898 1.428763,0 -1.20632,1.284316 m 6.950773,2.942223 -1.103654,0 -0.521884,-2.100222 -0.667325,2.100222 -1.103655,0 -1.206319,-4.244107 1.163542,0 0.590326,2.022454 0.581775,-2.022454 1.249093,0 0.496216,1.99636 0.564663,-1.99636 1.189204,0 -1.231982,4.244107 m 4.703224,1.631554 -1.14643,0 0.684439,-1.692269 -1.976308,-4.183392 1.308984,0 1.146432,2.812008 1.14643,-2.812008 1.206314,0 -2.369861,5.875661"
     id="text3120"
     style="fill:#ffffff;stroke:none"
     inkscape:connector-curvature="0" />
</svg>
