<?xml version="1.0" encoding="UTF-8" standalone="no"?>
<!-- Created with Inkscape (http://www.inkscape.org/) -->

<svg
   xmlns:dc="http://purl.org/dc/elements/1.1/"
   xmlns:cc="http://creativecommons.org/ns#"
   xmlns:rdf="http://www.w3.org/1999/02/22-rdf-syntax-ns#"
   xmlns:svg="http://www.w3.org/2000/svg"
   xmlns="http://www.w3.org/2000/svg"
   xmlns:sodipodi="http://sodipodi.sourceforge.net/DTD/sodipodi-0.dtd"
   xmlns:inkscape="http://www.inkscape.org/namespaces/inkscape"
   id="svg17624"
   version="1.1"
   inkscape:version="0.92.3 (2405546, 2018-03-11)"
   width="287.10324"
   height="287.26562"
   xml:space="preserve"
   sodipodi:docname="US:NFSR_4.svg"><metadata
     id="metadata17630"><rdf:RDF><cc:Work
         rdf:about=""><dc:format>image/svg+xml</dc:format><dc:type
           rdf:resource="http://purl.org/dc/dcmitype/StillImage" /><dc:title></dc:title></cc:Work></rdf:RDF></metadata><defs
     id="defs17628"><inkscape:perspective
       sodipodi:type="inkscape:persp3d"
       inkscape:vp_x="0 : 0.5 : 1"
       inkscape:vp_y="0 : 1000 : 0"
       inkscape:vp_z="1 : 0.5 : 1"
       inkscape:persp3d-origin="0.5 : 0.33333333 : 1"
       id="perspective17632" /><clipPath
       clipPathUnits="userSpaceOnUse"
       id="clipPath17642"><path
         d="m -2,710 501,0 0,-711 -501,0 0,711 z"
         id="path17644"
         inkscape:connector-curvature="0" /></clipPath><clipPath
       clipPathUnits="userSpaceOnUse"
       id="clipPath17648"><path
         d="m 0,708.06 498,0 0,-708 -498,0 0,708 z"
         id="path17650"
         inkscape:connector-curvature="0" /></clipPath><clipPath
       clipPathUnits="userSpaceOnUse"
       id="clipPath17798"><path
         d="m -2,710 501,0 0,-711 -501,0 0,711 z"
         id="path17800"
         inkscape:connector-curvature="0" /></clipPath><clipPath
       clipPathUnits="userSpaceOnUse"
       id="clipPath17804"><path
         d="m 0,708.06 498,0 0,-708 -498,0 0,708 z"
         id="path17806"
         inkscape:connector-curvature="0" /></clipPath><clipPath
       id="Clip0"><path
         inkscape:connector-curvature="0"
         d="m 0,0 212.597,0 0,269.292 L 0,269.292 0,0 z"
         transform="translate(0.923828,0.879883)"
         id="path7" /></clipPath><clipPath
       id="Clip0-8"><path
         inkscape:connector-curvature="0"
         d="m 0,0 170.079,0 0,113.386 L 0,113.386 0,0 z"
         transform="translate(0.0986328,0.822266)"
         id="path7-8" /></clipPath><clipPath
       id="Clip0-1"><path
         inkscape:connector-curvature="0"
         d="m 0,0 287.009,0 0,159.449 L 0,159.449 0,0 z"
         transform="translate(0.396484,0.267578)"
         id="path7-7" /></clipPath><clipPath
       id="Clip0-9"><path
         inkscape:connector-curvature="0"
         d="m 0,0 170.079,0 0,170.079 L 0,170.079 0,0 z"
         transform="translate(0.460938,0.775391)"
         id="path7-4" /></clipPath><clipPath
       id="Clip0-4"><path
         inkscape:connector-curvature="0"
         d="m 0,0 340.157,0 0,226.771 L 0,226.771 0,0 z"
         transform="translate(0.921875,0.25293)"
         id="path7-5" /></clipPath><clipPath
       id="Clip0-5"><path
         inkscape:connector-curvature="0"
         d="m 0,0 255.119,0 0,170.079 L 0,170.079 0,0 z"
         transform="translate(0.147461,0.0595703)"
         id="path7-1" /></clipPath><clipPath
       id="Clip0-0"><path
         inkscape:connector-curvature="0"
         d="m 0,0 170.079,0 0,113.386 L 0,113.386 0,0 z"
         transform="translate(0.0673828,0.207031)"
         id="path7-9" /></clipPath></defs><sodipodi:namedview
     pagecolor="#ffffff"
     bordercolor="#666666"
     borderopacity="1"
     objecttolerance="10"
     gridtolerance="10"
     guidetolerance="10"
     inkscape:pageopacity="0"
     inkscape:pageshadow="2"
     inkscape:window-width="1280"
     inkscape:window-height="1001"
     id="namedview17626"
     showgrid="false"
     inkscape:zoom="3"
     inkscape:cx="125.45242"
     inkscape:cy="199.27548"
     inkscape:window-x="-8"
     inkscape:window-y="-8"
     inkscape:window-maximized="1"
     inkscape:current-layer="g17634"
     fit-margin-top="0"
     fit-margin-left="0"
     fit-margin-right="0"
     fit-margin-bottom="0"
     showguides="true"
     inkscape:guide-bbox="true" /><g
     id="g17634"
     inkscape:groupmode="layer"
     inkscape:label="GG1999P002"
     transform="matrix(1.25,0,0,-1.25,-6770.7483,-4073.1641)"><path
       d="m 5470.6145,-3487.3435 c -9.4925,0 -17.7994,6.7248 -19.778,15.9768 l -32.8186,186.9335 c -1.1222,6.362 -0.097,12.5173 4.1219,17.5884 3.8223,4.5943 9.581,7.3155 15.5633,7.3155 l 187.3174,0 c 11.1589,0 20.2548,-9.0959 20.2548,-20.2463 0,-1.5061 -0.3122,-3.2274 -0.5611,-4.6576 l -32.8186,-186.9335 c -1.9786,-9.252 -10.2898,-15.9768 -19.7738,-15.9768 l -121.5073,0"
       style="fill:#ffffff;fill-opacity:1;fill-rule:nonzero;stroke:#000000;stroke-width:2;stroke-linecap:butt;stroke-linejoin:miter;stroke-miterlimit:4;stroke-opacity:1;stroke-dasharray:none"
       id="path3459"
       inkscape:connector-curvature="0" /><path
       d="m 5467.9101,-3479.4501 c -4.7884,1.2868 -8.4799,4.7209 -9.6316,9.6148 l -12.0491,68.5607 170.231,0 -12.1208,-69.0374 c -1.7128,-5.5774 -6.4253,-9.2942 -12.3106,-9.4334 l -121.9673,0.01 c -0.7172,0.046 -1.4344,0.1392 -2.1516,0.2869"
       style="fill:#713907;fill-opacity:1;fill-rule:evenodd;stroke:none"
       id="path3463"
       inkscape:connector-curvature="0" /><path
       d="m 5444.8963,-3393.6845 -19.4279,110.6987 c -0.6455,3.6451 -0.3965,7.113 1.7466,10.2645 2.3289,3.278 5.8178,5.2693 9.8384,5.5857 l 187.8785,0.017 c 9.7456,-0.3037 13.6776,-8.4799 12.3022,-16.0021 l -19.4405,-110.5637 -172.8973,0"
       style="fill:#713907;fill-opacity:1;fill-rule:evenodd;stroke:none"
       id="path3467"
       inkscape:connector-curvature="0" /><path
       style="fill:#ffffff;fill-opacity:1;fill-rule:evenodd;stroke:none"
       d="m 2076.6562,1195.2188 c -1.757,0.028 -3.6921,1.1058 -3.6562,2.9687 0.048,2.8319 0.049,5.6681 -0.062,8.5 0.063,1.2499 -0.13,2.5055 -0.5625,3.75 -2.4205,-4.3454 -4.8295,-8.6858 -7.25,-13.0313 -1.6506,-2.4944 -5.4095,-1.5013 -5.5625,2.4063 0.032,1.9039 0.041,3.8099 0.062,5.7187 -0.1265,2.7899 -0.2484,5.5749 -0.375,8.375 -0.1213,3.4438 -0.311,7.2074 -0.4375,10.6563 0.3427,5.0046 6.6605,3.7938 6.3125,-1 0.01,-3.9129 0.01,-7.8265 0.031,-11.75 1.714,4.087 3.8196,7.9953 6.1876,11.75 3.681,5.3264 6.6925,2.8165 7.125,-2.5625 0.5009,-7.9209 1.3278,-15.8605 0.9374,-23.7812 -0.1221,-1.4006 -1.3832,-2.0217 -2.75,-2 z m 98.7188,0.6562 c -0.8637,0.031 -1.7074,0.5824 -2.5312,1.4062 -4.3774,6.2863 -5.414,13.906 -4.375,22.3438 -2.8954,0.5642 -3.4485,-2.1197 -1.7188,-8.0312 0.2584,-0.6805 0.1759,-1.3415 -0.5625,-1.9376 -0.5695,-0.2582 -1.1285,-0.5227 -1.6875,-0.7812 -0.5854,-0.3164 -1.1346,-0.2555 -1.625,0.1875 -0.828,-1.3395 -2.2305,-1.5938 -4.2188,-0.75 -3.8127,2.8425 -6.5457,7.044 -8.75,11.9063 -2.3097,-1.2658 -1.4945,-3.8772 -0.25,-6.6563 0.4437,-0.9861 0.4632,-1.992 0.063,-3.0625 -1.4134,-2.1095 -3.2129,-2.4552 -5.375,-1.0312 -0.9283,0.8647 -1.8584,1.7288 -2.7813,2.5937 -0.6804,-0.8016 -1.4749,-1.5349 -2.6563,-2.0937 -1.0495,-0.5328 -1.9037,-0.3194 -2.5312,0.6562 -1.0495,1.0864 -2.2839,1.8241 -3.75,2.1562 -1.3289,-1.64 -1.7859,-3.9412 -5.625,-3.625 -0.5062,-0.6278 -1.079,-0.8162 -1.8438,-0.094 -2.7896,3.3119 -5.1739,6.6286 -7.5312,10.125 -0.5169,0.5116 -1.1136,0.6669 -1.2188,-0.1875 -0.4322,-2.2624 0.3448,-4.672 1.9376,-7.1875 -0.9651,-0.9914 -1.9413,-1.946 -2.9063,-2.9375 -0.2585,0.021 -0.5228,0.041 -0.7813,0.062 -0.7804,0.3216 -1.5837,0.6366 -2.375,0.9687 0.053,0.7595 -0.099,1.5219 -0.4687,2.2813 -1.0283,2.795 -3.0696,6.8095 -4.5937,6.625 -2.6369,-1.155 -1.5204,-7.379 1.375,-11.6875 1.1126,-0.1003 2.2422,-0.2267 3.2812,-0.8438 0.7115,-0.596 0.738,-1.4361 0.031,-2.375 -0.8753,-0.9175 -1.6543,-1.9181 -3.0624,-2.2187 -0.4325,-0.09 -0.8707,-0.2551 -1.2188,-0.6875 -0.2162,-0.174 -0.4401,-0.3467 -0.6562,-0.5312 -0.9864,-0.6119 -2.0379,-0.5945 -3.1876,0.3124 -0.2161,0.364 -0.44,0.7039 -0.6562,1.0626 -0.2267,0.5377 -0.5077,0.9913 -1.1562,0.8437 -0.4748,-0.01 -0.9629,0.082 -1.4376,0.2187 -0.7382,0.079 -1.3175,0.3286 -1.75,0.7188 -0.5852,0.5381 -1.3586,0.6541 -2.25,0.4062 -1.7829,-0.3796 -1.5972,2.4808 -0.062,3.625 1.3182,0.6906 2.7421,0.8551 4.2187,0.7813 -0.01,4.0608 -1.43,7.9459 -4.5625,9.7813 -0.8649,-0.8755 -0.7774,-3.2385 -0.25,-6.2813 0.4325,-1.5926 0.4824,-3.113 -1.875,-4.0937 -0.3005,0.4112 -0.6056,0.8127 -0.9062,1.2187 -6.4655,-3.3593 -12.4988,3.4984 -12.5626,11.2187 -0.058,7.7154 6.7058,7.8019 10.2813,2.3438 3.2116,5.7587 6.6648,3.2933 10.1875,-1.4688 2.4416,6.7503 5.7804,7.3299 10.0625,1.7188 3.681,4.9836 6.7459,5.1869 9.1875,0.5938 3.5809,6.0645 11.453,3.6712 13.1562,-5.125 0.865,-0.4748 1.7289,-0.9628 2.5938,-1.4376 0.174,2.389 -0.5926,4.7147 -0.6562,7.1563 -0.011,3.217 3.7197,3.6528 5.75,1.4063 0.6696,-1.3924 0.9908,-2.9034 1.3124,-4.4063 0.1742,-0.8755 0.5912,-1.6638 1.2188,-2.3125 -0.069,9.3343 5.8799,9.7495 9.2812,6 2.7529,2.7845 5.3908,3.1982 7.9063,0.2188 0.095,-0.3463 0.3488,-0.46 0.7813,-0.3438 0.3216,0.058 0.7668,0.061 1.0937,0.125 1.888,2.3101 5.4396,1.6921 8.2187,0.062 6.1807,7.7152 15.5754,-0.98 10.3126,-10.1563 -0.7333,0.401 -1.3711,1.0605 -1.6876,2.0626 -0.2582,0.8016 -0.1568,1.7093 -0.5312,2.4687 -0.2743,0.5696 -0.9218,0.8431 -1.3438,1.3125 -0.6801,0.7858 -1.606,0.6786 -2.7187,0.125 3.3276,-6.0172 5.899,-12.0205 6.0625,-17.9375 0.021,-0.8226 0.081,-2.1443 -0.9688,-3.5313 -0.8279,-1.081 -2.0232,-1.8645 -3.0937,-2.7187 -0.5221,-0.4153 -1.0443,-0.581 -1.5625,-0.5625 z m -59.0625,3.5625 c -0.815,0.016 -1.7295,0.3171 -2.75,2.1563 -1.3711,2.4679 2.043,4.8519 4.0313,2.9374 1.9881,-1.9248 1.5559,-1.8491 1.6562,-2.6874 0.1162,-0.8334 -1.1386,-2.333 -2.1562,-2.375 -0.2546,-0.01 -0.5096,-0.037 -0.7813,-0.031 z m 59.5,3.0313 c 0.1635,0.01 0.3084,0.2263 0.4375,0.6562 0.9545,3.2538 -0.06,6.6186 -2.4062,10.0938 -0.3536,0.306 -0.625,0.4678 -0.6876,-0.3126 0.2268,-3.3171 0.6437,-6.6111 2.0938,-9.8437 0.1979,-0.4061 0.399,-0.6063 0.5625,-0.5937 z m -85.8437,10.4374 c 1.545,1.8458 0.2929,4.1977 -0.6563,5.9063 -0.9334,1.6981 -3.6497,0.9649 -2.9063,-1.25 0.7384,-2.2149 1.9698,-3.6069 3.5626,-4.6563 z m 70.9062,0.5 c 0.1003,0.1213 0.2225,0.2638 0.3125,0.375 0.074,2.6789 -0.8103,4.5652 -2.25,6.0313 -1.1337,0.617 -1.9412,0.4801 -2.0625,-1.2813 0.4746,-2.2518 1.938,-3.8698 4,-5.125 z m -35.1875,2.6563 c 0.7699,0.059 1.5531,0.1038 2.3125,0.1563 0.385,1.3079 0.2774,2.6296 -0.25,3.9374 -0.9651,1.4503 -1.7877,1.506 -2.5312,0.1876 -0.5644,-1.5557 -0.6124,-3.0157 0.4687,-4.2813 z m -30.3125,10.875 c -0.27,0 -0.5404,0.028 -0.8438,0.062 -5.284,0.9651 -10.5801,1.936 -15.875,2.9062 -2.336,0.4009 -2.712,1.5696 -1.1562,3.5313 1.1444,1.2129 2.4417,1.5646 3.7812,1.8125 -0.1053,1.8774 -0.1862,3.7476 -0.2812,5.625 -0.5115,0.2479 -1.004,0.5023 -1.5312,0.75 -0.5222,0.4325 -0.5993,0.8801 -0.1563,1.3125 0.2901,0.3217 0.5744,0.6264 0.875,0.9375 0.5849,0.712 0.6563,1.593 0.6563,2.5 0.063,2.679 0.1037,5.3418 0.1562,8.0312 1.9354,6.3864 7.2993,3.9987 7.0938,0.3126 0.1422,-3.0376 0.2951,-6.1082 0.4374,-9.1563 2.5314,-0.1951 5.0937,-0.3675 7.625,-0.5625 1.2709,-0.074 1.8451,-0.7347 1.75,-1.9688 l 0,-1.7812 c 0.095,-0.9809 -0.4791,-1.5442 -1.75,-1.75 -2.7791,-0.3369 -5.5592,-0.3494 -8.3437,0.094 0.095,-1.8353 0.1862,-3.6703 0.2813,-5.5 3.8496,-0.2901 7.7128,-0.9448 11.5624,-1.625 0.2127,-2.4028 -0.2305,-5.5931 -4.2812,-5.5313 z m 63.9375,3.7187 c -0.232,0 -0.4552,0.081 -0.7187,0.2813 -1.234,0.8544 -2.5055,1.7187 -3.75,2.5625 -2.0094,0.2901 -4.1703,0.8305 -6.4063,1.4688 -0.3691,0.3796 -0.9068,0.7346 -1.2813,1.125 0.422,0.7118 1.1327,1.4353 1.7813,2.0312 0.4641,0.5801 1.0137,0.7638 1.5937,0.875 1.1709,0.3216 2.3553,0.6157 3.5313,0.9375 -0.4219,3.1114 -1.8901,5.615 -4.0313,7.6875 -0.5641,-1.9775 -1.0777,-4.0248 -1.5312,-6.2188 -0.1002,-0.4429 -0.2667,-0.8695 -0.5938,-1.3124 -0.2689,-0.3587 -0.5329,-0.7194 -0.8124,-1.0938 -0.306,-0.4746 -0.7888,-0.5456 -1.4376,-0.2188 -0.6169,0.2901 -1.2319,0.5904 -1.8437,0.875 -0.2848,0.095 -0.5744,0.1863 -0.875,0.2813 l -0.5,0 c -0.6799,-0.095 -0.7625,0.4248 -0.75,1.0313 -0.907,3.4646 -2.7775,6.5582 -5.1875,9.4374 -1.0442,1.2394 -2.1665,2.0086 -3.4375,1.75 1.1128,-0.7909 1.9621,-1.6554 2.5,-2.5624 0.791,-1.2129 1.4511,-2.4629 2.0313,-3.7813 0.5536,-1.1232 0.7584,-2.1638 -0.3438,-3.6563 -0.7066,-0.9596 -1.1761,-1.9653 -2.9375,-2.6562 -1.4344,-0.7541 -2.9675,-0.825 -4.75,0.5938 -1.7191,1.7928 -3.262,3.8641 -4.4063,6.4374 -1.1918,1.8143 -1.0083,3.6898 0.094,5.625 -0.5379,-0.079 -1.0871,-0.2826 -1.625,-0.5937 -1.3501,-0.8228 -1.341,-2.5108 -0.7188,-4.5937 0.4114,-1.2658 0.8074,-2.5416 1.2188,-3.8126 0.3796,-0.6591 0.4156,-1.3847 -0.3438,-2.2812 -0.6801,-0.5169 -1.3883,-0.9823 -2.4062,-1.1562 -0.6222,-0.1214 -1.5197,-0.1813 -2.0312,0.1562 -0.8754,0.1266 -1.4891,0.2485 -2.375,0.375 -0.2796,-0.2161 -0.5904,-0.4401 -0.875,-0.6562 -0.7648,-0.517 -1.4765,-0.554 -2.125,0.4374 -1.06,1.5558 -2.1377,3.1006 -3.2188,4.6563 -0.4325,-0.6486 -0.5312,-1.3709 -0.5,-2.125 -0.053,-0.7014 -0.2314,-1.3125 -1.3125,-1.3125 -0.3375,0.031 -0.6936,0.072 -1.0313,0.094 -1.1442,-1.5769 -2.4427,-2.7032 -4.9687,-0.5938 -4.414,4.1029 -6.7764,8.5521 -3.375,14.0312 2.832,4.4194 6.1334,4.2011 9.6563,1.8438 1.7719,-1.4502 2.7471,-3.2677 2.5624,-5.625 2.6052,-0.6275 3.8406,-2.9627 5.375,-5.125 0.079,0.084 0.4176,0.025 0.375,0.125 -3.391,9.3236 1.522,14.5974 9.8438,10.0938 4.646,3.7704 8.8261,2.5293 12.7812,-1.5313 0.7014,1.1232 1.5755,2.0738 2.625,2.8437 2.6897,1.3818 4.8548,1.2194 6.5,-0.5 1.3713,-1.4342 2.7645,-2.8781 4.125,-4.3124 0.8439,2.2149 1.9655,4.0011 3.5,5.1874 4.1081,1.6455 6.3215,0.064 8.125,-2.1874 0.8017,-2.1624 1.1962,-4.3887 1.3126,-6.6563 -0.6803,-1.039 -1.4744,-1.9469 -2.2813,-2.875 -0.6802,-0.7435 -1.1885,-0.571 -1.5313,0.5313 -0.2055,1.8508 -0.5081,3.6702 -1.5312,5.0624 -0.29,0.4327 -0.6225,0.4743 -1.25,-0.375 -2.9585,-3.0268 0.5017,-9.413 1.625,-12.6562 2.4364,-0.2268 4.8709,-0.4401 7.3125,-0.6562 1.0336,-0.053 0.9291,-0.8252 0.3437,-1.9063 -0.9281,-1.0705 -1.8531,-2.1483 -2.7812,-3.2187 -0.4535,-0.4855 -1.0629,-0.6575 -1.875,-0.5626 l -3.4375,0 c -0.3216,-0.4322 -0.6523,-0.9007 -0.9687,-1.3437 -0.2005,-0.2004 -0.4243,-0.2813 -0.6563,-0.2813 z m -27.0937,13.6563 c 0.1385,-0.02 0.25,0 0.3437,0.062 0.3586,0.269 0.1588,1.1875 -0.4687,2.0312 -0.6172,0.8596 -1.4434,1.3574 -1.8126,1.0938 -0.3586,-0.2795 -0.1482,-1.2187 0.4688,-2.0625 0.4708,-0.6486 1.0529,-1.0625 1.4688,-1.125 z m -26.7188,1.375 c 0.443,1.387 0.9956,2.58 1.7812,3.2813 0.2585,0.4747 0.1121,0.7627 -0.094,1 -0.2479,0.5589 -0.5281,1.0871 -0.7813,1.625 -0.3427,0.8024 -0.6835,0.7587 -1.4374,0.875 -0.9599,0.063 -1.3409,-0.6942 -1.1563,-2.25 0.3429,-1.5135 0.8806,-3.0178 1.6875,-4.5313 z m 39.2188,1.125 c 0.1107,-0.01 0.2298,0.1279 0.375,0.3125 0.5636,1.176 0.6199,2.3962 0.6874,3.625 0,0.3586 -0.1173,0.5971 -0.3124,0.75 -0.3323,0.2479 -0.6678,0.5021 -1,0.75 -0.2533,0.1529 -0.5027,0.3164 -0.7188,0 -0.29,-0.3586 -0.5694,-0.7246 -0.8438,-1.0938 -0.4323,-0.2373 -0.3168,-0.5682 0.031,-0.9374 0.6434,-0.9597 1.1573,-1.9194 1.5,-2.9688 0.061,-0.29 0.17,-0.425 0.2813,-0.4375 z"
       transform="matrix(0.8,0,0,-0.8,3834.3795,-2459.2021)"
       id="path3471"
       inkscape:connector-curvature="0" /><flowRoot
       xml:space="preserve"
       id="flowRoot933"
       style="fill:#ffffff;stroke:none;stroke-opacity:1;stroke-width:1px;stroke-linejoin:miter;stroke-linecap:butt;fill-opacity:1;font-family:'Roadgeek 2005 Series E';font-style:normal;font-weight:normal;font-size:85.33333333px;line-height:125%;letter-spacing:0px;word-spacing:0px;text-anchor:middle;text-align:center;-inkscape-font-specification:'Roadgeek 2005 Series E, Normal';font-stretch:normal;font-variant:normal;writing-mode:lr;font-variant-ligatures:normal;font-variant-caps:normal;font-variant-numeric:normal;font-feature-settings:normal;"><flowRegion
         id="flowRegion935"
         style="-inkscape-font-specification:'Roadgeek 2005 Series E, Normal';font-family:'Roadgeek 2005 Series E';font-weight:normal;font-style:normal;font-stretch:normal;font-variant:normal;font-size:85.33333333px;text-anchor:middle;text-align:center;writing-mode:lr;font-variant-ligatures:normal;font-variant-caps:normal;font-variant-numeric:normal;font-feature-settings:normal;fill:#ffffff;fill-opacity:1;"><rect
           id="rect937"
           width="279.30716"
           height="130.10762"
           x="2.8284276"
           y="43.313793"
           style="font-style:normal;font-variant:normal;font-weight:normal;font-stretch:normal;font-size:85.33333333px;font-family:'Roadgeek 2005 Series E';-inkscape-font-specification:'Roadgeek 2005 Series E, Normal';font-variant-ligatures:normal;font-variant-caps:normal;font-variant-numeric:normal;font-feature-settings:normal;text-align:center;writing-mode:lr;text-anchor:middle;fill:#ffffff;fill-opacity:1;"
           ry="20.506096"
           rx="0" /></flowRegion><flowPara
         id="flowPara953">%num%</flowPara></flowRoot><text
       xml:space="preserve"
       style="font-style:normal;font-variant:normal;font-weight:normal;font-stretch:normal;font-size:76.8px;line-height:125%;font-family:'Roadgeek 2000 Series C';-inkscape-font-specification:'Roadgeek 2000 Series C, Normal';font-variant-ligatures:normal;font-variant-caps:normal;font-variant-numeric:normal;font-feature-settings:normal;text-align:center;letter-spacing:0px;word-spacing:0px;writing-mode:lr;text-anchor:middle;fill:#ffffff;fill-opacity:1;stroke:none;stroke-width:0.80000001px;stroke-linecap:butt;stroke-linejoin:miter;stroke-opacity:1;"
       x="5530.7319"
       y="3353.677"
       id="text853"
       transform="scale(1,-1)"><tspan
         sodipodi:role="line"
         id="tspan909">%num%</tspan></text>
<flowRoot
       xml:space="preserve"
       id="flowRoot855"
       style="fill:black;stroke:none;stroke-opacity:1;stroke-width:1px;stroke-linejoin:miter;stroke-linecap:butt;fill-opacity:1;font-family:sans-serif;font-style:normal;font-weight:normal;font-size:45px;line-height:125%;letter-spacing:0px;word-spacing:0px;text-anchor:middle;text-align:center"><flowRegion
         id="flowRegion857"><rect
           id="rect859"
           width="340"
           height="108.33334"
           x="-27"
           y="26.265625" /></flowRegion><flowPara
         id="flowPara861"></flowPara></flowRoot></g></svg>