<?xml version="1.0" encoding="UTF-8" standalone="no"?>
<!-- Created with Inkscape (http://www.inkscape.org/) -->

<svg
   xmlns:dc="http://purl.org/dc/elements/1.1/"
   xmlns:cc="http://creativecommons.org/ns#"
   xmlns:rdf="http://www.w3.org/1999/02/22-rdf-syntax-ns#"
   xmlns:svg="http://www.w3.org/2000/svg"
   xmlns="http://www.w3.org/2000/svg"
   xmlns:sodipodi="http://sodipodi.sourceforge.net/DTD/sodipodi-0.dtd"
   xmlns:inkscape="http://www.inkscape.org/namespaces/inkscape"
   version="1.0"
   width="60"
   height="48"
   id="svg2"
   inkscape:version="0.48.1 r9760"
   sodipodi:docname="US:NY-JRP.svg">
  <metadata
     id="metadata3136">
    <rdf:RDF>
      <cc:Work
         rdf:about="">
        <dc:format>image/svg+xml</dc:format>
        <dc:type
           rdf:resource="http://purl.org/dc/dcmitype/StillImage" />
      </cc:Work>
    </rdf:RDF>
  </metadata>
  <sodipodi:namedview
     pagecolor="#ffffff"
     bordercolor="#666666"
     borderopacity="1"
     objecttolerance="10"
     gridtolerance="10"
     guidetolerance="10"
     inkscape:pageopacity="0"
     inkscape:pageshadow="2"
     inkscape:window-width="1278"
     inkscape:window-height="996"
     id="namedview3134"
     showgrid="true"
     width="25px"
     inkscape:showpageshadow="false"
     inkscape:zoom="16.895833"
     inkscape:cx="30"
     inkscape:cy="24"
     inkscape:window-x="1"
     inkscape:window-y="27"
     inkscape:window-maximized="0"
     inkscape:current-layer="svg2">
    <inkscape:grid
       type="xygrid"
       id="grid3639"
       empspacing="5"
       visible="true"
       enabled="true"
       snapvisiblegridlinesonly="true" />
  </sodipodi:namedview>
  <defs
     id="defs4" />
  <path
     d="M 29.999997,1 C 25.066835,1 20.829935,1.737881 16.238913,4.426909 11.664806,7.106119 7.2054515,8.524783 1,8.524783 l 0,27.125132 c 0,2.409739 0.00463,2.410772 1.5635114,3.629206 C 5.2873319,41.408537 29.999997,47 29.999997,47 c 0,0 24.712669,-5.591463 27.436495,-7.720879 C 58.995376,38.060687 59,38.059654 59,35.649915 L 59,8.524783 c -6.205451,0 -10.66481,-1.418664 -15.238914,-4.097874 C 39.170064,1.737881 34.933162,1 29.999997,1 z"
     id="rect4804"
     style="fill:#006b54;stroke:none"
     inkscape:connector-curvature="0" />
  <path
     d="m 11.35794,13.746013 c -6e-6,0.286265 -0.0085,0.533517 -0.02565,0.741757 -0.0085,0.209273 -0.02994,0.398652 -0.06414,0.572271 -0.02566,0.175686 -0.06415,0.334061 -0.115451,0.481586 -0.05132,0.147266 -0.115456,0.303833 -0.192416,0.46841 -0.119735,0.232525 -0.282213,0.455491 -0.487447,0.663472 -0.196698,0.201522 -0.423315,0.373333 -0.6798603,0.520857 -0.2565555,0.147266 -0.5344853,0.26017 -0.8337898,0.338196 -0.290762,0.08784 -0.5857952,0.131764 -0.8851005,0.131764 -0.7782067,0 -1.4537907,-0.219607 -2.0267519,-0.663731 C 5.4829209,16.55828 5.0724397,15.950872 4.8158892,15.178629 l 1.6547534,-0.455233 c 0.1197216,0.364289 0.3206859,0.654946 0.6028948,0.87197 0.2822026,0.21444 0.6157186,0.325019 1.000548,0.325019 0.1539285,0 0.3035814,-0.02584 0.448964,-0.05167 0.1453717,-0.04392 0.2822019,-0.100761 0.4104813,-0.170519 0.1282708,-0.07751 0.2394432,-0.165351 0.333516,-0.260429 0.1026156,-0.09559 0.1753027,-0.201522 0.2180664,-0.312359 0.034202,-0.07751 0.064133,-0.152433 0.089793,-0.222191 0.02565,-0.06976 0.042754,-0.147266 0.05131,-0.235109 0.017093,-0.08784 0.02565,-0.18602 0.025655,-0.299183 0.00852,-0.12143 0.01282,-0.269212 0.01282,-0.442573 l 0,-5.140105 1.6932349,0 0,4.95796 0,0"
     id="text1352"
     style="fill:#ffffff;stroke:none"
     inkscape:connector-curvature="0" />
  <path
     d="m 19.845817,29.442001 -1.180134,-3.279385 -2.257648,0 0,3.279385 -1.693235,0 0,-8.744509 3.886745,0 c 0.179582,0 0.337787,0 0.474619,0.02584 0.145372,0 0.277924,0.02584 0.397654,0.05167 0.128269,0.02584 0.247993,0.06459 0.359172,0.116263 0.111162,0.04392 0.226613,0.100761 0.346343,0.170518 0.419026,0.240277 0.748266,0.57253 0.98772,0.989009 0.239441,0.41622 0.359164,0.871712 0.359172,1.366216 -8e-6,0.477195 -0.106907,0.91951 -0.320689,1.327205 -0.213798,0.407694 -0.517384,0.741756 -0.910755,1.002184 L 21.6545,29.442 l -1.808683,0 m 0,-6.024994 c -7e-6,-0.277739 -0.102626,-0.507681 -0.307861,-0.689826 -0.205247,-0.191187 -0.466073,-0.286006 -0.78248,-0.286006 l -2.347441,0 0,1.977759 2.347441,0 c 0.316407,0 0.577233,-0.09043 0.78248,-0.273346 0.205234,-0.183437 0.307854,-0.425264 0.307861,-0.728581"
     id="text2229"
     style="fill:#ffffff;stroke:none"
     inkscape:connector-curvature="0" />
  <path
     d="m 29.571234,35.282783 c -8e-6,0.503288 -0.11973,0.971698 -0.359168,1.405487 -0.239484,0.425005 -0.564421,0.750541 -0.974894,0.97609 -0.128276,0.06976 -0.252278,0.131765 -0.371997,0.183437 -0.111208,0.04392 -0.230912,0.07751 -0.359175,0.105928 -0.11973,0.02584 -0.256555,0.04651 -0.410478,0.06459 -0.145395,0 -0.316419,0.02584 -0.513106,0.02584 l -2.257645,0 0,3.278868 -1.693236,0 0,-8.744507 4.040674,0 c 0.359165,0 0.649926,0.02584 0.872273,0.07751 0.22234,0.05167 0.453237,0.147266 0.69269,0.286265 0.410473,0.24286 0.735436,0.572529 0.974894,0.989008 0.239459,0.416479 0.35916,0.871971 0.359168,1.366475 m -1.693237,0 c -5e-6,-0.277745 -0.102636,-0.507687 -0.307857,-0.689574 -0.196725,-0.191187 -0.457525,-0.286264 -0.78248,-0.286264 l -2.462889,0 0,1.977758 2.462889,0 c 0.333507,0 0.59861,-0.09043 0.795305,-0.273088 0.1967,-0.183437 0.295027,-0.425264 0.295032,-0.728838"
     id="text2233"
     style="fill:#ffffff;stroke:none"
     inkscape:connector-curvature="0" />
  <path
     d="m 16.251965,16.046724 0,-0.139515 c -0.19963,0.08268 -0.393553,0.134348 -0.58177,0.1576 -0.188225,0.02842 -0.362184,0.04392 -0.521884,0.04392 -0.233852,0 -0.447736,-0.03617 -0.641658,-0.103345 -0.193925,-0.06976 -0.362183,-0.167935 -0.504773,-0.295049 -0.142591,-0.129181 -0.253815,-0.277739 -0.333662,-0.451099 -0.07415,-0.180854 -0.111224,-0.373333 -0.111221,-0.581314 0,-0.222191 0.04278,-0.42268 0.128332,-0.607667 0.09126,-0.18602 0.213885,-0.344396 0.367885,-0.477452 0.153997,-0.139515 0.336512,-0.248027 0.547548,-0.320885 0.211034,-0.08268 0.439178,-0.12143 0.684437,-0.12143 0.119773,0 0.268069,0 0.444884,0.03617 0.176811,0.02584 0.35077,0.06717 0.521883,0.131765 -0.01142,-0.204106 -0.08556,-0.347238 -0.222442,-0.434048 -0.136888,-0.09301 -0.310851,-0.139515 -0.521882,-0.139515 -0.399257,0 -0.79566,0.111096 -1.189209,0.329928 l -0.419217,-0.920026 c 0.153997,-0.08268 0.296588,-0.14985 0.427773,-0.209273 0.136883,-0.05942 0.268069,-0.105928 0.39355,-0.139515 0.131181,-0.03617 0.259514,-0.06201 0.384996,-0.07751 0.125478,-0.02584 0.259513,-0.02584 0.402107,-0.02584 0.576064,0 1.023799,0.144683 1.343206,0.434048 0.325103,0.283422 0.487657,0.723154 0.487661,1.319194 l 0,2.594726 -1.086543,0 m 0,-1.70932 c -0.171111,-0.06459 -0.347925,-0.111096 -0.530438,-0.139516 -0.176816,-0.03617 -0.322258,-0.05167 -0.436328,-0.05167 -0.182519,0 -0.336517,0.0465 -0.461995,0.139515 -0.119778,0.08784 -0.179665,0.198939 -0.179663,0.329928 -10e-7,0.134348 0.07414,0.248027 0.222442,0.34698 0.148292,0.09818 0.322253,0.147266 0.521883,0.147266 0.119777,0 0.250955,-0.02584 0.39355,-0.04392 0.148292,-0.02842 0.305142,-0.09043 0.470551,-0.183437 l 0,-0.546435 m 6.634221,0.936819 c -0.09126,0.116263 -0.165408,0.204106 -0.222442,0.260687 -0.05704,0.05942 -0.131188,0.118846 -0.222441,0.183437 -0.35363,0.260428 -0.750032,0.390384 -1.189209,0.390384 -0.296592,0 -0.57607,-0.05426 -0.838434,-0.165351 -0.256666,-0.111096 -0.481959,-0.26017 -0.675881,-0.4511 -0.193928,-0.198938 -0.347923,-0.428105 -0.461995,-0.694476 -0.114072,-0.271538 -0.171108,-0.569687 -0.171108,-0.893931 -1e-6,-0.318043 0.05704,-0.61025 0.171108,-0.876363 0.114072,-0.272055 0.268069,-0.506389 0.461995,-0.703002 0.193919,-0.198938 0.419215,-0.350338 0.675881,-0.459883 0.262364,-0.111096 0.541842,-0.165352 0.838434,-0.165352 0.245255,0 0.484806,0.04392 0.718659,0.131765 0.23955,0.08784 0.444879,0.21444 0.615992,0.381858 0.04563,0.04134 0.0884,0.08784 0.128332,0.139515 0.03992,0.0465 0.09696,0.111096 0.171108,0.191188 l -0.761435,0.954646 c -0.07986,-0.227358 -0.196782,-0.396327 -0.350775,-0.512331 -0.154002,-0.12143 -0.327961,-0.183437 -0.521882,-0.183437 -0.136889,0 -0.268074,0.02842 -0.393551,0.08784 -0.11978,0.05167 -0.228147,0.129181 -0.325107,0.227359 -0.09126,0.09818 -0.165406,0.21444 -0.222442,0.355764 -0.05133,0.134348 -0.077,0.277738 -0.077,0.433789 -2e-6,0.1576 0.02567,0.303833 0.077,0.442832 0.05703,0.134348 0.131181,0.248027 0.222442,0.347238 0.09696,0.09818 0.205327,0.178269 0.325107,0.235109 0.125478,0.05167 0.256661,0.07751 0.393551,0.07751 0.171106,0 0.322252,-0.04392 0.453439,-0.131764 0.136884,-0.08784 0.262364,-0.227358 0.37644,-0.416221 l 0.804213,0.81539 0,0 m 4.345233,-2.169463 1.163543,2.941964 -1.163543,0 -0.761434,-1.961223 -0.667327,0.676907 0,1.284316 -1.146427,0 0,-5.467708 1.146427,-0.451357 0,2.881765 1.206322,-1.189238 1.428759,0 -1.20632,1.284574 m 4.101811,-2.404055 c -2e-6,0.152433 -0.0542,0.283422 -0.162564,0.399168 -0.108359,0.116263 -0.242409,0.175686 -0.402109,0.175686 -0.148294,0 -0.276629,-0.05942 -0.384996,-0.175686 -0.108359,-0.116262 -0.162564,-0.25061 -0.162564,-0.399168 -2e-6,-0.167935 0.0542,-0.303834 0.162564,-0.407953 0.10836,-0.111096 0.236737,-0.165352 0.384996,-0.165352 0.159715,0 0.293735,0.05426 0.402109,0.165352 0.108359,0.105928 0.162564,0.237692 0.162564,0.407953 m -1.129326,5.346019 0,-4.243849 1.146432,0 0,4.243849 -1.146432,0 m 4.083896,-1.752984 c 0.06275,0.245444 0.171086,0.433789 0.325108,0.572788 0.153992,0.134348 0.322252,0.201522 0.504771,0.201522 0.23956,0 0.453437,-0.131765 0.641659,-0.390385 l 0.787102,0.69396 c -0.216769,0.260428 -0.439183,0.448516 -0.667327,0.564262 -0.228139,0.116262 -0.481959,0.173102 -0.761434,0.173102 -0.268075,0 -0.521887,-0.05426 -0.761437,-0.165351 -0.23956,-0.116263 -0.450588,-0.271797 -0.633102,-0.468668 -0.182532,-0.196355 -0.32796,-0.428106 -0.436329,-0.694477 -0.108359,-0.271538 -0.162564,-0.563745 -0.162564,-0.876362 0,-0.306417 0.05133,-0.59294 0.154017,-0.859053 0.108359,-0.266112 0.250956,-0.497863 0.427772,-0.694217 0.176834,-0.204106 0.382142,-0.361707 0.615994,-0.477711 0.233837,-0.116263 0.479103,-0.175686 0.735766,-0.175686 0.342219,0 0.655919,0.100761 0.941102,0.303833 0.290883,0.198939 0.513322,0.462726 0.667325,0.798338 0.07985,0.198938 0.139747,0.402269 0.179657,0.616451 0.03993,0.209273 0.05988,0.445415 0.05988,0.711528 l 0,0.165351 -2.617967,0 m 1.428761,-0.963431 c -0.07984,-0.211856 -0.171111,-0.36429 -0.273777,-0.451099 -0.09699,-0.09301 -0.225316,-0.139515 -0.384996,-0.139515 -0.154017,0 -0.296591,0.05167 -0.427771,0.1576 -0.125478,0.09818 -0.219593,0.240277 -0.282329,0.43379 l 1.368873,0 0,0"
     id="text2239"
     style="fill:#ffffff;stroke:none"
     inkscape:connector-curvature="0" />
  <path
     d="m 26.40387,25.890303 c -5e-6,0.306417 -0.0542,0.59294 -0.162564,0.859311 -0.108359,0.265854 -0.25383,0.500447 -0.436331,0.702744 -0.182532,0.198938 -0.393555,0.35318 -0.6331,0.468926 -0.233863,0.111096 -0.47911,0.165352 -0.735772,0.165352 -0.262369,0 -0.510478,-0.05426 -0.744325,-0.165352 -0.23385,-0.116262 -0.43918,-0.272055 -0.615992,-0.468926 -0.176813,-0.204106 -0.316552,-0.43689 -0.419216,-0.702744 -0.102667,-0.266371 -0.154,-0.552894 -0.154,-0.859311 -10e-7,-0.318301 0.04848,-0.613608 0.145443,-0.885405 0.102664,-0.272055 0.239552,-0.506389 0.410661,-0.703002 0.176812,-0.204106 0.382142,-0.358606 0.615993,-0.468668 0.233837,-0.116263 0.487659,-0.173102 0.761436,-0.173102 0.250956,0 0.49336,0.05942 0.727212,0.173102 0.239561,0.116263 0.450584,0.274638 0.633108,0.477194 0.182532,0.204106 0.327952,0.43999 0.436323,0.711786 0.114083,0.272055 0.171086,0.56142 0.171086,0.868095 m -1.163538,0 c -5e-6,-0.1576 -0.02289,-0.303833 -0.06845,-0.442573 -0.04561,-0.139515 -0.105535,-0.258362 -0.179657,-0.356023 -0.07415,-0.105928 -0.159715,-0.18602 -0.256664,-0.242859 -0.09696,-0.05942 -0.196776,-0.08784 -0.29944,-0.08784 -0.114082,0 -0.219593,0.02842 -0.316554,0.08784 -0.09127,0.05942 -0.173959,0.139515 -0.248107,0.242859 -0.06845,0.09818 -0.122628,0.217024 -0.162564,0.356023 -0.03993,0.139515 -0.0599,0.286265 -0.05988,0.442573 0,0.152434 0.01984,0.292207 0.05988,0.425264 0.03994,0.134348 0.09412,0.25061 0.162564,0.347238 0.07415,0.09818 0.156841,0.178269 0.248107,0.235109 0.09696,0.05684 0.202474,0.08784 0.316554,0.08784 0.102661,0 0.202474,-0.02842 0.29944,-0.08784 0.09696,-0.05942 0.182506,-0.136932 0.256664,-0.235109 0.07415,-0.09818 0.134024,-0.214441 0.179657,-0.347238 0.04561,-0.134348 0.06845,-0.275156 0.06845,-0.425264 m 6.71229,-0.02584 c -5e-6,0.295049 -0.04848,0.578472 -0.145446,0.850527 -0.09699,0.266112 -0.228139,0.500446 -0.393547,0.703002 -0.159715,0.198938 -0.34793,0.356022 -0.564666,0.477452 -0.216769,0.116263 -0.44488,0.175686 -0.684435,0.175686 -0.165388,0 -0.322259,-0.02584 -0.470549,-0.06201 -0.148294,-0.04134 -0.273777,-0.111095 -0.376438,-0.209273 l 0,0.209273 -1.146433,0 0,-5.467966 1.146433,-0.4511 0,1.857105 c 0.11978,-0.09818 0.248107,-0.170519 0.384993,-0.217024 0.142596,-0.0465 0.288029,-0.06976 0.436328,-0.06976 0.245258,0 0.479103,0.06201 0.701547,0.183437 0.222467,0.116262 0.413512,0.274638 0.57322,0.477193 0.165388,0.204106 0.296584,0.43689 0.393547,0.703003 0.09696,0.26637 0.145446,0.546693 0.145446,0.842 m -1.146435,0 c -3e-6,-0.152433 -0.02289,-0.292207 -0.06845,-0.425263 -0.03993,-0.134348 -0.09699,-0.248027 -0.171085,-0.347238 -0.07417,-0.105928 -0.162564,-0.186021 -0.265223,-0.24286 -0.09699,-0.05942 -0.202499,-0.08784 -0.316551,-0.08784 -0.142597,0 -0.270926,0.031 -0.384998,0.09559 -0.108359,0.06459 -0.202499,0.167935 -0.282327,0.312359 l 0,1.388952 c 0.07984,0.144683 0.17396,0.250611 0.282327,0.312101 0.108359,0.06459 0.228139,0.09559 0.35933,0.09559 0.11978,0 0.230988,-0.02842 0.333665,-0.08784 0.108359,-0.05942 0.199625,-0.136931 0.273777,-0.235109 0.07415,-0.09818 0.13115,-0.21444 0.171085,-0.347238 0.04561,-0.134348 0.06845,-0.27748 0.06845,-0.433789 m 4.041921,-3.202652 c -3e-6,0.152433 -0.05421,0.283423 -0.162564,0.399169 -0.108359,0.116262 -0.242409,0.175686 -0.402107,0.175686 -0.148294,0 -0.276626,-0.05942 -0.384995,-0.175686 -0.108359,-0.116263 -0.162564,-0.248027 -0.162564,-0.399169 -3e-6,-0.167935 0.0542,-0.303575 0.162564,-0.407695 0.108359,-0.111095 0.236736,-0.165351 0.384995,-0.165351 0.159715,0 0.293737,0.05426 0.402107,0.165351 0.108359,0.105929 0.162564,0.237693 0.162564,0.407695 m -1.129319,5.346537 0,-4.244365 1.14643,0 0,4.244365 -1.14643,0 m 6.094419,0 0,-2.552097 c -2e-6,-0.198938 -0.06275,-0.361448 -0.188229,-0.494504 -0.11978,-0.134348 -0.290891,-0.201522 -0.513328,-0.201522 -0.102661,0 -0.202499,0.02584 -0.299445,0.06201 -0.09124,0.03617 -0.176834,0.08526 -0.256661,0.147266 -0.07417,0.06459 -0.13405,0.136932 -0.179683,0.21444 -0.04561,0.08268 -0.06845,0.165352 -0.06845,0.250611 l 0,2.569148 -1.14643,0 0,-4.244365 1.14643,0 0,0.227358 c 0.193927,-0.12143 0.382139,-0.206689 0.564663,-0.25061 0.182532,-0.05167 0.370731,-0.07751 0.564655,-0.07751 0.21677,0 0.416364,0.03875 0.598886,0.113679 0.182531,0.06976 0.339357,0.167935 0.470548,0.295049 0.136873,0.129181 0.242409,0.280581 0.316551,0.460142 0.07984,0.173102 0.11978,0.361448 0.11978,0.564003 l 0,2.916387 -1.129323,0 m 6.570059,-1.223859 c -5e-6,0.18602 -0.02851,0.347238 -0.08554,0.485978 -0.05705,0.134348 -0.151169,0.258361 -0.282334,0.373074 -0.182532,0.152433 -0.396407,0.260429 -0.641657,0.329928 -0.239586,0.06459 -0.52759,0.09559 -0.864101,0.09559 -0.199625,0 -0.382146,0 -0.547549,-0.02584 -0.159715,0 -0.316554,-0.031 -0.470551,-0.06201 -0.148294,-0.03617 -0.29374,-0.07751 -0.436326,-0.131765 -0.136899,-0.05167 -0.282332,-0.116262 -0.436332,-0.191187 l 0.444886,-1.024146 c 0.211021,0.103345 0.44488,0.18602 0.701547,0.24286 0.256661,0.05942 0.49051,0.08784 0.701549,0.08784 0.233837,0 0.419212,-0.02584 0.556104,-0.06201 0.142596,-0.04134 0.213894,-0.100761 0.213894,-0.183437 -5e-6,-0.06459 -0.02566,-0.118846 -0.077,-0.165351 -0.05136,-0.0465 -0.13405,-0.08268 -0.248106,-0.105929 -0.05705,-0.02584 -0.125478,-0.03617 -0.205323,-0.05167 -0.07984,-0.02584 -0.162564,-0.03617 -0.248107,-0.05167 -0.07984,-0.02584 -0.156866,-0.04392 -0.231014,-0.06201 -0.07417,-0.02584 -0.13405,-0.04392 -0.179657,-0.06201 -0.456294,-0.134347 -0.789954,-0.306675 -1.000989,-0.520856 -0.205323,-0.219608 -0.307997,-0.494505 -0.307997,-0.824691 0,-0.381858 0.154017,-0.679749 0.461994,-0.893673 0.307997,-0.222191 0.724363,-0.32967 1.249098,-0.32967 0.290881,0 0.58177,0.03617 0.872658,0.105928 0.290881,0.06459 0.60458,0.180853 0.941099,0.347238 l -0.444883,1.024146 c -0.211046,-0.116263 -0.439182,-0.20669 -0.684435,-0.268955 -0.239561,-0.06976 -0.453443,-0.105928 -0.641662,-0.105928 -0.216769,0 -0.373587,0.02584 -0.470548,0.05167 -0.09127,0.03617 -0.136899,0.09301 -0.136899,0.175686 -3e-6,0.04134 0.0058,0.07493 0.0173,0.105928 0.0173,0.02842 0.04848,0.05426 0.09411,0.07751 0.05133,0.02584 0.122629,0.03875 0.213895,0.06201 0.09124,0.02584 0.211021,0.03875 0.35933,0.06201 0.604581,0.126597 1.058023,0.309517 1.360317,0.546694 0.302287,0.232525 0.453435,0.546693 0.45344,0.94612 m 5.168963,-0.893931 c -5e-6,0.306416 -0.05421,0.592939 -0.162564,0.85931 -0.108359,0.265855 -0.253805,0.500447 -0.436329,0.702744 -0.182532,0.198939 -0.393552,0.35318 -0.6331,0.468926 -0.233837,0.111096 -0.479112,0.165352 -0.735771,0.165352 -0.262369,0 -0.510478,-0.05426 -0.744326,-0.165352 -0.233862,-0.116262 -0.439182,-0.272054 -0.615991,-0.468926 -0.176834,-0.204106 -0.316556,-0.436889 -0.419215,-0.702744 -0.102661,-0.266371 -0.153992,-0.552894 -0.153992,-0.85931 0,-0.318302 0.04848,-0.613609 0.145445,-0.885406 0.102662,-0.272055 0.239561,-0.506389 0.410661,-0.703002 0.176834,-0.201522 0.382142,-0.358606 0.615991,-0.468668 0.233837,-0.116263 0.487665,-0.173102 0.76144,-0.173102 0.250955,0 0.493362,0.05942 0.727217,0.173102 0.23956,0.116263 0.450581,0.274639 0.633102,0.477194 0.182532,0.204106 0.327955,0.43999 0.436326,0.711786 0.114083,0.272055 0.171086,0.56142 0.171111,0.868096 m -1.163543,0 c 0,-0.157601 -0.02289,-0.303834 -0.06845,-0.442574 -0.04561,-0.139515 -0.10551,-0.258362 -0.179657,-0.356022 -0.07415,-0.105929 -0.159715,-0.186021 -0.256661,-0.24286 -0.09699,-0.05942 -0.196802,-0.08784 -0.29944,-0.08784 -0.114083,0 -0.219593,0.02842 -0.316549,0.08784 -0.09129,0.05942 -0.173985,0.139515 -0.248107,0.24286 -0.06845,0.09818 -0.122629,0.217024 -0.162564,0.356022 -0.03993,0.139515 -0.05988,0.286265 -0.05988,0.442574 0,0.152433 0.02009,0.292207 0.05988,0.425263 0.03993,0.134348 0.09412,0.248027 0.162564,0.347238 0.07417,0.09818 0.156841,0.178269 0.248107,0.235109 0.09696,0.05684 0.2025,0.08784 0.316549,0.08784 0.102661,0 0.202499,-0.02842 0.29944,-0.08784 0.09696,-0.05942 0.182532,-0.136932 0.256661,-0.235109 0.07417,-0.09818 0.13405,-0.21444 0.179657,-0.347238 0.04561,-0.134348 0.06845,-0.274897 0.06845,-0.425263 m 5.582966,2.11779 0,-2.551838 c -5e-6,-0.198939 -0.06275,-0.361706 -0.188229,-0.494762 -0.11978,-0.134349 -0.290886,-0.201523 -0.513325,-0.201523 -0.102662,0 -0.202499,0.02584 -0.299448,0.06201 -0.09124,0.03617 -0.176834,0.08526 -0.256661,0.147266 -0.07415,0.06459 -0.13405,0.136932 -0.179657,0.214441 -0.04561,0.08268 -0.06845,0.165351 -0.06845,0.25061 l 0,2.569149 -1.146432,0 0,-4.244365 1.146432,0 0,0.227358 c 0.193927,-0.12143 0.382144,-0.20669 0.564661,-0.250611 0.182532,-0.05167 0.370736,-0.07751 0.564658,-0.07751 0.216769,0 0.416363,0.03875 0.598885,0.113679 0.182532,0.06976 0.339363,0.167935 0.470546,0.295049 0.136873,0.129181 0.242409,0.280581 0.316556,0.460142 0.07984,0.173103 0.11978,0.361448 0.11978,0.564004 l 0,2.916386 -1.129326,0"
     id="text3116"
     style="fill:#ffffff;stroke:none"
     inkscape:connector-curvature="0" />
  <path
     d="m 34.10189,36.862147 1.163541,2.942223 -1.163541,0 -0.761437,-1.961482 -0.667327,0.676908 0,1.284574 -1.146429,0 0,-5.467966 1.146429,-0.4511 0,2.881508 1.20632,-1.18898 1.428761,0 -1.206317,1.284315 m 6.950772,2.942223 -1.103654,0 -0.521884,-2.100222 -0.667324,2.100222 -1.103656,0 -1.20632,-4.244107 1.163544,0 0.590325,2.022455 0.581775,-2.022455 1.249093,0 0.496216,1.99636 0.564664,-1.99636 1.189203,0 -1.231982,4.244107 m 4.703224,1.631554 -1.146429,0 0.684438,-1.692269 -1.976308,-4.183392 1.308983,0 1.146433,2.812008 1.146429,-2.812008 1.206315,0 -2.369861,5.875661"
     id="text3120"
     style="fill:#ffffff;stroke:none"
     inkscape:connector-curvature="0" />
</svg>
