<?xml version="1.0" encoding="UTF-8" standalone="no"?>
<!-- Created with Inkscape (http://www.inkscape.org/) -->

<svg
   xmlns:dc="http://purl.org/dc/elements/1.1/"
   xmlns:cc="http://creativecommons.org/ns#"
   xmlns:rdf="http://www.w3.org/1999/02/22-rdf-syntax-ns#"
   xmlns:svg="http://www.w3.org/2000/svg"
   xmlns="http://www.w3.org/2000/svg"
   xmlns:sodipodi="http://sodipodi.sourceforge.net/DTD/sodipodi-0.dtd"
   xmlns:inkscape="http://www.inkscape.org/namespaces/inkscape"
   version="1.0"
   width="48"
   height="48"
   id="svg2"
   inkscape:version="0.48.1 r9760"
   sodipodi:docname="US:NJ-GSP.svg">
  <metadata
     id="metadata3027">
    <rdf:RDF>
      <cc:Work
         rdf:about="">
        <dc:format>image/svg+xml</dc:format>
        <dc:type
           rdf:resource="http://purl.org/dc/dcmitype/StillImage" />
      </cc:Work>
    </rdf:RDF>
  </metadata>
  <sodipodi:namedview
     pagecolor="#ffffff"
     bordercolor="#666666"
     borderopacity="1"
     objecttolerance="10"
     gridtolerance="10"
     guidetolerance="10"
     inkscape:pageopacity="0"
     inkscape:pageshadow="2"
     inkscape:window-width="1278"
     inkscape:window-height="996"
     id="namedview3025"
     showgrid="true"
     inkscape:showpageshadow="false"
     inkscape:zoom="16.895833"
     inkscape:cx="24"
     inkscape:cy="24"
     inkscape:window-x="1"
     inkscape:window-y="27"
     inkscape:window-maximized="0"
     inkscape:current-layer="svg2">
    <inkscape:grid
       type="xygrid"
       id="grid3136"
       empspacing="5"
       visible="true"
       enabled="true"
       snapvisiblegridlinesonly="true" />
  </sodipodi:namedview>
  <defs
     id="defs5" />
  <g
     id="g3140">
    <path
       d="M 22.620134,46.984533 C 21.37313,46.927349 19.467259,46.615313 18.074896,46.24037 16.005702,45.683164 13.660245,44.658835 11.77338,43.488313 10.350514,42.60563 8.741188,41.313691 7.6689569,40.193351 5.8980027,38.342934 4.855979,36.916095 3.6486494,34.688356 2.0962097,31.82383 1.1655058,28.34969 1.015713,24.86011 0.9518803,23.373056 1.085418,21.513593 1.3637916,20.013265 1.4184126,19.718879 1.4707019,19.415859 1.4799903,19.339889 1.5266943,18.957893 1.8808966,17.619445 2.1725508,16.722863 2.5923361,15.432391 3.1337332,14.206124 3.8757444,12.865117 5.9126446,9.1839137 9.0411174,6.0415336 12.751955,3.9494486 13.78862,3.3650011 13.682497,3.417746 14.81118,2.9259746 17.272842,1.853419 20.175014,1.1782934 22.931964,1.0368553 c 0.957303,-0.0491118 1.154096,-0.0491243 2.125721,-1.347e-4 2.821291,0.1422508 5.780819,0.8382316 8.225613,1.9343852 3.703564,1.6605382 6.70305,4.0501594 9.202433,7.3313592 1.305748,1.714191 2.346761,3.677468 3.226487,6.084928 0.564916,1.54596 0.934732,3.137741 1.17534,5.058955 L 47,22.344182 l -3.46e-4,1.674809 -3.46e-4,1.674807 -0.112189,0.897835 c -0.378005,3.025119 -1.106357,5.368511 -2.516711,8.097265 -1.106867,2.141572 -2.05854,3.441654 -4.018848,5.490158 -1.583338,1.654575 -3.622173,3.14736 -5.81377,4.2567 -0.852714,0.431628 -1.036325,0.520385 -1.738582,0.840436 -0.152085,0.06932 -0.657591,0.264334 -1.123349,0.433382 -1.505911,0.546578 -3.236759,0.946964 -5.051257,1.16848 -0.772298,0.09428 -0.972007,0.105305 -2.143002,0.118303 -0.710235,0.0079 -1.54798,0.0026 -1.861653,-0.01183 z"
       style="fill:#fefe00"
       id="path2193"
       inkscape:connector-curvature="0" />
    <path
       d="M 22.620134,46.984533 C 21.37313,46.927349 19.467259,46.615313 18.074896,46.24037 16.005702,45.683164 13.660245,44.658835 11.77338,43.488313 10.350514,42.60563 8.741188,41.313691 7.6689569,40.193351 5.8980027,38.342934 4.855979,36.916095 3.6486494,34.688356 2.0962097,31.82383 1.1655058,28.34969 1.015713,24.86011 0.9518803,23.373056 1.085418,21.513593 1.3637916,20.013265 1.4184126,19.718879 1.4707019,19.415859 1.4799903,19.339889 1.5266943,18.957893 1.8808966,17.619445 2.1725508,16.722863 2.5923361,15.432391 3.1337332,14.206124 3.8757444,12.865117 5.9126446,9.1839137 9.0411174,6.0415336 12.751955,3.9494486 13.78862,3.3650011 13.682497,3.417746 14.81118,2.9259746 17.272842,1.853419 20.175014,1.1782934 22.931964,1.0368553 c 0.957303,-0.0491118 1.154096,-0.0491243 2.125721,-1.347e-4 2.821291,0.1422508 5.780819,0.8382316 8.225613,1.9343852 3.703564,1.6605382 6.70305,4.0501594 9.202433,7.3313592 1.305748,1.714191 2.346761,3.677468 3.226487,6.084928 0.564916,1.54596 0.934732,3.137741 1.17534,5.058955 L 47,22.344182 l -3.46e-4,1.674809 -3.46e-4,1.674807 -0.112189,0.897835 c -0.378005,3.025119 -1.106357,5.368511 -2.516711,8.097265 -1.106867,2.141572 -2.05854,3.441654 -4.018848,5.490158 -1.583338,1.654575 -3.622173,3.14736 -5.81377,4.2567 -0.852714,0.431628 -1.036325,0.520385 -1.738582,0.840436 -0.152085,0.06932 -0.657591,0.264334 -1.123349,0.433382 -1.505911,0.546578 -3.236759,0.946964 -5.051257,1.16848 -0.772298,0.09428 -0.972007,0.105305 -2.143002,0.118303 -0.710235,0.0079 -1.54798,0.0026 -1.861653,-0.01183 z m 2.343086,-0.625106 c 1.036602,-0.04414 2.275766,-0.186457 3.446498,-0.395829 2.563802,-0.458503 5.598429,-1.720133 8.018954,-3.33384 1.919951,-1.279981 3.785065,-3.015141 5.175839,-4.815189 1.595251,-2.064706 2.481068,-3.63455 3.400205,-6.025853 0.963373,-2.506385 1.485087,-5.821024 1.362413,-8.655888 -0.101343,-2.341997 -0.606728,-4.90265 -1.363152,-6.906739 C 43.960075,13.460353 42.613779,11.270678 40.481284,8.8701908 39.73112,8.0257526 38.666232,7.0803862 37.364635,6.1033554 36.072962,5.1337717 34.935267,4.4438552 33.591524,3.815279 30.786267,2.5030356 28.319906,1.8816145 25.100141,1.6758014 L 24.002716,1.605652 22.905292,1.6758014 C 21.291084,1.7789844 19.947867,1.9769804 18.54434,2.3186247 17.625785,2.5422178 17.349182,2.6264774 16.433079,2.961761 12.961437,4.2323457 9.9100095,6.2643617 7.4344385,8.9541625 6.4673753,10.004913 5.6267443,11.142779 4.8038584,12.514877 c -0.4703139,0.784211 -1.1072511,2.002597 -1.1435208,2.187418 -0.00634,0.03233 -0.089064,0.23434 -0.1838222,0.448918 -0.3388042,0.767215 -0.772682,1.969043 -1.0084216,2.793297 -1.2931292,4.521373 -1.0916132,9.505198 0.5589105,13.822786 1.1157461,2.918671 2.402916,5.016259 4.5584778,7.428557 1.0974591,1.228173 2.6512659,2.557598 4.0431249,3.459269 2.067666,1.339473 4.112742,2.281433 6.316604,2.909423 1.695066,0.483012 3.843864,0.783251 5.911943,0.82604 0.138561,0.0029 0.636291,-0.01116 1.106066,-0.03115 z m -1.807335,-1.280033 c -0.53736,-0.0245 -1.731602,-0.128646 -2.184234,-0.190465 -0.121737,-0.01663 -0.139851,-0.02888 -0.113207,-0.0766 0.01744,-0.03124 0.05504,-0.116007 0.08354,-0.188369 0.0285,-0.07235 0.183242,-0.322074 0.343873,-0.554924 0.237973,-0.344969 0.3436,-0.463929 0.570436,-0.642436 0.408896,-0.32177 0.51715,-0.51351 0.575473,-1.01926 0.031,-0.268811 0.08748,-0.401435 0.257223,-0.603984 0.07624,-0.09097 0.186069,-0.266719 0.244074,-0.390554 0.10172,-0.217169 0.120393,-0.30542 0.204407,-0.966033 0.0212,-0.166665 0.04734,-0.325945 0.0581,-0.353954 0.01642,-0.04274 0.141941,-0.05093 0.78175,-0.05093 1.931347,0 3.857947,-0.359646 5.837521,-1.089709 0.833183,-0.307278 1.681788,-0.73762 2.669573,-1.353791 1.338617,-0.835017 2.433195,-1.749963 3.465203,-2.896519 1.231814,-1.368537 2.405505,-3.299613 3.058833,-5.032702 0.149488,-0.396548 0.271798,-0.726761 0.271798,-0.733808 0,-0.0071 -6.86711,-0.01281 -15.260247,-0.01281 -8.393138,0 -15.2602496,0.005 -15.2602496,0.01115 0,0.0061 0.1234898,0.346271 0.2744218,0.755854 0.6785742,1.841444 1.8086498,3.684069 3.1294248,5.10263 1.496921,1.607749 2.842605,2.615372 4.819103,3.608451 l 0.799067,0.401487 0.146564,0.263508 c 0.187032,0.336259 0.263082,0.414386 0.427862,0.439535 0.07342,0.0112 0.18014,0.03712 0.237172,0.05759 0.219752,0.07887 0.261645,0.07451 0.540526,-0.05624 l 0.276988,-0.129861 0.247969,0.07836 c 0.136384,0.04311 0.377886,0.106318 0.536671,0.140477 0.158786,0.03416 0.293889,0.06728 0.300229,0.07362 0.0063,0.0063 -0.09461,0.228768 -0.224322,0.494299 -0.129718,0.265528 -0.246635,0.548174 -0.259818,0.628102 -0.01513,0.09176 -0.08853,0.237166 -0.199127,0.394504 -0.174176,0.247785 -0.175254,0.250973 -0.191829,0.567571 -0.01349,0.25773 -0.0059,0.333704 0.03969,0.398783 0.031,0.04422 0.05637,0.0928 0.05637,0.107968 0,0.01516 -0.106951,0.132738 -0.237669,0.261277 -0.253023,0.248807 -0.376336,0.453438 -0.472596,0.784255 -0.04856,0.166894 -0.05543,0.279272 -0.03699,0.60522 0.01246,0.22015 0.03705,0.450476 0.05466,0.511836 0.02781,0.09686 0.02431,0.109256 -0.02655,0.09405 -0.03221,-0.0096 -0.39298,-0.11137 -0.801706,-0.226089 C 16.2364,43.740926 14.286896,42.832983 12.285332,41.53818 10.686831,40.50412 8.7154295,38.677406 7.4282736,37.037596 5.3899187,34.440777 4.1018708,31.633868 3.3337261,28.114774 3.1323605,27.19226 3.011362,26.155403 2.9515667,24.839986 c -0.072194,-1.588161 0.078758,-3.527628 0.3850412,-4.947113 0.3425638,-1.587631 0.9164276,-3.390697 1.4435144,-4.535487 0.1340334,-0.291109 0.2538389,-0.561214 0.2662345,-0.600232 0.086272,-0.271565 0.8341895,-1.5805 1.347471,-2.35822 0.8652309,-1.310989 1.6688374,-2.289663 2.6850669,-3.2700144 0.4233011,-0.4083561 1.1040503,-1.0266594 1.5127763,-1.3740072 0.606155,-0.5151298 0.90879,-0.7406962 1.641816,-1.2237145 1.9833,-1.3068713 3.553284,-2.0556339 5.573733,-2.6582466 2.765062,-0.8246981 5.282829,-1.0795867 8.211447,-0.831294 0.929569,0.078811 1.126878,0.1072815 2.038471,0.2941458 1.498035,0.307077 2.685444,0.6613451 3.895425,1.1622151 2.004363,0.8297031 3.789916,1.8870207 5.426635,3.2133878 0.680693,0.5516226 0.941455,0.7916038 1.609807,1.4815295 0.986752,1.0185955 0.966594,0.9959215 1.576164,1.7729155 1.364325,1.739049 2.318853,3.434907 3.177889,5.646001 0.546299,1.406133 1.008722,3.253505 1.203824,4.809286 0.204384,1.629782 0.209534,3.116802 0.01721,4.970741 -0.330631,3.187182 -1.603297,6.703505 -3.328093,9.195369 -1.834866,2.650882 -3.36409,4.196891 -5.846775,5.910945 -3.044687,2.102062 -6.974585,3.410878 -10.76104,3.583863 -0.860992,0.03934 -0.954329,0.0392 -1.872303,-0.0027 z M 10.958923,27.342706 c 0.01093,-0.05223 0.123566,-0.522299 0.250295,-1.044596 l 0.230417,-0.949633 0.826664,0 0.826663,0 0.269074,1.035963 c 0.147991,0.56978 0.269578,1.039848 0.270194,1.044597 6.16e-4,0.0048 0.248055,0.0086 0.549862,0.0086 l 0.548743,0 -0.956998,-3.824432 -0.956998,-3.824431 -0.537737,-0.0095 -0.537737,-0.0095 -0.955057,3.816536 c -0.525282,2.099095 -0.9550582,3.824359 -0.9550582,3.833919 0,0.0096 0.2492542,0.01739 0.5538972,0.01739 l 0.553898,0 0.01988,-0.09496 z m 0.772879,-3.10789 c -0.0012,-0.06156 0.494847,-2.065918 0.517341,-2.090459 0.01896,-0.0207 0.554659,2.00449 0.554659,2.096899 0,0.02965 -1.071429,0.02322 -1.072,-0.0064 z m 5.150617,1.407184 0,-1.795671 0.527109,3e-5 0.52711,3e-5 0.498761,1.760484 c 0.274318,0.968267 0.508792,1.776703 0.521054,1.796525 0.01439,0.02327 0.218852,0.03267 0.576922,0.02653 l 0.554625,-0.0095 -0.546911,-1.863515 c -0.300801,-1.024934 -0.543769,-1.86608 -0.539931,-1.869213 0.0038,-0.0032 0.0892,-0.04696 0.189685,-0.09739 0.373339,-0.187368 0.625545,-0.498432 0.791153,-0.975789 0.08422,-0.242746 0.09393,-0.319611 0.09526,-0.753761 0.0011,-0.372816 -0.01294,-0.53045 -0.06151,-0.688837 -0.1661,-0.54163 -0.494983,-0.944396 -0.95576,-1.170467 -0.430927,-0.211425 -0.581849,-0.228613 -2.013385,-0.229289 l -1.270247,-6e-4 0,3.833064 0,3.833065 0.553032,0 0.553034,0 0,-1.795671 z m 0,-3.815799 0,-0.984166 0.650453,0 c 0.719299,0 0.899311,0.03193 1.132606,0.200882 0.0744,0.05389 0.181936,0.182236 0.238967,0.285231 0.09518,0.171883 0.103589,0.214209 0.102418,0.515319 -0.0011,0.288509 -0.01264,0.349891 -0.09556,0.509191 -0.05788,0.111215 -0.14616,0.215436 -0.22868,0.269994 -0.242604,0.160397 -0.407294,0.187714 -1.131694,0.187714 l -0.668516,0 0,-0.984165 z m 5.599457,4.381992 0,-1.229476 0.331017,-0.60936 c 0.18206,-0.335146 0.341489,-0.61994 0.354288,-0.632876 0.01279,-0.01294 0.324974,0.814542 0.693727,1.838836 l 0.670458,1.862352 0.582227,0 0.582227,0 -0.05084,-0.129496 c -0.150419,-0.383121 -1.71139,-4.796618 -1.71139,-4.838791 0,-0.02745 0.346078,-0.632843 0.769061,-1.345325 0.422984,-0.712481 0.774246,-1.308267 0.780582,-1.323968 0.0063,-0.0157 -0.273635,-0.02803 -0.622161,-0.0274 l -0.633683,0.0011 -0.864114,1.516598 -0.864114,1.516599 -0.009,-1.517747 -0.009,-1.517747 -0.552672,0 -0.552674,0 0,3.833064 0,3.833064 0.553033,0 0.553032,0 0,-1.229476 z m 6.095917,1.169045 c 0.0095,-0.03323 0.16687,-0.899561 0.349781,-1.925166 0.182912,-1.025603 0.341508,-1.888043 0.352436,-1.916531 0.01093,-0.02849 0.149383,0.655246 0.307676,1.519412 0.158292,0.864166 0.321871,1.754225 0.363509,1.977906 l 0.0757,0.406694 0.468564,-0.0096 0.468566,-0.0096 0.614016,-3.798533 c 0.337709,-2.089193 0.614569,-3.810187 0.615244,-3.824431 6.73e-4,-0.01424 -0.239157,-0.02589 -0.532958,-0.02589 l -0.534185,0 -0.02153,0.114698 c -0.01185,0.06309 -0.164422,0.982452 -0.33906,2.043041 l -0.317522,1.928343 -0.360077,-2.04304 -0.360075,-2.043042 -0.435756,0 -0.435754,0 -0.360256,1.985597 c -0.198141,1.092078 -0.369272,1.985597 -0.380291,1.985597 -0.01102,0 -0.156724,-0.858555 -0.323788,-1.9079 -0.167064,-1.049344 -0.311988,-1.942863 -0.322053,-1.985596 -0.018,-0.07643 -0.02701,-0.0777 -0.551868,-0.0777 l -0.533571,0 0.01974,0.112229 c 0.01086,0.06173 0.276164,1.736102 0.589576,3.720836 0.313411,1.984732 0.579161,3.659108 0.590555,3.720834 l 0.02072,0.11223 0.477727,0 c 0.425378,0 0.479614,-0.0066 0.494943,-0.06043 z m 5.228297,-0.03453 c 0.01094,-0.05223 0.123567,-0.522299 0.250296,-1.044596 l 0.230416,-0.949634 0.826665,0 0.826663,0 0.269075,1.035964 c 0.147992,0.569779 0.269575,1.039848 0.270194,1.044596 6.16e-4,0.0048 0.248052,0.0086 0.549863,0.0086 l 0.54874,0 -0.956996,-3.824431 -0.956999,-3.824432 -0.537737,-0.0095 -0.537737,-0.0095 -0.955058,3.816537 c -0.525281,2.099095 -0.955056,3.824359 -0.955056,3.833919 0,0.0096 0.249253,0.01738 0.553896,0.01738 l 0.553898,0 0.01988,-0.09496 z m 0.77288,-3.10789 c -0.0011,-0.06156 0.494847,-2.065918 0.517341,-2.090459 0.01897,-0.0207 0.554659,2.00449 0.554659,2.096899 0,0.02965 -1.071429,0.02322 -1.072,-0.0064 z m 6.429504,1.466413 0,-1.736441 0.936616,-2.053458 c 0.51514,-1.129403 0.944684,-2.073259 0.954541,-2.097458 0.01419,-0.03484 -0.105356,-0.04202 -0.574418,-0.03453 l -0.592346,0.0095 -0.589419,1.277688 c -0.324177,0.702729 -0.608246,1.32283 -0.631263,1.378005 -0.04033,0.09667 -0.06534,0.05022 -0.687931,-1.277689 l -0.646081,-1.378004 -0.586158,-0.0094 -0.586162,-0.0094 0.04742,0.09577 c 0.02609,0.05267 0.45281,0.996585 0.948277,2.097583 l 0.900856,2.001815 0,1.736287 0,1.736286 0.553033,0 0.553033,0 0,-1.73644 z m -34.8410662,0.0306 0,-1.671314 0.8554727,-0.01553 c 0.6867188,-0.01246 0.8929735,-0.02742 1.0455777,-0.07585 0.6474293,-0.205461 1.047131,-0.62636 1.2315816,-1.296899 0.045681,-0.166065 0.062105,-0.35472 0.06313,-0.725174 0.00154,-0.556658 -0.056749,-0.823444 -0.2661139,-1.217972 C 8.9565507,20.464322 8.5868833,20.118798 8.2954567,19.979843 7.8970598,19.789884 7.7355469,19.772802 6.3315895,19.77214 l -1.2702472,-6.01e-4 0,3.815798 0,3.815799 0.5530327,0 0.5530328,0 0,-1.671314 z m 0,-3.799058 0,-1.09073 0.650453,0 c 0.7459386,0 0.913809,0.03314 1.1376657,0.22457 0.3050695,0.260884 0.4309688,0.775637 0.3041694,1.243632 -0.078596,0.290086 -0.2033616,0.457962 -0.4358548,0.586459 l -0.1874399,0.103597 -0.7344967,0.0116 -0.7344967,0.0116 0,-1.090729 z M 38.677234,17.60465 C 38.334386,16.824738 38.354094,16.86339 37.915671,16.111136 37.465702,15.339074 36.831902,14.43875 36.190329,13.66026 35.323628,12.608595 34.137443,11.555585 32.786932,10.638967 32.445266,10.407072 30.354208,9.1557441 27.930934,7.733048 L 23.674997,5.2344006 23.415441,5.4872914 c -0.142757,0.1390902 -0.337327,0.3015697 -0.432379,0.3610657 -0.283222,0.1772775 -0.466731,0.448635 -0.969395,1.4334674 l -0.467687,0.9163034 -0.162855,0.034534 c -0.08957,0.018993 -0.509706,0.106985 -0.933637,0.1955368 -0.652876,0.1363745 -0.909309,0.210229 -1.67638,0.4828079 -2.514148,0.8934031 -4.557832,2.1922449 -6.282149,3.9925549 -0.560787,0.585501 -1.412498,1.616624 -1.476446,1.787457 -0.01155,0.03086 -0.155459,0.242573 -0.3198,0.470485 -0.34976,0.485059 -0.8703085,1.443499 -1.3081685,2.408615 l -0.3094181,0.68201 14.9423676,0 14.942367,0 -0.284627,-0.647478 z M 17.647442,17.224797 c -0.10464,-0.415323 -0.08869,-0.526551 0.0755,-0.526744 0.261305,-3.1e-4 0.403172,-0.19518 0.403612,-0.554416 1.38e-4,-0.118441 0.03015,-0.207131 0.121169,-0.358138 0.144318,-0.239441 0.150814,-0.353638 0.03166,-0.556757 -0.07942,-0.135383 -0.08494,-0.165491 -0.04983,-0.271752 0.02172,-0.06572 0.04614,-0.190556 0.05429,-0.277403 0.0191,-0.203502 0.124094,-0.40722 0.259556,-0.503587 0.09861,-0.07015 0.131657,-0.0743 0.415131,-0.05215 0.362145,0.02831 0.298214,0.106043 0.533239,-0.648401 0.149287,-0.479223 0.157938,-0.527804 0.135281,-0.759707 -0.0278,-0.284555 -0.141581,-0.557194 -0.442063,-1.059251 -0.107987,-0.18043 -0.205099,-0.362194 -0.215803,-0.403919 -0.03282,-0.127944 0.04876,-0.299569 0.263669,-0.554636 0.220371,-0.261556 0.4774,-0.440265 0.83405,-0.579903 0.278089,-0.10888 0.54905,-0.2621848 0.825005,-0.4667721 0.493047,-0.3655355 0.763203,-0.783583 1.705628,-2.6393391 0.244096,-0.4806559 0.357377,-0.6245426 0.679326,-0.8628608 0.142579,-0.1055423 0.298119,-0.2383399 0.345645,-0.2951063 l 0.08641,-0.1032113 3.983839,2.3361182 3.98384,2.3361184 -0.126687,0.228269 c -0.06968,0.125548 -0.2059,0.343164 -0.302716,0.483589 l -0.176028,0.25532 -0.523263,0.250136 c -0.590764,0.282403 -1.445439,0.777635 -1.656597,0.9599 -0.258986,0.223545 -0.463353,0.581678 -0.762123,1.335533 -0.154282,0.389286 -0.300109,0.769949 -0.324058,0.84592 -0.02395,0.07597 -0.179463,0.456687 -0.345582,0.846036 -0.279176,0.654333 -0.375269,0.956807 -0.485445,1.528047 l -0.03829,0.19856 -4.627867,0 -4.627867,0 -0.03262,-0.129496 z m 10.019716,0.0518 c 3.45e-4,-0.04273 0.01538,-0.217552 0.03344,-0.388486 0.05596,-0.529497 0.18375,-0.952284 0.48015,-1.588478 0.150427,-0.322875 0.386166,-0.843447 0.523867,-1.156826 0.506004,-1.151565 0.575015,-1.242098 1.151584,-1.510721 0.88592,-0.412747 1.446763,-0.705945 1.579445,-0.825703 0.163585,-0.147651 0.317428,-0.375071 0.556913,-0.823263 0.09134,-0.170935 0.166364,-0.294462 0.166729,-0.274506 3.63e-4,0.01995 0.07234,0.07107 0.159929,0.11359 l 0.159266,0.0773 -0.02429,0.68065 c -0.02629,0.736471 -0.112015,1.230999 -0.273542,1.578013 -0.09152,0.196626 -0.526567,0.825015 -0.785528,1.134642 -0.09528,0.113918 -0.214112,0.286049 -0.264078,0.382514 -0.08108,0.156548 -0.09119,0.216197 -0.09408,0.555242 -0.0038,0.449591 -0.0439,0.547999 -0.413197,1.014651 -0.125996,0.159211 -0.24598,0.322375 -0.266632,0.362586 -0.06805,0.132519 -0.213531,0.263039 -0.293176,0.263039 -0.133533,0 -0.249873,-0.07349 -0.271405,-0.171432 -0.0279,-0.126911 0.02186,-0.238182 0.169872,-0.37987 0.07177,-0.0687 0.140703,-0.177944 0.161891,-0.256555 0.03174,-0.117759 0.0261,-0.159941 -0.04033,-0.301626 -0.147523,-0.314674 -0.207041,-0.286027 -0.712002,0.342708 -0.505355,0.629225 -0.530232,0.676074 -0.530232,0.998535 l 0,0.25169 -0.587597,0 c -0.586496,0 -0.587597,-1.38e-4 -0.586999,-0.0777 z m 11.665398,-0.904098 -0.324181,-0.623948 0.548059,-0.283812 0.548055,-0.283813 0.08476,0.145684 c 0.04661,0.08013 0.127451,0.231152 0.179632,0.335611 0.05218,0.104459 0.09919,0.194809 0.104459,0.200776 0.0053,0.0059 0.117995,-0.0437 0.250506,-0.110364 l 0.240921,-0.121214 -0.182566,-0.355819 -0.182566,-0.35582 0.427823,-0.222846 c 0.235305,-0.122565 0.434078,-0.215802 0.44172,-0.207192 0.0077,0.0086 0.138843,0.257186 0.291552,0.552394 l 0.277654,0.53674 0.245778,-0.121421 c 0.135175,-0.06678 0.241748,-0.13 0.236822,-0.140485 -0.0049,-0.01048 -0.193492,-0.372297 -0.419042,-0.804026 l -0.410088,-0.784961 -0.315768,0.168919 c -0.173669,0.0929 -0.844602,0.444504 -1.49096,0.781331 -0.646356,0.336828 -1.273069,0.66607 -1.392697,0.731651 l -0.217504,0.119238 0.334381,0.644962 c 0.183906,0.354729 0.388272,0.74237 0.454141,0.861423 l 0.119767,0.21646 0.236764,-0.12776 0.23676,-0.127761 -0.324181,-0.623947 z M 8.8277158,16.712594 c 0.1364748,-0.04049 0.2307665,-0.101168 0.3638857,-0.234162 0.4241512,-0.423753 0.4305668,-0.998753 0.015632,-1.401055 -0.1047465,-0.101558 -0.8148537,-0.497696 -1.1050339,-0.616451 -0.019942,-0.0081 -0.1139112,0.173139 -0.1214885,0.234393 -0.00118,0.0095 -0.069093,0.148368 -0.1509286,0.308602 -0.1421208,0.278271 -0.1459177,0.293492 -0.084675,0.339442 0.08471,0.06356 0.3966838,0.222923 0.4090414,0.208948 0.00533,-0.006 0.051223,-0.09355 0.1019889,-0.194516 l 0.092302,-0.18356 0.1624492,0.09327 c 0.3766444,0.216231 0.4841761,0.356029 0.4429064,0.575808 -0.024325,0.129545 -0.1610107,0.291525 -0.2860925,0.339036 -0.046902,0.01781 -0.1514335,0.03239 -0.2322928,0.03239 -0.501187,0 -1.7690173,-0.659767 -2.0435974,-1.063468 -0.1132693,-0.166535 -0.1215645,-0.470711 -0.016477,-0.604184 0.094188,-0.119628 0.2813976,-0.179456 0.4154489,-0.13277 0.098585,0.03434 0.1058851,0.02981 0.1763038,-0.109211 0.040403,-0.07976 0.103022,-0.186955 0.139153,-0.2382 0.065362,-0.0927 0.065297,-0.09339 -0.012953,-0.135223 -0.138701,-0.07416 -0.5607418,-0.08195 -0.7397464,-0.01365 -0.2628447,0.100288 -0.4974634,0.347761 -0.5895948,0.621899 -0.050765,0.151051 0.00176,0.599517 0.090596,0.77348 0.2507707,0.491091 1.1684554,1.0877 2.1102209,1.371909 0.3077213,0.09286 0.6097186,0.102411 0.8629513,0.02728 z m 1.3804982,-1.870512 c 0.06201,-0.08072 0.101761,-0.146763 0.08833,-0.146763 -0.01343,0 -0.0081,-0.01964 0.01183,-0.04365 0.02703,-0.03254 -0.05024,-0.149562 -0.303867,-0.460126 l -0.3401262,-0.41648 0.242443,-0.316844 c 0.1333442,-0.174266 0.2565632,-0.316846 0.2738192,-0.316846 0.04419,0 0.868935,0.346868 0.918304,0.386217 0.02839,0.02263 0.09288,-0.03342 0.21356,-0.185536 0.0951,-0.119871 0.16234,-0.228224 0.14944,-0.240785 -0.01802,-0.01754 -2.7803612,-1.204072 -3.4691238,-1.490119 L 7.8653505,11.55821 7.7314032,11.736846 c -0.073671,0.09825 -0.1445518,0.196452 -0.1575124,0.218225 -0.013621,0.02289 0.4052306,0.572455 0.9925549,1.302328 1.0667922,1.32571 1.4731083,1.799061 1.5080273,1.756824 0.01154,-0.01396 0.07172,-0.09142 0.133732,-0.172143 z M 8.9753314,12.916916 C 8.781015,12.679507 8.6282124,12.485265 8.6357699,12.485265 c 0.014607,0 0.9995679,0.417426 1.0137062,0.429607 0.00786,0.0068 -0.3021233,0.433695 -0.3148794,0.433695 -0.00328,0 -0.1649486,-0.194243 -0.3592653,-0.431651 z m 29.8624846,0.421763 c 0.671071,-0.499619 1.239153,-0.919993 1.262397,-0.934163 0.02778,-0.01693 0.112395,0.06872 0.246861,0.249907 l 0.204587,0.275671 0.209088,-0.15523 0.209089,-0.15523 -0.573306,-0.76646 c -0.315319,-0.421553 -0.591918,-0.764712 -0.614662,-0.762575 -0.08171,0.0077 -0.395843,0.267775 -0.368088,0.304772 0.273389,0.364389 0.341851,0.457338 0.361331,0.490569 0.01438,0.02452 -0.482099,0.415665 -1.308653,1.030993 l -1.331828,0.991473 0.08157,0.108567 c 0.04487,0.05971 0.118307,0.158984 0.163207,0.220605 0.07683,0.105446 0.08624,0.109022 0.159951,0.06077 0.04308,-0.02819 0.627378,-0.460048 1.29845,-0.959668 z m -1.407871,-2.044773 c 0.509288,-0.873662 0.946947,-1.6126204 0.972581,-1.6421298 0.04035,-0.04646 0.01958,-0.080376 -0.15503,-0.2529972 L 38.045861,9.1994345 36.442284,10.189564 c -0.88197,0.544571 -1.640401,1.013494 -1.685403,1.042051 l -0.08182,0.05192 0.184335,0.186478 c 0.101384,0.102564 0.197011,0.186479 0.212504,0.186479 0.0155,0 0.224478,-0.123693 0.464411,-0.274874 l 0.436242,-0.274873 0.08981,0.06508 c 0.04939,0.03579 0.186555,0.16337 0.304807,0.283506 l 0.215005,0.218429 -0.272167,0.466183 -0.272169,0.466184 0.193067,0.197275 c 0.171959,0.175705 0.197439,0.190809 0.233072,0.138129 0.022,-0.03254 0.456691,-0.773962 0.965976,-1.647625 z m -0.800426,-0.299233 -0.178743,-0.178576 0.455478,-0.284924 c 0.250513,-0.156709 0.461343,-0.279064 0.468512,-0.271901 0.02,0.01998 -0.49225,0.889252 -0.531776,0.902413 -0.0191,0.0063 -0.115158,-0.0688 -0.213471,-0.167012 z M 11.94668,11.577604 c -0.260487,-0.28515 -0.535368,-0.588454 -0.610846,-0.674009 l -0.137233,-0.155556 0.18361,-0.164298 0.183609,-0.164297 0.54122,0.347307 c 0.297672,0.19102 0.653284,0.420854 0.790249,0.510743 0.247804,0.162633 0.249332,0.163092 0.311081,0.09355 0.03413,-0.03844 0.135965,-0.128712 0.226301,-0.200609 l 0.164248,-0.13072 -0.09511,-0.06585 c -0.05232,-0.03622 -0.35177,-0.218981 -0.665443,-0.406139 -0.313673,-0.187159 -0.650421,-0.391184 -0.748329,-0.45339 L 11.912023,10.001239 11.96317,9.8269154 C 12.028087,9.6056858 11.98272,9.3640926 11.832301,9.1298996 11.503436,8.6178882 10.962628,8.4307828 10.507705,8.6716242 10.402322,8.7274156 10.107526,8.96321 9.8526034,9.1956124 L 9.3891068,9.6181629 9.5163472,9.7481263 c 0.2333303,0.2383244 2.4404468,2.6733137 2.4520648,2.7052277 0.0063,0.01729 0.110539,-0.05603 0.231661,-0.162934 L 12.420294,12.096057 11.94668,11.577604 z M 10.612255,10.117193 C 10.484247,9.9759889 10.338246,9.8114616 10.287809,9.7515777 l -0.0917,-0.1088804 0.223706,-0.2052516 c 0.123038,-0.1128886 0.276771,-0.2282324 0.341628,-0.2563198 0.374855,-0.1623365 0.80078,0.3071231 0.611106,0.6735679 -0.02677,0.05172 -0.15642,0.1897062 -0.288111,0.3066362 l -0.23944,0.212599 -0.232743,-0.256736 z m 24.39927,-0.6538855 c 0.532295,-0.7301901 0.979964,-1.3279497 0.994824,-1.328354 0.01486,-4.041e-4 0.143878,0.08714 0.286713,0.1945445 0.144576,0.1087141 0.271601,0.1814259 0.286553,0.1640276 0.04896,-0.056962 0.234556,-0.3068309 0.25805,-0.3474052 0.01438,-0.024831 -0.264637,-0.2499572 -0.738912,-0.5962024 -0.419105,-0.3059687 -0.775635,-0.5599561 -0.792288,-0.5644163 -0.02912,-0.0078 -0.313788,0.3463819 -0.310725,0.3866139 0.0012,0.015826 0.385732,0.2992363 0.523957,0.3861747 0.02558,0.016087 -1.222059,1.7630228 -1.860819,2.6055137 l -0.08026,0.10586 0.215268,0.160558 c 0.118397,0.08831 0.223045,0.160591 0.232551,0.160631 0.0095,3.4e-5 0.452795,-0.597355 0.985089,-1.3275455 z M 15.552848,9.7364963 c 0.129634,-0.1295124 0.223506,-0.3894297 0.223506,-0.6188567 0,-0.7872257 -0.960878,-2.3071425 -1.636975,-2.5893691 -0.148381,-0.06194 -0.431345,-0.067236 -0.56489,-0.010572 -0.05318,0.022561 -0.342669,0.1872666 -0.643325,0.3660117 -0.493984,0.2936821 -0.54191,0.3304827 -0.497481,0.3819974 0.02704,0.031354 0.458059,0.7329727 0.957815,1.5591535 0.499757,0.8261808 0.930741,1.5359492 0.957744,1.5772632 0.0487,0.07451 0.05326,0.07261 0.567862,-0.236823 0.285323,-0.1715662 0.571407,-0.3645285 0.635744,-0.4288045 z M 14.517592,9.5890707 c -0.04644,-0.073494 -0.371068,-0.6068328 -0.7214,-1.1851984 l -0.63697,-1.0515736 0.282053,-0.161554 c 0.300075,-0.1718767 0.400363,-0.1909623 0.589211,-0.1121303 0.257623,0.1075405 0.689026,0.6729152 1.027232,1.3462354 0.257934,0.5135115 0.264017,0.7921913 0.02198,1.0072955 -0.07907,0.070277 -0.428834,0.2905502 -0.461349,0.2905502 -0.009,0 -0.05433,-0.060132 -0.100763,-0.1336248 z M 32.444631,9.275518 c 0.346822,-0.1651701 0.621987,-0.5641584 0.668029,-0.9686392 0.03899,-0.3426155 -0.06865,-0.658891 -0.468863,-1.3774297 -0.12038,-0.2161337 -0.130263,-0.3569232 -0.03591,-0.511527 0.192641,-0.3156448 0.662937,-0.2658084 0.758616,0.080389 0.01719,0.062202 0.01868,0.1688109 0.0033,0.2369107 l -0.02795,0.1238177 0.239175,0.1203333 0.239174,0.1203333 0.04171,-0.09569 c 0.06709,-0.1539272 0.05507,-0.6596138 -0.01923,-0.8087652 -0.159897,-0.3209892 -0.497119,-0.5299063 -0.85318,-0.5285654 -0.532273,0.002 -0.95076,0.3951378 -0.99404,0.933817 -0.02124,0.2642649 0.01681,0.3836041 0.268745,0.8430725 0.331348,0.6042937 0.374124,0.8456822 0.196522,1.1089798 -0.230106,0.3412066 -0.697364,0.3699861 -0.889723,0.054803 -0.07958,-0.1303847 -0.08821,-0.3573418 -0.0198,-0.5208952 L 31.599136,7.9718625 31.36561,7.8458476 C 31.23717,7.77654 31.124408,7.719833 31.115026,7.719833 c -0.05012,0 -0.146111,0.423747 -0.14471,0.6388441 0.0028,0.4264985 0.196122,0.7311374 0.584811,0.9214349 0.186038,0.091083 0.234073,0.1000847 0.466621,0.087452 0.173968,-0.00945 0.31308,-0.039726 0.422939,-0.092045 z M 18.02759,8.5595119 18.775268,8.2640894 18.689926,8.0523923 C 18.642988,7.9359591 18.593831,7.8293671 18.58069,7.8155214 18.567547,7.8016761 18.269496,7.904357 17.918353,8.043702 L 17.279911,8.2970562 17.062892,7.7580866 c -0.119359,-0.296433 -0.224981,-0.5700482 -0.234714,-0.6080335 -0.01535,-0.059925 0.02843,-0.08696 0.330858,-0.2042886 0.191704,-0.074373 0.354021,-0.1443007 0.360704,-0.1553945 0.0067,-0.011094 -0.029,-0.123579 -0.07928,-0.2499676 L 17.349023,6.3106053 16.9797,6.4589495 16.610376,6.6072935 16.430994,6.1606952 C 16.332334,5.9150659 16.257445,5.7091074 16.264575,5.703009 c 0.0071,-0.0061 0.261829,-0.1079685 0.565997,-0.2263777 0.304168,-0.1184092 0.559416,-0.2214523 0.567219,-0.2289849 0.0078,-0.00753 -0.02792,-0.1208955 -0.07937,-0.2519186 l -0.09355,-0.2382236 -0.836595,0.3365635 c -0.460127,0.1851098 -0.833592,0.3504865 -0.82992,0.3675035 0.0036,0.017017 0.312758,0.8001432 0.686858,1.74028 0.374101,0.9401368 0.680882,1.7275163 0.681736,1.7497322 0.0011,0.027341 0.05832,0.018251 0.177256,-0.028128 0.09664,-0.037687 0.512157,-0.201461 0.923381,-0.3639433 z m 1.731439,-0.5991562 c 0.20733,-0.04072 0.230638,-0.053371 0.215891,-0.1171861 -0.128891,-0.5577749 -0.497872,-2.3229836 -0.490309,-2.3456487 0.0056,-0.01667 0.379006,0.4609906 0.829877,1.0614688 0.45087,0.6004785 0.834464,1.091779 0.852431,1.091779 0.01797,0 0.1118,-0.016955 0.20852,-0.037678 0.138332,-0.029639 0.172286,-0.049901 0.159135,-0.094963 -0.0092,-0.031507 -0.191553,-0.8731061 -0.405237,-1.8702209 -0.213684,-0.9971148 -0.389519,-1.8151798 -0.390743,-1.8179224 -0.0099,-0.022044 -0.553984,0.1234579 -0.54975,0.1470033 0.0031,0.016854 0.108193,0.5031298 0.233694,1.0806123 0.125501,0.577483 0.222203,1.055944 0.214893,1.0632472 -0.0073,0.0073 -0.328509,-0.4185644 -0.713774,-0.9463722 -0.385267,-0.5278081 -0.711223,-0.9717675 -0.724346,-0.9865766 -0.01312,-0.014809 -0.14754,7.32e-4 -0.298703,0.034532 l -0.274842,0.061458 0.405716,1.8647341 c 0.223144,1.0256037 0.406391,1.8702813 0.407215,1.8770617 8.23e-4,0.00678 0.02094,0.00513 0.04471,-0.00368 0.02377,-0.0088 0.147796,-0.036545 0.275628,-0.061652 z M 19.923149,44.6445 c -0.3305,-0.229041 -0.387396,-0.373275 -0.315711,-0.80034 0.02106,-0.125508 0.04855,-0.305893 0.06108,-0.400856 0.02928,-0.221948 0.149752,-0.449032 0.295045,-0.556123 0.143829,-0.106013 0.199471,-0.204844 0.20211,-0.358979 0.0011,-0.06647 0.01785,-0.189273 0.03714,-0.272886 0.02438,-0.105651 0.02348,-0.207839 -0.003,-0.335027 -0.04556,-0.219265 -0.02752,-0.262462 0.204946,-0.490671 0.172036,-0.168889 0.172335,-0.169655 0.353213,-0.908943 0.01689,-0.06904 0.116141,-0.242398 0.220554,-0.385237 0.200219,-0.273905 0.217743,-0.334026 0.137996,-0.4734 -0.02717,-0.04749 -0.04995,-0.130218 -0.05062,-0.183857 -8.71e-4,-0.06931 -0.05449,-0.154247 -0.185287,-0.293523 -0.101234,-0.107798 -0.288464,-0.331059 -0.416065,-0.496133 -0.231516,-0.299507 -0.368813,-0.413363 -0.549853,-0.455969 -0.134946,-0.03176 -0.2147,0.02052 -0.50493,0.331004 -0.140275,0.150064 -0.319146,0.305638 -0.397491,0.345719 -0.145328,0.07436 -0.480188,0.104487 -0.565481,0.05089 -0.02356,-0.0148 -0.128475,-0.206934 -0.233161,-0.426962 -0.255586,-0.537192 -0.425492,-0.732092 -0.789994,-0.906192 -0.155122,-0.07409 -0.436474,-0.183465 -0.625227,-0.243051 -0.216031,-0.06819 -0.384878,-0.144907 -0.455709,-0.207037 -0.06189,-0.05429 -0.140764,-0.107774 -0.175281,-0.118859 -0.03452,-0.01109 -0.200666,-0.182934 -0.36922,-0.381881 -0.168553,-0.198946 -0.381229,-0.409654 -0.47261,-0.468238 -0.09139,-0.05858 -0.208278,-0.1617 -0.259769,-0.229145 -0.05149,-0.06745 -0.142436,-0.143004 -0.2021,-0.167912 -0.135598,-0.0566 -0.197338,-0.126053 -0.306265,-0.344507 -0.123177,-0.247031 -0.144896,-0.364776 -0.149693,-0.811504 -0.0023,-0.218415 -0.01567,-0.460988 -0.0296,-0.53905 -0.0203,-0.113674 -0.0097,-0.17211 0.05334,-0.293523 0.15408,-0.296829 0.0724,-0.659708 -0.242165,-1.075965 -0.0842,-0.111419 -0.141266,-0.224579 -0.141266,-0.280132 0,-0.11871 0.108186,-0.330731 0.27878,-0.546345 0.14039,-0.177441 0.204609,-0.34692 0.20493,-0.540834 3.5e-4,-0.209834 0.117278,-0.358445 0.377237,-0.479446 0.195804,-0.09114 0.275116,-0.156818 0.486656,-0.403007 0.272059,-0.316618 0.407217,-0.424989 0.668648,-0.53612 0.166007,-0.07057 0.198335,-0.07101 5.193323,-0.07101 2.764452,0 5.026276,0.0081 5.026276,0.01789 0,0.0098 -0.07925,0.175673 -0.176115,0.368515 -0.291579,0.580493 -0.665777,1.097665 -1.194569,1.650986 -0.263186,0.275394 -0.529489,0.56564 -0.591787,0.644991 -0.182691,0.232702 -0.442189,0.822759 -0.574391,1.306074 -0.194664,0.711665 -0.274234,0.914438 -0.620832,1.582109 -0.478645,0.922035 -0.615096,1.347623 -0.677413,2.112826 -0.07127,0.87512 -0.131442,1.079385 -0.432335,1.467616 -0.209017,0.269688 -0.588008,0.935244 -0.717727,1.260422 -0.09946,0.249318 -0.110464,0.313296 -0.112876,0.656109 -0.0026,0.367699 -0.0067,0.387786 -0.130265,0.62776 -0.07018,0.13635 -0.137609,0.310489 -0.149852,0.386974 -0.01979,0.123663 -0.01061,0.150701 0.08295,0.244173 0.122799,0.122686 0.17156,0.128286 0.345216,0.03967 0.10771,-0.05496 0.148928,-0.111628 0.257466,-0.353953 0.108388,-0.241991 0.145323,-0.39175 0.229055,-0.928749 0.115994,-0.7439 0.144344,-0.813638 0.575017,-1.414425 0.508694,-0.709624 0.586565,-0.943127 0.639145,-1.916532 0.05451,-1.009111 0.139286,-1.275474 0.651108,-2.0457 0.393469,-0.592122 0.446147,-0.709689 0.615171,-1.372979 0.24354,-0.955705 0.442118,-1.278485 1.492172,-2.425468 l 0.45012,-0.491668 0.357375,-0.708339 0.357375,-0.708338 1.311301,0.0086 1.311303,0.0086 0.04645,0.183206 c 0.06245,0.24628 0.03605,0.323511 -0.277701,0.812603 -0.247404,0.385664 -0.290759,0.475857 -0.407886,0.848531 -0.06227,0.198124 -0.164313,0.268034 -0.476486,0.326439 -0.270149,0.05054 -0.357634,0.115717 -0.400371,0.298267 -0.08169,0.348941 -0.203533,0.414582 -0.768233,0.413877 -0.257972,-3.11e-4 -0.439219,-0.01647 -0.493922,-0.04402 -0.04752,-0.02393 -0.125952,-0.116383 -0.17428,-0.205452 -0.11007,-0.202861 -0.218867,-0.31974 -0.346981,-0.372757 -0.13102,-0.05422 -0.192557,-0.0264 -0.261602,0.118248 -0.05518,0.115616 -0.05424,0.123738 0.03113,0.268687 0.06726,0.114219 0.152028,0.186119 0.359396,0.304876 0.238582,0.136633 0.283893,0.178959 0.375059,0.350365 0.05703,0.107226 0.128914,0.223766 0.15974,0.258978 0.127283,0.145394 0.139175,0.20836 0.07888,0.417672 -0.03151,0.109374 -0.08789,0.259391 -0.125293,0.333371 -0.05451,0.107812 -0.0605,0.150969 -0.03018,0.21745 0.08399,0.184156 0.01359,0.410362 -0.119999,0.385602 -0.03956,-0.0073 -0.09886,-0.07934 -0.145282,-0.176414 -0.04314,-0.09022 -0.09906,-0.164027 -0.124259,-0.164027 -0.125877,0 -0.22463,0.291686 -0.28059,0.828771 -0.04181,0.401273 -0.07284,0.47482 -0.235253,0.557552 -0.08007,0.04079 -0.213206,0.125721 -0.295868,0.188748 -0.171209,0.130546 -0.627394,0.316664 -0.844367,0.344493 -0.107709,0.01382 -0.181858,3.1e-5 -0.282895,-0.05258 -0.07531,-0.03923 -0.159489,-0.07131 -0.187068,-0.07131 -0.0966,0 -0.350145,0.176346 -0.404482,0.28132 -0.08255,0.15949 -0.03933,0.256287 0.17585,0.393807 0.187882,0.120072 0.261909,0.21851 0.307815,0.409309 0.03714,0.154408 -0.03452,0.274403 -0.262391,0.439332 -0.240034,0.173728 -0.337885,0.324433 -0.443258,0.682679 -0.07393,0.251329 -0.08209,0.2623 -0.514361,0.690643 -0.266348,0.263932 -0.483413,0.512626 -0.551455,0.631806 -0.134579,0.235723 -0.211721,0.572663 -0.212538,0.928313 l -6.01e-4,0.261553 -0.193064,0.256428 c -0.326921,0.434215 -0.364532,0.533318 -0.389923,1.027445 l -0.02208,0.429742 -0.276422,0.24429 c -0.515138,0.455261 -0.68843,0.660376 -0.897401,1.062198 -0.215791,0.414934 -0.323387,0.560563 -0.470204,0.636412 -0.125962,0.06508 -0.170688,0.06367 -0.275065,-0.0086 z m 4.988965,-7.012508 c -0.04994,-0.03172 -0.218106,-0.275163 -0.218106,-0.315738 0,-0.01599 0.0628,-0.123015 0.139548,-0.237844 0.11868,-0.177557 0.16466,-0.217113 0.307447,-0.264495 0.18866,-0.06261 0.348213,-0.04143 0.347577,0.04613 -3.8e-4,0.05247 -0.04769,0.142142 -0.327951,0.621647 -0.09954,0.170303 -0.159724,0.206703 -0.248515,0.150298 z m 1.113092,-1.237456 c -0.02877,-0.0688 -0.05231,-0.143947 -0.05231,-0.167008 0,-0.02306 0.09026,-0.08084 0.200582,-0.128393 0.183312,-0.07901 0.206022,-0.101061 0.263778,-0.256011 0.03476,-0.09325 0.07584,-0.183445 0.09129,-0.200431 0.04446,-0.04888 0.239329,0.04765 0.239329,0.118542 0,0.09775 -0.119452,0.350901 -0.22435,0.475448 -0.07853,0.09323 -0.37893,0.282932 -0.448045,0.282932 -0.0099,0 -0.04151,-0.05628 -0.07028,-0.125079 z m 1.127911,-1.261244 c -0.105462,-0.03032 -0.111298,-0.03863 -0.06452,-0.09185 0.02829,-0.03218 0.08368,-0.12262 0.123103,-0.20098 0.03997,-0.07946 0.12471,-0.173742 0.191588,-0.213164 0.187931,-0.110779 0.235221,-0.213044 0.259927,-0.5621 0.02191,-0.309449 0.05153,-0.375308 0.169469,-0.37669 0.06008,-7.04e-4 0.246291,0.204694 0.269982,0.297795 0.02832,0.111276 -0.219155,0.658202 -0.352794,0.779697 -0.06148,0.05589 -0.121061,0.138553 -0.1324,0.183687 -0.01392,0.0554 -0.07249,0.104991 -0.180266,0.152617 -0.08781,0.0388 -0.161561,0.06915 -0.163897,0.06744 -0.0023,-0.0017 -0.05643,-0.01812 -0.120197,-0.03646 z m 1.690297,-2.514049 c -0.04264,-0.02695 -0.03754,-0.0587 0.03391,-0.211096 0.04625,-0.09866 0.118811,-0.202103 0.161242,-0.229878 0.04244,-0.02777 0.130916,-0.130674 0.196632,-0.228661 0.06571,-0.09799 0.207539,-0.263626 0.315161,-0.368085 0.254595,-0.247118 0.335573,-0.412931 0.445009,-0.91123 0.04958,-0.225782 0.107739,-0.43168 0.12923,-0.457551 0.02149,-0.02586 0.07605,-0.04703 0.121252,-0.04703 0.073,0 0.08218,0.01562 0.08218,0.139843 0,0.07692 -0.02524,0.18861 -0.05609,0.248212 -0.04153,0.08025 -0.05077,0.159201 -0.03559,0.304268 0.01127,0.107743 0.0062,0.245564 -0.01119,0.306268 -0.04079,0.142077 -0.364169,0.661766 -0.650028,1.044618 -0.187466,0.251074 -0.251416,0.310928 -0.396633,0.371221 -0.190051,0.07891 -0.259312,0.08699 -0.335075,0.03911 z"
       style="fill:#329800"
       id="path2191"
       inkscape:connector-curvature="0" />
  </g>
</svg>
