<?xml version="1.0" encoding="UTF-8" standalone="no"?>
<!-- Created with Inkscape (http://www.inkscape.org/) -->

<svg
   xmlns:dc="http://purl.org/dc/elements/1.1/"
   xmlns:cc="http://creativecommons.org/ns#"
   xmlns:rdf="http://www.w3.org/1999/02/22-rdf-syntax-ns#"
   xmlns:svg="http://www.w3.org/2000/svg"
   xmlns="http://www.w3.org/2000/svg"
   xmlns:sodipodi="http://sodipodi.sourceforge.net/DTD/sodipodi-0.dtd"
   xmlns:inkscape="http://www.inkscape.org/namespaces/inkscape"
   width="48"
   height="48"
   id="svg2"
   sodipodi:version="0.32"
   inkscape:version="0.48.1 r9760"
   version="1.0"
   sodipodi:docname="US:NY-LOSP.svg">
  <defs
     id="defs4" />
  <sodipodi:namedview
     id="base"
     pagecolor="#ffffff"
     bordercolor="#666666"
     borderopacity="1.0"
     inkscape:pageopacity="0"
     inkscape:pageshadow="2"
     inkscape:zoom="16.895833"
     inkscape:cx="24"
     inkscape:cy="24"
     inkscape:document-units="px"
     inkscape:current-layer="layer1"
     inkscape:window-width="1278"
     inkscape:window-height="996"
     inkscape:window-x="1"
     inkscape:window-y="27"
     showgrid="true"
     inkscape:showpageshadow="false"
     inkscape:window-maximized="0">
    <inkscape:grid
       type="xygrid"
       id="grid3635"
       empspacing="5"
       visible="true"
       enabled="true"
       snapvisiblegridlinesonly="true" />
  </sodipodi:namedview>
  <metadata
     id="metadata7">
    <rdf:RDF>
      <cc:Work
         rdf:about="">
        <dc:format>image/svg+xml</dc:format>
        <dc:type
           rdf:resource="http://purl.org/dc/dcmitype/StillImage" />
      </cc:Work>
    </rdf:RDF>
  </metadata>
  <g
     inkscape:label="Layer 1"
     inkscape:groupmode="layer"
     id="layer1"
     transform="translate(0,-1032)">
    <path
       sodipodi:type="arc"
       style="fill:#077259;fill-opacity:1;stroke:none"
       id="path4871"
       sodipodi:cx="538.54053"
       sodipodi:cy="540"
       sodipodi:rx="540"
       sodipodi:ry="540"
       d="M 1078.5405,540 A 540,540 0 1 1 -1.4594727,540 540,540 0 1 1 1078.5405,540 z"
       transform="matrix(0.04259259,0,0,0.04259259,1.0621627,1033)" />
    <path
       sodipodi:type="arc"
       style="fill:#ffffff;fill-opacity:1;stroke:none"
       id="path8365"
       sodipodi:cx="540.72974"
       sodipodi:cy="540.72974"
       sodipodi:rx="542.18921"
       sodipodi:ry="542.18921"
       d="m 1082.9189,540.72974 a 542.18921,542.18921 0 1 1 -1084.3783727,0 542.18921,542.18921 0 1 1 1084.3783727,0 z"
       transform="matrix(0.04057624,0,0,0.04057624,2.0592199,1034.0592)" />
    <path
       sodipodi:type="arc"
       style="fill:#006e55;fill-opacity:1;stroke:none"
       id="path9240"
       sodipodi:cx="524.67566"
       sodipodi:cy="553.86487"
       sodipodi:rx="292.62161"
       sodipodi:ry="292.62161"
       d="m 817.29727,553.86487 a 292.62161,292.62161 0 1 1 -585.24322,0 292.62161,292.62161 0 1 1 585.24322,0 z"
       transform="matrix(0.04344114,0,0,0.04344114,1.2074906,1031.9393)" />
    <path
       style="font-size:16.16756058px;font-style:normal;font-variant:normal;font-weight:normal;font-stretch:normal;text-align:start;line-height:100%;writing-mode:lr-tb;text-anchor:start;fill:#ffffff;fill-opacity:1;stroke:none;font-family:Roadgeek 2005 Series E"
       d="m 17.880446,1054.769 c -5e-6,0.1642 -0.02435,0.3256 -0.07304,0.484 -0.0487,0.1524 -0.115656,0.2982 -0.200868,0.4382 -0.08522,0.1337 -0.185655,0.2526 -0.301303,0.3561 -0.109569,0.1032 -0.231307,0.1853 -0.365215,0.2465 -0.140003,0.068 -0.30435,0.1197 -0.493041,0.1548 -0.182611,0.037 -0.39261,0.054 -0.629996,0.054 l -1.132168,0 0,2.6663 -0.967822,0 0,-6.1175 2.09999,0 c 0.24956,0 0.459559,0.023 0.629996,0.045 0.176516,0.023 0.340864,0.072 0.493041,0.1454 0.133909,0.068 0.255646,0.1548 0.365215,0.2649 0.115647,0.1032 0.21608,0.2252 0.301303,0.3653 0.08521,0.1337 0.152169,0.2798 0.200868,0.4381 0.04869,0.1525 0.07303,0.3043 0.07304,0.4565 m -0.986081,0 c -4e-6,-0.1267 -0.03653,-0.2495 -0.109565,-0.3652 -0.06696,-0.1149 -0.152175,-0.2064 -0.25565,-0.2738 -0.08522,-0.049 -0.167393,-0.08 -0.246521,-0.092 -0.07304,-0.024 -0.185655,-0.024 -0.337823,-0.024 l -1.259994,0 0,1.4973 1.259994,0 c 0.15217,0 0.264777,0 0.337823,-0.023 0.07912,-0.024 0.161299,-0.04 0.246521,-0.082 0.103474,-0.054 0.188691,-0.1431 0.25565,-0.2649 0.07304,-0.1267 0.109562,-0.2557 0.109565,-0.3836 m 5.04625,4.4011 -1.552166,-2.8945 -0.639127,0.7943 0,2.1002 -0.96782,0 0,-6.1174 0.96782,0 0,2.4286 1.926512,-2.4286 1.250862,0 -1.889989,2.3829 2.017815,3.7345 -1.113907,0 m 6.162869,0 -0.858256,0 -0.967823,-3.9262 -0.940428,3.9262 -0.858257,0 -0.903908,-6.1174 0.986083,0 0.474779,3.2229 0.776083,-3.2229 0.940431,0 0.794342,3.2229 0.47478,-3.2229 0.986082,0 -0.903908,6.1174 m 4.490009,-2.6663 0,2.6663 -0.967821,0 0,-2.6663 -2.14564,-3.4511 1.159558,0 1.460863,2.3648 1.47912,-2.3648 1.141299,0 -2.127379,3.4511"
       id="text1317"
       inkscape:connector-curvature="0" />
    <path
       style="font-size:16px;font-style:normal;font-variant:normal;font-weight:normal;font-stretch:normal;text-align:start;line-height:100%;writing-mode:lr-tb;text-anchor:start;fill:#006e55;fill-opacity:1;stroke:none;font-family:Roadgeek 2005 Series E"
       d="m 19.709112,1069.7429 -2.475758,5.6518 -0.894184,-0.3918 2.109937,-4.8166 -2.615065,-1.1455 0.365821,-0.8351 3.509249,1.5372 m -6.885377,-4.6436 -0.780012,1.6609 1.372857,1.349 1.64708,-0.8088 0.742262,0.7294 -5.8422403,2.91 -0.6897128,-0.6778 2.8075041,-5.8922 0.742262,0.7295 m -2.014126,4.2701 1.666785,-0.7895 -0.880204,-0.865 -0.786581,1.6545 m -0.455561,-8.8022 -2.0500527,2.6022 0.9921407,0.2705 1.941551,-0.8466 0.390273,0.8947 -5.6558217,2.4669 -0.3902734,-0.8949 2.2454455,-0.9794 -3.0223109,-0.8018 -0.5044106,-1.1565 2.9653764,0.7865 2.6388998,-3.3714 0.4491829,1.0298 m -0.5914601,-2.1325 -6.1620213,0.3211 -0.1892422,-3.633 0.974887,-0.052 0.1384575,2.6578 1.5083156,-0.08 -0.093424,-1.7934 0.9932811,-0.052 0.093422,1.7934 1.6922563,-0.089 -0.1485186,-2.8511 0.9932808,-0.052 0.1993033,3.8261 m -0.4434318,-12.0587 c 0.4409108,0.2158 0.8368274,0.4757 1.1877524,0.7781 0.350924,0.3021 0.603044,0.6106 0.756361,0.9251 0.261839,0.5117 0.249362,1.0596 -0.03743,1.6438 -0.192099,0.3912 -0.430291,0.6744 -0.714578,0.8496 -0.284287,0.176 -0.6378681,0.2613 -1.0607423,0.259 -0.2938065,-7e-4 -0.6263931,-0.047 -0.9977616,-0.1408 -0.3768769,-0.096 -0.7306573,-0.2252 -1.0613426,-0.3877 -0.4574419,-0.2252 -0.856115,-0.4853 -1.1960199,-0.7821 -0.3371924,-0.3024 -0.5920683,-0.612 -0.7646283,-0.9294 -0.1282602,-0.2681 -0.1865304,-0.5396 -0.1748107,-0.8143 0.00891,-0.2829 0.091846,-0.5841 0.2487659,-0.9038 0.1731616,-0.3526 0.4005329,-0.6137 0.6821111,-0.7832 0.2815857,-0.1689 0.6365191,-0.2589 1.0648009,-0.2673 0.3048322,0 0.6388222,0.057 1.0019707,0.1525 0.3631515,0.096 0.7183347,0.2299 1.065551,0.4 m -0.4301906,0.8763 c -0.3141478,-0.1548 -0.6170231,-0.2688 -0.9086274,-0.3433 -0.2971114,-0.077 -0.5664176,-0.1079 -0.8079193,-0.089 -0.186582,0.024 -0.3413525,0.068 -0.4643097,0.1525 -0.1202445,0.077 -0.2264657,0.197 -0.3186592,0.3563 -0.1165381,0.2087 -0.1548665,0.4131 -0.1149899,0.6107 0.039886,0.197 0.1608343,0.4036 0.3628485,0.619 0.130172,0.1524 0.3042812,0.3068 0.5223286,0.4616 0.215248,0.1478 0.4386084,0.2771 0.6700841,0.3906 0.2976165,0.1454 0.5977363,0.2592 0.9003599,0.3394 0.302626,0.08 0.5691764,0.1079 0.7996522,0.084 0.1865867,-0.024 0.3454639,-0.07 0.4766356,-0.1548 0.131171,-0.087 0.240046,-0.2182 0.326625,-0.3936 0.100108,-0.2041 0.127514,-0.3993 0.08222,-0.5855 -0.04259,-0.1924 -0.16489,-0.3956 -0.366906,-0.6111 -0.058118,-0.063 -0.13002,-0.1314 -0.2156962,-0.2088 -0.091189,-0.08 -0.187837,-0.1525 -0.2899487,-0.2252 -0.1049169,-0.08 -0.2125385,-0.1525 -0.3228667,-0.2205 -0.1103264,-0.068 -0.2206058,-0.129 -0.3308335,-0.183 m 6.5742261,-2.8267 -4.527574,-1.594 2.753256,3.1465 -0.734679,0.6429 -4.063173,-4.6437 0.7346787,-0.6428 4.2867253,1.4866 -2.595579,-2.9663 0.734678,-0.6428 4.063174,4.6436 -0.651507,0.57 m 1.756587,-6.8477 1.949695,4.9332 -0.907881,0.359 -1.949695,-4.9335 -1.310431,0.5179 -0.318179,-0.8051 3.545874,-1.4013 0.318179,0.805 -1.327562,0.5248 m 7.826046,4.0703 -0.664944,-1.7104 -1.923728,0.063 -0.550043,1.7507 -1.040102,0.035 1.921482,-6.2376 0.966467,-0.033 2.33097,6.0966 -1.040102,0.035 m -1.703455,-4.4033 -0.577657,1.7515 1.233396,-0.042 -0.655739,-1.7105 m 6.646383,5.7235 -0.02503,-2.8673 -1.100477,-0.3959 -0.910824,2.5301 -0.918509,-0.3307 2.089902,-5.8056 1.915005,0.6893 c 0.225292,0.082 0.413613,0.1642 0.564972,0.2525 0.153417,0.082 0.289876,0.183 0.409346,0.3038 0.104202,0.1102 0.18959,0.2348 0.256149,0.376 0.07441,0.1384 0.125244,0.2867 0.152526,0.4464 0.03512,0.1572 0.04586,0.3167 0.03225,0.4816 -0.0059,0.1618 -0.03467,0.3136 -0.08663,0.4581 -0.05616,0.1548 -0.134369,0.3007 -0.234643,0.4343 -0.09243,0.129 -0.202984,0.2468 -0.331693,0.3504 -0.120856,0.1008 -0.257761,0.1806 -0.410723,0.2437 -0.1472,0.064 -0.297618,0.1009 -0.451274,0.1126 l 0.04616,3.0803 -0.996495,-0.3586 m 1.460154,-4.1923 c 0.04365,-0.122 0.05348,-0.2484 0.02946,-0.3809 -0.02405,-0.1337 -0.08239,-0.2515 -0.175046,-0.3569 -0.06054,-0.068 -0.120504,-0.1172 -0.179901,-0.1524 -0.05731,-0.04 -0.161064,-0.087 -0.311253,-0.1408 l -1.100479,-0.3961 -0.511557,1.421 1.100479,0.3963 c 0.144408,0.052 0.250477,0.084 0.318184,0.096 0.07347,0.023 0.155035,0.023 0.244702,0 0.138404,-0.024 0.259138,-0.077 0.3622,-0.1642 0.105116,-0.092 0.179526,-0.1994 0.223205,-0.321 m 0.353546,5.2516 3.563349,-5.0374 0.81201,0.5745 -3.563349,5.0374 -0.81201,-0.5745 m 7.090882,2.8376 c -0.384232,0.3058 -0.787981,0.5528 -1.211253,0.7408 -0.423278,0.1876 -0.809912,0.284 -1.159902,0.288 -0.5744,0.024 -1.064306,-0.2275 -1.469725,-0.7368 -0.271557,-0.3411 -0.425664,-0.6775 -0.462317,-1.0095 -0.03666,-0.3316 0.03653,-0.6882 0.219569,-1.0694 0.126205,-0.2653 0.310927,-0.5459 0.55418,-0.8416 0.248051,-0.2996 0.516163,-0.564 0.804335,-0.7937 0.39863,-0.3174 0.804783,-0.5662 1.218457,-0.7467 0.417491,-0.1759 0.806524,-0.2732 1.167107,-0.2934 0.297244,0 0.5675,0.061 0.81077,0.19 0.251886,0.1291 0.488747,0.3328 0.71059,0.6116 0.244775,0.3073 0.383582,0.6244 0.416418,0.9516 0.03282,0.3271 -0.03845,0.686 -0.213821,1.0768 -0.135823,0.2731 -0.324857,0.5529 -0.567121,0.8401 -0.242279,0.287 -0.514704,0.5512 -0.817278,0.7922 m -0.608131,-0.7636 c 0.273756,-0.2182 0.50678,-0.443 0.699074,-0.6744 0.197096,-0.2356 0.339033,-0.4665 0.42584,-0.6925 0.06367,-0.176 0.08417,-0.3378 0.06148,-0.4844 -0.01877,-0.1408 -0.08086,-0.2889 -0.186,-0.4406 -0.139577,-0.1947 -0.307092,-0.3167 -0.502586,-0.365 -0.195501,-0.049 -0.433829,-0.028 -0.714971,0.063 -0.193812,0.052 -0.407362,0.1431 -0.640651,0.2747 -0.22466,0.1314 -0.437864,0.278 -0.639579,0.4387 -0.259354,0.2064 -0.489979,0.4295 -0.69187,0.6688 -0.201905,0.2392 -0.341441,0.468 -0.418633,0.6863 -0.06369,0.176 -0.08467,0.3423 -0.06297,0.4976 0.02182,0.1549 0.09376,0.3099 0.216144,0.4638 0.1415,0.1783 0.306193,0.2859 0.494047,0.3246 0.191677,0.045 0.428082,0.024 0.709234,-0.07 0.08157,-0.025 0.175115,-0.061 0.280701,-0.1055 0.11037,-0.049 0.219333,-0.1032 0.326862,-0.1666 0.116141,-0.061 0.228483,-0.1266 0.337001,-0.197 0.108494,-0.07 0.210795,-0.1455 0.306847,-0.2205 m 1.873045,9.2934 c -0.278478,0.047 -0.544464,0.04 -0.797953,-0.023 -0.253492,-0.064 -0.484389,-0.176 -0.692688,-0.3407 -0.179995,-0.1431 -0.331803,-0.3237 -0.455435,-0.5395 -0.116563,-0.2111 -0.196814,-0.4462 -0.240819,-0.7066 -0.089,-0.5266 -0.02599,-1.0012 0.18905,-1.4236 0.222126,-0.4174 0.548864,-0.7683 0.980225,-1.0528 l 0.490985,0.8602 c -0.269101,0.1759 -0.463424,0.3897 -0.582969,0.6404 -0.113491,0.2496 -0.145676,0.5196 -0.09658,0.8102 0.04809,0.2846 0.171198,0.4972 0.369359,0.6381 0.205236,0.1455 0.434974,0.1971 0.689237,0.1548 0.199771,-0.033 0.35402,-0.1149 0.462737,-0.2463 0.109738,-0.1243 0.192663,-0.2786 0.248768,-0.4623 0.06216,-0.1853 0.109151,-0.3859 0.14096,-0.6029 0.03282,-0.2111 0.07171,-0.4232 0.116658,-0.6362 0.02088,-0.096 0.0535,-0.2181 0.09759,-0.3622 0.04408,-0.1455 0.112881,-0.2899 0.206433,-0.4363 0.100612,-0.1408 0.23104,-0.2726 0.391246,-0.3932 0.161228,-0.1149 0.368983,-0.1923 0.623248,-0.236 0.296634,-0.049 0.556052,-0.045 0.778258,0.023 0.228249,0.061 0.419752,0.1618 0.57451,0.3045 0.161815,0.1478 0.292447,0.3305 0.39187,0.5503 0.100425,0.2252 0.173661,0.475 0.21971,0.7473 0.07262,0.4298 0.02111,0.8061 -0.154895,1.1284 -0.174881,0.3284 -0.440238,0.6005 -0.796048,0.8163 l -0.398503,-0.8095 c 0.08867,-0.065 0.165709,-0.1431 0.23111,-0.235 0.05534,-0.077 0.100003,-0.183 0.134041,-0.3122 0.03505,-0.1244 0.04127,-0.2717 0.01877,-0.4422 -0.01243,-0.1103 -0.04089,-0.2229 -0.08555,-0.3405 -0.0376,-0.1126 -0.09132,-0.2087 -0.161135,-0.2903 -0.06984,-0.082 -0.157779,-0.1408 -0.263849,-0.1783 -0.100026,-0.04 -0.21863,-0.04 -0.355811,0 -0.185625,0.045 -0.317108,0.1501 -0.39444,0.3188 -0.07129,0.1689 -0.124845,0.3668 -0.160642,0.597 -0.03582,0.2299 -0.07212,0.4759 -0.108846,0.7375 -0.02967,0.2665 -0.09928,0.518 -0.208755,0.7545 -0.103427,0.2354 -0.264461,0.4433 -0.48308,0.6235 -0.211546,0.1853 -0.517096,0.3115 -0.916649,0.379 m 3.114227,3.9598 -5.246917,-0.7807 0.143682,-0.9655 5.246918,0.7807 0.207371,-1.3937 0.856267,0.1267 -0.561134,3.7711 -0.85627,-0.1267 0.210092,-1.4119 m -7.432716,4.7425 1.814012,0.2766 0.904078,-1.6993 -1.243018,-1.3497 0.488808,-0.9187 4.448121,4.7764 -0.4542,0.8535 -6.446607,-1.0201 0.488806,-0.9187 m 4.666159,0.7195 -1.230039,-1.3742 -0.579648,1.0897 1.809687,0.2845 m -3.711585,5.9934 -3.570548,-3.9232 0.721965,-0.657 3.570544,3.9231 1.042078,-0.9484 0.582693,0.6402 -2.819739,2.5663 -0.582696,-0.6402 1.055703,-0.9608 m -5.422623,-2.4812 2.535951,5.6253 -3.316331,1.4949 -0.401211,-0.89 2.42638,-1.0938 -0.620742,-1.3767 -1.637175,0.7379 -0.408778,-0.9066 1.637175,-0.7383 -0.696439,-1.5447 -2.60269,1.1734 -0.40878,-0.9069 3.49264,-1.5745"
       id="text2196"
       inkscape:connector-curvature="0" />
  </g>
</svg>
