<?xml version="1.0" encoding="UTF-8" standalone="no"?>
<!-- Created with Inkscape (http://www.inkscape.org/) -->

<svg
   xmlns:dc="http://purl.org/dc/elements/1.1/"
   xmlns:cc="http://creativecommons.org/ns#"
   xmlns:rdf="http://www.w3.org/1999/02/22-rdf-syntax-ns#"
   xmlns:svg="http://www.w3.org/2000/svg"
   xmlns="http://www.w3.org/2000/svg"
   xmlns:sodipodi="http://sodipodi.sourceforge.net/DTD/sodipodi-0.dtd"
   xmlns:inkscape="http://www.inkscape.org/namespaces/inkscape"
   version="1.0"
   width="60"
   height="48"
   id="svg2"
   inkscape:version="0.48.1 r9760"
   sodipodi:docname="US:NY-BRP.svg">
  <metadata
     id="metadata3021">
    <rdf:RDF>
      <cc:Work
         rdf:about="">
        <dc:format>image/svg+xml</dc:format>
        <dc:type
           rdf:resource="http://purl.org/dc/dcmitype/StillImage" />
      </cc:Work>
    </rdf:RDF>
  </metadata>
  <sodipodi:namedview
     pagecolor="#ffffff"
     bordercolor="#666666"
     borderopacity="1"
     objecttolerance="10"
     gridtolerance="10"
     guidetolerance="10"
     inkscape:pageopacity="0"
     inkscape:pageshadow="2"
     inkscape:window-width="1278"
     inkscape:window-height="996"
     id="namedview3019"
     showgrid="true"
     inkscape:showpageshadow="false"
     inkscape:zoom="16.895833"
     inkscape:cx="30"
     inkscape:cy="24"
     inkscape:window-x="1"
     inkscape:window-y="27"
     inkscape:window-maximized="0"
     inkscape:current-layer="svg2">
    <inkscape:grid
       type="xygrid"
       id="grid3673"
       empspacing="5"
       visible="true"
       enabled="true"
       snapvisiblegridlinesonly="true" />
  </sodipodi:namedview>
  <defs
     id="defs4" />
  <path
     d="M 29.999997,1 C 25.066835,1 20.829935,1.737881 16.238913,4.426909 11.664806,7.106119 7.2054515,8.524783 1,8.524783 L 1,35.649914 C 1,38.059653 1.00463,38.060687 2.5635114,39.27912 5.2873319,41.408537 29.999997,47 29.999997,47 c 0,0 24.712669,-5.591463 27.436495,-7.72088 C 58.995376,38.060687 59,38.059653 59,35.649914 L 59,8.524783 c -6.205451,0 -10.66481,-1.418664 -15.238914,-4.097874 C 39.170064,1.737881 34.933162,1 29.999997,1 z"
     id="rect4804"
     style="fill:#006b54;stroke:none"
     inkscape:connector-curvature="0" />
  <path
     d="m 16.538068,14.903991 c -8e-6,0.476935 -0.115456,0.919509 -0.346343,1.327462 -0.22235,0.39891 -0.530213,0.711269 -0.923584,0.936819 -0.401935,0.227358 -0.825244,0.338195 -1.269926,0.338195 l -0.384826,0 -4.0150207,0 0,-8.744508 4.0150207,0 c 0.188132,0 0.346338,0 0.474619,0.02584 0.13682,0 0.26082,0.02584 0.371998,0.05167 0.111168,0.02584 0.213786,0.06201 0.307862,0.105928 0.102613,0.04392 0.209509,0.100761 0.320688,0.170519 0.359164,0.201522 0.645646,0.490112 0.859445,0.871712 0.213783,0.373332 0.320681,0.772243 0.320689,1.197506 -8e-6,0.667865 -0.230902,1.231868 -0.692687,1.691752 0.641369,0.537909 0.962057,1.21895 0.962065,2.042866 m -1.962614,-3.734618 c -6e-6,-0.442574 -0.260832,-0.663731 -0.78248,-0.663731 l -2.501371,0 0,1.496689 2.34744,0 c 0.27365,0 0.495993,-0.07751 0.667033,-0.235109 0.179581,-0.165352 0.269372,-0.364032 0.269378,-0.598366 m 0.269379,3.734618 c -7e-6,-0.217024 -0.05132,-0.420613 -0.153931,-0.611542 -0.09407,-0.191188 -0.235178,-0.334062 -0.423309,-0.429397 -0.09407,-0.04392 -0.192421,-0.07493 -0.295034,-0.09043 -0.09407,-0.02584 -0.213795,-0.02584 -0.359171,-0.02584 l -2.321785,0 0,2.016771 2.565508,0 c 0.316408,0 0.560131,-0.07751 0.73117,-0.235109 0.171027,-0.157601 0.256545,-0.36429 0.256552,-0.62446"
     id="text1352"
     style="fill:#ffffff;stroke:none"
     inkscape:connector-curvature="0" />
  <path
     d="m 22.657938,29.442001 -1.180134,-3.279385 -2.257648,0 0,3.279385 -1.693235,0 0,-8.744509 3.886745,0 c 0.179581,0 0.337787,0 0.474619,0.02584 0.145372,0 0.277925,0.02584 0.397655,0.05167 0.128268,0.02584 0.247992,0.06459 0.359171,0.116263 0.11117,0.04392 0.22661,0.100761 0.346343,0.170519 0.419026,0.240276 0.748267,0.572529 0.98772,0.989008 0.239433,0.416221 0.359165,0.871712 0.359172,1.366216 -7e-6,0.477194 -0.106909,0.919509 -0.32069,1.327204 -0.213793,0.407695 -0.517383,0.741756 -0.910754,1.002185 l 1.35972,3.695605 -1.808684,0 m 0,-6.024994 c -6e-6,-0.277738 -0.102626,-0.50768 -0.307861,-0.689825 -0.205246,-0.191188 -0.466073,-0.286007 -0.78248,-0.286007 l -2.347441,0 0,1.977759 2.347441,0 c 0.316407,0 0.577234,-0.09043 0.78248,-0.273347 0.205234,-0.183437 0.307855,-0.425263 0.307861,-0.72858"
     id="text2229"
     style="fill:#ffffff;stroke:none"
     inkscape:connector-curvature="0" />
  <path
     d="m 29.571234,35.282782 c -8e-6,0.503289 -0.11973,0.971699 -0.359168,1.405488 -0.239484,0.425005 -0.564421,0.75054 -0.974894,0.97609 -0.128276,0.06976 -0.252278,0.131765 -0.371997,0.183437 -0.111208,0.04392 -0.230912,0.07751 -0.359175,0.105928 -0.11973,0.02584 -0.256555,0.04651 -0.410478,0.06459 -0.145395,0 -0.316419,0.02584 -0.513106,0.02584 l -2.257645,0 0,3.278867 -1.693236,0 0,-8.744507 4.040674,0 c 0.359165,0 0.649926,0.02584 0.872273,0.07751 0.22234,0.05167 0.453237,0.147267 0.69269,0.286265 0.410473,0.24286 0.735436,0.57253 0.974894,0.989008 0.239459,0.416479 0.35916,0.871971 0.359168,1.366475 m -1.693237,0 c -5e-6,-0.277743 -0.102636,-0.507685 -0.307857,-0.689572 -0.196725,-0.191187 -0.457525,-0.286264 -0.78248,-0.286264 l -2.462889,0 0,1.977758 2.462889,0 c 0.333507,0 0.59861,-0.09043 0.795305,-0.273088 0.1967,-0.183437 0.295027,-0.425264 0.295032,-0.728839"
     id="text2233"
     style="fill:#ffffff;stroke:none"
     inkscape:connector-curvature="0" />
  <path
     d="m 21.238275,13.174259 c -0.07985,-0.134348 -0.182522,-0.229942 -0.307996,-0.286264 -0.125486,-0.05942 -0.242407,-0.08784 -0.350774,-0.08784 -0.256666,0 -0.433479,0.07492 -0.530438,0.227358 -0.09126,0.152433 -0.136889,0.376174 -0.136886,0.676907 l 0,2.343082 -1.146431,0 0,-4.243848 1.146431,0 0,0.209273 c 0.142589,-0.116263 0.276624,-0.198939 0.402107,-0.245444 0.131178,-0.0465 0.27092,-0.06976 0.419217,-0.06976 0.171105,0 0.325104,0.02584 0.461995,0.06976 0.142586,0.0465 0.285177,0.129181 0.427772,0.245444 l -0.384996,1.162885 m 5.151189,0.755192 c -5e-6,0.306675 -0.0542,0.59294 -0.162564,0.858794 -0.108359,0.266371 -0.25383,0.500705 -0.436329,0.70326 -0.182531,0.196355 -0.393554,0.352922 -0.633102,0.46841 -0.233862,0.111095 -0.479108,0.165351 -0.735771,0.165351 -0.262369,0 -0.510476,-0.05426 -0.744323,-0.165351 -0.233852,-0.116263 -0.439182,-0.271797 -0.615993,-0.46841 -0.176814,-0.204106 -0.316552,-0.436889 -0.419217,-0.70326 -0.102667,-0.265854 -0.154,-0.552119 -0.153997,-0.858794 -10e-7,-0.318302 0.04848,-0.613351 0.14544,-0.885406 0.102664,-0.271796 0.239552,-0.50613 0.410662,-0.703002 0.176811,-0.204106 0.382142,-0.358864 0.615994,-0.468926 0.233837,-0.116263 0.487656,-0.175686 0.761434,-0.175686 0.250955,0 0.493362,0.05942 0.727217,0.175686 0.23956,0.116263 0.450581,0.275155 0.633102,0.47771 0.182532,0.204106 0.327952,0.439732 0.436331,0.711528 0.114083,0.272055 0.171086,0.561162 0.171086,0.868096 m -1.163543,0 c -3e-6,-0.157601 -0.02289,-0.303834 -0.06845,-0.442832 -0.04563,-0.139516 -0.10551,-0.258362 -0.179657,-0.355764 -0.07415,-0.105929 -0.159716,-0.186021 -0.256664,-0.24286 -0.09696,-0.05942 -0.196776,-0.08784 -0.299443,-0.08784 -0.114082,0 -0.219592,0.02842 -0.316551,0.08784 -0.09127,0.05942 -0.173959,0.139515 -0.248107,0.24286 -0.06845,0.09818 -0.122629,0.21444 -0.162564,0.355764 -0.03993,0.139515 -0.05989,0.286523 -0.05989,0.442832 -2e-6,0.149849 0.01997,0.292207 0.05989,0.425005 0.03993,0.134348 0.09412,0.248027 0.162564,0.347238 0.07415,0.09818 0.156841,0.178269 0.248107,0.235109 0.09696,0.05942 0.202474,0.08784 0.316551,0.08784 0.102662,0 0.202474,-0.02842 0.299443,-0.08784 0.09696,-0.05942 0.182506,-0.136932 0.256664,-0.235109 0.07415,-0.09818 0.134024,-0.211857 0.179657,-0.347238 0.04561,-0.134349 0.06845,-0.274639 0.06845,-0.425005 m 5.582966,2.117273 0,-2.551321 c -3e-6,-0.198938 -0.06275,-0.361706 -0.18823,-0.494763 -0.11978,-0.134348 -0.290891,-0.201522 -0.513327,-0.201522 -0.102661,0 -0.202499,0.02584 -0.29944,0.06201 -0.09129,0.03617 -0.176834,0.08526 -0.256661,0.147266 -0.07417,0.06459 -0.13405,0.136932 -0.179658,0.217024 -0.04563,0.08009 -0.06845,0.165352 -0.06845,0.250611 l 0,2.56889 -1.146432,0 0,-4.243849 1.146432,0 0,0.224775 c 0.193927,-0.12143 0.382141,-0.204106 0.564658,-0.250611 0.182532,-0.05167 0.370736,-0.07751 0.564661,-0.07751 0.216769,0 0.416363,0.03875 0.59888,0.113679 0.182531,0.06976 0.339365,0.167935 0.470551,0.295049 0.136898,0.129181 0.242409,0.280581 0.316551,0.459884 0.07984,0.175685 0.11978,0.361706 0.11978,0.564261 l 0,2.91587 -1.129324,0 m 6.125172,0 -0.906877,-1.405746 -0.9411,1.405746 -1.368876,0 1.59132,-2.343082 -1.231987,-1.900767 1.35176,0 0.598883,0.859311 0.56466,-0.859311 1.368874,0 -1.249096,1.900767 1.591312,2.343082 -1.368873,0"
     id="text2239"
     style="fill:#ffffff;stroke:none"
     inkscape:connector-curvature="0" />
  <path
     d="m 26.965906,22.661557 c -3e-6,0.152434 -0.0542,0.283423 -0.162565,0.399169 -0.108359,0.116263 -0.242409,0.175686 -0.402106,0.175686 -0.148295,0 -0.276629,-0.05942 -0.384993,-0.175686 -0.108359,-0.116263 -0.162564,-0.248027 -0.162564,-0.399169 -3e-6,-0.167935 0.05421,-0.303575 0.162564,-0.407953 0.108359,-0.111095 0.236737,-0.165351 0.384993,-0.165351 0.159715,0 0.293735,0.05426 0.402106,0.165351 0.10836,0.105929 0.162565,0.240277 0.162565,0.407953 m -1.129322,5.346536 0,-4.244365 1.14643,0 0,4.244365 -1.14643,0 m 5.658098,0 -1.274764,0 -1.565647,-4.244365 1.189206,0 1.043766,2.716673 0.966769,-2.716673 1.206318,0 -1.565648,4.244365 m 3.856503,-1.753242 c 0.06275,0.24286 0.171085,0.433789 0.32511,0.572788 0.154018,0.134348 0.322252,0.201522 0.504773,0.201522 0.23956,0 0.453435,-0.131764 0.641659,-0.390384 l 0.7871,0.694217 c -0.216769,0.260171 -0.43918,0.448516 -0.667325,0.564262 -0.228139,0.116263 -0.481959,0.175686 -0.761434,0.175686 -0.268074,0 -0.521887,-0.05426 -0.761439,-0.165351 -0.23956,-0.116263 -0.450589,-0.271797 -0.6331,-0.46841 -0.182532,-0.198938 -0.327959,-0.428622 -0.436331,-0.694476 -0.108359,-0.271797 -0.162564,-0.564004 -0.162564,-0.876621 -3e-6,-0.306934 0.05133,-0.593198 0.154017,-0.859311 0.108359,-0.266112 0.250956,-0.497605 0.427775,-0.694476 0.176834,-0.204106 0.382144,-0.361706 0.615993,-0.477194 0.233863,-0.116263 0.479106,-0.173102 0.735769,-0.173102 0.342217,0 0.655917,0.100761 0.941099,0.303833 0.290881,0.198938 0.513325,0.462984 0.667325,0.798596 0.07984,0.198938 0.139748,0.401752 0.179683,0.615934 0.03993,0.209273 0.05988,0.445674 0.05988,0.711786 l 0,0.165352 -2.617972,0 m 1.428766,-0.963431 c -0.07984,-0.21444 -0.171136,-0.364806 -0.273777,-0.451358 -0.09699,-0.09301 -0.225316,-0.139515 -0.384996,-0.139515 -0.154017,0 -0.296588,0.05167 -0.427769,0.157601 -0.125478,0.09818 -0.219593,0.24286 -0.282332,0.434047 l 1.368874,0 0,0 m 5.431777,-0.1576 c -0.07984,-0.134348 -0.182531,-0.227359 -0.307997,-0.286523 -0.125477,-0.05942 -0.242409,-0.08784 -0.350773,-0.08784 -0.256666,0 -0.433477,0.07492 -0.530438,0.224774 -0.09127,0.152434 -0.136899,0.375916 -0.136899,0.676908 l 0,2.343598 -1.146432,0 0,-4.244365 1.146432,0 0,0.209273 c 0.142596,-0.116263 0.276624,-0.196355 0.402104,-0.240276 0.131201,-0.0465 0.270921,-0.06976 0.419218,-0.06976 0.171085,0 0.325105,0.02584 0.461994,0.06976 0.142596,0.0465 0.285178,0.126597 0.427774,0.240276 l -0.384995,1.163144"
     id="text3116"
     style="fill:#ffffff;stroke:none"
     inkscape:connector-curvature="0" />
  <path
     d="m 34.10189,36.862147 1.163541,2.942223 -1.163541,0 -0.761437,-1.961482 -0.667327,0.676908 0,1.284574 -1.146429,0 0,-5.467966 1.146429,-0.4511 0,2.881508 1.20632,-1.188981 1.428761,0 -1.206317,1.284316 m 6.950772,2.942223 -1.103654,0 -0.521884,-2.100222 -0.667324,2.100222 -1.103656,0 -1.20632,-4.244107 1.163544,0 0.590325,2.022455 0.581775,-2.022455 1.249093,0 0.496216,1.99636 0.564664,-1.99636 1.189203,0 -1.231982,4.244107 m 4.703224,1.631554 -1.146429,0 0.684438,-1.692269 -1.976308,-4.183392 1.308983,0 1.146433,2.812008 1.146429,-2.812008 1.206315,0 -2.369861,5.875661"
     id="text3120"
     style="fill:#ffffff;stroke:none"
     inkscape:connector-curvature="0" />
</svg>
