<?xml version="1.0" encoding="UTF-8" standalone="no"?>
<!-- Created with Inkscape (http://www.inkscape.org/) -->

<svg
   xmlns:dc="http://purl.org/dc/elements/1.1/"
   xmlns:cc="http://creativecommons.org/ns#"
   xmlns:rdf="http://www.w3.org/1999/02/22-rdf-syntax-ns#"
   xmlns:svg="http://www.w3.org/2000/svg"
   xmlns="http://www.w3.org/2000/svg"
   xmlns:sodipodi="http://sodipodi.sourceforge.net/DTD/sodipodi-0.dtd"
   xmlns:inkscape="http://www.inkscape.org/namespaces/inkscape"
   version="1.0"
   width="48"
   height="48"
   id="svg2"
   sodipodi:version="0.32"
   inkscape:version="0.48.1 r9760"
   sodipodi:docname="US:NY-SOSP.svg">
  <metadata
     id="metadata2420">
    <rdf:RDF>
      <cc:Work
         rdf:about="">
        <dc:format>image/svg+xml</dc:format>
        <dc:type
           rdf:resource="http://purl.org/dc/dcmitype/StillImage" />
      </cc:Work>
    </rdf:RDF>
  </metadata>
  <sodipodi:namedview
     inkscape:window-height="996"
     inkscape:window-width="1278"
     inkscape:pageshadow="2"
     inkscape:pageopacity="0.0"
     borderopacity="1.0"
     bordercolor="#666666"
     pagecolor="#ffffff"
     id="base"
     inkscape:zoom="16.895833"
     inkscape:cx="24"
     inkscape:cy="24"
     inkscape:window-x="1"
     inkscape:window-y="27"
     inkscape:current-layer="svg2"
     showgrid="true"
     inkscape:showpageshadow="false"
     inkscape:window-maximized="0">
    <inkscape:grid
       type="xygrid"
       id="grid3380"
       empspacing="5"
       visible="true"
       enabled="true"
       snapvisiblegridlinesonly="true" />
  </sodipodi:namedview>
  <defs
     id="defs4" />
  <g
     id="g3386">
    <rect
       y="1.6999999"
       x="1.7"
       height="44.599998"
       width="44.599998"
       id="rect1474"
       style="fill:#ffffff;fill-opacity:1" />
    <path
       d="M 2.8335835,46.985244 C 2.5329677,46.942136 2.1979209,46.814695 1.9440415,46.646893 1.7645296,46.528245 1.4989403,46.2704 1.3749444,46.094394 1.2350982,45.895888 1.1069718,45.619332 1.048377,45.389516 L 1,45.199776 1,23.988678 1,2.7775781 1.0545729,2.5837259 C 1.1643811,2.1936693 1.3578624,1.8707614 1.6463812,1.5960356 1.9345123,1.3216791 2.2642825,1.139341 2.6384957,1.0474711 l 0.1933629,-0.047471 21.1783194,0 21.178319,0 0.197551,0.053551 c 0.383946,0.1040766 0.683588,0.2720755 0.967571,0.5424845 0.292769,0.2787709 0.5009,0.6309129 0.598004,1.0117738 L 47,2.7975508 l 0,21.2111002 0,21.211097 -0.05457,0.193851 c -0.06729,0.239028 -0.184339,0.4877 -0.320583,0.681093 -0.123886,0.175851 -0.389512,0.433642 -0.569196,0.552408 -0.181918,0.120241 -0.467749,0.246683 -0.683966,0.30256 l -0.183186,0.04734 -21.117257,0.0028 C 12.2905,47.001289 2.9007507,46.994874 2.8335835,46.985244 z m 42.0903105,-1.10352 c 0.487215,-0.146351 0.820884,-0.485741 0.945456,-0.961668 L 45.9112,44.760172 45.9058,23.958618 C 45.900673,3.8381144 45.899274,3.1531374 45.86311,3.0372242 45.714004,2.5592776 45.369375,2.2331327 44.883078,2.1097492 l -0.16294,-0.041341 -20.760952,0.00525 C 3.8796265,2.0787424 3.194222,2.0801188 3.0761063,2.1155995 2.589046,2.2619067 2.256668,2.6000857 2.1309311,3.0772705 l -0.042128,0.1598831 0.00535,20.8015554 c 0.00517,20.120501 0.00657,20.805479 0.042737,20.921395 0.1476153,0.473159 0.4899477,0.800123 0.9697474,0.926207 0.1524469,0.04006 0.1809955,0.04012 20.9238925,0.03611 20.091533,-0.0038 20.775236,-0.0052 20.893364,-0.0407 z M 3.0941697,28.324114 c -0.00616,-0.01575 -0.00678,-0.09889 -0.00137,-0.184758 0.00541,-0.08587 0.024564,-0.713364 0.042579,-1.394434 0.02616,-0.989019 0.038297,-1.242336 0.060284,-1.258285 0.015142,-0.01099 0.3745467,-0.104277 0.7986784,-0.207306 0.4241316,-0.103033 0.7829956,-0.198119 0.7974758,-0.211295 0.020256,-0.01844 0.1174538,-2.059336 0.4214895,-8.850196 0.2173391,-4.854427 0.3886775,-8.8324423 0.3807524,-8.8400346 -0.00793,-0.00759 -0.051046,-0.016651 -0.095826,-0.020132 l -0.081416,-0.00633 0,-0.5991835 0,-0.5991835 0.4783185,-0.00999 0.4783184,-0.00999 0.00533,-0.6491156 0.00533,-0.6491156 0.5746296,-0.564231 C 7.2747897,3.9602195 7.5426531,3.7063156 7.5539948,3.7063156 c 0.011342,0 0.2792053,0.2539039 0.5952519,0.5642313 l 0.5746297,0.564231 0.00533,0.6491156 0.00533,0.6491156 0.3969029,0.00999 0.3969027,0.00999 0,0.5991835 0,0.5991835 -0.10177,0.00619 c -0.055973,0.0034 -0.1084665,0.012673 -0.1166511,0.020595 -0.012796,0.012385 0.3876262,12.9857279 0.4235053,13.7212539 0.011989,0.245822 0.015899,0.265665 0.050523,0.256778 0.020642,-0.0053 0.4176168,-0.248764 0.8821648,-0.541035 0.464548,-0.292272 0.858892,-0.531403 0.876321,-0.531403 0.02425,0 2.958629,1.933584 3.028505,1.995607 0.0083,0.0074 0.06031,0.609609 0.11548,1.338226 0.05847,0.772122 0.109326,1.333608 0.121919,1.345966 0.01188,0.01166 0.367562,0.06885 0.790393,0.127073 l 0.768786,0.105866 1.098994,-0.327015 c 0.886176,-0.263691 1.105823,-0.322618 1.134258,-0.304303 0.0194,0.0125 0.507705,0.521535 1.085132,1.131205 0.577427,0.609668 1.079058,1.12937 1.114736,1.154891 0.03568,0.02552 0.207977,0.117134 0.382888,0.203585 l 0.318017,0.157179 0.424902,0.08012 c 0.277818,0.05238 0.53647,0.08756 0.747202,0.101645 l 0.322296,0.02153 0.288322,-0.06156 c 0.568128,-0.121321 0.819111,-0.181558 0.919293,-0.220638 0.08053,-0.03142 0.13775,-0.07933 0.274109,-0.229542 0.09479,-0.104414 0.183289,-0.187311 0.196671,-0.184222 0.01338,0.0031 0.119014,0.112716 0.234739,0.243607 0.115725,0.130893 0.233309,0.254375 0.261294,0.274411 0.02799,0.02004 0.224766,0.09039 0.437284,0.15634 l 0.386393,0.119909 0.479855,0.04031 0.47985,0.0403 0.639027,-0.04039 0.63903,-0.04039 0.357113,-0.131011 c 0.196414,-0.07206 0.375433,-0.142653 0.397821,-0.156885 0.02239,-0.01423 0.141099,-0.107966 0.2638,-0.208297 0.122696,-0.100331 0.232845,-0.182417 0.244775,-0.182417 0.01193,0 0.06725,0.05935 0.122929,0.131883 0.136878,0.178307 0.199063,0.222659 0.525876,0.375038 0.199624,0.09308 0.376107,0.156958 0.610676,0.221039 0.300234,0.08201 0.367369,0.0929 0.746413,0.12098 l 0.416504,0.03085 0.392533,-0.06186 c 0.46988,-0.07405 1.043329,-0.230761 1.390302,-0.379937 0.216524,-0.09309 0.259072,-0.121027 0.517238,-0.339617 0.154717,-0.131 0.291427,-0.238182 0.303794,-0.238182 0.01237,0 0.122933,0.09887 0.245691,0.219701 0.12276,0.120835 0.230421,0.219701 0.239249,0.219701 0.0088,0 0.0502,0.02181 0.09194,0.04847 0.04174,0.02666 0.218191,0.10294 0.392118,0.169502 0.273975,0.104856 0.374302,0.131736 0.750909,0.201182 0.239075,0.04409 0.491481,0.08015 0.560898,0.08015 0.06941,0 0.308544,-0.0271 0.53139,-0.06022 0.394263,-0.0586 0.414566,-0.06397 0.753731,-0.199306 0.565629,-0.225702 0.790269,-0.33814 1.012503,-0.506781 0.110484,-0.08384 0.210534,-0.152439 0.222335,-0.152439 0.01181,0 0.136739,0.1101 0.27764,0.244667 0.235465,0.224878 0.282951,0.259804 0.587088,0.431807 l 0.330903,0.187143 0.391462,0.09633 c 0.370026,0.09105 0.414603,0.09754 0.814035,0.118397 0.408599,0.02133 0.435515,0.02034 0.814157,-0.03015 0.682636,-0.09101 1.086718,-0.213652 1.319351,-0.400416 l 0.135774,-0.108999 0.781065,0.0053 0.781063,0.0053 0,0.539264 0,0.539265 -21.224749,0.005 c -18.4143209,0.0043 -21.2262343,0.0012 -21.2359491,-0.02363 z m 5.0602552,-3.945968 0.010177,-1.98729 0.4314,-0.280185 c 0.2372699,-0.154101 0.4366986,-0.28538 0.4431748,-0.291737 0.01443,-0.01415 -0.08688,-3.250227 -0.1025305,-3.275075 -0.015505,-0.02462 -3.1577086,-0.02334 -3.1732215,0.0012 -0.016174,0.02567 -0.3791382,7.790974 -0.3651995,7.813103 0.00614,0.0098 0.6140559,0.01519 1.3785067,0.01231 l 1.3675159,-0.0052 0.010177,-1.987293 z M 8.8352237,12.05662 C 8.8495753,12.033833 8.748493,7.3835279 8.7331154,7.3591125 8.7183283,7.3356334 6.1860528,7.3357043 6.1712647,7.3591764 6.1558278,7.3836858 6.0547531,12.033671 6.0691595,12.056545 c 0.015423,0.02449 2.7506427,0.02455 2.7660642,6.4e-5 z m -1.4440729,-6.5627433 0,-0.639129 -0.3154867,0 -0.3154868,0 -0.00539,0.6189615 c -0.00296,0.3404288 -8.689e-4,0.6305189 0.00466,0.6446447 0.00771,0.01972 0.082222,0.024403 0.3208764,0.020167 l 0.3108327,-0.00552 0,-0.6391294 z m 0.9566371,0 0,-0.639129 -0.3154866,0 -0.3154867,0 -0.00539,0.6189615 c -0.00296,0.3404288 -8.689e-4,0.6305189 0.00466,0.6446447 0.00771,0.01972 0.082222,0.024403 0.3208762,0.020167 l 0.3108328,-0.00552 0,-0.6391294 z"
       style="fill:#000000"
       id="path1317"
       inkscape:connector-curvature="0" />
  </g>
  <path
     inkscape:connector-curvature="0"
     id="text1331"
     style="font-size:376.64926147px;font-style:normal;font-variant:normal;font-weight:normal;font-stretch:normal;text-align:center;line-height:100%;writing-mode:lr-tb;text-anchor:middle;fill:#000000;fill-opacity:1;stroke:none;font-family:Roadgeek 2005 Series E"
     d="m 29.247819,18.165611 c -1.3e-5,0.770043 -0.142302,1.48149 -0.426869,2.134346 -0.284591,0.652861 -0.694719,1.222019 -1.230388,1.707476 -0.468729,0.418499 -1.021147,0.74493 -1.657256,0.979288 -0.619389,0.21762 -1.288986,0.326429 -2.008797,0.326429 -1.456382,0 -2.703508,-0.385018 -3.741382,-1.155057 -1.02114,-0.786777 -1.816288,-1.824654 -2.385445,-3.113634 l 2.536105,-0.929068 c 0.351535,0.803523 0.836994,1.422901 1.456377,1.858136 0.619374,0.418502 1.33082,0.627751 2.134345,0.627749 0.786771,2e-6 1.41452,-0.234357 1.883246,-0.703079 0.485451,-0.485455 0.72818,-1.079723 0.728189,-1.782806 -9e-6,-0.552413 -0.150669,-1.004392 -0.451978,-1.355937 C 25.799377,16.407921 25.422729,16.114972 24.954018,15.880605 24.485291,15.629513 23.966353,15.411894 23.3972,15.227747 22.844775,15.043615 22.292358,14.842736 21.739944,14.625108 21.48884,14.524677 21.179151,14.382387 20.810876,14.198239 20.442593,14.014108 20.082684,13.763009 19.731148,13.44494 19.396346,13.110151 19.103397,12.700022 18.8523,12.214553 c -0.234362,-0.485448 -0.351541,-1.079716 -0.35154,-1.782807 -1e-6,-0.8202446 0.133918,-1.5149526 0.401759,-2.0841256 0.267838,-0.5858835 0.627747,-1.0546021 1.079728,-1.4061572 0.468716,-0.3682629 1.021134,-0.6361019 1.657257,-0.8035184 0.652854,-0.1673826 1.355931,-0.2510824 2.109236,-0.2510995 1.188529,1.71e-5 2.176186,0.3097062 2.962975,0.9290681 0.803507,0.6193944 1.414516,1.4563919 1.833024,2.5109951 L 26.184404,10.029987 C 26.050475,9.7621609 25.874706,9.5194316 25.657095,9.3017985 25.472949,9.1176728 25.21348,8.9502732 24.878689,8.7995995 24.56062,8.6489541 24.167231,8.5652544 23.69852,8.5484999 c -0.301327,-0.016725 -0.619385,0.00838 -0.954178,0.07533 -0.318064,0.050234 -0.602644,0.150674 -0.853738,0.3013193 -0.251105,0.1506738 -0.451984,0.3599231 -0.602639,0.6277488 -0.150664,0.2511127 -0.209254,0.569172 -0.17577,0.954178 0.03348,0.518951 0.259465,0.92071 0.677969,1.205278 0.418494,0.26785 0.929063,0.50221 1.531707,0.703078 0.602631,0.20089 1.24712,0.41014 1.933466,0.627749 0.703069,0.20089 1.347558,0.502209 1.933467,0.903958 0.585887,0.385028 1.071347,0.912337 1.456375,1.581927 0.401749,0.652866 0.602627,1.531713 0.60264,2.636545 m 14.400166,-3.540503 c -1.6e-5,1.339204 -0.159045,2.619811 -0.477092,3.841822 -0.318071,1.222021 -0.770048,2.209678 -1.355935,2.962974 -0.937449,1.255499 -2.293386,1.883246 -4.067813,1.883246 -1.188544,0 -2.167831,-0.242729 -2.937864,-0.728187 -0.770042,-0.485459 -1.40616,-1.247127 -1.908355,-2.285006 -0.351543,-0.719815 -0.636123,-1.590293 -0.85374,-2.611435 -0.21762,-1.037872 -0.326431,-2.059009 -0.326429,-3.063414 -2e-6,-1.389407 0.159029,-2.678384 0.477089,-3.866932 0.334797,-1.1885246 0.786775,-2.1845516 1.355937,-2.9880844 0.502196,-0.6361029 1.096465,-1.1048215 1.782807,-1.4061572 0.703073,-0.3180424 1.540071,-0.477072 2.510995,-0.4770891 1.071349,1.71e-5 1.983675,0.2427464 2.736984,0.7281886 0.753287,0.4854748 1.397776,1.2471425 1.933467,2.2850053 0.351526,0.7533119 0.627735,1.6321598 0.828629,2.6365448 0.200866,1.004409 0.301304,2.033915 0.30132,3.088524 m -2.661656,0 c -1.1e-5,-0.954169 -0.08371,-1.833016 -0.2511,-2.636545 C 40.567818,11.168317 40.31672,10.473609 39.981932,9.9044373 39.714083,9.4692118 39.404392,9.1511528 39.052863,8.9502592 38.718054,8.7493939 38.299556,8.6322141 37.797365,8.5987199 c -0.652866,-0.033466 -1.196913,0.117194 -1.632146,0.4519791 -0.435245,0.3348131 -0.795154,0.8788615 -1.079729,1.632147 -0.217625,0.502211 -0.385022,1.113219 -0.502198,1.833026 -0.100444,0.703089 -0.150664,1.406166 -0.15066,2.109236 -4e-6,0.903966 0.0837,1.774443 0.2511,2.611435 0.167393,0.837003 0.418493,1.523341 0.753298,2.059016 0.267833,0.435242 0.585893,0.761671 0.954177,0.979288 0.368274,0.217622 0.820252,0.326431 1.355938,0.326429 0.619371,2e-6 1.12994,-0.167397 1.531707,-0.502199 0.418491,-0.334796 0.770028,-0.878844 1.054617,-1.632147 0.08369,-0.217614 0.167391,-0.477084 0.2511,-0.778408 0.08369,-0.318054 0.150649,-0.644483 0.20088,-0.979288 0.06695,-0.351533 0.117169,-0.703072 0.15066,-1.054618 0.03347,-0.351532 0.05021,-0.694701 0.05022,-1.029508" />
  <path
     inkscape:connector-curvature="0"
     id="text1335"
     style="font-size:212.95323181px;font-style:normal;font-variant:normal;font-weight:normal;font-stretch:normal;text-align:center;line-height:100%;writing-mode:lr-tb;text-anchor:middle;fill:#000000;fill-opacity:1;stroke:none;font-family:Roadgeek 2005 Series E"
     d="m 10.954849,40.418144 c -5e-6,0.123042 -0.01657,0.246082 -0.04969,0.369117 -0.03313,0.123043 -0.08282,0.238985 -0.149068,0.347825 -0.06152,0.108844 -0.13724,0.210589 -0.227149,0.305233 -0.08992,0.08992 -0.191662,0.165631 -0.305233,0.227149 -0.137241,0.07572 -0.2697446,0.125409 -0.3975132,0.149067 -0.1230427,0.02366 -0.274476,0.03549 -0.4543002,0.03549 l -1.3558021,0 0,1.866889 -0.8660097,0 0,-4.755955 2.2218118,0 c 0.1798242,6e-6 0.3312575,0.0142 0.4543002,0.04259 0.1277686,0.0284 0.2602722,0.08045 0.3975132,0.156166 0.227146,0.123045 0.404606,0.295774 0.532382,0.518187 0.1325,0.22242 0.198752,0.4685 0.198757,0.738238 m -0.851813,0 c -3e-6,-0.184558 -0.06389,-0.331258 -0.1916579,-0.440105 C 9.783603,39.869201 9.6132406,39.814779 9.4002904,39.814775 l -1.3841959,0 0,1.18544 1.3841959,0 c 0.2129502,2e-6 0.3833126,-0.05205 0.5110877,-0.156165 0.1277689,-0.10884 0.1916549,-0.250809 0.1916579,-0.425906 m 5.156573,3.300773 -0.468497,-1.121554 -2.072745,0 -0.461398,1.121554 -0.936994,0 2.00176,-4.755955 0.86601,0 1.987563,4.755955 -0.915699,0 m -1.504869,-3.570516 -0.667254,1.604249 1.334507,0 -0.667253,-1.604249 m 6.12795,3.570516 -0.766631,-1.866889 -1.270621,0 0,1.866889 -0.851813,0 0,-4.755955 2.18632,0 c 0.175092,6e-6 0.324159,0.0142 0.447201,0.04259 0.123037,0.0284 0.246076,0.08045 0.369119,0.156166 0.227147,0.123045 0.406973,0.295774 0.539482,0.518187 0.1325,0.22242 0.198752,0.4685 0.198756,0.738238 -4e-6,0.269742 -0.06862,0.515822 -0.205855,0.738237 -0.132508,0.217687 -0.3218,0.392783 -0.567875,0.525285 l 0.873108,2.037251 -0.951191,0 m 0,-3.300773 c -3e-6,-0.184558 -0.06152,-0.331258 -0.184559,-0.440105 -0.123043,-0.108838 -0.291039,-0.16326 -0.503989,-0.163264 l -1.348704,0 0,1.18544 1.348704,0 c 0.21295,2e-6 0.380946,-0.05205 0.503989,-0.156165 0.123036,-0.10884 0.184556,-0.250809 0.184559,-0.425906 m 4.875076,3.300773 -1.213833,-2.470256 -0.901502,1.135749 0,1.334507 -0.851813,0 0,-4.755955 0.851813,0 0,2.072746 1.682329,-2.072746 1.10026,0 -1.263522,1.554559 1.568755,3.201396 -0.972487,0 m 5.487871,0 -0.901502,0 -0.766631,-3.1872 -0.752436,3.1872 -0.901502,0 -0.866009,-4.755955 0.880207,0 0.518184,3.073626 0.702747,-3.073626 0.851813,0 0.73114,3.073626 0.489791,-3.073626 0.866011,0 -0.851813,4.755955 m 5.158568,0 -0.468497,-1.121554 -2.072745,0 -0.461397,1.121554 -0.936996,0 2.001762,-4.755955 0.866009,0 1.987564,4.755955 -0.9157,0 m -1.504868,-3.570516 -0.667254,1.604249 1.334507,0 -0.667253,-1.604249 m 5.659452,1.632642 0,1.937874 -0.851811,0 0,-1.937874 -2.001762,-2.818081 1.050571,0 1.384196,1.937875 1.369997,-1.937875 1.050571,0 -2.001762,2.818081" />
  <path
     inkscape:connector-curvature="0"
     id="text1339"
     style="font-size:212.95323181px;font-style:normal;font-variant:normal;font-weight:normal;font-stretch:normal;text-align:center;line-height:100%;writing-mode:lr-tb;text-anchor:middle;fill:#000000;fill-opacity:1;stroke:none;font-family:Roadgeek 2005 Series E"
     d="m 9.3615817,34.068055 c -4.2e-6,0.482696 -0.2224217,0.85418 -0.6672532,1.114456 -0.1656338,0.104111 -0.3525591,0.18456 -0.5607769,0.241346 -0.2082235,0.05206 -0.4235428,0.07808 -0.6459581,0.07808 -0.4117113,0 -0.7760975,-0.07335 -1.0931597,-0.220051 C 6.0821016,35.130455 5.7910659,34.898573 5.5213257,34.586242 L 6.2027758,34.05386 c 0.179826,0.208222 0.3691175,0.359655 0.5678753,0.4543 0.1987546,0.09465 0.4330028,0.141969 0.7027457,0.141969 0.3028642,0 0.5513093,-0.05679 0.7453362,-0.170363 C 8.4127538,34.36146 8.5097656,34.212393 8.5097689,34.032564 8.5097656,33.843273 8.4103876,33.698938 8.2116345,33.59956 8.1264503,33.566435 8.0365368,33.533309 7.9418937,33.50018 7.8519774,33.467058 7.7525994,33.438662 7.6437592,33.415 L 7.4237077,33.351113 7.2036559,33.301424 6.976506,33.23044 C 6.7304251,33.173655 6.5364013,33.112135 6.3944338,33.04588 6.2571963,32.974898 6.1388889,32.88262 6.0395118,32.769042 c -0.099379,-0.10884 -0.1750955,-0.23188 -0.2271502,-0.36912 -0.047324,-0.137233 -0.070985,-0.281569 -0.070984,-0.433004 -4e-7,-0.198754 0.040224,-0.37858 0.1206735,-0.539482 0.080448,-0.160894 0.1916571,-0.298129 0.3336267,-0.411709 0.1419677,-0.118302 0.3123302,-0.208216 0.5110877,-0.26974 0.2034869,-0.06625 0.4259046,-0.09937 0.6672535,-0.09938 0.3549195,6e-6 0.676715,0.05916 0.9653879,0.177462 0.2933986,0.118311 0.5607731,0.302871 0.8021237,0.553678 L 8.5097689,31.945622 C 8.2116314,31.633296 7.8330483,31.477129 7.3740186,31.477125 c -0.2413489,4e-6 -0.4306406,0.04496 -0.5678753,0.134871 -0.1325057,0.08518 -0.1987577,0.203491 -0.1987564,0.354922 -1.3e-6,0.06625 0.011829,0.125409 0.035492,0.17746 0.02366,0.04733 0.063885,0.09228 0.1206736,0.134871 0.056786,0.03786 0.1325024,0.07335 0.2271502,0.106475 0.099376,0.03313 0.2224157,0.06626 0.3691188,0.09938 0.3170611,0.06625 0.5820693,0.132507 0.7950253,0.198756 0.2129499,0.06626 0.3856786,0.132507 0.5181861,0.198755 0.2129496,0.108847 0.3809458,0.269745 0.5039893,0.482696 0.1230356,0.208222 0.1845551,0.442471 0.1845593,0.702744 M 14.151365,33.04588 c -4e-6,0.373853 -0.04733,0.714578 -0.141969,1.022175 -0.08992,0.302869 -0.220055,0.563145 -0.390414,0.780829 -0.170366,0.217687 -0.378587,0.388049 -0.624663,0.511089 -0.24135,0.118307 -0.513456,0.17746 -0.81632,0.17746 -0.350192,0 -0.653059,-0.07098 -0.908601,-0.212953 -0.250812,-0.1467 -0.459033,-0.335994 -0.624662,-0.567876 -0.165631,-0.236613 -0.288671,-0.501622 -0.369119,-0.795024 -0.07572,-0.298133 -0.113576,-0.596267 -0.113575,-0.894405 -10e-7,-0.378579 0.04496,-0.719304 0.13487,-1.022175 0.09464,-0.302862 0.229515,-0.560773 0.404611,-0.773729 0.175094,-0.212949 0.385681,-0.376213 0.631761,-0.489793 0.25081,-0.113571 0.532381,-0.170358 0.844715,-0.170362 0.293399,4e-6 0.560774,0.05916 0.802123,0.17746 0.241344,0.118313 0.449565,0.283942 0.624663,0.496891 0.175091,0.212958 0.309961,0.470866 0.404611,0.773731 0.09464,0.298138 0.141965,0.627031 0.141969,0.986682 m -0.851813,0.0213 c -3e-6,-0.501619 -0.09702,-0.894399 -0.291036,-1.178339 -0.194027,-0.283936 -0.470866,-0.425905 -0.830517,-0.425907 -0.359657,2e-6 -0.641228,0.141971 -0.844715,0.425907 -0.20349,0.28394 -0.305234,0.67672 -0.305233,1.178339 -10e-7,0.511089 0.101743,0.908603 0.305233,1.192538 0.203487,0.28394 0.485058,0.425909 0.844715,0.425907 0.227147,2e-6 0.411706,-0.04969 0.553678,-0.149067 0.146698,-0.09938 0.260273,-0.227149 0.340725,-0.383315 0.08518,-0.156165 0.144332,-0.328894 0.177461,-0.518187 0.03312,-0.194022 0.04969,-0.383313 0.04969,-0.567876 m 5.787447,0.468498 c -4e-6,0.293405 -0.04733,0.563145 -0.141968,0.809222 -0.09465,0.241347 -0.227155,0.451934 -0.397513,0.63176 -0.170367,0.175096 -0.373855,0.312334 -0.610466,0.411711 -0.236618,0.09938 -0.494528,0.149067 -0.77373,0.149067 -0.279207,0 -0.537117,-0.04969 -0.77373,-0.149067 -0.231884,-0.09938 -0.433006,-0.236615 -0.603367,-0.411711 -0.170364,-0.179826 -0.302868,-0.390413 -0.397513,-0.63176 -0.09465,-0.246077 -0.14197,-0.515817 -0.141969,-0.809222 l 0,-2.839377 0.851813,0 0,2.839377 c -10e-7,0.141971 0.0095,0.257911 0.02839,0.347822 0.02366,0.08518 0.06388,0.175098 0.120673,0.269743 0.09464,0.156166 0.222416,0.281571 0.383316,0.376217 0.160896,0.09465 0.338357,0.141969 0.532383,0.141969 0.194021,0 0.371482,-0.04732 0.532383,-0.141969 0.165627,-0.09465 0.295765,-0.220051 0.390414,-0.376217 0.05678,-0.09464 0.09464,-0.186925 0.113575,-0.27684 0.02366,-0.09464 0.03549,-0.208218 0.03549,-0.340725 l 0,-2.839377 0.851813,0 0,2.839377 0,0 m 3.001531,-2.00176 0,3.918338 -0.830517,0 0,-3.918338 -1.369999,0 0,-0.837617 3.570515,0 0,0.837617 -1.369999,0 m 5.158349,3.918338 0,-2.08694 -2.13663,0.0142 0,2.072744 -0.851814,0 0,-4.755955 0.851814,0 0,1.838497 2.13663,0 0,-1.838497 0.851812,0 0,4.755955 -0.851812,0 m 2.085831,0 0,-4.755955 3.471138,0 0,0.851813 -2.605129,0 0,0.880207 1.419689,0 0,0.873108 -1.419689,0 0,1.299016 2.690311,0 0,0.851811 -3.55632,0 m 7.394911,0 -0.766631,-1.866889 -1.270622,0 0,1.866889 -0.851811,0 0,-4.755955 2.186319,0 c 0.175091,6e-6 0.324158,0.0142 0.4472,0.04259 0.123038,0.0284 0.246076,0.08045 0.36912,0.156166 0.227147,0.123045 0.406974,0.295774 0.539482,0.518187 0.1325,0.22242 0.198752,0.4685 0.198756,0.738238 -4e-6,0.269742 -0.06862,0.515822 -0.205856,0.738237 -0.132506,0.217687 -0.321799,0.392783 -0.567875,0.525285 l 0.873109,2.037251 -0.951191,0 m 0,-3.300773 c -2e-6,-0.184558 -0.06152,-0.331258 -0.18456,-0.440105 -0.123042,-0.108837 -0.291038,-0.16326 -0.503989,-0.163264 l -1.348704,0 0,1.18544 1.348704,0 c 0.212951,2e-6 0.380947,-0.05205 0.503989,-0.156165 0.123038,-0.10884 0.184558,-0.250808 0.18456,-0.425906 m 5.009948,3.300773 -2.264404,-3.27238 0,3.27238 -0.837616,0 0,-4.755955 0.837616,0 2.179222,3.137511 0,-3.137511 0.82342,0 0,4.755955 -0.738238,0" />
</svg>
