<?xml version="1.0" encoding="UTF-8" standalone="no"?>
<!-- Created with Inkscape (http://www.inkscape.org/) -->

<svg
   xmlns:dc="http://purl.org/dc/elements/1.1/"
   xmlns:cc="http://creativecommons.org/ns#"
   xmlns:rdf="http://www.w3.org/1999/02/22-rdf-syntax-ns#"
   xmlns:svg="http://www.w3.org/2000/svg"
   xmlns="http://www.w3.org/2000/svg"
   xmlns:sodipodi="http://sodipodi.sourceforge.net/DTD/sodipodi-0.dtd"
   xmlns:inkscape="http://www.inkscape.org/namespaces/inkscape"
   version="1.0"
   width="60"
   height="48"
   id="svg2"
   inkscape:version="0.48.1 r9760"
   sodipodi:docname="US:NY-HRD.svg">
  <metadata
     id="metadata3098">
    <rdf:RDF>
      <cc:Work
         rdf:about="">
        <dc:format>image/svg+xml</dc:format>
        <dc:type
           rdf:resource="http://purl.org/dc/dcmitype/StillImage" />
      </cc:Work>
    </rdf:RDF>
  </metadata>
  <sodipodi:namedview
     pagecolor="#ffffff"
     bordercolor="#666666"
     borderopacity="1"
     objecttolerance="10"
     gridtolerance="10"
     guidetolerance="10"
     inkscape:pageopacity="0"
     inkscape:pageshadow="2"
     inkscape:window-width="1278"
     inkscape:window-height="996"
     id="namedview3096"
     showgrid="true"
     inkscape:showpageshadow="false"
     inkscape:zoom="16.895833"
     inkscape:cx="30"
     inkscape:cy="24"
     inkscape:window-x="1"
     inkscape:window-y="27"
     inkscape:window-maximized="0"
     inkscape:current-layer="svg2">
    <inkscape:grid
       type="xygrid"
       id="grid3653"
       empspacing="5"
       visible="true"
       enabled="true"
       snapvisiblegridlinesonly="true" />
  </sodipodi:namedview>
  <defs
     id="defs4" />
  <path
     d="M 29.999997,1 C 25.066835,1 20.829935,1.737881 16.238913,4.426909 11.664806,7.106119 7.2054515,8.524783 1,8.524783 L 1,35.649914 C 1,38.059653 1.00463,38.060687 2.5635112,39.27912 5.2873319,41.408537 29.999997,47 29.999997,47 c 0,0 24.712669,-5.591463 27.436495,-7.72088 C 58.995376,38.060687 59,38.059653 59,35.649914 L 59,8.524783 c -6.205451,0 -10.66481,-1.418664 -15.238914,-4.097874 C 39.170064,1.737881 34.933162,1 29.999997,1 z"
     id="rect4804"
     style="fill:#006b54;stroke:none"
     inkscape:connector-curvature="0" />
  <path
     d="m 14.343757,17.506467 0,-3.82556 -3.553229,0 0,3.82556 -1.6932356,0 0,-8.718413 1.6932356,0 0,3.14917 3.553229,0 0,-3.14917 1.693235,0 0,8.718413 -1.693235,0"
     id="text1352"
     style="fill:#ffffff;stroke:none"
     inkscape:connector-curvature="0" />
  <path
     d="m 22.657938,29.442001 -1.180134,-3.279385 -2.257648,0 0,3.279385 -1.693235,0 0,-8.744509 3.886745,0 c 0.179581,0 0.337787,0 0.474619,0.02584 0.145372,0 0.277925,0.02584 0.397655,0.05167 0.128268,0.02584 0.247992,0.06459 0.359171,0.116263 0.11117,0.04392 0.22661,0.100761 0.346343,0.170519 0.419026,0.240276 0.748267,0.572529 0.98772,0.989008 0.239433,0.416221 0.359165,0.871712 0.359172,1.366216 -7e-6,0.477194 -0.106909,0.919509 -0.32069,1.327204 -0.213793,0.407695 -0.517383,0.741756 -0.910754,1.002185 l 1.35972,3.695605 -1.808684,0 m 0,-6.024994 c -6e-6,-0.277738 -0.102626,-0.50768 -0.307861,-0.689825 -0.205246,-0.191188 -0.466073,-0.286007 -0.78248,-0.286007 l -2.347441,0 0,1.977759 2.347441,0 c 0.316407,0 0.577234,-0.09043 0.78248,-0.273347 0.205234,-0.183437 0.307855,-0.425263 0.307861,-0.72858"
     id="text2229"
     style="fill:#ffffff;stroke:none"
     inkscape:connector-curvature="0" />
  <path
     d="m 29.045107,36.935522 c -8e-6,0.668123 -0.102636,1.270881 -0.307865,1.80879 -0.205247,0.537909 -0.496003,0.997534 -0.872268,1.379134 -0.367732,0.373075 -0.812422,0.663731 -1.334064,0.871971 -0.521661,0.209273 -1.103175,0.312359 -1.74455,0.312359 l -2.680955,0 0,-8.744767 2.680955,0 c 0.649924,0 1.235717,0.103345 1.757375,0.312618 0.521647,0.206689 0.966332,0.502772 1.334061,0.88463 0.376273,0.3816 0.662754,0.841484 0.859446,1.379393 0.205246,0.537909 0.307857,1.136533 0.307865,1.795872 m -1.693237,0 c -5e-6,-0.832958 -0.218092,-1.479379 -0.654204,-1.939004 -0.436143,-0.459884 -1.043313,-0.689568 -1.821513,-0.689568 l -1.077511,0 0,5.257143 1.077511,0 c 0.7782,0 1.38537,-0.232525 1.821513,-0.689825 0.436128,-0.459884 0.654199,-1.105788 0.654204,-1.938746"
     id="text2233"
     style="fill:#ffffff;stroke:none"
     inkscape:connector-curvature="0" />
  <path
     d="m 20.938834,16.046724 0,-0.139515 c -0.19963,0.08268 -0.393554,0.134348 -0.581771,0.1576 -0.188224,0.02842 -0.362183,0.04392 -0.521883,0.04392 -0.233852,0 -0.447737,-0.03617 -0.641659,-0.103345 -0.193925,-0.06976 -0.362182,-0.167935 -0.504772,-0.295049 -0.142591,-0.129181 -0.253815,-0.277738 -0.333663,-0.451099 -0.07415,-0.180853 -0.111223,-0.373333 -0.111223,-0.581314 0,-0.222191 0.04278,-0.42268 0.128332,-0.607666 0.09126,-0.186021 0.213884,-0.344397 0.367884,-0.477453 0.153998,-0.139515 0.336513,-0.248027 0.54755,-0.320885 0.211033,-0.08268 0.439177,-0.12143 0.684436,-0.12143 0.119773,0 0.268068,0 0.444884,0.03617 0.176811,0.02584 0.35077,0.06717 0.521883,0.131764 -0.01142,-0.204106 -0.08556,-0.347238 -0.222442,-0.434047 -0.136888,-0.09301 -0.310851,-0.139516 -0.521883,-0.139516 -0.399256,0 -0.795659,0.111096 -1.189208,0.329928 l -0.419217,-0.920026 c 0.153997,-0.08268 0.296588,-0.14985 0.427773,-0.209273 0.136886,-0.05942 0.268069,-0.105928 0.39355,-0.139515 0.131181,-0.03617 0.259514,-0.06201 0.384996,-0.07751 0.125478,-0.02584 0.259513,-0.02584 0.402106,-0.02584 0.576065,0 1.023799,0.144683 1.343207,0.434048 0.325103,0.283423 0.487657,0.723154 0.487661,1.319195 l 0,2.594726 -1.086542,0 m 0,-1.709321 c -0.171114,-0.06459 -0.347925,-0.111096 -0.530439,-0.139515 -0.176816,-0.03617 -0.322258,-0.05167 -0.436328,-0.05167 -0.182519,0 -0.336517,0.0465 -0.461995,0.139516 -0.119777,0.08784 -0.179665,0.198938 -0.179662,0.329927 -2e-6,0.134348 0.07414,0.248028 0.222441,0.34698 0.148292,0.09818 0.322253,0.147266 0.521883,0.147266 0.119775,0 0.250955,-0.02584 0.393551,-0.04392 0.148292,-0.02842 0.305141,-0.09043 0.47055,-0.183437 l 0,-0.546435 m 5.847119,-1.163144 c -0.07984,-0.134348 -0.182532,-0.229942 -0.307997,-0.286523 -0.125478,-0.05942 -0.242409,-0.08784 -0.350773,-0.08784 -0.256666,0 -0.433478,0.07493 -0.530439,0.227358 -0.09129,0.152434 -0.136898,0.376175 -0.136898,0.676908 l 0,2.343081 -1.146433,0 0,-4.243848 1.146433,0 0,0.209273 c 0.142596,-0.116263 0.276621,-0.196355 0.402104,-0.24286 0.131175,-0.0465 0.27092,-0.06976 0.419215,-0.06976 0.171085,0 0.325108,0.02584 0.461996,0.06976 0.142597,0.0465 0.285181,0.129181 0.427775,0.24286 l -0.384996,1.163144 m 1.771779,2.872465 0,-5.467708 1.146433,-0.451357 0,5.919065 -1.146433,0 m 4.083899,-1.752984 c 0.06275,0.245444 0.171085,0.433789 0.325106,0.572788 0.154017,0.134348 0.322251,0.201522 0.50477,0.201522 0.23956,0 0.453435,-0.131764 0.641662,-0.390126 l 0.787099,0.693959 c -0.216769,0.260429 -0.439182,0.448516 -0.667324,0.564262 -0.228139,0.116263 -0.481962,0.173102 -0.761437,0.173102 -0.268072,0 -0.521882,-0.05426 -0.761437,-0.165351 -0.23956,-0.116263 -0.450583,-0.271796 -0.633102,-0.468668 -0.182532,-0.196355 -0.327959,-0.428105 -0.436326,-0.694476 -0.108359,-0.271538 -0.162564,-0.563745 -0.162564,-0.876363 -3e-6,-0.306417 0.05133,-0.59294 0.153992,-0.859052 0.108359,-0.266113 0.250981,-0.497863 0.427774,-0.694218 0.176834,-0.204106 0.382142,-0.361706 0.615991,-0.477711 0.233837,-0.116263 0.479106,-0.175686 0.735774,-0.175686 0.342212,0 0.655912,0.100761 0.9411,0.303834 0.290883,0.198938 0.513322,0.462725 0.667327,0.798337 0.07984,0.198939 0.139747,0.402269 0.179657,0.616451 0.03993,0.209273 0.05988,0.445415 0.05988,0.711528 l 0,0.165351 -2.617967,0 m 1.428759,-0.96343 c -0.07984,-0.211857 -0.171111,-0.36429 -0.273772,-0.4511 -0.09699,-0.09301 -0.225316,-0.139515 -0.384996,-0.139515 -0.154017,0 -0.296594,0.05167 -0.427774,0.157601 -0.125478,0.09818 -0.219593,0.240276 -0.282332,0.433789 l 1.368874,0 0,0 m 8.126748,2.716414 0,-2.551321 c -8e-6,-0.09818 -0.02009,-0.188604 -0.05988,-0.269213 -0.03993,-0.08784 -0.09412,-0.162768 -0.162564,-0.227358 -0.06845,-0.06459 -0.148295,-0.113679 -0.239561,-0.147266 -0.08557,-0.03617 -0.179657,-0.05167 -0.282331,-0.05167 -0.09699,0 -0.18823,0.02584 -0.273772,0.06201 -0.08554,0.03617 -0.162565,0.08526 -0.231014,0.147266 -0.06275,0.05942 -0.114082,0.129181 -0.154017,0.209273 -0.03994,0.07493 -0.05988,0.155017 -0.05988,0.235109 l 0,2.594726 -1.086542,0 0,-2.551321 c -5e-6,-0.198938 -0.0713,-0.361706 -0.213869,-0.494762 -0.142597,-0.134348 -0.3137,-0.201522 -0.513328,-0.201522 -0.102661,0 -0.199625,0.02584 -0.290883,0.05167 -0.08554,0.03617 -0.162564,0.08526 -0.230988,0.147266 -0.06845,0.05684 -0.122629,0.131764 -0.162564,0.217024 -0.03993,0.08268 -0.05988,0.167935 -0.05988,0.26017 l 0,2.56889 -1.146432,0 0,-4.243849 1.146432,0 0,0.227359 c 0.199625,-0.12143 0.379288,-0.20669 0.538993,-0.253195 0.165388,-0.05167 0.347917,-0.07751 0.54755,-0.07751 0.433472,0 0.801354,0.165351 1.10365,0.494762 0.136874,-0.09818 0.256661,-0.180853 0.359333,-0.245443 0.108359,-0.06459 0.21102,-0.113679 0.307994,-0.147266 0.09696,-0.04134 0.193928,-0.06717 0.290886,-0.07751 0.102661,-0.02584 0.21387,-0.02584 0.333662,-0.02584 0.222442,0 0.43347,0.03875 0.6331,0.113679 0.199625,0.06976 0.376434,0.167935 0.530441,0.295049 0.154018,0.129181 0.276621,0.280581 0.367887,0.459884 0.09124,0.175686 0.136873,0.361706 0.136899,0.564003 l 0,2.916128 -1.129319,0"
     id="text2239"
     style="fill:#ffffff;stroke:none"
     inkscape:connector-curvature="0" />
  <path
     d="m 27.903281,22.661557 c -3e-6,0.152434 -0.0542,0.283423 -0.162564,0.399169 -0.108359,0.116263 -0.242409,0.175686 -0.402109,0.175686 -0.148295,0 -0.276627,-0.05942 -0.384993,-0.175686 -0.108359,-0.116263 -0.162564,-0.248027 -0.162564,-0.399169 -3e-6,-0.167935 0.0542,-0.303575 0.162564,-0.407953 0.108359,-0.111095 0.236736,-0.165351 0.384993,-0.165351 0.159715,0 0.293737,0.05426 0.402109,0.165351 0.108359,0.105929 0.162564,0.240277 0.162564,0.407953 m -1.129324,5.346536 0,-4.244365 1.146432,0 0,4.244365 -1.146432,0 m 5.658101,0 -1.274764,0 -1.56565,-4.244365 1.189208,0 1.043766,2.716673 0.96677,-2.716673 1.206317,0 -1.565647,4.244365 m 3.856502,-1.753242 c 0.06275,0.24286 0.171085,0.433789 0.32511,0.572788 0.154018,0.134348 0.322252,0.201522 0.504768,0.201522 0.239561,0 0.453438,-0.131764 0.641662,-0.390384 l 0.787102,0.694217 c -0.216769,0.260171 -0.439185,0.448516 -0.667327,0.564262 -0.228139,0.116263 -0.481959,0.175686 -0.761437,0.175686 -0.268072,0 -0.521884,-0.05426 -0.761434,-0.165351 -0.23956,-0.116263 -0.450591,-0.271797 -0.633102,-0.46841 -0.182532,-0.198938 -0.32796,-0.428622 -0.436331,-0.694476 -0.10836,-0.271797 -0.162565,-0.564004 -0.162565,-0.876621 -2e-6,-0.306934 0.05133,-0.593198 0.154018,-0.859311 0.108359,-0.266112 0.250981,-0.497605 0.427774,-0.694476 0.176834,-0.204106 0.382144,-0.361706 0.615994,-0.477194 0.233837,-0.116263 0.4791,-0.173102 0.735767,-0.173102 0.342219,0 0.655918,0.100761 0.941101,0.303833 0.290884,0.198938 0.51332,0.462984 0.667325,0.798596 0.07985,0.198938 0.139747,0.401752 0.179683,0.615934 0.03993,0.209273 0.05988,0.445674 0.05988,0.711786 l 0,0.165352 -2.617972,0 m 1.428763,-0.963431 c -0.07985,-0.21444 -0.17111,-0.364806 -0.273774,-0.451358 -0.09699,-0.09301 -0.225316,-0.139515 -0.384996,-0.139515 -0.154017,0 -0.296591,0.05167 -0.427772,0.157601 -0.125478,0.09818 -0.219592,0.24286 -0.282334,0.434047 l 1.368876,0 0,0 m 5.431778,-0.1576 c -0.07984,-0.134348 -0.182532,-0.227359 -0.307995,-0.286523 -0.125478,-0.05942 -0.242409,-0.08784 -0.350776,-0.08784 -0.256666,0 -0.433477,0.07492 -0.530438,0.224774 -0.09129,0.152434 -0.136899,0.375916 -0.136899,0.676908 l 0,2.343598 -1.146429,0 0,-4.244365 1.146429,0 0,0.209273 c 0.142597,-0.116263 0.276624,-0.196355 0.402107,-0.240276 0.131175,-0.0465 0.270915,-0.06976 0.419217,-0.06976 0.171086,0 0.325103,0.02584 0.461995,0.06976 0.142596,0.0465 0.285177,0.126597 0.427771,0.240276 l -0.384995,1.163144"
     id="text3116"
     style="fill:#ffffff;stroke:none"
     inkscape:connector-curvature="0" />
  <path
     d="m 33.061848,36.931646 c -0.07984,-0.134348 -0.182532,-0.229941 -0.307994,-0.286264 -0.125478,-0.05684 -0.242409,-0.08784 -0.350774,-0.08784 -0.256668,0 -0.433479,0.07493 -0.530435,0.227358 -0.09124,0.152434 -0.136899,0.376175 -0.136899,0.676908 l 0,2.34334 -1.14643,0 0,-4.244107 1.14643,0 0,0.209273 c 0.142596,-0.116263 0.276623,-0.198939 0.402106,-0.245444 0.131176,-0.04651 0.270924,-0.06976 0.419221,-0.06976 0.171085,0 0.3251,0.02584 0.461994,0.06976 0.142596,0.0465 0.285175,0.129181 0.427769,0.245444 l -0.384995,1.162886 m 2.901102,-2.473555 c -2e-6,0.152434 -0.05421,0.283423 -0.162564,0.399427 -0.108359,0.116263 -0.242409,0.175686 -0.402107,0.175686 -0.148294,0 -0.276631,-0.05942 -0.384993,-0.175686 -0.108359,-0.116262 -0.162564,-0.248027 -0.162564,-0.399427 -2e-6,-0.167935 0.0542,-0.303833 0.162564,-0.407953 0.10836,-0.111095 0.236737,-0.165351 0.384993,-0.165351 0.159716,0 0.293738,0.05426 0.402107,0.165351 0.108359,0.103345 0.162564,0.237693 0.162564,0.407953 m -1.129318,5.346278 0,-4.244107 1.146427,0 0,4.244107 -1.146427,0 m 5.658095,0 -1.274762,0 -1.565649,-4.244107 1.189208,0 1.043763,2.716414 0.96677,-2.716414 1.206317,0 -1.565647,4.244107 m 3.856505,-1.752984 c 0.06275,0.24286 0.171085,0.433789 0.325108,0.572529 0.154017,0.134349 0.322254,0.201523 0.50477,0.201523 0.23956,0 0.453435,-0.131765 0.641662,-0.390643 l 0.787102,0.694476 c -0.216769,0.26017 -0.439188,0.448257 -0.667325,0.564003 -0.228139,0.116263 -0.481959,0.175686 -0.761439,0.175686 -0.268072,0 -0.521884,-0.05426 -0.761431,-0.165351 -0.239561,-0.116263 -0.450591,-0.272055 -0.633108,-0.468668 -0.182532,-0.196355 -0.327959,-0.428364 -0.436329,-0.694476 -0.108359,-0.272055 -0.162564,-0.564004 -0.162564,-0.876363 0,-0.306675 0.05133,-0.593198 0.154018,-0.859052 0.108359,-0.266371 0.250981,-0.497863 0.427774,-0.694477 0.176834,-0.204105 0.382139,-0.361706 0.615991,-0.477452 0.233838,-0.116263 0.479103,-0.173102 0.735769,-0.173102 0.342214,0 0.655917,0.100761 0.941097,0.303833 0.290881,0.198938 0.51333,0.462984 0.66733,0.798596 0.07984,0.198938 0.139747,0.402011 0.179657,0.616192 0.03993,0.209273 0.05988,0.445674 0.05988,0.711528 l 0,0.165352 -2.617969,0 m 1.428763,-0.963431 c -0.07984,-0.21444 -0.171111,-0.364548 -0.273777,-0.451358 -0.09699,-0.09301 -0.225316,-0.139515 -0.384995,-0.139515 -0.154018,0 -0.296592,0.05167 -0.427772,0.157601 -0.125478,0.09818 -0.219593,0.240276 -0.282329,0.433789 l 1.368873,0 0,0"
     id="text3120"
     style="fill:#ffffff;stroke:none"
     inkscape:connector-curvature="0" />
</svg>
