<?xml version="1.0" encoding="UTF-8" standalone="no"?>
<!-- Created with Inkscape (http://www.inkscape.org/) -->

<svg
   xmlns:dc="http://purl.org/dc/elements/1.1/"
   xmlns:cc="http://creativecommons.org/ns#"
   xmlns:rdf="http://www.w3.org/1999/02/22-rdf-syntax-ns#"
   xmlns:svg="http://www.w3.org/2000/svg"
   xmlns="http://www.w3.org/2000/svg"
   xmlns:sodipodi="http://sodipodi.sourceforge.net/DTD/sodipodi-0.dtd"
   xmlns:inkscape="http://www.inkscape.org/namespaces/inkscape"
   version="1.0"
   width="48"
   height="48"
   id="svg2"
   inkscape:version="0.48.1 r9760"
   sodipodi:docname="US:NY-LE.svg">
  <metadata
     id="metadata11">
    <rdf:RDF>
      <cc:Work
         rdf:about="">
        <dc:format>image/svg+xml</dc:format>
        <dc:type
           rdf:resource="http://purl.org/dc/dcmitype/StillImage" />
      </cc:Work>
    </rdf:RDF>
  </metadata>
  <sodipodi:namedview
     pagecolor="#ffffff"
     bordercolor="#666666"
     borderopacity="1"
     objecttolerance="10"
     gridtolerance="10"
     guidetolerance="10"
     inkscape:pageopacity="0"
     inkscape:pageshadow="2"
     inkscape:window-width="1278"
     inkscape:window-height="1006"
     id="namedview9"
     showgrid="true"
     inkscape:showpageshadow="false"
     inkscape:zoom="17.104167"
     inkscape:cx="24"
     inkscape:cy="24"
     inkscape:window-x="1"
     inkscape:window-y="1"
     inkscape:window-maximized="0"
     inkscape:current-layer="svg2">
    <inkscape:grid
       type="xygrid"
       id="grid2988"
       empspacing="5"
       visible="true"
       enabled="true"
       snapvisiblegridlinesonly="true" />
  </sodipodi:namedview>
  <defs
     id="defs4" />
  <g
     id="g3762">
    <path
       d="m 4.3125,1.5 39.375,0 C 45.245625,1.5 46.5,2.754375 46.5,4.3125 l 0,39.375 c 0,1.558125 -1.254375,2.8125 -2.8125,2.8125 l -39.375,0 C 2.754375,46.5 1.5,45.245625 1.5,43.6875 l 0,-39.375 C 1.5,2.754375 2.754375,1.5 4.3125,1.5 z"
       style="fill:#006e55;fill-opacity:1;stroke:none"
       id="rect2876"
       inkscape:connector-curvature="0" />
    <path
       d="M 3.8749999,1 C 2.28225,1 1,2.28225 1,3.875 l 0,40.25 C 1,45.71775 2.28225,47 3.8749999,47 L 44.125,47 C 45.71775,47 47,45.71775 47,44.125 L 47,3.875 C 47,2.28225 45.71775,1 44.125,1 L 3.8749999,1 z m 0.9583333,0.9583333 38.3333338,0 c 1.59275,0 2.875,1.2822501 2.875,2.875 l 0,38.3333337 c 0,1.59275 -1.28225,2.875 -2.875,2.875 l -38.3333338,0 c -1.5927499,0 -2.8749999,-1.28225 -2.8749999,-2.875 l 0,-38.3333337 c 0,-1.5927499 1.28225,-2.875 2.8749999,-2.875 z"
       style="fill:#ffffff;fill-opacity:1;stroke:none"
       id="rect4653"
       inkscape:connector-curvature="0" />
    <path
       d="m 3.9274082,1.0615136 c -1.5886022,0 -2.8675131,1.2788667 -2.8675131,2.867414 l 0,40.1437984 c 0,1.588548 1.2789109,2.867414 2.8675131,2.867414 l 40.1451838,0 c 1.588602,0 2.867513,-1.278866 2.867513,-2.867414 l 0,-40.1437984 c 0,-1.5885473 -1.278911,-2.867414 -2.867513,-2.867414 l -40.1451838,0 z"
       style="fill:none;stroke:#000000;stroke-width:0.0753312;stroke-miterlimit:4;stroke-opacity:1"
       id="path2881"
       inkscape:connector-curvature="0" />
  </g>
  <path
     inkscape:connector-curvature="0"
     id="text5543"
     style="font-size:562.82049561px;font-style:normal;font-variant:normal;font-weight:bold;font-stretch:normal;text-align:start;line-height:144.09674406%;writing-mode:lr-tb;text-anchor:start;fill:#ffffff;fill-opacity:1;stroke:none;font-family:Segoe Media Center Semibold"
     d="m 5.0183733,19.258313 0,-8.371861 1.19963,0 0,7.259934 3.0612299,0 0,1.111927 -4.2608599,0 z m 8.9407897,0 -0.587232,-2.286771 -1.799445,0 -0.549481,2.286771 -1.2122129,0 2.0865779,-8.371861 1.174845,0 2.086578,8.371861 -1.19963,0 z m -1.499347,-5.872696 -0.587231,2.411462 1.19963,0 -0.612399,-2.411462 z m 8.118666,3.585925 c -6e-6,0.341664 -0.06038,0.660319 -0.181127,0.955967 -0.120756,0.295651 -0.287329,0.55177 -0.499719,0.768358 -0.212399,0.21659 -0.458158,0.389454 -0.73728,0.518594 -0.279129,0.12914 -0.581134,0.19371 -0.906014,0.19371 -0.366578,0 -0.695592,-0.0708 -0.987045,-0.212394 -0.291456,-0.141597 -0.537153,-0.333146 -0.73709,-0.574648 -0.199939,-0.241502 -0.354055,-0.520563 -0.462349,-0.837186 -0.108295,-0.316621 -0.162443,-0.645635 -0.162442,-0.987045 l 1.174463,0 c -2e-6,0.174901 0.02288,0.347702 0.06864,0.518403 0.04576,0.170706 0.116555,0.324822 0.212395,0.46235 0.09584,0.13753 0.21665,0.247922 0.362444,0.331176 0.145788,0.08325 0.322784,0.124883 0.530987,0.124881 0.158371,2e-6 0.310454,-0.0333 0.456248,-0.0999 0.145788,-0.0666 0.270733,-0.158246 0.374837,-0.274931 0.104096,-0.116682 0.18735,-0.25205 0.249764,-0.406105 0.06241,-0.154051 0.09361,-0.314459 0.09361,-0.481225 -4e-6,-0.241499 -0.04996,-0.455928 -0.149858,-0.643285 -0.09991,-0.187352 -0.274808,-0.376867 -0.524695,-0.568547 -0.04169,-0.04169 -0.05834,-0.06463 -0.04995,-0.06883 0.0084,-0.0042 -0.01659,-0.02707 -0.07493,-0.06864 -0.05834,-0.04156 -0.181257,-0.122781 -0.368736,-0.243663 -0.187484,-0.120874 -0.49362,-0.326976 -0.918407,-0.618308 -0.341409,-0.233363 -0.597528,-0.50626 -0.768358,-0.818693 -0.170832,-0.312421 -0.256247,-0.65599 -0.256246,-1.030705 -1e-6,-0.299965 0.05415,-0.581124 0.162442,-0.843478 0.108293,-0.26234 0.260312,-0.493483 0.456057,-0.693429 0.195743,-0.19993 0.422754,-0.356144 0.681036,-0.468641 0.258278,-0.112481 0.537276,-0.168725 0.836996,-0.168734 0.299968,9e-6 0.576996,0.05416 0.831085,0.162442 0.254081,0.108303 0.474801,0.258288 0.662161,0.449957 0.18735,0.191684 0.337271,0.420793 0.449766,0.687327 0.112483,0.266549 0.172922,0.558067 0.181317,0.874556 l -1.149678,0 c -0.01653,-0.291576 -0.116433,-0.524816 -0.299716,-0.699721 -0.183291,-0.174891 -0.408269,-0.26234 -0.674935,-0.262347 -0.274807,7e-6 -0.507983,0.09165 -0.69953,0.274931 -0.191552,0.183294 -0.287326,0.412339 -0.287324,0.687137 -2e-6,0.208206 0.05414,0.383104 0.162442,0.524695 0.108292,0.141602 0.316492,0.299849 0.624601,0.474742 0.808138,0.466485 1.39753,0.941291 1.768176,1.424418 0.370638,0.483135 0.555958,1.028738 0.555964,1.636812 l 0,0 z m 4.89957,2.286771 -0.587232,-2.286771 -1.799445,0 -0.549481,2.286771 -1.212214,0 2.086579,-8.371861 1.174844,0 2.086578,8.371861 -1.199629,0 z m -1.499347,-5.872696 -0.587231,2.411462 1.199629,0 -0.612398,-2.411462 z m 3.857806,5.872696 0,-8.371861 1.19963,0 0,7.259934 3.06123,0 0,1.111927 -4.26086,0 z m 5.442185,0 0,-8.371861 1.199631,0 0,7.259934 3.061228,0 0,1.111927 -4.260859,0 z m 5.442188,0 0,-8.371861 3.935976,0 0,1.174844 -2.736347,0 0,2.111364 1.736909,0 0,1.149677 -1.736909,0 0,2.761513 3.061231,0 0,1.174463 -4.26086,0 z m -25.417209,18.004982 0,-8.371862 3.935976,0 0,1.174844 -2.736346,0 0,2.111365 1.736909,0 0,1.149677 -1.736909,0 0,2.761513 3.06123,0 0,1.174463 -4.26086,0 z m 8.623151,0 -1.174463,-2.848836 -1.174463,2.848836 -1.262166,0 1.82423,-4.348182 -1.699157,-4.02368 1.261784,0 1.049772,2.524333 1.061974,-2.524333 1.262165,0 -1.674371,4.02368 1.824231,4.348182 -1.299536,0 z m 7.154691,-6.022553 c -7e-6,0.766202 -0.189522,1.349238 -0.568547,1.74911 -0.379037,0.39988 -0.922543,0.599819 -1.63052,0.599814 l -1.299537,0 0,3.673629 -1.199629,0 0,-8.371862 2.499166,0 c 0.32488,9e-6 0.62269,0.05626 0.893431,0.168735 0.270732,0.112496 0.503972,0.270807 0.69972,0.474933 0.195738,0.204141 0.34566,0.451997 0.449766,0.743571 0.104093,0.29159 0.156143,0.612278 0.15615,0.96207 l 0,0 z m -1.174463,0 c -4e-6,-0.349792 -0.09997,-0.632985 -0.299908,-0.849581 -0.199943,-0.216582 -0.462354,-0.324875 -0.787234,-0.324884 l -1.236999,0 0,2.374094 1.236999,0 c 0.349794,4e-6 0.618433,-0.10416 0.805918,-0.312492 0.187479,-0.208321 0.28122,-0.504034 0.281224,-0.887137 l 0,0 z m 4.944947,2.236435 0,3.786118 -1.199629,0 0,-3.786118 -2.061793,-4.585744 1.262166,0 1.411643,3.023862 1.387239,-3.023862 1.286951,0 -2.086577,4.585744 z" />
</svg>
