<?xml version="1.0" encoding="UTF-8" standalone="no"?>
<!-- Created with Inkscape (http://www.inkscape.org/) -->

<svg
   xmlns:dc="http://purl.org/dc/elements/1.1/"
   xmlns:cc="http://creativecommons.org/ns#"
   xmlns:rdf="http://www.w3.org/1999/02/22-rdf-syntax-ns#"
   xmlns:svg="http://www.w3.org/2000/svg"
   xmlns="http://www.w3.org/2000/svg"
   xmlns:sodipodi="http://sodipodi.sourceforge.net/DTD/sodipodi-0.dtd"
   xmlns:inkscape="http://www.inkscape.org/namespaces/inkscape"
   version="1.0"
   width="60"
   height="48"
   id="svg2"
   inkscape:version="0.48.1 r9760"
   sodipodi:docname="US:NY-BP.svg">
  <metadata
     id="metadata3007">
    <rdf:RDF>
      <cc:Work
         rdf:about="">
        <dc:format>image/svg+xml</dc:format>
        <dc:type
           rdf:resource="http://purl.org/dc/dcmitype/StillImage" />
      </cc:Work>
    </rdf:RDF>
  </metadata>
  <sodipodi:namedview
     pagecolor="#ffffff"
     bordercolor="#666666"
     borderopacity="1"
     objecttolerance="10"
     gridtolerance="10"
     guidetolerance="10"
     inkscape:pageopacity="0"
     inkscape:pageshadow="2"
     inkscape:window-width="1278"
     inkscape:window-height="996"
     id="namedview3005"
     showgrid="true"
     inkscape:showpageshadow="false"
     inkscape:zoom="16.895833"
     inkscape:cx="30"
     inkscape:cy="24"
     inkscape:window-x="1"
     inkscape:window-y="27"
     inkscape:window-maximized="0"
     inkscape:current-layer="svg2">
    <inkscape:grid
       type="xygrid"
       id="grid3675"
       empspacing="5"
       visible="true"
       enabled="true"
       snapvisiblegridlinesonly="true" />
  </sodipodi:namedview>
  <defs
     id="defs4" />
  <path
     d="M 29.999997,1 C 25.066835,1 20.829935,1.738106 16.238913,4.427082 11.664806,7.10615 7.2054515,8.525018 1,8.525018 l 0,27.124681 c 0,2.409528 0.00463,2.410505 1.5635114,3.629156 C 5.2873319,41.408181 29.999997,47 29.999997,47 c 0,0 24.712669,-5.591819 27.436495,-7.721145 C 58.995376,38.060204 59,38.059227 59,35.649699 L 59,8.525018 C 52.794549,8.525018 48.33519,7.10615 43.761086,4.427082 39.170064,1.738106 34.933162,1 29.999997,1 z"
     id="rect4804"
     style="fill:#006b54;stroke:none"
     inkscape:connector-curvature="0" />
  <path
     d="m 17.292282,18.533324 c -1.1e-5,0.609521 -0.147491,1.174712 -0.442441,1.695571 -0.284047,0.509781 -0.677327,0.908738 -1.179844,1.196874 -0.513458,0.288136 -1.054219,0.432204 -1.622284,0.432204 l -0.491601,0 -5.1290406,0 0,-11.170822 5.1290406,0 c 0.240331,1.1e-5 0.442434,0.0056 0.606308,0.01664 0.174787,0.01111 0.333189,0.03326 0.475215,0.06649 0.142009,0.03326 0.273104,0.07758 0.393281,0.132985 0.131084,0.05542 0.267641,0.127454 0.409668,0.216102 0.458818,0.254897 0.824787,0.62615 1.097909,1.113755 0.273102,0.476541 0.409658,0.986321 0.409668,1.529339 -10e-6,0.853333 -0.294971,1.573673 -0.884882,2.161021 0.819325,0.6871 1.228992,1.557049 1.229003,2.60985 M 14.785115,13.76245 c -8e-6,-0.565182 -0.333204,-0.847777 -0.99959,-0.847786 l -3.195408,0 0,1.911674 2.998768,0 c 0.349576,6e-6 0.633612,-0.09973 0.852109,-0.299219 0.229406,-0.210552 0.344113,-0.465443 0.344121,-0.764669 m 0.344121,4.770872 c -8e-6,-0.277051 -0.06555,-0.537482 -0.196641,-0.781293 -0.120176,-0.243803 -0.30043,-0.426659 -0.540761,-0.548567 -0.120176,-0.05541 -0.245808,-0.09419 -0.376894,-0.116362 -0.120177,-0.02217 -0.273119,-0.03324 -0.458828,-0.03325 l -2.965995,0 0,2.576604 3.277342,0 c 0.404199,2e-6 0.715546,-0.09974 0.934043,-0.299219 0.218478,-0.199477 0.327726,-0.465448 0.327734,-0.797916"
     id="text1352"
     style="fill:#ffffff;stroke:none"
     inkscape:connector-curvature="0" />
  <path
     d="m 27.74077,29.408106 c -10e-6,0.642772 -0.152974,1.241209 -0.45883,1.795309 -0.305893,0.543032 -0.72102,0.95861 -1.24539,1.246742 -0.163887,0.08867 -0.322277,0.166254 -0.475213,0.23273 -0.142012,0.05542 -0.294971,0.09973 -0.45883,0.133003 -0.152949,0.03325 -0.327741,0.06095 -0.524374,0.08311 -0.185712,0.01111 -0.404213,0.01679 -0.655469,0.01679 l -2.88406,0 0,4.189059 -2.163046,0 0,-11.170824 5.161814,0 c 0.45882,1.3e-5 0.830253,0.03325 1.114296,0.09975 0.284028,0.0665 0.578989,0.188421 0.884882,0.365707 0.52437,0.31031 0.939497,0.731435 1.24539,1.263368 0.305878,0.531954 0.45882,1.113768 0.45883,1.745443 m -2.163044,0 c -1.1e-5,-0.354624 -0.131125,-0.648298 -0.393286,-0.881033 -0.251261,-0.243813 -0.584465,-0.365702 -0.999587,-0.36571 l -3.146249,0 0,2.526733 3.146249,0 c 0.426047,6e-6 0.764705,-0.116365 1.015976,-0.349087 0.251236,-0.232729 0.376886,-0.543019 0.376897,-0.930903"
     id="text2229"
     style="fill:#ffffff;stroke:none"
     inkscape:connector-curvature="0" />
  <path
     d="m 20.957758,17.753724 c 0.08015,0.31044 0.218582,0.554354 0.415312,0.731745 0.196725,0.170005 0.411666,0.255003 0.644827,0.255003 0.306017,1e-6 0.579248,-0.166303 0.819696,-0.498917 l 1.005494,0.886963 c -0.27688,0.332611 -0.561041,0.57283 -0.852484,0.720657 -0.291451,0.147828 -0.615687,0.221739 -0.972706,0.221742 -0.342454,-1e-6 -0.666688,-0.07022 -0.972706,-0.210653 -0.306021,-0.147829 -0.57561,-0.347396 -0.808766,-0.598702 -0.233159,-0.251306 -0.418957,-0.54696 -0.557393,-0.886963 -0.138438,-0.347392 -0.207657,-0.720656 -0.207656,-1.119791 -1e-6,-0.391739 0.06557,-0.757611 0.196727,-1.097617 0.138437,-0.339998 0.32059,-0.635653 0.546463,-0.886963 0.22587,-0.258692 0.488173,-0.461955 0.786909,-0.609787 0.298731,-0.14782 0.612036,-0.221734 0.939918,-0.221742 0.437167,6e-6 0.837907,0.129353 1.20222,0.388047 0.371591,0.251311 0.655751,0.591313 0.852484,1.020008 0.102,0.251311 0.178512,0.513703 0.229512,0.787179 0.051,0.266092 0.07651,0.569138 0.07651,0.909137 l 0,0.210653 -3.344359,0 m 1.825187,-1.23066 c -0.102011,-0.273477 -0.21859,-0.465651 -0.349737,-0.576526 -0.123868,-0.118258 -0.287808,-0.177389 -0.491817,-0.177392 -0.196733,4e-6 -0.378885,0.06653 -0.546465,0.199567 -0.1603,0.125656 -0.28052,0.310441 -0.360666,0.554352 l 1.748685,0 0,0 m 3.780336,3.470243 0,-6.984834 1.464522,-0.576526 0,7.56136 -1.464522,0 m 6.036719,-4.113291 0,2.028928 c -6e-6,0.251309 0.04009,0.443483 0.120238,0.576526 0.08015,0.125653 0.255012,0.177394 0.524605,0.155219 0.189425,-0.01478 0.324231,-0.05174 0.404384,-0.110872 0.08742,-0.05913 0.193113,-0.155217 0.316947,-0.288263 l -0.382523,1.541098 c -0.123875,0.05174 -0.2186,0.09609 -0.284163,0.133045 -0.06557,0.03696 -0.127512,0.06652 -0.185787,0.0887 -0.051,0.02217 -0.112938,0.03696 -0.185788,0.04435 -0.06557,0.01478 -0.163963,0.02217 -0.295088,0.02217 -0.502751,-1e-6 -0.874346,-0.144131 -1.114789,-0.432395 -0.23315,-0.28826 -0.349738,-0.69848 -0.349736,-1.230659 l 0,-2.527845 -1.005491,0 0,-1.286096 1.005491,0 0,-1.585447 1.431738,-0.576526 0,2.139799 1.366157,0 0,1.30827 -1.366157,0"
     id="text2239"
     style="fill:#ffffff;stroke:none"
     inkscape:connector-curvature="0" />
  <path
     d="m 33.657968,31.514327 1.486383,3.758506 -1.486383,0 -0.972706,-2.505669 -0.852484,0.86479 0,1.640879 -1.464522,0 0,-6.984834 1.464522,-0.576526 0,3.680895 1.541027,-1.518923 1.825193,0 -1.54103,1.640882 m 8.879354,3.758506 -1.409877,0 -0.666684,-2.683064 -0.852484,2.683064 -1.409877,0 -1.54103,-5.421561 1.486383,0 0.754121,2.58328 0.743193,-2.58328 1.59567,0 0.633901,2.550017 0.721332,-2.550017 1.519172,0 -1.57382,5.421561 m 6.008202,2.084363 -1.464525,0 0.874347,-2.161969 -2.524669,-5.343955 1.672182,0 1.464525,3.592201 1.46452,-3.592201 1.54103,0 -3.02741,7.505924"
     id="text3116"
     style="fill:#ffffff;stroke:none"
     inkscape:connector-curvature="0" />
</svg>
