<?xml version="1.0" encoding="UTF-8" standalone="no"?>
<!-- Created with Inkscape (http://www.inkscape.org/) -->

<svg
   xmlns:dc="http://purl.org/dc/elements/1.1/"
   xmlns:cc="http://creativecommons.org/ns#"
   xmlns:rdf="http://www.w3.org/1999/02/22-rdf-syntax-ns#"
   xmlns:svg="http://www.w3.org/2000/svg"
   xmlns="http://www.w3.org/2000/svg"
   xmlns:sodipodi="http://sodipodi.sourceforge.net/DTD/sodipodi-0.dtd"
   xmlns:inkscape="http://www.inkscape.org/namespaces/inkscape"
   version="1.0"
   width="600"
   height="750"
   id="svg2"
   sodipodi:docname="US:NY:Erie.svg"
   inkscape:version="0.92.3 (2405546, 2018-03-11)">
  <metadata
     id="metadata4596">
    <rdf:RDF>
      <cc:Work
         rdf:about="">
        <dc:format>image/svg+xml</dc:format>
        <dc:type
           rdf:resource="http://purl.org/dc/dcmitype/StillImage" />
      </cc:Work>
    </rdf:RDF>
  </metadata>
  <sodipodi:namedview
     pagecolor="#ffffff"
     bordercolor="#666666"
     borderopacity="1"
     objecttolerance="10"
     gridtolerance="10"
     guidetolerance="10"
     inkscape:pageopacity="0"
     inkscape:pageshadow="2"
     inkscape:window-width="1656"
     inkscape:window-height="969"
     id="namedview4594"
     showgrid="false"
     inkscape:zoom="2"
     inkscape:cx="399.96927"
     inkscape:cy="393.38961"
     inkscape:window-x="140"
     inkscape:window-y="33"
     inkscape:window-maximized="0"
     inkscape:current-layer="svg2" />
  <defs
     id="defs4" />
  <path
     d="m 37.5,0 525,0 C 583.275,0 600,16.725 600,37.5 l 0,675 c 0,20.775 -16.725,37.5 -37.5,37.5 l -525,0 C 16.725,750 0,733.275 0,712.5 L 0,37.5 C 0,16.725 16.725,0 37.5,0 z"
     id="rect1872"
     style="fill:#ffffff;stroke:#000000" />
  <path
     d="m 37.5,9.375 525,0 c 15.58125,0 28.125,12.54375 28.125,28.125 l 0,675 c 0,15.58125 -12.54375,28.125 -28.125,28.125 l -525,0 C 21.91875,740.625 9.375,728.08125 9.375,712.5 l 0,-675 C 9.375,21.91875 21.91875,9.375 37.5,9.375 z"
     id="rect2760"
     style="fill:#000000;stroke:none" />
  <path
     d="m 37.5,25 525,0 c 6.925,0 12.5,5.575 12.5,12.5 l 0,675 c 0,6.925 -5.575,12.5 -12.5,12.5 l -525,0 C 30.575,725 25,719.425 25,712.5 l 0,-675 C 25,30.575 30.575,25 37.5,25 z"
     id="rect2762"
     style="fill:#ffffff;stroke:none" />
  <path
     d="m 521.6875,43.46875 -3.0625,7.15625 0,0.46875 c -8.84376,-3.036529 -29.82028,3.220038 -28.15625,-3.0625 C 482.92612,35.36886 472.984,63.721266 470.1875,57.8125 469.47724,59.738968 439.27515,85.163287 439.875,56.46875 417.35132,36.035526 426.76684,64.239092 403.46875,55.25 c -18.96777,10.417881 -47.4439,-12.447438 -58.25,14.53125 -22.15693,1.074806 -48.2981,10.944827 -66.5625,20.34375 3.62962,23.69574 -13.48495,40.32483 -41.6875,29.3125 C 236.59769,80.679308 109.85518,44.600065 141.625,94.75 c -60.717473,88.10737 108.07713,72.35335 73.21875,156.28125 25.78629,14.52798 39.138,58.15555 40.9375,92.375 -6.96898,63.80366 -99.74692,81.81203 -147.71875,111.9375 -5.17849,50.77058 -56.917398,70.35434 -67.4375,120.375 14.86298,0.7382 44.768211,7.63081 36,18.0625 22.771132,29.38863 62.86989,-5.73809 79.09375,32.3125 2.20497,25.82625 40.1228,49.56055 49.46875,71.78125 14.8283,5.05584 57.91692,19.14802 86.6875,-10.5 30.29465,0.96101 29.10684,2.81883 45.8125,-14.625 24.21624,-22.53832 39.77953,7.07102 51.09375,-7.09375 40.65196,-23.30654 79.80763,-33.99648 129.625,-42.28125 l 2.09375,-3.125 -0.1875,-1.9375 1.65625,-0.6875 0.875,0.40625 2.125,0.875 1.84375,-0.15625 9.46875,-3.40625 0.46875,-0.875 0.125,-1.53125 1.375,-1.9375 4.03125,0.5625 1.46875,0.75 2.03125,-0.25 9.875,-1.28125 1.4375,-1.3125 0.125,-5.375 0.21875,-9.9375 0.84375,-55.5625 0.125,-10.71875 0.0312,-3.125 -1.25,-74.1875 0,-4.9375 0.0937,-22.84375 0,-1.21875 0,-0.4375 0.0625,-6.34375 0.0312,-3.96875 0,-0.53125 0.0312,-3.15625 0.0625,-16.71875 0,-1 0.15645,-26.03125 -19.125,-0.21875 0.0312,-0.90625 1.4375,-86.8125 c 0,0 12.55547,0.21332 16.75,0.28125 l 0.0312,-5.84375 -0.0312,-4.84375 0.40625,-17.1875 0.1875,-4.875 -0.15625,-22.1875 -0.15625,-13 -0.125,-19.84375 0,-0.6875 -0.0312,-5.3125 0,-4.96875 0.0312,-10.96875 0.28125,-9.375 0.375,-16.625 0.0937,-4.34375 0.15625,-6.9375 -0.34375,-19.78125 -0.28125,-9.03125 -0.3125,-23.1875 -0.15625,-23.46875 -2.53125,0.59375 2.15625,1.625 -5.59375,4.40625 0.375,-2.3125 -2.53125,-2.09375 -7.21875,-0.125 -3.4375,3.4375 -2.09375,-1.3125 -1.53125,1.53125 -2.90625,0.59375 -1.375,-1.3125 -5.21875,-6.65625 0.59375,-2 -1.15625,-2.4375 -2.53125,-3.71875 z m -51.5,14.34375 c 0.0328,-0.08905 0.0368,-0.144145 -0.0625,-0.125 0.0211,0.05081 0.0405,0.07847 0.0625,0.125 z"
     id="Erie"
     style="fill:#000000;stroke:#000000;stroke-width:2.4000001" />
  <path
     d="m 277.0238,208.04299 22.46724,0 0,-8.047 -22.46724,0 0,-10.62206 24.26977,0 0,-8.047 -33.92618,0 0,46.93015 35.08495,0 0,-8.04701 -25.42854,0 0,-12.16708 m 43.06557,1.60941 11.07269,0 c 4.18444,0 5.98697,1.67378 5.98697,5.60071 0,0.38626 0,1.03002 -0.0644,1.86691 -0.0644,1.22314 -0.0644,2.38192 -0.0644,3.09005 0,4.37757 0.25751,5.79385 1.48065,8.04701 l 10.36455,0 0,-1.73815 c -1.48065,-0.83689 -2.06004,-1.80254 -2.06004,-3.86257 -0.2575,-13.84084 -0.51501,-14.48462 -6.50198,-17.05966 5.27883,-2.06003 7.91826,-5.85822 7.91826,-11.58769 0,-3.73381 -1.28753,-7.14574 -3.54069,-9.46328 -2.12441,-2.18878 -5.08571,-3.2188 -9.07702,-3.2188 l -25.17105,0 0,46.93015 9.65641,0 0,-18.60468 m 0,-8.04701 0,-12.23146 11.65207,0 c 2.76817,0 3.92694,0.25751 5.08571,1.22315 1.15877,0.96564 1.73816,2.57505 1.73816,4.76383 0,2.25316 -0.64377,4.05569 -1.73816,5.02133 -1.03001,0.90127 -2.31754,1.22315 -5.08571,1.22315 l -11.65207,0 m 45.42737,-20.27846 -9.65641,0 0,46.93015 9.65641,0 0,-46.93015 m 18.88432,26.71606 22.46725,0 0,-8.047 -22.46725,0 0,-10.62206 24.26978,0 0,-8.047 -33.92619,0 0,46.93015 35.08496,0 0,-8.04701 -25.42855,0 0,-12.16708 m -78.2149,69.65491 c -0.32188,-4.05569 -1.15878,-6.63074 -3.15443,-9.27015 -3.60506,-4.76383 -9.39891,-7.40325 -16.4159,-7.40325 -13.26146,0 -21.50161,9.4633 -21.50161,24.65603 0,15.06399 8.17578,24.52728 21.24411,24.52728 11.65205,0 19.44157,-6.75949 20.02095,-17.51029 l -9.3989,0 c -0.57939,5.98697 -4.37758,9.39891 -10.36455,9.39891 -7.46762,0 -11.8452,-6.05136 -11.8452,-16.28715 0,-10.36453 4.57071,-16.54464 12.16708,-16.54464 3.34755,0 6.11573,1.15877 7.91826,3.41193 1.03001,1.28752 1.54502,2.51067 2.12441,5.02133 l 9.20578,0 m 27.72395,-16.6734 c -6.56635,0 -11.97395,2.18879 -15.96526,6.50198 -4.18444,4.50632 -6.56636,11.07269 -6.56636,18.08968 0,7.01698 2.38192,13.64773 6.56636,18.08967 4.05568,4.37757 9.33453,6.50198 16.02964,6.50198 6.6951,0 11.97395,-2.12441 16.02964,-6.50198 4.05569,-4.31319 6.56636,-11.13706 6.56636,-17.76779 0,-7.33887 -2.38192,-13.90524 -6.56636,-18.41156 -4.12007,-4.44194 -9.33454,-6.50198 -16.09402,-6.50198 m 0.0644,8.24014 c 7.91825,0 12.93959,6.43761 12.93959,16.60902 0,9.59203 -5.21447,16.09402 -12.93959,16.09402 -7.7895,0 -12.93959,-6.50199 -12.93959,-16.35152 0,-9.84953 5.15009,-16.35152 12.93959,-16.35152 m 57.31683,-7.46763 0,31.80178 c 0,5.66509 -2.89693,8.36889 -8.94828,8.36889 -6.05134,0 -8.94827,-2.7038 -8.94827,-8.36889 l 0,-31.80178 -9.65641,0 0,31.80178 c 0,5.27883 1.41628,9.01265 4.5707,11.8452 3.41193,3.09004 8.3689,4.76382 14.03398,4.76382 5.66509,0 10.62206,-1.67378 14.03399,-4.76382 3.15442,-2.83255 4.5707,-6.56637 4.5707,-11.8452 l 0,-31.80178 -9.65641,0 m 46.9724,46.93016 9.65641,0 0,-46.93016 -9.65641,0 0,31.93053 -18.60468,-31.93053 -9.91391,0 0,46.93016 9.65641,0 0,-32.44554 18.86218,32.44554 m 38.41038,-38.88315 13.7121,0 0,-8.04701 -37.59562,0 0,8.04701 14.22711,0 0,38.88315 9.65641,0 0,-38.88315 m 41.54369,21.50161 14.87087,-29.54862 -10.81518,0 -8.94827,20.7291 -9.59204,-20.7291 -10.7508,0 15.57901,29.54862 0,17.38154 9.65641,0 0,-17.38154 m -241.12962,79.24694 11.07269,0 c 4.18444,0 5.98697,1.67378 5.98697,5.60071 0,0.38626 0,1.03002 -0.0644,1.86691 -0.0644,1.22314 -0.0644,2.38192 -0.0644,3.09005 0,4.37757 0.2575,5.79385 1.48065,8.04701 l 10.36455,0 0,-1.73815 c -1.48065,-0.83689 -2.06004,-1.80254 -2.06004,-3.86257 -0.2575,-13.84084 -0.51501,-14.48462 -6.50198,-17.05966 5.27883,-2.06003 7.91825,-5.85822 7.91825,-11.58769 0,-3.73381 -1.28752,-7.14574 -3.54068,-9.46328 -2.12441,-2.18878 -5.08571,-3.2188 -9.07702,-3.2188 l -25.17105,0 0,46.93015 9.65641,0 0,-18.60468 m 0,-8.04701 0,-12.23145 11.65207,0 c 2.76817,0 3.92694,0.2575 5.08571,1.22314 1.15877,0.96564 1.73815,2.57505 1.73815,4.76383 0,2.25316 -0.64376,4.05569 -1.73815,5.02133 -1.03002,0.90127 -2.31754,1.22315 -5.08571,1.22315 l -11.65207,0 m 56.82194,-21.05098 c -6.56635,0 -11.97395,2.18879 -15.96526,6.50199 -4.18444,4.50632 -6.56636,11.07269 -6.56636,18.08967 0,7.01699 2.38192,13.64773 6.56636,18.08968 4.05568,4.37757 9.33453,6.50198 16.02964,6.50198 6.6951,0 11.97395,-2.12441 16.02964,-6.50198 4.05569,-4.3132 6.56636,-11.13707 6.56636,-17.7678 0,-7.33886 -2.38192,-13.90523 -6.56636,-18.41155 -4.12007,-4.44195 -9.33454,-6.50199 -16.09402,-6.50199 m 0.0644,8.24014 c 7.91825,0 12.93959,6.43762 12.93959,16.60903 0,9.59202 -5.21447,16.09401 -12.93959,16.09401 -7.7895,0 -12.93959,-6.50199 -12.93959,-16.35152 0,-9.84953 5.15009,-16.35152 12.93959,-16.35152 m 57.1237,29.99925 3.09005,9.46328 9.91392,0 -16.22277,-46.93015 -10.68643,0 -16.6734,46.93015 9.84954,0 3.15442,-9.46328 17.57467,0 m -2.63942,-8.04701 -12.23145,0 6.11572,-18.34718 6.11573,18.34718 m 21.86574,17.51029 18.34718,0 c 7.14574,0 11.65207,-1.67378 14.8065,-5.47197 3.7338,-4.37756 5.72947,-10.75081 5.72947,-18.02529 0,-7.21012 -1.99567,-13.58336 -5.72947,-18.0253 -3.15443,-3.79819 -7.59639,-5.40759 -14.8065,-5.40759 l -18.34718,0 0,46.93015 m 9.65641,-8.04701 0,-30.83613 8.69077,0 c 7.27449,0 10.87956,5.08571 10.87956,15.45025 0,10.30016 -3.60507,15.38588 -10.87956,15.38588 l -8.69077,0"
     id="text2523"
     style="fill:#ffffff;stroke:none" />
  <path
     d="m 275.36241,488.86615 3.60492,-18.38511 9.28268,0 -3.60492,18.38511 9.46292,0 3.60493,-18.38511 10.72465,0 0,-8.92219 -9.01231,0 2.79381,-13.78884 9.82342,0 0,-8.92218 -8.11108,0 3.06419,-15.68142 -9.46293,0 -3.06418,15.68142 -9.28268,0 3.06418,-15.68142 -9.46292,0 -3.06419,15.68142 -10.72465,0 0,8.92218 8.92219,0 -2.70369,13.78884 -8.74194,0 0,8.92219 6.93948,0 -3.60493,18.38511 9.55305,0 m 5.31726,-27.3073 2.7037,-13.78884 9.28268,0 -2.7037,13.78884 -9.28268,0"
     id="text2531"
     style="fill:#ffffff;stroke:none" />
  <text
     style="font-style:normal;font-variant:normal;font-weight:normal;font-stretch:normal;font-size:87.99999958px;line-height:0%;font-family:'Roadgeek 2000 Series E';-inkscape-font-specification:'Roadgeek 2000 Series E, Normal';font-variant-ligatures:normal;font-variant-caps:normal;font-variant-numeric:normal;font-feature-settings:normal;text-align:end;writing-mode:lr;text-anchor:end;fill:#ffffff;fill-opacity:1;stroke-width:1.12404013;"
     line-height="125%"
     xml:space="preserve"
     transform="scale(0.92169204,1.0849611)"
     font-stretch="normal"
     font-size="390.890625px"
     font-variant="normal"
     y="449.72052"
     x="575.1604"
     font-weight="normal"
     font-style="normal"
     id="text3008"><tspan
       sodipodi:role="line"
       id="tspan824">%num%</tspan></text>
</svg>
