<?xml version="1.0" encoding="UTF-8" standalone="no"?>
<!-- Created with Inkscape (http://www.inkscape.org/) -->

<svg
   xmlns:dc="http://purl.org/dc/elements/1.1/"
   xmlns:cc="http://creativecommons.org/ns#"
   xmlns:rdf="http://www.w3.org/1999/02/22-rdf-syntax-ns#"
   xmlns:svg="http://www.w3.org/2000/svg"
   xmlns="http://www.w3.org/2000/svg"
   xmlns:sodipodi="http://sodipodi.sourceforge.net/DTD/sodipodi-0.dtd"
   xmlns:inkscape="http://www.inkscape.org/namespaces/inkscape"
   version="1.0"
   width="60"
   height="48"
   id="svg2"
   inkscape:version="0.48.1 r9760"
   sodipodi:docname="US:NY-HRP.svg">
  <metadata
     id="metadata3112">
    <rdf:RDF>
      <cc:Work
         rdf:about="">
        <dc:format>image/svg+xml</dc:format>
        <dc:type
           rdf:resource="http://purl.org/dc/dcmitype/StillImage" />
      </cc:Work>
    </rdf:RDF>
  </metadata>
  <sodipodi:namedview
     pagecolor="#ffffff"
     bordercolor="#666666"
     borderopacity="1"
     objecttolerance="10"
     gridtolerance="10"
     guidetolerance="10"
     inkscape:pageopacity="0"
     inkscape:pageshadow="2"
     inkscape:window-width="1278"
     inkscape:window-height="996"
     id="namedview3110"
     showgrid="true"
     inkscape:showpageshadow="false"
     inkscape:zoom="16.895833"
     inkscape:cx="30"
     inkscape:cy="24"
     inkscape:window-x="1"
     inkscape:window-y="27"
     inkscape:window-maximized="0"
     inkscape:current-layer="svg2">
    <inkscape:grid
       type="xygrid"
       id="grid3651"
       empspacing="5"
       visible="true"
       enabled="true"
       snapvisiblegridlinesonly="true" />
  </sodipodi:namedview>
  <defs
     id="defs4" />
  <path
     d="M 29.999997,1 C 25.066835,1 20.829936,1.737881 16.238914,4.426909 11.664806,7.106119 7.205452,8.524783 1,8.524783 L 1,35.649914 C 1,38.059653 1.00463,38.060687 2.5635114,39.27912 5.2873324,41.408537 29.999997,47 29.999997,47 c 0,0 24.712669,-5.591463 27.436495,-7.72088 C 58.995376,38.060687 59,38.059653 59,35.649914 L 59,8.524783 c -6.205451,0 -10.66481,-1.418664 -15.238914,-4.097874 C 39.170064,1.737881 34.933162,1 29.999997,1 z"
     id="rect4804"
     style="fill:#006b54;stroke:none"
     inkscape:connector-curvature="0" />
  <path
     d="m 17.033696,30.405173 -1.180134,-3.278868 -2.257648,0 0,3.278868 -1.693235,0 0,-8.743992 3.886746,0 c 0.179578,0 0.337786,0 0.474618,0.02584 0.145372,0 0.277925,0.02584 0.397655,0.05167 0.128268,0.02584 0.247995,0.06459 0.359171,0.118846 0.11117,0.04392 0.226613,0.100762 0.346343,0.170519 0.419026,0.24286 0.748266,0.57253 0.987721,0.989009 0.23944,0.41622 0.359163,0.87197 0.359171,1.366474 -8e-6,0.476936 -0.106904,0.919509 -0.320688,1.327204 -0.213798,0.407695 -0.517385,0.741756 -0.910756,1.002185 l 1.359719,3.695088 -1.808683,0 m 0,-6.024477 c -6e-6,-0.277997 -0.102626,-0.50768 -0.307861,-0.689825 -0.205246,-0.191188 -0.466073,-0.286265 -0.78248,-0.286265 l -2.347441,0 0,1.978017 2.347441,0 c 0.316407,0 0.577234,-0.09043 0.78248,-0.273347 0.205234,-0.183437 0.307855,-0.425263 0.307861,-0.72858"
     id="text2229"
     style="fill:#ffffff;stroke:none"
     inkscape:connector-curvature="0" />
  <path
     d="m 27.696488,36.246471 c -8e-6,0.503289 -0.119729,0.971699 -0.359175,1.405488 -0.239459,0.425005 -0.564414,0.750282 -0.974889,0.975832 -0.128276,0.06976 -0.252279,0.131764 -0.372,0.183436 -0.111183,0.04392 -0.230912,0.07751 -0.359167,0.105929 -0.11973,0.02584 -0.25656,0.0465 -0.410483,0.06459 -0.145395,0 -0.316419,0.02584 -0.513104,0.02584 l -2.257646,0 0,3.279385 -1.693236,0 0,-8.744767 4.040675,0 c 0.359168,0 0.649921,0.02584 0.872274,0.07751 0.222365,0.05167 0.453231,0.147266 0.692687,0.286265 0.410475,0.24286 0.735441,0.572788 0.974889,0.989008 0.239458,0.416479 0.359167,0.871971 0.359175,1.366475 m -1.693234,0 c -8e-6,-0.277484 -0.102636,-0.507684 -0.307865,-0.689829 -0.196699,-0.191188 -0.457519,-0.286265 -0.782477,-0.286265 l -2.462888,0 0,1.978017 2.462888,0 c 0.333512,0 0.59861,-0.09043 0.79531,-0.273088 0.1967,-0.183437 0.295024,-0.425005 0.295032,-0.728839"
     id="text2233"
     style="fill:#ffffff;stroke:none"
     inkscape:connector-curvature="0" />
  <path
     d="m 8.4101252,18.470156 0,-3.825561 -3.5532287,0 0,3.825561 -1.6932359,0 0,-8.718672 1.6932359,0 0,3.149429 3.5532287,0 0,-3.149429 1.6932358,0 0,8.718672 -1.6932358,0"
     id="text1352"
     style="fill:#ffffff;stroke:none"
     inkscape:connector-curvature="0" />
  <path
     d="m 14.777186,17.010671 0,-0.269212 c -0.102669,0.06976 -0.19963,0.126597 -0.290885,0.173102 -0.09126,0.04134 -0.179667,0.07234 -0.265219,0.09559 -0.08556,0.02584 -0.173962,0.03875 -0.265219,0.04392 -0.08556,0 -0.179668,0.02584 -0.282331,0.02584 -0.256666,0 -0.479107,-0.031 -0.667325,-0.09559 -0.182519,-0.06976 -0.350775,-0.180854 -0.504772,-0.32967 -0.131183,-0.134348 -0.23385,-0.286523 -0.307996,-0.460142 -0.07415,-0.180853 -0.111223,-0.36739 -0.111223,-0.564262 l 0,-2.855154 1.146431,0 0,2.46477 c -3e-6,0.204105 0.06274,0.373074 0.188219,0.512072 0.125478,0.139516 0.296586,0.209273 0.513327,0.209273 0.102664,0 0.199623,-0.02584 0.290886,-0.05167 0.09696,-0.04134 0.17966,-0.09301 0.248107,-0.157601 0.07414,-0.06459 0.134032,-0.136931 0.179663,-0.217023 0.04562,-0.08268 0.06844,-0.165352 0.06844,-0.250611 l 0,-2.507917 1.146431,0 0,4.243849 -1.086543,0 m 4.670745,-3.219703 0,1.588149 c -3e-6,0.198938 0.03137,0.347238 0.09411,0.451358 0.06274,0.09818 0.199628,0.139515 0.410663,0.12143 0.148291,0 0.253809,-0.04134 0.316552,-0.08784 0.06844,-0.0465 0.151141,-0.12143 0.248107,-0.224775 l -0.299441,1.206291 c -0.09697,0.04134 -0.171111,0.07493 -0.222442,0.105928 -0.05134,0.02842 -0.09982,0.05167 -0.14544,0.06976 -0.03993,0.02584 -0.08841,0.02842 -0.145445,0.03617 -0.05133,0 -0.128335,0.02584 -0.230996,0.02584 -0.393553,0 -0.684439,-0.113679 -0.872656,-0.338453 -0.18252,-0.227359 -0.273777,-0.546694 -0.273775,-0.963431 l 0,-1.978533 -0.787102,0 0,-1.006836 0.787102,0 0,-1.241169 1.120764,-0.451358 0,1.675217 1.069432,0 0,1.024146 -1.069432,0 m 6.153779,2.447201 c -0.09129,0.116263 -0.165414,0.204106 -0.222442,0.260429 -0.05705,0.05942 -0.131201,0.118846 -0.222442,0.183436 -0.353629,0.260429 -0.750033,0.390385 -1.189208,0.390385 -0.296591,0 -0.57607,-0.05426 -0.838435,-0.165352 -0.256662,-0.111095 -0.481955,-0.26017 -0.675878,-0.451099 -0.193925,-0.198938 -0.347923,-0.428622 -0.461994,-0.694476 -0.114072,-0.271797 -0.171111,-0.569946 -0.171108,-0.89419 -10e-7,-0.317785 0.05704,-0.609992 0.171108,-0.876362 0.114072,-0.271797 0.268069,-0.506131 0.461994,-0.702744 0.193925,-0.198939 0.419216,-0.350339 0.675881,-0.460142 0.262365,-0.111096 0.541844,-0.165352 0.838435,-0.165352 0.245258,0 0.484805,0.04392 0.718658,0.131765 0.23956,0.08784 0.444878,0.21444 0.615993,0.381858 0.04563,0.04134 0.08842,0.08784 0.128327,0.139516 0.03993,0.0465 0.09696,0.111095 0.171111,0.191187 l -0.761437,0.954905 C 24.760425,14.256033 24.643489,14.087064 24.489492,13.97106 24.3355,13.84963 24.16153,13.787623 23.96761,13.787623 c -0.136899,0 -0.268073,0.02842 -0.39355,0.08784 -0.119781,0.05167 -0.228147,0.129181 -0.325108,0.227358 -0.09126,0.09818 -0.165405,0.21444 -0.222441,0.355764 -0.05133,0.134348 -0.077,0.27748 -0.077,0.433531 -2e-6,0.157601 0.02567,0.303833 0.077,0.442832 0.05703,0.134348 0.131183,0.250611 0.222441,0.346979 0.09696,0.09818 0.205328,0.17827 0.325108,0.23511 0.125477,0.05167 0.25666,0.07751 0.39355,0.07751 0.171111,0 0.322252,-0.04392 0.45344,-0.131764 0.136874,-0.08784 0.262362,-0.224775 0.376439,-0.416479 l 0.804213,0.815647 0,0 m 4.422234,0.772502 0,-2.551322 c -5e-6,-0.198938 -0.06275,-0.361706 -0.18823,-0.494762 -0.125478,-0.134348 -0.282334,-0.201522 -0.470553,-0.201522 -0.102662,0 -0.205349,0.02584 -0.307997,0.05167 -0.09699,0.03617 -0.185355,0.08526 -0.265218,0.147266 -0.07984,0.05684 -0.145446,0.126597 -0.196802,0.209273 -0.05133,0.07493 -0.07702,0.157601 -0.07702,0.24286 l 0,2.594726 -1.14643,0 0,-5.467707 1.14643,-0.451358 0,1.900766 c 0.23956,-0.134348 0.442026,-0.222191 0.607437,-0.268954 0.165387,-0.05167 0.345068,-0.07751 0.538995,-0.07751 0.205323,0 0.396401,0.03876 0.573215,0.11368 0.182532,0.07492 0.342214,0.178269 0.479105,0.303833 0.136873,0.129181 0.242409,0.277739 0.316549,0.451358 0.07985,0.173102 0.11978,0.358864 0.11978,0.555477 l 0,2.941964 -1.129321,0 M 34.5834,11.687914 c -3e-6,0.14985 -0.05421,0.283681 -0.162564,0.399427 -0.108359,0.116263 -0.242409,0.175686 -0.402104,0.175686 -0.148295,0 -0.276629,-0.05942 -0.384996,-0.175686 -0.108359,-0.116263 -0.162564,-0.250611 -0.162564,-0.399427 0,-0.167935 0.05421,-0.303575 0.162564,-0.407695 0.108359,-0.111095 0.236712,-0.165351 0.384996,-0.165351 0.159715,0 0.293734,0.05426 0.402104,0.165351 0.108359,0.105928 0.162564,0.237693 0.162564,0.407695 m -1.129321,5.346277 0,-4.243848 1.146432,0 0,4.243848 -1.146432,0 m 6.094426,0 0,-2.551321 c -2e-6,-0.198938 -0.06275,-0.361706 -0.188229,-0.494762 -0.11978,-0.134349 -0.290891,-0.201523 -0.513328,-0.201523 -0.102661,0 -0.202499,0.02584 -0.29944,0.06201 -0.09129,0.03617 -0.176834,0.08526 -0.256663,0.147266 -0.07417,0.06459 -0.13405,0.136932 -0.179683,0.217024 -0.04561,0.08009 -0.06845,0.165352 -0.06845,0.250611 l 0,2.56889 -1.146432,0 0,-4.243849 1.146432,0 0,0.224775 c 0.193928,-0.12143 0.382139,-0.206689 0.564661,-0.253194 0.182532,-0.05167 0.370731,-0.07751 0.564661,-0.07751 0.216769,0 0.416358,0.03875 0.59888,0.113679 0.182532,0.06976 0.339362,0.167935 0.470551,0.294791 0.136873,0.129181 0.242409,0.280839 0.316551,0.460142 0.07985,0.175686 0.11978,0.361706 0.11978,0.564003 l 0,2.916128 -1.129321,0 m 6.570052,-1.223859 c -5e-6,0.186021 -0.02851,0.347238 -0.08554,0.485979 -0.05705,0.134348 -0.151143,0.258361 -0.282329,0.37359 -0.182532,0.14985 -0.396406,0.260171 -0.641659,0.32967 -0.23956,0.06459 -0.527592,0.09559 -0.864101,0.09559 -0.199625,0 -0.382144,0 -0.547549,-0.02584 -0.159715,0 -0.316556,-0.031 -0.470551,-0.06201 -0.148294,-0.03617 -0.29374,-0.07751 -0.436326,-0.131765 -0.136899,-0.05167 -0.282334,-0.116262 -0.436329,-0.191187 l 0.44488,-1.023888 c 0.211046,0.105929 0.444883,0.186021 0.70155,0.24286 0.256661,0.05942 0.490511,0.08784 0.701546,0.08784 0.233837,0 0.419215,-0.02584 0.556104,-0.06201 0.142597,-0.04134 0.213895,-0.100761 0.213895,-0.183437 -5e-6,-0.06459 -0.02566,-0.118847 -0.07702,-0.165352 -0.05133,-0.0465 -0.134049,-0.08268 -0.248106,-0.105928 -0.05705,-0.02584 -0.125478,-0.03617 -0.205323,-0.05167 -0.07984,-0.02584 -0.162564,-0.03617 -0.248107,-0.05167 -0.07984,-0.02584 -0.156866,-0.04392 -0.231014,-0.06201 -0.07417,-0.02584 -0.13405,-0.04392 -0.179657,-0.06201 -0.456297,-0.134348 -0.789962,-0.306934 -1.000995,-0.520857 -0.205323,-0.219608 -0.307997,-0.494504 -0.307997,-0.824174 0,-0.381858 0.154017,-0.680008 0.461994,-0.89419 0.307994,-0.219607 0.72436,-0.329669 1.249099,-0.329669 0.290883,0 0.581766,0.03617 0.872654,0.105928 0.290884,0.06459 0.604581,0.180853 0.941102,0.347238 l -0.444885,1.023888 c -0.211046,-0.116263 -0.439183,-0.20669 -0.684433,-0.268955 -0.239561,-0.06976 -0.453445,-0.105928 -0.641662,-0.105928 -0.216769,0 -0.373592,0.02584 -0.470553,0.05167 -0.09124,0.03617 -0.136899,0.09301 -0.136899,0.175686 0,0.04134 0.0058,0.07493 0.0173,0.105928 0.0173,0.02842 0.04848,0.05426 0.09412,0.07751 0.05131,0.02584 0.122629,0.03875 0.21387,0.06201 0.09127,0.02584 0.21102,0.03875 0.35933,0.06201 0.604583,0.129181 1.05802,0.309776 1.360319,0.546694 0.302289,0.232525 0.45343,0.546693 0.453435,0.945862 m 5.168971,-0.893932 c -5e-6,0.306934 -0.05421,0.593199 -0.162564,0.859311 -0.10836,0.266371 -0.25383,0.500447 -0.436329,0.703261 -0.182532,0.196354 -0.393555,0.352663 -0.633103,0.468409 -0.233837,0.111096 -0.479107,0.165352 -0.735771,0.165352 -0.262366,0 -0.510473,-0.05426 -0.74432,-0.165352 -0.233872,-0.116262 -0.439192,-0.271796 -0.616006,-0.468409 -0.176834,-0.204106 -0.316548,-0.43689 -0.419217,-0.703261 -0.102662,-0.266112 -0.154018,-0.552377 -0.154018,-0.859311 0,-0.318043 0.04848,-0.612834 0.145445,-0.884888 0.102662,-0.272055 0.239561,-0.506131 0.410656,-0.703002 0.176834,-0.204106 0.382144,-0.358865 0.615999,-0.468927 0.233837,-0.116263 0.487657,-0.175686 0.761432,-0.175686 0.250981,0 0.493362,0.05942 0.727214,0.175686 0.239561,0.116263 0.450584,0.275155 0.633105,0.477453 0.182532,0.204105 0.327955,0.439731 0.436326,0.711786 0.114083,0.271796 0.171086,0.561161 0.171111,0.867578 m -1.163543,0 c -5e-6,-0.1576 -0.02289,-0.303575 -0.06845,-0.442315 -0.04561,-0.139515 -0.10551,-0.258361 -0.179657,-0.356022 -0.07417,-0.105928 -0.159715,-0.186021 -0.256661,-0.24286 -0.09699,-0.05942 -0.196802,-0.08784 -0.299445,-0.08784 -0.114083,0 -0.219593,0.02842 -0.316551,0.08784 -0.09127,0.05942 -0.173986,0.139515 -0.248107,0.24286 -0.06845,0.09818 -0.122629,0.217024 -0.162564,0.356022 -0.03994,0.139515 -0.0599,0.286265 -0.0599,0.442315 -5e-6,0.152434 0.0201,0.292207 0.0599,0.425264 0.03993,0.134348 0.09411,0.248027 0.162564,0.347238 0.07415,0.09818 0.156866,0.178269 0.248107,0.235109 0.09699,0.05942 0.202499,0.08784 0.316551,0.08784 0.102687,0 0.202499,-0.02842 0.299445,-0.08784 0.09696,-0.05942 0.182532,-0.136932 0.256661,-0.235109 0.07417,-0.09818 0.13405,-0.214441 0.179657,-0.347238 0.04563,-0.134348 0.06845,-0.274639 0.06845,-0.425264 m 5.582971,2.117791 0,-2.551322 c -5e-6,-0.198938 -0.06275,-0.361706 -0.188229,-0.494762 -0.11978,-0.134348 -0.290891,-0.201522 -0.513328,-0.201522 -0.102661,0 -0.202499,0.02584 -0.299437,0.06201 -0.09129,0.03617 -0.176834,0.08526 -0.256664,0.147266 -0.07417,0.06459 -0.13405,0.136931 -0.179657,0.21444 -0.04561,0.08009 -0.06845,0.165351 -0.06845,0.250611 l 0,2.56889 -1.146432,0 0,-4.243849 1.146432,0 0,0.224775 c 0.193928,-0.12143 0.382139,-0.20669 0.564658,-0.250611 0.182532,-0.05167 0.370734,-0.07751 0.564666,-0.07751 0.216744,0 0.416359,0.03875 0.598878,0.113679 0.182531,0.06976 0.339362,0.167935 0.470551,0.29479 0.136873,0.129181 0.242409,0.280839 0.316551,0.460142 0.07984,0.175686 0.11978,0.361707 0.11978,0.564004 l 0,2.916128 -1.129316,0"
     id="text2239"
     style="fill:#ffffff;stroke:none"
     inkscape:connector-curvature="0" />
  <path
     d="m 22.279037,23.625246 c -2e-6,0.152434 -0.05419,0.283423 -0.162554,0.399169 -0.108369,0.116263 -0.242406,0.175686 -0.402106,0.175686 -0.148297,0 -0.276628,-0.05942 -0.384996,-0.175686 -0.108369,-0.116263 -0.162556,-0.248027 -0.162554,-0.399169 -1e-6,-0.167935 0.05419,-0.303833 0.162554,-0.407953 0.108367,-0.111095 0.236699,-0.165351 0.384996,-0.165351 0.1597,0 0.293735,0.05426 0.402106,0.165351 0.108367,0.105929 0.162552,0.237693 0.162554,0.407953 m -1.12932,5.346278 0,-4.244107 1.146431,0 0,4.244107 -1.146431,0 m 5.658096,0 -1.274761,0 -1.56565,-4.244107 1.189211,0 1.043766,2.716673 0.966764,-2.716673 1.20632,0 -1.56565,4.244107 m 3.856507,-1.753242 c 0.06275,0.24286 0.171086,0.434047 0.325103,0.572788 0.154018,0.134348 0.322257,0.201522 0.504776,0.201522 0.23956,0 0.453437,-0.131765 0.641657,-0.390643 l 0.787104,0.694476 c -0.216769,0.260429 -0.439183,0.448516 -0.667324,0.564004 -0.22814,0.116262 -0.481962,0.175685 -0.761437,0.175685 -0.268074,0 -0.521887,-0.05426 -0.761439,-0.165351 -0.239561,-0.116263 -0.450586,-0.271796 -0.6331,-0.468668 -0.182532,-0.198938 -0.327962,-0.428105 -0.436329,-0.694218 -0.108359,-0.272055 -0.162564,-0.564262 -0.162564,-0.876621 0,-0.306934 0.05133,-0.593198 0.154018,-0.859311 0.108359,-0.266371 0.250955,-0.497604 0.427774,-0.694476 0.176834,-0.204106 0.382142,-0.361448 0.615994,-0.477194 0.233862,-0.116262 0.479102,-0.175686 0.735766,-0.175686 0.342217,0 0.655919,0.100761 0.941102,0.303575 0.290881,0.198939 0.513322,0.463243 0.667324,0.798854 0.07985,0.198939 0.139748,0.402011 0.179658,0.615935 0.03993,0.209273 0.05988,0.445673 0.05988,0.712044 l 0,0.165352 -2.617965,0 m 1.428762,-0.963172 c -0.07984,-0.214441 -0.171111,-0.364549 -0.273778,-0.451617 -0.09699,-0.09301 -0.225316,-0.139515 -0.384995,-0.139515 -0.154018,0 -0.296591,0.05167 -0.42777,0.157601 -0.125477,0.09818 -0.219592,0.24286 -0.282334,0.434047 l 1.368877,0 0,0 m 5.431779,-0.1576 c -0.07984,-0.134348 -0.182531,-0.229942 -0.308002,-0.286523 -0.125477,-0.05942 -0.242409,-0.08784 -0.350768,-0.08784 -0.256666,0 -0.433482,0.07493 -0.530441,0.227358 -0.09127,0.152433 -0.136899,0.376174 -0.136899,0.676907 l 0,2.343341 -1.146432,0 0,-4.244107 1.146432,0 0,0.209273 c 0.142597,-0.116263 0.276627,-0.196355 0.40211,-0.240277 0.131175,-0.0465 0.27092,-0.06976 0.419217,-0.06976 0.171086,0 0.325101,0.02584 0.461994,0.06976 0.142597,0.0465 0.285178,0.126598 0.427775,0.240277 l -0.384996,1.163144"
     id="text3116"
     style="fill:#ffffff;stroke:none"
     inkscape:connector-curvature="0" />
  <path
     d="m 32.227142,37.826094 1.163543,2.941965 -1.163543,0 -0.761437,-1.96174 -0.667324,0.677166 0,1.284574 -1.146433,0 0,-5.467708 1.146433,-0.451358 0,2.881508 1.206317,-1.188981 1.428761,0 -1.206317,1.284574 m 6.950771,2.941965 -1.10365,0 -0.521884,-2.100481 -0.66733,2.100481 -1.103648,0 -1.206322,-4.244107 1.16354,0 0.590329,2.022196 0.581771,-2.022196 1.249097,0 0.496213,1.996102 0.564663,-1.996102 1.189209,0 -1.231988,4.244107 m 4.703228,1.631553 -1.146432,0 0.684438,-1.692527 -1.976314,-4.183133 1.308989,0 1.14643,2.81175 1.146432,-2.81175 1.206317,0 -2.36986,5.87566"
     id="text3120"
     style="fill:#ffffff;stroke:none"
     inkscape:connector-curvature="0" />
</svg>
