<?xml version="1.0" encoding="UTF-8" standalone="no"?>
<!-- Created with Inkscape (http://www.inkscape.org/) -->

<svg
   xmlns:dc="http://purl.org/dc/elements/1.1/"
   xmlns:cc="http://creativecommons.org/ns#"
   xmlns:rdf="http://www.w3.org/1999/02/22-rdf-syntax-ns#"
   xmlns:svg="http://www.w3.org/2000/svg"
   xmlns="http://www.w3.org/2000/svg"
   xmlns:sodipodi="http://sodipodi.sourceforge.net/DTD/sodipodi-0.dtd"
   xmlns:inkscape="http://www.inkscape.org/namespaces/inkscape"
   version="1.0"
   width="60"
   height="48"
   id="svg2"
   inkscape:version="0.48.1 r9760"
   sodipodi:docname="US:NY-CIP.svg">
  <metadata
     id="metadata3059">
    <rdf:RDF>
      <cc:Work
         rdf:about="">
        <dc:format>image/svg+xml</dc:format>
        <dc:type
           rdf:resource="http://purl.org/dc/dcmitype/StillImage" />
      </cc:Work>
    </rdf:RDF>
  </metadata>
  <sodipodi:namedview
     pagecolor="#ffffff"
     bordercolor="#666666"
     borderopacity="1"
     objecttolerance="10"
     gridtolerance="10"
     guidetolerance="10"
     inkscape:pageopacity="0"
     inkscape:pageshadow="2"
     inkscape:window-width="1278"
     inkscape:window-height="996"
     id="namedview3057"
     showgrid="true"
     inkscape:showpageshadow="false"
     inkscape:zoom="16.895833"
     inkscape:cx="30"
     inkscape:cy="24"
     inkscape:window-x="1"
     inkscape:window-y="27"
     inkscape:window-maximized="0"
     inkscape:current-layer="svg2">
    <inkscape:grid
       type="xygrid"
       id="grid3659"
       empspacing="5"
       visible="true"
       enabled="true"
       snapvisiblegridlinesonly="true" />
  </sodipodi:namedview>
  <defs
     id="defs4" />
  <path
     d="M 30,1 C 25.066838,1 20.829935,1.737881 16.238913,4.426909 11.664806,7.106119 7.2054515,8.524783 1,8.524783 L 1,35.649914 C 1,38.059653 1.00463,38.060687 2.5635114,39.27912 5.2873319,41.408537 30,47 30,47 30,47 54.712666,41.408537 57.436492,39.27912 58.995376,38.060687 59,38.059653 59,35.649914 L 59,8.524783 c -6.205451,0 -10.66481,-1.418664 -15.238914,-4.097874 C 39.170066,1.737881 34.933165,1 30,1 z"
     id="rect4804"
     style="fill:#006b54;stroke:none"
     inkscape:connector-curvature="0" />
  <path
     d="m 16.555305,15.736949 c -0.384834,0.615675 -0.833798,1.092869 -1.346892,1.431323 -0.504556,0.32967 -1.133105,0.494504 -1.885649,0.494504 -0.624277,0 -1.171586,-0.126597 -1.641925,-0.377466 -0.461795,-0.26017 -0.850896,-0.603016 -1.167306,-1.028021 -0.307863,-0.425005 -0.5387589,-0.906591 -0.6926879,-1.4445 -0.153931,-0.546177 -0.2308965,-1.105788 -0.2308965,-1.678576 -1.1e-6,-0.676649 0.089791,-1.288191 0.269378,-1.834884 0.1881384,-0.554961 0.4489624,-1.028021 0.7824804,-1.418147 0.333514,-0.399169 0.731167,-0.707136 1.192961,-0.923902 0.47034,-0.217023 0.987717,-0.325535 1.552133,-0.325535 0.342063,0 0.671303,0.04392 0.987721,0.131764 0.316406,0.08784 0.611439,0.211857 0.8851,0.377467 0.273647,0.1576 0.517371,0.355505 0.73117,0.598365 0.222335,0.235109 0.410474,0.498897 0.564412,0.793946 l -1.513651,0.819781 c -0.196694,-0.329669 -0.444693,-0.572529 -0.743997,-0.728838 -0.299314,-0.165352 -0.624278,-0.248027 -0.974893,-0.248027 -0.307865,0 -0.585795,0.06459 -0.83379,0.196354 -0.248002,0.131765 -0.461795,0.316752 -0.641377,0.559612 -0.171037,0.235109 -0.303588,0.524991 -0.397654,0.87197 -0.09407,0.338196 -0.141103,0.715662 -0.141101,1.131883 -2e-6,0.425263 0.04703,0.811514 0.141101,1.158493 0.09406,0.338196 0.226616,0.628594 0.397654,0.871713 0.179581,0.24286 0.393374,0.429397 0.641377,0.559353 0.247995,0.131764 0.525925,0.196354 0.83379,0.196354 0.350615,0 0.675579,-0.08268 0.974893,-0.245443 0.299304,-0.173102 0.547303,-0.429397 0.743997,-0.767593 l 1.513651,0.832958 0,0"
     id="text1352"
     style="fill:#ffffff;stroke:none"
     inkscape:connector-curvature="0" />
  <path
     d="m 18.574799,29.442001 0,-8.744509 1.71889,0 0,8.744509 -1.71889,0"
     id="text2229"
     style="fill:#ffffff;stroke:none"
     inkscape:connector-curvature="0" />
  <path
     d="m 29.571234,35.282782 c -8e-6,0.503289 -0.11973,0.971699 -0.359168,1.405488 -0.239484,0.425005 -0.564421,0.75054 -0.974894,0.97609 -0.128276,0.06976 -0.252278,0.131765 -0.371997,0.183437 -0.111208,0.04392 -0.230912,0.07751 -0.359175,0.105928 -0.11973,0.02584 -0.256555,0.04651 -0.410478,0.06459 -0.145395,0 -0.316419,0.02584 -0.513106,0.02584 l -2.257645,0 0,3.278867 -1.693237,0 0,-8.744507 4.040675,0 c 0.359165,0 0.649926,0.02584 0.872273,0.07751 0.22234,0.05167 0.453237,0.147266 0.69269,0.286265 0.410473,0.242859 0.735436,0.572529 0.974894,0.989008 0.239459,0.416479 0.35916,0.87197 0.359168,1.366475 m -1.693237,0 c -5e-6,-0.277743 -0.102636,-0.507685 -0.307857,-0.689572 -0.196725,-0.191187 -0.457525,-0.286264 -0.78248,-0.286264 l -2.462889,0 0,1.977758 2.462889,0 c 0.333507,0 0.59861,-0.09043 0.795305,-0.273088 0.1967,-0.183437 0.295027,-0.425264 0.295032,-0.728839"
     id="text2233"
     style="fill:#ffffff;stroke:none"
     inkscape:connector-curvature="0" />
  <path
     d="m 21.238274,13.174259 c -0.07985,-0.134348 -0.182521,-0.229942 -0.307996,-0.286264 -0.125485,-0.05942 -0.242406,-0.08784 -0.350774,-0.08784 -0.256666,0 -0.433478,0.07492 -0.530438,0.227358 -0.09126,0.152433 -0.136888,0.376174 -0.136886,0.676907 l 0,2.343082 -1.14643,0 0,-4.243848 1.14643,0 0,0.209273 c 0.142589,-0.116263 0.276624,-0.198939 0.402107,-0.245444 0.131178,-0.0465 0.27092,-0.06976 0.419217,-0.06976 0.171106,0 0.325104,0.02584 0.461995,0.06976 0.142586,0.0465 0.285178,0.129181 0.427772,0.245444 l -0.384995,1.162885 m 5.151189,0.755192 c -5e-6,0.306675 -0.0542,0.59294 -0.162564,0.858794 -0.108359,0.266371 -0.25383,0.500705 -0.436329,0.70326 -0.182531,0.196355 -0.393554,0.352922 -0.633102,0.46841 -0.233862,0.111095 -0.479108,0.165351 -0.735771,0.165351 -0.262369,0 -0.510476,-0.05426 -0.744324,-0.165351 -0.233852,-0.116263 -0.439181,-0.271797 -0.615992,-0.46841 -0.176814,-0.204106 -0.316553,-0.436889 -0.419218,-0.70326 -0.102666,-0.265854 -0.154,-0.552119 -0.153997,-0.858794 -1e-6,-0.318302 0.04848,-0.613351 0.14544,-0.885406 0.102664,-0.271796 0.239553,-0.50613 0.410662,-0.703002 0.176811,-0.204106 0.382142,-0.358864 0.615994,-0.468926 0.233837,-0.116263 0.487657,-0.175686 0.761435,-0.175686 0.250955,0 0.493362,0.05942 0.727217,0.175686 0.23956,0.116263 0.450581,0.275155 0.633102,0.47771 0.182532,0.204106 0.327952,0.439732 0.436331,0.711528 0.114083,0.272055 0.171086,0.561162 0.171086,0.868096 m -1.163543,0 c -3e-6,-0.157601 -0.02289,-0.303834 -0.06845,-0.442832 -0.04563,-0.139516 -0.10551,-0.258362 -0.179657,-0.355764 -0.07415,-0.105929 -0.159716,-0.186021 -0.256664,-0.24286 -0.09696,-0.05942 -0.196776,-0.08784 -0.299443,-0.08784 -0.114082,0 -0.219592,0.02842 -0.316551,0.08784 -0.09127,0.05942 -0.173959,0.139515 -0.248107,0.24286 -0.06845,0.09818 -0.122629,0.21444 -0.162564,0.355764 -0.03993,0.139515 -0.05989,0.286523 -0.05989,0.442832 -2e-6,0.149849 0.01997,0.292207 0.05989,0.425005 0.03993,0.134348 0.09412,0.248027 0.162564,0.347238 0.07415,0.09818 0.156841,0.178269 0.248107,0.235109 0.09696,0.05942 0.202474,0.08784 0.316551,0.08784 0.102662,0 0.202474,-0.02842 0.299443,-0.08784 0.09696,-0.05942 0.182506,-0.136932 0.256664,-0.235109 0.07415,-0.09818 0.134024,-0.211857 0.179657,-0.347238 0.04561,-0.134349 0.06845,-0.274639 0.06845,-0.425005 m 6.07063,0.893673 c -2e-6,0.18602 -0.02851,0.346979 -0.08554,0.485978 -0.05705,0.134348 -0.151144,0.258361 -0.282332,0.373332 -0.182532,0.14985 -0.396406,0.260429 -0.641664,0.32967 -0.23956,0.06459 -0.527585,0.09559 -0.864098,0.09559 -0.199625,0 -0.382147,0 -0.54755,-0.02584 -0.159715,0 -0.316553,-0.031 -0.470551,-0.06201 -0.148294,-0.03617 -0.293737,-0.07751 -0.436328,-0.131765 -0.136899,-0.05167 -0.282327,-0.116262 -0.436327,-0.191187 l 0.444883,-1.023888 c 0.211046,0.105929 0.444883,0.186021 0.70155,0.24286 0.256661,0.05942 0.490511,0.08784 0.701549,0.08784 0.233837,0 0.41921,-0.02584 0.556104,-0.06201 0.142596,-0.04134 0.213869,-0.100762 0.213869,-0.183437 -2e-6,-0.06459 -0.02567,-0.118847 -0.07702,-0.165352 -0.05133,-0.04651 -0.13405,-0.08268 -0.248107,-0.105928 -0.05705,-0.02584 -0.125478,-0.03617 -0.205323,-0.05167 -0.07985,-0.02584 -0.162564,-0.03617 -0.248107,-0.05167 -0.07984,-0.02584 -0.156866,-0.04392 -0.231013,-0.06201 -0.07415,-0.02584 -0.13405,-0.04392 -0.179658,-0.06201 -0.456297,-0.134348 -0.789956,-0.306934 -1.000992,-0.520857 -0.205323,-0.219608 -0.307997,-0.494763 -0.307997,-0.824432 0,-0.381859 0.154017,-0.680008 0.461994,-0.89419 0.307997,-0.217024 0.724363,-0.329669 1.249096,-0.329669 0.290883,0 0.581769,0.03617 0.87266,0.105928 0.290881,0.06459 0.604581,0.180853 0.941099,0.347238 l -0.444885,1.024145 c -0.211046,-0.116262 -0.43918,-0.206689 -0.684436,-0.269212 -0.23956,-0.06976 -0.453442,-0.105929 -0.641661,-0.105929 -0.21677,0 -0.373588,0.02584 -0.470546,0.05167 -0.09129,0.03617 -0.136899,0.09301 -0.136899,0.175686 -3e-6,0.04134 0.0058,0.07492 0.0173,0.105928 0.0173,0.02842 0.04848,0.05426 0.09411,0.07751 0.05133,0.02584 0.122629,0.03876 0.213895,0.06201 0.09124,0.02584 0.211046,0.03875 0.359328,0.06201 0.604583,0.129181 1.058023,0.309776 1.360319,0.546952 0.302287,0.232525 0.453435,0.546951 0.453438,0.945862 m 4.929415,0 c -5e-6,0.18602 -0.02851,0.346979 -0.08554,0.485978 -0.05705,0.134348 -0.151144,0.258361 -0.282329,0.373332 -0.182532,0.14985 -0.396407,0.260429 -0.641665,0.32967 -0.23956,0.06459 -0.527584,0.09559 -0.864098,0.09559 -0.199625,0 -0.382146,0 -0.547549,-0.02584 -0.159716,0 -0.316554,-0.031 -0.470551,-0.06201 C 33.18607,15.98237 33.040628,15.94103 32.898036,15.886775 32.761137,15.835105 32.61571,15.770513 32.46171,15.695588 L 32.906593,14.6717 c 0.211046,0.105929 0.444883,0.186021 0.701547,0.24286 0.256663,0.05942 0.490513,0.08784 0.701549,0.08784 0.233837,0 0.419212,-0.02584 0.556106,-0.06201 0.142597,-0.04134 0.213869,-0.100761 0.213869,-0.183437 -2e-6,-0.06459 -0.02566,-0.118847 -0.07702,-0.165352 -0.05133,-0.0465 -0.13405,-0.08268 -0.248107,-0.105928 -0.05705,-0.02584 -0.125478,-0.03617 -0.205323,-0.05167 -0.07984,-0.02584 -0.162564,-0.03617 -0.248107,-0.05167 -0.07984,-0.02584 -0.156866,-0.04392 -0.231013,-0.06201 -0.07415,-0.02584 -0.13405,-0.04392 -0.179658,-0.06201 -0.456293,-0.134348 -0.789956,-0.306934 -1.000989,-0.520857 -0.205323,-0.219608 -0.307997,-0.494763 -0.307997,-0.824432 0,-0.381859 0.154018,-0.680008 0.461994,-0.89419 0.307997,-0.217024 0.724363,-0.329669 1.249096,-0.329669 0.290884,0 0.58177,0.03617 0.872661,0.105928 0.29088,0.06459 0.60458,0.180853 0.941096,0.347238 l -0.444883,1.024145 c -0.211046,-0.116262 -0.439182,-0.206689 -0.684435,-0.269212 -0.239561,-0.06976 -0.453443,-0.105929 -0.641662,-0.105929 -0.216769,0 -0.373587,0.02584 -0.470546,0.05167 -0.09129,0.03617 -0.136899,0.09301 -0.136899,0.175686 -2e-6,0.04134 0.0059,0.07492 0.0173,0.105928 0.0173,0.02842 0.04848,0.05426 0.09411,0.07751 0.05133,0.02584 0.122629,0.03876 0.213895,0.06201 0.09124,0.02584 0.211046,0.03875 0.359327,0.06201 0.604583,0.129181 1.058023,0.309776 1.36032,0.546952 0.302284,0.229941 0.453432,0.546951 0.453437,0.945862"
     id="text2239"
     style="fill:#ffffff;stroke:none"
     inkscape:connector-curvature="0" />
  <path
     d="m 25.414416,26.784234 c -5e-6,0.186021 -0.02851,0.347238 -0.08554,0.485979 -0.05705,0.134348 -0.151143,0.258361 -0.282331,0.373074 -0.182506,0.152433 -0.396406,0.260428 -0.641659,0.329928 -0.23956,0.06459 -0.52759,0.09559 -0.864101,0.09559 -0.19963,0 -0.382146,0 -0.547549,-0.02584 -0.159705,0 -0.316554,-0.031 -0.47055,-0.06201 -0.148297,-0.03617 -0.293739,-0.07751 -0.436328,-0.131764 -0.136889,-0.05167 -0.282331,-0.116263 -0.436328,-0.191188 l 0.444883,-1.024145 c 0.211034,0.103344 0.444883,0.18602 0.701547,0.240276 0.256662,0.05942 0.490511,0.08784 0.701548,0.08784 0.233847,0 0.419213,-0.02584 0.556104,-0.06201 0.142597,-0.04134 0.21387,-0.100761 0.213895,-0.183437 -2e-6,-0.06459 -0.02567,-0.118846 -0.077,-0.165351 -0.05133,-0.0465 -0.13405,-0.08268 -0.248107,-0.105928 -0.05703,-0.02584 -0.125477,-0.03617 -0.205322,-0.05167 -0.07984,-0.02584 -0.162557,-0.03617 -0.248107,-0.05167 -0.07985,-0.02584 -0.156851,-0.04392 -0.230999,-0.06201 -0.07415,-0.02584 -0.134037,-0.04392 -0.179662,-0.06201 -0.456293,-0.134348 -0.789955,-0.306676 -1.000988,-0.520857 -0.205333,-0.222191 -0.307998,-0.494505 -0.307997,-0.824691 -1e-6,-0.381858 0.153997,-0.679749 0.461995,-0.893673 0.307995,-0.222191 0.72436,-0.329669 1.249096,-0.329669 0.290884,0 0.58177,0.03617 0.872655,0.105928 0.290884,0.06459 0.604586,0.180853 0.941102,0.347238 L 24.84979,25.12631 c -0.211046,-0.116263 -0.439185,-0.20669 -0.684438,-0.268955 -0.23956,-0.06976 -0.45344,-0.105928 -0.641659,-0.105928 -0.216741,0 -0.37359,0.02584 -0.470549,0.05167 -0.09126,0.03617 -0.136889,0.09301 -0.136886,0.175686 -2e-6,0.04134 0.0057,0.07493 0.01709,0.105928 0.01709,0.02842 0.04848,0.05426 0.09411,0.07751 0.05133,0.02584 0.122626,0.03875 0.213887,0.06201 0.09126,0.02584 0.211033,0.03875 0.359329,0.06201 0.604582,0.126597 1.058022,0.309517 1.360319,0.546693 0.302289,0.232526 0.453434,0.546694 0.453439,0.946121 m 1.78956,1.223859 0,-5.467966 1.146432,-0.4511 0,5.919066 -1.146432,0 m 5.615321,0 0,-0.139515 c -0.199625,0.08268 -0.393555,0.134348 -0.581772,0.1576 -0.188229,0.02842 -0.362181,0.04392 -0.521881,0.04392 -0.233837,0 -0.447737,-0.03617 -0.641659,-0.105929 -0.193953,-0.06976 -0.362182,-0.167935 -0.504771,-0.295307 -0.142597,-0.126597 -0.25383,-0.27748 -0.333665,-0.451358 -0.07417,-0.180853 -0.111233,-0.373074 -0.111233,-0.581313 0,-0.222192 0.04278,-0.422422 0.128327,-0.607667 0.09126,-0.18602 0.213894,-0.344138 0.367884,-0.477194 0.154017,-0.139515 0.336511,-0.245444 0.547549,-0.321402 0.211021,-0.08268 0.439178,-0.12143 0.684436,-0.12143 0.11978,0 0.268069,0 0.444883,0.03617 0.176834,0.02584 0.350771,0.06717 0.521884,0.131764 -0.01145,-0.204105 -0.08554,-0.347238 -0.222441,-0.433789 -0.136899,-0.09301 -0.310851,-0.139515 -0.521879,-0.139515 -0.399261,0 -0.795659,0.111095 -1.189209,0.329928 l -0.419218,-0.920026 c 0.154018,-0.08268 0.296589,-0.152433 0.427775,-0.209273 0.136873,-0.05942 0.268069,-0.105928 0.393547,-0.139515 0.131176,-0.03617 0.259515,-0.06201 0.384995,-0.07751 0.125478,-0.02584 0.259518,-0.02584 0.40211,-0.02584 0.576066,0 1.0238,0.144682 1.343205,0.434047 0.325106,0.283423 0.487657,0.723413 0.48766,1.319195 l 0,2.595243 -1.08654,0 m 0,-1.710096 c -0.171136,-0.06459 -0.347924,-0.111096 -0.530441,-0.139515 -0.176834,-0.03617 -0.322256,-0.05167 -0.436326,-0.05167 -0.182532,0 -0.336519,0.0465 -0.461994,0.139515 -0.11978,0.08784 -0.179657,0.196355 -0.179657,0.329669 0,0.134348 0.07415,0.248028 0.222441,0.347238 0.148294,0.09818 0.322252,0.147267 0.521884,0.147267 0.11978,0 0.250956,-0.02584 0.39355,-0.04392 0.148294,-0.02842 0.30514,-0.09043 0.470551,-0.183437 l 0,-0.546951 m 6.026781,1.710095 0,-2.552096 c -3e-6,-0.198938 -0.06275,-0.361448 -0.18823,-0.494504 -0.11978,-0.134348 -0.290893,-0.201522 -0.51333,-0.201522 -0.102686,0 -0.202499,0.02584 -0.29944,0.06201 -0.09129,0.03617 -0.176834,0.08526 -0.256661,0.147266 -0.07415,0.06459 -0.13405,0.136932 -0.179657,0.217024 -0.04561,0.08268 -0.06845,0.165351 -0.06845,0.250611 l 0,2.569148 -1.146432,0 0,-4.244365 1.146432,0 0,0.227358 c 0.193953,-0.12143 0.382142,-0.206689 0.564661,-0.250611 0.182532,-0.05167 0.370733,-0.07751 0.56466,-0.07751 0.21677,0 0.416362,0.03875 0.598881,0.113679 0.182531,0.06976 0.339362,0.167935 0.470551,0.295049 0.136873,0.129181 0.242409,0.280581 0.316551,0.460142 0.07984,0.173103 0.11978,0.361448 0.11978,0.564004 l 0,2.916386 -1.129324,0 m 5.620399,0 0,-0.209273 c -0.09699,0.09818 -0.236737,0.167935 -0.419215,0.209273 -0.176834,0.04134 -0.345073,0.06201 -0.504773,0.06201 -0.239561,0 -0.4677,-0.05942 -0.684436,-0.175686 -0.216769,-0.12143 -0.407812,-0.280581 -0.573212,-0.477452 -0.159716,-0.204106 -0.28804,-0.43689 -0.384996,-0.703002 -0.09699,-0.272055 -0.145445,-0.555478 -0.145445,-0.850527 0,-0.295307 0.04848,-0.57563 0.145445,-0.842001 0.09699,-0.266112 0.225291,-0.500446 0.384996,-0.703002 0.165387,-0.204105 0.356473,-0.361706 0.573212,-0.477194 0.222441,-0.12143 0.456289,-0.183436 0.701552,-0.183436 0.153992,0 0.313694,0.02584 0.479102,0.06976 0.165388,0.0465 0.307992,0.118846 0.42777,0.217023 l 0,-1.406004 1.069431,-0.451099 0,5.919065 -1.069431,0 m 0,-2.838361 c -0.07984,-0.144682 -0.18823,-0.248027 -0.325108,-0.312359 -0.136899,-0.06459 -0.276624,-0.09559 -0.419213,-0.09559 -0.114082,0 -0.222441,0.02842 -0.325108,0.08784 -0.09699,0.05942 -0.182532,0.139515 -0.256666,0.24286 -0.07417,0.09818 -0.134025,0.21444 -0.179657,0.347238 -0.03994,0.134348 -0.05988,0.274638 -0.05988,0.425263 0,0.157601 0.02009,0.300991 0.05988,0.433789 0.04561,0.134348 0.10551,0.250611 0.179657,0.347238 0.07417,0.09818 0.162564,0.17827 0.265223,0.235109 0.108359,0.05942 0.222441,0.08784 0.342216,0.08784 0.131176,0 0.262364,-0.031 0.393548,-0.09559 0.136873,-0.06459 0.245258,-0.167936 0.325108,-0.312101 l 0,-1.388953"
     id="text3116"
     style="fill:#ffffff;stroke:none"
     inkscape:connector-curvature="0" />
  <path
     d="m 34.10189,36.862147 1.163541,2.942223 -1.163541,0 -0.761437,-1.961482 -0.667327,0.676908 0,1.284574 -1.146429,0 0,-5.467966 1.146429,-0.4511 0,2.881508 1.20632,-1.188981 1.428761,0 -1.206317,1.284316 m 6.950772,2.942223 -1.103654,0 -0.521884,-2.100222 -0.667324,2.100222 -1.103656,0 -1.20632,-4.244107 1.163544,0 0.590325,2.022455 0.581775,-2.022455 1.249093,0 0.496216,1.99636 0.564664,-1.99636 1.189203,0 -1.231982,4.244107 m 4.703224,1.631554 -1.146429,0 0.684438,-1.692269 -1.976308,-4.183392 1.308983,0 1.146433,2.812008 1.146429,-2.812008 1.206315,0 -2.369861,5.875661"
     id="text3120"
     style="fill:#ffffff;stroke:none"
     inkscape:connector-curvature="0" />
</svg>
