<?xml version="1.0" encoding="UTF-8" standalone="no"?>
<!-- Created with Inkscape (http://www.inkscape.org/) -->

<svg
   xmlns:dc="http://purl.org/dc/elements/1.1/"
   xmlns:cc="http://creativecommons.org/ns#"
   xmlns:rdf="http://www.w3.org/1999/02/22-rdf-syntax-ns#"
   xmlns:svg="http://www.w3.org/2000/svg"
   xmlns="http://www.w3.org/2000/svg"
   xmlns:sodipodi="http://sodipodi.sourceforge.net/DTD/sodipodi-0.dtd"
   xmlns:inkscape="http://www.inkscape.org/namespaces/inkscape"
   version="1.0"
   width="48"
   height="48"
   id="svg2"
   sodipodi:version="0.32"
   inkscape:version="0.48.1 r9760"
   sodipodi:docname="US:NY-RMC.svg">
  <metadata
     id="metadata2464">
    <rdf:RDF>
      <cc:Work
         rdf:about="">
        <dc:format>image/svg+xml</dc:format>
        <dc:type
           rdf:resource="http://purl.org/dc/dcmitype/StillImage" />
      </cc:Work>
    </rdf:RDF>
  </metadata>
  <sodipodi:namedview
     inkscape:window-height="996"
     inkscape:window-width="1278"
     inkscape:pageshadow="2"
     inkscape:pageopacity="0.0"
     borderopacity="1.0"
     bordercolor="#666666"
     pagecolor="#ffffff"
     id="base"
     inkscape:zoom="16.895833"
     inkscape:cx="24"
     inkscape:cy="24"
     inkscape:window-x="1"
     inkscape:window-y="27"
     inkscape:current-layer="svg2"
     showgrid="true"
     inkscape:showpageshadow="false"
     inkscape:window-maximized="0">
    <inkscape:grid
       type="xygrid"
       id="grid3560"
       empspacing="5"
       visible="true"
       enabled="true"
       snapvisiblegridlinesonly="true" />
  </sodipodi:namedview>
  <defs
     id="defs4" />
  <g
     id="g3566">
    <rect
       y="1.6999999"
       x="1.7"
       height="44.599998"
       width="44.599998"
       id="rect1474"
       style="fill:#ffffff;fill-opacity:1" />
    <path
       d="M 2.8335835,46.985244 C 2.5329677,46.942136 2.1979209,46.814695 1.9440415,46.646892 1.7645296,46.528245 1.4989403,46.2704 1.3749444,46.094394 1.2350982,45.895888 1.1069718,45.619332 1.048377,45.389515 L 1,45.199775 1,23.988668 1,2.7775599 1.0545729,2.5837077 C 1.1643811,2.1936509 1.3578624,1.8707429 1.6463812,1.596017 1.9345123,1.3216603 2.2642825,1.1393222 2.6384957,1.0474522 l 0.1933629,-0.0474709 21.1783194,0 21.178319,0 0.197551,0.0535508 c 0.383946,0.1040766 0.683588,0.2720756 0.967571,0.5424848 0.292769,0.278771 0.5009,0.6309131 0.598004,1.0117742 L 47,2.7975327 l 0,21.2111093 0,21.211105 -0.05457,0.193852 c -0.06729,0.239027 -0.184339,0.487699 -0.320583,0.681093 -0.123886,0.17585 -0.389512,0.433642 -0.569196,0.552407 -0.181918,0.120242 -0.467749,0.246684 -0.683966,0.302561 l -0.183186,0.04734 -21.117257,0.0028 C 12.2905,47.001289 2.9007507,46.994874 2.8335835,46.985244 z m 42.0903105,-1.10352 c 0.487215,-0.146351 0.820884,-0.485741 0.945456,-0.961669 l 0.04185,-0.159884 -0.0054,-20.801563 C 45.900673,3.8380967 45.899274,3.1531194 45.86311,3.0372061 45.714004,2.5592593 45.369375,2.2331143 44.883078,2.1097308 l -0.16294,-0.041341 -20.760952,0.00525 C 3.8796265,2.0787239 3.194222,2.0801004 3.0761063,2.115581 2.589046,2.2618884 2.256668,2.6000675 2.1309311,3.0772525 L 2.0888028,3.2371357 2.0941503,24.0387 c 0.00517,20.120508 0.00657,20.805487 0.042737,20.921403 0.1476153,0.473159 0.4899477,0.800123 0.9697474,0.926207 0.1524469,0.04006 0.1809955,0.04012 20.9238925,0.03611 20.091533,-0.0038 20.775236,-0.0052 20.893364,-0.0407 z M 3.0941697,28.324106 c -0.00616,-0.01574 -0.00678,-0.09889 -0.00137,-0.184758 0.00541,-0.08587 0.024564,-0.713364 0.042579,-1.394434 0.02616,-0.98902 0.038297,-1.242337 0.060284,-1.258285 0.015142,-0.01099 0.3745467,-0.104278 0.7986784,-0.207307 0.4241316,-0.103033 0.7829956,-0.198119 0.7974758,-0.211295 0.020256,-0.01844 0.1174538,-2.059337 0.4214895,-8.8502 0.2173391,-4.854429 0.3886775,-8.8324456 0.3807524,-8.8400379 -0.00793,-0.00759 -0.051046,-0.016651 -0.095826,-0.020132 l -0.081416,-0.00632 0,-0.5991837 0,-0.5991838 0.4783185,-0.00999 0.4783184,-0.00999 0.00533,-0.6491159 0.00533,-0.6491158 0.5746296,-0.5642313 C 7.2747859,3.9602018 7.5426493,3.7062978 7.553991,3.7062978 c 0.011342,0 0.2792053,0.253904 0.5952519,0.5642315 l 0.5746297,0.5642313 0.00533,0.6491158 0.00533,0.6491159 0.3969029,0.00999 0.3969027,0.00999 0,0.5991838 0,0.5991837 -0.10177,0.00619 c -0.055973,0.0034 -0.1084665,0.012673 -0.1166511,0.020595 -0.012796,0.012385 0.3876262,12.9857342 0.4235053,13.7212592 0.011989,0.245822 0.015899,0.265666 0.050523,0.256779 0.020642,-0.0053 0.4176166,-0.248764 0.8821646,-0.541036 0.464548,-0.292271 0.858892,-0.531403 0.876321,-0.531403 0.02425,0 2.958629,1.933585 3.028505,1.995608 0.0083,0.0074 0.06031,0.60961 0.11548,1.338227 0.05847,0.772122 0.109326,1.333608 0.121919,1.345966 0.01188,0.01166 0.367562,0.06885 0.790393,0.127073 l 0.768786,0.105866 1.098994,-0.327015 c 0.886176,-0.263691 1.105823,-0.322618 1.134258,-0.304304 0.0194,0.0125 0.507705,0.521536 1.085132,1.131207 0.577427,0.609667 1.079058,1.12937 1.114736,1.154891 0.03568,0.02552 0.207977,0.117134 0.382888,0.203585 l 0.318017,0.157179 0.424902,0.08012 c 0.277818,0.05238 0.53647,0.08756 0.747202,0.101645 l 0.322296,0.02153 0.288322,-0.06156 c 0.568128,-0.12132 0.819111,-0.181557 0.919293,-0.220638 0.08053,-0.03141 0.13775,-0.07933 0.274109,-0.229542 0.09479,-0.104413 0.183289,-0.187311 0.196671,-0.184221 0.01338,0.0031 0.119014,0.112715 0.234739,0.243607 0.115725,0.130893 0.233309,0.254375 0.261294,0.274411 0.02799,0.02004 0.224766,0.09039 0.437284,0.15634 l 0.386393,0.119909 0.479855,0.04031 0.47985,0.0403 0.639027,-0.04039 0.63903,-0.04039 0.357113,-0.131011 c 0.196414,-0.07206 0.375433,-0.142653 0.397821,-0.156885 0.02239,-0.01423 0.141099,-0.107966 0.2638,-0.208298 0.122696,-0.100331 0.232845,-0.182417 0.244775,-0.182417 0.01193,0 0.06725,0.05935 0.122929,0.131883 0.136878,0.178308 0.199063,0.22266 0.525876,0.375039 0.199624,0.09308 0.376107,0.156958 0.610676,0.221039 0.300234,0.08201 0.367369,0.0929 0.746413,0.12098 l 0.416504,0.03085 0.392533,-0.06186 c 0.46988,-0.07405 1.043329,-0.230761 1.390302,-0.379938 0.216524,-0.09309 0.259072,-0.121027 0.517238,-0.339617 0.154717,-0.130999 0.291427,-0.238181 0.303794,-0.238181 0.01237,0 0.122933,0.09887 0.245691,0.219701 0.12276,0.120835 0.230421,0.219701 0.239249,0.219701 0.0088,0 0.0502,0.02181 0.09194,0.04847 0.04174,0.02666 0.218191,0.10294 0.392118,0.169502 0.273975,0.104856 0.374302,0.131736 0.750909,0.201182 0.239075,0.04409 0.491481,0.08016 0.560898,0.08016 0.06941,0 0.308544,-0.0271 0.53139,-0.06022 0.394263,-0.0586 0.414566,-0.06397 0.753731,-0.199306 0.565629,-0.225703 0.790269,-0.33814 1.012503,-0.506781 0.110484,-0.08384 0.210534,-0.152439 0.222335,-0.152439 0.01181,0 0.136739,0.1101 0.27764,0.244666 0.235465,0.224879 0.282951,0.259805 0.587088,0.431808 l 0.330903,0.187143 0.391462,0.09633 c 0.370026,0.09105 0.414603,0.09754 0.814035,0.118397 0.408599,0.02133 0.435515,0.02034 0.814157,-0.03015 0.682636,-0.09101 1.086718,-0.213652 1.319351,-0.400416 l 0.135774,-0.108999 0.781065,0.0053 0.781063,0.0053 0,0.539265 0,0.539265 -21.224749,0.005 c -18.4143207,0.0043 -21.2262341,0.0012 -21.2359489,-0.02363 z m 5.0602552,-3.945969 0.010177,-1.987291 0.4314,-0.280186 c 0.2372699,-0.1541 0.4366986,-0.28538 0.4431748,-0.291736 0.01443,-0.01415 -0.08688,-3.250228 -0.1025305,-3.275077 -0.015505,-0.02462 -3.1577086,-0.02333 -3.1732215,0.0012 -0.016174,0.02567 -0.3791382,7.790977 -0.3651995,7.813105 0.00614,0.0098 0.6140559,0.01519 1.3785067,0.01231 l 1.3675159,-0.0052 0.010177,-1.987294 z M 8.8352237,12.056605 C 8.8495753,12.033819 8.748493,7.3835116 8.7331154,7.3590962 8.7183283,7.3356171 6.1860528,7.335688 6.1712647,7.3591602 6.1558278,7.3836695 6.0547531,12.033657 6.0691595,12.05653 c 0.015423,0.02449 2.7506427,0.02455 2.7660642,6.5e-5 z m -1.4440729,-6.5627453 0,-0.6391293 -0.3154867,0 -0.3154868,0 -0.00539,0.6189617 c -0.00296,0.340429 -8.689e-4,0.6305192 0.00466,0.6446451 0.00771,0.01972 0.082222,0.024403 0.3208764,0.020167 l 0.3108327,-0.00552 0,-0.6391296 z m 0.9566371,0 0,-0.6391293 -0.3154866,0 -0.3154867,0 -0.00539,0.6189617 c -0.00296,0.340429 -8.689e-4,0.6305192 0.00466,0.6446451 0.00771,0.01972 0.082222,0.024403 0.3208762,0.020167 l 0.3108328,-0.00552 0,-0.6391296 z"
       style="fill:#000000"
       id="path1317"
       inkscape:connector-curvature="0" />
  </g>
  <path
     inkscape:connector-curvature="0"
     id="text1331"
     style="font-size:376.64926147px;font-style:normal;font-variant:normal;font-weight:normal;font-stretch:normal;text-align:center;line-height:100%;writing-mode:lr-tb;text-anchor:middle;fill:#000000;fill-opacity:1;stroke:none;font-family:Roadgeek 2005 Series E"
     d="m 25,23 -2.711875,-7.332106 -3.188964,0 0,7.332106 -2.661654,0 0,-16.8236674 5.549298,0 c 0.652851,1.69e-5 1.21364,0.041867 1.682366,0.1255498 0.468711,0.066977 0.91232,0.2008962 1.330829,0.4017593 0.368269,0.1841557 0.703067,0.426885 1.004398,0.7281886 0.318046,0.2845946 0.585886,0.6193937 0.803518,1.0043979 0.234346,0.3682935 0.410117,0.7700523 0.527308,1.2052776 0.133907,0.4185122 0.200867,0.8370112 0.20088,1.2554972 -1.3e-5,0.451991 -0.06697,0.8956 -0.20088,1.330828 -0.117191,0.418509 -0.292962,0.820268 -0.527308,1.205277 -0.217632,0.368289 -0.49384,0.703088 -0.828627,1.004398 -0.318071,0.301328 -0.669611,0.535687 -1.05462,0.703079 L 27.887644,23 25,23 M 24.874449,10.897003 C 24.87444,10.545476 24.782369,10.210678 24.59824,9.8926053 24.414091,9.5745594 24.154622,9.3234601 23.819831,9.1393068 23.602203,9.022141 23.401325,8.9468112 23.217194,8.9133172 23.033045,8.8631114 22.723356,8.8380017 22.288125,8.8379874 l -3.188964,0 0,4.1180316 3.188964,0 c 0.418491,10e-6 0.719811,-0.01673 0.903958,-0.05022 0.200871,-0.03347 0.41012,-0.108799 0.627748,-0.225989 0.334791,-0.184129 0.59426,-0.435229 0.778409,-0.753299 0.184129,-0.334788 0.2762,-0.677957 0.276209,-1.029508 M 41.154723,23 l 0,-9.742661 L 37.262679,23 l -3.892042,-9.742661 0,9.742661 -2.661655,0 0,-16.8236674 2.661655,0 3.892042,9.4413414 3.892044,-9.4413414 2.661653,0 0,16.8236674 -2.661653,0" />
  <path
     inkscape:connector-curvature="0"
     id="text1335"
     style="font-size:212.95323181px;font-style:normal;font-variant:normal;font-weight:normal;font-stretch:normal;text-align:center;line-height:100%;writing-mode:lr-tb;text-anchor:middle;fill:#000000;fill-opacity:1;stroke:none;font-family:Roadgeek 2005 Series E"
     d="m 8.4639065,42.75353 c -0.085186,0.165631 -0.1940282,0.314698 -0.3265284,0.447202 -0.132508,0.127771 -0.2792089,0.236614 -0.4401033,0.326527 -0.1561691,0.08991 -0.3265315,0.158533 -0.5110877,0.205855 -0.1845622,0.04732 -0.3714876,0.07099 -0.5607767,0.07099 -0.3123335,0 -0.5939048,-0.05915 -0.8447143,-0.17746 C 5.5346154,43.50833 5.3240286,43.342701 5.1489348,43.129748 4.9738391,42.912063 4.8389688,42.651786 4.7443237,42.348919 4.6544098,42.041321 4.6094529,41.702963 4.6094533,41.333841 c -4e-7,-0.373849 0.044956,-0.712206 0.1348704,-1.015077 0.094645,-0.302863 0.2295154,-0.560771 0.4046111,-0.773729 0.1750938,-0.212949 0.3856806,-0.376213 0.6317613,-0.489793 0.2508095,-0.118303 0.5323808,-0.177456 0.8447143,-0.17746 0.3833129,4e-6 0.7382346,0.09228 1.0647659,0.27684 0.3312567,0.179831 0.5891664,0.437739 0.7737302,0.773728 L 7.7114717,40.332961 C 7.6452161,40.233586 7.5884286,40.160237 7.5411092,40.11291 7.4985153,40.06559 7.4440939,40.020635 7.377845,39.978039 c -0.094649,-0.07571 -0.2129562,-0.134866 -0.3549219,-0.17746 -0.1372393,-0.04732 -0.2697433,-0.07098 -0.3975127,-0.07098 -0.2176877,2e-6 -0.3998808,0.04969 -0.5465799,0.149066 -0.1467029,0.09465 -0.2650102,0.217689 -0.354922,0.369118 -0.089915,0.151438 -0.1538011,0.3218 -0.1916579,0.511089 -0.03786,0.184562 -0.056789,0.369122 -0.056788,0.553678 -1.3e-6,0.520555 0.1017429,0.925164 0.3052331,1.213833 0.2034866,0.28394 0.4850579,0.425909 0.8447143,0.425907 0.10884,2e-6 0.205852,-0.0095 0.291036,-0.02839 0.089911,-0.02366 0.175092,-0.05679 0.2555438,-0.09938 0.085178,-0.04732 0.1703595,-0.108842 0.2555439,-0.184559 0.085178,-0.08045 0.1798238,-0.17746 0.2839376,-0.291036 l 0.7524348,0.404611 0,0 m 4.5982365,0.965387 -0.468497,-1.121554 -2.072745,0 -0.461398,1.121554 -0.9369944,0 2.0017604,-4.755955 0.866009,0 1.987564,4.755955 -0.915699,0 m -1.504869,-3.570516 -0.667254,1.604249 1.334507,0 -0.667253,-1.604249 m 7.079141,1.653938 c -5e-6,0.293404 -0.04733,0.563144 -0.141969,0.809222 -0.09465,0.241347 -0.227154,0.451933 -0.397513,0.63176 -0.170366,0.175096 -0.373854,0.312333 -0.610466,0.411711 -0.236617,0.09938 -0.494527,0.149067 -0.77373,0.149067 -0.279207,0 -0.537117,-0.04969 -0.773729,-0.149067 -0.231884,-0.09938 -0.433007,-0.236615 -0.603368,-0.411711 -0.170364,-0.179827 -0.302868,-0.390413 -0.397513,-0.63176 -0.09465,-0.246078 -0.141969,-0.515818 -0.141968,-0.809222 l 0,-2.839377 0.851813,0 0,2.839377 c -2e-6,0.141971 0.0095,0.257911 0.02839,0.347822 0.02366,0.08519 0.06388,0.175098 0.120674,0.269742 0.09464,0.156167 0.222416,0.281572 0.383315,0.376218 0.160896,0.09465 0.338357,0.141969 0.532383,0.141969 0.194022,0 0.371483,-0.04732 0.532383,-0.141969 0.165628,-0.09465 0.295766,-0.220051 0.390415,-0.376218 0.05678,-0.09464 0.09464,-0.186924 0.113575,-0.27684 0.02366,-0.09464 0.03549,-0.208217 0.03549,-0.340724 l 0,-2.839377 0.851813,0 0,2.839377 0,0 m 4.790338,0.532382 c -4e-6,0.482696 -0.222422,0.85418 -0.667253,1.114456 -0.165633,0.104111 -0.35256,0.18456 -0.560777,0.241346 -0.208224,0.05206 -0.423543,0.07808 -0.645958,0.07808 -0.411712,0 -0.776098,-0.07335 -1.09316,-0.220052 -0.312332,-0.151433 -0.603368,-0.383315 -0.873108,-0.695646 l 0.68145,-0.532382 c 0.179826,0.208222 0.369118,0.359655 0.567875,0.4543 0.198755,0.09465 0.433003,0.141968 0.702746,0.141968 0.302864,0 0.551309,-0.05679 0.745336,-0.170362 0.19402,-0.118306 0.291034,-0.267373 0.291036,-0.447202 -2e-6,-0.189291 -0.09938,-0.333627 -0.298133,-0.433004 -0.08519,-0.03312 -0.175099,-0.06625 -0.269742,-0.09938 -0.08992,-0.03312 -0.189294,-0.06152 -0.298135,-0.08518 l -0.220051,-0.06389 -0.220052,-0.04969 -0.22715,-0.07098 c -0.246081,-0.05679 -0.440104,-0.118305 -0.582072,-0.18456 -0.137237,-0.07098 -0.255545,-0.16326 -0.354922,-0.276838 -0.09938,-0.10884 -0.175095,-0.23188 -0.22715,-0.36912 -0.04732,-0.137233 -0.07099,-0.281569 -0.07099,-0.433004 0,-0.198754 0.04022,-0.37858 0.120674,-0.539483 0.08045,-0.160893 0.191657,-0.298128 0.333627,-0.411708 0.141967,-0.118303 0.31233,-0.208216 0.511087,-0.26974 0.203487,-0.06625 0.425905,-0.09937 0.667254,-0.09938 0.354919,6e-6 0.676715,0.05916 0.965388,0.177462 0.293398,0.118311 0.560773,0.302871 0.802124,0.553678 l -0.631762,0.567875 c -0.298138,-0.312327 -0.67672,-0.468493 -1.13575,-0.468498 -0.241349,5e-6 -0.430641,0.04496 -0.567875,0.134871 -0.132506,0.08518 -0.198758,0.203492 -0.198757,0.354923 -10e-7,0.06625 0.01183,0.125409 0.03549,0.17746 0.02366,0.04733 0.06388,0.09228 0.120674,0.134871 0.05679,0.03786 0.132502,0.07335 0.22715,0.106475 0.09938,0.03313 0.222416,0.06626 0.369119,0.09938 0.317061,0.06625 0.582069,0.132507 0.795025,0.198756 0.212951,0.06625 0.38568,0.132506 0.518186,0.198755 0.212949,0.108847 0.380947,0.269745 0.503989,0.482696 0.123036,0.208222 0.184556,0.442471 0.18456,0.702744 m 0.949527,1.384196 0,-4.755955 3.471137,0 0,0.851813 -2.605128,0 0,0.880206 1.419688,0 0,0.873109 -1.419688,0 0,1.299016 2.69031,0 0,0.851811 -3.556319,0 m 8.260921,0 -0.901502,0 -0.766631,-3.1872 -0.752435,3.1872 -0.901503,0 -0.866008,-4.755955 0.880206,0 0.518187,3.073626 0.702744,-3.073626 0.851813,0 0.73114,3.073626 0.489794,-3.073626 0.866008,0 -0.851813,4.755955 m 5.158569,0 -0.468496,-1.121554 -2.072744,0 -0.4614,1.121554 -0.936993,0 2.001759,-4.755955 0.866009,0 1.987564,4.755955 -0.915699,0 m -1.504869,-3.570516 -0.667253,1.604249 1.334506,0 -0.667253,-1.604249 m 5.659453,1.632642 0,1.937874 -0.851814,0 0,-1.937874 -2.001759,-2.818081 1.050568,0 1.384196,1.937875 1.37,-1.937875 1.050568,0 -2.001759,2.818081" />
  <path
     inkscape:connector-curvature="0"
     id="text1339"
     style="font-size:212.95323181px;font-style:normal;font-variant:normal;font-weight:normal;font-stretch:normal;text-align:center;line-height:100%;writing-mode:lr-tb;text-anchor:middle;fill:#000000;fill-opacity:1;stroke:none;font-family:Roadgeek 2005 Series E"
     d="m 7.2285006,35.452251 -0.6317613,-2.236009 -0.6530566,0 0,2.236009 -0.6814501,0 0,-4.755955 1.4196881,0 c 0.1845573,6e-6 0.3525535,0.03077 0.5039892,0.09228 0.1561631,0.06152 0.2886671,0.146706 0.3975127,0.255544 0.113572,0.108847 0.1987533,0.243718 0.2555437,0.404611 0.061517,0.156169 0.092277,0.328898 0.09228,0.518187 -3.1e-6,0.28394 -0.056791,0.525286 -0.1703627,0.72404 -0.1135777,0.19876 -0.2839401,0.340729 -0.5110875,0.425906 l 0.6814502,2.335387 -0.7027455,0 m 0.035492,-3.485333 C 7.2639902,31.782362 7.2072028,31.63566 7.0936302,31.526813 6.9800529,31.417976 6.8309858,31.363553 6.6464284,31.363551 l -0.7027457,0 0,1.199636 0.7027457,0 c 0.1987542,2e-6 0.3501876,-0.04969 0.4543002,-0.149067 0.1088402,-0.104109 0.1632616,-0.253176 0.163264,-0.447202 m 4.1687814,1.100257 c -4e-6,0.364389 -0.0213,0.674354 -0.06389,0.929896 -0.03786,0.255547 -0.10648,0.496893 -0.205855,0.724042 -0.11831,0.283938 -0.267377,0.492158 -0.447202,0.624662 -0.175097,0.127771 -0.397515,0.191658 -0.667253,0.191658 -0.2839394,0 -0.5158216,-0.06389 -0.6956474,-0.191658 C 9.1778349,35.213271 9.0311338,35.005051 8.9128273,34.721113 8.8134485,34.489231 8.7424642,34.247884 8.699874,33.997071 c -0.037859,-0.255542 -0.056788,-0.565507 -0.056787,-0.929896 -5e-7,-0.359651 0.018929,-0.667251 0.056787,-0.922797 0.04259,-0.260271 0.1135745,-0.503985 0.2129533,-0.731138 0.1230389,-0.283933 0.272106,-0.487422 0.4472018,-0.610467 0.1798257,-0.127766 0.4093417,-0.191653 0.6885489,-0.191657 0.274471,4e-6 0.499254,0.06389 0.674352,0.191657 0.175092,0.123045 0.321793,0.331265 0.440103,0.624663 0.04732,0.118311 0.08754,0.23662 0.120673,0.354922 0.03786,0.118311 0.06625,0.243718 0.08518,0.376218 0.02366,0.127775 0.04022,0.267377 0.04969,0.418808 0.0095,0.146703 0.01419,0.309967 0.0142,0.489791 m -0.653057,0 c -3e-6,-0.132502 -0.0047,-0.253175 -0.0142,-0.362019 -0.0047,-0.10884 -0.0142,-0.208218 -0.02839,-0.298136 -0.0095,-0.09464 -0.02366,-0.184556 -0.04259,-0.26974 -0.01893,-0.08518 -0.04023,-0.17036 -0.06389,-0.255544 -0.06152,-0.212949 -0.139605,-0.366749 -0.234249,-0.461398 -0.08991,-0.09464 -0.205856,-0.141965 -0.347823,-0.141969 -0.2934041,4e-6 -0.4945263,0.196393 -0.6033676,0.589171 -0.056789,0.179829 -0.097013,0.362022 -0.1206736,0.54658 -0.01893,0.179829 -0.028395,0.402247 -0.028394,0.667253 -1.1e-6,0.127774 0.00237,0.24608 0.0071,0.354922 0.00946,0.104112 0.018928,0.203489 0.028394,0.298134 0.014196,0.08992 0.030759,0.179829 0.049689,0.269742 0.018928,0.08991 0.040223,0.182193 0.063886,0.276838 0.1088413,0.392782 0.3099635,0.589171 0.6033676,0.589171 0.141967,0 0.257908,-0.04732 0.347823,-0.141969 0.09464,-0.09464 0.172727,-0.243713 0.234249,-0.447202 0.02839,-0.09464 0.05205,-0.184558 0.07098,-0.26974 0.01893,-0.08991 0.03312,-0.182191 0.04259,-0.27684 0.01419,-0.09464 0.02366,-0.194022 0.02839,-0.298134 0.0047,-0.108842 0.0071,-0.23188 0.0071,-0.36912 m 4.277697,1.086063 c -3e-6,0.179828 -0.03313,0.350191 -0.09938,0.511086 -0.06625,0.156167 -0.158534,0.293405 -0.276839,0.411711 -0.113578,0.113574 -0.248448,0.205854 -0.404611,0.276838 -0.151435,0.06625 -0.314699,0.09938 -0.489792,0.09938 l -1.398393,0 0,-4.755955 1.497771,0 c 0.160896,6e-6 0.307597,0.03077 0.440103,0.09228 0.132502,0.05679 0.246077,0.139609 0.340725,0.248446 0.09464,0.108847 0.167994,0.238985 0.220052,0.390414 0.05678,0.151437 0.08518,0.319433 0.08518,0.503988 -3e-6,0.108847 -0.0095,0.20586 -0.02839,0.291038 -0.0142,0.08045 -0.04023,0.1609 -0.07808,0.241347 -0.03786,0.07572 -0.08992,0.153802 -0.156166,0.234249 -0.06152,0.08045 -0.139605,0.170364 -0.234248,0.26974 0.179824,0.151435 0.321792,0.326531 0.425906,0.525284 0.104107,0.194027 0.156162,0.414078 0.156165,0.660156 M 14.30498,31.931424 c -3e-6,-0.198751 -0.04023,-0.343086 -0.120674,-0.433004 -0.08045,-0.08991 -0.212955,-0.134867 -0.397512,-0.134869 l -0.716943,0 0,1.27062 0.716943,0 c 0.160896,2e-6 0.286301,-0.06152 0.376217,-0.18456 0.09464,-0.127769 0.141966,-0.300498 0.141969,-0.518187 m 0.08518,2.172125 c -2e-6,-0.113574 -0.01657,-0.217685 -0.04969,-0.312331 -0.03313,-0.09938 -0.07808,-0.184558 -0.13487,-0.255545 -0.05679,-0.07572 -0.125408,-0.132502 -0.205855,-0.170362 -0.07572,-0.04259 -0.156168,-0.06388 -0.241347,-0.06389 l -0.688549,0 0,1.483574 0.688549,0 c 0.194022,2e-6 0.347821,-0.06152 0.461399,-0.184558 0.113572,-0.12304 0.17036,-0.288669 0.170362,-0.496891 m 1.464276,1.348702 0,-4.755955 2.236008,0 0,0.667255 -1.554558,0 0,1.199636 0.986683,0 0,0.653055 -0.986683,0 0,1.568756 1.739118,0 0,0.667253 -2.420568,0 m 5.182748,0 -0.631761,-2.236009 -0.653057,0 0,2.236009 -0.68145,0 0,-4.755955 1.419688,0 c 0.184558,6e-6 0.352554,0.03077 0.50399,0.09228 0.156163,0.06152 0.288667,0.146706 0.397512,0.255544 0.113572,0.108847 0.198754,0.243718 0.255544,0.404611 0.06152,0.156169 0.09228,0.328898 0.09228,0.518187 -3e-6,0.28394 -0.05679,0.525286 -0.170363,0.72404 -0.113578,0.19876 -0.28394,0.340729 -0.511088,0.425906 l 0.681451,2.335387 -0.702746,0 m 0.03549,-3.485333 c -2e-6,-0.184556 -0.05679,-0.331258 -0.170362,-0.440105 -0.113578,-0.108837 -0.262645,-0.16326 -0.447202,-0.163262 l -0.702746,0 0,1.199636 0.702746,0 c 0.198754,2e-6 0.350188,-0.04969 0.4543,-0.149067 0.10884,-0.104109 0.163262,-0.253176 0.163264,-0.447202 m 2.649716,-0.63886 0,4.124193 -0.688549,0 0,-4.124193 -0.86601,0 0,-0.631762 2.420568,0 0,0.631762 -0.866009,0 m 5.297986,4.124193 0,-2.669013 -0.880206,2.669013 -0.887305,-2.669013 0,2.669013 -0.681451,0 0,-4.755955 0.681451,0 0.887305,2.669015 0.880206,-2.669015 0.688549,0 0,4.755955 -0.688549,0 m 4.428651,-2.385076 c -2e-6,0.364389 -0.0213,0.674354 -0.06389,0.929896 -0.03786,0.255547 -0.106477,0.496893 -0.205853,0.724042 -0.118311,0.283938 -0.267378,0.492158 -0.447202,0.624662 -0.175098,0.127771 -0.397516,0.191658 -0.667253,0.191658 -0.28394,0 -0.515823,-0.06389 -0.695647,-0.191658 -0.175096,-0.132504 -0.321798,-0.340724 -0.440104,-0.624662 -0.09938,-0.231882 -0.170363,-0.473229 -0.212954,-0.724042 -0.03786,-0.255542 -0.05679,-0.565507 -0.05679,-0.929896 0,-0.359651 0.01893,-0.667251 0.05679,-0.922797 0.04259,-0.260271 0.113576,-0.503985 0.212954,-0.731138 0.12304,-0.283933 0.272106,-0.487422 0.447202,-0.610467 0.179826,-0.127766 0.409342,-0.191653 0.688549,-0.191657 0.274471,4e-6 0.499253,0.06389 0.674351,0.191657 0.175093,0.123045 0.321793,0.331265 0.440104,0.624663 0.04732,0.118311 0.08754,0.23662 0.120673,0.354922 0.03786,0.118311 0.06625,0.243718 0.08518,0.376218 0.02366,0.127775 0.04022,0.267377 0.04969,0.418808 0.0095,0.146703 0.0142,0.309967 0.0142,0.489791 m -0.653056,0 c -4e-6,-0.132502 -0.0047,-0.253175 -0.0142,-0.362019 -0.0047,-0.10884 -0.0142,-0.208218 -0.02839,-0.298136 -0.0095,-0.09464 -0.02366,-0.184556 -0.04259,-0.26974 -0.01893,-0.08518 -0.04023,-0.17036 -0.06389,-0.255544 -0.06152,-0.212949 -0.139605,-0.366749 -0.234249,-0.461398 -0.08992,-0.09464 -0.205856,-0.141965 -0.347822,-0.141969 -0.293405,4e-6 -0.494527,0.196393 -0.603367,0.589171 -0.05679,0.179829 -0.09701,0.362022 -0.120676,0.54658 -0.01893,0.179829 -0.02839,0.402247 -0.02839,0.667253 0,0.127774 0.0024,0.24608 0.0071,0.354922 0.0095,0.104112 0.01893,0.203489 0.02839,0.298134 0.0142,0.08992 0.03076,0.179829 0.04969,0.269742 0.01893,0.08991 0.04022,0.182193 0.06389,0.276838 0.10884,0.392782 0.309962,0.589171 0.603367,0.589171 0.141966,0 0.257906,-0.04732 0.347822,-0.141969 0.09464,-0.09464 0.172726,-0.243713 0.234249,-0.447202 0.02839,-0.09464 0.05205,-0.184558 0.07098,-0.26974 0.01893,-0.08991 0.03313,-0.182191 0.04259,-0.27684 0.0142,-0.09464 0.02366,-0.194022 0.02839,-0.298134 0.0047,-0.108842 0.0071,-0.23188 0.0071,-0.36912 m 4.029249,1.086063 c -2e-6,0.194024 -0.03549,0.376217 -0.106476,0.54658 -0.06625,0.165631 -0.1609,0.309964 -0.283937,0.433004 -0.118309,0.12304 -0.257911,0.222418 -0.418809,0.298135 -0.156167,0.07098 -0.326529,0.106476 -0.511087,0.106476 -0.208222,0 -0.395149,-0.04022 -0.560777,-0.120673 -0.165632,-0.08045 -0.305234,-0.189291 -0.418807,-0.326529 -0.113576,-0.137236 -0.201125,-0.295767 -0.262642,-0.475596 -0.06152,-0.179826 -0.09228,-0.366751 -0.09228,-0.560775 l 0.667253,0 c -2e-6,0.09938 0.01183,0.198758 0.03549,0.298133 0.02839,0.09465 0.06862,0.182196 0.120673,0.262642 0.05679,0.07572 0.125407,0.137238 0.205856,0.18456 0.08518,0.04733 0.186924,0.07099 0.305233,0.07099 0.08991,0 0.175094,-0.01893 0.255545,-0.05679 0.08518,-0.03786 0.156162,-0.08991 0.212953,-0.156167 0.06152,-0.06625 0.10884,-0.141968 0.141969,-0.227151 0.03786,-0.08991 0.05678,-0.182191 0.05679,-0.276837 -2e-6,-0.137236 -0.0284,-0.257909 -0.08518,-0.36202 -0.05679,-0.108843 -0.156166,-0.217685 -0.298133,-0.326529 -0.02366,-0.02366 -0.03313,-0.03549 -0.02839,-0.03549 0.0047,-0.0047 -0.0095,-0.01893 -0.04259,-0.04259 -0.03313,-0.02366 -0.104114,-0.06862 -0.212954,-0.134872 -0.104111,-0.07098 -0.27684,-0.189288 -0.518186,-0.354922 -0.194025,-0.132502 -0.340725,-0.2863 -0.440103,-0.461397 -0.09465,-0.179825 -0.141971,-0.376216 -0.141968,-0.589172 -3e-6,-0.17036 0.03076,-0.328891 0.09228,-0.475595 0.06152,-0.151429 0.1467,-0.283933 0.255542,-0.397513 0.113575,-0.113571 0.243713,-0.201118 0.390415,-0.262643 0.1467,-0.06625 0.305231,-0.09937 0.475596,-0.09938 0.17036,4e-6 0.326526,0.03076 0.468495,0.09228 0.1467,0.06152 0.272105,0.146704 0.376218,0.255544 0.10884,0.108847 0.194022,0.238985 0.255544,0.390413 0.06625,0.151438 0.101743,0.317067 0.106476,0.496891 l -0.653056,0 c -0.0095,-0.165626 -0.06625,-0.298131 -0.170362,-0.397513 -0.104113,-0.09937 -0.231884,-0.149062 -0.383315,-0.149066 -0.156169,4e-6 -0.288671,0.05206 -0.397514,0.156164 -0.108844,0.104116 -0.163264,0.234253 -0.163264,0.390415 0,0.118312 0.03076,0.217689 0.09228,0.298134 0.06152,0.08045 0.179827,0.170366 0.354922,0.269742 0.459031,0.265011 0.792658,0.534751 1.00088,0.809222 0.212951,0.274473 0.319427,0.58444 0.319429,0.929896 m 0.795915,1.299013 0,-4.755955 2.236009,0 0,0.667255 -1.55456,0 0,1.199636 0.986685,0 0,0.653055 -0.986685,0 0,1.568756 1.739118,0 0,0.667253 -2.420567,0 m 5.637049,-1.299013 c -2e-6,0.194024 -0.03549,0.376217 -0.106476,0.54658 -0.06625,0.165631 -0.1609,0.309964 -0.283938,0.433004 -0.118308,0.12304 -0.257913,0.222418 -0.418808,0.298135 -0.156167,0.07098 -0.326529,0.106476 -0.511087,0.106476 -0.208222,0 -0.395149,-0.04022 -0.560778,-0.120673 -0.165631,-0.08045 -0.305233,-0.189291 -0.418806,-0.326529 -0.113576,-0.137236 -0.201125,-0.295767 -0.262643,-0.475596 -0.06152,-0.179826 -0.09228,-0.366751 -0.09228,-0.560775 l 0.667254,0 c -2e-6,0.09938 0.01183,0.198758 0.03549,0.298133 0.02839,0.09465 0.06862,0.182196 0.120673,0.262642 0.05679,0.07572 0.125405,0.137238 0.205856,0.18456 0.08518,0.04733 0.186924,0.07099 0.305233,0.07099 0.08991,0 0.175093,-0.01893 0.255544,-0.05679 0.08518,-0.03786 0.156163,-0.08991 0.212954,-0.156167 0.06152,-0.06625 0.10884,-0.141968 0.141969,-0.227151 0.03786,-0.08991 0.05678,-0.182191 0.05679,-0.276837 -2e-6,-0.137236 -0.0284,-0.257909 -0.08518,-0.36202 -0.05679,-0.108843 -0.156167,-0.217685 -0.298133,-0.326529 -0.02366,-0.02366 -0.03313,-0.03549 -0.02839,-0.03549 0.0047,-0.0047 -0.0095,-0.01893 -0.04259,-0.04259 -0.03313,-0.02366 -0.104113,-0.06862 -0.212953,-0.134872 -0.104111,-0.07098 -0.27684,-0.189288 -0.518187,-0.354922 -0.194024,-0.132502 -0.340726,-0.2863 -0.440102,-0.461397 -0.09465,-0.179825 -0.141971,-0.376216 -0.141969,-0.589172 -2e-6,-0.17036 0.03076,-0.328891 0.09228,-0.475595 0.06152,-0.151429 0.1467,-0.283933 0.255543,-0.397513 0.113575,-0.113571 0.243713,-0.201118 0.390415,-0.262643 0.1467,-0.06625 0.305231,-0.09937 0.475596,-0.09938 0.17036,4e-6 0.326526,0.03076 0.468495,0.09228 0.1467,0.06152 0.272104,0.146704 0.376218,0.255544 0.10884,0.108847 0.194022,0.238985 0.255544,0.390413 0.06625,0.151438 0.101742,0.317067 0.106476,0.496891 l -0.653056,0 c -0.0095,-0.165626 -0.06625,-0.298131 -0.170362,-0.397513 -0.104113,-0.09937 -0.231884,-0.149062 -0.383315,-0.149066 -0.156169,4e-6 -0.288672,0.05206 -0.397514,0.156164 -0.108844,0.104116 -0.163264,0.234253 -0.163264,0.390415 0,0.118312 0.03076,0.217689 0.09228,0.298134 0.06152,0.08045 0.179826,0.170366 0.354922,0.269742 0.459031,0.265011 0.792658,0.534751 1.00088,0.809222 0.212951,0.274473 0.319427,0.58444 0.319429,0.929896" />
</svg>
