<?xml version="1.0" encoding="UTF-8" standalone="no"?>
<!-- Created with Inkscape (http://www.inkscape.org/) -->

<svg
   xmlns:dc="http://purl.org/dc/elements/1.1/"
   xmlns:cc="http://creativecommons.org/ns#"
   xmlns:rdf="http://www.w3.org/1999/02/22-rdf-syntax-ns#"
   xmlns:svg="http://www.w3.org/2000/svg"
   xmlns="http://www.w3.org/2000/svg"
   xmlns:sodipodi="http://sodipodi.sourceforge.net/DTD/sodipodi-0.dtd"
   xmlns:inkscape="http://www.inkscape.org/namespaces/inkscape"
   version="1.0"
   width="48"
   height="48"
   id="svg2"
   inkscape:version="0.48.1 r9760"
   sodipodi:docname="US:NV_2.svg">
  <sodipodi:namedview
     pagecolor="#ffffff"
     bordercolor="#666666"
     borderopacity="1"
     objecttolerance="10"
     gridtolerance="10"
     guidetolerance="10"
     inkscape:pageopacity="0"
     inkscape:pageshadow="2"
     inkscape:window-width="1278"
     inkscape:window-height="996"
     id="namedview18"
     showgrid="true"
     inkscape:showpageshadow="false"
     inkscape:zoom="16.895833"
     inkscape:cx="24"
     inkscape:cy="24"
     inkscape:window-x="1"
     inkscape:window-y="27"
     inkscape:window-maximized="0"
     inkscape:current-layer="svg2">
    <inkscape:grid
       type="xygrid"
       id="grid3015"
       empspacing="5"
       visible="true"
       enabled="true"
       snapvisiblegridlinesonly="true" />
  </sodipodi:namedview>
  <defs
     id="defs42" />
  <metadata
     id="metadata4">
    <rdf:RDF>
      <cc:Work
         rdf:about="">
        <dc:format>image/svg+xml</dc:format>
        <dc:type
           rdf:resource="http://purl.org/dc/dcmitype/StillImage" />
        <cc:license
           rdf:resource="" />
        <dc:title></dc:title>
      </cc:Work>
    </rdf:RDF>
  </metadata>
  <g
     id="g3055">
    <g
       id="g3051">
      <path
         sodipodi:type="inkscape:offset"
         inkscape:radius="1.0653514"
         inkscape:original="M 4 2 L 4 20.375 L 13.53125 26.75 L 4 26.71875 L 4 35.90625 L 28.09375 35.90625 L 42.84375 45.6875 C 43.402437 46.060619 43.526555 46.109299 43.65625 45.8125 C 43.805899 45.4733 43.591256 45.011939 43.0625 44.5625 C 42.004985 43.680582 41.84375 43.511938 41.84375 43.0625 C 41.84375 42.75722 41.804577 42.59281 41.625 42.40625 C 41.465375 42.245131 41.373679 42.024029 41.34375 41.71875 C 41.29387 41.311711 41.232832 41.217339 40.84375 40.9375 C 40.444688 40.640701 40.440141 40.595009 40.5 40.28125 C 40.53991 40.06077 40.642899 39.89149 40.8125 39.78125 C 40.962148 39.68797 41.237969 39.45933 41.4375 39.28125 C 41.72682 39.026851 41.874266 38.97456 42.09375 39 C 42.333188 39.02544 42.390258 39.067051 42.5 39.40625 C 42.629695 39.787849 42.949383 40.09375 43.21875 40.09375 C 43.428258 40.09375 43.65625 39.831189 43.65625 39.59375 C 43.65625 39.46655 43.722715 39.266489 43.8125 39.15625 C 43.922242 39.02057 44 38.718128 44 38.03125 L 43.875 2 L 4 2 z "
         style="fill:#000000"
         id="path3049"
         d="M 3.90625,0.9375 A 1.0654579,1.0654579 0 0 0 2.9375,2 l 0,18.375 a 1.0654579,1.0654579 0 0 0 0.46875,0.875 l 6.625,4.4375 L 4,25.65625 a 1.0654579,1.0654579 0 0 0 -1.0625,1.0625 l 0,9.1875 A 1.0654579,1.0654579 0 0 0 4,36.96875 l 23.78125,0 L 42.25,46.5625 c 0.29185,0.194912 0.426134,0.399381 0.96875,0.5 0.271308,0.05031 0.732724,-0.03299 1,-0.25 0.267276,-0.217009 0.344582,-0.421378 0.40625,-0.5625 0.222752,-0.504897 0.129318,-1.062674 -0.0625,-1.46875 C 44.370682,44.375174 44.09724,44.045152 43.75,43.75 c -0.523558,-0.436623 -0.815238,-0.708987 -0.875,-0.78125 -0.02147,-0.398425 -0.148672,-0.979976 -0.46875,-1.3125 0.0024,0.0027 0.0071,0.0411 0,-0.03125 a 1.0654579,1.0654579 0 0 0 0,-0.03125 c -0.03011,-0.245728 -0.0806,-0.56185 -0.28125,-0.875 -0.01911,-0.02982 -0.04286,-0.03529 -0.0625,-0.0625 -0.0884,-0.122459 -0.186304,-0.197587 -0.28125,-0.28125 0.0219,-0.01804 0.04122,-0.04444 0.0625,-0.0625 0.08011,0.111141 0.118382,0.247735 0.21875,0.34375 0.26276,0.251365 0.618285,0.5 1.15625,0.5 0.549796,0 0.865695,-0.26993 1.09375,-0.53125 0.173126,-0.198379 0.253927,-0.480203 0.3125,-0.78125 0.01172,-0.06021 0.05792,-0.09017 0.0625,-0.15625 0.352684,-0.500848 0.375,-0.94307 0.375,-1.65625 L 44.9375,2 A 1.0654579,1.0654579 0 0 0 43.875,0.9375 L 4,0.9375 a 1.0654579,1.0654579 0 0 0 -0.09375,0 z"
         transform="matrix(0.99703262,0,0,0.9969606,0.07121765,0.06637793)" />
      <path
         inkscape:connector-curvature="0"
         style="fill:#ffffff"
         id="path12"
         d="m 43.650819,45.797388 c 0.149649,-0.3392 -0.05986,-0.771678 -0.588616,-1.221117 -1.057515,-0.881918 -1.207164,-1.076958 -1.207164,-1.526396 0,-0.30528 -0.05986,-0.466399 -0.239437,-0.652959 -0.159625,-0.161119 -0.249414,-0.381599 -0.279343,-0.686878 -0.04988,-0.407039 -0.09977,-0.491839 -0.488852,-0.771678 -0.399062,-0.296799 -0.419015,-0.330719 -0.359156,-0.644478 0.03991,-0.22048 0.149649,-0.398559 0.31925,-0.508799 0.149648,-0.09328 0.438969,-0.313759 0.6385,-0.491839 0.28932,-0.254399 0.438968,-0.322239 0.658452,-0.296799 0.239438,0.02544 0.299297,0.0848 0.409039,0.423999 0.129695,0.381599 0.428992,0.661438 0.698359,0.661438 0.209508,0 0.438968,-0.254399 0.438968,-0.491838 0,-0.1272 0.06984,-0.31376 0.159625,-0.423999 0.109742,-0.13568 0.189555,-0.457919 0.189555,-1.144797 L 43.890257,1.9999972 H 3.9999991 V 20.365934 l 9.5335959,6.383727 -9.5335959,-0.02629 v 9.182968 H 28.09737 l 14.735372,9.789287 c 0.558687,0.373119 0.688382,0.398559 0.818077,0.10176 z" />
    </g>
    <g
       style="fill:#000000"
       id="g14"
       transform="matrix(0.09976555,0,0,0.08479978,-82.293211,-48.050529)">
      <path
         inkscape:connector-curvature="0"
         style="fill:#000000"
         id="path16"
         d="M 929.43,973.6 902.28,927.84 V 973.6 H 889.8 v -74.88 h 12.48 l 24.96,41.6 v -41.6 h 12.48 v 74.88 h -10.29 z" />
      <path
         inkscape:connector-curvature="0"
         style="fill:#000000"
         id="path18"
         d="m 953.84,973.6 v -74.88 h 44.12 v 12.48 h -29.12 v 16.64 h 20.8 v 12.48 h -20.8 v 20.8 l 33.26,0.41 v 12.07 h -48.26 z" />
      <path
         inkscape:connector-curvature="0"
         style="fill:#000000"
         id="path20"
         d="m 1041.6,973.6 h -8.7 l -22.5,-74.88 h 11.8 l 15.2,49.96 14.9,-49.96 h 12 l -22.7,74.88 z" />
      <path
         inkscape:connector-curvature="0"
         style="fill:#000000"
         id="path22"
         d="m 1110.8,973.6 -7,-21.01 h -22.2 l -7,21.01 h -12 l 24.5,-74.88 h 11.2 l 24.5,74.88 h -12 z m -18,-54.09 -7.3,21.01 h 14.2 l -6.9,-21.01 z" />
      <path
         inkscape:connector-curvature="0"
         style="fill:#000000"
         id="path24"
         d="m 1181,936.05 c 0,7.52 -1.1,14.14 -3.2,19.84 -2.2,5.7 -5.3,10.18 -9.3,13.46 -1.4,1.34 -2.9,2.35 -4.7,3.02 -1.8,0.67 -3.7,1.08 -5.5,1.23 h -25.7 v -74.88 h 22.9 c 1.8,0 3.4,0.06 4.7,0.17 1.3,0.11 2.5,0.32 3.5,0.61 1.1,0.3 2,0.71 2.9,1.23 0.8,0.53 1.7,1.16 2.7,1.9 3.8,3.43 6.7,7.99 8.7,13.69 2,5.7 3,12.28 3,19.73 z m -11.5,0 c 0,-5.07 -0.5,-9.58 -1.5,-13.52 -1,-3.95 -2.4,-6.9 -4.2,-8.83 -0.9,-0.9 -2,-1.64 -3.2,-2.24 -1.2,-0.59 -2.5,-0.89 -4,-0.89 h -12.7 v 50.96 h 11.2 c 1.9,0 3.4,-0.22 4.6,-0.67 1.3,-0.45 2.4,-1.19 3.4,-2.24 2.1,-2.23 3.7,-5.31 4.8,-9.22 1.1,-3.91 1.6,-8.36 1.6,-13.35 z" />
      <path
         inkscape:connector-curvature="0"
         style="fill:#000000"
         id="path26"
         d="m 1235.6,973.6 -7,-21.01 h -22.2 l -7,21.01 h -12 l 24.5,-74.88 h 11.2 l 24.5,74.88 h -12 z m -18,-54.09 -7.3,21.01 h 14.2 l -6.9,-21.01 z" />
    </g>
  </g>
  <text
     x="24"
     y="22"
     id="text28"
     xml:space="preserve"
     style="font-size:28px;font-style:normal;font-variant:normal;font-weight:normal;font-stretch:normal;text-align:center;line-height:125%;letter-spacing:0px;word-spacing:0px;writing-mode:lr;text-anchor:middle;fill:#000000;font-family:Roadgeek 2005 Series B;-inkscape-font-specification:Roadgeek 2005 Series B"
     sodipodi:linespacing="125%"><tspan
       sodipodi:role="line"
       id="tspan3096">%num%</tspan></text>
</svg>
