<?xml version="1.0" encoding="UTF-8" standalone="no"?>
<!-- Created with Inkscape (http://www.inkscape.org/) -->

<svg
   xmlns:dc="http://purl.org/dc/elements/1.1/"
   xmlns:cc="http://creativecommons.org/ns#"
   xmlns:rdf="http://www.w3.org/1999/02/22-rdf-syntax-ns#"
   xmlns:svg="http://www.w3.org/2000/svg"
   xmlns="http://www.w3.org/2000/svg"
   xmlns:sodipodi="http://sodipodi.sourceforge.net/DTD/sodipodi-0.dtd"
   xmlns:inkscape="http://www.inkscape.org/namespaces/inkscape"
   version="1.0"
   width="48"
   height="48"
   id="svg2284"
   inkscape:version="0.48.1 r9760"
   sodipodi:docname="US:NJ-ACBC.svg">
  <metadata
     id="metadata43">
    <rdf:RDF>
      <cc:Work
         rdf:about="">
        <dc:format>image/svg+xml</dc:format>
        <dc:type
           rdf:resource="http://purl.org/dc/dcmitype/StillImage" />
      </cc:Work>
    </rdf:RDF>
  </metadata>
  <sodipodi:namedview
     pagecolor="#ffffff"
     bordercolor="#666666"
     borderopacity="1"
     objecttolerance="10"
     gridtolerance="10"
     guidetolerance="10"
     inkscape:pageopacity="0"
     inkscape:pageshadow="2"
     inkscape:window-width="1278"
     inkscape:window-height="996"
     id="namedview41"
     showgrid="true"
     inkscape:showpageshadow="false"
     inkscape:zoom="16.895833"
     inkscape:cx="24"
     inkscape:cy="24"
     inkscape:window-x="1"
     inkscape:window-y="27"
     inkscape:window-maximized="0"
     inkscape:current-layer="svg2284">
    <inkscape:grid
       type="xygrid"
       id="grid3146"
       empspacing="5"
       visible="true"
       enabled="true"
       snapvisiblegridlinesonly="true" />
  </sodipodi:namedview>
  <defs
     id="defs2287" />
  <path
     d="m 46.884994,23.999695 a 22.885,22.873917 0 1 1 -45.7699943,0 22.885,22.873917 0 1 1 45.7699943,0 z"
     id="path3194"
     style="fill:#ffffff;fill-opacity:1;stroke:#0000fe;stroke-width:0.22994426;stroke-linecap:square;stroke-linejoin:round;stroke-miterlimit:4;stroke-opacity:1;stroke-dasharray:none;stroke-dashoffset:0"
     inkscape:connector-curvature="0" />
  <path
     d="M 2.3971643,26.417925 C 3.5078967,36.492646 11.515225,44.490381 21.594977,45.599239 l 4.829998,0 C 37.280555,44.390632 45.744804,35.176737 45.744804,24.005682 45.744804,12.834696 37.294592,3.62644 26.439176,2.41767 M 21.582553,2.417464 C 11.512318,3.523147 3.518651,11.492261 2.3971643,21.554318"
     id="path5096"
     style="fill:#ffffff;fill-opacity:1;stroke:#0000fe;stroke-width:0.22978413;stroke-linecap:butt;stroke-linejoin:round;stroke-miterlimit:4;stroke-opacity:1;stroke-dasharray:none"
     inkscape:connector-curvature="0" />
  <g
     transform="matrix(0.09199999,0,0,0.09195545,0.99999899,28.597468)"
     id="layer1"
     style="display:inline">
    <path
       d="m 36.749076,-134.71782 -3.046875,7.89063 50.859374,35.781239 3.125,-8.124999 -13.90625,-9.6875 4.6875,-12.03124 16.874999,1.95311 3.125,-8.04686 -61.718748,-7.73438 z m 15.234374,10.54688 17.8125,2.1875 -3.125,8.04686 -14.6875,-10.23436 z"
       id="path2370"
       style="font-size:12px;font-style:normal;font-weight:normal;fill:#0000fe;fill-opacity:1;stroke:none;font-family:Roadgeek 2005 Series C"
       inkscape:connector-curvature="0" />
    <path
       d="m 68.586873,-175.91689 43.163367,29.51452 -4.92685,7.20524 -43.16334,-29.51454 -6.198097,9.06434 -6.613477,-4.5222 17.322999,-25.33393 6.613502,4.5222 -6.198104,9.06437 z"
       id="path2366"
       style="font-size:12px;font-style:normal;font-weight:normal;fill:#0000fe;fill-opacity:1;stroke:none;font-family:Roadgeek 2005 Series C"
       inkscape:connector-curvature="0" />
    <path
       d="m 123.6097,-161.63189 -41.126203,-44.10065 6.31931,-5.89311 35.663963,38.24335 16.12572,-15.03811 5.46226,5.85733 -22.44505,20.93119 z"
       id="path2364"
       style="font-size:12px;font-style:normal;font-weight:normal;fill:#0000fe;fill-opacity:1;stroke:none;font-family:Roadgeek 2005 Series C"
       inkscape:connector-curvature="0" />
    <path
       d="m 141.60845,-252.10839 -7.34375,4.14062 16.17187,59.99999 7.65625,-4.29687 -4.60937,-16.32813 11.32812,-6.24999 11.71875,12.26562 7.57813,-4.14063 -42.5,-45.39061 z m 4.92187,17.89062 12.34375,12.96875 -7.57812,4.21875 -4.76563,-17.1875 z"
       id="path2362"
       style="font-size:12px;font-style:normal;font-weight:normal;fill:#0000fe;fill-opacity:1;stroke:none;font-family:Roadgeek 2005 Series C"
       inkscape:connector-curvature="0" />
    <path
       d="m 220.84942,-215.72562 -27.16753,-35.24217 9.00601,39.39414 -8.42344,1.92568 -13.4389,-58.7846 8.42344,-1.92571 24.206,31.58035 -8.06334,-35.27076 8.42343,-1.92571 13.43891,58.7846 -6.40458,1.46418 z"
       id="path2358"
       style="font-size:12px;font-style:normal;font-weight:normal;fill:#0000fe;fill-opacity:1;stroke:none;font-family:Roadgeek 2005 Series C"
       inkscape:connector-curvature="0" />
    <path
       d="m 253.81785,-270.05325 -0.11508,52.2893 -8.72861,-0.0192 0.11509,-52.28929 -10.9808,-0.0242 0.0176,-8.01177 30.69023,0.0675 -0.0177,8.01176 -10.9808,-0.0242 z"
       id="path2356"
       style="font-size:12px;font-style:normal;font-weight:normal;fill:#0000fe;fill-opacity:1;stroke:none;font-family:Roadgeek 2005 Series C"
       inkscape:connector-curvature="0" />
    <path
       d="m 274.10845,-215.03341 6.59377,-59.93961 8.40875,0.92502 -6.5938,59.93961 -8.40872,-0.92502 z"
       id="path2354"
       style="font-size:12px;font-style:normal;font-weight:normal;fill:#0000fe;fill-opacity:1;stroke:none;font-family:Roadgeek 2005 Series C"
       inkscape:connector-curvature="0" />
    <path
       d="m 329.20047,-245.5394 c 1.35425,-5.7321 0.22425,-9.33096 -3.39,-10.79665 -1.61205,-0.65363 -3.12925,-0.86384 -4.5516,-0.63056 -1.42243,0.23335 -2.79105,0.97353 -4.10583,2.22057 -1.31487,1.24712 -2.6323,3.05973 -3.9523,5.43785 -1.32007,2.37817 -2.71287,5.37439 -4.1785,8.98864 -3.26917,8.06172 -4.87757,14.14279 -4.82527,18.24319 0.0523,4.10039 1.80242,6.8497 5.25042,8.24791 1.1674,0.4734 2.2167,0.64005 3.14785,0.49997 0.93113,-0.14009 1.7852,-0.48976 2.56228,-1.04897 0.77705,-0.55923 1.44602,-1.29168 2.00697,-2.1974 0.56088,-0.90568 1.0553,-1.88628 1.48335,-2.94171 l 8.0074,3.24712 c -1.00285,2.31215 -2.2603,4.2948 -3.77235,5.94794 -1.51212,1.65316 -3.16695,2.9407 -4.96437,3.86266 -1.7975,0.92192 -3.70198,1.42802 -5.71348,1.5183 -2.0115,0.0902 -3.99037,-0.25926 -5.93665,-1.0485 -6.00515,-2.43517 -9.39177,-6.65722 -10.15995,-12.66615 -0.76815,-6.00893 0.9447,-14.18455 5.13865,-24.52684 3.6978,-9.11882 7.88385,-15.4498 12.55813,-18.99297 4.67422,-3.54308 9.7908,-4.18753 15.3497,-1.93339 2.28052,0.92484 4.16862,2.25709 5.66432,3.99672 1.49565,1.73971 2.51125,3.78612 3.0469,6.13918 0.49115,1.81944 0.6939,3.55351 0.60828,5.20216 -0.0858,1.64873 -0.50793,3.8081 -1.26655,6.47804 l -8.0074,-3.24711 z"
       id="path2352"
       style="font-size:12px;font-style:normal;font-weight:normal;fill:#0000fe;fill-opacity:1;stroke:none;font-family:Roadgeek 2005 Series C"
       inkscape:connector-curvature="0" />
    <path
       d="m 390.93632,-206.41677 c 3.24887,-4.9128 3.43005,-8.68057 0.54347,-11.30329 -1.2875,-1.16973 -2.639,-1.8905 -4.0545,-2.16234 -1.4156,-0.27176 -2.95555,-0.0493 -4.6199,0.66756 -1.66442,0.71685 -3.52635,1.96359 -5.58582,3.74018 -2.05955,1.77668 -4.40065,4.1083 -7.02333,6.9949 -5.85,6.43866 -9.45785,11.5913 -10.82355,15.45794 -1.36575,3.86662 -0.6717,7.05094 2.08215,9.55298 0.93235,0.84714 1.8597,1.36561 2.782,1.5554 0.92228,0.18978 1.84458,0.15628 2.76688,-0.10046 0.92225,-0.25677 1.80287,-0.71344 2.64187,-1.36997 0.83895,-0.65657 1.64138,-1.40631 2.40728,-2.24924 l 6.3953,5.81056 c -1.73905,1.82415 -3.60338,3.25116 -5.59298,4.28108 -1.9897,1.02989 -3.9871,1.66738 -5.99227,1.91255 -2.00523,0.24509 -3.96738,0.063 -5.88645,-0.54632 -1.91913,-0.60935 -3.6559,-1.62016 -5.21033,-3.03246 -4.79612,-4.35766 -6.51802,-9.48895 -5.16567,-15.39391 1.3523,-5.90497 5.7809,-12.98748 13.28577,-21.24756 6.61705,-7.28292 12.73045,-11.78076 18.34023,-13.49354 5.60967,-1.71269 10.63437,-0.55216 15.07415,3.48159 1.82135,1.65491 3.13382,3.55679 3.93745,5.70569 0.8035,2.14891 1.05067,4.42007 0.74152,6.81345 -0.1668,1.87717 -0.57482,3.57469 -1.22405,5.09256 -0.64935,1.5179 -1.79065,3.39897 -3.42392,5.64321 l -6.3953,-5.81056 z"
       id="path2350"
       style="font-size:12px;font-style:normal;font-weight:normal;fill:#0000fe;fill-opacity:1;stroke:none;font-family:Roadgeek 2005 Series C"
       inkscape:connector-curvature="0" />
    <path
       d="m 376.53722,-160.34989 48.55477,-35.75851 5.01645,6.81159 -48.55475,35.75852 -5.01647,-6.8116 z"
       id="path2348"
       style="font-size:12px;font-style:normal;font-weight:normal;fill:#0000fe;fill-opacity:1;stroke:none;font-family:Roadgeek 2005 Series C"
       inkscape:connector-curvature="0" />
    <path
       d="m 443.38837,-151.23218 -43.73358,28.66285 -4.78467,-7.30042 43.73357,-28.66284 -6.01922,-9.18408 6.70087,-4.39173 16.8231,25.66863 -6.70087,4.39171 -6.0192,-9.18412 z"
       id="path2346"
       style="font-size:12px;font-style:normal;font-weight:normal;fill:#0000fe;fill-opacity:1;stroke:none;font-family:Roadgeek 2005 Series C"
       inkscape:connector-curvature="0" />
    <path
       d="m 439.96527,-101.13498 -25.7336,9.026566 -2.86005,-8.153676 25.73357,-9.02659 26.25298,-24.94661 3.00915,8.57873 -17.18713,16.80395 23.86,2.21958 3.06825,8.74719 -36.14317,-3.24914 z"
       id="text2179"
       style="font-size:12px;font-style:normal;font-weight:normal;fill:#0000fe;fill-opacity:1;stroke:none;font-family:Roadgeek 2005 Series C"
       inkscape:connector-curvature="0" />
    <path
       d="M 29.625226,17.832334 85.793157,-4.1084126 96.108449,22.298658 88.226287,25.377608 81.054922,7.0191359 66.889518,12.552484 l 4.552042,11.653174 -7.71334,3.01305 -4.552042,-11.653199 -18.527367,7.237349 8.0228,20.538173 -7.879638,3.078025 -11.166747,-28.586722 z"
       id="path2337"
       style="font-size:12px;font-style:normal;font-weight:normal;fill:#0000fe;fill-opacity:1;stroke:none;font-family:Roadgeek 2005 Series C"
       inkscape:connector-curvature="0" />
    <path
       d="m 68.189755,89.0167 11.726997,-18.844048 -21.600097,5.10465 -5.305195,-7.38275 33.101285,-7.606124 16.393535,-26.851246 5.30358,7.380499 -10.353008,16.750773 19.229188,-4.398625 5.3052,7.382699 -30.573313,7.118699 -17.76592,28.946822 -5.462252,-7.601349 z"
       id="path2335"
       style="font-size:12px;font-style:normal;font-weight:normal;fill:#0000fe;fill-opacity:1;stroke:none;font-family:Roadgeek 2005 Series C"
       inkscape:connector-curvature="0" />
    <path
       d="m 132.09394,70.891577 -39.48549,45.614643 6.530659,5.66895 17.325241,-20.06325 7.02764,6.16015 c 3.85489,3.3383 7.7621,4.79355 11.71148,4.40343 3.94926,-0.39008 7.73676,-2.6389 11.34961,-6.81083 1.64932,-1.90465 2.88733,-3.94652 3.69543,-6.025047 0.80799,-2.0785 1.20392,-4.098924 1.1007,-6.133423 -0.10336,-2.03445 -0.67173,-3.98145 -1.6154,-5.87055 -0.94381,-1.88905 -2.28838,-3.657274 -4.05729,-5.189249 L 132.09394,70.891577 z m 0.98453,12.075349 6.72917,5.816024 c 1.76892,1.531925 2.6575,3.371425 2.72495,5.493475 0.0673,2.122099 -0.7366,4.137473 -2.38592,6.042095 -1.80644,2.08598 -3.65887,3.24153 -5.66195,3.49183 -2.0032,0.25035 -3.98757,-0.44098 -5.89215,-2.09033 l -6.72917,-5.816021 11.21507,-12.937073 z"
       id="path2333"
       style="font-size:12px;font-style:normal;font-weight:normal;fill:#0000fe;fill-opacity:1;stroke:none;font-family:Roadgeek 2005 Series C"
       inkscape:connector-curvature="0" />
    <path
       d="m 167.37272,97.891573 -25.36714,54.734297 7.90873,3.63269 11.83828,-25.75621 7.52775,3.54647 -4.58082,29.08127 8.04388,3.74342 4.58652,-30.52184 c 3.06694,0.2294 5.81266,-0.47017 8.17737,-2.1539 2.36463,-1.68372 4.27314,-4.23422 5.78347,-7.50195 1.00704,-2.17905 1.60847,-4.26897 1.77098,-6.40775 0.1624,-2.13872 -0.0975,-4.18332 -0.79812,-6.0281 -0.70067,-1.84472 -1.81651,-3.53715 -3.25936,-5.06335 -1.44298,-1.52617 -3.19105,-2.78472 -5.31519,-3.7665 l -16.31635,-7.538547 z m 4.25158,11.295597 8.12008,3.76065 c 2.12414,0.98178 3.51711,2.38873 4.24557,4.24528 0.72838,1.8566 0.58514,3.87382 -0.39658,5.99795 -1.03173,2.23227 -2.40212,3.65842 -4.16908,4.26282 -1.76705,0.60445 -3.81158,0.39743 -6.09861,-0.65967 l -8.04388,-3.7434 6.3425,-13.86363 z"
       id="path2329"
       style="font-size:12px;font-style:normal;font-weight:normal;fill:#0000fe;fill-opacity:1;stroke:none;font-family:Roadgeek 2005 Series C"
       inkscape:connector-curvature="0" />
    <path
       d="m 201.40033,174.28058 8.88475,-59.64306 28.04084,4.17713 -1.24683,8.36985 -19.49438,-2.904 -2.24072,15.04187 12.37414,1.84333 -1.22012,8.19052 -12.37412,-1.8433 -2.93072,19.67369 21.80891,3.24872 -1.24639,8.36715 -30.35536,-4.5219 z"
       id="path2325"
       style="font-size:12px;font-style:normal;font-weight:normal;fill:#0000fe;fill-opacity:1;stroke:none;font-family:Roadgeek 2005 Series C"
       inkscape:connector-curvature="0" />
    <path
       d="m 288.8155,160.04174 c 0.36677,2.43347 0.27887,4.76787 -0.26373,7.00322 -0.54265,2.23537 -1.45407,4.2384 -2.73427,6.00905 -1.28025,1.77065 -2.84505,3.26572 -4.69443,4.48517 -1.8494,1.21945 -3.93107,2.00358 -6.245,2.35238 -2.6109,0.39357 -5.03027,0.24255 -7.25812,-0.45305 -2.2279,-0.6956 -4.18348,-1.7961 -5.8668,-3.30153 -1.68333,-1.5054 -3.0806,-3.32752 -4.19183,-5.46637 -1.11125,-2.13883 -1.85015,-4.42405 -2.21667,-6.8557 l 8.36497,-1.26092 c 0.18775,1.24572 0.53623,2.45189 1.04543,3.61857 0.50915,1.16672 1.17887,2.18837 2.00912,3.065 0.83025,0.87667 1.80925,1.5332 2.93703,1.96965 1.12775,0.43645 2.43305,0.54292 3.91595,0.31937 1.128,-0.17002 2.17542,-0.57047 3.14232,-1.2014 0.96685,-0.63087 1.75838,-1.41775 2.37455,-2.36057 0.61615,-0.94283 1.0638,-1.99635 1.34293,-3.1606 0.27907,-1.1642 0.32912,-2.3402 0.1501,-3.52797 -0.2593,-1.72005 -0.8453,-3.19365 -1.75798,-4.42083 -0.91275,-1.22712 -2.3619,-2.38915 -4.34747,-3.48609 -0.34173,-0.25215 -0.48495,-0.39767 -0.42968,-0.43657 0.0552,-0.0388 -0.14722,-0.175 -0.60737,-0.40843 -0.46018,-0.23337 -1.4228,-0.6799 -2.88788,-1.33957 -1.4651,-0.65963 -3.8668,-1.7989 -7.20507,-3.41783 -2.68218,-1.29555 -4.79935,-2.96425 -6.35148,-5.00612 -1.55215,-2.04178 -2.52937,-4.3971 -2.93167,-7.06598 -0.32205,-2.13645 -0.23825,-4.1971 0.2514,-6.18195 0.48967,-1.98475 1.32425,-3.79425 2.50375,-5.4285 1.1795,-1.63412 2.62865,-2.99047 4.34747,-4.069 1.71878,-1.07842 3.64553,-1.77855 5.78025,-2.1004 2.13648,-0.322 4.16773,-0.23375 6.0937,0.2647 1.92593,0.4986 3.659,1.32988 5.19923,2.49388 1.54017,1.1641 2.85395,2.63495 3.94132,4.41252 1.08733,1.7777 1.83078,3.78913 2.23035,6.03425 l -8.18845,1.23433 c -0.43075,-2.05898 -1.39272,-3.61295 -2.88592,-4.6619 -1.49323,-1.04888 -3.1895,-1.43018 -5.0888,-1.14393 -1.95728,0.29508 -3.51965,1.19815 -4.68715,2.70918 -1.1675,1.51115 -1.60375,3.24532 -1.3087,5.20252 0.2235,1.48293 0.79695,2.6705 1.72027,3.56268 0.92333,0.8923 2.5761,1.79585 4.95835,2.71072 6.2567,2.45488 10.96433,5.20383 14.1229,8.24693 3.1585,3.04315 5.0642,6.73016 5.71708,11.06109 l 0,0 z"
       id="path2323"
       style="font-size:12px;font-style:normal;font-weight:normal;fill:#0000fe;fill-opacity:1;stroke:none;font-family:Roadgeek 2005 Series C"
       inkscape:connector-curvature="0" />
    <path
       d="m 341.94394,141.23095 c 1.1525,2.17437 1.8432,4.406 2.0721,6.69485 0.22883,2.2889 0.0327,4.48077 -0.58835,6.57559 -0.6211,2.09487 -1.60197,4.02405 -2.94272,5.78747 -1.34075,1.76345 -3.04493,3.19313 -5.1125,4.28907 -2.33295,1.23658 -4.66563,1.89588 -6.99813,1.97793 -2.3325,0.0821 -4.5423,-0.30818 -6.62937,-1.17068 -2.0871,-0.86245 -4.00928,-2.11854 -5.76653,-3.76824 -1.75727,-1.6497 -3.21175,-3.56093 -4.36342,-5.73368 l 7.4744,-3.96186 c 0.58997,1.1131 1.3185,2.13564 2.18555,3.06764 0.86705,0.93202 1.8375,1.67402 2.91132,2.22595 1.07388,0.55197 2.21513,0.84697 3.4238,0.885 1.20868,0.038 2.47553,-0.2941 3.80053,-0.99645 1.0079,-0.53423 1.86342,-1.25918 2.5666,-2.17488 0.70312,-0.91565 1.18915,-1.92036 1.45805,-3.01411 0.26887,-1.09373 0.34205,-2.23608 0.2196,-3.42703 -0.1225,-1.19092 -0.46505,-2.31702 -1.02758,-3.37835 -0.81467,-1.53692 -1.85592,-2.73302 -3.12372,-3.5884 -1.26783,-0.8553 -3.02018,-1.4714 -5.2571,-1.8483 -0.40595,-0.12465 -0.58933,-0.2145 -0.55008,-0.26952 0.0392,-0.055 -0.1969,-0.11633 -0.70837,-0.18408 -0.51153,-0.0677 -1.56773,-0.16992 -3.16863,-0.3068 -1.60092,-0.13682 -4.24445,-0.41577 -7.9306,-0.8369 -2.95995,-0.33347 -5.5105,-1.20622 -7.65162,-2.61832 -2.14108,-1.41198 -3.84365,-3.31035 -5.10768,-5.6951 -1.01187,-1.90898 -1.61572,-3.88095 -1.81152,-5.91593 -0.19578,-2.03487 -0.008,-4.01867 0.56322,-5.95147 0.5713,-1.93265 1.48905,-3.6926 2.7533,-5.27983 1.26425,-1.58707 2.8501,-2.8862 4.75753,-3.8973 1.90902,-1.01182 3.85472,-1.60175 5.83705,-1.76972 1.98232,-0.16785 3.89297,0.0421 5.73192,0.62987 1.8389,0.5879 3.56588,1.54025 5.1809,2.857 1.61503,1.3169 2.98305,2.96825 4.1041,4.9541 l -7.31665,3.87825 c -1.08877,-1.79985 -2.51137,-2.94717 -4.26782,-3.44202 -1.75645,-0.49473 -3.4832,-0.29233 -5.18033,0.60717 -1.74885,0.92705 -2.92367,2.29685 -3.52442,4.10943 -0.60075,1.81267 -0.4376,3.5934 0.48937,5.34225 0.70233,1.32505 1.63693,2.25542 2.80378,2.79122 1.16685,0.53585 3.02567,0.84063 5.57647,0.9143 6.71668,0.24263 12.06928,1.27613 16.05785,3.1005 3.98855,1.8244 7.00845,4.67155 9.0597,8.54138 l 0,0 z"
       id="path2321"
       style="font-size:12px;font-style:normal;font-weight:normal;fill:#0000fe;fill-opacity:1;stroke:none;font-family:Roadgeek 2005 Series C"
       inkscape:connector-curvature="0" />
    <path
       d="m 400.76327,122.35277 -5.83958,4.51273 -23.81925,-21.40325 14.7763,28.39157 -6.05252,4.67735 -44.42283,-41.879471 6.69365,-5.172799 23.70783,22.28775 -15.01915,-29.002299 5.41142,-4.181875 24.136,21.956874 -15.4473,-28.671448 6.69365,-5.172775 29.18178,53.657643 z"
       id="path2319"
       style="font-size:12px;font-style:normal;font-weight:normal;fill:#0000fe;fill-opacity:1;stroke:none;font-family:Roadgeek 2005 Series C"
       inkscape:connector-curvature="0" />
    <path
       d="m 387.65304,47.195006 -4.99845,6.833823 39.6667,47.862741 5.19455,-7.036021 -10.95497,-12.980348 7.6556,-10.444724 15.83365,6.332224 5.05832,-6.926699 -57.4554,-23.640996 z m 11.8627,14.222997 16.63638,6.718399 -5.1182,7.019525 -11.51818,-13.737924 z"
       id="path2317"
       style="font-size:12px;font-style:normal;font-weight:normal;fill:#0000fe;fill-opacity:1;stroke:none;font-family:Roadgeek 2005 Series C"
       inkscape:connector-curvature="0" />
    <path
       d="m 438.78982,21.078734 25.21897,10.377873 -3.2882,7.990575 -25.21897,-10.377824 -36.19668,1.1638 3.45963,-8.407175 24.011,-1.114349 -16.3392,-17.5287726 3.5276,-8.5722738 24.82585,26.4681464 z"
       id="text2192"
       style="font-size:12px;font-style:normal;font-weight:normal;fill:#0000fe;fill-opacity:1;stroke:none;font-family:Roadgeek 2005 Series C"
       inkscape:connector-curvature="0" />
  </g>
  <path
     d="M 21.587789,9.830019 C 15.595176,10.84933 10.86316,15.578372 9.8434139,21.568686 l 0.5821881,0 c -0.139624,0.786635 -0.215624,1.594546 -0.215624,2.421039 0,0.82647 0.07601,1.634381 0.215624,2.420993 l -0.5821881,0 c 0.2920101,1.715363 0.8889431,3.326349 1.7321891,4.777397 l 5.117499,-18.046277 -3.759063,19.985959 c 2.148195,2.597118 5.188314,4.432147 8.65375,5.021609 l 0,-0.581887 c 0.786994,0.139537 1.595301,0.215523 2.422188,0.215523 0.826886,0 1.635192,-0.07622 2.422185,-0.215523 l 0,0.581887 c 5.992613,-1.019333 10.724629,-5.748331 11.744375,-11.738688 l -0.582187,0 c 0.139648,-0.786612 0.21562,-1.594523 0.21562,-2.420993 0,-0.826493 -0.07599,-1.634404 -0.21562,-2.421039 l 0.582187,0 C 37.156791,15.578372 32.424775,10.84933 26.432162,9.830019 l 0,0.581888 c -0.786993,-0.139538 -1.595299,-0.215523 -2.422185,-0.215523 -0.826887,0 -1.635194,0.07599 -2.422188,0.215523 l 0,-0.581888 z"
     id="path2198"
     style="fill:#0000fe;fill-opacity:1;fill-rule:nonzero;stroke:none"
     inkscape:connector-curvature="0" />
  <g
     transform="matrix(0.09199999,0,0,0.09195545,0.99999899,28.597468)"
     id="layer2"
     style="display:inline">
    <path
       d="m -1.5999999,50.400017 c 0,2.209139 -1.790861,4 -4,4 -2.209139,0 -4,-1.790861 -4,-4 0,-2.209139 1.790861,-4 4,-4 2.209139,0 4,1.790861 4,4 l 0,0 z"
       transform="matrix(2.3437499,0,0,2.3437496,183.85845,-304.85842)"
       id="path17872"
       style="fill:#ffffff;fill-opacity:1;fill-rule:nonzero;stroke:none;display:inline"
       inkscape:connector-curvature="0" />
    <path
       d="M 278.6453,23.676508 C 268.55355,22.073783 254.10402,18.461759 246.5352,15.649734 225.34472,7.7769358 211.94027,4.4156863 185.7554,0.40873686 172.50997,-1.618138 161.09025,-4.3446126 160.10845,-4.7084625 c 0.9818,-4.6361494 0.99727,-10.2049235 4.12825,-20.9273975 8.32687,-28.516759 13.98325,-64.674026 17.18187,-109.83144 l 2.82463,-39.87732 18.53132,1.35219 c 32.28795,2.35599 63.68663,15.6462 99.95335,42.30757 11.98392,8.80996 27.14635,18.71554 33.6942,22.01242 11.36292,5.72125 42.97287,14.833004 55.16817,16.327814 0,0 1.22765,0.587775 -10.82222,13.428911 -10.93363,11.651648 -25.62063,23.909296 -43.05238,35.931233 l -4.98852,3.440374 6.86775,15.892398 c 3.77727,8.740824 11.99305,23.413272 18.25725,32.6054458 6.26422,9.1921482 11.3895,17.2641722 11.3895,17.9378472 0,2.414975 -72.62298,0.63935 -90.59632,-2.215075 z"
       id="path2253"
       style="fill:#f90003"
       inkscape:connector-curvature="0" />
  </g>
  <path
     d="m 21.594977,45.507275 c 0,0 -0.115003,0 -0.115003,0 -0.0575,0 -0.114999,0 -0.114999,0 0,3.68e-4 0,0.0021 0,0.0021 0,8.06e-4 0,0.0017 0,0.0069 0,0.01382 0,0.04306 0,0.117435 0,0.148976 0,0.47028 0,1.161403 l 0.229999,0 c 0,-0.691123 0,-1.012519 0,-1.161403 0,-0.0746 0,-0.105 0,-0.117435 0,-0.0046 0,-0.0046 0,-0.0069 0,0 0,-0.0018 0,-0.0021 z"
     id="path29592"
     style="fill:#0d0dfe;fill-opacity:1;fill-rule:evenodd;stroke:none"
     inkscape:connector-curvature="0" />
  <path
     d="m 26.654976,45.507275 c 0,0 -0.115006,0 -0.115006,0 -0.0575,0 -0.115006,0 -0.115006,0 0,3.68e-4 0,0.0021 0,0.0021 0,8.06e-4 0,0.0017 0,0.0069 0,0.01382 0,0.04306 0,0.117435 0,0.148976 0,0.47028 0,1.161403 l 0.230012,0 c 0,-0.691123 0,-1.012519 0,-1.161403 0,-0.0746 0,-0.105 0,-0.117435 0,-0.0046 0,-0.0046 0,-0.0069 0,0 0,-0.0018 0,-0.0021 z"
     id="path29596"
     style="fill:#0d0dfe;fill-opacity:1;fill-rule:evenodd;stroke:none"
     inkscape:connector-curvature="0" />
  <path
     d="m 21.594977,1.184748 c 0,0 -0.115003,0 -0.115003,0 -0.0575,0 -0.114999,0 -0.114999,0 0,3.91e-4 0,0.0022 0,0.0022 0,8.52e-4 0,0.0017 0,0.0069 0,0.01382 0,0.04491 0,0.122728 0,0.155655 0,0.491281 0,1.213259 l 0.229999,0 c 0,-0.721978 0,-1.057696 0,-1.213259 0,-0.07783 0,-0.109374 0,-0.122728 0,-0.0046 0,-0.0069 0,-0.0069 0,0 0,-0.0018 0,-0.0022 z"
     id="path29599"
     style="fill:#0d0dfe;fill-opacity:1;fill-rule:evenodd;stroke:none"
     inkscape:connector-curvature="0" />
  <path
     d="m 26.654976,1.253733 c 0,0 -0.115006,0 -0.115006,0 -0.0575,0 -0.115006,0 -0.115006,0 0,3.68e-4 0,0.0021 0,0.0021 0,8.07e-4 0,0.0017 0,0.0069 0,0.01151 0,0.0426 0,0.116281 0,0.147597 0,0.466092 0,1.151044 l 0.230012,0 c 0,-0.684952 0,-1.003447 0,-1.151044 0,-0.07391 0,-0.103846 0,-0.116281 0,-0.0046 0,-0.0046 0,-0.0069 0,0 0,-0.0017 0,-0.0021 z"
     id="path29601"
     style="fill:#0d0dfe;fill-opacity:1;fill-rule:evenodd;stroke:none"
     inkscape:connector-curvature="0" />
  <rect
     width="0.82948864"
     height="4.8276601"
     x="45.169231"
     y="21.575863"
     id="rect7097"
     style="fill:#ffffff;fill-opacity:1;fill-rule:nonzero;stroke:#0000fe;stroke-width:0;stroke-linejoin:miter;stroke-miterlimit:4;stroke-opacity:1;stroke-dasharray:none" />
  <rect
     width="0.82908702"
     height="4.8299994"
     x="45.323387"
     y="-26.424974"
     transform="matrix(0,1,-1,0,0,0)"
     id="rect11034"
     style="fill:#ffffff;fill-opacity:1;fill-rule:nonzero;stroke:#0000fe;stroke-width:0;stroke-linejoin:miter;stroke-miterlimit:4;stroke-opacity:1;stroke-dasharray:none" />
  <path
     d="m 1.1523741,21.355973 c -0.099575,0.867755 -0.15237549,1.749464 -0.15237549,2.643722 0,0.894281 0.0528,1.775967 0.15237549,2.643723 l 45.6952509,0 c 0.09957,-0.867756 0.152382,-1.749442 0.152382,-2.643723 0,-0.894258 -0.05281,-1.775967 -0.152382,-2.643722 l -45.6952509,0 z"
     id="path3197"
     style="fill:#f90003;fill-opacity:1;stroke:none"
     inkscape:connector-curvature="0" />
  <path
     d="m 6.3793098,25.42804 c -0.063283,0.0875 -0.1205058,0.161642 -0.1716691,0.222431 -0.051175,0.06079 -0.1010833,0.115359 -0.1497272,0.163944 -0.048651,0.04858 -0.098523,0.09233 -0.1496121,0.131248 -0.051101,0.03891 -0.1058364,0.0776 -0.1642055,0.116511 -0.2092892,0.145755 -0.4392624,0.259917 -0.6899131,0.342511 -0.2506586,0.08243 -0.5025385,0.12388 -0.7556411,0.12388 -0.3456461,0 -0.6717943,-0.06562 -0.978445,-0.196872 C 3.0134421,26.200445 2.7457431,26.02082 2.5169988,25.792471 2.2882524,25.564054 2.1081892,25.29693 1.9768095,24.990847 c -0.13138,-0.306084 -0.19707,-0.634089 -0.19707,-0.983991 -4e-7,-0.354668 0.066915,-0.686218 0.2007455,-0.994697 0.1338304,-0.308455 0.3151188,-0.576869 0.5438653,-0.805171 0.228744,-0.228417 0.4988572,-0.408111 0.8103394,-0.539336 0.3114782,-0.131248 0.6448672,-0.196872 1.0001684,-0.196872 0.209432,0 0.4053888,0.02072 0.5878691,0.06194 0.182472,0.04145 0.3564458,0.105919 0.521919,0.193187 0.1654628,0.0875 0.3248815,0.199405 0.4782495,0.335281 0.1533589,0.136084 0.305497,0.298761 0.4564148,0.488242 L 5.6199939,23.081559 C 5.4349144,22.848352 5.2353186,22.679503 5.0212074,22.575058 4.8070886,22.47075 4.5662007,22.418251 4.2985415,22.418251 c -0.2239932,0 -0.4320943,0.04145 -0.6242975,0.12388 -0.1922086,0.08243 -0.3601281,0.194339 -0.5037605,0.335234 -0.143636,0.140919 -0.2568207,0.307327 -0.3395537,0.499156 -0.082736,0.192037 -0.1241029,0.397152 -0.1241029,0.615852 -1.4e-6,0.223582 0.041367,0.431115 0.1241029,0.623036 0.082734,0.192036 0.1959163,0.359527 0.3395537,0.502863 0.1436338,0.143221 0.3115528,0.256233 0.5037605,0.338804 0.1922041,0.08266 0.4003022,0.123879 0.6242975,0.123879 0.1898251,0 0.37234,-0.03154 0.5475418,-0.09464 0.1751949,-0.06332 0.3357993,-0.15059 0.4818144,-0.262219 0.043815,-0.04375 0.086406,-0.08635 0.1277805,-0.127564 0.041365,-0.04145 0.096137,-0.101084 0.1643182,-0.178681 l 0.7593173,0.510208 0,0 z m 5.1666312,-1.45738 c -6e-6,0.349787 -0.06814,0.680094 -0.204423,0.991013 -0.136288,0.310919 -0.320026,0.582947 -0.551218,0.8162 -0.231201,0.233207 -0.501314,0.416608 -0.8103397,0.550205 -0.3090338,0.13355 -0.6388212,0.200556 -0.989363,0.200556 -0.3454982,0 -0.6727973,-0.06701 -0.9818988,-0.200556 C 7.6995928,26.194527 7.4282546,26.012323 7.1946831,25.781557 6.9611089,25.550745 6.7761811,25.281134 6.6399003,24.972564 6.5036174,24.664017 6.4354771,24.337325 6.4354771,23.992465 c -5e-7,-0.354668 0.06569,-0.686242 0.1970701,-0.994789 0.13138,-0.308525 0.3114418,-0.575764 0.5401889,-0.801648 0.228744,-0.226115 0.4988942,-0.403207 0.8104507,-0.531968 0.3115522,-0.128715 0.6473553,-0.193188 1.0074098,-0.193188 0.3407384,0 0.6656612,0.06678 0.9747685,0.200556 0.3090999,0.13355 0.5804759,0.31458 0.8141289,0.542998 0.233642,0.228647 0.419794,0.494412 0.558458,0.798055 0.138652,0.303643 0.20798,0.623082 0.207987,0.958317 l 0,0 z m -0.927089,0.02072 c -4e-6,-0.218747 -0.04259,-0.423977 -0.12778,-0.615852 -0.08519,-0.192037 -0.202012,-0.358215 -0.350471,-0.499157 -0.1484667,-0.140918 -0.3212515,-0.252663 -0.5183551,-0.335234 -0.19711,-0.08266 -0.4076609,-0.12388 -0.63165,-0.12388 -0.2238458,0 -0.4343226,0.04007 -0.6314276,0.120196 -0.1971092,0.08036 -0.3698943,0.190655 -0.5183543,0.331596 -0.1484629,0.140919 -0.2652871,0.30491 -0.3504708,0.491949 -0.085189,0.187201 -0.1277829,0.389899 -0.1277806,0.608576 -1.7e-6,0.223582 0.042593,0.433509 0.1277806,0.630289 0.085184,0.196871 0.2020051,0.367977 0.3504708,0.513731 0.1484582,0.145754 0.3212446,0.259917 0.5183543,0.342488 0.1971046,0.08266 0.4075804,0.12388 0.6314276,0.12388 0.2239886,0 0.4345389,-0.04145 0.63165,-0.12388 0.1971022,-0.08266 0.3698884,-0.196872 0.5183551,-0.342488 0.148457,-0.145754 0.265281,-0.316998 0.350471,-0.513731 0.08519,-0.196872 0.127776,-0.406822 0.127781,-0.630289 l 0,0.02072 z m 5.004873,2.4486 -2.744948,-3.374243 0,3.374243 -0.927312,0 0,-4.882741 0.912606,0 2.745172,3.41067 0,-3.41067 0.941793,0 0,4.882741 -0.927311,0 z m 5.21186,0 -2.74495,-3.374243 0,3.374243 -0.927311,0 0,-4.882741 0.912606,0 2.745173,3.41067 0,-3.41067 0.941793,0 0,4.882741 -0.927311,0 z m 1.539597,0 0,-4.882741 3.898629,0 0,0.92562 -2.971316,0 0,0.889146 1.715594,0 0,0.940057 -1.715594,0 0,1.202299 3.037042,0 0,0.925619 -3.964355,0 z m 8.765809,-1.013026 c -0.06328,0.08727 -0.120487,0.161642 -0.17168,0.222431 -0.05118,0.06079 -0.101074,0.11536 -0.149734,0.163945 -0.04864,0.04858 -0.09854,0.09256 -0.149619,0.131247 -0.0511,0.03891 -0.105841,0.07783 -0.164197,0.116512 -0.20931,0.145754 -0.439263,0.259916 -0.689914,0.34251 -0.250656,0.08266 -0.502535,0.12388 -0.755639,0.12388 -0.345647,0 -0.671796,-0.06562 -0.978445,-0.196872 -0.306656,-0.131248 -0.574355,-0.310873 -0.803097,-0.539221 -0.228746,-0.228417 -0.408812,-0.495541 -0.54019,-0.801625 -0.13138,-0.306084 -0.197058,-0.634088 -0.197058,-0.98399 0,-0.354669 0.06689,-0.686219 0.200743,-0.994698 0.133844,-0.308455 0.315121,-0.576868 0.543867,-0.80517 0.228746,-0.228418 0.498856,-0.408112 0.810338,-0.539337 0.311477,-0.131248 0.644867,-0.196871 1.000167,-0.196871 0.209448,0 0.40539,0.02072 0.587869,0.06194 0.182481,0.04145 0.356446,0.10592 0.521918,0.193188 0.165463,0.08727 0.324881,0.199405 0.478251,0.335281 0.153373,0.136083 0.305496,0.298761 0.456413,0.488242 l -0.759313,0.531991 c -0.185083,-0.233207 -0.384675,-0.402056 -0.598786,-0.506502 -0.214098,-0.104537 -0.455007,-0.156806 -0.722663,-0.156806 -0.224003,0 -0.432095,0.04145 -0.6243,0.123879 -0.192222,0.08266 -0.360126,0.194339 -0.503759,0.335235 -0.143632,0.140918 -0.256822,0.30735 -0.339553,0.499156 -0.08274,0.192036 -0.124103,0.397151 -0.124103,0.615852 0,0.223581 0.04138,0.431114 0.124103,0.623035 0.08272,0.192037 0.195907,0.359527 0.339553,0.502864 0.143631,0.143221 0.311553,0.256232 0.503759,0.338803 0.192223,0.08266 0.400304,0.12388 0.6243,0.12388 0.189827,0 0.372338,-0.03154 0.54754,-0.09487 0.17518,-0.06332 0.335798,-0.15059 0.481816,-0.26222 0.04383,-0.04375 0.08641,-0.08635 0.127787,-0.127563 0.04136,-0.04145 0.09614,-0.101084 0.164311,-0.178682 l 0.759317,0.510186 0,0 z m 3.017745,-2.944095 0,3.957121 -0.92709,0 0,-3.957121 -1.679276,0 0,-0.92562 4.205209,0 0,0.92562 -1.598843,0 z m 6.840653,1.486715 c -5e-6,0.349787 -0.06815,0.680094 -0.204428,0.991013 -0.136308,0.310919 -0.320026,0.582971 -0.551218,0.8162 -0.231198,0.233207 -0.501314,0.416609 -0.810339,0.550205 -0.309032,0.13355 -0.638818,0.200556 -0.989361,0.200556 -0.345498,0 -0.672799,-0.06701 -0.981898,-0.200556 -0.309105,-0.13355 -0.580444,-0.315755 -0.814017,-0.546521 -0.233573,-0.230812 -0.4185,-0.500422 -0.554783,-0.808993 -0.136285,-0.308547 -0.204428,-0.635239 -0.204428,-0.980098 0,-0.354669 0.06568,-0.686242 0.197058,-0.99479 0.131381,-0.308524 0.311444,-0.575763 0.54019,-0.801648 0.228746,-0.226114 0.498895,-0.403207 0.810453,-0.531968 0.311551,-0.128715 0.647354,-0.193187 1.007409,-0.193187 0.340739,0 0.665661,0.06678 0.974768,0.200555 0.3091,0.133551 0.580476,0.314581 0.814127,0.542998 0.23364,0.228648 0.419795,0.494436 0.558459,0.798056 0.138634,0.303666 0.207997,0.623082 0.207997,0.958316 l 0,0 z M 40.0723,23.9903 c -4e-6,-0.218746 -0.0426,-0.423977 -0.127788,-0.615852 -0.08519,-0.192036 -0.20201,-0.358214 -0.350467,-0.499156 -0.148468,-0.140918 -0.321252,-0.252663 -0.518358,-0.335234 -0.197105,-0.08266 -0.407656,-0.12388 -0.631649,-0.12388 -0.223841,0 -0.434322,0.04007 -0.631427,0.120196 -0.197104,0.08036 -0.369893,0.190654 -0.518354,0.331596 -0.148467,0.140919 -0.265288,0.304909 -0.350472,0.491949 -0.08519,0.187201 -0.127788,0.389898 -0.127788,0.608575 0,0.223582 0.0426,0.433533 0.127788,0.630289 0.08519,0.196872 0.20201,0.367978 0.350472,0.513732 0.148468,0.145754 0.321245,0.259917 0.518354,0.342488 0.197105,0.08266 0.407582,0.123879 0.631427,0.123879 0.224004,0 0.434539,-0.04145 0.631649,-0.123879 0.197104,-0.08243 0.369887,-0.196872 0.518358,-0.342488 0.148466,-0.145754 0.265281,-0.316998 0.350467,-0.513732 0.08519,-0.196871 0.127765,-0.406822 0.127788,-0.630289 l 0,0.02072 z m 5.067359,2.448601 -1.080377,-1.836548 -1.511282,0 0,1.836548 -0.927315,0 0,-4.882741 2.986026,0 c 0.21417,0 0.416194,0.04007 0.606025,0.120195 0.189828,0.08013 0.354107,0.189734 0.492847,0.328051 0.138727,0.138385 0.248233,0.299981 0.328524,0.48458 0.08028,0.184668 0.120441,0.381356 0.120441,0.590247 -7e-6,0.33033 -0.09493,0.625453 -0.284745,0.88537 -0.189851,0.259917 -0.445316,0.445759 -0.766447,0.55755 l 1.116919,1.916633 -1.0806,0 z m 0.08779,-3.359553 c -4e-6,-0.0776 -0.01589,-0.152892 -0.04744,-0.225884 -0.03164,-0.07299 -0.07547,-0.137235 -0.131449,-0.193188 -0.05601,-0.05595 -0.121731,-0.0997 -0.197174,-0.131248 -0.07546,-0.03154 -0.157012,-0.04743 -0.244639,-0.04743 l -2.058713,0 0,1.202507 2.058713,0 c 0.08763,0 0.169194,-0.01612 0.244639,-0.04743 0.07545,-0.03154 0.141168,-0.07552 0.197174,-0.131248 0.05601,-0.05595 0.09984,-0.120195 0.131449,-0.193188 0.03162,-0.07299 0.04744,-0.150589 0.04744,-0.233183 l 0,0 z"
     id="text3202"
     style="font-size:79.30387115px;font-style:normal;font-variant:normal;font-weight:normal;font-stretch:normal;text-align:center;line-height:125%;writing-mode:lr-tb;text-anchor:middle;fill:#ffffff;fill-opacity:1;stroke:none;font-family:Roadgeek 2005 Series F;-inkscape-font-specification:Roadgeek 2005 Series F"
     inkscape:connector-curvature="0" />
</svg>
