<?xml version="1.0" encoding="UTF-8" standalone="no"?>
<!-- Created with Inkscape (http://www.inkscape.org/) -->

<svg
   xmlns:dc="http://purl.org/dc/elements/1.1/"
   xmlns:cc="http://creativecommons.org/ns#"
   xmlns:rdf="http://www.w3.org/1999/02/22-rdf-syntax-ns#"
   xmlns:svg="http://www.w3.org/2000/svg"
   xmlns="http://www.w3.org/2000/svg"
   xmlns:sodipodi="http://sodipodi.sourceforge.net/DTD/sodipodi-0.dtd"
   xmlns:inkscape="http://www.inkscape.org/namespaces/inkscape"
   version="1.0"
   width="48"
   height="48"
   id="svg2"
   inkscape:version="0.48.1 r9760"
   sodipodi:docname="US:NY-SLD.svg">
  <metadata
     id="metadata3292">
    <rdf:RDF>
      <cc:Work
         rdf:about="">
        <dc:format>image/svg+xml</dc:format>
        <dc:type
           rdf:resource="http://purl.org/dc/dcmitype/StillImage" />
      </cc:Work>
    </rdf:RDF>
  </metadata>
  <sodipodi:namedview
     pagecolor="#ffffff"
     bordercolor="#666666"
     borderopacity="1"
     objecttolerance="10"
     gridtolerance="10"
     guidetolerance="10"
     inkscape:pageopacity="0"
     inkscape:pageshadow="2"
     inkscape:window-width="1278"
     inkscape:window-height="996"
     id="namedview3290"
     showgrid="true"
     inkscape:showpageshadow="false"
     inkscape:zoom="16.895833"
     inkscape:cx="24"
     inkscape:cy="24"
     inkscape:window-x="1"
     inkscape:window-y="27"
     inkscape:window-maximized="0"
     inkscape:current-layer="svg2">
    <inkscape:grid
       type="xygrid"
       id="grid3527"
       empspacing="5"
       visible="true"
       enabled="true"
       snapvisiblegridlinesonly="true" />
  </sodipodi:namedview>
  <defs
     id="defs4" />
  <g
     id="g3542">
    <path
       inkscape:connector-curvature="0"
       id="path1992"
       style="fill:#ffffff;fill-opacity:1;stroke:#000000;stroke-width:0.07658579;stroke-linecap:square;stroke-miterlimit:3.863693;stroke-opacity:1;stroke-dasharray:none"
       d="m 46.93751,24.003705 a 22.937505,22.937505 0 0 1 -45.8750097,0 22.937505,22.937505 0 1 1 45.8750097,0 z" />
    <path
       inkscape:connector-curvature="0"
       id="path2390"
       style="fill:#613314;fill-opacity:1;stroke:none"
       d="m 46,24.000001 a 22,22 0 0 1 -44,0 22,22 0 1 1 44,0 z" />
  </g>
  <path
     d="m 10.036239,34.122198 c -3e-6,0.198939 -0.03516,0.384481 -0.1054642,0.556627 -0.070313,0.172148 -0.1673019,0.321278 -0.2909698,0.44739 -0.1236731,0.126113 -0.2667712,0.226766 -0.4292944,0.30196 -0.1625278,0.07519 -0.3383755,0.112792 -0.527543,0.112792 -0.2134462,0 -0.4050207,-0.04122 -0.5747242,-0.123672 C 7.9385377,35.334848 7.7954766,35.223316 7.6790598,35.082698 7.5626416,34.942079 7.4729047,34.779591 7.4098486,34.595232 7.3467918,34.410875 7.3152636,34.219299 7.315264,34.020508 l 0.6838518,0 c -1e-6,0.101839 0.01332,0.202455 0.039966,0.301849 0.026643,0.0994 0.067866,0.189134 0.1236705,0.269211 0.055803,0.08008 0.1261487,0.144357 0.2110394,0.192833 0.084888,0.04848 0.1879467,0.07272 0.3091766,0.07272 0.092215,0 0.1807672,-0.01939 0.2656588,-0.05817 0.084887,-0.03878 0.1576391,-0.09215 0.2182554,-0.160084 0.060612,-0.06794 0.1090876,-0.14676 0.1454295,-0.236461 0.036337,-0.0897 0.054506,-0.1831 0.054508,-0.280201 C 9.3668177,33.981583 9.337732,33.85673 9.279562,33.747637 9.221387,33.638549 9.1195501,33.5282 8.9740491,33.416591 c -0.024277,-0.02428 -0.033973,-0.03763 -0.029086,-0.04008 0.00489,-0.0024 -0.00966,-0.01576 -0.043629,-0.03997 -0.033972,-0.0242 -0.1055399,-0.0715 -0.214703,-0.141877 C 8.5774651,33.124289 8.3992124,33.004282 8.1518725,32.834648 7.953081,32.698769 7.8039511,32.53987 7.7044825,32.357951 7.6050125,32.176038 7.555278,31.97599 7.5552786,31.757805 c -6e-7,-0.174658 0.031528,-0.338369 0.094584,-0.491129 0.063055,-0.152751 0.1515715,-0.287339 0.2655476,-0.403761 0.1139742,-0.116413 0.2461559,-0.207371 0.3965452,-0.272875 0.1503867,-0.06549 0.3128385,-0.09824 0.4873551,-0.09825 0.1746619,5e-6 0.3359664,0.03154 0.483914,0.09458 0.1479439,0.06306 0.276462,0.150393 0.3855551,0.261995 0.1090873,0.111612 0.1963824,0.245015 0.2618838,0.400209 0.065499,0.155203 0.1006876,0.324944 0.1055746,0.509224 l -0.669419,0 C 9.357189,31.588027 9.299023,31.452219 9.1923031,31.350378 9.0855791,31.248544 8.954582,31.197626 8.7993105,31.197622 c -0.1600112,4e-6 -0.2957819,0.05336 -0.4073134,0.160083 -0.1115342,0.106726 -0.1673007,0.240092 -0.1672994,0.400097 -1.3e-6,0.121232 0.031527,0.223069 0.094584,0.305513 0.063055,0.08245 0.1842832,0.174592 0.3636849,0.276426 0.4705528,0.271619 0.813737,0.548083 1.0295515,0.829391 0.2158105,0.281314 0.3237169,0.599 0.3237199,0.953062 l 0,0 z m 0.649501,1.331511 0,-4.874658 2.291792,0 0,0.684074 -1.593286,0 0,1.229377 1.011345,0 0,0.669418 -1.011345,0 0,1.607937 1.782455,0 0,0.683852 -2.480961,0 z m 4.51282,0 -0.531095,0 -1.229601,-4.874658 0.705832,0 0.800196,3.165031 0.807521,-3.165031 0.698507,0 -1.25136,4.874658 z m 1.762314,0 0,-4.874658 2.291791,0 0,0.684074 -1.593286,0 0,1.229377 1.011347,0 0,0.669418 -1.011347,0 0,1.607937 1.782456,0 0,0.683852 -2.480961,0 z m 5.334995,0 -1.506028,-3.26672 0,3.26672 -0.698506,0 0,-4.874658 0.698506,0 1.338618,2.924795 0,-2.924795 0.698505,0 0,4.874658 -0.531095,0 z"
     style="font-size:94.56048584px;font-style:normal;font-variant:normal;font-weight:bold;font-stretch:normal;text-align:start;line-height:125%;writing-mode:lr-tb;text-anchor:start;fill:#ffffff;fill-opacity:1;stroke:none;font-family:Franklin Gothic Demi"
     id="text5627"
     inkscape:connector-curvature="0" />
  <path
     d="m 25.948649,35.898203 0,-5.063736 0.725598,0 0,4.391185 1.85159,0 0,0.672551 -2.577188,0 z m 5.235168,0 -0.355188,-1.383158 -1.088398,0 -0.332355,1.383158 -0.733209,0 1.262071,-5.063736 0.710606,0 1.262071,5.063736 -0.725598,0 z m -0.906883,-3.552111 -0.355188,1.458577 0.725598,0 -0.37041,-1.458577 z m 4.239028,3.552111 -0.89166,-2.471325 -0.461053,0.854066 0,1.617259 -0.725598,0 0,-5.063736 0.725598,0 0,2.025494 1.156206,-2.025494 0.839075,0 -1.050573,1.77617 1.171428,3.287566 -0.763423,0 z m 1.439269,0 0,-5.063736 2.380682,0 0,0.710607 -1.655083,0 0,1.277062 1.050572,0 0,0.695384 -1.050572,0 0,1.670306 1.85159,0 0,0.710377 -2.577189,0 z m 5.829071,-1.383158 c -4e-6,0.206656 -0.03652,0.399395 -0.109555,0.578218 -0.07304,0.178825 -0.173792,0.333739 -0.302256,0.464743 -0.12847,0.131005 -0.277118,0.235562 -0.445945,0.313673 -0.168832,0.07811 -0.3515,0.117166 -0.548005,0.117166 -0.221725,0 -0.420729,-0.04282 -0.597015,-0.128468 -0.176288,-0.08564 -0.324898,-0.201504 -0.445831,-0.347576 -0.120933,-0.146073 -0.214151,-0.314864 -0.279653,-0.506374 -0.0655,-0.191508 -0.09825,-0.390514 -0.09825,-0.597016 l 0.710376,0 c -1e-6,0.105789 0.01384,0.210308 0.04152,0.313557 0.02768,0.103252 0.0705,0.19647 0.128467,0.279653 0.05797,0.08319 0.131042,0.149956 0.219225,0.200313 0.08818,0.05036 0.195237,0.07554 0.321168,0.07554 0.09579,0 0.187779,-0.02014 0.275963,-0.06043 0.08818,-0.04028 0.163753,-0.09572 0.226721,-0.166293 0.06296,-0.07058 0.113319,-0.152453 0.15107,-0.245633 0.03775,-0.09318 0.05662,-0.190202 0.05662,-0.29107 -2e-6,-0.146072 -0.03022,-0.275768 -0.09064,-0.389092 -0.06043,-0.11332 -0.166217,-0.227949 -0.317363,-0.343887 -0.02522,-0.02522 -0.03529,-0.03909 -0.03021,-0.04163 0.0051,-0.0025 -0.01004,-0.01637 -0.04532,-0.04152 -0.03529,-0.02514 -0.109634,-0.07427 -0.223031,-0.14738 -0.1134,-0.07311 -0.298567,-0.197772 -0.5555,-0.373985 -0.206502,-0.14115 -0.361416,-0.306212 -0.464743,-0.495187 -0.103328,-0.18897 -0.154991,-0.396777 -0.154991,-0.623425 0,-0.181433 0.03275,-0.351494 0.09825,-0.510179 0.0655,-0.158676 0.15745,-0.298484 0.275846,-0.419422 0.118395,-0.120928 0.255704,-0.215414 0.411926,-0.283459 0.15622,-0.06803 0.324972,-0.102053 0.506259,-0.102058 0.181435,5e-6 0.348996,0.03276 0.502683,0.09825 0.153681,0.06551 0.287184,0.156226 0.400509,0.272157 0.113319,0.115941 0.203999,0.254518 0.272041,0.415732 0.06804,0.161223 0.104594,0.337548 0.109671,0.528976 l -0.695385,0 c -0.01,-0.17636 -0.07042,-0.317436 -0.181284,-0.423227 -0.110863,-0.105784 -0.246942,-0.158677 -0.408235,-0.158681 -0.166218,4e-6 -0.307255,0.05543 -0.423112,0.166292 -0.115861,0.110866 -0.17379,0.249405 -0.173789,0.415616 -10e-7,0.125934 0.03275,0.231721 0.09825,0.317363 0.0655,0.08565 0.191431,0.181364 0.377791,0.287148 0.488805,0.282155 0.845299,0.569342 1.069485,0.861562 0.224181,0.292225 0.336272,0.622234 0.336276,0.990029 l 0,0 z"
     style="font-size:94.56048584px;font-style:normal;font-variant:normal;font-weight:bold;font-stretch:normal;text-align:start;line-height:125%;writing-mode:lr-tb;text-anchor:start;fill:#ffffff;fill-opacity:1;stroke:none;font-family:Franklin Gothic Demi"
     id="text5735"
     inkscape:connector-curvature="0" />
  <path
     d="m 19.507601,39.443786 c -3e-6,1.158899 -0.24187,1.927242 -0.725598,2.305032 -0.09072,0.08564 -0.196548,0.146112 -0.317479,0.1814 -0.120935,0.03529 -0.251901,0.05293 -0.392897,0.05293 l -1.40576,0 0,-5.063736 1.292284,0 c 0.216648,6e-6 0.385438,0.01515 0.506373,0.04544 0.120931,0.0303 0.226757,0.08065 0.317479,0.15107 0.151143,0.105946 0.278381,0.254633 0.381712,0.446061 0.103323,0.191436 0.177667,0.41562 0.22303,0.672551 0.03521,0.186362 0.06415,0.385366 0.08684,0.597015 0.02268,0.211655 0.03402,0.415734 0.03402,0.612238 l 0,0 z m -0.710376,0.03783 c -3e-6,-0.287224 -0.01261,-0.555536 -0.03783,-0.804939 -0.02522,-0.249397 -0.06051,-0.426992 -0.105864,-0.532782 -0.115938,-0.342576 -0.335124,-0.513865 -0.657559,-0.51387 l -0.604511,0 0,3.642753 0.604511,0 c 0.105786,1e-6 0.200272,-0.02014 0.283458,-0.06043 0.08318,-0.04028 0.154989,-0.09318 0.21542,-0.158681 0.06043,-0.0655 0.109552,-0.142344 0.14738,-0.230527 0.03782,-0.08818 0.06681,-0.180168 0.08695,-0.275962 0.01506,-0.161141 0.03017,-0.331162 0.04532,-0.510065 0.01514,-0.178898 0.02272,-0.364064 0.02272,-0.555499 l 0,0 z m 3.784352,2.501538 -0.672782,-2.380682 -0.695153,0 0,2.380682 -0.725599,0 0,-5.063736 1.511625,0 c 0.196504,6e-6 0.376636,0.03276 0.540394,0.09825 0.163752,0.06551 0.304828,0.156226 0.423227,0.272157 0.118393,0.11594 0.209073,0.258284 0.272041,0.427033 0.06296,0.168756 0.09444,0.353923 0.09445,0.555499 -4e-6,0.302298 -0.06047,0.559271 -0.1814,0.77092 -0.120936,0.211655 -0.302335,0.362763 -0.544198,0.453326 l 0.725598,2.486547 -0.748201,0 z m 0.03783,-3.710793 c -3e-6,-0.196502 -0.06047,-0.352685 -0.181399,-0.468547 -0.120936,-0.115855 -0.279656,-0.173784 -0.47616,-0.173789 l -0.748201,0 0,1.277063 0.748201,0 c 0.211573,3e-6 0.37406,-0.05416 0.487461,-0.162488 0.113396,-0.108321 0.170095,-0.265734 0.170098,-0.472239 l 0,0 z m 1.543208,3.710793 0,-5.063736 0.710376,0 0,5.063736 -0.710376,0 z m 3.250647,0 -0.551695,0 -1.277293,-5.063736 0.73321,0 0.831232,3.287796 0.838843,-3.287796 0.725599,0 -1.299896,5.063736 z m 1.987653,0 0,-5.063736 2.380682,0 0,0.710607 -1.655084,0 0,1.277063 1.050573,0 0,0.695384 -1.050573,0 0,1.670306 1.851591,0 0,0.710376 -2.577189,0 z"
     style="font-size:94.56048584px;font-style:normal;font-variant:normal;font-weight:bold;font-stretch:normal;text-align:start;line-height:125%;writing-mode:lr-tb;text-anchor:start;fill:#ffffff;fill-opacity:1;stroke:none;font-family:Franklin Gothic Demi"
     id="text5815"
     inkscape:connector-curvature="0" />
  <path
     d="M 24.088488,5.1070138 22.07483,8.0209766 c 0,0 -2.89326,-0.3900461 -2.89326,-0.3900461 0,0 -0.185002,4.8401255 -0.185002,4.8401255 0,0 -2.69156,-1.520098 -2.69156,-1.520098 0,0 -1.06861,2.282818 -1.06861,2.282818 0,0 -2.355617,-0.824833 -2.355617,-0.824833 0,0 1.043897,2.933998 1.043897,2.933998 0,0 -1.331754,0.578379 -1.331754,0.578379 0,0 2.974075,6.447045 2.974075,6.447045 0,0 -2.005649,0.22708 -2.005649,0.22708 0,0 0.379359,1.122775 0.485552,1.340437 0.803891,1.607502 2.4305,2.881233 4.048694,3.275949 0.288923,0.07048 1.02842,0.126281 1.685064,0.126897 1.398799,0.0013 2.132453,-0.210685 3.737708,-0.920969 l 0.0038,3.344702 c 0,0 1.1283,0.008 1.1283,0.008 0,0 0.0019,-3.35209 0.0019,-3.35209 0.431863,0.152118 0.933616,0.430687 1.317521,0.539649 1.387894,0.4268 3.086221,0.50961 4.204977,0.205037 1.804654,-0.4913 3.053257,-1.601825 3.98391,-3.54377 0.178022,-0.371472 0.365999,-0.956406 0.365999,-0.956406 0,0 -2.051731,-0.196351 -2.051731,-0.196351 0,0 2.934001,-6.423001 2.934001,-6.423001 l -1.29502,-0.537647 c 0,0 0.995809,-2.924642 0.995809,-2.924642 l -2.264117,0.833511 -1.063266,-2.316871 c 0,0 -2.709592,1.445959 -2.709592,1.445959 l -0.186315,-4.7833329 -2.809772,0.299211 c 0,0 -1.986282,-2.9526943 -1.986282,-2.9526943 z m -0.03206,1.9582247 c 0,0 1.452644,2.156583 1.452644,2.156583 0,0 2.3102,-0.2224021 2.3102,-0.2224021 l 0.109533,1.9535466 -0.886946,0.603092 -0.49156,-0.471525 -0.651853,0.645179 -0.0034,-1.8533715 -0.64384,0 -1.188126,-1.7919193 c 0,0 -1.186823,1.7839099 -1.186823,1.7839099 0,0 -0.693257,0.00334 -0.693257,0.00334 l -0.01403,1.8426755 c 0,0 -0.539648,-0.667874 -0.539648,-0.667874 l -0.56903,0.502908 -0.836856,-0.57571 c 0,0 0.09617,-1.9909462 0.09617,-1.9909462 l 2.317579,0.2431053 1.419247,-2.1605916 z m 0.02204,2.9126239 c 0,0 0.504249,0.8297566 0.504249,0.8297566 0,0 0.32631,0.0032 0.32631,0.0032 0,0 7.85e-4,3.762015 7.85e-4,3.762015 0,0 1.69325,-1.97822 1.69325,-1.97822 0,0 0.364663,0.265149 0.364663,0.265149 0,0 0.919003,-0.706623 0.919003,-0.706623 0,0 -0.333212,1.097877 -0.333212,1.097877 0,0 0.367276,0.322039 0.367276,0.322039 -0.584313,1.143964 -1.86606,3.372124 -1.86606,3.372124 0,0 3.125682,-1.586882 3.125682,-1.586882 0,0 0.26114,0.396724 0.26114,0.396724 0,0 1.209534,-0.317915 1.209534,-0.317915 0,0 -0.448605,1.156097 -0.448605,1.156097 0,0 0.331057,0.379358 0.331057,0.379358 0,0 -3.526409,4.428715 -3.526409,4.428715 l 3.0816,-0.0034 -0.282515,0.426108 c -0.40076,0.544665 -1.173644,0.921939 -2.64347,1.289003 -1.496819,0.373812 -1.994774,0.598192 -2.646146,1.193504 l -0.492901,0.450876 -0.318579,-0.334611 c -0.594077,-0.622258 -1.33505,-0.979259 -2.893926,-1.395203 -1.40705,-0.375428 -2.185597,-0.78377 -2.548634,-1.336421 l -0.164299,-0.250462 2.917973,-0.09349 -3.504373,-4.459437 0.407408,-0.434125 c 0,0 -0.56703,-1.073278 -0.56703,-1.073278 0,0 1.262295,0.34262 1.262295,0.34262 l 0.370674,-0.398055 c 0,0 3.019489,1.624282 3.019489,1.624282 l -1.883424,-3.448263 0.455494,-0.245115 c 0,0 -0.412082,-1.174801 -0.412082,-1.174801 0,0 0.947055,0.776077 0.947055,0.776077 0,0 0.358026,-0.258857 0.358026,-0.258857 l 1.729099,1.972636 c 0.02837,-1.252633 0.02427,-2.505329 0.02204,-3.758154 0,0 0.294535,-6.92e-4 0.294535,-6.92e-4 0,0 0.563025,-0.8341808 0.563025,-0.8341808 z m -4.908256,3.9424936 c 0,0 0.332605,0.577717 0.332605,0.577717 l -0.862902,-0.479542 -0.591075,0.631814 c 0,0 -2.109835,-0.598415 -2.109835,-0.598415 l 0.789435,2.074435 c 0,0 -0.684579,0.669883 -0.684579,0.669883 l 2.672193,3.380141 c 0,0 -2.399697,0.04207 -2.399697,0.04207 2e-6,0.0643 0.169954,0.554204 0.37802,0.984459 0.553129,1.071671 1.287596,1.935359 2.407712,2.405699 0.296133,0.131044 0.983625,0.355323 1.528111,0.498238 0.544487,0.142924 1.198187,0.351954 1.451974,0.464179 0.429563,0.189948 0.976438,0.615486 0.976438,0.760049 0,0.111701 -1.422887,0.664621 -2.055734,0.798781 -0.775971,0.164505 -1.967105,0.159465 -2.598726,-0.01069 -1.189989,-0.320562 -2.158249,-0.96868 -2.734304,-1.83132 -0.210824,-0.315723 -0.426108,-0.692143 -0.426108,-0.731336 0,0 2.008985,-0.245107 2.008985,-0.245107 0,0 -3.096962,-6.841099 -3.096962,-6.841099 0,0 1.173466,-0.516266 1.173466,-0.516266 0,0 -0.642502,-1.668362 -0.642502,-1.668362 0,0 1.071281,0.436787 1.071281,0.436787 0,0 1.074622,-2.156583 1.074622,-2.156583 0,0 2.337582,1.354463 2.337582,1.354463 z m 12.076622,-1.277655 c 0,0 0.707285,1.544135 0.707285,1.544135 0,0 -1.944201,0.560353 -1.944201,0.560353 L 29.4863,14.063948 c 0,0 -0.892287,0.468856 -0.892287,0.468856 0,0 0.260472,-0.571039 0.260472,-0.571039 0,0 2.392349,-1.319064 2.392349,-1.319064 z m 0.750029,1.655675 c 0,0 0.259807,0.550335 0.259807,0.550335 0,0 1.086641,-0.410081 1.086641,-0.410081 l -0.617122,1.664353 1.168791,0.528961 c 0,0 -3.107649,6.740916 -3.107649,6.740916 0,0 2.003644,0.254462 2.003644,0.254462 0,0 -0.006,0.242653 -0.263815,0.640494 -0.431692,0.666129 -1.108536,1.21144 -2.030357,1.6323 -0.592203,0.270374 -0.749305,0.299503 -1.773221,0.330603 -0.894868,0.02718 -1.258429,-0.0025 -1.785914,-0.145602 -0.364295,-0.09885 -0.950119,-0.310105 -1.3017,-0.469517 -0.628075,-0.284785 -0.636368,-0.293241 -0.470191,-0.476864 0.257082,-0.284077 1.070832,-0.634884 1.966244,-0.847546 2.510368,-0.596206 3.442937,-1.258327 4.31117,-3.060887 0.229364,-0.476196 0.417424,-0.955739 0.417424,-0.955739 l -2.529263,-0.004 c 0,0 2.665511,-3.299993 2.665511,-3.299993 l -0.669217,-0.735335 c 0,0 0.669217,-1.936852 0.669217,-1.936852 z"
     style="fill:#ffffff;fill-opacity:1;stroke:none"
     id="path6825"
     inkscape:connector-curvature="0" />
</svg>
