<?xml version="1.0" encoding="UTF-8" standalone="no"?>
<!-- Created with Inkscape (http://www.inkscape.org/) -->

<svg
   xmlns:dc="http://purl.org/dc/elements/1.1/"
   xmlns:cc="http://creativecommons.org/ns#"
   xmlns:rdf="http://www.w3.org/1999/02/22-rdf-syntax-ns#"
   xmlns:svg="http://www.w3.org/2000/svg"
   xmlns="http://www.w3.org/2000/svg"
   xmlns:sodipodi="http://sodipodi.sourceforge.net/DTD/sodipodi-0.dtd"
   xmlns:inkscape="http://www.inkscape.org/namespaces/inkscape"
   version="1.1"
   width="48"
   height="48"
   id="svg43960"
   inkscape:version="0.48.1 r9760"
   sodipodi:docname="US:NB_recreation_1.5.svg">
  <sodipodi:namedview
     pagecolor="#ffffff"
     bordercolor="#666666"
     borderopacity="1"
     objecttolerance="10"
     gridtolerance="10"
     guidetolerance="10"
     inkscape:pageopacity="0"
     inkscape:pageshadow="2"
     inkscape:window-width="1278"
     inkscape:window-height="996"
     id="namedview25"
     showgrid="true"
     inkscape:showpageshadow="false"
     inkscape:zoom="16.895833"
     inkscape:cx="24"
     inkscape:cy="24"
     inkscape:window-x="1"
     inkscape:window-y="27"
     inkscape:window-maximized="0"
     inkscape:current-layer="svg43960">
    <inkscape:grid
       type="xygrid"
       id="grid4052"
       empspacing="5"
       visible="true"
       enabled="true"
       snapvisiblegridlinesonly="true" />
  </sodipodi:namedview>
  <defs
     id="defs43962" />
  <metadata
     id="metadata43965">
    <rdf:RDF>
      <cc:Work
         rdf:about="">
        <dc:format>image/svg+xml</dc:format>
        <dc:type
           rdf:resource="http://purl.org/dc/dcmitype/StillImage" />
        <dc:title></dc:title>
      </cc:Work>
    </rdf:RDF>
  </metadata>
  <g
     id="g4083">
    <g
       id="g4079">
      <path
         sodipodi:type="inkscape:offset"
         inkscape:radius="1.1245376"
         inkscape:original="M 2 2 L 10 46 L 38 46 L 46 2 L 2 2 z "
         style="fill:#000000;fill-opacity:1;fill-rule:nonzero;stroke:none"
         id="path4077"
         d="M 1.875,0.875 A 1.12465,1.12465 0 0 0 0.90625,2.1875 l 8,44 A 1.12465,1.12465 0 0 0 10,47.125 l 28,0 a 1.12465,1.12465 0 0 0 1.09375,-0.9375 l 8,-44 A 1.12465,1.12465 0 0 0 46,0.875 l -44,0 a 1.12465,1.12465 0 0 0 -0.125,0 z"
         transform="matrix(0.99522718,0,0,0.99455722,0.11527891,0.13149097)" />
      <path
         d="m 1.9999998,2.0000082 44.0000002,0 -8,43.9999998 -28.0000002,0 z"
         id="rect44794"
         style="fill:#ffffff;fill-opacity:1;fill-rule:nonzero;stroke:none"
         inkscape:connector-curvature="0" />
    </g>
    <path
       d="m 26.341636,35.721487 0,0.0094 0.01953,0 0.01959,0.02028 0.01014,0.0094 0.01883,0.02098 0.01089,0.01953 0.01084,0.01014 0.01883,0.0094 0.01159,0.01014 0.0087,0.01014 0.02028,0.01089 0.02028,0.01953 0.02098,0 0.0087,0.01953 0.01014,0.01014 0.01953,0.01953 0.01014,0 0.01159,0.01159 0.01808,0.02967 0.02098,0.0094 0,0.0094 0.0087,0.01084 0.01959,0 0,0.0094 0.01014,0.0094 0.02028,0.01089 0.01089,0.0094 0.01014,0.01084 0.01953,0 0.01084,0 0.01883,0.01883 0.01159,0.0109 0.01808,0 0.02173,0.01014 0.008,0.0094 0.01159,0 0.01808,0.01014 0.02098,0.01014 0.02028,0.01014 0.01959,0.01014 0.02098,0.0094 0.02028,0.01084 0.0094,0.0094 0.01883,0.02028 0.03118,0.01014 0.01014,0.02028 0.01953,0 0.01014,0.02967 0.01014,0 0.0094,0 0.02104,0.02028 0.01953,0 0.03042,0.0094 0.02098,0.0094 0.01808,0.0109 0.03042,0.0094 0.01084,0 0.01883,0.0094 0.01234,0.01159 0.01808,0 0.01014,0.0094 0.01953,0 0.01159,0.01953 0.01808,0 0,0.01014 0.01014,0 0.02028,0.01014 0,0.01014 0.04056,0.0094 0.01014,0.01089 0.01883,0 0.01089,0.0094 0.01953,0.0094 0.01159,0 0.008,0.01089 0.01084,0 0.04056,0.02028 0.0079,0 0.02173,0.0094 0.0094,0 0.02967,0.01014 0,0.01014 0.02173,0 0.0094,0.01014 0.02028,0.0094 0.01808,0.02028 0.01084,0 0.01883,0.01014 0.03042,0.02028 0.02028,0 0.01159,0.0094 0.01808,0.01014 0.02098,0.01014 0.01014,0.01014 0,0.0094 0.02967,0 0.01959,0 0.02028,0 0.01014,0 0.02897,0 0.01159,0.01089 0.01883,0 0.01084,0 0.02098,0 0,0.01953 0.01883,0 0.01883,0.01014 0.02173,0.0094 0.0079,0.01014 0.01084,0.0109 0.01959,0.0094 0.01014,0 0.01953,0 0.01159,0 0.01014,0.0094 0.01808,0.01159 0.02028,0 0.01089,0.0087 0.01953,0 0.01014,0.01014 0.02098,0.01089 0,0.0087 0.02028,0.01089 0.01808,0.01953 0.01159,0 0.0094,0.01089 0.0087,0.01883 0.01159,0 0.01883,0.01089 0.0109,0.0094 0.01883,0 0.01089,0.0094 0.01014,0.02098 0.01959,0 0.01014,0.01014 0.02104,0.01014 0.0094,0 0.01883,0.0094 0.01089,0.01014 0.02967,0 0.02028,0.0094 0.0094,0.01014 0.02028,0.01014 0.01014,0 0.01953,0 0.01014,0.01014 0.01084,0.0094 0.01959,0 0.01014,0 0.02028,0 0,0.01084 0.02028,0.0094 0.0094,0.0109 0.01014,0 0.01953,0.0094 0,0.0094 0.01014,0.01084 0.01159,0.01014 0.01883,0 0.01014,0.0094 0.0087,0.01089 0.01089,0.0087 0.01084,0 0,0.02098 0.01014,0 0,0.01959 0,0.01014 -0.01014,0.0094 0,0.01084 -0.01084,0.0094 -0.01089,0.02028 -0.0087,0.01014 -0.01014,0.01014 -0.0094,0.0094 -0.0094,0.01014 -0.01159,0.02028 -0.01014,0.0094 -0.0087,0.01084 0,0.01883 -0.02098,0.01089 0,0.01014 -0.01959,0 -0.01883,0 -0.01159,0.01014 -0.01808,0 -0.01159,0.0094 -0.02098,0 -0.01953,0 -0.01014,0 -0.02028,0 -0.01959,0 -0.01953,0 -0.02028,0 -0.01959,0 -0.01953,0 -0.02104,0 -0.01883,0 -0.02098,0.01014 -0.01089,0 -0.01883,0 -0.02973,0 -0.02028,0 -0.0094,0 -0.02028,0 -0.02098,0 -0.01959,0 -0.02028,0 -0.0094,0 -0.02098,0 -0.02028,0 -0.01808,0 -0.01014,0 -0.01953,0.01014 -0.02173,0 -0.0079,0.01953 -0.01159,0 -0.01883,0 -0.01089,0 -0.01883,0 -0.02243,0 -0.01958,0 -0.0087,0 -0.01953,0 -0.02173,0 -0.02897,0 -0.01014,0 -0.02028,0 -0.0087,0 -0.02173,0 -0.01883,0 -0.01958,0 -0.02098,0 -0.02028,0 -0.02967,0 -0.02098,0 -0.0087,0 -0.05071,0 -0.01808,0 -0.01234,0 -0.01883,0 -0.01159,0 -0.01808,0 -0.01089,0 -0.01883,0 -0.02973,0 -0.02173,0 -0.01958,0 -0.01014,0 -0.02028,0 -0.01883,0 -0.02967,0 -0.02098,0 -0.02028,0 -0.02828,0 -0.01159,0.01014 -0.01084,0.01014 -0.02967,0.01014 0,0.01014 -0.01959,0.0094 -0.01014,0 -0.0087,0.01084 -0.01084,0 -0.01014,0 -0.02028,0.0094 0,0.0094 -0.01808,0 -0.02098,0 -0.01159,0 -0.01883,0 -0.01084,0 -0.01883,0 -0.02028,0 -0.02028,0 -0.01953,0 0,-0.0094 -0.03042,0 -0.01959,-0.0094 -0.01953,0 -0.01014,-0.01084 -0.02098,0 -0.01883,-0.0094 -0.02098,0 -0.01014,-0.01014 -0.0094,0 -0.01959,-0.01014 -0.02967,-0.01014 -0.02173,0 -0.02967,0 -0.0087,0 -0.02098,0 -0.01953,-0.01014 -0.02103,0 -0.02028,-0.0094 -0.01808,0 -0.02028,0 -0.02098,0 -0.01808,0 -0.03042,0 -0.02098,0 -0.0087,-0.01014 -0.03257,0 -0.02897,0 -0.02028,0 -0.01883,-0.01014 -0.02173,-0.01014 -0.01883,0 -0.01883,0 -0.02173,0 -0.01883,0 -0.02173,0 -0.0094,-0.0094 -0.0094,0 -0.02028,0 -0.02967,-0.01014 -0.02098,0 -0.03836,0 -0.02967,0 -0.02173,0 -0.01883,-0.01014 -0.02098,0 -0.0087,-0.0109 -0.02967,-0.0094 -0.02173,0 -0.01953,0 -0.01014,-0.0094 -0.01959,0 -0.01014,0 -0.01959,-0.01084 -0.01953,0 -0.01014,0 -0.02098,0 -0.0087,0.01084 0.01883,0.0094 0,0.02028 0.02098,0.01014 0.02967,0.01953 0.01953,0 0.01959,0.02028 0.01014,0 0.01953,0.01014 0.02173,0.01953 0.02967,0.02028 0.01808,0.01014 0.01159,0.02028 0.01883,0 0.01234,0.01884 0.01808,0.01089 0.02967,0.0094 0.01159,0.02098 0.0094,0.0094 0.0087,0.0109 0.01159,0.01883 0.0094,0.01084 0,0.0094 0.02028,0.01014 0.01883,0.01014 0.02028,0.01953 0.02173,0 0.01959,0.01953 0.0087,0.01089 0.02173,0.0094 0.02898,0.01014 0.01959,0.01084 0.01084,0 0.03042,0 0,0.01883 0.01808,0 0.04126,0.01089 0.04056,0 0.01883,0 0.01953,0 0.01014,0.0094 0,0.0094 0.01159,0.01089 0,0.0094 0.0094,0.02098 0.0087,0.01953 0.01159,0.02967 0,0.01014 0.01808,0.02028 0.01234,0.02028 0.01883,0.01883 0.01014,0.01089 0.01953,0.0094 0.01084,0.01014 0.01014,0.02028 0.02028,0 0.0094,0 0.01959,0.02028 0.01084,0 0.01959,0.01953 0.01014,0 0.01959,0 0,0.01014 0.02967,0.0094 0.01084,0.0109 0.02973,0.01014 0.01014,0 0.02967,0.0087 0.0087,0.01084 0.01089,0.01014 0.03042,0.01014 0.0094,0.0094 0.02028,0.01014 0.01014,0.01014 0.0094,0.01014 0.02104,0.02028 0.0087,0.0094 0,0.0094 0.02098,0.01084 0.0087,0.01014 0.02098,0.01953 0.01159,0.02028 0.01808,0.01014 0.02028,0.01953 0.01014,0.01014 0.01084,0.01014 0.0087,0.01953 0.02248,0 0.0072,0.02098 0.01084,0.0087 0.01883,0 0.01084,0.01089 0.01159,0.01014 0.01808,0 0.02173,0.0094 0.02967,0.01014 0.03842,0.02098 0.02098,0.0087 0.0094,0 0.02173,0.01014 0.008,0.01089 0.02173,0 0.008,0 0.02173,0.0094 0.0079,0.01014 0.02173,0.01014 0.02967,0.01953 0.01883,0 0.02173,0.01953 0.02028,0 0.0094,0.01159 0.0087,0.0087 0.02098,0.01014 0.0087,0 0.01159,0.01089 0.0094,0.0094 0.01953,0 0,0.0094 0.02173,0.01084 0.02967,0 0.0094,0.0094 0.02897,0.0094 0.02173,0.01089 0.0087,0 0.02028,0.0094 0.01014,0.01089 0.02897,0 0.02173,0.01953 0.01953,0.01014 0.0087,0 0.01234,0.0094 0.0072,0.01014 0.02243,0 0.02973,0.01084 0.0079,0 0.01084,0.01953 0.01959,0 0.01014,0.01014 0.01953,0.0094 0.01159,0 0.01808,0.01089 0.02248,0 0.01883,0.0094 0.01953,0 0.01014,0.0094 0.02098,0.0109 0.02028,0 0.01808,0.0094 0.02098,0 0.02028,0.01014 0.01883,0.01084 0.02098,0 0.0087,0 0.02098,0.01953 0.01959,0.01014 0.01014,0 0.02104,0 0.0094,0.01953 0.01014,0 0.01959,0 0.02028,0.01014 0.02967,0.0094 0.0094,0 0.02028,0.01089 0.02098,0 0.01883,0.01014 0.02248,0 0.01808,0 0.02028,0.0087 0.01014,0 0.01959,0 0.02967,0.01089 0.02173,0 0.02898,0.01014 0.01958,0 0.01084,0.01014 0.01883,0 0.02967,0.0094 0.01089,0.01014 0.01883,0 0.01159,0.01014 0.01808,0 0.01089,0.01014 0.01084,0 0.01959,0.02028 0.01953,0 0.01089,0.0094 0.01014,0.0094 0.01883,0.01089 0.02098,0 0.03118,0.0094 0.01883,0 0.0094,0.0109 0.03118,0 0.01959,0 0.01883,0 0.02098,0.0094 0.02028,0 0.01953,0.01014 0.01959,0 0.02028,0 0.01084,0.01014 0.01959,0 0.02028,0 0.01808,0 0.01159,0 0.01883,0 0.01234,0 0.01808,0 0.02967,0 0.02173,0 0.03042,0 0.01883,0 0.01883,0 0.01084,0 0.02967,0 0.01159,0.0094 0.01808,0 0.02173,0 0.02897,0 0.02028,0.01014 0.01883,0 0.0109,0 0.01953,0.01014 0.01014,0.01014 0.01014,0 0.02098,0 0.0094,0.02028 0.0087,0.0094 0.02098,0 0,0.02028 0.0094,0 0,0.02028 0.02028,0.0094 0.01159,0.01014 0.0087,0.01014 0.0094,0.01014 0.01084,0.0094 0.01883,0.02028 0.02028,0.01089 0.0094,0.01953 0.02173,0 0.0094,0.01014 0.01883,0.0094 0.02173,0.01014 0.01883,0 0.01159,0.0109 0.0087,0.0087 0.02028,0 0.01883,0.01089 0.01159,0.0094 0.01084,0.01014 0.0087,0.01014 0.02028,0.01014 0.0094,0 0,0.0094 0.02173,0.01089 0.008,0 0.02173,0.01883 0.0079,0 0.01014,0.01084 0.01159,0 0.0087,0.0094 0.02098,0 0,0.01089 0.01953,0 0,0.01014 0.01959,0.01953 0.01014,0.0094 -0.01014,0.01014 -0.0094,0.02028 0,0.02028 0,0.0094 -0.01883,0.01089 -0.01084,0.0094 -0.01159,0 -0.01808,0 0,0.0094 -0.02173,0 -0.01959,0 -0.01014,0 -0.01959,0 -0.01014,0 -0.01883,0 -0.01958,0 -0.01084,0 -0.01883,0.01089 -0.01159,0 -0.02028,0 -0.0087,0.0094 -0.02173,0 -0.01959,0 -0.01084,0 -0.01883,0 -0.0094,0 -0.02173,0 -0.0094,0 -0.02028,0 -0.01883,0.0094 -0.01084,0.01159 -0.01808,0 -0.04126,0 -0.02098,0 -0.01808,0 -0.03118,0 -0.02967,0 -0.01959,0 -0.01014,0 -0.02028,0 -0.02897,0 -0.02173,0 -0.01808,0 -0.02243,0 -0.01883,0 -0.01084,0 -0.01883,0 -0.01159,0.0094 -0.0072,0.01014 -0.02248,0 -0.01808,0 -0.01159,0.01014 -0.0079,0 -0.02173,0.0094 -0.0094,0.01089 -0.02098,0 -0.01883,0 -0.02028,0 -0.0094,0.0094 -0.02028,0 -0.01959,0 -0.01953,0 -0.02098,0 -0.02967,0 -0.01159,0 -0.02973,0 -0.01883,0 -0.01089,0.0094 -0.0087,0 -0.02173,0 -0.0094,0 -0.01953,0.01014 -0.01958,0 -0.01084,0.01089 -0.0094,0 -0.02098,0 -0.01883,0.0094 -0.02098,0 -0.0079,0 -0.02173,0.01014 -0.0094,0 -0.02173,0.01014 -0.0079,0 -0.02173,0 -0.02967,0.01014 -0.0079,0 -0.02173,0.0094 -0.01883,0 -0.01084,0 -0.01959,0 -0.01953,0 -0.02098,0 -0.01014,0.01014 -0.02967,0.01014 -0.02967,0 -0.0087,0.01014 -0.01159,0 -0.02973,0 0,0.02028 -0.02098,0 -0.01953,0 -0.01014,0 -0.0094,0.0094 -0.02028,0 -0.01014,0.0094 -0.01953,0.01089 -0.02028,0 -0.01959,0 -0.01014,0 -0.01883,0 -0.01159,0 -0.01883,0 -0.03187,0.0094 -0.02967,0 0,0.0109 -0.0094,0 -0.0094,0.01014 -0.02028,0.0094 -0.0094,0.02973 0,0.02028 -0.02028,0 0,0.01014 0,0.01953 -0.0094,0 -0.02028,0 -0.01089,0.01089 -0.01014,0.0094 -0.01014,0 -0.03042,0 -0.0079,0.01014 -0.02249,0.01014 -0.01808,0 -0.01953,0 -0.02173,0 -0.03042,0.0094 -0.01883,0 -0.01883,0 -0.01084,0 -0.03118,0 -0.0087,0 -0.01953,0.01014 -0.01014,0 -0.02098,0 -0.01014,0.01014 -0.01953,0 -0.02028,0.01014 -0.0087,0 -0.04056,0.01089 -0.01014,0.0094 -0.02098,0 -0.01808,0.0094 -0.01159,0.0109 -0.02967,0 -0.0094,0 -0.03042,0.0094 -0.01953,0 -0.02098,0 -0.0087,0 -0.05215,0 -0.02897,0 -0.03042,0 -0.02897,0 -0.01883,0 -0.02173,0 -0.02028,0 -0.02897,-0.0094 -0.01959,0 -0.02098,-0.0109 -0.02028,0 -0.01014,0 -0.01808,0 -0.01159,-0.0094 -0.01084,0 -0.01883,0 -0.01084,0 -0.01959,0 -0.01014,0 -0.02967,0 -0.02028,0 -0.0094,0 -0.02967,0 -0.01159,0 -0.01883,0.0094 -0.01953,0 -0.01014,0.0109 -0.02028,0 -0.01014,0 -0.01014,0 -0.01953,0.0094 -0.01883,0 -0.02248,0.01014 -0.0087,0 -0.01953,0 -0.01014,0 -0.02098,0 -0.01014,0 -0.01959,0 -0.02028,0 -0.0094,0 -0.01959,0 -0.01014,0 -0.01959,0 -0.02173,0 -0.0087,0 -0.02098,0 -0.0087,0 -0.02098,0 -0.01953,0 -0.02104,-0.01014 -0.02028,0 -0.01808,0 -0.02028,0 -0.02098,0 -0.01808,0 -0.02173,0 -0.01953,0 -0.01014,-0.0094 -0.01959,0 -0.02173,0 -0.02897,0 -0.0087,0 -0.02173,0 -0.0087,0 -0.02173,0 -0.0087,0 -0.02028,0 -0.01959,-0.0109 -0.01084,0 -0.01883,0 -0.0094,-0.0094 -0.02173,0 0,-0.0094 -0.02028,0 0.01089,0.01883 0,0.0109 0.0094,0.01953 0.0094,0 0.01234,0.01953 0.0094,0.02098 0.01883,0.0087 0.01084,0.01084 0.01089,0.0094 0.0087,0.01014 0.01014,0.01014 0.01014,0.01014 0.01959,0.0094 0.01084,0.01089 0.01883,0.0087 0.01159,0.01159 0,0.0094 0.0087,0.0094 0.0094,0.01089 0,0.01883 0.01084,0 0.0087,0.01089 0.01159,0.01883 0,0.01159 0.01014,0.0094 0.0109,0.0094 0.0087,0.01089 0.02098,0.0094 0.0087,0.02028 0.02173,0.0094 0.01808,0.01089 0.01159,0 0.0094,0.01953 0.02028,0.01014 0.008,0 0.01014,0.02028 0.01234,0 0.0079,0.0094 0.01089,0.01014 0.01014,0.01089 0.03042,0.01883 0.01014,0 0.02028,0.01089 0.0094,0.0094 0.01959,0.01014 0.01084,0.01014 0.008,0.0094 0.01159,0.01089 0.01014,0.0094 0.008,0.02028 0.01159,0 0.0094,0.01014 0.01014,0.02028 0.02098,0 0.0087,0 0.02098,0 0.02967,0.01953 -0.01959,-0.01014 0.01959,0.01014 0.01014,0.01014 0.01959,0 0,0.01953 0.02028,0 0.01014,0.0109 0.01953,0.0094 0.01014,0 0.01953,0.01014 0.02104,0.01014 0.0087,0 0.01084,0.0094 0.03042,0 0.0094,0.01014 0.01159,0.01014 0.01808,0 0,0.01014 0.03042,0 0.01953,0.01953 0.02248,0 0.0072,0.0109 0.02098,0.0094 0.0087,0.01014 0.02242,0.01014 0,0.0094 0.02828,0.01014 0,0.01014 0.02028,0 0.01014,0.01014 0.01953,0.02028 0.02098,0.0094 0.0087,0.0109 0.02098,0 0.0094,0.01953 0.01014,0 0.01159,0.01014 0.008,0.0094 0.01084,0.01014 0.01084,0 0.008,0.01089 0.02173,0.0087 0.01883,0.02028 0.02028,0.0094 0.0087,0.01084 0.01159,0.01014 0.01883,0 0.01234,0.02028 0.02967,0 0.0094,0.01883 0.01953,0 0.01014,0.01089 0.02028,0 0.0094,0 0.01953,0.0094 0.01014,0.01014 0.02028,0 0.0094,0 0.02098,0.01084 0.02028,0.01953 0.0087,0 0.02173,0.0094 0.01883,0.01014 0.01014,0 0.01014,0.01014 0.0094,0.01014 0.01959,0 0.01159,0.01014 0.01883,0.01014 0.01084,0.0094 0.0087,0.01089 0.01234,0.0094 0.01883,0 0.01084,0.0094 0.01883,0.01089 0.02967,0.0094 0.02973,0.01014 0.01953,0.01014 0.02173,0 0.0079,0.01014 0.02248,0 0.02897,0.01014 0.01959,0 0.02967,0 0.02098,0 0.0087,0.01014 0.01159,0 0.01808,0.0087 0.02098,0.01159 0.0094,0.0094 0.02098,0 0.0087,0.0094 0.01089,0 0.02098,0.01089 0.01883,0.01014 0,0.0087 0.01159,0.01089 0.01883,0 0.01014,0.01014 0.01959,0 0.01084,0 0.01883,0.01014 0.02028,0.01014 0.02028,0 0.03042,0 0.0087,0 0.02098,0.0087 0.02973,0 0.01159,0.01089 0.0087,0 0.01014,0.01014 0.01959,0 0.02967,0 0.01014,0 0.02098,0.01014 0.02822,0.0094 0.02173,0 0.01014,0.01014 0.0087,0.0094 0.02173,0 0.0079,0.01014 0.02173,0.01014 0.0079,0 0.02173,0.01084 0.01883,0 0.01084,0.01959 0.01959,0 0.01159,0 0.0079,0.01014 0.01089,0.0094 0.02897,0 0,0.01014 0.02098,0 0.0094,0 0.02173,0 0.02822,0 0.0094,0 0.03042,0 0.02967,0.02028 0.01089,0 0.01883,0 0.01159,0 0.01953,0.01089 0.01959,0 0.02028,0.0087 0.01084,0.01089 0.02973,0 0.01014,0 0.01808,0 0.03042,0.01014 0.02098,0 0.0094,0.0094 0.02173,0 0.02967,0 0.03042,0.01014 0.0072,0.01014 0.01159,0 0.01084,0 0.008,0.0094 0.01084,0 0.01883,0.01014 0.01084,0 0.01959,0 0.02173,0.01014 0.01959,0 0.01014,0.0094 0.0094,0 0.0087,0.01159 0.01159,0 0.01883,0.0094 0.01089,0.0094 0.01953,0.01089 0.01014,0 0.01883,0.01883 0.01234,0 0.01808,0.01089 0.01159,0.0094 0.01883,0 0.01084,0.01014 0.0094,0.01089 0.02028,0 0.03118,0.0094 0.0079,0.01014 0.02028,0 0.0094,0.0094 0.02173,0 0.0094,0.01014 0.01883,0.01014 0.01084,0 0.01959,0 0.01014,0.01014 0.01159,0 0.01808,0.0094 0.01084,0 0.03042,0.01089 0.01953,0 0.01089,0.0094 0.02897,0.0094 0.01959,0.01089 0.02173,0 0.01808,0.02028 0.01159,0 0.01808,0 0.01159,0.0094 0.01953,0 0.01014,0.01014 0.01959,0 0.01084,0.01089 0.02967,0.0094 0.0094,0.0094 0.02028,0 0.01014,0.01089 0.02028,0 0.01014,0.0087 0.01953,0 0.01959,0 0.01014,0 0.01089,0.0109 0.01953,0 0.02028,0.01014 0.02028,0 0.01808,0 0.02248,0 0.01883,0 0.03042,0.0094 0.01883,0.01089 0.01084,0.0094 0.02028,0 0.01883,0 0.01089,0 0.03112,0 0.01883,0.0094 0.01959,0.01089 0.02098,0 0.01883,0 0.01953,0 0.0094,0 0.01159,0.01014 0.01883,0 0.01234,0.01953 0.01808,0 0.02173,0.01014 0.01953,0.01014 0.02967,0 0.02897,0.01014 0.01084,0.0087 0.0087,0 0.02098,0 0.0087,0.01084 0.02248,0.01014 0.0094,0 0.0087,0.0094 0.02173,0 0.01953,0 0.0094,0 0.02028,0.01014 0.02973,0 0.01953,0.01084 0.02967,0 0.02098,0 0.02028,0 0.0094,0 0.01959,0 0.01014,0 0.02028,0.01959 0.0094,0 0.01159,0.01014 0.0087,0.01014 0.02098,0.0094 0.0087,0.01014 0,0.02028 0.02173,0 0.0087,0.01014 0.02028,0 0,0.0094 0.01959,0 0.01084,0.01014 0.0087,0.0094 0.02173,0 0.01014,0.01089 0.0079,0.0094 0.02173,0.0109 0.0079,0.0094 0.02173,0 0.0094,0.01014 0.01014,0.01953 0,0.01014 0.01084,0.01014 0,0.0094 0.0079,0.01084 0.0109,0.01014 0.01084,0.0094 0.008,0.01089 0,0.0094 0.02173,0.0094 0.0087,0.01084 0.01159,0.0094 0,0.02028 0.01953,0.01014 0.0087,0.01014 0,0.01953 0.02173,0 0.0094,0 0,0.02028 0.01014,0.0094 0.0094,0 0.02098,0.01089 0.0094,0.0094 0,0.01014 0.0094,0.01014 0.01014,0.02028 0,0.01953 0,0.01953 -0.01959,0.01014 0,0.01089 -0.0094,0.0094 -0.02098,0.01089 -0.0094,0 -0.01959,0 -0.01014,0.0094 -0.01159,0 -0.01808,0 -0.01014,0 -0.03118,0 -0.01883,0 -0.02173,0.0094 -0.0079,0.01084 -0.02098,0 -0.01953,0 -0.01159,0 -0.01953,0.01014 -0.01014,0 -0.01808,0 -0.01159,0 -0.01883,0.0087 -0.01084,0 -0.01959,0 -0.02028,0 -0.02098,0 -0.0094,0 -0.02028,0.01159 -0.0094,0 -0.02028,0.0094 -0.0094,0.02028 -0.02028,0.0087 -0.01014,0.01014 -0.01959,0.01089 -0.02098,0 -0.0087,0.02028 -0.02098,0 0,0.01014 -0.01808,0 -0.01159,0 -0.01953,0 -0.01089,0.01953 -0.01883,0 -0.01014,0 -0.01014,0.01014 -0.0094,0.0087 -0.01953,0 -0.01014,0.01089 -0.02028,0.01014 0,0.01014 -0.02028,0.01014 -0.02028,0 -0.05071,0.02967 -0.01883,0.0094 0.01014,0 0.0087,0 0.01014,0.01014 0.01953,0 0,0.01014 0.02967,0 0.01159,0.01014 0.02028,0.01014 0.0087,0 0.01159,0.0094 0,0.02028 0.01014,0 0.01953,0.01014 0,0.01014 0,0.03042 -0.01084,0.0094 0,0.01084 0,0.01883 -0.0087,0.03042 -0.01014,0.01014 0,0.01014 0,0.02973 -0.01159,0.0094 -0.0087,0.01089 -0.02028,0.01014 -0.01159,0 -0.01883,0 -0.01959,0 -0.02967,0.01014 -0.01014,0 -0.01953,0 -0.01014,0 -0.01953,0 -0.02973,0 -0.02243,0 -0.01014,0 -0.02028,0.0094 -0.01808,0 -0.01084,0 -0.01883,0.01014 -0.02098,0 -0.0087,0.01014 -0.02098,0 -0.0087,0 -0.02098,0 -0.01014,0 -0.02028,0 -0.0094,0 -0.01014,0.0094 -0.03987,0 -0.01234,0 -0.02822,0.0094 -0.0087,0 -0.02248,0 -0.01808,0 -0.04056,0 -0.01953,0 -0.02098,0 -0.03118,0.02098 -0.0079,0 -0.02173,0 -0.01883,0.01014 -0.02028,0 -0.02028,0 -0.02967,0 -0.01014,0 -0.03912,0 -0.02967,0 -0.02173,0 -0.0079,0 -0.02173,0 -0.01959,0 -0.01014,0 -0.0094,0 -0.02028,0 -0.01953,0 -0.01883,0 -0.01159,0.0094 -0.02028,0.01014 -0.0087,0 -0.02173,0 -0.01959,0 -0.01084,0.01089 -0.0087,0 -0.01959,0 -0.0094,0.0087 -0.01234,0 -0.01808,0 -0.01953,0.01014 -0.02173,0 -0.01808,0 -0.02098,0.01089 -0.02028,0 -0.02098,0 -0.03912,0 -0.02897,0.0094 -0.02173,0 -0.01883,0.01014 -0.02028,0 -0.02897,0 -0.02173,0 -0.01808,0 -0.01159,0 -0.02967,0 -0.01883,0 -0.01084,0 -0.01883,0 -0.03042,0 -0.02173,0 -0.0079,0 -0.03118,0 -0.02098,0 -0.01883,0 -0.02028,0 -0.01953,0 -0.01959,0.01089 -0.01014,0.0087 -0.03112,0.01089 -0.0094,0.0094 -0.01014,0 -0.01953,0.0094 0,0.01159 -0.02028,0 -0.02098,0 -0.01883,0 -0.01959,0 -0.02173,0 -0.0094,0 -0.01953,0 -0.01959,0 -0.01084,0 -0.01953,0 -0.01959,0 -0.01014,-0.01159 -0.02098,-0.0094 -0.0079,0 -0.01159,0 -0.01014,-0.0094 -0.0094,0 -0.02173,0 -0.01808,0 -0.01159,0 -0.01883,0 -0.0109,0 -0.01883,0 -0.01953,0 -0.01014,0 -0.02173,0 -0.0087,0 -0.01953,0 -0.02098,0 -0.01014,0 -0.01953,0 -0.01014,0 -0.01959,0 -0.01014,0 -0.02028,0 -0.01808,0 -0.01159,0 -0.02098,0 0.01014,0.0094 0.01084,0 0.01159,0 0.01808,0.0094 0.01159,0.01159 0.0087,0 0.02028,0 0.0094,0.01883 0.02098,0 0.0087,0 0.02173,0.01089 0.01883,0 0.01014,0.0094 0.01959,0 0.01084,0.01014 0.01883,0 0.02967,0 0.02173,0 0.0079,0 0.02173,0.01014 0.01883,0 0.01084,0 0.01959,0 0.01159,0 0.01883,0.0094 0.02897,0 0.03042,0.01089 0.01084,0.0094 0.01089,0.0094 0.01883,0.01084 0.0094,0.01014 0.0094,0 0,0.01953 0,0.02028 0,0.01953 0,0.02028 -0.0094,0.01014 0,0.01014 0,0.01953 -0.0094,0.01014 -0.02973,0.01014 -0.01084,0.01014 -0.01953,0 -0.01089,0.01014 -0.01883,0 -0.02098,0 -0.0079,0 -0.03118,0 -0.02173,0.0094 -0.02967,0 -0.01883,0 -0.01089,0 -0.01883,0.01089 -0.01084,0 -0.02967,0.0094 -0.01958,0 -0.01014,0 -0.03042,0 -0.01883,0 -0.02098,0 -0.01959,0 -0.01014,0.0094 -0.02028,0.01084 -0.01808,0.0094 -0.01159,0 -0.01084,0 -0.02967,0.02098 -0.01014,0.0087 -0.02967,0.02098 -0.02028,0.01953 -0.01883,0.01014 -0.02173,0.0094 -0.01883,0.01014 -0.03042,0.01014 -0.01883,0.0094 -0.02098,0 -0.05001,0.02098 -0.02098,0 -0.01808,0.0094 -0.01159,0.01014 -0.01808,0 -0.01159,0 -0.01959,0 -0.02028,0.01014 -0.01953,0.01953 -0.03118,0 -0.01014,0 -0.04926,0.01014 -0.04056,0 -0.0079,0.01014 -0.02173,0 -0.008,0 -0.02243,0 -0.01959,0 -0.0087,0 -0.02967,0 -0.01159,0 -0.01959,0 -0.01953,0 -0.02028,0 -0.0087,0 -0.02173,0 -0.0087,0 -0.02028,0 -0.03042,0 -0.0087,0 -0.02173,0 -0.01014,0 -0.01883,0 -0.02028,0 -0.02098,0 -0.0087,0 -0.02973,0 -0.05215,0 -0.02897,0 -0.04056,0 -0.03767,0 -0.02173,0 -0.03042,0 -0.01883,0 -0.01089,0 -0.01953,0 -0.01883,0 -0.02173,0 -0.01808,0 -0.02243,0 -0.01883,0 -0.01808,0 -0.03118,0 -0.01084,0 -0.03042,0 -0.02967,0 -0.02098,0 -0.01883,0 -0.01084,0 -0.01883,0 -0.01089,0 -0.01953,0 -0.02028,0 -0.01959,-0.01014 -0.02028,-0.01014 -0.03911,0 -0.02028,0 -0.04056,0 -0.02028,0 -0.0094,0 -0.01959,0 -0.02967,0 -0.01084,0 -0.01959,0 -0.02967,0 -0.02098,0 -0.01953,0 -0.02104,0 -0.02028,0 -0.02967,0 -0.01808,0 -0.02173,0 -0.0079,0 -0.02173,0 -0.01953,0 -0.01014,0 -0.02967,0 -0.02028,0 -0.01084,0 -0.01808,0 0,-0.0094 -0.02173,0 -0.0087,-0.01014 -0.02173,-0.01014 -0.0087,0 -0.02028,0 -0.01959,0 -0.01084,0 -0.01883,0 -0.0094,0 -0.03112,0 -0.05001,0 -0.02098,0 -0.0087,-0.01014 -0.02098,0 -0.01953,0 -0.01014,-0.0094 -0.01808,0 -0.02248,0 -0.0087,-0.01014 -0.02098,-0.01089 -0.0087,0 -0.02098,0 -0.02028,0 -0.01014,0 -0.0079,0.01089 0,0.01014 0,0.01953 0,0.02028 0,0.0094 -0.01159,0.02028 0,0.02967 -0.01014,0 0,0.02098 -0.01959,0 -0.01014,0.0094 -0.0094,0.01014 -0.01014,0 -0.01953,0 -0.01014,0 -0.02967,0 0,0.01089 -0.02248,0 -0.01883,0.0087 -0.0094,0 -0.03042,0 -0.0094,0.01014 -0.02098,0 -0.01958,0 -0.01883,0 -0.02098,0 -0.01014,0 -0.01959,0 -0.01159,0 -0.01808,0 -0.01159,0 -0.01883,0 -0.01084,0 -0.01883,0 -0.02967,0 -0.02098,0 -0.02967,0 -0.03118,0 -0.01883,0 -0.01953,0 -0.02967,0 -0.0109,0 -0.01953,0 -0.02173,0 -0.0072,0 -0.02243,0 -0.0072,0 -0.02243,0 -0.01808,0 -0.01159,0 -0.02973,0 -0.01084,0 -0.01883,0 -0.01883,0 -0.02243,0 -0.0079,0 -0.02173,0 -0.02967,0.01014 -0.008,0.0094 -0.02173,0 -0.01953,0 -0.02098,0 -0.01883,0 -0.01953,0 -0.02098,0 -0.01014,0 -0.02897,0 -0.02173,0 -0.01883,0 -0.02028,0 -0.02897,0 -0.02098,0 -0.01953,0 -0.02098,0 -0.03042,0 -0.0094,0 -0.01959,0 -0.01883,0 -0.02098,0 -0.01014,0 -0.02028,0 -0.0094,0 -0.02028,0 -0.01953,0 -0.02967,0 -0.03118,0 -0.01953,0.01089 -0.01014,0.0094 -0.01014,0.02098 0,0.0087 -0.0094,0.01014 0,0.02028 0,0.02098 0,0.01953 0,0.01883 0,0.02098 0,0.02028 0,0.01883 0,0.02028 0,0.02028 0,0.02028 0,0.01953 0,0.01014 0,0.02098 0,0.01883 0,0.02028 0,0.02028 0,0.01883 0,0.02098 0.0094,0.01014 0.01014,0.01014 0.01953,0 0.01014,0.0094 0.02028,0 0.02098,0 0.008,0.01014 0.02173,0 0.01953,0 0.01014,0.01014 0.01883,0 0.01089,0 0.01953,0 0.01159,0.0094 0.0087,0 0.01953,0 0.01959,0.01014 0.01159,0 0.01014,0 0.01953,0.01014 0.02028,0 0.0094,0.01014 0.02098,0 0.0087,0.01014 0.02028,0.01014 0.01084,0 0.02028,0.01014 0.008,0.0094 0.02173,0 0.0094,0.01014 0.0094,0.01014 0.01014,0 0.01953,0.0094 0.01159,0.01014 0.0079,0.01089 0.01159,0 0.01883,0 0.02098,0.0094 0.01953,0 0.02973,0.0094 0.02098,0 0.01953,0 0.0109,0 0.01808,0 0.01228,0.01084 0.01883,0 0.01883,0.0094 0.01084,0 0.01089,0.01014 0.01883,0.01014 0.01159,0 0.0094,0.01014 0.01953,0.01014 0.01159,0 0.02967,0 0.0072,0 0.02173,0 0.03042,0 0.01953,0 0.01014,0 0.0087,-0.01014 0.02098,0 0.03042,0 0.0094,0 0.02028,0 0.01959,0 0.02967,0 0.02098,0 0.01953,0 0.01883,0 0.02098,0 0.0087,-0.01014 0.02098,-0.01014 0.02028,0 0.02098,-0.01014 0.01883,0 0.01959,0 0.01014,0 0.02028,0 0.03042,0 0.01953,0 0.0087,0 0.03118,0 0.01014,0 0.02098,0 0.01953,0 0.01959,0 0.01014,0 0.01959,0 0.02173,0 0.01808,0 0.02028,0 0.02098,0 0.01808,0 0.01159,0.01014 0.01883,0 0.01234,0.01014 0.01808,0.01014 0.01014,0.01014 0.01084,0 0,0.01953 0.02028,0 0.01808,0 0.01159,0 0.01883,-0.01014 0.01089,0 0.01883,0 0.02028,-0.0094 0.02173,0 0.0094,0 0.02967,-0.01014 0.01089,0 0.01883,0 0.01014,-0.01014 0.0087,0 0.02173,0 0.01883,-0.01014 0.02028,-0.01014 0.02028,0 0.0087,0.01014 0.01159,0.01014 0.01014,0.01014 0.01089,0.01014 0,0.01953 -0.01089,0.02028 -0.01014,0.01014 -0.01159,0.0094 -0.01959,0.01014 -0.0094,0.0109 0,0.0094 -0.0087,0.0094 -0.01159,0.01084 -0.01883,0.0094 -0.01084,0 -0.01958,0 -0.02028,0.0094 0.01014,0.01089 0.01883,0 0.02173,0.01014 0.0087,0 0.02173,0 0.01808,0 0.01959,0 0.01159,0.01014 0.02098,0 0.01883,0 0.01953,0 0.02967,0 0.02173,0 0.02967,0.01014 0.01808,0 0.01234,0.0094 0.01883,0 0.01883,0 0.02173,0 0.01883,0 0.02967,0 0.02173,0 0.01959,0 0.01808,0 0.02098,-0.0094 0.01014,-0.01014 0.01014,-0.01014 0.01959,0 0.01014,0 0.01089,-0.01014 0.02028,0 0.0094,0.01014 0.01014,0.01014 0,0.01953 0,0.01089 -0.01014,0.01884 -0.0094,0.01084 -0.01014,0.0094 -0.01014,0.01014 -0.01089,0.01014 -0.01883,0.01014 -0.01084,0 0,0.01014 -0.02028,0.0094 -0.0094,0 -0.01159,0.01014 -0.01808,0.01014 -0.01159,0.0094 -0.008,0.01089 -0.02173,0 -0.0087,0.01953 -0.0094,0 -0.01159,0.0109 -0.01883,0 -0.01084,0.0094 -0.01953,0 -0.02104,0 -0.02028,0.0094 -0.01014,0 -0.008,0.01084 -0.01159,0 -0.0087,0.0094 -0.02098,0 -0.01808,0.0094 -0.01159,0 -0.01883,0.01159 -0.02098,0 -0.01959,0 -0.02173,0 -0.0087,0 -0.02028,0 -0.0087,0.0094 -0.02173,0 -0.01953,0 -0.01959,0 -0.01014,0 -0.02973,0 -0.01084,0.0094 -0.01883,0 -0.02173,0 -0.0094,0 -0.02028,0.0109 -0.01883,0 -0.02028,0 -0.0094,0 -0.02028,0.0087 -0.02098,0 -0.01953,0 -0.01883,0 -0.02173,0 -0.01014,0 -0.02028,0 -0.01808,-0.0087 -0.02098,0 -0.02028,0 -0.01014,0 -0.01953,0 -0.01014,-0.0109 -0.01959,-0.0094 -0.01953,0 -0.02098,0 -0.0087,0 -0.02098,0 -0.01883,0 -0.02248,0 -0.0087,0.0094 -0.01953,0 -0.02028,0 -0.01014,0.0109 -0.0094,0 -0.02098,0.0087 -0.0087,0.01089 -0.02028,0 -0.02028,0 -0.01014,0.01014 -0.01014,0 -0.01959,0 -0.02028,0 -0.02967,0 -0.02098,0 -0.01883,0 -0.01084,0.0094 -0.0087,0.01014 -0.01014,0 -0.01084,0.01089 -0.01959,0.0087 -0.01014,0.01089 -0.01953,0.0094 -0.01084,0.0094 -0.0109,0 -0.0087,0.02098 -0.02098,0 -0.0087,0.01014 -0.01014,0.01014 -0.01084,0.0094 -0.0087,0.01014 -0.01089,0.01014 -0.01014,0.0094 -0.0094,0.01014 -0.02173,0.01014 -0.0072,0.0094 -0.01084,0.0109 -0.01159,0.01014 -0.01883,0.01014 -0.01084,0 -0.0087,0.0094 -0.02098,0 -0.01883,0 -0.02173,0 -0.0087,0 -0.02028,0 -0.0087,0.01014 -0.01229,0 -0.01808,0 -0.02173,0 -0.0087,0.01014 -0.02098,0 -0.01959,0 -0.02967,0 -0.02098,0 -0.01883,0 -0.01953,0 -0.02098,0 -0.02028,0 -0.01883,0 -0.02967,0 -0.02028,0 -0.02028,0 -0.01958,0 -0.02098,0 -0.01953,0 -0.02098,0 -0.0087,0 -0.02173,0 -0.01959,0 -0.01953,0 -0.02028,0 -0.01953,0 -0.02028,0 -0.01959,0 -0.01014,0 -0.0094,0 -0.02173,0.0094 -0.01808,0 -0.01089,0 -0.02028,0 -0.01953,0 -0.02028,0 -0.01953,0 -0.01959,0 -0.02098,0 -0.01883,0 -0.02028,0 -0.02028,0.01014 -0.01089,0 -0.01953,0 -0.01958,0 -0.01014,0.01014 -0.02098,0 -0.01959,0 -0.01883,0.01014 -0.02098,0 -0.0087,0 -0.02098,0 -0.02028,0 -0.01959,0 -0.02967,0 -0.01014,0 -0.03042,0 -0.01014,0 -0.01883,0 -0.02098,0 -0.02028,0 -0.01808,0 -0.01159,0.01084 -0.01883,0.0094 -0.01084,0.0094 -0.01883,0 -0.02173,0 -0.0094,0.01014 -0.02967,0 -0.01084,0 -0.01089,0.01014 -0.0079,0.01014 -0.02098,0.01014 -0.0094,0 -0.02028,0.0094 -0.02028,0 -0.01014,0.01014 -0.0094,0.01014 -0.02028,0.01014 -0.01089,0 -0.0087,0.01014 -0.02028,0.0094 -0.01014,0 -0.0094,0.01014 -0.01953,0 -0.01014,0.01089 -0.01953,0 -0.01159,0.0094 -0.01959,0 -0.02028,0 -0.03118,0 -0.0094,-0.0094 -0.01883,0 -0.02028,0 -0.02028,0 -0.01014,0 -0.01953,0 -0.01959,0 -0.02028,0 -0.01959,0 -0.02028,0 -0.02967,0 -0.02173,0 -0.01883,0 -0.01014,0 -0.01959,0 -0.02098,-0.01089 -0.01883,0 -0.01953,0 -0.01159,0 -0.01883,-0.01014 -0.01084,0 -0.01959,0 -0.02098,-0.0094 -0.01883,0 -0.01159,-0.01014 -0.0087,0 -0.02028,0 -0.02028,-0.01014 -0.01014,0 -0.01959,0 -0.01883,0 -0.03042,0 -0.02028,0 -0.01953,0 -0.01159,0 -0.01808,-0.01014 -0.01159,0 -0.01953,0 -0.02098,0 -0.0087,-0.01014 -0.02028,-0.0094 -0.01014,0 -0.0094,0 -0.02967,-0.01014 -0.02028,0 -0.02028,0 -0.02028,0 -0.02028,0 0,0.01014 -0.01089,0.01953 -0.0079,0.01014 -0.01084,0.01014 0,0.01953 0,0.01014 -0.0109,0.01089 -0.01883,0.0094 -0.01084,-0.0094 -0.01959,0 -0.01014,-0.01089 -0.008,0 -0.02173,-0.01014 -0.0094,0 -0.01089,-0.0094 -0.01084,-0.01014 -0.01883,-0.01014 -0.01014,-0.01014 -0.0087,-0.01014 -0.01084,-0.0094 -0.02028,-0.01014 -0.01014,0 -0.01014,-0.02028 -0.01953,0 -0.01959,0 -0.01084,-0.01014 -0.01883,0 -0.01014,0 -0.01959,0 -0.02098,0 -0.01014,-0.0094 -0.01014,0 -0.01959,0 -0.01014,-0.0094 -0.02098,0 -0.0087,0 -0.02098,0 -0.01883,-0.01084 -0.01014,0 -0.01953,0 -0.02103,0 -0.01953,0 -0.01959,0 -0.01084,0 -0.01953,0 -0.02103,0 -0.01883,0 -0.02098,0 -0.01959,0 -0.02028,0 -0.01959,0 -0.0094,-0.01014 -0.02028,0 -0.01014,0 -0.01959,0 -0.02098,0 -0.02028,0 -0.01959,-0.01014 -0.01953,0 -0.01014,0 -0.01953,-0.01014 -0.01014,0 -0.01959,-0.0094 -0.02098,0 -0.0087,-0.01014 -0.03042,0 -0.01084,-0.01014 -0.01883,0 -0.02098,-0.0094 -0.01953,-0.01014 -0.01959,0 -0.02173,0 -0.0087,-0.01014 -0.01084,-0.0109 -0.01959,-0.0094 -0.02028,0 -0.01883,0 -0.01084,0 -0.01014,-0.02028 -0.0094,-0.0094 -0.02098,0 -0.0094,-0.01014 -0.01084,-0.01014 -0.0094,-0.0094 -0.01014,-0.01014 0,-0.02028 0,-0.02028 0,-0.0094 0.01014,-0.01089 0.02028,0 0.02028,-0.0087 0.01953,-0.01089 0.02098,0 0.01014,-0.01014 0.01953,0 0.0094,0 0.01959,-0.0094 0.01953,0 0.02173,0 0.0079,0 0.02098,0 0.02028,0 0.01084,-0.01014 0.01883,0 0.01084,-0.01089 0.008,-0.0087 0.02243,0 0.01808,-0.01089 0.02028,-0.0094 0,-0.0094 0.02104,0 0,-0.02098 0.0087,-0.0094 0.01084,-0.01084 0.01014,-0.0094 0.0094,-0.0094 0.02028,0 0.01953,-0.01089 0.01014,-0.0094 0.01014,-0.01014 0.01084,-0.01089 0.0087,-0.0094 0.01089,-0.01014 0.01883,0 0.01159,-0.01014 0.0094,-0.0094 0.02973,0 0.01014,0 0.01959,-0.01014 0.01014,-0.02028 0.0109,0 0.0087,-0.01014 0,-0.02028 0,-0.01884 0,-0.02028 -0.0087,-0.01014 -0.0109,0 -0.01953,-0.01014 0,-0.02098 0,-0.0094 0,-0.02028 0,-0.02973 0,-0.01953 0,-0.01014 0.0094,-0.02028 0,-0.01953 0,-0.01014 0,-0.02028 0.01014,-0.01014 0.01959,0 0.02098,0 0.01014,0.01014 0.01953,0 0.01883,0 0.01159,0 0.01953,0 0.02103,0 0.01953,0 0.02028,0 0.01959,0 0.03042,0 0.01953,0 0.0094,0 0.02028,0 0.02098,0 0.01014,-0.01014 0.01959,0 0.01883,0 0.02098,0 0.01959,0 0.01953,0 0.01014,0 0.03042,-0.0094 0.01959,0 0.02098,0 0.0079,0 0.02173,0 0.0094,-0.01084 0.01014,0 0.01959,0 0.02967,0 0.02173,-0.0094 0.01883,0 0.01883,0 0.02098,0 0.01014,0 0.02967,0 0.02098,0 0.02028,0 0.0094,0 0.01959,0 0.02028,0 0.02967,0 0.01014,0 0.01953,0 0.02028,0 0.02098,0 0.0087,0 0.01084,-0.0094 0.02028,0 0.0094,0 0.02098,0 0.008,-0.01089 0.01084,0 0.01959,0 0.01014,-0.01014 0.02028,0 0.01084,0 0.01808,0 0.02248,0 0.01883,0 0.01959,0 0.02098,0 0.01883,0 0.02028,0 0.01958,0 0.01014,0 0.02098,0 0.01959,0 0.02028,0 0.01959,0 0.02967,0 0.01084,0 0.02028,0 0.01959,0 0.0087,0 0.02028,-0.0094 0.01089,0 0.01953,0 0.02028,-0.01014 0.01014,0 0.02028,-0.01014 0.01883,0 0.04056,0 0.02028,0 0.0094,0 0.01014,-0.0094 0.01953,0 0.01159,-0.01014 0.01014,-0.01014 0,-0.02028 -0.01014,-0.02028 0,-0.0094 0,-0.02028 -0.01159,-0.01953 -0.0079,-0.01014 -0.01159,-0.01014 -0.01014,-0.01084 -0.01883,0 0,-0.01883 -0.02028,0 -0.0094,-0.01089 -0.02173,0 0,-0.01883 0.0094,-0.02098 0.01234,-0.0087 0,-0.01159 0.0094,-0.01953 0.0094,0 0.01084,-0.0094 0.0094,-0.01014 0.0094,-0.01014 0.01014,-0.01014 0.01953,0 0.01159,-0.0094 0.01014,-0.01089 0.01953,0 0.0094,-0.0094 0,-0.01089 0.01014,-0.0094 0,-0.02028 -0.01014,-0.01953 0,-0.01089 -0.0094,-0.01883 0,-0.01089 0,-0.01953 0,-0.03042 0,-0.01014 0.0094,-0.0087 -0.02028,0.0087 -0.0087,0.01014 -0.01014,0 -0.01953,0 -0.01159,0.01089 -0.01959,0 -0.0094,0 -0.02028,0 -0.0094,0 -0.02173,0 -0.0087,0.0094 -0.01014,0 -0.02028,0 -0.01014,0 -0.02028,0 -0.0094,0 -0.02098,0 -0.02897,0 -0.01959,0.01014 -0.03112,0 -0.01883,0.01089 -0.01084,0 -0.01959,0 -0.01014,0.0087 -0.02098,0 -0.01883,0.01089 -0.01089,0 -0.01883,0 -0.01084,0.0094 -0.02028,0 -0.01883,0 -0.01084,0 -0.02973,0.02028 -0.01084,0 -0.0079,0 -0.02248,0 -0.01808,0 -0.02028,0 -0.02098,0 -0.01959,0 -0.01084,0.01014 -0.01883,0 -0.01014,0.0094 -0.01953,0 -0.01014,0 -0.01084,0.01089 -0.0087,0 -0.02098,0 -0.0087,0 -0.02173,0 -0.01959,0 -0.01953,0 -0.02028,0 -0.02967,0 -0.01953,0 -0.01014,0 -0.02098,0.0094 -0.01953,0.0094 -0.01014,0 -0.02028,0 -0.01883,0 -0.01084,0 -0.01883,0 -0.01089,0 -0.03042,0 -0.01808,0 -0.02173,0 -0.0094,0 -0.02173,0 -0.02897,0 -0.0087,0.01089 -0.02173,0 -0.01959,0 -0.01014,0 -0.01953,0 -0.01959,0.0094 -0.01084,0 -0.01883,0 0,0.01089 -0.02098,0 -0.02967,0 -0.01014,0 -0.02028,0 -0.0094,0.0094 -0.01953,0 -0.02028,0 -0.02098,0.01014 -0.01883,0 -0.02098,0 -0.01959,0 -0.01014,0 -0.01953,0 -0.01159,0.01014 -0.01883,0 -0.01084,0 -0.01883,0 -0.02098,0 -0.01959,0.01014 -0.01014,0 -0.01959,0 -0.01014,0 -0.02973,0 -0.02098,0 -0.0087,0 -0.01014,0.0094 -0.01959,0 -0.02098,0 -0.01014,0.01014 -0.02967,0 -0.01014,0 -0.01959,0 -0.02967,0.0094 -0.01959,0 -0.01159,0 -0.02967,0 -0.01883,0 -0.02967,0 -0.02098,0 -0.01014,0 -0.02098,0 -0.0079,0 -0.02173,0 -0.0087,0.01159 -0.02098,0 -0.03836,0 -0.01014,0 -0.03042,0 -0.03042,0 -0.02028,0 -0.02028,0 -0.0094,0 -0.03042,0 -0.01959,0 -0.02967,0 -0.02098,0 -0.0087,0.0087 -0.02098,0 -0.02967,0 -0.04126,0 -0.008,0 -0.02098,0 -0.0087,0 -0.02098,0 -0.02967,0 -0.02028,0 -0.01959,0.01014 -0.02173,0 -0.01883,0 -0.02897,0.01089 -0.03118,0 -0.01953,0 -0.01014,0 -0.01953,0 -0.01014,0.0094 -0.02098,0 -0.01883,0 -0.04056,0 -0.03987,0 -0.02967,0 -0.02967,0 -0.01089,0 -0.02897,0.0094 -0.0109,0 -0.01883,0 -0.01159,0 -0.01959,0 -0.0094,0 -0.02028,0 -0.04056,0 -0.03987,0 -0.02967,0 -0.01953,0 -0.03042,0 -0.0094,0 -0.02098,0 -0.02028,0 -0.02967,0 -0.02973,0 -0.01014,0 -0.01958,0 -0.01953,0 -0.02173,-0.0094 -0.0087,-0.0094 -0.03118,0 -0.0087,0 -0.03042,0 -0.02028,0 -0.02098,0 -0.01808,0 -0.01159,0 -0.01883,0 -0.01089,-0.01089 -0.01883,0 -0.01089,-0.01014 -0.01883,0 -0.01228,-0.0087 -0.008,-0.01159 -0.02028,-0.0094 -0.01084,-0.01014 -0.02028,0 -0.0094,0 -0.01883,0 -0.02173,0 -0.0087,0 -0.02028,0 -0.01953,0 -0.01089,0 -0.04995,0 -0.01953,0 -0.03042,0 -0.0094,-0.0094 -0.03987,0 -0.01014,0 -0.02098,0 -0.01084,0 -0.03042,-0.01014 -0.0079,0 -0.02098,0 -0.01883,0 -0.01159,0 -0.01808,-0.01014 -0.02028,0 -0.02098,0 -0.01953,0 -0.01883,0 -0.02098,0 -0.01014,0 -0.02028,-0.01953 -0.02028,-0.01089 -0.01014,-0.0094 0,-0.01089 -0.01953,0 0,-0.0094 -0.01959,-0.0094 -0.01014,0 -0.02028,0 -0.0094,0 -0.02028,0 -0.02967,0 -0.0109,0 -0.02967,0 -0.02967,0 -0.01014,0 -0.02028,0 -0.0094,0 -0.02028,0 -0.01953,0 -0.02104,0 -0.0094,-0.01089 -0.0094,0 -0.01883,0 -0.01084,-0.0094 -0.01234,-0.01014 -0.008,0 0,-0.02028 0,-0.02897 0.02028,-0.01089 0.01084,0 0.01883,-0.01014 0.0094,0 0.02028,-0.0094 0.02028,-0.01089 0.02028,0 0.0094,0 0.01959,0 0.01014,0 0.03118,0 0.01883,0 0.03042,0 0.01014,0 0.03118,0 0.0087,0 0.01958,0 0.01014,0 0.02098,0 0.01883,0 0.0094,0 0.02098,0 0.0094,0 0.03042,0 0.02098,0 0.01883,0 0.01084,0 0.02967,-0.01014 0.02028,0 0.01014,-0.0087 0.01959,0 0.0087,-0.01084 0.03118,0 0.01953,0 0.01883,0 0.02243,-0.01014 0.0094,0 0.02028,-0.0094 0.01883,0 0.01089,0 0.01953,0 0.01014,-0.01089 0.01883,-0.0094 0.02098,0 0.0094,-0.01014 0.03042,-0.01014 0,-0.0087 0,-0.02098 0,-0.02028 0,-0.01014 0,-0.01953 -0.02028,-0.02028 0,-0.01953 -0.01014,-0.01014 0,-0.01014 -0.01959,-0.01014 -0.01084,0 -0.01883,0 -0.02028,0 -0.0094,0 -0.02028,0 -0.01953,0 -0.01014,0 -0.02098,0 -0.01084,0.01014 -0.01883,0 -0.01159,0 -0.01808,0 -0.02098,0.01014 -0.0087,0 -0.01959,0 -0.02098,0 -0.03042,0 -0.0087,0 -0.02967,0 -0.02098,0 -0.01959,0 -0.01084,0.01014 -0.0094,0 -0.03042,0 -0.01014,0.0094 -0.02973,0 0,0.01014 -0.02028,0.01014 -0.02967,0.01014 -0.02967,0 -0.01959,0 -0.01084,0.01089 -0.01883,0 -0.02098,0 -0.01014,0.0087 -0.02028,0 -0.0094,0 -0.02028,0 -0.0094,0.01014 -0.02028,0 -0.02028,0 -0.0094,0 -0.01883,0 -0.02318,0 -0.01808,0.01084 -0.01959,0 -0.02173,0 -0.0094,0.0094 -0.02028,0 -0.0094,0.01014 -0.01953,0 -0.03042,0.01089 -0.01959,0.0087 -0.02967,0 -0.02098,0.01014 -0.0087,0 -0.02098,0 -0.02028,0.01014 -0.01014,0.0094 -0.01883,0 -0.01159,0.01089 -0.01883,0 -0.01953,0 -0.02173,0 -0.01808,0 -0.02098,0 -0.02028,0 -0.02028,0 -0.02967,0 -0.0094,0.0094 -0.02967,0.01014 -0.02098,0 -0.0094,0 -0.02028,0 -0.0094,0.01084 -0.02967,0 -0.02173,0 -0.0087,0 -0.01953,0 -0.02098,0 -0.02028,0 -0.0094,0.0087 -0.01953,0 -0.01014,0 -0.02967,0.01014 -0.02028,0 -0.02098,0 -0.01808,0 -0.01159,0 -0.02973,0 -0.01084,0.01089 -0.02967,0.0094 -0.01883,0 -0.01159,0.01014 -0.0079,0 -0.02173,0.01089 -0.01808,0 -0.02967,0.0087 -0.01159,0.01089 -0.02967,0 0,0.0094 -0.02098,0.0094 -0.0087,0.01089 -0.02098,0 -0.01014,0 -0.01883,0 -0.0094,0 -0.01089,0.01014 -0.02028,0 -0.01014,0 -0.01953,0.0094 -0.02967,0 -0.02098,0.01089 -0.01014,0 -0.01883,0 -0.01084,0 -0.0094,0 -0.02967,0.0094 -0.01084,0.0094 -0.02898,0 -0.01014,0 -0.02028,0 -0.02028,0 0,0.01089 -0.01014,0.0094 -0.01808,0 -0.01084,0 -0.02028,0 -0.01014,0.0109 -0.01084,0 -0.01883,0 -0.0109,0 -0.01883,0 -0.02098,0 -0.0094,0 -0.02897,0 -0.02243,0 -0.01959,0 -0.01014,0 -0.01883,0 -0.01089,0 -0.01953,-0.0109 -0.01014,0 -0.02967,0 -0.01953,0 -0.02028,0 -0.01014,0 -0.02098,0 -0.01883,0 -0.01089,0 -0.01953,0 -0.01014,0 -0.02967,-0.0094 -0.02028,-0.01089 -0.05071,0 -0.0094,0 -0.02028,0 0,-0.0094 -0.01959,0 -0.01159,0 -0.01808,-0.0094 -0.02098,0 -0.02028,0 -0.01808,-0.01089 -0.02104,0 -0.02028,-0.0094 -0.01014,0 -0.02897,-0.01014 -0.02173,0 -0.01808,0 -0.02173,0 -0.01959,-0.01089 -0.01953,0 -0.02028,-0.0094 -0.01014,0 -0.01959,0 -0.0094,-0.0094 -0.02028,0 -0.01014,-0.01089 -0.02098,0 -0.0094,-0.0087 -0.02028,0 -0.0094,-0.01089 -0.0094,-0.01014 -0.01084,0 -0.0094,-0.0094 -0.02028,-0.01089 -0.01014,-0.01014 -0.0094,-0.01953 -0.02967,0 0,-0.01014 -0.02098,-0.0094 -0.0094,0 -0.01084,-0.02028 -0.0094,-0.01014 -0.0094,0 -0.02028,-0.01014 0,-0.0087 -0.01089,0 -0.0094,-0.02098 -0.02967,0 0,-0.02028 -0.0094,-0.01014 -0.01084,-0.0087 -0.01084,-0.01089 0,-0.01014 -0.01959,-0.02028 -0.01014,-0.0094 0,-0.01014 -0.02028,0 0,-0.01014 -0.0087,-0.01014 -0.02028,0 -0.01959,-0.0094 -0.02098,-0.01014 -0.0087,-0.01089 -0.02173,0 -0.01883,-0.0094 -0.02028,-0.01014 -0.02028,0 -0.0094,-0.01953 -0.02098,-0.01014 -0.01014,0 -0.0087,-0.01953 -0.01084,0 0,-0.02098 -0.0087,-0.0087 -0.01014,-0.01159 0,-0.0094 -0.02098,0 -0.0087,-0.0094 -0.02967,-0.01084 -0.02098,-0.0094 -0.01014,-0.0094 -0.02028,-0.01089 -0.0094,-0.0094 -0.02028,0 -0.01089,-0.01014 -0.01014,-0.01014 -0.01958,-0.01014 -0.0094,0 -0.02028,-0.01014 -0.01014,-0.01014 -0.0094,-0.0094 -0.02098,0 -0.0087,-0.01014 -0.01159,-0.01953 -0.0087,-0.02098 -0.0094,-0.0094 -0.01159,-0.01014 0,-0.01014 0,-0.01953 -0.01014,-0.01014 0,-0.01084 0,-0.01883 0,-0.02028 0,-0.02028 0.01014,0 0.01159,-0.0094 0.02967,0 0.01959,0 0.01953,0 0.02098,-0.01089 0.0094,0 0.05001,-0.01014 0.02028,-0.0087 0.0094,0 0.03042,0 0.02098,0 0.01808,0 0.01159,0 0.0087,-0.02098 0.02098,-0.0094 0.01883,-0.01089 0.02967,-0.02967 0.02098,-0.02028 0.02967,-0.02967 0.02028,-0.01953 0.01883,-0.02028 0.02173,-0.01084 0.0087,-0.0094 0.01014,-0.0094 0.02028,-0.01014 0.01014,-0.01014 0.01159,0 0.01738,0 0.01089,-0.0094 0.02967,-0.01014 0.0094,-0.01014 0.02173,0 0.0094,0 0.0087,-0.01089 0.02098,-0.0094 0.02028,0 0.0094,-0.01014 0.02028,-0.01014 0.02028,-0.0094 0.0094,-0.01014 0.01084,-0.01014 0.01014,-0.01014 0.01959,-0.02028 0.02967,-0.02967 0.02967,-0.02028 0.02967,-0.02967 0.02967,-0.03042 0.02098,-0.01953 0.03042,-0.02028 0.01959,-0.01014 0.0094,-0.0094 0.02173,-0.0094 0.01808,0 0.02098,-0.02028 0.02028,-0.01014 0.01883,0 0.0094,-0.01014 0.01234,-0.01014 0.01883,0 0.01959,-0.0109 0.02098,-0.0087 0.03042,-0.01014 0.0094,0 0.02028,0 0.0087,-0.0109 0.01084,-0.0087 0.01959,0 0.02028,-0.01014 0.01959,0 0.01014,-0.01084 0.01959,0 0,-0.0094 0.02098,0 0.02967,-0.01089 0.02028,-0.01014 0.02967,0 0.01959,-0.0087 0.01014,0 0.02028,0 0.02028,0 0.01014,-0.01159 0.02028,0 0.01014,0 0.02897,0 0.01014,-0.01808 0.01014,-0.01159 0.01959,-0.0087 0.02967,-0.01014 0.02028,-0.01084 0.01959,-0.0094 0.02243,-0.0094 0.0072,-0.01089 0.01014,-0.0094 0.01159,0 0.01883,-0.01089 0,-0.01014 0.03042,0 0,-0.0087 0.02098,-0.01089 0.0087,-0.01014 0.02098,-0.0094 0.0087,-0.01014 0.02243,0 0.008,-0.02028 0.02028,0 0,-0.01014 0.02028,-0.02028 0.0109,-0.0094 0.01953,-0.02967 0,-0.01014 0.01014,-0.01014 0.0094,-0.01014 0.0094,-0.01014 0.01084,-0.01014 0.0094,-0.02028 0.02028,-0.0094 0.0094,0 0.02028,-0.02028 0.0094,0 0.02028,-0.01953 0.01089,-0.01084 0.01953,-0.01959 0.01883,-0.01014 0.01084,-0.0094 0,-0.01014 0.02104,-0.01014 0.0094,-0.0094 0.02028,0 0.01883,0 0.02098,-0.0109 0.01883,0 0.04056,-0.0094 0.03987,0 0.02098,-0.01089 0.02028,-0.0094 0.01014,-0.01014 0.02898,-0.01953 0.03042,-0.02028 0.03911,-0.02967 0.02967,-0.02098 0.04126,-0.02973 0.02973,-0.0094 0.01014,-0.01014 0.01959,0 0.01014,-0.01953 0.01959,0 0.01014,0 0.02098,-0.01014 0.01953,-0.02028 0.0087,0 0.02173,-0.01084 0.01959,-0.0087 0.02967,-0.01014 0.01014,-0.01089 0.03042,-0.0094 0.02028,0 0.01883,0 0.0109,-0.0094 0.0094,-0.01089 0.02028,-0.0094 0.0094,-0.01014 0.02028,0 0,-0.01953 0.0094,-0.01089 0.01159,-0.01883 0.01808,0 0.01159,-0.01089 0.01014,-0.01953 0.01953,-0.01089 0.01883,-0.0094 0.03042,-0.01089 0.03042,-0.0094 0.02098,-0.0094 0.01959,0 0.01014,-0.01089 0.0087,0 0.02098,-0.0094 0.01014,0 0.02028,-0.01014 0.01959,-0.01014 0.02897,0 0.02028,-0.01014 0.03118,-0.0094 0.0094,-0.01014 0.02028,0 0.02028,0 0.01084,-0.0094 0.0079,-0.01089 0.02028,0 0.02028,0 0.01014,-0.01953 0.01014,-0.01089 0.02028,-0.0094 0.0094,-0.0094 0,-0.01089 0.01959,-0.0094 0,-0.0094 0.01014,-0.01159 0.01014,-0.0094 0.02098,-0.01014 0.0087,-0.01014 0.01014,-0.0094 0.01084,-0.01014 0.01959,0 0,-0.01014 0.01014,-0.0094 0.0087,-0.01014 0.01084,0 0,-0.01089 0.02028,-0.0087 0,-0.01089 0.0094,-0.01014 0.01014,-0.01014 0.03987,-0.02967 0.01953,-0.01959 -0.0094,-0.01084 -0.01014,0.01084 0.01014,-0.01084 0.0094,-0.02028 0.01014,-0.0094 0.01084,-0.01014 0.0094,-0.0094 0.02028,-0.01014 0.01014,0 0,-0.02098 0.02098,0 0.0079,-0.01883 0.0109,-0.01014 0.01084,0 0.0087,-0.01014 0.01014,-0.01089 0.01084,-0.01883 0.0094,-0.02028 0.01089,-0.0094 0,-0.02028 0.01808,-0.01014 0.01159,-0.02028 0.0087,-0.02028 0.02098,-0.02028 0.01808,-0.01883 0.01159,-0.02028 0.01014,-0.02028 0.0087,-0.02028 0.01084,-0.01959 0.02098,-0.01953 0,-0.01084 0.01014,-0.01953 0.01953,-0.02028 0,-0.02028 0.02028,-0.01953 0.0094,-0.02967 0.01014,-0.0109 0.01014,-0.0087 0,-0.01089 0.01883,-0.01953 0.01084,-0.02098 0.01014,-0.01953 0.0094,-0.0094 0,-0.0094 0.02173,-0.01089 0.0087,-0.02028 0.01089,0 0.0094,-0.01014 0.01014,0 0,-0.01953 0.01014,-0.03987 0,-0.02028 0.01014,-0.02028 0,-0.01953 0,-0.01014 0.01953,-0.0094 0.01089,-0.03042 0,-0.02028 0.01883,0 0.0094,-0.02028 0.02028,-0.0094 0.03112,-0.02098 0.02028,-0.0094 0.01883,-0.0094 0.02028,0 0.02028,-0.01089 0.01014,-0.0094 0.0087,-0.01014 0.01159,-0.01014 0.01808,-0.0094 0.02098,-0.02028 0,-0.0094 -0.02098,-0.01089 -0.01808,0 -0.02028,0 -0.01014,0.01089 -0.02028,0 -0.0094,0 -0.02098,0 -0.0087,0.0094 -0.02028,0.0094 -0.01084,0.01089 -0.02028,0 -0.0094,0.01953 -0.01089,0 -0.02822,0 -0.01089,0 -0.01953,0 -0.02028,0.01014 -0.01014,0 -0.02028,0.0094 -0.03042,0 -0.03042,0 -0.01883,0 -0.02967,0 -0.02028,0 -0.01953,0 -0.01958,0 -0.03112,0 -0.02173,0 -0.03912,0 -0.02028,0 -0.02897,0 -0.0094,0 -0.02098,0 -0.0087,0 -0.02173,0 -0.01883,0 -0.01014,0 -0.01959,0 -0.03112,0 -0.01959,0 -0.01014,0 -0.01959,-0.0094 -0.02028,0 -0.01959,-0.01014 -0.02028,0 -0.01959,0 -0.01014,-0.01014 -0.01959,0 -0.01084,0 -0.01883,-0.0094 -0.02098,-0.02028 -0.01014,-0.0094 0,-0.01089 -0.02028,0 -0.0094,-0.01014 -0.0094,0 -0.01084,-0.0094 -0.01953,-0.01014 -0.01014,0 -0.02028,0 -0.0094,0 0,-0.01014 -0.01883,-0.01014 -0.01084,-0.0094 0,-0.02098 -0.02028,-0.0094 0,-0.02028 -0.01014,-0.0094 -0.01958,-0.01089 -0.01014,0 -0.01159,-0.0094 -0.01808,0 -0.03042,-0.0094 -0.02028,0 -0.02028,-0.01159 -0.01959,-0.0094 -0.02098,-0.0094 -0.0087,0 -0.01014,-0.0109 -0.01089,-0.0087 -0.01953,-0.01014 -0.01014,-0.02028 -0.02028,-0.0094 -0.01014,0 -0.01014,-0.01159 -0.0087,-0.0087 -0.01159,-0.01089 -0.01883,-0.0094 -0.01084,-0.01014 -0.01883,-0.01014 -0.01159,-0.01014 -0.02967,-0.0094 -0.0094,-0.01084 -0.0094,-0.0087 -0.02028,-0.01084 -0.02028,0 -0.0094,-0.01014 -0.02028,-0.0094 -0.0094,0 -0.02028,0 -0.01084,0 -0.02967,-0.01014 -0.01014,0 -0.01953,0 -0.01089,0 -0.03042,-0.01014 -0.01808,0 -0.01014,0 -0.02098,0 -0.02973,-0.0094 -0.01014,-0.01089 -0.0094,-0.0094 -0.03042,-0.0094 -0.01959,-0.01089 -0.01014,0 -0.02098,-0.01014 -0.02967,-0.01014 0,-0.01014 -0.01883,0 -0.01089,0 -0.01953,0 -0.02098,0 -0.0094,-0.0094 -0.02098,0 -0.0079,0 -0.02173,-0.01014 -0.01808,0 -0.01159,0 -0.0094,-0.01014 -0.02028,-0.0094 -0.01014,0 -0.01959,0 -0.01014,-0.02028 -0.0109,-0.01014 -0.01883,0 -0.01084,-0.01014 -0.01014,-0.01014 -0.01883,0 -0.0094,-0.01014 -0.0109,0 -0.02028,0 -0.02098,-0.0094 -0.0087,-0.01014 -0.01014,-0.01959 0,-0.02098 0,-0.02028 0,-0.0094 0,-0.01953 0.01014,0 0,-0.02028 0,-0.02028 0.0087,-0.0094 0.01084,-0.01014 0,-0.01014 0.03042,0 0,-0.01014 0.02028,0 0.01883,0 0.01014,0 0.02098,0 0.0087,0 0.02098,0 0.01959,-0.0094 0.02173,0 0.0087,-0.01089 0.0094,0 0.02098,-0.01014 0.0087,-0.0094 0.01159,-0.0094 0.01014,-0.01089 0.0079,-0.0094 0.02098,-0.02028 0.02028,-0.0094 0.01883,-0.02098 0.01084,-0.0094 0.01089,0 0.0087,-0.0109 0.01014,-0.0094 0.01159,-0.0094 0.01808,-0.02028 0.01159,-0.01014 0.0094,-0.01014 0,-0.0094 0.02967,-0.02098 0.02028,0 0.01014,-0.0094 0,-0.01953 0.01953,0 0.0094,-0.01014 0.03042,-0.01089 0.0109,-0.0094 0.01014,-0.01084 0.0094,-0.0094 0.0087,-0.02028 0.02173,-0.0094 0.0087,-0.01014 0.02098,-0.02028 0.0094,-0.02028 0.02028,-0.0087 0.03042,-0.03042 0.0094,-0.02028 0.02028,-0.02028 0.03912,-0.02967 0.01089,-0.02028 0.02028,0 0.0094,-0.01953 0.02098,-0.01014 0.02967,-0.01953 0.02967,-0.0109 0.01014,-0.0094 0.0087,-0.01014 0.02028,0 0.02028,-0.01014 0.02028,-0.01014 0.02098,0 0.01959,0 0.01883,-0.01014 0.02098,0 0.01014,0 0.02028,-0.01014 0.01959,0 0.01953,0 0.0094,0 0.02028,0 0.02098,-0.0094 0.01014,0 0.0094,-0.01014 0.02028,-0.01014 0.03118,0 0.0079,-0.0094 0.0109,-0.01089 0.01883,0 0.01089,0 0.01014,-0.0094 0.01953,-0.01089 0.02028,0 0.0094,-0.0094 0.02028,-0.0094 0.02028,-0.01089 0.02967,0 0.01953,-0.0094 0.0109,0 0.02967,0 0.02028,-0.01014 0.02967,0 0.02973,0 0.01953,0 0.02098,0 0.0094,0 0.02028,0 0.01014,0 0.02098,0 0.01883,0 0.01084,-0.01014 0.01883,0 0.01084,-0.01014 0.02028,-0.0094 0.01808,-0.01014 0.03042,-0.02098 0.01084,-0.0087 0,-0.01014 0.02967,-0.02028 0.01883,-0.02028 0.02243,-0.01959 0.0094,-0.01014 0.01014,0 0.01953,-0.0094 0.02028,0 0.02967,-0.01084 0.01014,-0.01014 0.01953,-0.02028 0.04126,-0.0094 0.02897,-0.0094 0.02028,-0.02028 0.01014,0 0.01953,-0.02028 0.01089,-0.0094 0.01883,0 0.0094,-0.02098 0.02028,0 0,-0.0094 0.01084,-0.01014 0.02028,-0.0094 0.02028,-0.01014 0.0087,-0.01089 0.01014,-0.0094 0.01089,-0.01089 0.01883,-0.0094 0.01089,-0.0094 0,-0.01084 0.01883,-0.0094 0.01159,-0.0094 0.01014,0 0.008,-0.02098 0.01159,-0.0087 0.01953,-0.01159 0.01014,-0.0094 0.01014,-0.01014 0.0079,-0.01014 0.01234,0 0.0087,-0.01953 0.02028,-0.01014 0.01089,-0.0094 0.01883,-0.01089 0.01159,-0.01883 0.01953,-0.01089 0.01014,-0.02028 0.01953,0 0,-0.01953 0.01089,-0.01089 0.01883,-0.0087 0,-0.01014 0.02967,-0.01089 0.01084,-0.0094 0.0094,-0.01014 0.02098,-0.01014 0.0094,-0.01014 0.02028,0 0.01014,-0.01014 0.01953,-0.0094 0.01014,0 0.01953,-0.01014 0.01959,-0.01014 0.01014,0 0.01014,-0.02028 0.0094,0 0.02098,-0.0094 0.01014,-0.02098 0.02028,0 0.0094,-0.01883 0,-0.01089 0.01959,-0.0094 0.01159,-0.01014 0.0087,-0.01014 0.01014,-0.01014 0.01959,-0.0094 0.02028,-0.01014 0.03042,-0.01014 0.01014,0 0.02028,-0.01084 0.0094,-0.0087 0.01014,-0.02098 0.01953,-0.0094 0.02028,-0.01014 0.03042,-0.01953 0.01883,-0.01014 0,-0.01953 0.02098,0 0.01014,-0.01089 0.01953,0 0.01014,-0.01014 0.01953,-0.0094 0.01014,0 0.0094,-0.01089 0.01159,-0.0094 0.01883,-0.0094 0.01014,0 0.01883,0 0.01089,-0.01089 0.01953,-0.0094 0.0109,-0.02028 0.02028,-0.01014 0.01953,-0.01014 0.01014,-0.01014 0.02098,-0.0094 0.0087,-0.01014 0.02098,-0.01953 0.008,-0.0109 0.02173,0 0.0094,-0.02028 0.01014,0 0.02967,-0.01883 0.02098,-0.02028 0.0087,-0.0094 0.02098,-0.01084 0.0094,-0.01014 0.0109,-0.0094 0.0094,-0.0109 0.02973,-0.01953 0.02028,-0.01953 0.0094,-0.01014 0.02028,-0.01014 0.0094,-0.02028 0.02028,0 0.01089,0 0.01953,-0.0094 0.02098,-0.0094 0.01014,-0.01089 0.0087,-0.02028 0.01084,0 0.01883,-0.01014 0,-0.0094 0.02098,-0.01089 0.0087,-0.0094 0,-0.02028 0.02173,-0.0094 0.0079,-0.02028 0.02098,0 0,-0.02967 -0.0094,0.0094 -0.01159,0 -0.01808,0.02028 -0.01159,0 -0.01953,0 -0.01959,0 -0.0094,0.01014 -0.02967,0 -0.03042,0.01014 -0.02098,0 -0.02028,0.0094 -0.0094,0 -0.02028,0.01084 -0.0094,0 -0.03042,0.0094 -0.01959,0 -0.02967,0.0094 0,0.01089 -0.02098,0 -0.01953,0 -0.01014,0 -0.01014,0 -0.01953,0.0094 -0.01959,0 -0.01084,0.01014 -0.01883,0 -0.02967,0 -0.02098,0 -0.02028,0 -0.0094,0 -0.02028,0 -0.0109,0 -0.01953,0 -0.01089,0 -0.01883,0 -0.01014,0 -0.01883,0 -0.02098,0 -0.01953,0 -0.01014,0 -0.02967,0 -0.03118,0 -0.01883,-0.01014 -0.02098,0 -0.0094,0 -0.02028,-0.0094 -0.01953,0 -0.01014,0 -0.02967,-0.01089 -0.02028,0 -0.0094,-0.0094 -0.02028,0 -0.01084,0 -0.01959,0 -0.01014,0 -0.02028,0 -0.01089,-0.0094 -0.01808,0 -0.04126,-0.01084 -0.01959,0 -0.01014,-0.0094 -0.01883,0 -0.01089,0 -0.01953,0 -0.01014,0 -0.01953,-0.01014 -0.02173,-0.01014 -0.0087,0 -0.03042,0 -0.02028,-0.01014 -0.01883,-0.01014 -0.01084,-0.0094 -0.01883,0 -0.01089,0 -0.01953,0 -0.02028,-0.01014 -0.03118,-0.01014 -0.01959,0 -0.02028,0 -0.02897,0 -0.01014,-0.01014 -0.04126,0 -0.01808,-0.0094 -0.03042,-0.01014 -0.01089,-0.01014 -0.01883,0 -0.02098,-0.01089 -0.0087,-0.0094 -0.03112,-0.0094 -0.02028,0 -0.02028,0 -0.01953,0 -0.0087,0 -0.02173,0 -0.02897,0 -0.03042,-0.01084 -0.0087,0 -0.02173,-0.0094 -0.01959,0 -0.02967,0 -0.02028,-0.01014 -0.0094,0 -0.02028,0 -0.01953,-0.01014 -0.01958,-0.01014 -0.02243,0 -0.0087,0 -0.02173,0 -0.01808,0 -0.02098,-0.0094 -0.0087,0 -0.01959,0 -0.02098,0 -0.03042,0 -0.0087,0 -0.02173,0 -0.01883,0 -0.02973,0 -0.01084,0 -0.02028,0 -0.01959,0 -0.01883,0 -0.03112,0 -0.02828,0 -0.01159,0 -0.01959,0 -0.01014,0 -0.01959,0 -0.02098,-0.01014 -0.01953,0 -0.02028,0 -0.02028,-0.02098 -0.0094,-0.0094 -0.0094,0 -0.01084,-0.02028 -0.0094,0 -0.01014,-0.0094 -0.01014,-0.01014 0,-0.01959 0,-0.01014 0,-0.01953 0.02028,-0.02028 0.0094,-0.01014 0,-0.01084 0.02028,-0.0094 0.0094,-0.0094 0.02028,-0.0109 0,-0.0094 0.02028,0 0.01084,0 0.01883,-0.01084 0.01953,0 0.02973,-0.0094 0.02243,0 0.0087,-0.01014 0.03987,-0.01014 0.03912,-0.01014 0.04126,-0.01953 0.01959,0 0.02098,0 0,-0.0094 0.0079,-0.01014 0.02173,0 0.0087,-0.01014 0.02098,-0.01014 0.0094,-0.01084 0.01089,-0.0094 0.01808,-0.0094 0.01159,0 0,-0.01089 0.0087,-0.0094 0.01014,-0.0094 0.01084,-0.01089 0.01808,-0.01953 0.01159,-0.01089 0.01883,0 0,-0.01953 0.01084,-0.01014 0.02098,0 0,-0.02028 0.01014,0 0.01953,-0.0094 0.02028,-0.02028 0.0094,0 0.02028,-0.01014 0.01883,-0.0094 0.01084,-0.01014 0.01959,-0.01014 0.01014,0 0.02028,-0.0094 0.0109,-0.0109 0.01953,-0.0094 0.02028,-0.01014 0.03042,-0.01014 0.01883,-0.02967 0.0094,0 0.02028,0 0.01084,-0.02028 0.02028,0 0.008,0 0.02098,0 0.02098,0 0.01883,0 0.01089,0 0.01883,0 0.01159,0 0.01808,0 0.02098,0 0.02028,0 0.01808,-0.01014 0.02098,-0.01014 0.02028,-0.0094 0.01958,-0.01014 0.01014,-0.01014 0.01159,0 0.01953,-0.01014 0.01014,-0.0094 0.01953,0 0,-0.01014 0.04056,-0.01014 0.01883,-0.01089 0.02028,-0.0094 0.0094,-0.0094 0.02098,0 0.02028,0 0.01014,0 0.01953,0 0.01014,-0.02028 0.01953,0 0.01089,0 0.01883,0 0.01953,0 0,-0.01014 0.02098,-0.01014 0.01014,-0.01014 0.02028,-0.0094 0.0094,-0.01014 0.0087,0 0.01089,-0.02098 0.01159,-0.0094 0.01883,-0.0094 0,-0.01089 0.01959,-0.01883 0.01084,0 0.02028,-0.02028 0.01953,-0.01089 0.01014,0 0.0094,-0.01883 0.02028,0 0.01014,0 0.0094,-0.02028 0.01014,-0.01014 0.02028,0 0.0094,-0.01014 0.03118,-0.01014 0.0087,-0.0094 0.03118,-0.01084 0.01953,0 0.01014,-0.0094 0.01953,-0.01014 0.01014,-0.01014 0.02098,-0.01014 0.0087,-0.01014 0.02028,0 0.01883,0 0.01089,-0.0094 0.01953,-0.01014 0.02248,-0.01089 0.01808,0 0.03042,-0.01883 0.01084,0 0.01883,-0.01084 0.01084,-0.0094 0.008,0 0.03112,-0.02973 0.01014,-0.01084 0,-0.0094 0.01953,-0.0094 0.01014,-0.01089 0,-0.01014 0.02098,-0.0087 0.0087,-0.01159 0.02098,-0.01953 0.0094,0 0.0109,-0.01014 0.0094,-0.0087 0,-0.01089 0.02973,-0.01014 0.02967,-0.02028 0.02967,-0.01014 0.01084,-0.01014 0.0094,0.02028 0.02098,0 0,-0.02028 0,-0.0094 0.0094,-0.01014 0.01014,-0.01014 0.01084,-0.0094 0,-0.01014 0.01014,-0.01084 0.01953,-0.0094 0,-0.01014 0.0094,-0.01014 0.0094,-0.0094 0.01014,0 0.01953,-0.01953 0.02173,0 0.0079,0 0.01159,-0.02098 0.01953,0 0.02098,-0.0094 0.0072,0 0.02243,-0.01014 0.008,-0.01014 0.02243,0 0.01808,-0.0094 0.03118,-0.02028 0.01883,0 0.01084,-0.01014 0.01959,-0.01084 0.01014,-0.0094 0.01959,-0.0094 0.03042,-0.02028 0.01084,-0.0094 0.0087,-0.02098 0.01089,0 0,-0.01953 -0.01089,-0.01014 -0.01953,0 -0.01014,0 -0.02028,-0.01014 -0.0094,-0.01014 -0.02028,0 -0.03042,0 -0.01883,0 -0.01959,0 -0.01159,0 -0.01808,0 -0.01159,0 -0.01883,0 -0.02243,-0.0094 -0.0072,0 -0.03118,0 -0.0094,-0.01014 -0.01959,-0.01014 -0.02173,-0.01014 -0.02967,-0.01014 -0.0094,-0.01953 -0.0094,0 0,-0.02028 -0.01084,-0.01014 -0.01883,-0.0094 -0.01084,-0.01014 -0.01959,-0.01089 -0.01014,-0.0087 -0.01089,0 -0.02028,-0.01014 -0.01959,-0.01089 -0.01014,-0.0094 -0.0094,0 -0.02028,-0.0109 -0.02973,-0.0094 -0.02028,0 -0.02028,-0.0094 -0.01014,-0.01089 -0.02967,-0.01014 -0.01953,-0.0087 -0.01014,0 -0.01959,-0.01159 -0.01084,0 -0.01883,-0.0087 -0.0507,-0.02098 -0.02028,-0.0094 -0.0094,-0.01014 -0.02028,0 -0.01089,0 -0.01953,-0.01953 -0.01883,0 -0.03118,-0.01089 -0.0087,-0.0094 -0.02098,0 0,-0.0094 -0.01953,0 -0.01014,0 -0.02028,0 -0.0094,0 -0.02098,0 -0.01014,-0.01084 -0.02967,0 -0.01959,-0.01014 -0.01014,0 -0.02028,-0.01014 -0.02897,-0.0094 -0.01084,-0.01014 -0.0094,0 -0.02028,0 -0.02028,-0.01014 -0.0094,-0.0094 -0.01953,0 -0.02098,0 -0.02028,0 -0.01089,-0.01014 -0.0087,0 -0.02098,0 -0.0087,-0.01089 -0.02098,0 -0.01014,0 -0.01953,0 0,-0.0094 -0.01014,-0.0094 -0.02967,0 -0.0094,-0.01084 -0.01014,0 -0.01953,0 -0.02173,-0.0094 -0.0087,-0.01014 -0.0094,0 -0.01159,-0.01953 -0.0094,-0.01089 -0.0094,0 -0.01084,-0.01953 -0.01014,0 -0.0087,-0.01089 -0.01084,-0.0094 -0.01014,0 -0.0087,-0.0094 -0.01089,-0.01084 -0.01014,-0.0094 -0.0094,-0.01014 0,-0.01014 0,-0.02028 0,-0.01014 0,-0.01953 0.01953,0 0.0109,-0.01014 0.01883,-0.0094 0.01084,0 0.0087,-0.01014 0.02098,0 0.0094,-0.01014 0.02098,-0.01014 0.01808,0 0.03118,-0.01014 0.01014,-0.01014 0.02967,0 0.02973,-0.01014 0.01014,-0.0094 0.0094,-0.01014 0.02098,-0.0094 0.01883,0 0.02098,-0.01089 0.0087,0 0.01089,-0.01014 0.02028,-0.0094 0.01014,0 0.01089,0 0.0087,-0.01014 0.01084,-0.01953 0.02028,0 0.01953,-0.01014 0.01014,-0.01084 0.02028,-0.0087 0.0094,-0.01084 0.01953,-0.01953 0.03042,-0.01014 0.0094,0 0.02098,-0.01953 0.01883,0 0.01014,-0.01089 0.01084,-0.01953 0.01014,0 0.0094,0 0.02028,-0.01953 0.01953,0 0.01959,-0.02098 0.01159,-0.0094 0.0087,0 0.02028,0 0.01084,-0.01014 0.01883,-0.01014 0.01953,-0.0094 0.03118,-0.0109 0.01953,-0.01014 0.01014,-0.0087 0.02098,-0.0109 0.0087,-0.01014 0.02098,0 0,-0.0087 0.008,0 0.02173,0 0,-0.02103 0.01959,-0.01014 0.01953,0 0.01014,-0.01953 0.02098,0 0.0087,-0.01089 0.02098,-0.0094 0.0094,-0.0094 0.02028,-0.01089 0.01959,-0.01953 0.01953,-0.01014 0.03042,-0.02098 0.01014,-0.0087 0,-0.0094 0.02028,-0.01159 0.0094,0 0.01089,-0.01883 0.01014,0 0.0094,-0.01089 0.02098,-0.0094 0.01014,-0.02028 0.01953,-0.0094 0,-0.01089 0.0094,-0.01014 0.0094,-0.0094 0.01014,-0.01014 0.01953,-0.01014 0,-0.0094 0.02173,-0.01014 0.0079,0 0.02098,-0.02028 0.01014,-0.01014 0.01014,-0.01014 0.02967,-0.0094 0.01084,-0.01014 0.008,-0.02028 0.02243,0 0.0087,0 0.0094,-0.01014 0.02028,-0.0094 0.01089,-0.01014 0.01883,-0.01014 0.01084,0 0.01959,-0.01089 0.02967,-0.01953 0.01014,0 0.01014,-0.01014 0.01014,-0.0094 0.01084,-0.01014 0.0087,-0.01014 0.02098,-0.0094 0.0087,0 0.03118,-0.02098 0,-0.02028 0.01959,0 0,-0.0094 0.01014,-0.0094 0.01014,-0.01089 0.0094,-0.0087 0.01014,-0.01014 0.01089,-0.01159 0.0087,-0.0087 0.01014,-0.0109 0.01089,-0.01014 0.01883,-0.0087 0.01084,-0.02028 0.01883,0 0.01159,-0.01014 0.01953,-0.02028 0.01014,0 0.01959,0 0,-0.02028 0.01084,0 0.02897,-0.02973 0.01089,-0.01014 0.01883,-0.01014 0.01159,-0.0094 0.01953,-0.01014 0.02967,-0.01953 0,-0.01014 0.02098,-0.01953 0.01014,-0.02098 0,-0.0094 0.01958,0 0.01014,-0.01089 0,-0.0094 0.01883,-0.0094 0,-0.02028 0.02028,-0.01014 0.01014,-0.01084 0.02967,-0.03842 0.01014,-0.01089 0.0094,-0.01953 0.01084,0 0,-0.02098 0.01084,-0.01953 0.0087,-0.01014 0,-0.03042 0.01014,-0.01953 0.01883,-0.03912 0.01084,-0.02098 0.02028,-0.02973 0,-0.01014 0.01014,-0.01953 0.02967,-0.03112 0.01959,-0.01883 0.01084,-0.02028 0.0109,0 0.0079,-0.02098 0.02173,-0.02973 0.0079,-0.0094 0.03118,-0.03981 0.01014,-0.01014 0,-0.0094 0.01014,-0.02098 0.0094,0 0,-0.01953 0.01089,-0.01014 0.01014,-0.01953 0.01014,-0.02028 0.01953,-0.01014 0.01014,-0.02028 0,-0.02028 0.01953,-0.01883 0,-0.01089 0.01014,-0.0094 0.01014,-0.0094 0.0087,-0.03042 0.01084,0 0.01014,-0.01953 0.0094,-0.0109 0,-0.01953 0.01014,-0.02967 0.01159,-0.03042 -0.01159,-0.02028 -0.01953,0 -0.02098,0.01014 -0.01883,0 -0.02028,0.01014 -0.01959,0.01014 -0.01953,0 -0.02028,0.0094 -0.01089,0 -0.02967,0 -0.02028,0.01089 -0.02967,0.0087 -0.01883,0 -0.03118,0.02098 -0.02828,0 0,0.0094 -0.02173,0 -0.02028,0 -0.01883,0 -0.02098,0.01014 0,0.01089 -0.01959,0 -0.02028,0 -0.01014,0.01953 -0.01953,0 -0.01014,0.01014 -0.01959,0.0087 -0.01084,0.01159 -0.01883,0 -0.01014,0.0094 -0.01959,0.0094 -0.02098,0 -0.01014,0 -0.01014,0.01089 -0.01014,0 -0.01953,0.0094 -0.0094,0 -0.02028,0.0094 -0.01014,0 -0.01959,0 -0.01014,0.0109 -0.02098,0.0094 -0.0087,0 -0.03042,0 -0.01014,0.01089 -0.01959,0.0094 -0.03042,0 -0.01014,0.01014 -0.02098,0.01014 -0.02967,0.01014 -0.0094,0 -0.02028,0.0094 -0.01959,0.01014 -0.01959,0 -0.01159,0 -0.01883,0 -0.01089,0 -0.01953,0 -0.02028,0 -0.01014,0 -0.01959,0 -0.01014,0 -0.01959,0 -0.01953,0 -0.01014,0 -0.01959,0 -0.01159,-0.01953 -0.01808,0 -0.01159,0 -0.01084,-0.01014 -0.008,0 -0.02967,0 -0.01084,0 -0.02028,0 -0.02098,0 -0.01808,0 -0.01159,0 -0.01953,0 -0.01958,0 -0.0094,-0.01014 0,-0.01953 0,-0.01089 0,-0.02028 0,-0.01883 0,-0.01089 0,-0.01883 0.0094,0 0.0094,-0.03042 0.02098,0 0.0087,-0.01953 0.01159,-0.02098 0.01014,-0.0094 0.0079,-0.0109 0.02098,-0.01014 0.01014,-0.0087 0.02098,-0.01089 0.01883,-0.01953 0.01084,-0.01014 0.01883,-0.01014 0.01159,-0.01014 0.0087,-0.01014 0.0094,-0.0094 0.02028,0 0.01089,-0.02028 0.02967,-0.0094 0,-0.02028 0.01959,0 0.02028,-0.02028 0.0094,-0.0094 0.01014,-0.0109 0.01014,-0.0094 0.01014,0 0.01084,-0.02028 0.0087,-0.01959 0.02098,-0.01014 0.0087,-0.02098 0.01159,0 0.0094,-0.0094 0.01959,-0.01953 0.03042,-0.02028 0.0094,-0.01953 0.02098,0 0.0087,-0.01014 0.01014,-0.01084 0.01089,-0.0094 0.01883,-0.02028 0.01084,0 0.03042,-0.02028 0,-0.0094 0.01953,-0.0094 0.01014,-0.01089 0.01959,0 0,-0.02028 0.01084,0 0.01014,-0.0094 0.01014,-0.01014 0.0087,-0.01014 0.01089,-0.0094 0.01014,-0.01014 0.02028,-0.01959 0.01953,0 0.0094,-0.01084 0.01014,-0.01014 0.01014,-0.0094 0.02098,-0.02028 0.01014,-0.0094 0.0087,-0.02028 0.01089,-0.01014 0.01014,-0.01084 0,-0.0094 0.0087,-0.0094 0.01014,-0.01089 0,-0.01953 0.02028,0 0,-0.01953 0.01014,0 0,-0.02098 0.01014,-0.0087 0.0094,-0.0109 0.01014,-0.0094 0.01959,-0.01014 0.01084,-0.01953 0.01084,-0.02098 0.0087,-0.0094 0.01014,-0.01089 0.01883,-0.01883 0,-0.01089 0.01084,-0.0094 0.02028,-0.01084 0,-0.0094 0.01014,-0.02028 0.01159,0 0,-0.01953 0.01808,0 0.01014,-0.02028 0.02028,-0.02028 0.01089,-0.0094 0.0079,-0.0094 0.0109,-0.01089 0.01084,-0.01014 0.01883,-0.01014 0.02028,-0.01953 0.02028,-0.01014 0.0094,-0.01953 0.01089,0 0,-0.03118 0.01014,-0.0094 0.01014,-0.0094 0,-0.01014 0.01953,-0.01014 0.01014,-0.01014 0.0094,-0.01014 0.01014,-0.01014 0,-0.0094 0.01014,-0.01014 0.02967,-0.02028 0.01014,-0.01014 0.0094,0 0.02173,0 0,-0.01014 0.02967,-0.01014 0.01953,0 0.01014,0 0.01953,-0.0094 0.01014,-0.02028 0.01883,0 0.02173,-0.0094 0.0087,-0.01014 0.01014,0 0.0109,-0.02028 0.02967,-0.01089 0.0087,-0.0087 0.02248,-0.01014 0,-0.0109 0.01883,-0.0087 0.01014,-0.01014 0.01959,-0.01089 0,-0.0094 0.01084,-0.0109 0.0094,-0.0094 0,-0.02028 -0.0094,-0.01883 0,-0.01084 -0.01084,-0.01014 0,0.01014 -0.04056,0 -0.0079,0 -0.02248,0 -0.0087,0 -0.02028,0.02028 -0.0094,0 -0.02098,0.0094 -0.01959,0 -0.01084,0 -0.01883,0 -0.01014,0 -0.01953,0.01089 -0.02967,0 0,0.0094 -0.02098,0 -0.0087,0 -0.02173,0 0,0.0094 -0.01959,0 -0.01084,0.0109 -0.01883,0 -0.02028,0.0094 -0.0094,0.01089 -0.01959,0 -0.01014,0.01014 -0.02028,0.0087 -0.01089,0.0109 -0.0094,0 -0.01014,0.01883 -0.02028,0 -0.01014,0 -0.02967,0 -0.01883,0 -0.02173,0 -0.0094,0 -0.02028,0 -0.008,0 -0.02173,0 -0.03118,0 -0.0079,0 -0.02098,-0.0087 -0.01959,0 -0.02028,-0.01014 -0.01014,0 -0.01953,0 -0.01014,0 -0.01959,0 -0.02098,-0.0109 -0.0087,0 -0.02098,-0.0087 -0.0087,0 -0.02098,0 0,-0.02098 0.01084,-0.02028 0.01014,-0.0094 0,-0.02028 0.0087,0 0.01089,-0.01883 0.01014,-0.01084 0.0087,0 0.01014,-0.01953 0.02028,0 0.01014,-0.01089 0.01953,-0.0094 0.01014,-0.02028 0.01959,0 0.01084,-0.0094 0.01084,0 0.0087,-0.02098 0.02897,0 0,-0.0094 0.01084,-0.01014 0.01089,-0.01014 0.01953,0 0.01959,-0.01014 0.02028,-0.0094 0.02028,-0.0094 0.02973,-0.02098 0.01883,-0.02028 0.01089,-0.0094 0.01014,-0.0094 0.02028,-0.0109 0.01953,-0.0094 0,-0.01014 0.02098,0 0.01014,-0.02028 0.01953,0 0.01014,-0.01014 0.01953,-0.01014 0.01014,-0.0094 0.01883,0 0.01084,-0.01014 0.01959,-0.01014 0.03042,-0.01953 0.02098,-0.02098 0.01953,-0.0094 0.01014,-0.01014 0.01953,-0.01014 0.01014,0 0.01084,-0.01953 0.008,-0.01014 0.01084,0 0.01959,-0.01953 0.01014,-0.01089 0.01089,-0.01883 0.02028,-0.0109 0.0094,-0.0094 0.02028,0 0.01089,-0.01014 0.01883,-0.01014 0.01014,0 0.01959,-0.02028 0.01084,-0.0094 0.01883,0 0.01159,-0.01084 0.01953,-0.0094 0.0087,-0.02028 0.01014,-0.01014 0.0109,-0.0094 0.01014,-0.01089 0.0087,-0.0094 0.02098,-0.01089 0.01883,-0.01883 0.01089,-0.01084 0.01084,-0.0094 0.01883,-0.01014 0.02028,0 0.01084,-0.01014 0.0094,-0.01953 0.01014,0 0.02028,-0.01089 0.0087,-0.0094 0.0109,-0.02028 0.01953,0 0,-0.0094 0.01014,-0.02028 0.01014,-0.0109 0.01014,-0.0087 0.0094,-0.02973 0.01084,-0.01084 0.01014,-0.01014 0.0087,-0.01014 0.0094,-0.0094 0.01234,-0.02967 0.0094,0 0,-0.02028 0.02028,0 0.0094,-0.01014 0,-0.02028 0.01959,0 0.01159,-0.0094 0.01953,-0.01014 0,-0.01953 0.01014,-0.0109 0.0087,-0.01883 0.01084,-0.02098 0,-0.0087 0.0094,-0.0109 0.01014,-0.0109 0.01014,-0.0094 0,-0.01014 0.01883,0 0,-0.02028 0.02173,-0.0094 0.0094,-0.01014 0,-0.01014 0.01953,-0.0094 0.01014,-0.01089 0,-0.0094 0,-0.02028 0.02028,0 0,-0.01953 0.01014,0 0.0094,-0.02098 0.01084,0 0,-0.02967 0.01014,0 0,-0.01953 0.0079,-0.01089 0.01089,-0.0094 0.01084,-0.0094 0.01959,0 0.01953,0 0.01089,0 0.01084,0.01883 0.0079,0.01089 0.0109,0 0.01084,0.01953 0.0079,0.01014 0.01089,0.01953 0.01159,0.02098 0,0.01014 0.01808,0.0094 0.01084,0.02973 0,0.01089 0.0094,0.0094 0.01014,0.02973 0.01084,0 0,0.02028 0.0087,0.01014 0.01014,0.0094 0,0.02173 0.01014,0.0087 0.0094,0.02098 0,0.0087 0.01084,0.01014 0,0.02098 0,0.0094 0,0.01953 0.02028,0.01014 0,0.02028 0.0094,0 0,0.02028 0.01089,0.0094 0.0094,0.0094 0,0.01084 0.0087,0.01953 0.02098,0.02098 0.01014,0.02973 0.02098,0 0,0.01953 0.0087,0.02028 0.0109,0.0094 0,0.0109 0.01014,0.0094 0,0.0094 0.01883,0.0109 0,0.01014 0.01959,0.01953 0,0.01953 0.01084,0 0,0.02173 0.01014,0.008 0,0.02028 0.01014,0.02028 0,0.02028 0,0.01014 0,0.0094 0.01014,0.01084 0,0.0094 0.0094,0.02028 0.01014,0.01014 0,0.01014 0.0094,0 0.01089,0.02028 0.01084,0 0,0.0094 0.01883,0.02028 0,0.0094 0.01084,0.01014 0.0094,0.01014 0.0094,0.01014 0.02098,0.0094 0.0094,0.01014 0.02028,0.01014 0,0.0094 0.01959,0.01089 0.01014,0 0,0.01014 0.0094,0.01014 0.02173,0.0094 0.01959,0.02028 0.01808,0.0094 0.01159,0.01014 0.01953,0.01014 0.01014,0.01014 0,0.01014 0.01014,0 0.0094,0.01953 0.0094,0 0.02103,0.02028 0.0094,0.0094 0.01159,0.01089 0.0087,0.0094 0.01014,0 0.0094,0.02098 0.01014,0.0094 0.0094,0 0.01159,0.0094 0,0.01014 0.01883,0.02028 0.01084,0.0094 0.02028,0.02098 0.0094,0 0.01089,0.0094 0.01014,0.0094 0.01959,0.01089 0.0094,0.0094 0,0.0109 0.01084,0.0094 0.02028,0.01014 0.008,0.01084 0.01084,0.01883 0.02028,0.02028 0.0094,0 0.01014,0.0094 0.01014,0.01089 0.0094,0.02028 0.01959,0.01014 0.02173,0.0087 0.0087,0.0109 0,0.01014 0.02098,0.0087 0.0087,0.01089 0.01084,0.01014 0.01014,0.01014 0.01959,0.01953 0.01084,0.01089 0.01014,0.0094 0.0087,0.0094 0.01084,0 0.01089,0.01014 0.0079,0.01014 0,0.01014 0.02243,0.01014 0.0087,0.01014 0.01014,0.01014 0.01883,0.0094 0.01084,0.01014 0.01959,0 0.02173,0 0,0.02028 0.0094,0.01014 0.0087,0.01953 0.01084,0 0,0.0094 0.01159,0.0109 0.01883,0 0,0.02028 0.01084,0.0094 0.0072,0 0.01159,0.01014 0.01014,0.01014 0.0094,0 0.02098,0.01953 0.0087,0 0,0.03118 0.01084,0 0.01014,0.01883 0.01953,0.01089 0.01014,0.01953 0.0087,0 0.01089,0.01953 0.01084,0 0.01953,0.02028 0.01014,0.01014 0.0094,0.0094 0.01014,0.01084 0.02098,0.0094 0.0087,0.01089 0.02098,0.01883 0.01953,0.01089 0.01014,0.0094 0.0087,0.01014 0.01159,0.0109 0.0094,0.0094 0.02967,0.02028 0.01014,0.0094 0.01014,0.0109 0.02098,0.0087 0.0094,0 0.02028,0.01014 0.0087,0.01089 0.01014,0.0094 0.01084,0.01014 0,0.01014 0.03118,0 0.0087,0.02028 0.0094,0.0094 0.01014,0.0094 0,0.01084 0.02028,0 0,0.01959 0.01084,0.01084 0.01883,0.0094 0.01084,0.01014 0.01883,0.01953 0.02098,0.01014 0.0094,0.01084 0.02028,0.0087 0.03118,0.02098 0.0079,0 0.01014,0.01953 0.01159,0.01014 0.01883,0.0094 0,0.01089 0.01953,0.0094 0,0.01089 0.0094,0.0094 0.01159,0.0094 0,0.02028 -0.01159,0.01014 0,0.01953 0,0.02098 -0.0094,0.0094 -0.0087,0.02028 -0.01084,0 -0.01883,0 -0.01159,0 -0.02967,0 -0.01959,0 -0.01014,0 -0.02967,0 -0.01084,-0.01014 -0.01883,0 -0.02098,-0.01014 -0.01953,0 -0.02028,0 0,-0.0094 -0.01953,0 -0.0087,-0.01014 -0.02173,-0.01084 -0.0094,0 -0.02098,-0.0094 -0.01959,0 -0.0094,-0.01014 0,-0.01014 -0.03042,-0.0094 -0.01014,0 -0.01959,0 -0.01159,-0.01089 -0.0087,0 -0.02098,0 -0.0087,0 -0.02098,0 -0.01883,0 -0.01084,0 -0.01883,0 -0.01084,0 -0.01959,0 -0.01014,0.02028 0,0.01014 0,0.01953 0.01014,0 0,0.02098 0.0094,0.01953 0.01014,0.01014 0,0.02028 0,0.0094 0.02098,0.0094 0,0.02098 0.0087,0.01014 0,0.01959 0,0.02967 0.01084,0 0.01014,0.02028 0,0.01089 0,0.01883 0.0087,0 0,0.02028 0,0.02028 0,0.01953 0.01084,0.01014 0.01014,0 0,0.02028 0.0087,0.01014 0.02098,0.02028 0.0087,0.01883 0.02098,0.02028 0.01014,0.02098 0.01014,0.0087 0,0.01089 0.01014,0.01014 0.01089,0.0087 0.0094,0.02098 0,0.0094 0.02028,0.01089 0.0087,0.0094 0.01014,0.02028 0.02028,0 0.02173,0.02028 0.0087,0 0.0094,0.0094 0.01883,0.02028 0.01159,0.01014 0.01953,0.01953 0.01014,0.01014 0.01084,0.0094 0.01014,0.02028 0.0087,0.01089 0,0.0094 0.02098,0.02028 0,0.0094 0.0094,0.01014 0.01014,0.01014 0.01014,0.0094 0.0094,0 0.02173,0.01089 0,0.01014 0.01808,0 0.01159,0.0087 0.01883,0 0,0.01159 0.01953,0.0094 0.02098,0.0094 0.01883,0 0.02173,0.01089 0.0087,0.0094 0.02098,0.0094 0.02028,0 0.02967,0.0109 0,0.01014 0.01883,0 0.02028,0 0.02028,0.01014 0.01883,0.01014 0.03187,0 0,0.0094 0.03042,0.01014 0.0087,0.01014 0.01014,0 0.01883,0 0.02173,0.0094 0.0087,0.01014 0.01014,0.01014 0.02028,0.01089 0.0094,0.0094 0.01959,0.01014 0,0.01014 0.02173,0 0.01089,0.0094 0.0087,0.01014 0.01014,0.0094 0,0.02028 0.01953,0 0.01014,0 0.01953,0.01014 0.01014,0.01014 0.02098,0 0.0087,0.0094 0.01958,0.01014 0,0.01014 0.02243,0 0.0079,0.01089 0.01089,0.0094 0.01014,0.02098 0,0.02898 -0.01014,0.0094 -0.01089,0 -0.02028,0 -0.01014,0 -0.02828,0 -0.02098,0 -0.01808,0 -0.01159,0 -0.01883,0 -0.01084,0 -0.01883,0 -0.02098,0 -0.01159,0 -0.02897,0 -0.02028,0 0,-0.0094 -0.01883,0 -0.01084,0 -0.01959,0 -0.01014,0 -0.01883,0 -0.02173,0 -0.01883,0 -0.02173,0 -0.01883,0 -0.02028,0 -0.0094,0 -0.02028,0 -0.0094,0 -0.04126,0 -0.0087,0 -0.02098,0 -0.01808,0 -0.03118,0 -0.01159,0 -0.01808,0 -0.01084,0 -0.01883,0 -0.01159,0 -0.01808,-0.01014 -0.03118,-0.01883 -0.02967,0 -0.01014,-0.01089 -0.01084,-0.01014 -0.01883,-0.02028 -0.01084,-0.01014 -0.01883,-0.01953 -0.02248,0 -0.01883,-0.01014 -0.01808,-0.01014 -0.02173,0 -0.02028,0 -0.01014,-0.0094 -0.01959,0 -0.0094,0 -0.03042,-0.01089 -0.02028,0 -0.0094,0 -0.02028,0 -0.0094,-0.0094 -0.02028,0 -0.02098,0 -0.01883,0 -0.01084,-0.01014 -0.01883,0 -0.01084,0 -0.02973,0 -0.01953,-0.0094 -0.03042,0 -0.02098,0 -0.01883,0 -0.01084,-0.01014 -0.01959,0 -0.01014,0 -0.01959,0 -0.04126,-0.01014 -0.01883,0 -0.01953,0 -0.02098,0 -0.01014,0 -0.01959,-0.0094 -0.01084,-0.01089 -0.01883,-0.01014 -0.01883,0 -0.01229,-0.01014 -0.01014,-0.0094 -0.01883,0 0,-0.01014 -0.01953,-0.01014 -0.01014,-0.0094 -0.01084,0 -0.02973,-0.01014 -0.01084,-0.01014 -0.01883,-0.01014 -0.01084,0 -0.01883,-0.01089 -0.01159,0 -0.01959,0 -0.02967,0 -0.01883,0 -0.02173,0 -0.008,0 0,0.02098 0,0.01014 0.008,0.01014 0.01084,0.0094 0.01084,0.02028 0,0.01953 0,0.02098 0.0094,0.01953 0.0094,0.01014 0,0.0094 0.02028,0.01014 0.0094,0.02967 0.01159,0 0.01953,0.01014 0.01014,0.01014 0.0087,0.0094 0.02098,0.02028 0.0087,0.01089 0.02098,0 0.01959,0.01953 0.05146,0.01953 0.01808,0.01014 0.02098,0.01014 0,0.0094 0.02028,0.01084 0.0087,0.01014 0,0.02028 0.02173,0 0.0087,0.01883 0.01014,0.0109 0.01159,0.0094 0.0094,0.02098 0.01953,0.01953 0.01883,0.01014 0.01159,0.0094 0.01084,0.01014 0.0072,0.01953 0.02173,0.01014 0.0094,0 0.01014,0.02098 0.01959,0 0,0.0094 0.02098,0.02028 0.0087,0 0.02098,0.0094 0.03042,0.01014 0.0094,0.01014 0.02028,0.01014 0,0.0094 0.0094,0.01089 0.01014,0.0087 0.02098,0.02098 0.0087,0 0,0.02028 0.02967,0.01014 0.02098,0.01953 0.0087,0.0094 0.02098,0.02028 0.02967,0.0094 0,0.01089 0.01014,0.01014 0.01014,0.0094 0.02098,0.01014 0.0094,0.01014 0,0.0094 0.02028,0.01014 0.0087,0.01014 0.02098,0 0.03118,0.03042 0.0087,0.01014 0.01953,0.0094 0.02028,0.01014 0,0.01014 0.01953,0.01014 0.01014,0.01014 0.02098,0.01953 0.0087,0.01014 0.02098,0.01014 0.01953,0.02028 0.01014,0.0094 0.0094,0.01014 0.02173,0.01953 0.0079,0.01014 0.01014,0.01089 0.02028,0.0094 0.02098,0.02028 0.0087,0.0094 0.0094,0 0.02028,0.01089 0,0.0094 0.01014,0 0.02173,0.0094 0.0087,0.01159 0.02098,0 0.02028,0.01808 0.01808,0.01084 0.01159,0.01014 0.01883,0.01014 0.01089,0 0.0094,0.01953 0.02028,0.01089 0.01883,0.0094 0.01234,0.0094 0.01959,0 0.0087,0.01089 0.02173,0.0094 0.0087,0 0.01014,0.01014 0.02967,0.01014 0.02967,0.01014 0.02028,0.0109 0.0094,0.0087 0.01959,0 0.02173,0.01014 0.01089,0.0109 0.0087,0 0.01014,0 0.02967,0.01883 0.02967,0.01089 0.02098,0 0.0087,0.01953 0.01959,0 0.01014,0.01014 0.02028,0.0094 0.02104,0.01089 0.01953,0.01014 0.01084,0.0087 0.03042,0.01084 0.01808,0.01014 0.02173,0.02028 0.008,0.0087 0.01159,0 0.01808,0.02104 0.02098,0 0.02028,0 0.01084,0.0087 0.02973,0.0109 0.02028,0.01084 0.0094,0 0.01883,0 0.02248,0 0.0087,0.0087 0.01014,0.01084 0.01953,0 0.01014,0 0.01014,0.01014 0.02028,0.0087 0.02967,0 0.01883,0.01089 0.02098,0.01014 0.02028,0.0094 0.0094,0.01014 0.03042,0.01089 0.01084,0.0094 0.03118,0.01953 0.01808,0 0.01014,0.01014 0.01953,0.01014 0.02967,0.02028 0.03042,0.01014 0.01014,0.01953 0.01084,0 0.01959,0 0.01883,0.02028 0.02098,0 0.01953,0.0094 0.01959,0.01014 0.02967,0.0109 0.02967,0.0094 0.03118,0.01014 0.02028,0.01014 0.0094,0.0094 0.02173,0 0,0.02028 0,0.0094 0,0.02098 0,0.02028 -0.01234,0.0094 -0.0094,0 0,0.02028 0,0.02028 0,0.01883 -0.0094,0.02098 -0.01159,0.0094 -0.0087,0 0,0.02028 -0.02028,0.0094 -0.01883,0.01014 -0.01159,0.01014 -0.01014,0 -0.01883,0 0,0.01084 -0.01084,0.0094 -0.01959,0 -0.01014,0.0094 -0.02028,0 -0.01883,0.01089 -0.02098,0 -0.0087,0.0094 -0.02098,0 -0.0087,0.01014 -0.02173,0.01014 -0.0094,0 -0.02028,0.0094 -0.01953,0.01159 -0.02098,0 -0.0072,0.0094 -0.02248,0 -0.0087,0 -0.02098,0.0087 -0.0087,0.01159 -0.02098,0 -0.0087,0 -0.02098,0 -0.01159,0.0087 -0.0087,0.01014 -0.02967,0 -0.02104,0.01089 -0.0094,0 -0.02028,0.0094 0,0.0094 -0.01014,0 -0.01959,0 -0.0087,0 -0.02248,0.01089 -0.0087,0.0094 -0.01953,0 -0.01014,0.01089 -0.01014,0 -0.02098,0.01014 -0.0087,0 -0.02098,0.0087 -0.03112,0.0109 -0.01808,0.01014 -0.01159,0 -0.01883,0 -0.01959,0.0094 -0.0094,0 -0.02028,0 -0.01014,0.01014 -0.03042,0 -0.01014,0 -0.01089,0.01014 -0.0079,0.0094 -0.02243,0 -0.008,0.01089 -0.02028,0 -0.0094,0 -0.01159,0.01883 -0.01808,0 -0.01159,0.01089 -0.01883,0.01014 -0.01084,0.01014 -0.01883,0 -0.0109,0.0094 -0.01014,0.01014 -0.01159,0.01014 -0.0087,0.01014 -0.02028,0 0,0.01953 -0.02028,0.01014 -0.01883,0.01014 -0.01084,0.01014 -0.01958,0 -0.01014,0.0094 -0.01883,0.01089 -0.01089,0.0094 -0.01953,0 -0.01014,0 -0.02173,0.0094 -0.0094,0.01084 -0.0094,0 -0.02028,0.01014 -0.0094,0.0094 0,0.03042 0.01883,0 0.01089,0.01953 0.01883,0.02098 0.01234,0.0094 0.01959,0.01014 z"
       id="path33816"
       style="fill:#000000;fill-opacity:1;fill-rule:nonzero;stroke:none"
       inkscape:connector-curvature="0" />
    <g
       transform="matrix(0.08,0,0,0.08,-44.351421,17.346198)"
       id="text43993"
       style="font-size:57.59493637px;font-style:normal;font-variant:normal;font-weight:normal;font-stretch:normal;text-align:center;line-height:100%;letter-spacing:0px;word-spacing:0px;writing-mode:lr-tb;text-anchor:middle;fill:none;stroke:#000000;stroke-width:0.41139239px;stroke-linecap:butt;stroke-linejoin:miter;stroke-opacity:1;font-family:Roadgeek 2005 Series C;-inkscape-font-specification:Roadgeek 2005 Series C">
      <path
         d="m 642.6695,-122.03351 -6.22025,-16.81772 -7.31456,0 0,16.81772 -6.10506,0 0,-38.58861 12.72848,0 c 1.49745,4e-5 2.78374,0.096 3.85886,0.28798 1.07508,0.15362 2.09259,0.4608 3.05253,0.92152 0.8447,0.4224 1.61264,0.97915 2.3038,1.67025 0.72951,0.65278 1.34385,1.42071 1.84304,2.3038 0.53752,0.84476 0.94069,1.76627 1.20949,2.76456 0.30715,0.95994 0.46073,1.91986 0.46076,2.87974 -3e-5,1.03674 -0.15361,2.05425 -0.46076,3.05253 -0.2688,0.95994 -0.67197,1.88146 -1.20949,2.76456 -0.49919,0.84475 -1.13273,1.61268 -1.90063,2.3038 -0.72957,0.69116 -1.53589,1.22871 -2.41899,1.61266 l 6.7962,18.02721 -6.62342,0 m -0.28797,-27.76076 c -3e-5,-0.8063 -0.21121,-1.57423 -0.63355,-2.3038 -0.42238,-0.7295 -1.01753,-1.30545 -1.78544,-1.72784 -0.49918,-0.26875 -0.95994,-0.44153 -1.38228,-0.51836 -0.42238,-0.11516 -1.13272,-0.17275 -2.13101,-0.17278 l -7.31456,0 0,9.44557 7.31456,0 c 0.9599,2e-5 1.65104,-0.0384 2.07342,-0.11519 0.46074,-0.0768 0.94069,-0.24956 1.43987,-0.51836 0.76791,-0.42234 1.36306,-0.99828 1.78544,-1.72785 0.42234,-0.7679 0.63352,-1.55503 0.63355,-2.36139"
         id="path44766"
         style="fill:#000000;fill-opacity:1;stroke:none;font-family:Roadgeek 2005 Series D;-inkscape-font-specification:Roadgeek 2005 Series D"
         inkscape:connector-curvature="0" />
      <path
         d="m 655.76425,-122.03351 0,-38.58861 22.75,0 0,6.10507 -16.64493,0 0,9.44557 11.23101,0 0,6.22025 -11.23101,0 0,10.59747 17.85443,0 0,6.22025 -23.9595,0"
         id="path44768"
         style="fill:#000000;fill-opacity:1;stroke:none;font-family:Roadgeek 2005 Series D;-inkscape-font-specification:Roadgeek 2005 Series D"
         inkscape:connector-curvature="0" />
      <path
         d="m 711.70604,-129.86642 c -2.30383,5.6827 -6.18188,8.52405 -11.63418,8.52405 -2.87976,0 -5.26035,-0.55675 -7.14177,-1.67025 -1.88145,-1.1135 -3.43651,-2.86055 -4.66519,-5.24114 -0.88313,-1.72784 -1.57427,-3.74366 -2.07342,-6.04747 -0.49916,-2.30378 -0.74874,-4.66517 -0.74874,-7.08418 0,-3.0717 0.38397,-6.00904 1.1519,-8.81202 0.76793,-2.80292 1.82384,-5.06832 3.16773,-6.7962 1.15188,-1.42064 2.53416,-2.49575 4.14683,-3.22532 1.65104,-0.7295 3.57087,-1.09427 5.75949,-1.0943 2.91813,3e-5 5.31791,0.63358 7.19937,1.90063 1.91981,1.26712 3.53246,3.26375 4.83798,5.98987 l -5.7019,2.41899 c -0.53758,-0.8063 -1.03674,-1.47824 -1.49747,-2.01582 -0.42239,-0.53753 -0.88315,-0.95989 -1.38228,-1.26709 -0.46078,-0.30714 -0.97913,-0.51832 -1.55506,-0.63355 -0.53758,-0.11515 -1.17112,-0.17275 -1.90064,-0.17278 -1.57427,3e-5 -2.89896,0.3648 -3.97405,1.0943 -1.03672,0.72957 -1.88144,1.95826 -2.53417,3.68608 -0.49917,1.15192 -0.88314,2.515 -1.1519,4.08924 -0.23039,1.57428 -0.34558,3.18694 -0.34557,4.83797 -10e-6,2.11183 0.21117,4.14685 0.63354,6.10507 0.42235,1.91984 1.0175,3.4941 1.78545,4.72278 0.69112,0.99832 1.49745,1.74705 2.41898,2.2462 0.92151,0.49917 2.05421,0.74874 3.3981,0.74874 1.30547,0 2.43817,-0.34557 3.39811,-1.03671 0.95989,-0.72953 1.82381,-1.88143 2.59177,-3.4557 l 5.81709,2.18861 0,0"
         id="path44770"
         style="fill:#000000;fill-opacity:1;stroke:none;font-family:Roadgeek 2005 Series D;-inkscape-font-specification:Roadgeek 2005 Series D"
         inkscape:connector-curvature="0" />
      <path
         d="m 739.74847,-122.03351 -6.22026,-16.81772 -7.31455,0 0,16.81772 -6.10507,0 0,-38.58861 12.72848,0 c 1.49745,4e-5 2.78374,0.096 3.85887,0.28798 1.07508,0.15362 2.09259,0.4608 3.05253,0.92152 0.8447,0.4224 1.61263,0.97915 2.30379,1.67025 0.72951,0.65278 1.34386,1.42071 1.84304,2.3038 0.53753,0.84476 0.94069,1.76627 1.2095,2.76456 0.30714,0.95994 0.46073,1.91986 0.46076,2.87974 -3e-5,1.03674 -0.15362,2.05425 -0.46076,3.05253 -0.26881,0.95994 -0.67197,1.88146 -1.2095,2.76456 -0.49918,0.84475 -1.13273,1.61268 -1.90063,2.3038 -0.72956,0.69116 -1.53589,1.22871 -2.41899,1.61266 l 6.7962,18.02721 -6.62341,0 m -0.28798,-27.76076 c -2e-5,-0.8063 -0.2112,-1.57423 -0.63354,-2.3038 -0.42239,-0.7295 -1.01753,-1.30545 -1.78544,-1.72784 -0.49918,-0.26875 -0.95994,-0.44153 -1.38228,-0.51836 -0.42239,-0.11516 -1.13272,-0.17275 -2.13102,-0.17278 l -7.31455,0 0,9.44557 7.31455,0 c 0.9599,2e-5 1.65104,-0.0384 2.07342,-0.11519 0.46074,-0.0768 0.9407,-0.24956 1.43988,-0.51836 0.76791,-0.42234 1.36305,-0.99828 1.78544,-1.72785 0.42234,-0.7679 0.63352,-1.55503 0.63354,-2.36139"
         id="path44772"
         style="fill:#000000;fill-opacity:1;stroke:none;font-family:Roadgeek 2005 Series D;-inkscape-font-specification:Roadgeek 2005 Series D"
         inkscape:connector-curvature="0" />
      <path
         d="m 752.84321,-122.03351 0,-38.58861 22.75,0 0,6.10507 -16.64493,0 0,9.44557 11.23101,0 0,6.22025 -11.23101,0 0,10.59747 17.85443,0 0,6.22025 -23.9595,0"
         id="path44774"
         style="fill:#000000;fill-opacity:1;stroke:none;font-family:Roadgeek 2005 Series D;-inkscape-font-specification:Roadgeek 2005 Series D"
         inkscape:connector-curvature="0" />
      <path
         d="m 806.07803,-122.03351 -3.80127,-10.82785 -12.03734,0 -3.80126,10.82785 -6.50823,0 13.30443,-38.58861 6.04747,0 13.30443,38.58861 -6.50823,0 m -9.73354,-27.87595 -3.97405,10.82785 7.71772,0 -3.74367,-10.82785"
         id="path44776"
         style="fill:#000000;fill-opacity:1;stroke:none;font-family:Roadgeek 2005 Series D;-inkscape-font-specification:Roadgeek 2005 Series D"
         inkscape:connector-curvature="0" />
      <path
         d="m 829.94394,-155.20819 0,33.17468 -6.10506,0 0,-33.17468 -8.81203,0 0,-5.41393 23.84431,0 0,5.41393 -8.92722,0"
         id="path44778"
         style="fill:#000000;fill-opacity:1;stroke:none;font-family:Roadgeek 2005 Series D;-inkscape-font-specification:Roadgeek 2005 Series D"
         inkscape:connector-curvature="0" />
      <path
         d="m 844.52266,-122.03351 0,-38.58861 6.22025,0 0,38.58861 -6.22025,0"
         id="path44780"
         style="fill:#000000;fill-opacity:1;stroke:none;font-family:Roadgeek 2005 Series D;-inkscape-font-specification:Roadgeek 2005 Series D"
         inkscape:connector-curvature="0" />
      <path
         d="m 886.48507,-141.27022 c -3e-5,3.07175 -0.3648,6.00909 -1.0943,8.81203 -0.72957,2.80296 -1.76628,5.06836 -3.11013,6.7962 -2.15024,2.87975 -5.26036,4.31962 -9.33038,4.31962 -2.72618,0 -4.97238,-0.55675 -6.73861,-1.67025 -1.76625,-1.1135 -3.22532,-2.86055 -4.37721,-5.24114 -0.80634,-1.65105 -1.45908,-3.64767 -1.95823,-5.98987 -0.49916,-2.38058 -0.74874,-4.72277 -0.74873,-7.02659 -10e-6,-3.18689 0.36476,-6.14343 1.0943,-8.86962 0.76793,-2.72613 1.80463,-5.01072 3.11013,-6.85379 1.15189,-1.45904 2.51496,-2.53414 4.08924,-3.22532 1.61264,-0.7295 3.53247,-1.09427 5.75949,-1.0943 2.45736,3e-5 4.54998,0.55678 6.27785,1.67025 1.72782,1.11354 3.20609,2.86058 4.43481,5.24114 0.8063,1.72788 1.43984,3.7437 1.90063,6.04747 0.46073,2.30382 0.69111,4.66521 0.69114,7.08417 m -6.10506,0 c -3e-5,-2.18858 -0.19201,-4.2044 -0.57595,-6.04747 -0.38399,-1.8814 -0.95994,-3.47486 -1.72785,-4.78038 -0.61437,-0.99828 -1.32471,-1.72781 -2.13101,-2.1886 -0.76796,-0.46073 -1.72787,-0.72951 -2.87975,-0.80633 -1.49748,-0.0768 -2.74537,0.26881 -3.74367,1.03671 -0.99833,0.76796 -1.82385,2.01585 -2.47658,3.74367 -0.49917,1.15192 -0.88314,2.5534 -1.1519,4.20443 -0.23039,1.61268 -0.34558,3.22534 -0.34557,4.83797 -10e-6,2.07344 0.19197,4.07006 0.57595,5.98988 0.38395,1.91984 0.9599,3.4941 1.72785,4.72278 0.61433,0.99832 1.34386,1.74705 2.1886,2.2462 0.84471,0.49917 1.88142,0.74874 3.11013,0.74874 1.42066,0 2.59175,-0.38396 3.51329,-1.1519 0.95989,-0.76793 1.76622,-2.01581 2.41899,-3.74367 0.19196,-0.49915 0.38394,-1.09429 0.57595,-1.78544 0.19196,-0.72953 0.34554,-1.47826 0.46076,-2.24621 0.15356,-0.80631 0.26875,-1.61264 0.34557,-2.41898 0.0768,-0.80632 0.11516,-1.59345 0.11519,-2.3614"
         id="path44782"
         style="fill:#000000;fill-opacity:1;stroke:none;font-family:Roadgeek 2005 Series D;-inkscape-font-specification:Roadgeek 2005 Series D"
         inkscape:connector-curvature="0" />
      <path
         d="m 915.8801,-122.03351 -14.74431,-26.1481 0,26.1481 -6.10506,0 0,-38.58861 6.10506,0 14.05317,24.65064 0,-24.65064 6.10506,0 0,38.58861 -5.41392,0"
         id="path44784"
         style="fill:#000000;fill-opacity:1;stroke:none;font-family:Roadgeek 2005 Series D;-inkscape-font-specification:Roadgeek 2005 Series D"
         inkscape:connector-curvature="0" />
      <path
         d="m 975.52775,-122.03351 -6.22025,-16.81772 -7.31456,0 0,16.81772 -6.10506,0 0,-38.58861 12.72848,0 c 1.49745,4e-5 2.78373,0.096 3.85886,0.28798 1.07508,0.15362 2.09259,0.4608 3.05253,0.92152 0.8447,0.4224 1.61263,0.97915 2.3038,1.67025 0.7295,0.65278 1.34385,1.42071 1.84303,2.3038 0.53753,0.84476 0.94069,1.76627 1.2095,2.76456 0.30714,0.95994 0.46073,1.91986 0.46076,2.87974 -3e-5,1.03674 -0.15362,2.05425 -0.46076,3.05253 -0.26881,0.95994 -0.67197,1.88146 -1.2095,2.76456 -0.49918,0.84475 -1.13272,1.61268 -1.90063,2.3038 -0.72956,0.69116 -1.53589,1.22871 -2.41899,1.61266 l 6.79621,18.02721 -6.62342,0 m -0.28798,-27.76076 c -2e-5,-0.8063 -0.2112,-1.57423 -0.63354,-2.3038 -0.42239,-0.7295 -1.01753,-1.30545 -1.78544,-1.72784 -0.49918,-0.26875 -0.95994,-0.44153 -1.38228,-0.51836 -0.42238,-0.11516 -1.13272,-0.17275 -2.13101,-0.17278 l -7.31456,0 0,9.44557 7.31456,0 c 0.95989,2e-5 1.65103,-0.0384 2.07341,-0.11519 0.46074,-0.0768 0.9407,-0.24956 1.43988,-0.51836 0.76791,-0.42234 1.36305,-0.99828 1.78544,-1.72785 0.42234,-0.7679 0.63352,-1.55503 0.63354,-2.36139"
         id="path44786"
         style="fill:#000000;fill-opacity:1;stroke:none;font-family:Roadgeek 2005 Series D;-inkscape-font-specification:Roadgeek 2005 Series D"
         inkscape:connector-curvature="0" />
      <path
         d="m 1015.1738,-141.27022 c -10e-5,3.07175 -0.3648,6.00909 -1.0943,8.81203 -0.7296,2.80296 -1.7663,5.06836 -3.1102,6.7962 -2.1502,2.87975 -5.2603,4.31962 -9.3303,4.31962 -2.72622,0 -4.97243,-0.55675 -6.73866,-1.67025 -1.76625,-1.1135 -3.22532,-2.86055 -4.37721,-5.24114 -0.80634,-1.65105 -1.45908,-3.64767 -1.95823,-5.98987 -0.49916,-2.38058 -0.74874,-4.72277 -0.74873,-7.02659 -1e-5,-3.18689 0.36476,-6.14343 1.0943,-8.86962 0.76793,-2.72613 1.80463,-5.01072 3.11013,-6.85379 1.15189,-1.45904 2.51496,-2.53414 4.08924,-3.22532 1.61264,-0.7295 3.53247,-1.09427 5.75946,-1.0943 2.4574,3e-5 4.55,0.55678 6.2779,1.67025 1.7278,1.11354 3.2061,2.86058 4.4348,5.24114 0.8063,1.72788 1.4398,3.7437 1.9006,6.04747 0.4607,2.30382 0.6911,4.66521 0.6912,7.08417 m -6.1051,0 c 0,-2.18858 -0.192,-4.2044 -0.576,-6.04747 -0.3839,-1.8814 -0.9599,-3.47486 -1.7278,-4.78038 -0.6144,-0.99828 -1.3247,-1.72781 -2.131,-2.1886 -0.768,-0.46073 -1.7279,-0.72951 -2.8798,-0.80633 -1.4974,-0.0768 -2.74533,0.26881 -3.74363,1.03671 -0.99833,0.76796 -1.82385,2.01585 -2.47658,3.74367 -0.49917,1.15192 -0.88314,2.5534 -1.1519,4.20443 -0.23039,1.61268 -0.34558,3.22534 -0.34557,4.83797 -10e-6,2.07344 0.19197,4.07006 0.57595,5.98988 0.38395,1.91984 0.9599,3.4941 1.72785,4.72278 0.61433,0.99832 1.34386,1.74705 2.1886,2.2462 0.84471,0.49917 1.88138,0.74874 3.11018,0.74874 1.4206,0 2.5917,-0.38396 3.5132,-1.1519 0.9599,-0.76793 1.7663,-2.01581 2.419,-3.74367 0.192,-0.49915 0.384,-1.09429 0.576,-1.78544 0.1919,-0.72953 0.3455,-1.47826 0.4607,-2.24621 0.1536,-0.80631 0.2688,-1.61264 0.3456,-2.41898 0.077,-0.80632 0.1152,-1.59345 0.1152,-2.3614"
         id="path44788"
         style="fill:#000000;fill-opacity:1;stroke:none;font-family:Roadgeek 2005 Series D;-inkscape-font-specification:Roadgeek 2005 Series D"
         inkscape:connector-curvature="0" />
      <path
         d="m 1046.4694,-122.03351 -3.8012,-10.82785 -12.0374,0 -3.8013,10.82785 -6.5082,0 13.3044,-38.58861 6.0475,0 13.3044,38.58861 -6.5082,0 m -9.7335,-27.87595 -3.9741,10.82785 7.7177,0 -3.7436,-10.82785"
         id="path44790"
         style="fill:#000000;fill-opacity:1;stroke:none;font-family:Roadgeek 2005 Series D;-inkscape-font-specification:Roadgeek 2005 Series D"
         inkscape:connector-curvature="0" />
      <path
         d="m 1085.0796,-141.38541 c 0,3.87808 -0.5952,7.29537 -1.7854,10.2519 -1.152,2.91815 -2.8222,5.22195 -5.0108,6.91139 -0.7296,0.69114 -1.5935,1.2095 -2.5918,1.55507 -0.9599,0.34557 -1.939,0.55675 -2.9373,0.63354 l -2.1886,0 -11.7494,0 0,-38.58861 12.4405,0 c 0.9599,4e-5 1.7854,0.0384 2.4766,0.11519 0.7295,0.0384 1.3823,0.13443 1.9582,0.28798 0.576,0.15362 1.0943,0.3648 1.5551,0.63354 0.4607,0.26882 0.9599,0.59519 1.4975,0.97912 2.035,1.76628 3.59,4.12767 4.6651,7.08417 1.1135,2.91817 1.6703,6.29707 1.6703,10.13671 m -6.2203,0 c 0,-2.61095 -0.2879,-4.93394 -0.8639,-6.96898 -0.5376,-2.035 -1.2863,-3.55166 -2.2462,-4.55 -0.4992,-0.46073 -1.0751,-0.8447 -1.7278,-1.1519 -0.6528,-0.30714 -1.3823,-0.46073 -2.1886,-0.46076 l -6.9114,0 0,26.26329 6.105,0 c 0.9983,0 1.8239,-0.11518 2.4766,-0.34557 0.6911,-0.23037 1.3055,-0.61434 1.8431,-1.1519 1.1518,-1.15189 2.0158,-2.72615 2.5917,-4.72278 0.6144,-2.03501 0.9215,-4.33881 0.9215,-6.9114"
         id="path44792"
         style="fill:#000000;fill-opacity:1;stroke:none;font-family:Roadgeek 2005 Series D;-inkscape-font-specification:Roadgeek 2005 Series D"
         inkscape:connector-curvature="0" />
    </g>
  </g>
  <text
     xml:space="preserve"
     style="font-size:26px;font-style:normal;font-variant:normal;font-weight:normal;font-stretch:normal;text-align:end;line-height:125%;letter-spacing:0px;word-spacing:0px;writing-mode:lr-tb;text-anchor:end;fill:#000000;fill-opacity:1;stroke:none;font-family:Roadgeek 2005 Series D;-inkscape-font-specification:Roadgeek 2005 Series D"
     x="26"
     y="28"
     id="text3114"
     sodipodi:linespacing="125%"><tspan
       sodipodi:role="line"
       id="tspan4167"
       x="26"
       y="28">%num%</tspan></text>
  <text
     xml:space="preserve"
     style="font-size:18px;font-style:normal;font-variant:normal;font-weight:normal;font-stretch:normal;text-align:start;line-height:125%;letter-spacing:0px;word-spacing:0px;writing-mode:lr-tb;text-anchor:start;fill:#000000;fill-opacity:1;stroke:none;font-family:Roadgeek 2005 Series D;-inkscape-font-specification:Roadgeek 2005 Series D"
     x="26"
     y="28"
     id="text3181"
     sodipodi:linespacing="125%"><tspan
       sodipodi:role="line"
       id="tspan4169"
       x="26"
       y="28">%suf%</tspan></text>
</svg>
