<?xml version="1.0" encoding="UTF-8" standalone="no"?>
<!-- Created with Inkscape (http://www.inkscape.org/) -->

<svg
   xmlns:dc="http://purl.org/dc/elements/1.1/"
   xmlns:cc="http://creativecommons.org/ns#"
   xmlns:rdf="http://www.w3.org/1999/02/22-rdf-syntax-ns#"
   xmlns:svg="http://www.w3.org/2000/svg"
   xmlns="http://www.w3.org/2000/svg"
   xmlns:sodipodi="http://sodipodi.sourceforge.net/DTD/sodipodi-0.dtd"
   xmlns:inkscape="http://www.inkscape.org/namespaces/inkscape"
   version="1.0"
   width="60"
   height="48"
   id="svg2"
   inkscape:version="0.48.1 r9760"
   sodipodi:docname="US:NY-FDR.svg">
  <metadata
     id="metadata3070">
    <rdf:RDF>
      <cc:Work
         rdf:about="">
        <dc:format>image/svg+xml</dc:format>
        <dc:type
           rdf:resource="http://purl.org/dc/dcmitype/StillImage" />
      </cc:Work>
    </rdf:RDF>
  </metadata>
  <sodipodi:namedview
     pagecolor="#ffffff"
     bordercolor="#666666"
     borderopacity="1"
     objecttolerance="10"
     gridtolerance="10"
     guidetolerance="10"
     inkscape:pageopacity="0"
     inkscape:pageshadow="2"
     inkscape:window-width="1278"
     inkscape:window-height="996"
     id="namedview3068"
     showgrid="true"
     inkscape:showpageshadow="false"
     inkscape:zoom="16.895833"
     inkscape:cx="30"
     inkscape:cy="24"
     inkscape:window-x="1"
     inkscape:window-y="27"
     inkscape:window-maximized="0"
     inkscape:current-layer="svg2">
    <inkscape:grid
       type="xygrid"
       id="grid3657"
       empspacing="5"
       visible="true"
       enabled="true"
       snapvisiblegridlinesonly="true" />
  </sodipodi:namedview>
  <defs
     id="defs4" />
  <path
     d="M 29.999997,1 C 25.066835,1 20.829935,1.737881 16.238913,4.426909 11.664806,7.106119 7.2054515,8.524783 1,8.524783 L 1,35.649914 C 1,38.059653 1.00463,38.060687 2.5635114,39.27912 5.2873319,41.408537 29.999997,47 29.999997,47 c 0,0 24.712669,-5.591463 27.436495,-7.72088 C 58.995376,38.060687 59,38.059653 59,35.649914 L 59,8.524783 c -6.205451,0 -10.66481,-1.418664 -15.238914,-4.097874 C 39.170064,1.737881 34.933162,1 29.999997,1 z"
     id="rect4804"
     style="fill:#006b54;stroke:none"
     inkscape:connector-curvature="0" />
  <path
     d="m 11.879834,12.914606 0,1.99481 3.539529,0 0,2.227594 -3.539529,0 0,4.721301 -2.163046,0 0,-11.171299 8.160582,0 0,2.227594 -5.997536,0 m 17.167895,3.357926 c -10e-6,0.853369 -0.131099,1.623545 -0.393283,2.310528 -0.262193,0.687242 -0.633626,1.274757 -1.114295,1.762285 -0.469758,0.476677 -1.037834,0.847685 -1.704218,1.113797 -0.666398,0.265854 -1.409261,0.399169 -2.228591,0.399169 l -3.424823,0 0,-11.171299 3.424823,0 c 0.830255,0 1.578579,0.134348 2.24498,0.399168 0.666383,0.265855 1.234455,0.642546 1.704217,1.130333 0.480665,0.487528 0.846639,1.075043 1.097907,1.762026 0.262181,0.687242 0.393273,1.451734 0.393283,2.293993 m -2.163044,0 c -1.1e-5,-1.063933 -0.278585,-1.889399 -0.835724,-2.476655 -0.557157,-0.587514 -1.332792,-0.881271 -2.326913,-0.881271 l -1.376482,0 0,6.716111 1.376482,0 c 0.994121,0 1.769756,-0.293757 2.326913,-0.881272 0.557139,-0.587256 0.835713,-1.412979 0.835724,-2.476913 m 11.374427,5.585779 -1.507581,-4.189334 -2.884058,0 0,4.189334 -2.163047,0 0,-11.171299 4.965171,0 c 0.229412,0 0.431509,0 0.606308,0.03359 0.185711,0 0.355042,0.03359 0.507991,0.06717 0.163861,0.03359 0.3168,0.08267 0.45883,0.14985 0.142011,0.05684 0.289486,0.12918 0.442436,0.217023 0.535291,0.310293 0.955885,0.731422 1.261778,1.263389 0.305878,0.531966 0.45882,1.113797 0.45883,1.745491 -10e-6,0.609475 -0.136593,1.174512 -0.409671,1.695369 -0.273119,0.521116 -0.66094,0.947671 -1.163457,1.280182 l 1.736995,4.721301 -2.310525,0 m 0,-7.696852 c -1e-5,-0.354472 -0.1311,-0.648229 -0.393283,-0.881272 -0.262196,-0.245443 -0.595393,-0.365581 -0.999588,-0.365581 l -2.998768,0 0,2.526777 2.998768,0 c 0.404195,0 0.737392,-0.116263 0.999588,-0.349305 0.262176,-0.235109 0.393273,-0.542818 0.393283,-0.930619"
     id="text1352"
     style="fill:#ffffff;stroke:none"
     inkscape:connector-curvature="0" />
  <path
     d="m 22.471726,31.519487 c -10e-6,0.85311 -0.131102,1.623544 -0.393281,2.310528 -0.262197,0.687242 -0.633629,1.274756 -1.114296,1.762285 -0.469761,0.476419 -1.037833,0.847684 -1.704218,1.113797 -0.6664,0.265854 -1.409263,0.39891 -2.228593,0.39891 l -3.424822,0 0,-11.171041 3.424822,0 c 0.830255,0 1.578581,0.134348 2.24498,0.39891 0.666385,0.266113 1.234457,0.642804 1.704218,1.130333 0.480667,0.487787 0.846637,1.075043 1.097909,1.762285 0.262177,0.687241 0.393271,1.451475 0.393281,2.293993 m -2.163046,0 c -8e-6,-1.064192 -0.278582,-1.889658 -0.835722,-2.476655 -0.557155,-0.587515 -1.332791,-0.881272 -2.326913,-0.881272 l -1.376484,0 0,6.715853 1.376484,0 c 0.994122,0 1.769758,-0.293757 2.326913,-0.881272 0.55714,-0.586997 0.835714,-1.412721 0.835722,-2.476654"
     id="text2229"
     style="fill:#ffffff;stroke:none"
     inkscape:connector-curvature="0" />
  <path
     d="m 27.992509,31.603196 c -0.102025,-0.170519 -0.23315,-0.291949 -0.393453,-0.366099 -0.160326,-0.07492 -0.309665,-0.111095 -0.448098,-0.111095 -0.327883,0 -0.553753,0.09559 -0.677616,0.288073 -0.116601,0.193771 -0.174875,0.480553 -0.174875,0.864995 l 0,2.993378 -1.464525,0 0,-5.421461 1.464525,0 0,0.266113 c 0.18215,-0.14985 0.353373,-0.250611 0.513673,-0.310293 0.167575,-0.05942 0.34609,-0.09043 0.535533,-0.09043 0.218601,0 0.415311,0.031 0.590186,0.09043 0.18215,0.05942 0.364303,0.162768 0.546461,0.310293 l -0.491818,1.485579 m 3.706053,-3.159763 c -2e-6,0.193771 -0.06924,0.361965 -0.207663,0.510006 -0.13845,0.147266 -0.309665,0.222191 -0.513678,0.222191 -0.189425,0 -0.353378,-0.07493 -0.491816,-0.222191 -0.13845,-0.14985 -0.207663,-0.317785 -0.207663,-0.510006 0,-0.21444 0.06921,-0.388059 0.207663,-0.521115 0.138451,-0.142099 0.302376,-0.211857 0.491816,-0.211857 0.204,0 0.375235,0.06976 0.513678,0.211857 0.138451,0.134348 0.207663,0.306675 0.207663,0.521115 m -1.442665,6.829532 0,-5.421461 1.464523,0 0,5.421461 -1.464523,0 m 7.228009,0 -1.628463,0 -2.000058,-5.421461 1.519172,0 1.33337,3.470055 1.235007,-3.470055 1.54103,0 -2.000058,5.421461 m 4.926541,-2.239737 c 0.08015,0.31055 0.218601,0.554444 0.415313,0.731938 0.196751,0.170519 0.411666,0.253195 0.644829,0.253195 0.306018,0 0.579248,-0.167935 0.819693,-0.498896 l 1.005495,0.886955 c -0.276881,0.332511 -0.561044,0.572788 -0.852484,0.720571 -0.291451,0.149849 -0.615686,0.222191 -0.972704,0.222191 -0.342453,0 -0.666691,-0.06976 -0.972709,-0.211857 -0.306021,-0.14985 -0.575609,-0.347496 -0.808764,-0.598882 -0.23315,-0.253195 -0.418956,-0.546952 -0.557394,-0.886956 -0.13845,-0.347238 -0.207662,-0.720829 -0.207662,-1.119739 0,-0.391935 0.06558,-0.757775 0.19675,-1.097779 0.138451,-0.340004 0.320591,-0.635828 0.546464,-0.886955 0.225875,-0.258362 0.488173,-0.461693 0.786911,-0.609734 0.298725,-0.14985 0.612033,-0.219607 0.939916,-0.219607 0.437166,0 0.837907,0.129181 1.202217,0.388059 0.371593,0.250611 0.655756,0.590873 0.852484,1.020012 0.102,0.250611 0.178513,0.513623 0.229513,0.786969 0.05097,0.266113 0.07651,0.569429 0.07651,0.909433 l 0,0.211857 -3.344361,0 m 1.825191,-1.230577 c -0.102023,-0.273605 -0.218598,-0.465826 -0.349738,-0.576405 -0.123875,-0.118846 -0.287805,-0.178269 -0.491811,-0.178269 -0.19675,0 -0.378888,0.06717 -0.546468,0.201522 -0.1603,0.126597 -0.280518,0.310551 -0.360663,0.554444 l 1.748683,0 0,0"
     id="text3116"
     style="fill:#ffffff;stroke:none"
     inkscape:connector-curvature="0" />
</svg>
