<?xml version="1.0" encoding="UTF-8" standalone="no"?>
<!-- Created with Inkscape (http://www.inkscape.org/) -->

<svg
   xmlns:dc="http://purl.org/dc/elements/1.1/"
   xmlns:cc="http://creativecommons.org/ns#"
   xmlns:rdf="http://www.w3.org/1999/02/22-rdf-syntax-ns#"
   xmlns:svg="http://www.w3.org/2000/svg"
   xmlns="http://www.w3.org/2000/svg"
   xmlns:sodipodi="http://sodipodi.sourceforge.net/DTD/sodipodi-0.dtd"
   xmlns:inkscape="http://www.inkscape.org/namespaces/inkscape"
   id="svg2"
   sodipodi:version="0.32"
   inkscape:version="0.48.1 r9760"
   width="48"
   height="48"
   version="1.0"
   sodipodi:docname="US:NY-LWP.svg"
   inkscape:output_extension="org.inkscape.output.svg.inkscape">
  <metadata
     id="metadata7">
    <rdf:RDF>
      <cc:Work
         rdf:about="">
        <dc:format>image/svg+xml</dc:format>
        <dc:type
           rdf:resource="http://purl.org/dc/dcmitype/StillImage" />
      </cc:Work>
    </rdf:RDF>
  </metadata>
  <defs
     id="defs5" />
  <sodipodi:namedview
     inkscape:window-height="996"
     inkscape:window-width="1278"
     inkscape:pageshadow="2"
     inkscape:pageopacity="0.0"
     guidetolerance="10.0"
     gridtolerance="10.0"
     objecttolerance="10.0"
     borderopacity="1.0"
     bordercolor="#666666"
     pagecolor="#ffffff"
     id="base"
     inkscape:zoom="16.895833"
     inkscape:cx="24"
     inkscape:cy="24"
     inkscape:window-x="1"
     inkscape:window-y="27"
     inkscape:current-layer="svg2"
     showgrid="true"
     inkscape:showpageshadow="false"
     inkscape:window-maximized="0">
    <inkscape:grid
       type="xygrid"
       id="grid3615"
       empspacing="5"
       visible="true"
       enabled="true"
       snapvisiblegridlinesonly="true" />
  </sodipodi:namedview>
  <g
     id="g3617">
    <path
       inkscape:connector-curvature="0"
       d="M 46.85625,24.000009 C 46.85625,36.623163 36.623159,46.85625 24,46.85625 11.376842,46.85625 1.1437499,36.623163 1.1437499,24.000009 1.1437499,11.376855 11.376842,1.143768 24,1.143768 c 12.623159,0 22.85625,10.233087 22.85625,22.856241 z"
       style="fill:#ffffff;fill-opacity:1;stroke:#000000;stroke-width:0.07631447;stroke-linecap:square;stroke-miterlimit:3.863693;stroke-opacity:1;stroke-dasharray:none"
       id="path2212" />
    <path
       inkscape:connector-curvature="0"
       id="path2237"
       d="M 23.999999,2.000007 C 11.849735,2.000007 2,11.849703 2,24.000015 2,36.150304 11.849736,46 23.999999,46 36.150264,46 46.000002,36.150304 46,24.000015 46,11.849703 36.150267,2.000007 23.999999,2.000007 z m 0.08895,3.106459 c 0,0 1.986011,2.952581 1.986011,2.952581 l 2.810712,-0.298157 0.185136,4.782263 c 0,0 2.709726,-1.445009 2.709728,-1.445009 l 1.06273,2.315409 2.264919,-0.831907 c 0,0 -0.995411,2.923734 -0.995411,2.923734 l 1.293554,0.538551 c 0,0 -2.933335,6.422078 -2.933335,6.422101 0,0 2.05093,0.197101 2.05093,0.197101 0,0 -0.187455,0.585485 -0.365463,0.95694 -0.930656,1.941937 -2.179389,3.052755 -3.984046,3.544048 -1.118753,0.304579 -2.817351,0.220058 -4.205247,-0.206841 -0.383902,-0.108986 -0.885732,-0.386435 -1.317593,-0.538551 0,0 0,3.351677 0,3.351677 0,0 -1.130055,-0.007 -1.130055,-0.007 l -0.0023,-3.344465 c -1.605367,0.710264 -2.340109,0.922183 -3.738908,0.920861 -0.656643,-6.03e-4 -1.396541,-0.05704 -1.685464,-0.127304 -1.618194,-0.394736 -3.24507,-1.669659 -4.048962,-3.277172 -0.106191,-0.217739 -0.485683,-1.339224 -0.485683,-1.339224 0,0 2.00765,-0.228406 2.00765,-0.228406 0,0 -2.974207,-6.446124 -2.974207,-6.446124 0,0 1.332021,-0.579455 1.332021,-0.579455 0,0 -1.045901,-2.933358 -1.045901,-2.933358 0,0 2.356284,0.824696 2.356284,0.824696 0,0 1.069946,-2.28174 1.069945,-2.28174 0,0 2.690491,1.51956 2.690492,1.51956 0,0 0.185136,-4.840002 0.185136,-4.840002 0,0 2.892459,0.389519 2.892459,0.389519 l 2.014864,-2.914088 z m -0.03365,1.95956 -1.418578,2.159097 -2.317814,-0.242806 c 0,0 -0.09618,1.990818 -0.09618,1.990818 l 0.836721,0.577067 0.569836,-0.504951 c 0,0 0.538579,0.668406 0.538579,0.668406 l 0.01442,-1.84174 c 0,0 0.694863,-0.0046 0.694863,-0.0046 0,0 1.185354,-1.781658 1.185354,-1.781658 l 1.187762,1.791282 0.644371,0 0.0049,1.853751 0.651587,-0.646771 0.490491,0.471281 0.887214,-0.601136 -0.110608,-1.954714 c 0,0 -2.308196,0.223768 -2.308196,0.223768 0,0 -1.454646,-2.156708 -1.454646,-2.156708 z m 0.02405,2.9117 c 0,0 -0.565028,0.834296 -0.565028,0.834296 0,0 -0.293331,2.3e-5 -0.293333,0 0.0022,1.252847 0.0067,2.505392 -0.02157,3.758053 l -1.728834,-1.971618 c 0,0 -0.358252,0.259687 -0.358252,0.259687 0,0 -0.947323,-0.77658 -0.947322,-0.776603 0,0 0.411148,1.173334 0.411147,1.173334 l -0.454426,0.245241 1.882623,3.447885 c 0,0 -3.019891,-1.622957 -3.019891,-1.622957 l -0.370267,0.396707 c 0,0 -1.262296,-0.341403 -1.262296,-0.341403 0,0 0.567432,1.072348 0.567432,1.072348 l -0.406339,0.435201 3.50317,4.460082 -2.918907,0.09368 0.165901,0.250064 c 0.363036,0.55265 1.141585,0.961415 2.548634,1.336835 1.558877,0.415954 2.298382,0.772267 2.89246,1.394505 l 0.31978,0.334215 0.492898,-0.451989 c 0.651369,-0.595339 1.147986,-0.818783 2.644807,-1.192603 1.469826,-0.367026 2.244045,-0.74407 2.644806,-1.288719 l 0.281313,-0.425601 -3.079999,0.0023 c 0,0 3.524806,-4.428847 3.524808,-4.428847 0,0 -0.329396,-0.379919 -0.329398,-0.379919 0,0 0.447211,-1.154088 0.447211,-1.154088 0,0 -1.209398,0.31738 -1.209396,0.31738 0,0 -0.259673,-0.396707 -0.259673,-0.396707 0,0 -3.125685,1.586876 -3.125685,1.586876 0,0 1.281478,-2.229358 1.865793,-3.373335 0,0 -0.367868,-0.32218 -0.367868,-0.32218 0,0 0.334206,-1.096394 0.334208,-1.096418 0,0 -0.920872,0.706899 -0.920874,0.706922 0,0 -0.363059,-0.266921 -0.363059,-0.266921 0,0 -1.695082,1.978806 -1.695082,1.978806 0,0 0,-3.762853 0,-3.762853 0,0 -0.326994,-0.0023 -0.326994,-0.0023 0,0 -0.502516,-0.829496 -0.502516,-0.829496 z m -7.246776,2.587085 c 0,0 -0.44498,0.892638 -0.759781,1.524383 0.236013,0.06701 1.976393,0.560232 1.976393,0.560232 l 0.591476,-0.62996 0.863169,0.47847 c 0,0 -0.334207,-0.577043 -0.334207,-0.577043 0,0 -2.33705,-1.356082 -2.33705,-1.356082 z m 14.414208,0.07675 c 0,0 -2.392351,1.320023 -2.392351,1.320023 0,0 -0.259671,0.569809 -0.259671,0.569809 0,0 0.892019,-0.468846 0.892019,-0.468846 l 0.524155,0.685264 c 0,0 1.942733,-0.560256 1.942733,-0.560233 0,0 -0.706885,-1.546017 -0.706885,-1.546017 z M 16.00547,14.226048 c -0.08742,0.175304 -0.247651,0.495328 -0.247651,0.495328 0,0 -1.069945,-0.435224 -1.069945,-0.435224 0,0 0.641967,1.668639 0.641967,1.668639 0,0 -1.173332,0.514527 -1.173333,0.514527 0,0 3.096831,6.842855 3.096831,6.842855 0,0 -2.010054,0.245241 -2.010055,0.245241 0,0.03919 0.214748,0.415188 0.425574,0.730945 0.576055,0.862632 1.546186,1.509172 2.736175,1.829705 0.631621,0.170203 1.82075,0.176464 2.596721,0.01159 0.632846,-0.134029 2.055737,-0.686539 2.055737,-0.798261 0,-0.144464 -0.546611,-0.572221 -0.976174,-0.762203 C 21.82753,24.456962 21.173562,24.248104 20.629076,24.10517 20.08459,23.96233 19.398433,23.738515 19.1023,23.607477 17.982184,23.137147 17.248653,22.27477 16.695524,21.203094 16.487459,20.772856 16.315636,20.28161 16.315633,20.217331 c 0,0 2.399562,-0.04081 2.399563,-0.04081 L 16.04394,16.795954 c 0,0 0.685246,-0.670817 0.685246,-0.670817 l -0.723727,-1.898923 z m 15.991475,0.07212 c 0,0 -0.668418,1.937949 -0.668418,1.937949 l 0.668418,0.73331 c 0,0 -2.66645,3.301195 -2.66645,3.301195 l 2.529401,0.0046 c 0,0 -0.186597,0.478331 -0.415958,0.954528 -0.868232,1.802552 -1.800669,2.464534 -4.311037,3.060778 -0.895411,0.212638 -1.709693,0.564661 -1.966776,0.848742 -0.166192,0.183421 -0.159212,0.191305 0.468851,0.476059 0.351583,0.159536 0.938876,0.370017 1.30317,0.468823 0.527486,0.143073 0.891581,0.173913 1.78645,0.146551 1.023914,-0.03107 1.179817,-0.06145 1.772023,-0.33178 0.921819,-0.420893 1.599999,-0.966447 2.03169,-1.632604 0.257828,-0.397843 0.262078,-0.639559 0.262078,-0.639559 0,0 -2.002839,-0.254864 -2.002841,-0.254864 0,0 3.106447,-6.739458 3.106447,-6.739458 l -1.168524,-0.528951 0.617922,-1.666226 c 0,0 -1.086773,0.41113 -1.086773,0.41113 0,0 -0.259673,-0.550586 -0.259673,-0.550586 z m 1.247868,16.647844 c 0.159884,2.3e-5 0.307469,0.0327 0.44,0.101101 0.132545,0.06841 0.242103,0.167189 0.331803,0.295768 0.07399,0.09762 0.128417,0.19687 0.163502,0.298134 0.03508,0.101333 0.06224,0.241484 0.08176,0.420777 l -0.560218,0 c -0.05844,-0.378226 -0.215444,-0.567421 -0.468854,-0.567444 -0.113043,2.3e-5 -0.208603,0.02597 -0.288524,0.07467 -0.07995,0.0487 -0.143652,0.125913 -0.192348,0.233206 -0.04872,0.107131 -0.08438,0.247768 -0.105785,0.423165 -0.02157,0.175537 -0.03126,0.39098 -0.03126,0.644383 0,0.565195 0.05062,0.971015 0.153901,1.21658 0.103281,0.245635 0.2752,0.367908 0.516939,0.367908 0.08186,0 0.149311,-0.01391 0.201972,-0.04568 0.05266,-0.03107 0.09672,-0.07467 0.129831,-0.127536 0.03311,-0.05264 0.05568,-0.112232 0.06734,-0.180174 0.01159,-0.06841 0.01693,-0.139827 0.01693,-0.214029 l 0.560218,0 c -0.0039,0.16371 -0.03107,0.313159 -0.08176,0.449623 -0.05069,0.136348 -0.118678,0.256441 -0.204383,0.355849 -0.08573,0.09948 -0.188869,0.176464 -0.307761,0.230725 -0.118933,0.05449 -0.245841,0.08162 -0.382293,0.08162 -0.421023,0 -0.72791,-0.171594 -0.920875,-0.514528 -0.192974,-0.343072 -0.288524,-0.878632 -0.288524,-1.60371 0,-0.639328 0.096,-1.122412 0.290929,-1.449856 0.194945,-0.327444 0.487861,-0.490481 0.877595,-0.490505 z m -22.490491,0.0698 0.562623,0 0,3.397404 1.430601,0 0,0.519328 -1.993224,0 0,-3.916732 z m 3.219454,0 0.550601,0 0.976175,3.916732 -0.562623,0 -0.274099,-1.069914 -0.84153,0 -0.257267,1.069914 -0.567432,0 0.976175,-3.916732 z m 2.067759,0 0.562623,0 0,1.567676 0.894426,-1.567676 0.649181,0 -0.812678,1.375351 0.906448,2.541381 -0.591475,0 -0.690055,-1.911468 -0.355847,0.661195 0,1.250273 -0.562623,0 0,-3.916732 z m 2.856394,0 1.841748,0 0,0.550632 -1.28153,0 0,0.988174 0.812678,0 0,0.536186 -0.812678,0 0,1.293565 1.433006,0 0,0.548175 -1.993224,0 0,-3.916732 z m 4.537048,0 0.550602,0 0.334208,2.087027 0.379889,-2.087027 0.444812,0 0.367867,2.087027 0.343824,-2.087027 0.550602,0 -0.63235,3.916732 -0.478467,0 -0.375085,-2.0461 -0.367868,2.0461 -0.497706,0 -0.620328,-3.916732 z m 3.515192,0 1.841749,0 0,0.550632 -1.28153,0 0,0.988174 0.812679,0 0,0.536186 -0.812679,0 0,1.293565 1.433004,0 0,0.548175 -1.993223,0 0,-3.916732 z m 2.649618,0 0.560218,0 0,3.397404 1.433007,0 0,0.519328 -1.993225,0 0,-3.916732 z m 5.445901,0 0.562623,0 0,1.596522 1.074752,0 0,-1.596522 0.562623,0 0,3.916732 -0.562623,0 0,-1.769601 -1.074752,0 0,1.769601 -0.562623,0 0,-3.916732 z m -20.807431,1.168533 -0.276503,1.130065 0.562623,0 -0.28612,-1.130065 z m 0.09136,4.085057 1.168525,0 c 0.152037,0 0.29166,0.0269 0.418361,0.0793 0.126697,0.05264 0.235388,0.125681 0.326994,0.221218 0.0916,0.09554 0.162866,0.212174 0.211585,0.348661 0.04871,0.136347 0.07213,0.285889 0.07213,0.449599 -3e-6,0.358563 -0.08711,0.632743 -0.264481,0.819896 -0.177379,0.187131 -0.43327,0.278911 -0.76459,0.278911 l -0.608306,0 0,1.719119 -0.560219,0 0,-3.916708 z m 3.414208,0 0.548197,0 0.976175,3.916709 -0.560219,0 -0.274098,-1.06996 -0.843934,0 -0.257268,1.06996 -0.567432,0 0.978579,-3.916709 z m 2.06776,0 1.168524,0 c 0.15204,0 0.29166,0.02388 0.418361,0.07467 0.126699,0.05078 0.235388,0.121971 0.326994,0.21171 0.0916,0.08974 0.162866,0.198725 0.211585,0.329415 0.04872,0.130782 0.07213,0.274435 0.07213,0.430377 -3e-6,0.233901 -0.04589,0.432556 -0.139453,0.59629 -0.09357,0.16371 -0.233632,0.280974 -0.420765,0.351049 l 0.560219,1.923502 -0.577049,0 -0.521749,-1.841763 -0.538579,0 0,1.841763 -0.560219,0 0,-3.916708 z m 2.853989,0 0.562624,0 0,1.56763 0.894423,-1.56763 0.649181,0 -0.812675,1.372894 0.906446,2.543815 -0.591476,0 -0.690052,-1.911467 -0.355847,0.661171 0,1.250296 -0.562624,0 0,-3.916709 z m 2.551037,0 0.5506,0 0.334207,2.086981 0.379892,-2.086981 0.444809,0 0.367868,2.086981 0.343826,-2.086981 0.5506,0 -0.632348,3.916709 -0.47847,0 -0.375082,-2.046146 -0.36787,2.046146 -0.497702,0 -0.62033,-3.916709 z m 4.18601,0 0.550602,0 0.976176,3.916709 -0.56022,0 -0.276501,-1.06996 -0.841531,0 -0.257268,1.06996 -0.567433,0 0.976175,-3.916709 z m 1.76481,0 0.591474,0 0.661203,1.413775 0.649178,-1.413775 0.601095,0 -0.976174,2.144674 0,1.772035 -0.562623,0 0,-1.772035 -0.964153,-2.144674 z m -16.277595,0.550586 0,1.110841 0.579454,0 c 0.163696,0 0.289747,-0.04916 0.377486,-0.146551 0.08774,-0.09739 0.132239,-0.236707 0.132241,-0.415977 -2e-6,-0.16371 -0.04829,-0.295351 -0.141857,-0.396731 -0.09357,-0.101333 -0.215829,-0.15142 -0.367869,-0.15142 l -0.579454,0 z m 5.481967,0 0,0.985786 0.579454,0 c 0.163698,0 0.289747,-0.04104 0.377486,-0.124986 0.08774,-0.08371 0.132239,-0.205681 0.132241,-0.365472 -2e-6,-0.152116 -0.04829,-0.273392 -0.141857,-0.363038 -0.09357,-0.08951 -0.215824,-0.132174 -0.367864,-0.132174 l -0.579453,0 z m -2.365901,0.617925 -0.274099,1.130064 0.560219,0 -0.28612,-1.130064 z m 11.661201,0 -0.276503,1.130064 0.562623,0 -0.28612,-1.130064 z"
       style="fill:#613314;fill-opacity:1;stroke:none" />
  </g>
</svg>
