<?xml version="1.0" encoding="UTF-8" standalone="no"?>
<!-- Created with Inkscape (http://www.inkscape.org/) -->

<svg
   xmlns:dc="http://purl.org/dc/elements/1.1/"
   xmlns:cc="http://creativecommons.org/ns#"
   xmlns:rdf="http://www.w3.org/1999/02/22-rdf-syntax-ns#"
   xmlns:svg="http://www.w3.org/2000/svg"
   xmlns="http://www.w3.org/2000/svg"
   xmlns:sodipodi="http://sodipodi.sourceforge.net/DTD/sodipodi-0.dtd"
   xmlns:inkscape="http://www.inkscape.org/namespaces/inkscape"
   id="svg2"
   sodipodi:version="0.32"
   inkscape:version="0.48.1 r9760"
   width="48"
   height="48"
   version="1.0"
   sodipodi:docname="US:NY-AVR.svg"
   inkscape:output_extension="org.inkscape.output.svg.inkscape">
  <metadata
     id="metadata7">
    <rdf:RDF>
      <cc:Work
         rdf:about="">
        <dc:format>image/svg+xml</dc:format>
        <dc:type
           rdf:resource="http://purl.org/dc/dcmitype/StillImage" />
      </cc:Work>
    </rdf:RDF>
  </metadata>
  <defs
     id="defs5" />
  <sodipodi:namedview
     inkscape:window-height="996"
     inkscape:window-width="1278"
     inkscape:pageshadow="2"
     inkscape:pageopacity="0.0"
     guidetolerance="10.0"
     gridtolerance="10.0"
     objecttolerance="10.0"
     borderopacity="1.0"
     bordercolor="#666666"
     pagecolor="#ffffff"
     id="base"
     inkscape:zoom="16.895833"
     inkscape:cx="24"
     inkscape:cy="24"
     inkscape:window-x="1"
     inkscape:window-y="27"
     inkscape:current-layer="svg2"
     showgrid="true"
     inkscape:showpageshadow="false"
     inkscape:window-maximized="0">
    <inkscape:grid
       type="xygrid"
       id="grid3683"
       empspacing="5"
       visible="true"
       enabled="true"
       snapvisiblegridlinesonly="true" />
  </sodipodi:namedview>
  <g
     id="g3679"
     transform="translate(0,28)">
    <path
       inkscape:connector-curvature="0"
       d="M 46.85625,-3.9999966 C 46.85625,8.6231606 36.623158,18.85625 24.000001,18.85625 11.376843,18.85625 1.14375,8.6231606 1.14375,-3.9999966 c 0,-12.6231574 10.233093,-22.8562464 22.856251,-22.8562464 12.623157,0 22.856249,10.233089 22.856249,22.8562464 z"
       style="fill:#ffffff;fill-opacity:1;stroke:#000000;stroke-width:0.07631447;stroke-linecap:square;stroke-miterlimit:3.863693;stroke-opacity:1;stroke-dasharray:none"
       id="path2212" />
    <path
       inkscape:connector-curvature="0"
       id="path2390"
       d="m 24,-26.000005 c -12.150264,0 -22,9.849699 -22,22.0000143 C 2,8.150301 11.849737,18 24,18 36.150266,18 46.000002,8.150301 46,-3.9999907 46,-16.150306 36.150269,-26.000005 24,-26.000005 z m 0.08895,3.10646 c 0,0 1.986011,2.952582 1.986011,2.952582 l 2.810711,-0.298157 0.185136,4.782264 c 0,0 2.709725,-1.44501 2.709727,-1.44501 l 1.06273,2.315411 2.26492,-0.831908 c 0,0 -0.995412,2.923735 -0.995412,2.923735 l 1.293554,0.538551 c 0,0 -2.933335,6.4220795 -2.933335,6.4221027 0,0 2.05093,0.1971016 2.05093,0.1971016 0,0 -0.187455,0.5854844 -0.365463,0.9569397 -0.930656,1.9419375 -2.179389,3.0527556 -3.984047,3.54404862 -1.118753,0.30457991 -2.817351,0.22005811 -4.205245,-0.20684072 -0.383903,-0.1089856 -0.885733,-0.386435 -1.317594,-0.5385511 0,0 0,3.3516775 0,3.3516775 0,0 -1.130055,-0.00696 -1.130055,-0.00696 l -0.0023,-3.3444659 c -1.605349,0.71026134 -2.34009,0.92218031 -3.738891,0.92085857 -0.656643,-6.0289e-4 -1.39654,-0.0570435 -1.685464,-0.12730442 C 16.476651,-1.1822034 14.849775,-2.457126 14.045883,-4.06464 13.939692,-4.2823793 13.5602,-5.4038641 13.5602,-5.4038641 c 0,0 2.007651,-0.2284059 2.007651,-0.2284059 0,0 -2.974207,-6.446126 -2.974208,-6.446126 0,0 1.332022,-0.579455 1.332022,-0.579455 0,0 -1.045902,-2.933335 -1.045902,-2.933335 0,0 2.356284,0.824673 2.356284,0.824673 0,0 1.069946,-2.281741 1.069946,-2.281741 0,0 2.690491,1.51956 2.690491,1.51956 0,0 0.185136,-4.840003 0.185136,-4.840003 0,0 2.892459,0.389519 2.892459,0.389519 l 2.014865,-2.914088 z m -0.03365,1.959561 -1.418577,2.159097 -2.317815,-0.242806 c 0,0 -0.09618,1.990819 -0.09618,1.990819 l 0.836723,0.577067 0.569834,-0.504951 c 0,0 0.538579,0.668406 0.538579,0.668406 l 0.01438,-1.84174 c 0,0 0.694864,-0.0046 0.694864,-0.0046 0,0 1.185353,-1.781659 1.185353,-1.781659 l 1.187764,1.791282 0.644372,0 0.0049,1.853752 0.651588,-0.646771 0.490488,0.471281 0.887215,-0.601137 -0.110609,-1.954714 c 0,0 -2.308196,0.223768 -2.308196,0.223768 0,0 -1.454647,-2.156708 -1.454647,-2.156708 z m 0.02405,2.9117 c 0,0 -0.565028,0.83432 -0.565028,0.83432 0,0 -0.293331,2.3e-5 -0.293331,0 0.0022,1.252824 0.0067,2.505369 -0.02156,3.758031 l -1.728743,-1.971619 c 0,0 -0.358252,0.259688 -0.358252,0.259688 0,0 -0.947324,-0.776581 -0.947323,-0.776604 0,0 0.411149,1.173334 0.411149,1.173334 l -0.454428,0.245241 1.882623,3.447886 c 0,0 -3.019891,-1.622957 -3.019891,-1.622957 l -0.370365,0.396707 c 0,0 -1.262296,-0.341403 -1.262296,-0.341403 0,0 0.567432,1.072349 0.567432,1.072349 l -0.406339,0.4352 3.503171,4.4600838 -2.918908,0.093681 0.165901,0.250064 c 0.363036,0.5526496 1.141585,0.9614151 2.548634,1.3368356 1.558878,0.4159539 2.298383,0.7722671 2.892461,1.3945052 l 0.319779,0.3342147 0.492896,-0.4519887 c 0.651372,-0.5953395 1.147989,-0.8187831 2.644808,-1.1926036 1.469826,-0.3670263 2.244048,-0.7440701 2.644809,-1.2887197 l 0.28131,-0.4256002 -3.079997,0.00232 c 0,0 3.524805,-4.4288491 3.524807,-4.4288491 0,0 -0.329396,-0.379919 -0.329398,-0.379919 0,0 0.447211,-1.154088 0.447211,-1.154088 0,0 -1.209399,0.31738 -1.209396,0.31738 0,0 -0.259674,-0.396707 -0.259674,-0.396707 0,0 -3.125683,1.586876 -3.125683,1.586876 0,0 1.281478,-2.229358 1.865792,-3.373336 0,0 -0.367868,-0.322179 -0.367868,-0.322179 0,0 0.334207,-1.096395 0.33421,-1.096419 0,0 -0.920875,0.706899 -0.920877,0.706923 0,0 -0.363059,-0.266922 -0.363059,-0.266922 0,0 -1.695083,1.978807 -1.695083,1.978807 0,0 0,-3.762832 0,-3.762832 0,0 -0.326994,-0.0023 -0.326994,-0.0023 0,0 -0.502514,-0.82952 -0.502514,-0.82952 z m -7.246776,2.587086 c 0,0 -0.44498,0.892638 -0.759781,1.524384 0.236012,0.06701 1.976392,0.560232 1.976393,0.560232 l 0.591476,-0.62996 0.863169,0.47847 c 0,0 -0.334207,-0.577044 -0.334208,-0.577044 0,0 -2.33705,-1.356082 -2.337049,-1.356082 z m 14.414208,0.07675 c 0,0 -2.39235,1.320024 -2.39235,1.320024 0,0 -0.259671,0.569809 -0.259671,0.569809 0,0 0.892019,-0.468847 0.892019,-0.468847 l 0.524154,0.685264 c 0,0 1.942735,-0.560255 1.942735,-0.560232 0,0 -0.706887,-1.546018 -0.706887,-1.546018 z M 16.00547,-13.77396 c -0.08742,0.175304 -0.24765,0.495328 -0.24765,0.495328 0,0 -1.069945,-0.435224 -1.069945,-0.435224 0,0 0.641967,1.668639 0.641967,1.668639 0,0 -1.173333,0.514528 -1.173333,0.514528 0,0 3.09683,6.8428562 3.09683,6.8428562 0,0 -2.010054,0.2452407 -2.010054,0.2452407 0,0.039188 0.214748,0.4151887 0.425573,0.7309454 0.576055,0.8626324 1.546187,1.509172 2.736175,1.8297055 0.631621,0.170203 1.820751,0.1764639 2.596722,0.011594 0.632847,-0.1340291 2.055737,-0.6865396 2.055737,-0.7982614 0,-0.1444638 -0.546612,-0.5722206 -0.976175,-0.7622034 -0.253785,-0.1122319 -0.907752,-0.32109 -1.45224,-0.4640234 -0.544487,-0.1428407 -1.230643,-0.3666553 -1.526776,-0.4976931 -1.120117,-0.4703307 -1.853647,-1.3327081 -2.406776,-2.4043609 -0.208065,-0.4302612 -0.379889,-0.9215079 -0.379891,-0.9857862 0,0 2.399562,-0.040812 2.399563,-0.040812 L 16.04394,-11.204058 c 0,0 0.685246,-0.670818 0.685246,-0.670818 l -0.723727,-1.898923 z m 15.991476,0.07212 c 0,0 -0.668418,1.937949 -0.668418,1.937949 l 0.668418,0.73331 c 0,0 -2.666449,3.3011966 -2.666449,3.3011966 l 2.5294,0.00464 c 0,0 -0.186597,0.4783307 -0.415958,0.9545281 -0.868233,1.8025519 -1.800667,2.4645349 -4.311038,3.0607788 -0.89541,0.2126378 -1.709692,0.5646612 -1.966775,0.8487425 -0.166191,0.1834205 -0.159212,0.1913045 0.468851,0.4760583 0.351583,0.1595364 0.938874,0.3700176 1.303171,0.4688235 0.527483,0.1430726 0.891581,0.1739132 1.786448,0.1465508 1.023914,-0.031073 1.179817,-0.061449 1.772024,-0.3317799 0.921818,-0.420893 1.599999,-0.966447 2.03169,-1.6326039 0.257828,-0.3978438 0.262078,-0.6395599 0.262078,-0.6395599 0,0 -2.002839,-0.2548639 -2.002842,-0.2548639 0,0 3.106449,-6.73946 3.106449,-6.73946 l -1.168525,-0.528951 0.617923,-1.666227 c 0,0 -1.086774,0.411131 -1.086774,0.411131 0,0 -0.259673,-0.550586 -0.259673,-0.550586 z M 8.4870012,3.5615445 l 0.536175,0 0.9497269,3.8157473 -0.5457928,0 -0.2692894,-1.0410905 -0.8198909,0 -0.2500544,1.0410905 -0.5530055,0 0.9521311,-3.8157473 z m 2.0148638,0 1.137267,0 c 0.148035,0 0.285377,0.025275 0.408744,0.074667 0.12336,0.049391 0.228181,0.1171015 0.317376,0.20429 0.08919,0.087189 0.156935,0.1950146 0.204372,0.3222031 0.04743,0.1270725 0.07213,0.2664813 0.07213,0.4183423 -3e-6,0.2279422 -0.04595,0.4224234 -0.137049,0.581867 -0.09111,0.1595364 -0.226534,0.2731828 -0.408743,0.3414263 l 0.545792,1.8729983 -0.562622,0 -0.507323,-1.7936707 -0.524153,0 0,1.7936707 -0.545792,0 0,-3.8157473 z m 2.779453,0 0.973771,0 c 0.163209,0 0.288784,0.013913 0.37989,0.035942 0.0911,0.023188 0.172093,0.060058 0.240438,0.1129277 0.113864,0.079768 0.21068,0.1924638 0.288524,0.3366494 0.07784,0.144232 0.131729,0.311351 0.165902,0.5049047 0.02652,0.14029 0.05023,0.2925683 0.06732,0.4520119 0.01709,0.1595363 0.02404,0.3112118 0.02405,0.4592467 -2e-6,0.873044 -0.181377,1.4537284 -0.545792,1.7383663 -0.06835,0.064464 -0.149336,0.108058 -0.240437,0.1344928 -0.09111,0.026435 -0.189519,0.040812 -0.295738,0.040812 l -1.057923,0 0,-3.8157241 z m 2.890055,0 1.793661,0 0,0.5361858 -1.245465,0 0,0.9617398 0.791039,0 0,0.524151 -0.791039,0 0,1.2574849 1.394536,0 0,0.5361858 -1.942732,0 0,-3.8157473 z m 2.579891,0 0.548197,0 1.045901,2.2889754 0,-2.2889754 0.548197,0 0,3.8157473 -0.415957,0 -1.178141,-2.5558509 0,2.5558509 -0.548197,0 0,-3.8157473 z m 6.477377,0 0.5506,0 0.627541,2.4789117 0.63235,-2.4789117 0.545793,0 -0.978579,3.8157473 -0.415956,0 -0.961749,-3.8157473 z m 3.541641,0 0.53377,0 0.952131,3.8157473 -0.548198,0 -0.266885,-1.0410905 -0.819891,0 -0.250055,1.0410905 -0.553007,0 0.952135,-3.8157473 z m 2.012456,0 0.548198,0 0,3.3084311 1.394535,0 0,0.5073162 -1.942733,0 0,-3.8157473 z m 2.481312,0 0.545793,0 0,3.3084311 1.394537,0 0,0.5073162 -1.94033,0 0,-3.8157473 z m 2.478907,0 1.793661,0 0,0.5361858 -1.247866,0 0,0.9617398 0.793441,0 0,0.524151 -0.793441,0 0,1.2574849 1.396938,0 0,0.5361858 -1.942733,0 0,-3.8157473 z m 2.284154,0 0.574644,0 0.644372,1.3777168 0.632353,-1.3777168 0.586662,0 -0.95213,2.0894158 0,1.7263315 -0.545791,0 0,-1.7263315 -0.94011,-2.0894158 z m -26.979454,0.5361858 0,0.9617398 0.562623,0 c 0.159388,0 0.282438,-0.041044 0.367869,-0.1226668 0.08543,-0.081623 0.127429,-0.2003479 0.127429,-0.3558727 -10e-7,-0.1479421 -0.04354,-0.2637451 -0.134643,-0.3510263 -0.09111,-0.087188 -0.212619,-0.132174 -0.360656,-0.132174 l -0.562623,0 z m 2.779454,0 0,2.7433757 0.45683,0 c 0.07969,0 0.148916,-0.016232 0.211585,-0.045681 0.06267,-0.030145 0.117974,-0.068638 0.163497,-0.1177972 0.04552,-0.049391 0.0821,-0.1066667 0.110602,-0.1732175 0.02849,-0.066551 0.04974,-0.1370435 0.06492,-0.2091595 0.01136,-0.1215074 0.02465,-0.2499248 0.03607,-0.3846959 0.01141,-0.1347247 0.01683,-0.2741567 0.01683,-0.4183655 -10e-7,-0.216348 -0.0099,-0.4180177 -0.02885,-0.6058902 C 14.839605,4.6984729 14.813425,4.5644439 14.779255,4.4847453 14.691915,4.2266813 14.52686,4.097661 14.283954,4.0976378 l -0.45683,0 z M 8.7442688,4.701209 8.4749794,5.8000155 l 0.5481968,0 L 8.7442688,4.701209 z m 20.2808732,0 -0.266885,1.0988065 0.545795,0 -0.27891,-1.0988065 z m -6.448524,4.5466695 c 0.220082,2.32e-5 0.400531,0.051014 0.540984,0.1514204 0.140452,0.1006378 0.258572,0.2671306 0.353442,0.5025163 0.03798,0.094841 0.07008,0.1913048 0.09857,0.2861218 0.0285,0.09484 0.05264,0.193855 0.06973,0.298134 0.01716,0.104348 0.02848,0.217043 0.03606,0.336603 0.0077,0.119652 0.01206,0.25011 0.01206,0.394319 -2e-6,0.29229 -0.01577,0.540406 -0.04809,0.745368 -0.03225,0.204986 -0.08849,0.399653 -0.168302,0.581844 -0.09486,0.227942 -0.213542,0.393345 -0.355847,0.497717 -0.142307,0.104347 -0.322198,0.156289 -0.538579,0.156289 -0.227733,0 -0.413048,-0.05194 -0.555409,-0.156289 -0.142353,-0.104348 -0.260978,-0.269983 -0.355847,-0.497717 -0.0797,-0.185971 -0.136046,-0.381194 -0.168301,-0.584255 -0.03225,-0.203131 -0.04809,-0.450667 -0.04809,-0.742957 0,-0.288441 0.01577,-0.536047 0.04809,-0.742957 0.03225,-0.206841 0.0886,-0.402041 0.168301,-0.5842324 0.09869,-0.2279422 0.218296,-0.3898901 0.360657,-0.4905047 0.142353,-0.1006377 0.32669,-0.1514204 0.550599,-0.1514204 z m -3.839781,0.067478 1.139673,0 c 0.148035,0 0.282972,0.025275 0.406338,0.074667 0.123363,0.049391 0.230586,0.1171016 0.319782,0.20429 0.08918,0.087188 0.156939,0.1950146 0.204359,0.3222031 0.04742,0.1270724 0.07214,0.2665044 0.07214,0.4183654 -2e-6,0.227942 -0.04594,0.4224 -0.137043,0.581844 -0.09111,0.159536 -0.228939,0.273206 -0.411147,0.341426 l 0.548197,1.873022 -0.565028,0 -0.507322,-1.793671 -0.521749,0 0,1.793671 -0.548197,0 0,-3.8157708 z m 6.371586,0 0.533769,0 0.952131,3.8157705 -0.548195,0 -0.266887,-1.043525 -0.81989,0 -0.250054,1.043525 -0.553007,0 0.952133,-3.8157705 z m 2.012458,0 0.97377,0 c 0.163223,0 0.291188,0.011594 0.382293,0.033623 0.09111,0.023189 0.169716,0.062377 0.238034,0.1154784 0.113878,0.079768 0.210667,0.1924639 0.288527,0.3366263 0.07784,0.1442319 0.134145,0.3113518 0.168324,0.5049048 0.02653,0.14029 0.04781,0.29018 0.0649,0.449647 0.01716,0.159536 0.02646,0.313577 0.02646,0.461612 -3e-6,0.873067 -0.183792,1.451363 -0.548195,1.735955 -0.06834,0.0647 -0.146945,0.110608 -0.238034,0.137043 -0.09111,0.02643 -0.189542,0.04081 -0.295736,0.04081 l -1.060328,0 0,-3.8157712 z m -4.544263,0.4664583 c -0.235378,2.32e-5 -0.396056,0.1586088 -0.483277,0.4736472 -0.04563,0.144232 -0.07673,0.28909 -0.09377,0.4352 -0.01716,0.146087 -0.02646,0.326029 -0.02646,0.538597 -2e-6,0.102493 0.0015,0.195943 0.0072,0.281299 0.0058,0.08533 0.01461,0.166493 0.02405,0.240441 0.0095,0.0742 0.02087,0.146551 0.03606,0.218899 0.01507,0.07212 0.0339,0.145391 0.05289,0.221217 0.08723,0.315084 0.247898,0.473647 0.483277,0.473647 0.113878,0 0.207281,-0.03942 0.281312,-0.115478 0.07402,-0.07583 0.135792,-0.195015 0.185137,-0.358238 0.02272,-0.07606 0.04248,-0.148638 0.05772,-0.218899 0.0153,-0.07026 0.02662,-0.142841 0.03606,-0.218899 0.0095,-0.07583 0.01554,-0.157449 0.01925,-0.242829 0.0037,-0.08533 0.0072,-0.183188 0.0072,-0.293333 -3e-6,-0.106435 -0.0039,-0.203595 -0.0095,-0.290922 -0.0056,-0.08719 -0.01206,-0.166493 -0.02156,-0.240441 -0.0095,-0.0742 -0.0233,-0.145623 -0.03847,-0.214029 -0.01507,-0.06841 -0.03149,-0.135884 -0.05048,-0.20429 -0.0494,-0.170899 -0.11117,-0.2943308 -0.185187,-0.3702729 -0.07402,-0.076058 -0.167444,-0.1154783 -0.281313,-0.1154783 z m -3.291584,0.069797 0,0.9617402 0.562623,0 c 0.159388,0 0.282438,-0.04104 0.367869,-0.122667 0.08543,-0.08139 0.12743,-0.200348 0.12743,-0.355826 -2e-6,-0.147942 -0.04595,-0.26618 -0.137048,-0.3534616 -0.09111,-0.087188 -0.210215,-0.130087 -0.358252,-0.130087 l -0.562623,0 z m 8.384044,0 0,2.7433762 0.454426,0 c 0.0797,2.3e-5 0.151328,-0.01623 0.214006,-0.04568 0.06268,-0.03015 0.115571,-0.06864 0.16109,-0.117797 0.04552,-0.04939 0.0845,-0.109218 0.11302,-0.175305 0.02848,-0.06655 0.04974,-0.134493 0.06491,-0.206841 0.01136,-0.121507 0.02226,-0.249948 0.03365,-0.384719 0.01136,-0.134724 0.01693,-0.274133 0.01693,-0.418342 -3e-6,-0.216348 -0.01,-0.418041 -0.02885,-0.605913 C 28.67925,10.452564 28.65309,10.318558 28.61891,10.23886 28.53156,9.9807955 28.366514,9.851752 28.123608,9.851752 l -0.454426,0 z m -2.305794,0.6035022 -0.266884,1.098807 0.545792,0 -0.278908,-1.098807 z"
       style="fill:#613314;fill-opacity:1;stroke:none" />
  </g>
</svg>
