<?xml version="1.0" encoding="UTF-8" standalone="no"?>
<!-- Created with Inkscape (http://www.inkscape.org/) -->

<svg
   xmlns:dc="http://purl.org/dc/elements/1.1/"
   xmlns:cc="http://creativecommons.org/ns#"
   xmlns:rdf="http://www.w3.org/1999/02/22-rdf-syntax-ns#"
   xmlns:svg="http://www.w3.org/2000/svg"
   xmlns="http://www.w3.org/2000/svg"
   xmlns:xlink="http://www.w3.org/1999/xlink"
   xmlns:sodipodi="http://sodipodi.sourceforge.net/DTD/sodipodi-0.dtd"
   xmlns:inkscape="http://www.inkscape.org/namespaces/inkscape"
   width="48"
   height="48"
   id="svg16935"
   sodipodi:version="0.32"
   inkscape:version="0.48.1 r9760"
   version="1.0"
   sodipodi:docname="US:OK_2.svg">
  <defs
     id="defs16937" />
  <sodipodi:namedview
     id="base"
     pagecolor="#ffffff"
     bordercolor="#666666"
     borderopacity="1.0"
     gridtolerance="10000"
     guidetolerance="10"
     objecttolerance="10"
     inkscape:pageopacity="0.0"
     inkscape:pageshadow="2"
     inkscape:zoom="16.895833"
     inkscape:cx="24"
     inkscape:cy="24"
     inkscape:document-units="px"
     inkscape:current-layer="layer1"
     inkscape:window-width="1278"
     inkscape:window-height="996"
     inkscape:window-x="1"
     inkscape:window-y="27"
     showgrid="true"
     inkscape:showpageshadow="false"
     inkscape:window-maximized="0">
    <inkscape:grid
       type="xygrid"
       id="grid3007"
       empspacing="5"
       visible="true"
       enabled="true"
       snapvisiblegridlinesonly="true" />
  </sodipodi:namedview>
  <metadata
     id="metadata16940">
    <rdf:RDF>
      <cc:Work
         rdf:about="">
        <dc:format>image/svg+xml</dc:format>
        <dc:type
           rdf:resource="http://purl.org/dc/dcmitype/StillImage" />
      </cc:Work>
    </rdf:RDF>
  </metadata>
  <g
     inkscape:label="Layer 1"
     inkscape:groupmode="layer"
     id="layer1"
     transform="translate(-153.2153,-656.86115)">
    <g
       id="g3042">
      <g
         transform="matrix(0.12234114,0,0,0.12234106,153.66477,657.31062)"
         id="g9160">
        <g
           id="g9162">
          <path
             inkscape:connector-curvature="0"
             d="m 4.5,24.5 c 0,-11.045898 8.954102,-20 19.999756,-20 l 335.998044,0 c 11.0459,0 20,8.954102 20,20 l 0,335.99756 c 0,11.04639 -8.9541,20.00049 -20,20.00049 l -335.998044,0 C 13.454102,380.49805 4.5,371.54395 4.5,360.49756 L 4.5,24.5 l 0,0 z"
             id="path9164" />
          <path
             inkscape:connector-curvature="0"
             d=""
             id="path9166" />
        </g>
      </g>
      <g
         transform="matrix(0.12087981,0,0,0.12087977,153.94608,657.59191)"
         id="g9168">
        <g
           id="g9170">
          <path
             inkscape:connector-curvature="0"
             d="m 10.499878,24.5 c 0,-7.731934 6.267944,-14 13.999878,-14 l 335.998294,0 c 7.73193,0 13.99975,6.268066 13.99975,14 l 0,335.99805 c 0,7.73193 -6.26782,14 -13.99975,14 l -335.998294,0 c -7.731934,0 -13.999878,-6.26807 -13.999878,-14 l 0,-335.99805 0,0 z"
             id="path9172"
             style="fill:#ffffff" />
          <path
             inkscape:connector-curvature="0"
             d=""
             id="path9174"
             style="fill:#ffffff" />
        </g>
      </g>
    </g>
    <g
       id="g9176"
       transform="matrix(0.12502652,0,0,0.12284023,153.24786,657.18109)">
      <polygon
         clip-rule="evenodd"
         stroke-miterlimit="3.863693"
         points="163.6991,190.89893 147.69922,181.29883 146.09924,174.89893 146.09924,77.299805 27.699829,77.299805 27.699829,50.099609 338.09814,50.099609 338.09814,70.899902 355.698,133.29932 355.698,219.69873 328.49805,210.09912 310.89819,214.89893 301.29834,221.29883 278.89844,210.09912 264.49854,218.09912 248.49854,208.49902 238.89868,211.69873 230.89868,206.89893 221.29871,211.69873 192.4989,198.89893 192.4989,198.89893 187.69885,189.29883 182.89905,192.49902 171.69897,189.29883 168.49902,186.09912 "
         id="polygon9178"
         style="fill:none;stroke:#000000;stroke-width:8;stroke-miterlimit:3.863693" />
    </g>
    <path
       sodipodi:type="inkscape:offset"
       inkscape:radius="2.1511555"
       inkscape:original="M 131.65625 674.15625 C 130.40825 674.15625 129.454 674.7535 128.75 675.9375 C 128.142 676.9935 127.8125 678.185 127.8125 679.625 C 127.8125 681.065 128.142 682.35025 128.75 683.40625 C 129.454 684.55825 130.40825 685.15625 131.65625 685.15625 C 132.90425 685.15625 133.8585 684.559 134.5625 683.375 C 135.1705 682.319 135.5 681.065 135.5 679.625 C 135.5 678.185 135.1705 676.96225 134.5625 675.90625 C 133.8585 674.75425 132.90425 674.15625 131.65625 674.15625 z M 141.78125 674.15625 L 129.15625 696.125 L 131.5 696.125 L 144.1875 674.15625 L 141.78125 674.15625 z M 213.71875 674.15625 C 212.47075 674.15625 211.5165 674.7535 210.8125 675.9375 C 210.2045 676.9935 209.875 678.185 209.875 679.625 C 209.875 681.065 210.2045 682.35025 210.8125 683.40625 C 211.5165 684.55825 212.47075 685.15625 213.71875 685.15625 C 214.96675 685.15625 215.921 684.559 216.625 683.375 C 217.233 682.319 217.5625 681.065 217.5625 679.625 C 217.5625 678.185 217.233 676.96225 216.625 675.90625 C 215.921 674.75425 214.96675 674.15625 213.71875 674.15625 z M 223.84375 674.15625 L 211.21875 696.125 L 213.5625 696.125 L 226.25 674.15625 L 223.84375 674.15625 z M 131.65625 676.40625 C 132.29625 676.40625 132.74325 676.764 133.03125 677.5 C 133.19125 678.012 133.3125 678.697 133.3125 679.625 C 133.3125 680.553 133.192 681.2685 133 681.8125 C 132.712 682.5485 132.26425 682.90625 131.65625 682.90625 C 131.04825 682.90625 130.56925 682.51725 130.28125 681.78125 C 130.12125 681.26925 130.03125 680.553 130.03125 679.625 C 130.03125 677.801 130.40825 676.40625 131.65625 676.40625 z M 213.71875 676.40625 C 214.35875 676.40625 214.80575 676.764 215.09375 677.5 C 215.25375 678.012 215.375 678.697 215.375 679.625 C 215.375 680.553 215.2545 681.2685 215.0625 681.8125 C 214.7745 682.5485 214.32675 682.90625 213.71875 682.90625 C 213.11075 682.90625 212.63175 682.51725 212.34375 681.78125 C 212.18375 681.26925 212.09375 680.553 212.09375 679.625 C 212.09375 677.801 212.47075 676.40625 213.71875 676.40625 z M 156.8125 679.75 C 155.6285 679.75 154.43025 680.07875 153.40625 680.71875 L 153.40625 680.21875 L 150 680.21875 L 150 695.875 L 153.46875 695.875 L 153.46875 685.625 C 153.46875 683.833 154.74975 683.064 156.09375 683 C 157.91775 683 159.25 683.452 159.25 685.5 L 159.25 695.875 L 162.65625 695.875 L 162.65625 685.09375 C 162.65625 681.66975 159.7565 679.75 156.8125 679.75 z M 190.25 679.75 C 189.034 679.75 187.80375 680.139 186.84375 680.875 L 186.84375 680.21875 L 183.375 680.21875 L 183.375 695.875 L 186.90625 695.875 L 186.90625 685.71875 C 186.90625 683.89475 187.96775 683.064 189.34375 683 C 191.19975 683 192.25 683.67075 192.25 685.71875 L 192.25 695.875 L 195.875 695.875 L 195.875 685.71875 C 195.875 683.89475 196.999 683 198.375 683 C 200.167 683 201.21875 683.67075 201.21875 685.71875 L 201.21875 695.875 L 204.59375 695.875 L 204.59375 685.28125 C 204.59375 681.72925 201.56825 679.8125 198.65625 679.8125 C 197.05625 679.8125 195.45925 680.40825 194.53125 681.65625 C 193.44325 680.40825 191.85 679.75 190.25 679.75 z M 166.53125 680.21875 L 166.53125 690.96875 C 166.53125 694.39275 169.149 696.375 172.125 696.375 C 173.341 696.375 174.56525 696.04775 175.78125 695.34375 L 175.78125 695.875 L 179.125 695.875 L 179.125 680.21875 L 175.71875 680.21875 L 175.71875 690.59375 C 175.71875 692.41775 174.43775 692.9985 173.09375 693.0625 C 171.26975 693.0625 169.9375 692.64175 169.9375 690.59375 L 169.9375 680.21875 L 166.53125 680.21875 z M 141.65625 685.15625 C 140.40825 685.15625 139.454 685.72225 138.75 686.90625 C 138.142 687.96225 137.8125 689.21625 137.8125 690.65625 C 137.8125 692.09625 138.142 693.319 138.75 694.375 C 139.454 695.527 140.40825 696.125 141.65625 696.125 C 142.90425 696.125 143.8585 695.52775 144.5625 694.34375 C 145.1705 693.28775 145.5 692.09625 145.5 690.65625 C 145.5 689.21625 145.1705 687.931 144.5625 686.875 C 143.8585 685.723 142.90425 685.15625 141.65625 685.15625 z M 223.71875 685.15625 C 222.47075 685.15625 221.5165 685.72225 220.8125 686.90625 C 220.2045 687.96225 219.875 689.21625 219.875 690.65625 C 219.875 692.09625 220.2045 693.319 220.8125 694.375 C 221.5165 695.527 222.47075 696.125 223.71875 696.125 C 224.96675 696.125 225.921 695.52775 226.625 694.34375 C 227.233 693.28775 227.5625 692.09625 227.5625 690.65625 C 227.5625 689.21625 227.233 687.931 226.625 686.875 C 225.921 685.723 224.96675 685.15625 223.71875 685.15625 z M 141.65625 687.375 C 142.26425 687.375 142.74325 687.764 143.03125 688.5 C 143.19125 689.012 143.28125 689.72825 143.28125 690.65625 C 143.28125 691.58425 143.192 692.2685 143 692.8125 C 142.712 693.5165 142.26425 693.875 141.65625 693.875 C 141.01625 693.875 140.56925 693.51725 140.28125 692.78125 C 140.12125 692.26925 140.03125 691.58425 140.03125 690.65625 C 140.03125 688.83225 140.40825 687.375 141.65625 687.375 z M 223.71875 687.375 C 224.32675 687.375 224.80575 687.764 225.09375 688.5 C 225.25375 689.012 225.34375 689.72825 225.34375 690.65625 C 225.34375 691.58425 225.2545 692.2685 225.0625 692.8125 C 224.7745 693.5165 224.32675 693.875 223.71875 693.875 C 223.07875 693.875 222.63175 693.51725 222.34375 692.78125 C 222.18375 692.26925 222.09375 691.58425 222.09375 690.65625 C 222.09375 688.83225 222.47075 687.375 223.71875 687.375 z "
       xlink:href="#text3779"
       style="font-size:32px;font-style:normal;font-variant:normal;font-weight:normal;font-stretch:normal;text-align:center;line-height:125%;letter-spacing:0px;word-spacing:0px;writing-mode:lr-tb;text-anchor:middle;fill:#ffffff;fill-opacity:1;stroke:none;font-family:Roadgeek 2005 Series D;-inkscape-font-specification:Roadgeek 2005 Series D"
       id="path3052"
       inkscape:href="#text3779"
       d="m 186.90625,671.875 c -2.91463,0 -5.50104,1.1396 -7.15625,3.25 a 2.1513706,2.1513706 0 0 0 -0.0625,0.0625 c -1.79943,2.55919 -2.75,6.1118 -2.75,10 0,2.91586 0.64252,5.90174 1.75,8.15625 1.52644,3.12921 4.50422,5.0625 8.09375,5.0625 2.70531,0 5.23468,-1.11035 6.84375,-3.21875 l 0.0312,0 c 0.0136,-0.0179 0.0178,-0.0444 0.0312,-0.0625 2.00765,-2.55806 2.78125,-6.21676 2.78125,-9.9375 0,-2.9769 -0.55899,-5.93791 -1.65625,-8.25 a 2.1513706,2.1513706 0 0 0 -0.0312,-0.0312 c -1.59664,-3.11724 -4.51189,-5.03125 -7.875,-5.03125 z M 169,672.25 a 2.1513706,2.1513706 0 0 0 -1.71875,0.875 l -10.625,14.09375 a 2.1513706,2.1513706 0 0 0 -0.4375,1.28125 l 0,2.03125 a 2.1513706,2.1513706 0 0 0 2.15625,2.15625 l 8.46875,0 0,3.1875 A 2.1513706,2.1513706 0 0 0 169,698.03125 l 3.375,0 a 2.1513706,2.1513706 0 0 0 2.15625,-2.15625 l 0,-3.21875 a 2.1513706,2.1513706 0 0 0 2.03125,-2.125 l 0,-3.09375 a 2.1513706,2.1513706 0 0 0 -2.03125,-2.15625 l 0,-10.875 A 2.1513706,2.1513706 0 0 0 172.375,672.25 l -3.375,0 z m 17.65625,7.40625 0.0312,0 0.15625,0 c 0.5651,0.0325 0.59491,0.0362 0.90625,0.5625 0.0121,0.0205 0.0179,0.009 0.0312,0.0312 0.52086,0.92176 0.96875,2.82567 0.96875,4.9375 0,1.34986 -0.40171,3.42614 -0.65625,4.0625 a 2.1513706,2.1513706 0 0 0 0,0.0312 c -0.28602,0.73369 -0.57239,1.06727 -0.71875,1.1875 -0.14636,0.12023 -0.18965,0.15625 -0.59375,0.15625 -0.81711,0 -0.69677,0.0679 -1.09375,-0.59375 a 2.1513706,2.1513706 0 0 0 0,-0.0312 c -0.43089,-0.69605 -0.96875,-2.82407 -0.96875,-4.8125 0,-1.55212 0.31007,-3.37295 0.65625,-4.1875 a 2.1513706,2.1513706 0 0 0 0.0312,-0.0625 c 0.26714,-0.69214 0.5456,-1.0088 0.6875,-1.125 0.1419,-0.1162 0.18302,-0.15625 0.5625,-0.15625 z" />
    <text
       sodipodi:linespacing="125%"
       id="text3779"
       y="695.86115"
       x="177.2153"
       style="font-size:32px;font-style:normal;font-variant:normal;font-weight:normal;font-stretch:normal;text-align:center;line-height:125%;letter-spacing:0px;word-spacing:0px;writing-mode:lr;text-anchor:middle;fill:#000000;fill-opacity:1;stroke:none;font-family:Roadgeek 2005 Series D;-inkscape-font-specification:Roadgeek 2005 Series D"
       xml:space="preserve"><tspan
         sodipodi:role="line"
         id="tspan3054">%num%</tspan></text>
  </g>
</svg>
