<?xml version="1.0" encoding="UTF-8" standalone="no"?>
<!-- Created with Inkscape (http://www.inkscape.org/) -->

<svg
   xmlns:dc="http://purl.org/dc/elements/1.1/"
   xmlns:cc="http://creativecommons.org/ns#"
   xmlns:rdf="http://www.w3.org/1999/02/22-rdf-syntax-ns#"
   xmlns:svg="http://www.w3.org/2000/svg"
   xmlns="http://www.w3.org/2000/svg"
   xmlns:sodipodi="http://sodipodi.sourceforge.net/DTD/sodipodi-0.dtd"
   xmlns:inkscape="http://www.inkscape.org/namespaces/inkscape"
   version="1.0"
   width="48"
   height="48"
   viewBox="0 0 48 48"
   id="Layer_1"
   xml:space="preserve"
   sodipodi:version="0.32"
   inkscape:version="0.48.1 r9760"
   sodipodi:docname="US:OH-Turnpike.svg"><metadata
   id="metadata2027"><rdf:RDF><cc:Work
       rdf:about=""><dc:format>image/svg+xml</dc:format><dc:type
         rdf:resource="http://purl.org/dc/dcmitype/StillImage" /></cc:Work></rdf:RDF></metadata><sodipodi:namedview
   inkscape:window-height="1182"
   inkscape:window-width="1598"
   inkscape:pageshadow="2"
   inkscape:pageopacity="0.0"
   guidetolerance="10.0"
   gridtolerance="10.0"
   objecttolerance="10.0"
   borderopacity="1.0"
   bordercolor="#666666"
   pagecolor="#ffffff"
   id="base"
   inkscape:showpageshadow="false"
   inkscape:zoom="19.916667"
   inkscape:cx="24"
   inkscape:cy="24"
   inkscape:window-x="1"
   inkscape:window-y="1"
   inkscape:current-layer="Layer_1"
   showgrid="true"
   inkscape:window-maximized="0"><inkscape:grid
     type="xygrid"
     id="grid2987"
     empspacing="5"
     visible="true"
     enabled="true"
     snapvisiblegridlinesonly="true" /></sodipodi:namedview><defs
   id="defs18" />



<g
   id="g2995"><path
     transform="matrix(1,0,0,0.99950831,0,4.9169458e-4)"
     d="M 44.9375,1 C 42.342645,1.025219 39.317769,1.7501853 36.75,2.34375 a 1.0092935,1.0092935 0 0 0 -0.34375,0.125 c -0.535657,0.3473833 -0.795202,0.4094301 -1.1875,0.5 C 34.826452,3.0593199 34.289614,3.1416846 33.5,3.40625 32.426132,3.7660635 30.88498,4.4238747 30.1875,4.59375 29.211136,4.831539 27.17082,4.238242 25.21875,4.03125 24.729877,3.9794113 24.485117,4.0404841 24,4.09375 23.514883,4.1470159 22.935013,4.2166879 22.34375,4.25 21.161223,4.3166243 19.926644,4.1168077 19.6875,3.9375 19.25397,3.6123143 18.843515,3.4432605 18.46875,3.3125 18.093985,3.1817395 17.710789,3.0709627 17.125,2.78125 A 1.0092935,1.0092935 0 0 0 16.9375,2.71875 L 14.375,2.09375 A 1.0092935,1.0092935 0 0 0 14.21875,2.0625 C 11.988196,1.8280384 7.1856658,1.9035759 3,1.90625 a 1.0092935,1.0092935 0 0 0 -1,1 L 2,37.125 a 1.0092935,1.0092935 0 0 0 0.125,0.46875 c 0.3199057,0.585813 0.8099102,0.932073 0.78125,0.90625 0.2953669,0.266125 0.545717,0.488341 0.90625,0.65625 0.360533,0.167909 0.7752243,0.200845 1.125,0.1875 0.4258631,-0.01625 0.9766805,-0.003 1.21875,0.0625 0.2665584,0.07211 0.4134255,0.09414 0.5,0.09375 0.2166558,0.146611 0.5531589,0.322388 0.90625,0.5625 0.1908487,0.129783 0.3773264,0.279863 0.5,0.375 0.061337,0.04757 0.1099158,0.07969 0.125,0.09375 0.323312,0.544201 0.779978,1.02547 1.5,1.625 0.91576,0.762512 1.307303,0.991646 2.15625,1.3125 0.653764,0.247086 1.420254,0.327016 2.1875,0.40625 0.767246,0.07923 1.458207,0.120868 1.8125,0.125 0.111185,0.0013 0.469256,0.123184 0.875,0.3125 0.405744,0.189316 0.808555,0.450105 1.40625,0.5625 a 1.0092935,1.0092935 0 0 0 0.03125,0 L 18.75,44.96875 a 1.0092935,1.0092935 0 0 0 0.5,-0.0625 c 0.71316,-0.264012 1.140333,-0.509055 1.375,-0.625 0.234667,-0.115945 0.310519,-0.16248 0.8125,-0.1875 -0.272657,0.01359 0.01189,0.05251 0.21875,0.21875 0.206856,0.166242 0.393186,0.498347 0.3125,0.3125 0.180081,0.415077 0.492994,0.765685 0.78125,0.96875 0.288256,0.203065 0.520651,0.289436 0.6875,0.375 0.308651,0.158318 0.54523,0.218651 0.71875,0.28125 0.17352,0.0626 0.270828,0.118142 0.1875,0.03125 0.267758,0.279311 0.466167,0.33961 0.65625,0.40625 0.190083,0.06664 0.360238,0.120361 0.53125,0.15625 0.342025,0.07178 0.686463,0.109653 0.75,0.125 0.415459,0.10037 0.712462,0.04321 0.96875,-0.03125 0.256288,-0.07446 0.49165,-0.19229 0.71875,-0.3125 0.4542,-0.24042 0.838872,-0.447826 1.1875,-0.96875 0.370721,-0.543578 0.57936,-1.051795 0.78125,-1.40625 0.20189,-0.354455 0.360365,-0.514133 0.5,-0.59375 a 1.0092935,1.0092935 0 0 0 0.03125,0 c 0.7406,-0.454317 1.556722,-0.958759 2.28125,-1.625 0.0066,-0.0061 0.02467,0.0061 0.03125,0 0.636222,-0.400457 1.768677,-0.812634 2.53125,-0.96875 1.869396,-0.382708 3.011703,-2.09829 3.625,-2.875 a 1.0092935,1.0092935 0 0 0 0.03125,-0.03125 l 1.40625,-1.9375 c -0.237431,0.298429 -0.0954,0.106972 0.03125,0.03125 0.126654,-0.07572 0.314369,-0.178449 0.53125,-0.3125 0.433761,-0.268102 0.979567,-0.620534 1.4375,-1.15625 1.079672,-1.263059 1.003116,-1.686805 1.1875,-2.0625 a 1.0092935,1.0092935 0 0 0 0.03125,-0.0625 c 0.510767,-1.297863 0.448724,-2.169026 0.5625,-2.6875 0.07673,-0.34966 0.07863,-0.714822 0.125,-1.21875 0.04441,-0.482638 0.09185,-0.98659 0.125,-1.40625 0.0015,-0.01851 -0.0014,-0.04447 0,-0.0625 0.0099,-0.05523 0.19899,-1.543877 0.0625,-3.0625 0.10021,-0.372809 0.128387,-0.761615 0.125,-1.03125 -0.004,-0.318941 -0.01975,-0.512083 0,-0.75 -0.0087,0.104888 0.124323,-0.375071 0.3125,-0.78125 0.188177,-0.406179 0.419215,-0.829356 0.5625,-1.15625 0.198141,-0.452048 0.22995,-0.858963 0.3125,-1.3125 0.08255,-0.453537 0.160986,-0.903194 0.1875,-1.0625 a 1.0092935,1.0092935 0 0 0 0,-0.15625 C 45.96875,13.870799 45.988936,9.7644114 46,5.625 46.001639,4.3450468 45.945952,3.2672375 45.9375,2 a 1.0092935,1.0092935 0 0 0 -1,-1 z"
     id="path2993"
     style="fill:#00612f;stroke:none;fill-opacity:1"
     inkscape:original="M 44.9375 2 C 42.528704 2.0234107 39.537452 2.7187196 36.96875 3.3125 C 35.725507 4.1187659 35.2368 3.8977786 33.8125 4.375 C 32.8182 4.7081531 31.3257 5.3461738 30.4375 5.5625 C 28.958082 5.9228054 26.895828 5.2190236 25.125 5.03125 C 24.4896 4.963874 20.506589 5.8093337 19.09375 4.75 C 18.447889 4.2655468 17.969652 4.3216118 16.6875 3.6875 L 14.125 3.0625 C 12.078655 2.8474013 7.1941754 2.9035705 3 2.90625 C 3 13.592511 3 26.43588 3 37.125 C 3.1770003 37.449124 3.4638914 37.632997 3.59375 37.75 C 4.1474566 38.248889 4.3584204 38.364651 4.90625 38.34375 C 5.3408352 38.32717 5.9354745 38.31013 6.40625 38.4375 C 6.735675 38.52662 6.877545 38.401269 7.15625 38.59375 C 7.4537866 38.799357 8.8407318 39.662574 8.96875 39.90625 C 9.1314361 40.215912 9.622026 40.774053 10.34375 41.375 C 11.257381 42.135739 11.36811 42.221567 12.1875 42.53125 C 13.044005 42.854961 15.266015 42.993262 15.84375 43 C 16.665648 43.0095 17.667006 43.753616 18.3125 43.875 L 18.90625 43.96875 C 20.182939 43.49612 20.178854 43.15337 21.375 43.09375 C 21.897665 43.0677 22.749629 43.857997 22.90625 44.21875 C 23.129838 44.734109 23.492602 44.850373 23.90625 45.0625 C 24.241451 45.234436 24.802627 45.322763 25.0625 45.59375 C 25.284436 45.825262 26.181078 45.915417 26.53125 46 C 26.966762 46.105215 28.04043 45.50028 28.3125 45.09375 C 28.936142 44.179321 29.177932 43.214338 29.9375 42.78125 C 30.759552 42.276967 31.593294 41.808698 32.21875 41.1875 C 33.022742 40.672962 34.227299 40.24628 35.125 40.0625 C 36.363724 39.808905 37.549214 38.33128 38.15625 37.5625 L 39.59375 35.59375 C 39.739899 35.410054 40.919939 34.913262 41.59375 34.125 C 42.610713 32.935302 42.362084 32.880635 42.65625 32.28125 C 43.096765 31.161898 42.995464 30.482696 43.15625 29.75 C 43.22466 29.438254 43.339285 28.037708 43.40625 27.1875 C 43.40625 27.1875 43.684608 25.55632 43.46875 24.0625 C 43.690501 23.41888 43.538729 23.006483 43.59375 22.34375 C 43.63684 21.82589 44.303663 20.612972 44.53125 20.09375 C 44.714611 19.675423 44.90705 18.339466 44.96875 17.96875 C 44.96875 13.867487 44.98894 9.7629125 45 5.625 C 45.0016 4.3756712 44.94612 3.2923568 44.9375 2 z "
     inkscape:radius="1.0091926"
     sodipodi:type="inkscape:offset" /><path
     id="path1376"
     style="fill:#ffffff;stroke:none"
     d="M 44.944908,2.0000072 C 42.536112,2.0234179 39.541394,2.7073783 36.972692,3.3011587 35.729449,4.1074246 35.250764,3.892081 33.826464,4.3693024 32.832164,4.7024555 31.338785,5.348665 30.450585,5.5649912 28.971167,5.9252966 26.885611,5.2286041 25.114783,5.0408305 24.479383,4.9734545 20.508412,5.8170914 19.095573,4.7577577 18.449712,4.2733045 17.984476,4.3229865 16.702324,3.6888747 L 14.13607,3.066043 C 12.089725,2.8509443 7.1941754,2.9098709 3,2.9125504 3,13.598811 3.0004815,26.445816 3.0004815,37.134936 c 0.1770003,0.324124 0.4588772,0.503209 0.5887358,0.620212 0.5537066,0.498889 0.7703394,0.598803 1.318169,0.577902 0.4345852,-0.01658 1.0390785,-0.03703 1.509854,0.09034 0.329425,0.08912 0.4472899,-0.02461 0.7259949,0.167871 0.2975366,0.205607 1.7058176,1.059342 1.8338358,1.303018 0.1626861,0.309662 0.638285,0.8685 1.360009,1.469447 0.913631,0.760739 1.016557,0.872457 1.835947,1.18214 0.856505,0.323711 3.093977,0.439313 3.671712,0.446051 0.821898,0.0095 1.829172,0.773248 2.474666,0.894632 l 0.589692,0.06903 c 1.276689,-0.47263 1.277565,-0.787547 2.473711,-0.847167 0.522665,-0.02605 1.354882,0.73835 1.511503,1.099103 0.223588,0.515359 0.605792,0.64715 1.01944,0.859277 0.335201,0.171936 0.903296,0.267726 1.163169,0.538713 0.221936,0.231512 1.095588,0.297341 1.44576,0.381924 0.435512,0.105215 1.510929,-0.472894 1.782999,-0.879424 0.623642,-0.914429 0.8765,-1.908946 1.636068,-2.342034 0.822052,-0.504283 1.63751,-0.955711 2.262966,-1.576909 0.803992,-0.514538 2.026735,-0.940469 2.924436,-1.124249 1.238724,-0.253595 2.405156,-1.748682 3.012192,-2.517462 l 1.454879,-1.952108 c 0.146149,-0.183696 1.311165,-0.683621 1.984976,-1.471883 1.016963,-1.189698 0.766021,-1.229985 1.060187,-1.82937 0.440515,-1.119352 0.352211,-1.825362 0.512997,-2.558058 0.06841,-0.311746 0.191715,-1.68317 0.25868,-2.533378 0,0 0.282068,-1.63441 0.06621,-3.12823 0.221751,-0.64362 0.04617,-1.069757 0.101191,-1.73249 0.04309,-0.51786 0.73207,-1.722437 0.959657,-2.241659 0.183361,-0.418327 0.381784,-1.772061 0.443484,-2.142777 0,-4.101263 0.0053,-8.1918 0.01636,-12.3297125 0.0016,-1.2493288 -0.04643,-2.3353278 -0.05505,-3.6276846 z"
     inkscape:connector-curvature="0" /></g><path
   style="font-size:125px;fill:#00612f;fill-opacity:1;font-family:Roadgeek 2005 Series C"
   d="m 8.6682745,24.065352 0,5.809945 -0.9698485,0 0,-5.809945 -1.2200929,0 0,-0.890184 3.4100344,0 0,0.890184 -1.220093,0 z m 5.8987435,3.809833 c -5e-6,0.13344 -0.005,0.253488 -0.01495,0.360096 -0.01,0.10656 -0.02498,0.20496 -0.04501,0.29496 -0.02004,0.09 -0.04675,0.17832 -0.08011,0.265032 -0.03337,0.08664 -0.07335,0.17328 -0.119933,0.260016 -0.166629,0.273432 -0.394953,0.498456 -0.684967,0.675048 -0.290022,0.17664 -0.595045,0.264888 -0.91507,0.264888 -0.333254,0 -0.648246,-0.08664 -0.944976,-0.260016 -0.296735,-0.17328 -0.528414,-0.39996 -0.695039,-0.67992 -0.04659,-0.08664 -0.08657,-0.17328 -0.119933,-0.260016 -0.03337,-0.08664 -0.06007,-0.17496 -0.08011,-0.265032 -0.02004,-0.09 -0.03505,-0.1884 -0.04502,-0.29496 -0.01,-0.10656 -0.01495,-0.22656 -0.01495,-0.360096 l 0,-4.700017 0.960083,0 0,4.820257 c -10e-7,0.319824 0.08667,0.576408 0.26001,0.7698 0.173338,0.19344 0.399982,0.290064 0.679932,0.290064 0.260007,0 0.475003,-0.09672 0.644989,-0.290064 0.16998,-0.19344 0.254971,-0.449976 0.254974,-0.7698 l 0,-4.820257 0.960084,0 0,4.700017 0,0 z m 4.224854,2.000112 -0.890198,-3.150024 -0.9198,0 0,3.150024 -0.960083,0 0,-6.700129 2.000123,0 c 0.260006,0 0.498349,0.04344 0.715026,0.13008 0.216672,0.08664 0.403337,0.20664 0.559998,0.360096 0.156653,0.15336 0.276638,0.34176 0.359955,0.565032 0.08331,0.2232 0.124966,0.468288 0.124968,0.735024 -4e-6,0.399984 -0.08001,0.739993 -0.240021,1.020049 -0.160017,0.280056 -0.400038,0.48 -0.720062,0.599808 l 0.960083,3.290112 -0.98999,0 z m 0.05005,-4.909968 c -4e-6,-0.260016 -0.08001,-0.466657 -0.240021,-0.619969 -0.160018,-0.15336 -0.370029,-0.22992 -0.630036,-0.22992 l -0.98999,0 0,1.689745 0.98999,0 c 0.279946,0 0.494942,-0.07176 0.64499,-0.21504 0.15004,-0.143281 0.225062,-0.351601 0.225067,-0.62484 l 0,0 z m 5.092773,4.909968 -2.070007,-4.490065 0,4.490065 -0.960083,0 0,-6.700129 0.960083,0 1.839905,4.020073 0,-4.020073 0.960082,0 0,6.700129 -0.72998,0 z m 5.944826,-4.819944 c -5e-6,0.6132 -0.15168,1.079808 -0.455019,1.399848 -0.303348,0.320016 -0.738324,0.480024 -1.30493,0.480024 l -1.04004,0 0,2.940072 -0.960085,0 0,-6.700129 2.000125,0 c 0.260006,0 0.498348,0.04512 0.715024,0.13512 0.216673,0.09 0.403337,0.21672 0.56,0.380112 0.156648,0.16344 0.276636,0.361728 0.359954,0.59508 0.0833,0.23328 0.124968,0.490033 0.124968,0.769968 l 0,0 z m -0.939944,0 c -2e-6,-0.279937 -0.08002,-0.506593 -0.240019,-0.679945 -0.160008,-0.17328 -0.37003,-0.259992 -0.630036,-0.259992 l -0.98999,0 0,1.900009 0.98999,0 c 0.279946,0 0.49494,-0.08328 0.644988,-0.25008 0.150048,-0.1668 0.225072,-0.403393 0.225072,-0.709992 l 0,0 z m 1.867371,4.819944 0,-6.700129 0.939943,0 0,6.700129 -0.939943,0 z m 5.171816,0 -1.179809,-3.269952 -0.610047,1.130064 0,2.139888 -0.960084,0 0,-6.700129 0.960084,0 0,2.680057 1.529847,-2.680057 1.110228,0 -1.390075,2.350153 1.549987,4.349976 -1.010131,0 z m 2.132873,0 0,-6.700129 3.150024,0 0,0.940248 -2.18994,0 0,1.689745 1.390075,0 0,0.920112 -1.390075,0 0,2.210088 2.449951,0 0,0.939936 -3.410035,0 z"
   id="text2029"
   inkscape:connector-curvature="0" />
<path
   style="font-size:103.71534729px;fill:#00612f;fill-opacity:1;font-family:Roadgeek 2005 Series E"
   d="m 15.998321,15.092904 c -8e-6,0.792936 -0.09101,1.513176 -0.273011,2.160744 -0.182016,0.647544 -0.440997,1.202256 -0.776947,1.664136 -0.335965,0.46188 -0.74427,0.820824 -1.224915,1.076808 -0.480659,0.255984 -1.019629,0.383976 -1.616914,0.383976 -0.690719,0 -1.285731,-0.15312 -1.785035,-0.459336 C 9.8221879,19.612992 9.4091834,19.211376 9.0824843,18.714432 8.7557814,18.217464 8.515456,17.65524 8.361506,17.02776 8.2075532,16.40028 8.130578,15.770328 8.1305804,15.137952 c -9e-7,-0.803041 0.091003,-1.525897 0.2730104,-2.168545 0.1820064,-0.642648 0.4456169,-1.189848 0.7908336,-1.641624 0.3452127,-0.451776 0.7628454,-0.798144 1.2528996,-1.039128 0.490048,-0.24096 1.043118,-0.36144 1.659211,-0.361464 0.578486,2.4e-5 1.105779,0.12552 1.58188,0.376632 0.476088,0.251088 0.886814,0.60252 1.232178,1.054296 0.34535,0.451776 0.61131,0.99636 0.797883,1.6338 0.186555,0.637464 0.279838,1.337784 0.279846,2.100985 l 0,0 z m -1.679932,0.04512 c -8e-6,-1.064089 -0.191343,-1.897393 -0.574006,-2.499913 -0.382676,-0.602496 -0.928626,-0.903744 -1.637849,-0.903768 -0.709518,2.4e-5 -1.264938,0.301272 -1.666261,0.903768 -0.401329,0.60252 -0.6019926,1.435824 -0.6019902,2.499913 -2.4e-6,1.08432 0.2006612,1.927632 0.6019902,2.530008 0.401323,0.602352 0.956743,0.903528 1.666261,0.903528 0.448034,0 0.814397,-0.10536 1.099091,-0.316176 0.284682,-0.21072 0.508631,-0.481872 0.671845,-0.81324 0.163202,-0.331368 0.27749,-0.70032 0.342866,-1.106904 0.06536,-0.406584 0.09805,-0.805656 0.09805,-1.197216 l 0,0 z m 9.73438,5.060016 0,-4.42764 -4.213931,0.03024 0,4.397304 -1.679932,0 0,-10.090153 1.679932,0 0,3.90048 4.213931,0 0,-3.90048 1.679933,0 0,10.090153 -1.679933,0 z m 4.113955,0 0,-10.090153 1.679931,0 0,10.090153 -1.679931,0 z m 11.702704,-5.105064 c -7e-6,0.792936 -0.09101,1.513176 -0.27301,2.160744 -0.182016,0.647544 -0.440997,1.202256 -0.776947,1.664136 -0.335966,0.46188 -0.744271,0.820824 -1.224914,1.076808 -0.48066,0.255984 -1.019631,0.383976 -1.616917,0.383976 -0.690717,0 -1.285728,-0.15312 -1.785033,-0.459336 -0.499311,-0.30624 -0.912317,-0.707856 -1.239015,-1.2048 -0.326702,-0.496968 -0.567029,-1.059192 -0.720977,-1.686672 -0.15396,-0.62748 -0.230928,-1.257432 -0.230928,-1.889808 0,-0.803041 0.09101,-1.525897 0.27301,-2.168545 0.182016,-0.642648 0.445617,-1.189848 0.790834,-1.641624 0.345213,-0.451776 0.762844,-0.798144 1.2529,-1.039128 0.490047,-0.24096 1.043117,-0.36144 1.659209,-0.361464 0.578487,2.4e-5 1.105781,0.12552 1.581881,0.376632 0.476088,0.251088 0.886815,0.60252 1.232177,1.054296 0.345351,0.451776 0.611312,0.99636 0.797885,1.6338 0.186552,0.637464 0.279838,1.337784 0.279845,2.100985 l 0,0 z m -1.679933,0.04512 c -5e-6,-1.064089 -0.191328,-1.897393 -0.574003,-2.499913 -0.382678,-0.602496 -0.928628,-0.903744 -1.637852,-0.903768 -0.709516,2.4e-5 -1.264937,0.301272 -1.66626,0.903768 -0.401328,0.60252 -0.601992,1.435824 -0.601989,2.499913 -3e-6,1.08432 0.200664,1.927632 0.601989,2.530008 0.401323,0.602352 0.956744,0.903528 1.66626,0.903528 0.448035,0 0.8144,-0.10536 1.099093,-0.316176 0.284683,-0.21072 0.508629,-0.481872 0.671844,-0.81324 0.1632,-0.331368 0.27749,-0.70032 0.342866,-1.106904 0.06535,-0.406584 0.09804,-0.805656 0.09806,-1.197216 l 0,0 z"
   id="text5434"
   inkscape:connector-curvature="0" /></svg>