<?xml version="1.0" encoding="UTF-8" standalone="no"?>
<!-- Created with Inkscape (http://www.inkscape.org/) -->

<svg
   xmlns:dc="http://purl.org/dc/elements/1.1/"
   xmlns:cc="http://creativecommons.org/ns#"
   xmlns:rdf="http://www.w3.org/1999/02/22-rdf-syntax-ns#"
   xmlns:svg="http://www.w3.org/2000/svg"
   xmlns="http://www.w3.org/2000/svg"
   xmlns:sodipodi="http://sodipodi.sourceforge.net/DTD/sodipodi-0.dtd"
   xmlns:inkscape="http://www.inkscape.org/namespaces/inkscape"
   version="1.1"
   width="28.723001"
   height="60.000317"
   id="svg3607"
   inkscape:version="0.92.3 (2405546, 2018-03-11)"
   sodipodi:docname="US:OH:SAN:Fremont_2.5.svg">
  <sodipodi:namedview
     pagecolor="#ffffff"
     bordercolor="#666666"
     borderopacity="1"
     objecttolerance="10"
     gridtolerance="10"
     guidetolerance="10"
     inkscape:pageopacity="0"
     inkscape:pageshadow="2"
     inkscape:window-width="1440"
     inkscape:window-height="852"
     id="namedview17"
     showgrid="false"
     fit-margin-top="0"
     fit-margin-left="0"
     fit-margin-right="0"
     fit-margin-bottom="0"
     inkscape:zoom="9.849948"
     inkscape:cx="10.757421"
     inkscape:cy="26.600816"
     inkscape:window-x="0"
     inkscape:window-y="0"
     inkscape:window-maximized="0"
     inkscape:current-layer="svg3607" />
  <metadata
     id="metadata18">
    <rdf:RDF>
      <cc:Work
         rdf:about="">
        <dc:format>image/svg+xml</dc:format>
        <dc:type
           rdf:resource="http://purl.org/dc/dcmitype/StillImage" />
        <dc:title></dc:title>
      </cc:Work>
    </rdf:RDF>
  </metadata>
  <defs
     id="defs3609" />
  <g
     id="g3778"
     transform="matrix(0.05212886,0,0,0.05212886,-1.3032215,28.670873)">
    <rect
       width="550"
       height="1150"
       rx="37.5"
       ry="37.5"
       x="25.5"
       y="-549.5"
       id="rect3617"
       style="fill:#ffffff;fill-opacity:1;stroke:#000000;stroke-opacity:1" />
    <rect
       width="531.25"
       height="1131.25"
       rx="28.125"
       ry="28.125"
       x="34.875"
       y="-539.625"
       id="rect4130"
       style="fill:#000000;fill-opacity:1;stroke:none" />
    <rect
       width="500"
       height="1100"
       rx="12.5"
       ry="12.5"
       x="50.5"
       y="-524"
       id="rect3776"
       style="color:#000000;display:inline;overflow:visible;visibility:visible;fill:#ffffff;fill-opacity:1;fill-rule:nonzero;stroke:none;stroke-width:1;marker:none;enable-background:accumulate" />
  </g>
  <text
     x="12.861499"
     y="97.50016"
     id="text4140"
     xml:space="preserve"
     style="font-style:normal;font-variant:normal;font-weight:normal;font-stretch:normal;font-size:12px;line-height:0%;font-family:'Roadgeek 2005 Series D';-inkscape-font-specification:'Roadgeek 2005 Series D';text-align:center;writing-mode:lr-tb;text-anchor:middle;fill:none;stroke:#000000;stroke-width:1px;stroke-linecap:butt;stroke-linejoin:miter;stroke-opacity:1"><tspan
       x="12.861499"
       y="97.50016"
       id="tspan4142" /></text>
  <g
     style="font-style:normal;font-variant:normal;font-weight:normal;font-stretch:normal;font-size:244px;line-height:100%;font-family:'Roadgeek 2005 Series B';-inkscape-font-specification:'Roadgeek 2005 Series B';text-align:center;writing-mode:lr-tb;text-anchor:middle;fill:#000000;fill-opacity:1;stroke:none"
     id="text4144"
     transform="matrix(0.05212886,0,0,0.05212886,-1.5e-6,3.0000001e-6)">
    <path
       d="m 130.92486,422.92899 c -9e-5,9.27211 -1.38275,16.67343 -4.148,22.204 -2.60275,5.53075 -6.91341,10.16675 -12.932,13.908 l 16.592,81.496 h -21.228 l -18.543997,-76.372 h -9.516 v 76.372 h -20.74 v -163.48 h 32.208 c 25.538587,1.6e-4 38.307907,15.29081 38.307997,45.872 m -21.228,-0.488 c -6e-5,-9.27188 -1.3014,-15.61587 -3.904,-19.032 -2.44006,-3.41586 -7.23872,-5.12386 -14.395997,-5.124 h -10.248 v 44.652 h 13.664 c 5.693277,9e-5 9.597267,-1.4639 11.711997,-4.392 2.1146,-2.9279 3.17194,-8.29589 3.172,-16.104"
       style="font-family:'Roadgeek 2005 Series B';-inkscape-font-specification:'Roadgeek 2005 Series B';fill:#000000"
       id="path3046"
       inkscape:connector-curvature="0" />
    <path
       d="m 227.67849,458.55299 c -9e-5,4.39207 -9e-5,9.5974 0,15.616 -9e-5,5.85606 -0.32542,11.95605 -0.976,18.3 -0.48809,6.34404 -1.46409,12.6067 -2.928,18.788 -1.30142,6.01869 -3.41608,11.46802 -6.344,16.348 -2.76541,4.71734 -6.42541,8.54 -10.98,11.468 -4.39207,2.928 -9.92273,4.39199 -16.592,4.392 -6.83205,-10e-6 -12.52537,-1.464 -17.08,-4.392 -4.39203,-2.928 -8.05203,-6.75066 -10.98,-11.468 -2.76536,-4.87998 -4.88002,-10.32931 -6.344,-16.348 -1.30135,-6.1813 -2.19602,-12.44396 -2.684,-18.788 -0.48802,-6.34395 -0.73202,-12.44394 -0.732,-18.3 -2e-5,-5.85593 -2e-5,-11.06126 0,-15.616 -2e-5,-4.71725 -2e-5,-10.00391 0,-15.86 -2e-5,-6.01857 0.24398,-12.11856 0.732,-18.3 0.65065,-6.18121 1.70798,-12.19987 3.172,-18.056 1.46398,-6.01853 3.57864,-11.30519 6.344,-15.86 2.7653,-4.71718 6.34397,-8.45851 10.736,-11.224 4.55463,-2.92784 10.16662,-4.39184 16.836,-4.392 6.66927,1.6e-4 12.19993,1.46416 16.592,4.392 4.55459,2.76549 8.21459,6.50682 10.98,11.224 2.92792,4.71748 5.04258,10.08547 6.344,16.104 1.46391,5.85613 2.43991,11.87479 2.928,18.056 0.65058,6.18144 0.97591,12.28143 0.976,18.3 -9e-5,5.85609 -9e-5,11.06142 0,15.616 m -21.716,0 c -7e-5,-2.27725 -0.0814,-5.36792 -0.244,-9.272 -7e-5,-3.90391 -0.16274,-8.13324 -0.488,-12.688 -0.3254,-4.71723 -0.8134,-9.43456 -1.464,-14.152 -0.65073,-4.87988 -1.62673,-9.27188 -2.928,-13.176 -1.13873,-3.90387 -2.60273,-7.07586 -4.392,-9.516 -1.78939,-2.43986 -3.98539,-3.65986 -6.588,-3.66 -3.09072,1.4e-4 -5.69338,1.30147 -7.808,3.904 -1.95204,2.44014 -3.57871,5.69347 -4.88,9.76 -1.13871,3.90412 -2.03337,8.29612 -2.684,13.176 -0.48804,4.88011 -0.8947,9.67877 -1.22,14.396 -0.1627,4.55476 -0.24404,8.78409 -0.244,12.688 0.16263,3.74142 0.24396,6.58808 0.244,8.54 -4e-5,1.78941 -0.0814,4.63607 -0.244,8.54 -4e-5,3.7414 0.0813,7.97073 0.244,12.688 0.3253,4.71739 0.73196,9.59738 1.22,14.64 0.65063,5.04271 1.54529,9.59737 2.684,13.664 1.30129,4.06669 2.92796,7.48269 4.88,10.248 2.11462,2.60268 4.71728,3.90402 7.808,3.904 3.09061,2e-5 5.61194,-1.30132 7.564,-3.904 1.95194,-2.76531 3.49727,-6.18131 4.636,-10.248 1.30127,-4.06663 2.19593,-8.62129 2.684,-13.664 0.48793,-5.04262 0.81326,-9.92261 0.976,-14.64 0.32526,-4.71727 0.4066,-8.9466 0.244,-12.688 -7e-5,-3.90393 -7e-5,-6.75059 0,-8.54"
       style="font-family:'Roadgeek 2005 Series B';-inkscape-font-specification:'Roadgeek 2005 Series B';fill:#000000"
       id="path3048"
       inkscape:connector-curvature="0" />
    <path
       d="m 328.6983,500.27699 c -9e-5,5.69337 -0.40675,10.65469 -1.22,14.884 -0.81342,4.06669 -2.11475,7.72668 -3.904,10.98 -3.25341,6.18134 -7.23874,10.65467 -11.956,13.42 -4.7174,2.60266 -10.65473,3.90399 -17.812,3.904 -8.45871,-10e-6 -15.37204,-1.87067 -20.74,-5.612 -5.20536,-3.74133 -9.19069,-9.35332 -11.956,-16.836 -0.81335,-2.60265 -1.54535,-5.44931 -2.196,-8.54 -0.48802,-3.2533 -0.73202,-7.31997 -0.732,-12.2 v -123.22 h 20.74 v 126.148 c -4e-5,6.18136 1.21996,10.89869 3.66,14.152 2.60262,3.25335 6.34395,4.88002 11.224,4.88 4.55461,2e-5 8.05194,-1.62665 10.492,-4.88 2.43993,-3.25331 3.65993,-7.97064 3.66,-14.152 v -126.148 h 20.74 v 123.22 0"
       style="font-family:'Roadgeek 2005 Series B';-inkscape-font-specification:'Roadgeek 2005 Series B';fill:#000000"
       id="path3050"
       inkscape:connector-curvature="0" />
    <path
       d="m 392.51574,398.28499 v 142.252 h -20.74 v -142.252 h -20.008 v -21.228 h 61.976 v 21.228 h -21.228"
       style="font-family:'Roadgeek 2005 Series B';-inkscape-font-specification:'Roadgeek 2005 Series B';fill:#000000"
       id="path3052"
       inkscape:connector-curvature="0" />
    <path
       d="m 436.89324,540.53699 v -163.48 h 60.268 v 21.228 h -39.528 v 41.968 h 26.352 v 21.716 h -26.352 v 57.34 h 41.724 v 21.228 h -62.464"
       style="font-family:'Roadgeek 2005 Series B';-inkscape-font-specification:'Roadgeek 2005 Series B';fill:#000000"
       id="path3054"
       inkscape:connector-curvature="0" />
  </g>
  <g
     style="font-style:normal;font-variant:normal;font-weight:normal;font-stretch:normal;font-size:244px;line-height:100%;font-family:'Roadgeek 2005 Series B';-inkscape-font-specification:'Roadgeek 2005 Series B';text-align:center;writing-mode:lr-tb;text-anchor:middle;fill:#000000;fill-opacity:1;stroke:none"
     id="text3032"
     transform="matrix(0.05212886,0,0,0.05212886,-1.5e-6,3.0000001e-6)">
    <path
       d="m 196.33211,253.12399 c -8e-5,3.25337 -0.0814,5.93737 -0.244,8.052 -8e-5,2.1147 -0.0814,3.98536 -0.244,5.612 -0.16275,1.46403 -0.40675,2.84669 -0.732,4.148 -0.32541,1.30136 -0.73208,2.68402 -1.22,4.148 -1.30141,6.01868 -4.55474,10.81734 -9.76,14.396 -5.2054,3.416 -11.46806,5.124 -18.788,5.124 -8.29604,0 -15.12803,-1.708 -20.496,-5.124 -5.20536,-3.57866 -9.10935,-9.19065 -11.712,-16.836 -2.27735,-6.83197 -3.98535,-15.61596 -5.124,-26.352 -1.13868,-10.89861 -1.70801,-22.93593 -1.708,-36.112 -10e-6,-3.74124 0.0813,-7.80791 0.244,-12.2 0.16266,-4.3919 0.40666,-8.78389 0.732,-13.176 0.48799,-4.55455 0.97599,-8.86521 1.464,-12.932 0.48799,-4.06654 1.05732,-7.72653 1.708,-10.98 2.11465,-12.52519 5.77465,-21.47184 10.98,-26.84 5.36797,-5.36783 12.93196,-8.05183 22.692,-8.052 9.27194,1.7e-4 16.7546,2.7655 22.448,8.296 5.69326,5.36816 8.94659,13.09482 9.76,23.18 h -21.228 c -0.32539,-3.41586 -1.46406,-5.93719 -3.416,-7.564 -1.78939,-1.78918 -4.06672,-2.68385 -6.832,-2.684 -3.74138,1.5e-4 -6.66938,1.30148 -8.784,3.904 -2.1147,2.60281 -3.8227,6.58814 -5.124,11.956 -0.81337,3.25346 -1.46403,6.58813 -1.952,10.004 -0.32537,3.25345 -0.6507,6.75078 -0.976,10.492 -0.1627,3.57878 -0.32537,7.56411 -0.488,11.956 -3e-5,4.3921 -3e-5,9.27209 0,14.64 -3e-5,5.69341 -3e-5,10.73608 0,15.128 0.16263,4.2294 0.3253,8.1334 0.488,11.712 0.3253,3.41606 0.65063,6.75072 0.976,10.004 0.48797,3.09071 1.13863,6.34404 1.952,9.76 1.3013,5.36803 2.92796,9.51603 4.88,12.444 2.11462,2.76536 4.87996,4.14802 8.296,4.148 3.74128,2e-5 6.50661,-1.54531 8.296,-4.636 1.78928,-3.09064 2.68394,-8.29596 2.684,-15.616 h 21.228 v 0"
       style="font-family:'Roadgeek 2005 Series B';-inkscape-font-specification:'Roadgeek 2005 Series B';fill:#000000"
       id="path3037"
       inkscape:connector-curvature="0" />
    <path
       d="m 227.20574,291.67599 v -163.48 h 20.74 v 163.48 h -20.74"
       style="font-family:'Roadgeek 2005 Series B';-inkscape-font-specification:'Roadgeek 2005 Series B';fill:#000000"
       id="path3039"
       inkscape:connector-curvature="0" />
    <path
       d="m 311.97668,149.42399 v 142.252 h -20.74 v -142.252 h -20.008 v -21.228 h 61.976 v 21.228 h -21.228"
       style="font-family:'Roadgeek 2005 Series B';-inkscape-font-specification:'Roadgeek 2005 Series B';fill:#000000"
       id="path3041"
       inkscape:connector-curvature="0" />
    <path
       d="m 398.07818,217.74399 v 73.932 h -20.984 v -73.932 l -33.428,-89.548 h 22.448 l 21.716,57.34 21.228,-57.34 h 22.448 l -33.428,89.548"
       style="font-family:'Roadgeek 2005 Series B';-inkscape-font-specification:'Roadgeek 2005 Series B';fill:#000000"
       id="path3043"
       inkscape:connector-curvature="0" />
  </g>
  <text
     xml:space="preserve"
     style="font-style:normal;font-variant:normal;font-weight:normal;font-stretch:normal;font-size:21.33333333px;line-height:125%;font-family:'Roadgeek 2005 Series C';-inkscape-font-specification:'Roadgeek 2005 Series C, Normal';font-variant-ligatures:normal;font-variant-caps:normal;font-variant-numeric:normal;font-feature-settings:normal;text-align:center;letter-spacing:0px;word-spacing:0px;writing-mode:lr;text-anchor:middle;fill:#000000;fill-opacity:1;stroke:none;stroke-width:1px;stroke-linecap:butt;stroke-linejoin:miter;stroke-opacity:1;"
     x="14.416319"
     y="48.619579"
     id="text836"><tspan
       sodipodi:role="line"
       id="tspan861">%num%</tspan></text>
</svg>
