<?xml version="1.0" encoding="UTF-8" standalone="no"?>
<!-- Created with Inkscape (http://www.inkscape.org/) -->

<svg
   xmlns:dc="http://purl.org/dc/elements/1.1/"
   xmlns:cc="http://creativecommons.org/ns#"
   xmlns:rdf="http://www.w3.org/1999/02/22-rdf-syntax-ns#"
   xmlns:svg="http://www.w3.org/2000/svg"
   xmlns="http://www.w3.org/2000/svg"
   xmlns:sodipodi="http://sodipodi.sourceforge.net/DTD/sodipodi-0.dtd"
   xmlns:inkscape="http://www.inkscape.org/namespaces/inkscape"
   version="1.1"
   width="47.999908"
   height="54.844002"
   id="svg3607"
   inkscape:version="0.92.3 (2405546, 2018-03-11)"
   sodipodi:docname="US:OH:ASD_4.svg">
  <sodipodi:namedview
     pagecolor="#ffffff"
     bordercolor="#666666"
     borderopacity="1"
     objecttolerance="10"
     gridtolerance="10"
     guidetolerance="10"
     inkscape:pageopacity="0"
     inkscape:pageshadow="2"
     inkscape:window-width="1440"
     inkscape:window-height="852"
     id="namedview17"
     showgrid="false"
     inkscape:zoom="10.776019"
     inkscape:cx="12.651144"
     inkscape:cy="30.062668"
     inkscape:window-x="0"
     inkscape:window-y="0"
     inkscape:window-maximized="0"
     inkscape:current-layer="svg3607"
     inkscape:object-nodes="true"
     inkscape:snap-midpoints="false"
     inkscape:snap-bbox="true"
     inkscape:bbox-paths="true"
     fit-margin-top="0"
     fit-margin-left="0"
     fit-margin-right="0"
     fit-margin-bottom="0" />
  <metadata
     id="metadata18">
    <rdf:RDF>
      <cc:Work
         rdf:about="">
        <dc:format>image/svg+xml</dc:format>
        <dc:type
           rdf:resource="http://purl.org/dc/dcmitype/StillImage" />
        <dc:title></dc:title>
      </cc:Work>
    </rdf:RDF>
  </metadata>
  <defs
     id="defs3609" />
  <rect
     style="fill:#ffffff;fill-opacity:1;stroke:#000000;stroke-width:0.08537067;stroke-opacity:1"
     id="rect3617"
     y="0.042685334"
     x="0.042685319"
     ry="3.4224143"
     rx="2.9946585"
     height="54.758629"
     width="47.914536" />
  <path
     sodipodi:nodetypes="cccccccccccccccccccccccccccccccccccccc"
     style="fill:none;stroke:#006a4d;stroke-width:1.26322734;stroke-miterlimit:4;stroke-dasharray:none;stroke-opacity:1"
     d="m 32.922062,1.4445598 -0.08586,2.4591568 -0.173619,5.1992398 3.482178,0.045505 -0.04122,21.7033716 -0.07238,11.124549 -7.487264,-0.01844 -0.06151,10.066011 -9.17753,1.201016 0.02568,-8.186494 -0.03176,-0.77638 0.03003,-8.414591 -1.284913,-0.0144 -1.098544,-0.02012 -0.669429,-0.05789 0.02713,-1.423324 0.0091,-0.9673 0.0367,-1.925136 -0.03307,-1.196249 0.01148,-0.602175 -0.565025,-0.649239 -0.329931,-0.279853 0.148341,-0.453636 0.01322,-0.693414 -1.526096,-0.06445 0.01235,-0.647794 -0.764266,0.03164 0.0029,-0.638842 0.153735,-0.736475 0.02597,-4.7821 0.0052,-0.273715 -0.0092,-11.7284294 -0.475839,0.04605 -0.670299,-0.012273 -0.15196,-5.7071891 -0.04046,-0.3201876 0.02453,-1.2864455 z"
     id="Ashland"
     inkscape:connector-curvature="0" />
  <text
     x="23.863081"
     y="8.4866762"
     id="text4140"
     xml:space="preserve"
     style="font-style:normal;font-variant:normal;font-weight:normal;font-stretch:normal;font-size:1.09505498px;line-height:0%;font-family:'Roadgeek 2005 Series D';-inkscape-font-specification:'Roadgeek 2005 Series D';text-align:center;writing-mode:lr-tb;text-anchor:middle;fill:none;stroke:#000000;stroke-width:0.09125458px;stroke-linecap:butt;stroke-linejoin:miter;stroke-opacity:1"><tspan
       x="23.863081"
       y="8.4866762"
       id="tspan4142"
       style="stroke-width:0.09125458px" /></text>
  <g
     style="font-style:normal;font-variant:normal;font-weight:normal;font-stretch:normal;font-size:89.55223846px;line-height:100%;font-family:'Roadgeek 2005 Series D';-inkscape-font-specification:'Roadgeek 2005 Series D';text-align:center;writing-mode:lr-tb;text-anchor:middle;fill:#006a4d;fill-opacity:1;stroke:none"
     id="text4144"
     transform="matrix(0.09125458,0,0,0.09125458,-2.9695547,6.4966498e-6)">
    <path
       d="M 83.249714,92.917813 77.339266,76.081992 H 58.622848 L 52.7124,92.917813 H 42.592997 L 63.279565,32.917814 H 72.68255 L 93.369117,92.917813 H 83.249714 M 68.115385,49.57453 61.936281,66.410351 h 12 L 68.115385,49.57453"
       style="letter-spacing:-40px;writing-mode:tb-rl;fill:#006a4d"
       id="path4534"
       inkscape:connector-curvature="0" />
    <path
       d="m 88.438847,154.82825 c -4.4e-5,2.74629 -0.507506,5.2836 -1.522388,7.61194 -1.014967,2.32837 -2.477652,4.35822 -4.38806,6.08956 -1.671678,1.49254 -3.641825,2.65671 -5.910448,3.49253 -2.208984,0.77612 -4.597042,1.16418 -7.164179,1.16418 -5.194049,0 -9.641806,-1.37313 -13.343283,-4.1194 -3.641799,-2.80596 -6.477617,-6.50745 -8.507463,-11.10448 l 9.044776,-3.31343 c 1.253718,2.86569 2.98506,5.07464 5.19403,6.62687 2.208936,1.49254 4.746247,2.23881 7.61194,2.2388 2.805943,1e-5 5.044747,-0.83581 6.716418,-2.50746 1.73131,-1.73133 2.596981,-3.85073 2.597015,-6.35821 -3.4e-5,-1.97013 -0.537347,-3.58207 -1.61194,-4.83582 -1.014957,-1.25371 -2.358239,-2.29848 -4.029851,-3.13433 -1.671668,-0.8955 -3.522413,-1.67161 -5.552239,-2.32836 -1.97017,-0.65669 -3.940317,-1.3731 -5.910447,-2.14925 -0.895539,-0.35818 -2.000015,-0.86564 -3.313433,-1.52239 -1.313445,-0.65668 -2.597026,-1.55221 -3.850746,-2.68657 -1.194039,-1.19399 -2.238814,-2.65668 -3.134329,-4.38806 -0.835827,-1.7313 -1.253737,-3.8507 -1.253731,-6.35821 -6e-6,-2.92532 0.477606,-5.40293 1.432836,-7.43283 0.955216,-2.0895 2.238797,-3.76114 3.850746,-5.01493 1.671629,-1.31337 3.641777,-2.26859 5.910448,-2.86567 2.328339,-0.59695 4.835799,-0.89546 7.522388,-0.89552 4.238777,6e-5 7.761162,1.10454 10.567164,3.31343 2.865634,2.20901 5.044736,5.19409 6.537313,8.95523 l -8.41791,2.50746 c -0.477644,-0.95518 -1.104509,-1.82085 -1.880597,-2.59702 -0.656747,-0.65666 -1.582119,-1.25368 -2.77612,-1.79104 -1.134355,-0.53726 -2.537339,-0.83577 -4.208955,-0.89552 -1.07465,-0.0597 -2.208977,0.0299 -3.402985,0.26865 -1.134348,0.17916 -2.149272,0.53737 -3.044776,1.07463 -0.895539,0.53736 -1.611956,1.28363 -2.149254,2.23881 -0.537328,0.89557 -0.746283,2.02989 -0.626865,3.40298 0.119388,1.85079 0.925357,3.28363 2.41791,4.29851 1.492519,0.95526 3.313412,1.79108 5.462687,2.50746 2.149229,0.71646 4.447734,1.46272 6.895522,2.23881 2.507431,0.71645 4.805936,1.79108 6.895522,3.22388 2.089514,1.37316 3.820856,3.25376 5.19403,5.64179 1.432793,2.32838 2.14921,5.46271 2.149254,9.40298"
       style="letter-spacing:-40px;writing-mode:tb-rl;fill:#006a4d"
       id="path4536"
       inkscape:connector-curvature="0" />
    <path
       d="M 78.957503,251.30587 V 225.15661 H 57.106757 v 26.14926 H 47.61422 v -60 h 9.492537 v 24.1791 h 21.850746 v -24.1791 h 9.492538 v 60 h -9.492538"
       style="letter-spacing:-40px;writing-mode:tb-rl;fill:#006a4d"
       id="path4538"
       inkscape:connector-curvature="0" />
    <path
       d="m 52.074341,330.49991 v -60 h 9.492537 v 51.13433 h 27.761194 v 8.86567 H 52.074341"
       style="letter-spacing:-40px;writing-mode:tb-rl;fill:#006a4d"
       id="path4540"
       inkscape:connector-curvature="0" />
    <path
       d="M 83.249714,409.69394 77.339266,392.85812 H 58.622848 L 52.7124,409.69394 H 42.592997 l 20.686568,-60 h 9.402985 l 20.686567,60 H 83.249714 m -15.134329,-43.34328 -6.179104,16.83582 h 12 l -5.820896,-16.83582"
       style="letter-spacing:-40px;writing-mode:tb-rl;fill:#006a4d"
       id="path4542"
       inkscape:connector-curvature="0" />
    <path
       d="M 80.03213,488.88797 57.106757,448.23126 v 40.65671 H 47.61422 v -60 h 9.492537 l 21.850746,38.32836 v -38.32836 h 9.492538 v 60 H 80.03213"
       style="letter-spacing:-40px;writing-mode:tb-rl;fill:#006a4d"
       id="path4544"
       inkscape:connector-curvature="0" />
    <path
       d="m 89.062214,537.99245 c -4.8e-5,6.02988 -0.92542,11.34331 -2.77612,15.9403 -1.791088,4.53732 -4.3881,8.11941 -7.791044,10.74627 -1.134365,1.07463 -2.477647,1.8806 -4.029851,2.41791 -1.492569,0.53731 -3.014956,0.86567 -4.567164,0.98508 H 66.49505 48.226393 v -60 h 19.343283 c 1.49251,6e-5 2.776091,0.0598 3.850747,0.1791 1.134297,0.0598 2.149221,0.20902 3.044776,0.44776 0.895488,0.23887 1.701457,0.56722 2.41791,0.98508 0.716382,0.41796 1.4925,0.92543 2.328358,1.52238 3.164138,2.74633 5.582046,6.41796 7.253732,11.01493 1.731296,4.53735 2.596967,9.79108 2.597015,15.76119 m -9.671642,0 c -3.8e-5,-4.05966 -0.447799,-7.6716 -1.343284,-10.83582 -0.835857,-3.16413 -2.000035,-5.52234 -3.492537,-7.07462 -0.776152,-0.71637 -1.671674,-1.31339 -2.686567,-1.79105 -1.014955,-0.47756 -2.149282,-0.71637 -3.402985,-0.71642 H 57.71893 v 40.83582 h 9.492538 c 1.552211,10e-6 2.835791,-0.17909 3.850746,-0.53731 1.074596,-0.3582 2.029818,-0.95521 2.865671,-1.79104 1.791011,-1.79104 3.134293,-4.23879 4.029851,-7.34329 0.955186,-3.16415 1.432798,-6.74624 1.432836,-10.74627"
       style="letter-spacing:-40px;writing-mode:tb-rl;fill:#006a4d"
       id="path4546"
       inkscape:connector-curvature="0" />
  </g>
  <g
     style="font-style:normal;font-variant:normal;font-weight:normal;font-stretch:normal;font-size:89.55223846px;line-height:100%;font-family:'Roadgeek 2005 Series D';-inkscape-font-specification:'Roadgeek 2005 Series D';text-align:center;writing-mode:lr-tb;text-anchor:middle;fill:#006a4d;fill-opacity:1;stroke:none"
     id="text4144-7"
     transform="matrix(0.09125458,0,0,0.09125458,2.7839616,-2.2637898e-6)">
    <path
       d="m 482.16673,120.87314 c -3.58213,8.83582 -9.61197,13.25373 -18.08955,13.25373 -4.47763,0 -8.17912,-0.86567 -11.10448,-2.59702 -2.92538,-1.73134 -5.34329,-4.44775 -7.25373,-8.14925 -1.37314,-2.68655 -2.44777,-5.82088 -3.22388,-9.40298 -0.77612,-3.58207 -1.16418,-7.25371 -1.16418,-11.01493 0,-4.776084 0.59701,-9.343244 1.79105,-13.701492 1.19402,-4.358161 2.83581,-7.880545 4.92537,-10.567164 1.79103,-2.208899 3.94028,-3.880539 6.44776,-5.014926 2.56714,-1.134267 5.55222,-1.701431 8.95523,-1.701492 4.53728,6.1e-5 8.26862,0.985135 11.19403,2.955224 2.98503,1.970205 5.49249,5.07468 7.52238,9.313433 l -8.86567,3.761194 c -0.83586,-1.253685 -1.61197,-2.29846 -2.32836,-3.134329 -0.65675,-0.835772 -1.37316,-1.492487 -2.14925,-1.970149 -0.71645,-0.477561 -1.52242,-0.805919 -2.41791,-0.985075 -0.83585,-0.179053 -1.82092,-0.268605 -2.95522,-0.268656 -2.44779,5.1e-5 -4.50749,0.567215 -6.17911,1.701492 -1.61196,1.134377 -2.92539,3.044823 -3.9403,5.731343 -0.77613,1.791087 -1.37315,3.910488 -1.79104,6.358209 -0.35823,2.447797 -0.53733,4.955258 -0.53732,7.522388 -10e-6,3.28361 0.32835,6.44779 0.98508,9.49254 0.6567,2.98509 1.58207,5.43285 2.77612,7.34328 1.07461,1.55225 2.32834,2.71643 3.76119,3.49254 1.43281,0.77613 3.19401,1.16419 5.28359,1.16418 2.02982,1e-5 3.79101,-0.53731 5.28358,-1.61194 1.4925,-1.13432 2.83578,-2.92536 4.02985,-5.37314 l 9.04477,3.40299 v 0"
       style="letter-spacing:-40px;writing-mode:tb-rl;fill:#006a4d"
       id="path4509"
       inkscape:connector-curvature="0" />
    <path
       d="m 482.90624,182.33582 c -5e-5,4.77614 -0.56721,9.3433 -1.70149,13.70149 -1.13438,4.35822 -2.74632,7.88061 -4.83582,10.56716 -3.34333,4.47762 -8.17914,6.71642 -14.50747,6.71642 -4.23883,0 -7.73136,-0.86567 -10.47761,-2.59701 -2.74628,-1.73134 -5.01494,-4.44776 -6.80597,-8.14926 -1.25374,-2.56715 -2.26866,-5.67162 -3.04477,-9.31343 -0.77613,-3.70147 -1.16419,-7.34326 -1.16418,-10.92537 -10e-6,-4.95519 0.56715,-9.5522 1.70149,-13.79105 1.19402,-4.23875 2.80596,-7.79099 4.83582,-10.65671 1.79103,-2.2686 3.91043,-3.94024 6.35821,-5.01493 2.50744,-1.13427 5.49251,-1.70143 8.95522,-1.70149 3.82087,6e-5 7.07459,0.86573 9.7612,2.59701 2.68652,1.7314 4.98503,4.44782 6.89552,8.14926 1.25368,2.68661 2.23876,5.82094 2.95522,9.40298 0.71637,3.58213 1.07458,7.25377 1.07463,11.01493 m -9.49254,0 c -4e-5,-3.40295 -0.29854,-6.53728 -0.89552,-9.40299 -0.59705,-2.92533 -1.49257,-5.40294 -2.68657,-7.43283 -0.95526,-1.55219 -2.05973,-2.68652 -3.31343,-3.40299 -1.19406,-0.71636 -2.6866,-1.13427 -4.47761,-1.25373 -2.32839,-0.11935 -4.26868,0.41796 -5.8209,1.61194 -1.55226,1.19408 -2.83584,3.13438 -3.85074,5.8209 -0.77614,1.79108 -1.37315,3.97019 -1.79105,6.53731 -0.35822,2.5075 -0.53733,5.01496 -0.53731,7.52239 -2e-5,3.22391 0.29849,6.32838 0.89552,9.31343 0.597,2.98509 1.49252,5.43285 2.68657,7.34328 0.9552,1.55225 2.08953,2.71643 3.40298,3.49254 1.31341,0.77613 2.92535,1.16419 4.83582,1.16418 2.20893,1e-5 4.02982,-0.597 5.46269,-1.79104 1.4925,-1.19402 2.74623,-3.13432 3.76119,-5.8209 0.29847,-0.7761 0.59698,-1.70147 0.89553,-2.77612 0.29847,-1.13431 0.53727,-2.29849 0.71641,-3.49254 0.23877,-1.2537 0.41788,-2.50743 0.53732,-3.76119 0.11936,-1.2537 0.17906,-2.47758 0.1791,-3.67164"
       style="letter-spacing:-40px;writing-mode:tb-rl;fill:#006a4d"
       id="path4511"
       inkscape:connector-curvature="0" />
    <path
       d="m 482.19612,269.94776 c -5e-5,2.32838 -0.26871,4.53733 -0.80597,6.62686 -0.47766,2.08957 -1.13438,4.02987 -1.97015,5.8209 -0.77616,1.49255 -1.79109,2.86568 -3.04478,4.1194 -1.25377,1.19404 -2.65675,2.23881 -4.20895,3.13433 -1.55228,0.89552 -3.22392,1.58209 -5.01493,2.0597 -1.73137,0.53732 -3.52241,0.80597 -5.37313,0.80597 -1.85077,0 -3.67167,-0.26865 -5.46269,-0.80597 -1.73136,-0.47761 -3.37315,-1.16418 -4.92537,-2.0597 -1.55226,-0.89552 -2.98509,-1.94029 -4.29851,-3.13433 -1.25374,-1.25372 -2.26867,-2.62685 -3.04477,-4.1194 -0.83583,-1.79103 -1.49255,-3.73133 -1.97015,-5.8209 -0.47762,-2.08953 -0.71643,-4.29848 -0.71642,-6.62686 V 231.4403 h 9.49254 v 38.50746 c -2e-5,3.94032 0.98505,7.07464 2.95522,9.40298 2.02983,2.32837 4.68654,3.49255 7.97015,3.49254 3.28355,1e-5 5.91041,-1.16417 7.8806,-3.49254 2.02981,-2.32834 3.04473,-5.46266 3.04477,-9.40298 V 231.4403 h 9.49254 v 38.50746 0"
       style="letter-spacing:-40px;writing-mode:tb-rl;fill:#006a4d"
       id="path4513"
       inkscape:connector-curvature="0" />
    <path
       d="m 473.77821,370.63434 -22.92537,-40.65671 v 40.65671 h -9.49254 v -60 h 9.49254 l 21.85074,38.32836 v -38.32836 h 9.49254 v 60 h -8.41791"
       style="letter-spacing:-40px;writing-mode:tb-rl;fill:#006a4d"
       id="path4515"
       inkscape:connector-curvature="0" />
    <path
       d="m 466.52937,398.24628 v 51.58209 h -9.49253 v -51.58209 h -13.70149 v -8.41791 h 37.07462 v 8.41791 h -13.8806"
       style="letter-spacing:-40px;writing-mode:tb-rl;fill:#006a4d"
       id="path4517"
       inkscape:connector-curvature="0" />
    <path
       d="m 466.46431,502.87315 v 26.14925 h -9.49254 V 502.87315 L 435.927,469.0224 h 11.37313 l 14.32836,23.19403 14.50746,-23.19403 h 11.19403 l -20.86567,33.85075"
       style="letter-spacing:-40px;writing-mode:tb-rl;fill:#006a4d"
       id="path4519"
       inkscape:connector-curvature="0" />
  </g>
  <text
     xml:space="preserve"
     style="font-style:normal;font-variant:normal;font-weight:normal;font-stretch:normal;font-size:10.66666698px;line-height:125%;font-family:'Roadgeek 2005 Series D';-inkscape-font-specification:'Roadgeek 2005 Series D, Normal';font-variant-ligatures:normal;font-variant-caps:normal;font-variant-numeric:normal;font-feature-settings:normal;text-align:center;letter-spacing:0px;word-spacing:0px;writing-mode:lr-tb;text-anchor:middle;fill:#006a4d;fill-opacity:1;stroke:none;stroke-width:1px;stroke-linecap:butt;stroke-linejoin:miter;stroke-opacity:1;"
     x="22.828468"
     y="10.115052"
     id="text840"><tspan
       sodipodi:role="line"
       id="tspan852">%mod%</tspan></text>
  <rect
     style="opacity:1;fill:#ffffff;fill-opacity:1;stroke:none;stroke-width:17.81847763;stroke-miterlimit:4;stroke-dasharray:none;stroke-opacity:1"
     id="rect848"
     width="30.437958"
     height="18.095736"
     x="9.0014696"
     y="10.486247" />
  <text
     xml:space="preserve"
     style="font-style:normal;font-variant:normal;font-weight:normal;font-stretch:normal;font-size:24px;line-height:125%;font-family:'Roadgeek 2005 Series B';-inkscape-font-specification:'Roadgeek 2005 Series B, Normal';font-variant-ligatures:normal;font-variant-caps:normal;font-variant-numeric:normal;font-feature-settings:normal;text-align:center;letter-spacing:0px;word-spacing:0px;writing-mode:lr;text-anchor:middle;fill:#006a4d;fill-opacity:1;stroke:none;stroke-width:1px;stroke-linecap:butt;stroke-linejoin:miter;stroke-opacity:1;"
     x="24.498842"
     y="27.653997"
     id="text844"><tspan
       sodipodi:role="line"
       id="tspan854">%num%</tspan></text>
</svg>
