<?xml version="1.0" encoding="UTF-8" standalone="no"?>
<!-- Created with Inkscape (http://www.inkscape.org/) -->

<svg
   xmlns:dc="http://purl.org/dc/elements/1.1/"
   xmlns:cc="http://creativecommons.org/ns#"
   xmlns:rdf="http://www.w3.org/1999/02/22-rdf-syntax-ns#"
   xmlns:svg="http://www.w3.org/2000/svg"
   xmlns="http://www.w3.org/2000/svg"
   xmlns:xlink="http://www.w3.org/1999/xlink"
   xmlns:sodipodi="http://sodipodi.sourceforge.net/DTD/sodipodi-0.dtd"
   xmlns:inkscape="http://www.inkscape.org/namespaces/inkscape"
   width="60"
   height="48"
   id="svg16935"
   sodipodi:version="0.32"
   inkscape:version="0.48.1 r9760"
   version="1.0"
   sodipodi:docname="US:OK_suf_2.svg">
  <defs
     id="defs16937" />
  <sodipodi:namedview
     id="base"
     pagecolor="#ffffff"
     bordercolor="#666666"
     borderopacity="1.0"
     gridtolerance="10000"
     guidetolerance="10"
     objecttolerance="10"
     inkscape:pageopacity="0.0"
     inkscape:pageshadow="2"
     inkscape:zoom="16.895833"
     inkscape:cx="30"
     inkscape:cy="24"
     inkscape:document-units="px"
     inkscape:current-layer="layer1"
     inkscape:window-width="1278"
     inkscape:window-height="996"
     inkscape:window-x="1"
     inkscape:window-y="27"
     showgrid="true"
     inkscape:showpageshadow="false"
     inkscape:window-maximized="0">
    <inkscape:grid
       type="xygrid"
       id="grid3007"
       empspacing="5"
       visible="true"
       enabled="true"
       snapvisiblegridlinesonly="true" />
  </sodipodi:namedview>
  <metadata
     id="metadata16940">
    <rdf:RDF>
      <cc:Work
         rdf:about="">
        <dc:format>image/svg+xml</dc:format>
        <dc:type
           rdf:resource="http://purl.org/dc/dcmitype/StillImage" />
        <dc:title></dc:title>
      </cc:Work>
    </rdf:RDF>
  </metadata>
  <g
     inkscape:label="Layer 1"
     inkscape:groupmode="layer"
     id="layer1"
     transform="translate(-153.2153,-656.86115)">
    <g
       id="g3076">
      <g
         id="g3066">
        <g
           id="g9160"
           transform="matrix(0.15425622,0,0,0.12234106,153.52115,657.31062)">
          <g
             id="g9162">
            <path
               id="path9164"
               d="m 4.5,24.5 c 0,-11.045898 8.954102,-20 19.999756,-20 l 335.998044,0 c 11.0459,0 20,8.954102 20,20 l 0,335.99756 c 0,11.04639 -8.9541,20.00049 -20,20.00049 l -335.998044,0 C 13.454102,380.49805 4.5,371.54395 4.5,360.49756 L 4.5,24.5 l 0,0 z"
               inkscape:connector-curvature="0" />
            <path
               id="path9166"
               d=""
               inkscape:connector-curvature="0" />
          </g>
        </g>
        <g
           id="g9168"
           transform="matrix(0.15384703,0,0,0.12087977,153.59993,657.59191)">
          <g
             id="g9170">
            <path
               style="fill:#ffffff"
               id="path9172"
               d="m 10.499878,24.5 c 0,-7.731934 6.267944,-14 13.999878,-14 l 335.998294,0 c 7.73193,0 13.99975,6.268066 13.99975,14 l 0,335.99805 c 0,7.73193 -6.26782,14 -13.99975,14 l -335.998294,0 c -7.731934,0 -13.999878,-6.26807 -13.999878,-14 l 0,-335.99805 0,0 z"
               inkscape:connector-curvature="0" />
            <path
               style="fill:#ffffff"
               id="path9174"
               d=""
               inkscape:connector-curvature="0" />
          </g>
        </g>
      </g>
      <g
         transform="matrix(0.16074877,0,0,0.12284023,152.39999,657.18109)"
         id="g9176">
        <polygon
           style="fill:none;stroke:#000000;stroke-width:8;stroke-miterlimit:3.863693"
           id="polygon9178"
           points="27.699829,77.299805 27.699829,50.099609 338.09814,50.099609 338.09814,70.899902 355.698,133.29932 355.698,219.69873 328.49805,210.09912 310.89819,214.89893 301.29834,221.29883 278.89844,210.09912 264.49854,218.09912 248.49854,208.49902 238.89868,211.69873 230.89868,206.89893 221.29871,211.69873 192.4989,198.89893 192.4989,198.89893 187.69885,189.29883 182.89905,192.49902 171.69897,189.29883 168.49902,186.09912 163.6991,190.89893 147.69922,181.29883 146.09924,174.89893 146.09924,77.299805 "
           stroke-miterlimit="3.863693"
           clip-rule="evenodd" />
      </g>
    </g>
    <path
       sodipodi:type="inkscape:offset"
       inkscape:radius="2.1511555"
       inkscape:original="M 114.1875 674.15625 C 112.8755 674.15625 112.01125 674.8725 111.53125 676.3125 C 111.24325 677.0805 111.125 678.185 111.125 679.625 C 111.125 681.065 111.24325 682.1695 111.53125 682.9375 C 112.01125 684.4095 112.8755 685.15625 114.1875 685.15625 C 115.4995 685.15625 116.39425 684.41025 116.90625 682.90625 C 117.19425 682.13825 117.34375 681.033 117.34375 679.625 C 117.34375 678.249 117.163 677.1765 116.875 676.3125 C 116.395 674.8725 115.4995 674.15625 114.1875 674.15625 z M 123.75 674.15625 L 111.125 696.125 L 113.125 696.125 L 125.8125 674.15625 L 123.75 674.15625 z M 183.6875 674.15625 C 182.3755 674.15625 181.51125 674.8725 181.03125 676.3125 C 180.74325 677.0805 180.625 678.185 180.625 679.625 C 180.625 681.065 180.74325 682.1695 181.03125 682.9375 C 181.51125 684.4095 182.3755 685.15625 183.6875 685.15625 C 184.9995 685.15625 185.89425 684.41025 186.40625 682.90625 C 186.69425 682.13825 186.84375 681.033 186.84375 679.625 C 186.84375 678.249 186.663 677.1765 186.375 676.3125 C 185.895 674.8725 184.9995 674.15625 183.6875 674.15625 z M 193.25 674.15625 L 180.625 696.125 L 182.625 696.125 L 195.3125 674.15625 L 193.25 674.15625 z M 114.1875 676.34375 C 114.7315 676.34375 115.11975 676.7915 115.34375 677.6875 C 115.47175 678.2315 115.53125 678.889 115.53125 679.625 C 115.53125 681.673 114.9875 682.96875 114.1875 682.96875 C 113.6435 682.96875 113.2545 682.52175 113.0625 681.59375 C 112.9345 681.11375 112.875 680.457 112.875 679.625 C 112.875 677.449 113.3875 676.34375 114.1875 676.34375 z M 183.6875 676.34375 C 184.2315 676.34375 184.61975 676.7915 184.84375 677.6875 C 184.97175 678.2315 185.03125 678.889 185.03125 679.625 C 185.03125 681.673 184.4875 682.96875 183.6875 682.96875 C 183.1435 682.96875 182.7545 682.52175 182.5625 681.59375 C 182.4345 681.11375 182.375 680.457 182.375 679.625 C 182.375 677.449 182.8875 676.34375 183.6875 676.34375 z M 165.78125 679.84375 C 165.07725 679.84375 164.033 679.81375 162.625 681.09375 L 162.625 680.21875 L 159.65625 680.21875 L 159.65625 695.875 L 162.6875 695.875 L 162.6875 685.09375 C 162.6875 683.26975 163.56675 682.721 164.71875 682.625 C 166.22275 682.625 167.125 683.04575 167.125 685.09375 L 167.125 695.875 L 170.125 695.875 L 170.125 685.09375 C 170.125 683.26975 171.03625 682.625 172.15625 682.625 C 173.75625 682.625 174.59375 683.04575 174.59375 685.09375 L 174.59375 695.875 L 177.65625 695.875 L 177.65625 685.09375 C 177.65625 681.47775 175.4885 680.00375 173.3125 679.84375 L 172.8125 679.84375 C 171.5005 679.84375 170.0545 680.11875 169.0625 681.71875 C 168.1665 680.43875 167.12525 679.84375 165.78125 679.84375 z M 136.53125 679.875 C 135.25125 679.875 134.105 680.267 133.625 680.875 L 133.625 680.21875 L 130.65625 680.21875 L 130.65625 695.875 L 133.6875 695.875 L 133.6875 685.1875 C 133.6875 683.3955 134.72375 682.78275 135.84375 682.71875 C 137.34775 682.71875 138.5 683.1715 138.5 685.1875 L 138.5 695.875 L 141.5 695.875 L 141.5 685.09375 C 141.5 681.18975 138.80325 679.875 136.53125 679.875 z M 144.9375 680.21875 L 144.9375 690.96875 C 144.9375 694.58475 147.5115 696.25 149.6875 696.25 C 150.3595 696.25 151.40375 696.24875 152.84375 694.96875 L 152.84375 695.875 L 155.78125 695.875 L 155.78125 680.21875 L 152.78125 680.21875 L 152.78125 690.96875 C 152.78125 692.79275 151.7145 693.375 150.5625 693.375 C 149.0585 693.375 147.9375 692.92075 147.9375 690.96875 L 147.9375 680.21875 L 144.9375 680.21875 z M 122.6875 685.15625 C 121.3755 685.15625 120.44875 685.84125 119.96875 687.28125 C 119.71275 688.08125 119.59375 689.21625 119.59375 690.65625 C 119.59375 692.03225 119.71275 693.10625 119.96875 693.90625 C 120.44875 695.37825 121.3755 696.125 122.6875 696.125 C 123.9995 696.125 124.89425 695.379 125.40625 693.875 C 125.69425 693.107 125.8125 692.03225 125.8125 690.65625 C 125.8125 689.31225 125.663 688.17725 125.375 687.28125 C 124.895 685.84125 123.9995 685.15625 122.6875 685.15625 z M 192.1875 685.15625 C 190.8755 685.15625 189.94875 685.84125 189.46875 687.28125 C 189.21275 688.08125 189.09375 689.21625 189.09375 690.65625 C 189.09375 692.03225 189.21275 693.10625 189.46875 693.90625 C 189.94875 695.37825 190.8755 696.125 192.1875 696.125 C 193.4995 696.125 194.39425 695.379 194.90625 693.875 C 195.19425 693.107 195.3125 692.03225 195.3125 690.65625 C 195.3125 689.31225 195.163 688.17725 194.875 687.28125 C 194.395 685.84125 193.4995 685.15625 192.1875 685.15625 z M 122.6875 687.3125 C 123.2315 687.3125 123.5885 687.76025 123.8125 688.65625 C 123.9405 689.20025 124.03125 689.88825 124.03125 690.65625 C 124.03125 692.70425 123.4875 693.9375 122.6875 693.9375 C 122.1435 693.9375 121.7545 693.4905 121.5625 692.5625 C 121.4345 692.0825 121.375 691.45625 121.375 690.65625 C 121.375 688.48025 121.8875 687.3125 122.6875 687.3125 z M 192.1875 687.3125 C 192.7315 687.3125 193.0885 687.76025 193.3125 688.65625 C 193.4405 689.20025 193.53125 689.88825 193.53125 690.65625 C 193.53125 692.70425 192.9875 693.9375 192.1875 693.9375 C 191.6435 693.9375 191.2545 693.4905 191.0625 692.5625 C 190.9345 692.0825 190.875 691.45625 190.875 690.65625 C 190.875 688.48025 191.3875 687.3125 192.1875 687.3125 z "
       xlink:href="#text3779"
       style="font-size:32px;font-style:normal;font-variant:normal;font-weight:normal;font-stretch:normal;text-align:center;line-height:125%;letter-spacing:0px;word-spacing:0px;writing-mode:lr-tb;text-anchor:middle;fill:#ffffff;fill-opacity:1;stroke:none;font-family:Roadgeek 2005 Series D;-inkscape-font-specification:Roadgeek 2005 Series D"
       id="path3052"
       inkscape:href="#text3779"
       d="m 172.5,671.875 c -1.55395,0 -3.06746,0.3698 -4.3125,1.25 -1.24504,0.8802 -2.12296,2.15159 -2.78125,3.65625 -1.04233,2.38247 -1.40625,4.93729 -1.40625,8.3125 0,3.43643 0.3863,5.90834 1.40625,8.3125 l -0.0312,0 c 0.62338,1.49234 1.47676,2.78007 2.71875,3.6875 1.24199,0.90743 2.80148,1.3125 4.40625,1.3125 1.54643,0 3.05562,-0.41329 4.28125,-1.3125 1.21461,-0.89112 2.09059,-2.16658 2.71875,-3.65625 0.006,-0.0135 0.0256,-0.0177 0.0312,-0.0312 l -0.0312,0 c 0.69363,-1.59412 1.03896,-3.38332 1.21875,-5.34375 0.18313,1.94902 0.50178,3.72741 1.1875,5.34375 l -0.0312,0 c 0.62338,1.49234 1.47676,2.78007 2.71875,3.6875 1.24199,0.90743 2.80148,1.3125 4.40625,1.3125 1.54643,0 3.05562,-0.41329 4.28125,-1.3125 1.21461,-0.89112 2.09059,-2.16658 2.71875,-3.65625 0.006,-0.0135 0.0256,-0.0177 0.0312,-0.0312 l -0.0312,0 c 1.02984,-2.36682 1.40625,-4.88917 1.40625,-8.3125 0,-3.36225 -0.39797,-5.79887 -1.40625,-8.1875 -0.004,-0.009 0.004,-0.0224 0,-0.0312 -0.62169,-1.53067 -1.45713,-2.82529 -2.6875,-3.71875 -1.24127,-0.90138 -2.77101,-1.28125 -4.3125,-1.28125 -1.55395,0 -3.06746,0.3698 -4.3125,1.25 -1.24504,0.8802 -2.12296,2.15159 -2.78125,3.65625 -0.70459,1.6105 -1.03912,3.41061 -1.21875,5.375 -0.18309,-1.90728 -0.512,-3.64972 -1.1875,-5.25 -0.004,-0.009 0.004,-0.0224 0,-0.0312 -0.62169,-1.53067 -1.45713,-2.82529 -2.6875,-3.71875 -1.24127,-0.90138 -2.77101,-1.28125 -4.3125,-1.28125 z m -12.75,0.375 a 2.1513706,2.1513706 0 0 0 -1.9375,1.1875 c -0.18652,0.37304 -0.003,0.31265 -0.59375,0.34375 a 2.1513706,2.1513706 0 0 0 -2.03125,2.15625 l 0,2.3125 a 2.1513706,2.1513706 0 0 0 1.34375,2 l 0,15.625 a 2.1513706,2.1513706 0 0 0 2.15625,2.15625 l 3.125,0 a 2.1513706,2.1513706 0 0 0 2.15625,-2.15625 l 0,-21.46875 A 2.1513706,2.1513706 0 0 0 161.8125,672.25 l -2.0625,0 z m 12.75,6.9375 c 0.17462,0 -0.0254,-0.0587 0.0312,0 0.0566,0.0587 0.31378,0.4015 0.53125,1.15625 0.41233,1.44314 0.59375,2.49311 0.59375,4.75 0,2.36186 -0.12771,3.30212 -0.59375,4.875 -0.21496,0.72076 -0.44233,1.06627 -0.5,1.125 -0.0577,0.0587 0.11128,0 -0.0625,0 -0.2543,0 -0.13563,0.0197 -0.1875,-0.0312 -0.0488,-0.0479 -0.24991,-0.38406 -0.4375,-1 -0.42073,-1.62281 -0.59375,-2.66685 -0.59375,-4.875 0,-2.3138 0.12624,-3.45319 0.5625,-4.84375 a 2.1513706,2.1513706 0 0 0 0,-0.0625 c 0.19719,-0.7025 0.41688,-1.01152 0.46875,-1.0625 0.0519,-0.051 -0.0668,-0.0312 0.1875,-0.0312 z m 16.5,0 c 0.17462,0 -0.0254,-0.0587 0.0312,0 0.0566,0.0587 0.31378,0.4015 0.53125,1.15625 0.41233,1.44314 0.59375,2.49311 0.59375,4.75 0,2.36186 -0.12771,3.30212 -0.59375,4.875 -0.21496,0.72076 -0.44233,1.06627 -0.5,1.125 -0.0577,0.0587 0.11128,0 -0.0625,0 -0.2543,0 -0.13563,0.0197 -0.1875,-0.0312 -0.0488,-0.0479 -0.24991,-0.38406 -0.4375,-1 -0.42073,-1.62281 -0.59375,-2.66685 -0.59375,-4.875 0,-2.3138 0.12624,-3.45319 0.5625,-4.84375 a 2.1513706,2.1513706 0 0 0 0,-0.0625 c 0.19719,-0.7025 0.41688,-1.01152 0.46875,-1.0625 0.0519,-0.051 -0.0668,-0.0312 0.1875,-0.0312 z" />
    <text
       sodipodi:linespacing="125%"
       id="text3779"
       y="695.86115"
       x="198.2153"
       style="font-size:32px;font-style:normal;font-variant:normal;font-weight:normal;font-stretch:normal;text-align:end;line-height:125%;letter-spacing:0px;word-spacing:0px;writing-mode:lr;text-anchor:end;fill:#000000;fill-opacity:1;stroke:none;font-family:Roadgeek 2005 Series C;-inkscape-font-specification:Roadgeek 2005 Series C"
       xml:space="preserve"><tspan
         sodipodi:role="line"
         id="tspan3426">%num%</tspan></text>
    <path
       sodipodi:type="inkscape:offset"
       inkscape:radius="1.9540408"
       inkscape:original="M 228.90625 677.21875 C 227.68625 677.21875 227.28125 678.395 227.28125 679.375 L 227.28125 681.09375 L 226.1875 681.09375 L 226.1875 682.875 L 227.28125 682.875 L 227.28125 690.875 L 229.15625 690.875 L 229.15625 682.875 L 230.34375 682.875 L 230.34375 681.09375 L 229.15625 681.09375 L 229.15625 679.65625 C 229.15625 679.13625 229.45 679.03125 229.75 679.03125 C 229.95 679.03125 230.14125 679.07375 230.28125 679.09375 L 230.28125 677.375 C 229.78125 677.235 229.46625 677.21875 228.90625 677.21875 z M 200.9375 677.3125 C 200.1175 677.3125 199.58125 677.75625 199.28125 678.65625 C 199.10125 679.13625 199 679.81875 199 680.71875 C 199 681.61875 199.10125 682.30125 199.28125 682.78125 C 199.58125 683.70125 200.1175 684.15625 200.9375 684.15625 C 201.7575 684.15625 202.305 683.69 202.625 682.75 C 202.805 682.27 202.90625 681.59875 202.90625 680.71875 C 202.90625 679.85875 202.805 679.19625 202.625 678.65625 C 202.325 677.75625 201.7575 677.3125 200.9375 677.3125 z M 206.90625 677.3125 L 199 691.03125 L 200.28125 691.03125 L 208.1875 677.3125 L 206.90625 677.3125 z M 233.3125 677.3125 C 232.4925 677.3125 231.95625 677.75625 231.65625 678.65625 C 231.47625 679.13625 231.40625 679.81875 231.40625 680.71875 C 231.40625 681.61875 231.47625 682.30125 231.65625 682.78125 C 231.95625 683.70125 232.4925 684.15625 233.3125 684.15625 C 234.1325 684.15625 234.71125 683.69 235.03125 682.75 C 235.21125 682.27 235.28125 681.59875 235.28125 680.71875 C 235.28125 679.85875 235.18 679.19625 235 678.65625 C 234.7 677.75625 234.1325 677.3125 233.3125 677.3125 z M 239.3125 677.3125 L 231.40625 691.03125 L 232.65625 691.03125 L 240.5625 677.3125 L 239.3125 677.3125 z M 200.9375 678.65625 C 201.2775 678.65625 201.51625 678.94 201.65625 679.5 C 201.73625 679.84 201.78125 680.25875 201.78125 680.71875 C 201.78125 681.99875 201.4375 682.8125 200.9375 682.8125 C 200.5975 682.8125 200.37 682.5175 200.25 681.9375 C 200.17 681.6375 200.125 681.23875 200.125 680.71875 C 200.125 679.35875 200.4375 678.65625 200.9375 678.65625 z M 233.3125 678.65625 C 233.6525 678.65625 233.89125 678.94 234.03125 679.5 C 234.11125 679.84 234.15625 680.25875 234.15625 680.71875 C 234.15625 681.99875 233.8125 682.8125 233.3125 682.8125 C 232.9725 682.8125 232.745 682.5175 232.625 681.9375 C 232.545 681.6375 232.5 681.23875 232.5 680.71875 C 232.5 679.35875 232.8125 678.65625 233.3125 678.65625 z M 213.15625 680.84375 C 212.89625 680.84375 212.64625 680.8775 212.40625 680.9375 C 211.18625 681.2375 210.5625 682.2175 210.5625 683.4375 L 210.5625 683.65625 C 210.7025 685.17625 212.60125 685.915 213.78125 687.375 C 214.08125 687.735 214.21875 688.08625 214.21875 688.40625 C 214.21875 688.78625 214.01375 689.09875 213.59375 689.21875 C 213.49375 689.25875 213.38125 689.25 213.28125 689.25 C 212.78125 689.25 212.36 688.895 212 688.375 L 210.53125 689.5 C 211.09125 690.44 211.9075 691.03125 213.1875 691.03125 C 215.1075 691.03125 216.13875 689.7725 216.21875 688.3125 L 216.21875 688.15625 C 216.21875 685.69625 212.53125 684.515 212.53125 683.375 C 212.53125 683.235 212.57875 683.04625 212.71875 682.90625 C 212.87875 682.74625 213.03875 682.6875 213.21875 682.6875 C 213.77875 682.6875 214.40625 683.375 214.40625 683.375 L 215.75 682.3125 C 214.95 681.2725 214.01625 680.84375 213.15625 680.84375 z M 217.6875 681.09375 L 217.6875 687.8125 C 217.6875 690.0725 219.29625 691.09375 220.65625 691.09375 C 221.07625 691.09375 221.725 691.1125 222.625 690.3125 L 222.625 690.875 L 224.46875 690.875 L 224.46875 681.09375 L 222.59375 681.09375 L 222.59375 687.8125 C 222.59375 688.9525 221.93875 689.3125 221.21875 689.3125 C 220.27875 689.3125 219.5625 689.0325 219.5625 687.8125 L 219.5625 681.09375 L 217.6875 681.09375 z M 206.25 684.15625 C 205.43 684.15625 204.8625 684.6 204.5625 685.5 C 204.4025 686 204.3125 686.69375 204.3125 687.59375 C 204.3125 688.45375 204.4025 689.15625 204.5625 689.65625 C 204.8625 690.57625 205.43 691.03125 206.25 691.03125 C 207.07 691.03125 207.6175 690.565 207.9375 689.625 C 208.1175 689.145 208.1875 688.45375 208.1875 687.59375 C 208.1875 686.75375 208.08625 686.06 207.90625 685.5 C 207.60625 684.6 207.07 684.15625 206.25 684.15625 z M 238.625 684.15625 C 237.805 684.15625 237.2375 684.6 236.9375 685.5 C 236.7775 686 236.6875 686.69375 236.6875 687.59375 C 236.6875 688.45375 236.7775 689.15625 236.9375 689.65625 C 237.2375 690.57625 237.805 691.03125 238.625 691.03125 C 239.445 691.03125 239.9925 690.565 240.3125 689.625 C 240.4925 689.145 240.5625 688.45375 240.5625 687.59375 C 240.5625 686.75375 240.4925 686.06 240.3125 685.5 C 240.0125 684.6 239.445 684.15625 238.625 684.15625 z M 206.25 685.53125 C 206.59 685.53125 206.82875 685.815 206.96875 686.375 C 207.04875 686.715 207.0625 687.11375 207.0625 687.59375 C 207.0625 688.87375 206.75 689.65625 206.25 689.65625 C 205.91 689.65625 205.65125 689.3925 205.53125 688.8125 C 205.45125 688.5125 205.40625 688.09375 205.40625 687.59375 C 205.40625 686.23375 205.75 685.53125 206.25 685.53125 z M 238.625 685.53125 C 238.965 685.53125 239.20375 685.815 239.34375 686.375 C 239.42375 686.715 239.46875 687.11375 239.46875 687.59375 C 239.46875 688.87375 239.125 689.65625 238.625 689.65625 C 238.285 689.65625 238.02625 689.3925 237.90625 688.8125 C 237.82625 688.5125 237.8125 688.09375 237.8125 687.59375 C 237.8125 686.23375 238.125 685.53125 238.625 685.53125 z "
       xlink:href="#text3393"
       style="font-size:20px;font-style:normal;font-variant:normal;font-weight:normal;font-stretch:normal;text-align:start;line-height:125%;letter-spacing:0px;word-spacing:0px;writing-mode:lr-tb;text-anchor:start;fill:#ffffff;fill-opacity:1;stroke:none;font-family:Roadgeek 2005 Series D;-inkscape-font-specification:Roadgeek 2005 Series D"
       id="path3397"
       inkscape:href="#text3393"
       d="m 200.96875,675.5 a 1.9542362,1.9542362 0 0 0 -1.90625,1.5 l -3.34375,13.40625 a 1.9542362,1.9542362 0 0 0 1.90625,2.4375 l 1.9375,0 a 1.9542362,1.9542362 0 0 0 1.90625,-1.5 l 0.4375,-1.8125 0.46875,1.8125 a 1.9542362,1.9542362 0 0 0 1.90625,1.5 l 1.90625,0 a 1.9542362,1.9542362 0 0 0 1.90625,-2.4375 L 204.75,677 a 1.9542362,1.9542362 0 0 0 -1.90625,-1.5 l -1.875,0 z" />
    <text
       xml:space="preserve"
       style="font-size:20px;font-style:normal;font-variant:normal;font-weight:normal;font-stretch:normal;text-align:start;line-height:125%;letter-spacing:0px;word-spacing:0px;writing-mode:lr;text-anchor:start;fill:#000000;fill-opacity:1;stroke:none;font-family:Roadgeek 2005 Series C;-inkscape-font-specification:Roadgeek 2005 Series C"
       x="198.2153"
       y="690.86115"
       id="text3393"
       sodipodi:linespacing="125%"><tspan
         sodipodi:role="line"
         id="tspan3428">%suf%</tspan></text>
  </g>
</svg>
