<?xml version="1.0" encoding="UTF-8" standalone="no"?>
<!-- Created with Inkscape (http://www.inkscape.org/) -->

<svg
   xmlns:dc="http://purl.org/dc/elements/1.1/"
   xmlns:cc="http://creativecommons.org/ns#"
   xmlns:rdf="http://www.w3.org/1999/02/22-rdf-syntax-ns#"
   xmlns:svg="http://www.w3.org/2000/svg"
   xmlns="http://www.w3.org/2000/svg"
   xmlns:xlink="http://www.w3.org/1999/xlink"
   xmlns:sodipodi="http://sodipodi.sourceforge.net/DTD/sodipodi-0.dtd"
   xmlns:inkscape="http://www.inkscape.org/namespaces/inkscape"
   width="60"
   height="48"
   id="svg16935"
   sodipodi:version="0.32"
   inkscape:version="0.48.1 r9760"
   version="1.0"
   sodipodi:docname="US:OK_3.svg">
  <defs
     id="defs16937" />
  <sodipodi:namedview
     id="base"
     pagecolor="#ffffff"
     bordercolor="#666666"
     borderopacity="1.0"
     gridtolerance="10000"
     guidetolerance="10"
     objecttolerance="10"
     inkscape:pageopacity="0.0"
     inkscape:pageshadow="2"
     inkscape:zoom="16.895833"
     inkscape:cx="30"
     inkscape:cy="24"
     inkscape:document-units="px"
     inkscape:current-layer="layer1"
     inkscape:window-width="1278"
     inkscape:window-height="996"
     inkscape:window-x="1"
     inkscape:window-y="27"
     showgrid="true"
     inkscape:showpageshadow="false"
     inkscape:window-maximized="0">
    <inkscape:grid
       type="xygrid"
       id="grid3007"
       empspacing="5"
       visible="true"
       enabled="true"
       snapvisiblegridlinesonly="true" />
  </sodipodi:namedview>
  <metadata
     id="metadata16940">
    <rdf:RDF>
      <cc:Work
         rdf:about="">
        <dc:format>image/svg+xml</dc:format>
        <dc:type
           rdf:resource="http://purl.org/dc/dcmitype/StillImage" />
        <dc:title></dc:title>
      </cc:Work>
    </rdf:RDF>
  </metadata>
  <g
     inkscape:label="Layer 1"
     inkscape:groupmode="layer"
     id="layer1"
     transform="translate(-153.2153,-656.86115)">
    <g
       id="g3076">
      <g
         id="g3066">
        <g
           id="g9160"
           transform="matrix(0.15425622,0,0,0.12234106,153.52115,657.31062)">
          <g
             id="g9162">
            <path
               id="path9164"
               d="m 4.5,24.5 c 0,-11.045898 8.954102,-20 19.999756,-20 l 335.998044,0 c 11.0459,0 20,8.954102 20,20 l 0,335.99756 c 0,11.04639 -8.9541,20.00049 -20,20.00049 l -335.998044,0 C 13.454102,380.49805 4.5,371.54395 4.5,360.49756 L 4.5,24.5 l 0,0 z"
               inkscape:connector-curvature="0" />
            <path
               id="path9166"
               d=""
               inkscape:connector-curvature="0" />
          </g>
        </g>
        <g
           id="g9168"
           transform="matrix(0.15384703,0,0,0.12087977,153.59993,657.59191)">
          <g
             id="g9170">
            <path
               style="fill:#ffffff"
               id="path9172"
               d="m 10.499878,24.5 c 0,-7.731934 6.267944,-14 13.999878,-14 l 335.998294,0 c 7.73193,0 13.99975,6.268066 13.99975,14 l 0,335.99805 c 0,7.73193 -6.26782,14 -13.99975,14 l -335.998294,0 c -7.731934,0 -13.999878,-6.26807 -13.999878,-14 l 0,-335.99805 0,0 z"
               inkscape:connector-curvature="0" />
            <path
               style="fill:#ffffff"
               id="path9174"
               d=""
               inkscape:connector-curvature="0" />
          </g>
        </g>
      </g>
      <g
         transform="matrix(0.16074877,0,0,0.12284023,152.39999,657.18109)"
         id="g9176">
        <polygon
           style="fill:none;stroke:#000000;stroke-width:8;stroke-miterlimit:3.863693"
           id="polygon9178"
           points="27.699829,77.299805 27.699829,50.099609 338.09814,50.099609 338.09814,70.899902 355.698,133.29932 355.698,219.69873 328.49805,210.09912 310.89819,214.89893 301.29834,221.29883 278.89844,210.09912 264.49854,218.09912 248.49854,208.49902 238.89868,211.69873 230.89868,206.89893 221.29871,211.69873 192.4989,198.89893 192.4989,198.89893 187.69885,189.29883 182.89905,192.49902 171.69897,189.29883 168.49902,186.09912 163.6991,190.89893 147.69922,181.29883 146.09924,174.89893 146.09924,77.299805 "
           stroke-miterlimit="3.863693"
           clip-rule="evenodd" />
      </g>
    </g>
    <path
       sodipodi:type="inkscape:offset"
       inkscape:radius="2.1511555"
       inkscape:original="M 137.65625 674.15625 C 136.40825 674.15625 135.454 674.7535 134.75 675.9375 C 134.142 676.9935 133.8125 678.185 133.8125 679.625 C 133.8125 681.065 134.142 682.35025 134.75 683.40625 C 135.454 684.55825 136.40825 685.15625 137.65625 685.15625 C 138.90425 685.15625 139.8585 684.559 140.5625 683.375 C 141.1705 682.319 141.5 681.065 141.5 679.625 C 141.5 678.185 141.1705 676.96225 140.5625 675.90625 C 139.8585 674.75425 138.90425 674.15625 137.65625 674.15625 z M 147.78125 674.15625 L 135.15625 696.125 L 137.5 696.125 L 150.1875 674.15625 L 147.78125 674.15625 z M 219.71875 674.15625 C 218.47075 674.15625 217.5165 674.7535 216.8125 675.9375 C 216.2045 676.9935 215.875 678.185 215.875 679.625 C 215.875 681.065 216.2045 682.35025 216.8125 683.40625 C 217.5165 684.55825 218.47075 685.15625 219.71875 685.15625 C 220.96675 685.15625 221.921 684.559 222.625 683.375 C 223.233 682.319 223.5625 681.065 223.5625 679.625 C 223.5625 678.185 223.233 676.96225 222.625 675.90625 C 221.921 674.75425 220.96675 674.15625 219.71875 674.15625 z M 229.84375 674.15625 L 217.21875 696.125 L 219.5625 696.125 L 232.25 674.15625 L 229.84375 674.15625 z M 137.65625 676.40625 C 138.29625 676.40625 138.74325 676.764 139.03125 677.5 C 139.19125 678.012 139.3125 678.697 139.3125 679.625 C 139.3125 680.553 139.192 681.2685 139 681.8125 C 138.712 682.5485 138.26425 682.90625 137.65625 682.90625 C 137.04825 682.90625 136.56925 682.51725 136.28125 681.78125 C 136.12125 681.26925 136.03125 680.553 136.03125 679.625 C 136.03125 677.801 136.40825 676.40625 137.65625 676.40625 z M 219.71875 676.40625 C 220.35875 676.40625 220.80575 676.764 221.09375 677.5 C 221.25375 678.012 221.375 678.697 221.375 679.625 C 221.375 680.553 221.2545 681.2685 221.0625 681.8125 C 220.7745 682.5485 220.32675 682.90625 219.71875 682.90625 C 219.11075 682.90625 218.63175 682.51725 218.34375 681.78125 C 218.18375 681.26925 218.09375 680.553 218.09375 679.625 C 218.09375 677.801 218.47075 676.40625 219.71875 676.40625 z M 162.8125 679.75 C 161.6285 679.75 160.43025 680.07875 159.40625 680.71875 L 159.40625 680.21875 L 156 680.21875 L 156 695.875 L 159.46875 695.875 L 159.46875 685.625 C 159.46875 683.833 160.74975 683.064 162.09375 683 C 163.91775 683 165.25 683.452 165.25 685.5 L 165.25 695.875 L 168.65625 695.875 L 168.65625 685.09375 C 168.65625 681.66975 165.7565 679.75 162.8125 679.75 z M 196.25 679.75 C 195.034 679.75 193.80375 680.139 192.84375 680.875 L 192.84375 680.21875 L 189.375 680.21875 L 189.375 695.875 L 192.90625 695.875 L 192.90625 685.71875 C 192.90625 683.89475 193.96775 683.064 195.34375 683 C 197.19975 683 198.25 683.67075 198.25 685.71875 L 198.25 695.875 L 201.875 695.875 L 201.875 685.71875 C 201.875 683.89475 202.999 683 204.375 683 C 206.167 683 207.21875 683.67075 207.21875 685.71875 L 207.21875 695.875 L 210.59375 695.875 L 210.59375 685.28125 C 210.59375 681.72925 207.56825 679.8125 204.65625 679.8125 C 203.05625 679.8125 201.45925 680.40825 200.53125 681.65625 C 199.44325 680.40825 197.85 679.75 196.25 679.75 z M 172.53125 680.21875 L 172.53125 690.96875 C 172.53125 694.39275 175.149 696.375 178.125 696.375 C 179.341 696.375 180.56525 696.04775 181.78125 695.34375 L 181.78125 695.875 L 185.125 695.875 L 185.125 680.21875 L 181.71875 680.21875 L 181.71875 690.59375 C 181.71875 692.41775 180.43775 692.9985 179.09375 693.0625 C 177.26975 693.0625 175.9375 692.64175 175.9375 690.59375 L 175.9375 680.21875 L 172.53125 680.21875 z M 147.65625 685.15625 C 146.40825 685.15625 145.454 685.72225 144.75 686.90625 C 144.142 687.96225 143.8125 689.21625 143.8125 690.65625 C 143.8125 692.09625 144.142 693.319 144.75 694.375 C 145.454 695.527 146.40825 696.125 147.65625 696.125 C 148.90425 696.125 149.8585 695.52775 150.5625 694.34375 C 151.1705 693.28775 151.5 692.09625 151.5 690.65625 C 151.5 689.21625 151.1705 687.931 150.5625 686.875 C 149.8585 685.723 148.90425 685.15625 147.65625 685.15625 z M 229.71875 685.15625 C 228.47075 685.15625 227.5165 685.72225 226.8125 686.90625 C 226.2045 687.96225 225.875 689.21625 225.875 690.65625 C 225.875 692.09625 226.2045 693.319 226.8125 694.375 C 227.5165 695.527 228.47075 696.125 229.71875 696.125 C 230.96675 696.125 231.921 695.52775 232.625 694.34375 C 233.233 693.28775 233.5625 692.09625 233.5625 690.65625 C 233.5625 689.21625 233.233 687.931 232.625 686.875 C 231.921 685.723 230.96675 685.15625 229.71875 685.15625 z M 147.65625 687.375 C 148.26425 687.375 148.74325 687.764 149.03125 688.5 C 149.19125 689.012 149.28125 689.72825 149.28125 690.65625 C 149.28125 691.58425 149.192 692.2685 149 692.8125 C 148.712 693.5165 148.26425 693.875 147.65625 693.875 C 147.01625 693.875 146.56925 693.51725 146.28125 692.78125 C 146.12125 692.26925 146.03125 691.58425 146.03125 690.65625 C 146.03125 688.83225 146.40825 687.375 147.65625 687.375 z M 229.71875 687.375 C 230.32675 687.375 230.80575 687.764 231.09375 688.5 C 231.25375 689.012 231.34375 689.72825 231.34375 690.65625 C 231.34375 691.58425 231.2545 692.2685 231.0625 692.8125 C 230.7745 693.5165 230.32675 693.875 229.71875 693.875 C 229.07875 693.875 228.63175 693.51725 228.34375 692.78125 C 228.18375 692.26925 228.09375 691.58425 228.09375 690.65625 C 228.09375 688.83225 228.47075 687.375 229.71875 687.375 z "
       xlink:href="#text3779"
       style="font-size:32px;font-style:normal;font-variant:normal;font-weight:normal;font-stretch:normal;text-align:center;line-height:125%;letter-spacing:0px;word-spacing:0px;writing-mode:lr-tb;text-anchor:middle;fill:#ffffff;fill-opacity:1;stroke:none;font-family:Roadgeek 2005 Series D;-inkscape-font-specification:Roadgeek 2005 Series D"
       id="path3052"
       inkscape:href="#text3779"
       d="m 178.71875,671.875 c -2.91463,0 -5.52179,1.12623 -7.1875,3.25 a 2.1513706,2.1513706 0 0 0 -0.0625,0.0625 c -1.80785,2.57117 -2.71875,6.12453 -2.71875,10 0,2.89836 0.60254,5.88398 1.71875,8.15625 1.52644,3.12921 4.50422,5.0625 8.09375,5.0625 2.70531,0 5.23468,-1.11035 6.84375,-3.21875 l 0.0312,0 c 0.0136,-0.0179 0.0178,-0.0444 0.0312,-0.0625 2.00765,-2.55806 2.78125,-6.21676 2.78125,-9.9375 0,-2.9769 -0.55899,-5.93791 -1.65625,-8.25 a 2.1513706,2.1513706 0 0 0 -0.0312,-0.0312 c -1.59047,-3.1052 -4.48064,-5.03125 -7.84375,-5.03125 z m 9.53125,13.3125 c 0,2.89836 0.60254,5.88398 1.71875,8.15625 1.52644,3.12921 4.50422,5.0625 8.09375,5.0625 2.70531,0 5.23468,-1.11035 6.84375,-3.21875 l 0.0312,0 c 0.0136,-0.0179 0.0178,-0.0444 0.0312,-0.0625 2.00765,-2.55806 2.78125,-6.21676 2.78125,-9.9375 0,-2.9769 -0.55899,-5.93791 -1.65625,-8.25 a 2.1513706,2.1513706 0 0 0 -0.0312,-0.0312 c -1.59047,-3.1052 -4.48064,-5.03125 -7.84375,-5.03125 -2.91463,0 -5.52179,1.12623 -7.1875,3.25 a 2.1513706,2.1513706 0 0 0 -0.0625,0.0625 c -1.80785,2.57117 -2.71875,6.12453 -2.71875,10 z M 163.53125,672.25 a 2.1513706,2.1513706 0 0 0 -1.78125,0.9375 c -0.14989,0.21651 -0.61059,0.40625 -0.6875,0.40625 l -0.21875,0 A 2.1513706,2.1513706 0 0 0 158.6875,675.75 l 0,2.75 a 2.1513706,2.1513706 0 0 0 1.9375,2.15625 l 0,15.21875 a 2.1513706,2.1513706 0 0 0 2.15625,2.15625 l 3.46875,0 a 2.1513706,2.1513706 0 0 0 2.15625,-2.15625 l 0,-21.46875 A 2.1513706,2.1513706 0 0 0 166.25,672.25 l -2.71875,0 z m 14.90625,7.40625 0.0312,0 c 0.83239,0.0624 0.75606,-0.006 1.09375,0.5625 0.0122,0.0206 0.0178,0.009 0.0312,0.0312 0.52086,0.92176 0.96875,2.82567 0.96875,4.9375 0,1.32293 -0.42015,3.39412 -0.6875,4.0625 a 2.1513706,2.1513706 0 0 0 0,0.0312 c -0.28602,0.73369 -0.57239,1.06727 -0.71875,1.1875 -0.14636,0.12023 -0.18965,0.15625 -0.59375,0.15625 -0.81711,0 -0.69677,0.0679 -1.09375,-0.59375 a 2.1513706,2.1513706 0 0 0 0,-0.0312 c -0.43089,-0.69605 -0.96875,-2.82407 -0.96875,-4.8125 0,-1.55212 0.31007,-3.37295 0.65625,-4.1875 a 2.1513706,2.1513706 0 0 0 0.0312,-0.0625 c 0.26714,-0.69214 0.5456,-1.0088 0.6875,-1.125 0.1419,-0.1162 0.18302,-0.15625 0.5625,-0.15625 z m 19.5,0 0.0312,0 c 0.83239,0.0624 0.75606,-0.006 1.09375,0.5625 0.0122,0.0206 0.0178,0.009 0.0312,0.0312 0.52086,0.92176 0.96875,2.82567 0.96875,4.9375 0,1.32293 -0.42015,3.39412 -0.6875,4.0625 a 2.1513706,2.1513706 0 0 0 0,0.0312 c -0.28602,0.73369 -0.57239,1.06727 -0.71875,1.1875 -0.14636,0.12023 -0.18965,0.15625 -0.59375,0.15625 -0.81711,0 -0.69677,0.0679 -1.09375,-0.59375 a 2.1513706,2.1513706 0 0 0 0,-0.0312 C 196.53786,689.30395 196,687.17593 196,685.1875 c 0,-1.55212 0.31007,-3.37295 0.65625,-4.1875 a 2.1513706,2.1513706 0 0 0 0.0312,-0.0625 c 0.26714,-0.69214 0.5456,-1.0088 0.6875,-1.125 0.1419,-0.1162 0.18302,-0.15625 0.5625,-0.15625 z" />
    <text
       sodipodi:linespacing="125%"
       id="text3779"
       y="695.86115"
       x="183.2153"
       style="font-size:32px;font-style:normal;font-variant:normal;font-weight:normal;font-stretch:normal;text-align:center;line-height:125%;letter-spacing:0px;word-spacing:0px;writing-mode:lr;text-anchor:middle;fill:#000000;fill-opacity:1;stroke:none;font-family:Roadgeek 2005 Series D;-inkscape-font-specification:Roadgeek 2005 Series D"
       xml:space="preserve"><tspan
         sodipodi:role="line"
         id="tspan3089">%num%</tspan></text>
  </g>
</svg>
