<?xml version="1.0" encoding="UTF-8" standalone="no"?>
<!-- Generator: Adobe Illustrator 12.0.0, SVG Export Plug-In . SVG Version: 6.00 Build 51448)  -->

<svg
   xmlns:dc="http://purl.org/dc/elements/1.1/"
   xmlns:cc="http://creativecommons.org/ns#"
   xmlns:rdf="http://www.w3.org/1999/02/22-rdf-syntax-ns#"
   xmlns:svg="http://www.w3.org/2000/svg"
   xmlns="http://www.w3.org/2000/svg"
   xmlns:sodipodi="http://sodipodi.sourceforge.net/DTD/sodipodi-0.dtd"
   xmlns:inkscape="http://www.inkscape.org/namespaces/inkscape"
   version="1.1"
   id="Layer_1"
   width="48"
   height="48"
   viewBox="0 0 47.999999 47.999999"
   overflow="visible"
   enable-background="new 0 0 600 600"
   xml:space="preserve"
   sodipodi:version="0.32"
   inkscape:version="0.48.1 r9760"
   sodipodi:docname="US:OH_2.svg"
   inkscape:output_extension="org.inkscape.output.svg.inkscape"
   style="overflow:visible"><metadata
   id="metadata2242"><rdf:RDF><cc:Work
       rdf:about=""><dc:format>image/svg+xml</dc:format><dc:type
         rdf:resource="http://purl.org/dc/dcmitype/StillImage" /><dc:title /></cc:Work></rdf:RDF></metadata><defs
   id="defs2240"><inkscape:perspective
     sodipodi:type="inkscape:persp3d"
     inkscape:vp_x="0 : 300 : 1"
     inkscape:vp_y="0 : 1000 : 0"
     inkscape:vp_z="600 : 300 : 1"
     inkscape:persp3d-origin="300 : 200 : 1"
     id="perspective15" /><inkscape:perspective
     id="perspective3050"
     inkscape:persp3d-origin="0.5 : 0.33333333 : 1"
     inkscape:vp_z="1 : 0.5 : 1"
     inkscape:vp_y="0 : 1000 : 0"
     inkscape:vp_x="0 : 0.5 : 1"
     sodipodi:type="inkscape:persp3d" /><inkscape:perspective
     id="perspective3298"
     inkscape:persp3d-origin="0.5 : 0.33333333 : 1"
     inkscape:vp_z="1 : 0.5 : 1"
     inkscape:vp_y="0 : 1000 : 0"
     inkscape:vp_x="0 : 0.5 : 1"
     sodipodi:type="inkscape:persp3d" /><inkscape:perspective
     id="perspective2974"
     inkscape:persp3d-origin="0.5 : 0.33333333 : 1"
     inkscape:vp_z="1 : 0.5 : 1"
     inkscape:vp_y="0 : 1000 : 0"
     inkscape:vp_x="0 : 0.5 : 1"
     sodipodi:type="inkscape:persp3d" /><inkscape:perspective
     id="perspective3109"
     inkscape:persp3d-origin="0.5 : 0.33333333 : 1"
     inkscape:vp_z="1 : 0.5 : 1"
     inkscape:vp_y="0 : 1000 : 0"
     inkscape:vp_x="0 : 0.5 : 1"
     sodipodi:type="inkscape:persp3d" /><inkscape:perspective
     id="perspective3148"
     inkscape:persp3d-origin="0.5 : 0.33333333 : 1"
     inkscape:vp_z="1 : 0.5 : 1"
     inkscape:vp_y="0 : 1000 : 0"
     inkscape:vp_x="0 : 0.5 : 1"
     sodipodi:type="inkscape:persp3d" /><inkscape:perspective
     id="perspective3215"
     inkscape:persp3d-origin="0.5 : 0.33333333 : 1"
     inkscape:vp_z="1 : 0.5 : 1"
     inkscape:vp_y="0 : 1000 : 0"
     inkscape:vp_x="0 : 0.5 : 1"
     sodipodi:type="inkscape:persp3d" /></defs><sodipodi:namedview
   inkscape:window-height="996"
   inkscape:window-width="1278"
   inkscape:pageshadow="2"
   inkscape:pageopacity="0.0"
   guidetolerance="10.0"
   gridtolerance="10.0"
   objecttolerance="10.0"
   borderopacity="1.0"
   bordercolor="#666666"
   pagecolor="#ffffff"
   id="base"
   inkscape:zoom="16.895833"
   inkscape:cx="24.000227"
   inkscape:cy="24.000227"
   inkscape:window-x="1"
   inkscape:window-y="27"
   inkscape:current-layer="Layer_1"
   showgrid="true"
   inkscape:showpageshadow="false"
   showborder="true"
   inkscape:window-maximized="0"
   borderlayer="false"><inkscape:grid
     type="xygrid"
     id="grid3014"
     empspacing="5"
     visible="true"
     enabled="true"
     snapvisiblegridlinesonly="true"
     spacingx="1px"
     spacingy="1px" /></sodipodi:namedview>



<g
   id="g3000"><path
     transform="matrix(0.99592944,0,0,0.99591671,0.09743867,0.09854321)"
     d="M 45.78125,0.96875 A 1.0801545,1.0801545 0 0 0 45.59375,1 C 42.838693,1.590403 40.312338,2.8066384 38.125,2.78125 36.683612,2.7645198 34.993645,2.9627057 33.53125,3.5 32.09623,4.0272371 31.275178,4.6345682 30.34375,4.71875 29.509232,4.7941734 29.215858,4.6180285 28.75,4.34375 28.284142,4.0694715 27.600854,3.5270466 26.5625,3.5 25.960794,3.4843268 25.483691,3.6676731 25.09375,3.78125 24.703809,3.8948269 24.407053,3.9394193 24.3125,3.9375 24.215593,3.935533 24.037105,3.9093175 23.75,3.78125 23.462895,3.6531825 23.060508,3.4459887 22.5,3.375 21.563128,3.256345 20.751752,3.4611348 20.09375,3.59375 19.435748,3.7263652 18.975775,3.7720692 18.6875,3.6875 17.538628,3.3504633 16.496832,2.9288505 15.65625,2.40625 a 1.0801545,1.0801545 0 0 0 -0.5625,-0.1875 l -12.1875,0 -0.03125,0 C 2.4111783,2.2152423 1.9087295,2.374703 1.53125,2.75 1.1628601,3.1162599 0.99165903,3.6789937 1,4.1875 l -0.03125,0 0,0.0625 0,31.6875 a 1.0801545,1.0801545 0 0 0 0.625,0.96875 c 0.1616565,0.07852 0.3685449,0.303143 0.75,0.6875 0.3814551,0.384357 0.9934765,0.880457 1.875,1.03125 0.469785,0.08036 1.345583,0.905994 2.53125,1.53125 1.8633065,0.982607 3.823409,1.909131 6.0625,2.21875 1.708056,0.236189 3.200909,1.261488 4.71875,2.34375 1.517841,1.082262 3.080766,2.309164 5.09375,2.3125 0.894107,0.0015 1.624074,-0.354139 2.40625,-0.625 0.782176,-0.270861 1.574856,-0.487978 2.3125,-0.53125 1.063216,-0.06237 1.752099,-0.35992 2.15625,-0.625 0.404151,-0.26508 0.244214,-0.238507 0.375,-0.25 0.786889,-0.06916 1.343471,-0.146198 1.875,-0.375 0.531529,-0.228802 0.903783,-0.564396 1.25,-0.9375 1.436262,-1.547805 1.938768,-2.435574 4.25,-2.78125 2.593417,-0.387878 4.349869,-2.597323 5.4375,-3.6875 1.331642,-1.334756 2.024302,-2.895486 2.34375,-4.46875 0.260247,-1.281704 1.007633,-2.916014 0.53125,-4.8125 -0.122451,-0.487476 -0.17374,-0.917938 -0.15625,-1.15625 0.01749,-0.238312 0.04207,-0.216522 0,-0.1875 0.54804,-0.378087 0.826105,-0.943133 0.96875,-1.4375 0.142645,-0.494367 0.161997,-0.948912 0.1875,-1.34375 0.06326,-0.97953 -0.196806,-1.753003 -0.25,-2.25 -0.0266,-0.248499 0.0076,-0.39877 0.03125,-0.46875 0.02367,-0.06998 0.01655,-0.105294 0.1875,-0.21875 a 1.0801545,1.0801545 0 0 0 0.5,-0.90625 L 46.90625,2.0625 a 1.0801545,1.0801545 0 0 0 -1.125,-1.09375 z"
     id="path2998"
     style="fill:#000000;fill-opacity:1;stroke:#ffffff;stroke-width:0.07900322;stroke-opacity:1"
     inkscape:original="M 45.8125 2.0625 C 43.252922 2.6110122 40.684577 3.904709 38.125 3.875 C 36.788253 3.8594844 35.171798 4.0350286 33.90625 4.5 C 32.640702 4.9649717 31.713072 5.6659647 30.4375 5.78125 C 28.307734 5.9737375 27.914336 4.629776 26.53125 4.59375 C 25.839708 4.5757367 24.975374 5.04534 24.28125 5.03125 C 23.587125 5.0171606 23.056213 4.523776 22.375 4.4375 C 21.012575 4.2649486 19.592811 5.0760107 18.375 4.71875 C 17.157189 4.3614893 16.042992 3.9026557 15.09375 3.3125 L 2.875 3.3125 C 2.4033057 3.3023294 2.0333392 3.6029591 2.0625 4.1875 L 2.0625 35.9375 C 2.9194023 36.353705 3.1798437 37.352711 4.40625 37.5625 C 5.4246006 37.736699 6.3282602 38.701425 7.25 39.1875 C 9.0853399 40.155359 10.944017 41.032522 12.96875 41.3125 C 17.025007 41.873398 19.547818 45.9324 22.625 45.9375 C 23.722785 45.939289 25.437205 44.889427 27.28125 44.78125 C 29.149835 44.671629 28.943257 44.01114 29.78125 43.9375 C 31.284572 43.805369 31.575211 43.631016 32.21875 42.9375 C 33.614201 41.433676 34.495776 40.232312 37.09375 39.84375 C 39.106361 39.542739 40.797312 37.611607 41.9375 36.46875 C 43.103084 35.30044 43.678508 33.960678 43.96875 32.53125 C 44.258993 31.101819 44.866268 29.645617 44.5 28.1875 C 44.223313 27.086009 44.193845 26.123993 44.78125 25.71875 C 45.370936 25.311932 45.4507 24.513261 45.5 23.75 C 45.590195 22.35341 44.588574 20.863986 45.9375 19.96875 L 45.8125 2.0625 z "
     inkscape:radius="1.0800465"
     sodipodi:type="inkscape:offset" /><path
     inkscape:connector-curvature="0"
     sodipodi:nodetypes="ccsssssssccsssssssssssssccc"
     id="rect1914-2"
     d="m 2.8781637,3.3179946 12.2108593,0 c 0.949242,0.5901557 2.063757,1.0518175 3.281568,1.4090782 1.217811,0.3572607 2.63336,-0.4645534 3.995785,-0.292002 0.681213,0.086276 1.231092,0.5846798 1.925217,0.5987692 0.694124,0.01409 1.532496,-0.4561367 2.224038,-0.4381234 1.383086,0.036026 1.80109,1.3708614 3.930856,1.1783739 1.275572,-0.1152853 2.200552,-0.814591 3.4661,-1.2795627 1.265548,-0.4649714 2.875885,-0.6326362 4.212632,-0.6171206 2.559577,0.029709 5.119154,-1.2664026 7.678732,-1.8149148 l 0.133562,17.9037456 c -1.348926,0.895236 -0.337767,2.399964 -0.427962,3.796554 -0.0493,0.763261 -0.153821,1.552766 -0.743507,1.959584 -0.587405,0.405243 -0.531222,1.365439 -0.254535,2.46693 0.366268,1.458117 -0.239747,2.921538 -0.52999,4.350969 -0.290242,1.429428 -0.880368,2.775409 -2.045952,3.943719 -1.140188,1.142857 -2.84308,3.070647 -4.855691,3.371658 -2.597974,0.388562 -3.465365,1.568237 -4.860816,3.072061 -0.643539,0.693516 -0.943403,0.889854 -2.446725,1.021985 -0.837993,0.07364 -0.621309,0.71403 -2.489894,0.823651 -1.844045,0.108177 -3.554891,1.165937 -4.652676,1.164148 -3.077182,-0.0051 -5.602184,-4.055765 -9.658441,-4.616663 C 10.946591,41.040856 9.0726382,40.153042 7.2372983,39.185183 6.3155585,38.699108 5.4315406,37.73539 4.41319,37.561191 3.1867837,37.351402 2.9210087,36.364756 2.0641064,35.948551 l 0,-31.7690009 C 2.0349456,3.5950092 2.4064694,3.307824 2.8781637,3.3179946 z"
     style="fill:#ffffff;fill-opacity:1;stroke:#ffffff;stroke-width:0.07900322;stroke-opacity:1" /></g><text
   xml:space="preserve"
   style="font-size:31.99999933px;font-style:normal;font-variant:normal;font-weight:normal;font-stretch:normal;text-align:center;line-height:125%;writing-mode:lr;text-anchor:middle;fill:#000000;fill-opacity:1;stroke:none;font-family:Roadgeek 2005 Series D;-inkscape-font-specification:Roadgeek 2005 Series D"
   x="24"
   y="34"
   id="routenum"
   sodipodi:linespacing="125%"><tspan
     sodipodi:role="line"
     id="tspan3043">%num%</tspan></text>








</svg>