<?xml version="1.0" encoding="UTF-8" standalone="no"?>
<!-- Created with Inkscape (http://www.inkscape.org/) -->

<svg
   xmlns:dc="http://purl.org/dc/elements/1.1/"
   xmlns:cc="http://creativecommons.org/ns#"
   xmlns:rdf="http://www.w3.org/1999/02/22-rdf-syntax-ns#"
   xmlns:svg="http://www.w3.org/2000/svg"
   xmlns="http://www.w3.org/2000/svg"
   xmlns:xlink="http://www.w3.org/1999/xlink"
   xmlns:sodipodi="http://sodipodi.sourceforge.net/DTD/sodipodi-0.dtd"
   xmlns:inkscape="http://www.inkscape.org/namespaces/inkscape"
   width="60"
   height="48"
   id="svg16935"
   sodipodi:version="0.32"
   inkscape:version="0.48.1 r9760"
   version="1.0"
   sodipodi:docname="US:OK_suf_2.5.svg">
  <defs
     id="defs16937" />
  <sodipodi:namedview
     id="base"
     pagecolor="#ffffff"
     bordercolor="#666666"
     borderopacity="1.0"
     gridtolerance="10000"
     guidetolerance="10"
     objecttolerance="10"
     inkscape:pageopacity="0.0"
     inkscape:pageshadow="2"
     inkscape:zoom="16.895833"
     inkscape:cx="30"
     inkscape:cy="24"
     inkscape:document-units="px"
     inkscape:current-layer="layer1"
     inkscape:window-width="1278"
     inkscape:window-height="996"
     inkscape:window-x="1"
     inkscape:window-y="27"
     showgrid="true"
     inkscape:showpageshadow="false"
     inkscape:window-maximized="0">
    <inkscape:grid
       type="xygrid"
       id="grid3007"
       empspacing="5"
       visible="true"
       enabled="true"
       snapvisiblegridlinesonly="true" />
  </sodipodi:namedview>
  <metadata
     id="metadata16940">
    <rdf:RDF>
      <cc:Work
         rdf:about="">
        <dc:format>image/svg+xml</dc:format>
        <dc:type
           rdf:resource="http://purl.org/dc/dcmitype/StillImage" />
        <dc:title></dc:title>
      </cc:Work>
    </rdf:RDF>
  </metadata>
  <g
     inkscape:label="Layer 1"
     inkscape:groupmode="layer"
     id="layer1"
     transform="translate(-153.2153,-656.86115)">
    <g
       id="g3076">
      <g
         id="g3066">
        <g
           id="g9160"
           transform="matrix(0.15425622,0,0,0.12234106,153.52115,657.31062)">
          <g
             id="g9162">
            <path
               id="path9164"
               d="m 4.5,24.5 c 0,-11.045898 8.954102,-20 19.999756,-20 l 335.998044,0 c 11.0459,0 20,8.954102 20,20 l 0,335.99756 c 0,11.04639 -8.9541,20.00049 -20,20.00049 l -335.998044,0 C 13.454102,380.49805 4.5,371.54395 4.5,360.49756 L 4.5,24.5 l 0,0 z"
               inkscape:connector-curvature="0" />
            <path
               id="path9166"
               d=""
               inkscape:connector-curvature="0" />
          </g>
        </g>
        <g
           id="g9168"
           transform="matrix(0.15384703,0,0,0.12087977,153.59993,657.59191)">
          <g
             id="g9170">
            <path
               style="fill:#ffffff"
               id="path9172"
               d="m 10.499878,24.5 c 0,-7.731934 6.267944,-14 13.999878,-14 l 335.998294,0 c 7.73193,0 13.99975,6.268066 13.99975,14 l 0,335.99805 c 0,7.73193 -6.26782,14 -13.99975,14 l -335.998294,0 c -7.731934,0 -13.999878,-6.26807 -13.999878,-14 l 0,-335.99805 0,0 z"
               inkscape:connector-curvature="0" />
            <path
               style="fill:#ffffff"
               id="path9174"
               d=""
               inkscape:connector-curvature="0" />
          </g>
        </g>
      </g>
      <g
         transform="matrix(0.16074877,0,0,0.12284023,152.39999,657.18109)"
         id="g9176">
        <polygon
           style="fill:none;stroke:#000000;stroke-width:8;stroke-miterlimit:3.863693"
           id="polygon9178"
           points="27.699829,77.299805 27.699829,50.099609 338.09814,50.099609 338.09814,70.899902 355.698,133.29932 355.698,219.69873 328.49805,210.09912 310.89819,214.89893 301.29834,221.29883 278.89844,210.09912 264.49854,218.09912 248.49854,208.49902 238.89868,211.69873 230.89868,206.89893 221.29871,211.69873 192.4989,198.89893 192.4989,198.89893 187.69885,189.29883 182.89905,192.49902 171.69897,189.29883 168.49902,186.09912 163.6991,190.89893 147.69922,181.29883 146.09924,174.89893 146.09924,77.299805 "
           stroke-miterlimit="3.863693"
           clip-rule="evenodd" />
      </g>
    </g>
    <path
       sodipodi:type="inkscape:offset"
       inkscape:radius="2.1511555"
       inkscape:original="M 123 674.0625 C 121.752 674.0625 120.79625 674.72075 120.15625 675.96875 C 119.54825 677.08875 119.28125 678.70125 119.28125 680.78125 C 119.28125 682.86125 119.549 684.4425 120.125 685.5625 C 120.765 686.8105 121.72075 687.40625 122.96875 687.40625 C 124.15275 687.40625 125.10925 686.77925 125.78125 685.53125 C 126.38925 684.34725 126.65625 682.73475 126.65625 680.71875 C 126.65625 676.27075 125.464 674.0625 123 674.0625 z M 181.875 674.0625 C 180.627 674.0625 179.67125 674.72075 179.03125 675.96875 C 178.42325 677.08875 178.15625 678.70125 178.15625 680.78125 C 178.15625 682.86125 178.424 684.4425 179 685.5625 C 179.64 686.8105 180.59575 687.40625 181.84375 687.40625 C 183.02775 687.40625 183.98425 686.77925 184.65625 685.53125 C 185.26425 684.34725 185.53125 682.73475 185.53125 680.71875 C 185.53125 676.27075 184.339 674.0625 181.875 674.0625 z M 132.09375 674.40625 L 122.9375 695.875 L 125.09375 695.875 L 134.3125 674.40625 L 132.09375 674.40625 z M 190.96875 674.40625 L 181.8125 695.875 L 183.96875 695.875 L 193.1875 674.40625 L 190.96875 674.40625 z M 123 676.46875 C 124.12 676.46875 124.65625 677.90125 124.65625 680.78125 C 124.65625 683.62925 124.12 685.0625 123 685.0625 C 121.88 685.0625 121.3125 683.63075 121.3125 680.71875 C 121.3125 677.87075 121.88 676.46875 123 676.46875 z M 181.875 676.46875 C 182.995 676.46875 183.53125 677.90125 183.53125 680.78125 C 183.53125 683.62925 182.995 685.0625 181.875 685.0625 C 180.755 685.0625 180.1875 683.63075 180.1875 680.71875 C 180.1875 677.87075 180.755 676.46875 181.875 676.46875 z M 145.71875 679.8125 C 145.20675 679.8125 144.32525 679.947 143.78125 680.875 L 143.78125 680.21875 L 141.0625 680.21875 L 141.0625 695.875 L 143.78125 695.875 L 143.78125 685.09375 C 143.78125 683.87775 143.85175 682.625 144.84375 682.625 C 145.80375 682.625 145.96875 683.49375 145.96875 685.09375 L 145.96875 695.875 L 148.6875 695.875 L 148.6875 687.90625 C 148.6875 682.33826 148.141 680.06775 146.125 679.84375 C 146.125 679.84375 145.97475 679.8125 145.71875 679.8125 z M 167.28125 679.84375 C 166.60925 679.84375 165.81925 680.19925 165.53125 681.03125 L 165.53125 680.21875 L 162.8125 680.21875 L 162.8125 695.875 L 165.53125 695.875 L 165.53125 684.78125 C 165.53125 683.05325 165.76025 682.71875 166.65625 682.71875 C 167.55225 682.71875 167.71875 683.435 167.71875 684.875 C 167.68903 684.89262 167.6875 685.22085 167.6875 687.375 C 167.6875 689.007 167.68675 691.651 167.71875 695.875 L 170.5 695.875 L 170.5 684.875 C 170.5 682.827 170.793 682.625 171.625 682.625 C 172.457 682.625 172.625 683.435 172.625 684.875 L 172.625 695.875 L 175.40625 695.875 L 175.40625 684.78125 C 175.40625 682.47725 174.93875 679.84375 172.21875 679.84375 C 171.22675 679.84375 170.323 680.22375 169.875 681.34375 C 169.363 680.22375 169.00925 679.84375 167.28125 679.84375 z M 151.71875 680.21875 L 151.71875 688.1875 C 151.71875 693.75549 152.23175 696.026 154.34375 696.25 C 154.34375 696.25 154.49325 696.3125 154.78125 696.3125 C 155.26125 696.3125 156.081 696.1155 156.625 695.1875 L 156.625 695.875 L 159.3125 695.875 L 159.3125 680.21875 L 156.625 680.21875 L 156.625 690.96875 C 156.625 692.18475 156.6185 693.46875 155.5625 693.46875 C 154.5705 693.46875 154.4375 692.56875 154.4375 690.96875 L 154.4375 680.21875 L 151.71875 680.21875 z M 134.40625 682.875 C 133.15825 682.875 132.20175 683.502 131.59375 684.75 C 130.98575 685.87 130.6875 687.51375 130.6875 689.59375 C 130.6875 691.67375 130.9865 693.22375 131.5625 694.34375 C 132.2025 695.59175 133.12775 696.21875 134.34375 696.21875 C 135.59175 696.21875 136.51625 695.5605 137.15625 694.3125 C 137.76425 693.1285 138.09375 691.54725 138.09375 689.53125 C 138.09375 685.08325 136.87025 682.875 134.40625 682.875 z M 193.28125 682.875 C 192.03325 682.875 191.07675 683.502 190.46875 684.75 C 189.86075 685.87 189.5625 687.51375 189.5625 689.59375 C 189.5625 691.67375 189.8615 693.22375 190.4375 694.34375 C 191.0775 695.59175 192.00275 696.21875 193.21875 696.21875 C 194.46675 696.21875 195.39125 695.5605 196.03125 694.3125 C 196.63925 693.1285 196.96875 691.54725 196.96875 689.53125 C 196.96875 685.08325 195.74525 682.875 193.28125 682.875 z M 134.375 685.28125 C 135.495 685.28125 136.03125 686.71375 136.03125 689.59375 C 136.03125 692.44175 135.49425 693.875 134.40625 693.875 C 133.31825 693.875 132.78125 692.44325 132.78125 689.53125 C 132.78125 686.68325 133.319 685.28125 134.375 685.28125 z M 193.25 685.28125 C 194.37 685.28125 194.90625 686.71375 194.90625 689.59375 C 194.90625 692.44175 194.36925 693.875 193.28125 693.875 C 192.19325 693.875 191.65625 692.44325 191.65625 689.53125 C 191.65625 686.68325 192.194 685.28125 193.25 685.28125 z "
       xlink:href="#text3779"
       style="font-size:32px;font-style:normal;font-variant:normal;font-weight:normal;font-stretch:normal;text-align:center;line-height:125%;letter-spacing:0px;word-spacing:0px;writing-mode:lr-tb;text-anchor:middle;fill:#ffffff;fill-opacity:1;stroke:none;font-family:Roadgeek 2005 Series D;-inkscape-font-specification:Roadgeek 2005 Series D"
       id="path3052"
       inkscape:href="#text3779"
       d="m 172.5,671.875 c -1.55395,0 -3.06746,0.3698 -4.3125,1.25 -1.24504,0.8802 -2.12296,2.15159 -2.78125,3.65625 -1.04233,2.38247 -1.40625,4.93729 -1.40625,8.3125 0,3.43643 0.3863,5.90834 1.40625,8.3125 l -0.0312,0 c 0.62338,1.49234 1.47676,2.78007 2.71875,3.6875 1.24199,0.90743 2.80148,1.3125 4.40625,1.3125 1.54643,0 3.05562,-0.41329 4.28125,-1.3125 1.21461,-0.89112 2.09059,-2.16658 2.71875,-3.65625 0.006,-0.0135 0.0256,-0.0177 0.0312,-0.0312 l -0.0312,0 c 0.69363,-1.59412 1.03896,-3.38332 1.21875,-5.34375 0.18313,1.94902 0.50178,3.72741 1.1875,5.34375 l -0.0312,0 c 0.62338,1.49234 1.47676,2.78007 2.71875,3.6875 1.24199,0.90743 2.80148,1.3125 4.40625,1.3125 1.54643,0 3.05562,-0.41329 4.28125,-1.3125 1.21461,-0.89112 2.09059,-2.16658 2.71875,-3.65625 0.006,-0.0135 0.0256,-0.0177 0.0312,-0.0312 l -0.0312,0 c 1.02984,-2.36682 1.40625,-4.88917 1.40625,-8.3125 0,-3.36225 -0.39797,-5.79887 -1.40625,-8.1875 -0.004,-0.009 0.004,-0.0224 0,-0.0312 -0.62169,-1.53067 -1.45713,-2.82529 -2.6875,-3.71875 -1.24127,-0.90138 -2.77101,-1.28125 -4.3125,-1.28125 -1.55395,0 -3.06746,0.3698 -4.3125,1.25 -1.24504,0.8802 -2.12296,2.15159 -2.78125,3.65625 -0.70459,1.6105 -1.03912,3.41061 -1.21875,5.375 -0.18309,-1.90728 -0.512,-3.64972 -1.1875,-5.25 -0.004,-0.009 0.004,-0.0224 0,-0.0312 -0.62169,-1.53067 -1.45713,-2.82529 -2.6875,-3.71875 -1.24127,-0.90138 -2.77101,-1.28125 -4.3125,-1.28125 z m -12.75,0.375 a 2.1513706,2.1513706 0 0 0 -1.9375,1.1875 c -0.18652,0.37304 -0.003,0.31265 -0.59375,0.34375 a 2.1513706,2.1513706 0 0 0 -2.03125,2.15625 l 0,2.3125 a 2.1513706,2.1513706 0 0 0 1.34375,2 l 0,15.625 a 2.1513706,2.1513706 0 0 0 2.15625,2.15625 l 3.125,0 a 2.1513706,2.1513706 0 0 0 2.15625,-2.15625 l 0,-21.46875 A 2.1513706,2.1513706 0 0 0 161.8125,672.25 l -2.0625,0 z m 12.75,6.9375 c 0.17462,0 -0.0254,-0.0587 0.0312,0 0.0566,0.0587 0.31378,0.4015 0.53125,1.15625 0.41233,1.44314 0.59375,2.49311 0.59375,4.75 0,2.36186 -0.12771,3.30212 -0.59375,4.875 -0.21496,0.72076 -0.44233,1.06627 -0.5,1.125 -0.0577,0.0587 0.11128,0 -0.0625,0 -0.2543,0 -0.13563,0.0197 -0.1875,-0.0312 -0.0488,-0.0479 -0.24991,-0.38406 -0.4375,-1 -0.42073,-1.62281 -0.59375,-2.66685 -0.59375,-4.875 0,-2.3138 0.12624,-3.45319 0.5625,-4.84375 a 2.1513706,2.1513706 0 0 0 0,-0.0625 c 0.19719,-0.7025 0.41688,-1.01152 0.46875,-1.0625 0.0519,-0.051 -0.0668,-0.0312 0.1875,-0.0312 z m 16.5,0 c 0.17462,0 -0.0254,-0.0587 0.0312,0 0.0566,0.0587 0.31378,0.4015 0.53125,1.15625 0.41233,1.44314 0.59375,2.49311 0.59375,4.75 0,2.36186 -0.12771,3.30212 -0.59375,4.875 -0.21496,0.72076 -0.44233,1.06627 -0.5,1.125 -0.0577,0.0587 0.11128,0 -0.0625,0 -0.2543,0 -0.13563,0.0197 -0.1875,-0.0312 -0.0488,-0.0479 -0.24991,-0.38406 -0.4375,-1 -0.42073,-1.62281 -0.59375,-2.66685 -0.59375,-4.875 0,-2.3138 0.12624,-3.45319 0.5625,-4.84375 a 2.1513706,2.1513706 0 0 0 0,-0.0625 c 0.19719,-0.7025 0.41688,-1.01152 0.46875,-1.0625 0.0519,-0.051 -0.0668,-0.0312 0.1875,-0.0312 z" />
    <text
       sodipodi:linespacing="125%"
       id="text3779"
       y="695.86115"
       x="198.2153"
       style="font-size:32px;font-style:normal;font-variant:normal;font-weight:normal;font-stretch:normal;text-align:end;line-height:125%;letter-spacing:0px;word-spacing:0px;writing-mode:lr;text-anchor:end;fill:#000000;fill-opacity:1;stroke:none;font-family:Roadgeek 2005 Series B;-inkscape-font-specification:Roadgeek 2005 Series B"
       xml:space="preserve"><tspan
         sodipodi:role="line"
         id="tspan3453">%num%</tspan></text>
    <path
       sodipodi:type="inkscape:offset"
       inkscape:radius="1.9540408"
       inkscape:original="M 228.90625 677.21875 C 227.68625 677.21875 227.28125 678.395 227.28125 679.375 L 227.28125 681.09375 L 226.1875 681.09375 L 226.1875 682.875 L 227.28125 682.875 L 227.28125 690.875 L 229.15625 690.875 L 229.15625 682.875 L 230.34375 682.875 L 230.34375 681.09375 L 229.15625 681.09375 L 229.15625 679.65625 C 229.15625 679.13625 229.45 679.03125 229.75 679.03125 C 229.95 679.03125 230.14125 679.07375 230.28125 679.09375 L 230.28125 677.375 C 229.78125 677.235 229.46625 677.21875 228.90625 677.21875 z M 200.9375 677.3125 C 200.1175 677.3125 199.58125 677.75625 199.28125 678.65625 C 199.10125 679.13625 199 679.81875 199 680.71875 C 199 681.61875 199.10125 682.30125 199.28125 682.78125 C 199.58125 683.70125 200.1175 684.15625 200.9375 684.15625 C 201.7575 684.15625 202.305 683.69 202.625 682.75 C 202.805 682.27 202.90625 681.59875 202.90625 680.71875 C 202.90625 679.85875 202.805 679.19625 202.625 678.65625 C 202.325 677.75625 201.7575 677.3125 200.9375 677.3125 z M 206.90625 677.3125 L 199 691.03125 L 200.28125 691.03125 L 208.1875 677.3125 L 206.90625 677.3125 z M 233.3125 677.3125 C 232.4925 677.3125 231.95625 677.75625 231.65625 678.65625 C 231.47625 679.13625 231.40625 679.81875 231.40625 680.71875 C 231.40625 681.61875 231.47625 682.30125 231.65625 682.78125 C 231.95625 683.70125 232.4925 684.15625 233.3125 684.15625 C 234.1325 684.15625 234.71125 683.69 235.03125 682.75 C 235.21125 682.27 235.28125 681.59875 235.28125 680.71875 C 235.28125 679.85875 235.18 679.19625 235 678.65625 C 234.7 677.75625 234.1325 677.3125 233.3125 677.3125 z M 239.3125 677.3125 L 231.40625 691.03125 L 232.65625 691.03125 L 240.5625 677.3125 L 239.3125 677.3125 z M 200.9375 678.65625 C 201.2775 678.65625 201.51625 678.94 201.65625 679.5 C 201.73625 679.84 201.78125 680.25875 201.78125 680.71875 C 201.78125 681.99875 201.4375 682.8125 200.9375 682.8125 C 200.5975 682.8125 200.37 682.5175 200.25 681.9375 C 200.17 681.6375 200.125 681.23875 200.125 680.71875 C 200.125 679.35875 200.4375 678.65625 200.9375 678.65625 z M 233.3125 678.65625 C 233.6525 678.65625 233.89125 678.94 234.03125 679.5 C 234.11125 679.84 234.15625 680.25875 234.15625 680.71875 C 234.15625 681.99875 233.8125 682.8125 233.3125 682.8125 C 232.9725 682.8125 232.745 682.5175 232.625 681.9375 C 232.545 681.6375 232.5 681.23875 232.5 680.71875 C 232.5 679.35875 232.8125 678.65625 233.3125 678.65625 z M 213.15625 680.84375 C 212.89625 680.84375 212.64625 680.8775 212.40625 680.9375 C 211.18625 681.2375 210.5625 682.2175 210.5625 683.4375 L 210.5625 683.65625 C 210.7025 685.17625 212.60125 685.915 213.78125 687.375 C 214.08125 687.735 214.21875 688.08625 214.21875 688.40625 C 214.21875 688.78625 214.01375 689.09875 213.59375 689.21875 C 213.49375 689.25875 213.38125 689.25 213.28125 689.25 C 212.78125 689.25 212.36 688.895 212 688.375 L 210.53125 689.5 C 211.09125 690.44 211.9075 691.03125 213.1875 691.03125 C 215.1075 691.03125 216.13875 689.7725 216.21875 688.3125 L 216.21875 688.15625 C 216.21875 685.69625 212.53125 684.515 212.53125 683.375 C 212.53125 683.235 212.57875 683.04625 212.71875 682.90625 C 212.87875 682.74625 213.03875 682.6875 213.21875 682.6875 C 213.77875 682.6875 214.40625 683.375 214.40625 683.375 L 215.75 682.3125 C 214.95 681.2725 214.01625 680.84375 213.15625 680.84375 z M 217.6875 681.09375 L 217.6875 687.8125 C 217.6875 690.0725 219.29625 691.09375 220.65625 691.09375 C 221.07625 691.09375 221.725 691.1125 222.625 690.3125 L 222.625 690.875 L 224.46875 690.875 L 224.46875 681.09375 L 222.59375 681.09375 L 222.59375 687.8125 C 222.59375 688.9525 221.93875 689.3125 221.21875 689.3125 C 220.27875 689.3125 219.5625 689.0325 219.5625 687.8125 L 219.5625 681.09375 L 217.6875 681.09375 z M 206.25 684.15625 C 205.43 684.15625 204.8625 684.6 204.5625 685.5 C 204.4025 686 204.3125 686.69375 204.3125 687.59375 C 204.3125 688.45375 204.4025 689.15625 204.5625 689.65625 C 204.8625 690.57625 205.43 691.03125 206.25 691.03125 C 207.07 691.03125 207.6175 690.565 207.9375 689.625 C 208.1175 689.145 208.1875 688.45375 208.1875 687.59375 C 208.1875 686.75375 208.08625 686.06 207.90625 685.5 C 207.60625 684.6 207.07 684.15625 206.25 684.15625 z M 238.625 684.15625 C 237.805 684.15625 237.2375 684.6 236.9375 685.5 C 236.7775 686 236.6875 686.69375 236.6875 687.59375 C 236.6875 688.45375 236.7775 689.15625 236.9375 689.65625 C 237.2375 690.57625 237.805 691.03125 238.625 691.03125 C 239.445 691.03125 239.9925 690.565 240.3125 689.625 C 240.4925 689.145 240.5625 688.45375 240.5625 687.59375 C 240.5625 686.75375 240.4925 686.06 240.3125 685.5 C 240.0125 684.6 239.445 684.15625 238.625 684.15625 z M 206.25 685.53125 C 206.59 685.53125 206.82875 685.815 206.96875 686.375 C 207.04875 686.715 207.0625 687.11375 207.0625 687.59375 C 207.0625 688.87375 206.75 689.65625 206.25 689.65625 C 205.91 689.65625 205.65125 689.3925 205.53125 688.8125 C 205.45125 688.5125 205.40625 688.09375 205.40625 687.59375 C 205.40625 686.23375 205.75 685.53125 206.25 685.53125 z M 238.625 685.53125 C 238.965 685.53125 239.20375 685.815 239.34375 686.375 C 239.42375 686.715 239.46875 687.11375 239.46875 687.59375 C 239.46875 688.87375 239.125 689.65625 238.625 689.65625 C 238.285 689.65625 238.02625 689.3925 237.90625 688.8125 C 237.82625 688.5125 237.8125 688.09375 237.8125 687.59375 C 237.8125 686.23375 238.125 685.53125 238.625 685.53125 z "
       xlink:href="#text3393"
       style="font-size:20px;font-style:normal;font-variant:normal;font-weight:normal;font-stretch:normal;text-align:start;line-height:125%;letter-spacing:0px;word-spacing:0px;writing-mode:lr-tb;text-anchor:start;fill:#ffffff;fill-opacity:1;stroke:none;font-family:Roadgeek 2005 Series D;-inkscape-font-specification:Roadgeek 2005 Series D"
       id="path3397"
       inkscape:href="#text3393"
       d="m 200.96875,675.5 a 1.9542362,1.9542362 0 0 0 -1.90625,1.5 l -3.34375,13.40625 a 1.9542362,1.9542362 0 0 0 1.90625,2.4375 l 1.9375,0 a 1.9542362,1.9542362 0 0 0 1.90625,-1.5 l 0.4375,-1.8125 0.46875,1.8125 a 1.9542362,1.9542362 0 0 0 1.90625,1.5 l 1.90625,0 a 1.9542362,1.9542362 0 0 0 1.90625,-2.4375 L 204.75,677 a 1.9542362,1.9542362 0 0 0 -1.90625,-1.5 l -1.875,0 z" />
    <text
       xml:space="preserve"
       style="font-size:20px;font-style:normal;font-variant:normal;font-weight:normal;font-stretch:normal;text-align:start;line-height:125%;letter-spacing:0px;word-spacing:0px;writing-mode:lr;text-anchor:start;fill:#000000;fill-opacity:1;stroke:none;font-family:Roadgeek 2005 Series C;-inkscape-font-specification:Roadgeek 2005 Series C"
       x="198.2153"
       y="690.86115"
       id="text3393"
       sodipodi:linespacing="125%"><tspan
         sodipodi:role="line"
         id="tspan3455">%suf%</tspan></text>
  </g>
</svg>
