<?xml version="1.0" encoding="UTF-8" standalone="no"?>
<!-- Generator: Adobe Illustrator 12.0.0, SVG Export Plug-In . SVG Version: 6.00 Build 51448)  -->

<svg
   xmlns:dc="http://purl.org/dc/elements/1.1/"
   xmlns:cc="http://creativecommons.org/ns#"
   xmlns:rdf="http://www.w3.org/1999/02/22-rdf-syntax-ns#"
   xmlns:svg="http://www.w3.org/2000/svg"
   xmlns="http://www.w3.org/2000/svg"
   xmlns:sodipodi="http://sodipodi.sourceforge.net/DTD/sodipodi-0.dtd"
   xmlns:inkscape="http://www.inkscape.org/namespaces/inkscape"
   version="1.1"
   id="Layer_1"
   width="60"
   height="48"
   viewBox="0 0 59.999999 47.999999"
   overflow="visible"
   enable-background="new 0 0 600 600"
   xml:space="preserve"
   sodipodi:version="0.32"
   inkscape:version="0.48.1 r9760"
   sodipodi:docname="US:OH_3.svg"
   inkscape:output_extension="org.inkscape.output.svg.inkscape"
   style="overflow:visible"><metadata
   id="metadata2242"><rdf:RDF><cc:Work
       rdf:about=""><dc:format>image/svg+xml</dc:format><dc:type
         rdf:resource="http://purl.org/dc/dcmitype/StillImage" /><dc:title /></cc:Work></rdf:RDF></metadata><defs
   id="defs2240"><inkscape:perspective
     sodipodi:type="inkscape:persp3d"
     inkscape:vp_x="0 : 300 : 1"
     inkscape:vp_y="0 : 1000 : 0"
     inkscape:vp_z="600 : 300 : 1"
     inkscape:persp3d-origin="300 : 200 : 1"
     id="perspective15" /><inkscape:perspective
     id="perspective3050"
     inkscape:persp3d-origin="0.5 : 0.33333333 : 1"
     inkscape:vp_z="1 : 0.5 : 1"
     inkscape:vp_y="0 : 1000 : 0"
     inkscape:vp_x="0 : 0.5 : 1"
     sodipodi:type="inkscape:persp3d" /><inkscape:perspective
     id="perspective3298"
     inkscape:persp3d-origin="0.5 : 0.33333333 : 1"
     inkscape:vp_z="1 : 0.5 : 1"
     inkscape:vp_y="0 : 1000 : 0"
     inkscape:vp_x="0 : 0.5 : 1"
     sodipodi:type="inkscape:persp3d" /><inkscape:perspective
     id="perspective2974"
     inkscape:persp3d-origin="0.5 : 0.33333333 : 1"
     inkscape:vp_z="1 : 0.5 : 1"
     inkscape:vp_y="0 : 1000 : 0"
     inkscape:vp_x="0 : 0.5 : 1"
     sodipodi:type="inkscape:persp3d" /><inkscape:perspective
     id="perspective3109"
     inkscape:persp3d-origin="0.5 : 0.33333333 : 1"
     inkscape:vp_z="1 : 0.5 : 1"
     inkscape:vp_y="0 : 1000 : 0"
     inkscape:vp_x="0 : 0.5 : 1"
     sodipodi:type="inkscape:persp3d" /><inkscape:perspective
     id="perspective3148"
     inkscape:persp3d-origin="0.5 : 0.33333333 : 1"
     inkscape:vp_z="1 : 0.5 : 1"
     inkscape:vp_y="0 : 1000 : 0"
     inkscape:vp_x="0 : 0.5 : 1"
     sodipodi:type="inkscape:persp3d" /><inkscape:perspective
     id="perspective3215"
     inkscape:persp3d-origin="0.5 : 0.33333333 : 1"
     inkscape:vp_z="1 : 0.5 : 1"
     inkscape:vp_y="0 : 1000 : 0"
     inkscape:vp_x="0 : 0.5 : 1"
     sodipodi:type="inkscape:persp3d" /></defs><sodipodi:namedview
   inkscape:window-height="996"
   inkscape:window-width="1278"
   inkscape:pageshadow="2"
   inkscape:pageopacity="0.0"
   guidetolerance="10.0"
   gridtolerance="10.0"
   objecttolerance="10.0"
   borderopacity="1.0"
   bordercolor="#666666"
   pagecolor="#ffffff"
   id="base"
   inkscape:zoom="16.895833"
   inkscape:cx="29.999999"
   inkscape:cy="24"
   inkscape:window-x="1"
   inkscape:window-y="27"
   inkscape:current-layer="Layer_1"
   showgrid="true"
   inkscape:showpageshadow="false"
   showborder="true"
   inkscape:window-maximized="0"
   borderlayer="false"><inkscape:grid
     type="xygrid"
     id="grid3014"
     empspacing="5"
     visible="true"
     enabled="true"
     snapvisiblegridlinesonly="true"
     spacingx="1px"
     spacingy="1px" /></sodipodi:namedview>



<g
   id="g3077"><path
     transform="matrix(0.99677815,0,0,0.99591627,0.09665057,0.09854404)"
     d="M 57.75,0.96875 A 1.0801547,1.0801547 0 0 0 57.59375,1 C 54.176348,1.575061 50.967332,2.8082958 48,2.78125 46.215463,2.7649854 44.090235,2.9558713 42.3125,3.46875 40.556811,3.9752681 39.508844,4.6227573 38.15625,4.71875 36.982089,4.8020792 36.438274,4.5678982 35.8125,4.28125 35.186726,3.9946018 34.403012,3.5235837 33.25,3.5 31.967585,3.4737698 30.893849,3.9452726 30.40625,3.9375 29.914701,3.9296653 29.212693,3.4956013 28,3.375 26.930525,3.2686405 25.964139,3.4597255 25.125,3.59375 24.285861,3.7277745 23.607057,3.7744948 23.09375,3.65625 21.598686,3.3118489 20.230909,2.8836457 19.125,2.34375 a 1.0801547,1.0801547 0 0 0 -0.46875,-0.125 l -15.53125,0 -0.03125,0 C 2.6171386,2.2151007 2.1223958,2.3464061 1.6875,2.6875 1.2620243,3.0212056 1.0200611,3.6179631 1.03125,4.1875 l -0.0625,0 0,31.75 a 1.0801547,1.0801547 0 0 0 0.71875,1 c 0.3124041,0.11915 0.5525609,0.374703 1.03125,0.75 0.4786891,0.375297 1.192856,0.803897 2.1875,0.9375 0.8569623,0.115108 1.9281713,0.976324 3.34375,1.5625 2.365321,0.979457 4.845974,1.889141 7.59375,2.1875 2.328642,0.252849 4.288431,1.323238 6.21875,2.40625 1.930319,1.083012 3.855586,2.246965 6.1875,2.25 0.970095,0.0012 1.90196,-0.321183 2.90625,-0.59375 1.00429,-0.272567 2.064563,-0.515091 3.09375,-0.5625 1.291454,-0.05949 2.027908,-0.314688 2.5,-0.5625 0.472092,-0.247812 0.350609,-0.291413 0.65625,-0.3125 0.98476,-0.06796 1.648497,-0.111594 2.25,-0.3125 0.601503,-0.200906 1.059647,-0.564866 1.5,-0.9375 1.825586,-1.544843 2.545014,-2.482028 5.625,-2.84375 3.024324,-0.35518 5.319963,-2.492804 6.71875,-3.59375 1.662671,-1.308642 2.552637,-2.890781 2.96875,-4.5 0.321428,-1.243034 1.324574,-2.977235 0.6875,-4.96875 -0.155896,-0.487333 -0.231431,-0.904018 -0.21875,-1.09375 0.01268,-0.189732 -0.04456,-0.06961 0,-0.09375 0.608397,-0.329583 1.039538,-0.856705 1.25,-1.375 0.210462,-0.518295 0.24643,-1.014168 0.28125,-1.4375 0.08732,-1.061676 -0.277058,-1.887374 -0.34375,-2.34375 -0.03335,-0.228188 0.0179,-0.312147 0.03125,-0.34375 0.01335,-0.0316 0.01019,-0.07749 0.28125,-0.21875 a 1.0801547,1.0801547 0 0 0 0.59375,-0.96875 L 58.875,2.0625 A 1.0801547,1.0801547 0 0 0 57.75,0.96875 z"
     id="path3075"
     style="fill:#000000;fill-opacity:1;stroke:#ffffff;stroke-width:0.08915485;stroke-opacity:1"
     inkscape:original="M 57.78125 2.0625 C 54.521619 2.6110123 51.259632 3.90471 48 3.875 C 46.297646 3.8594844 44.23668 4.0350284 42.625 4.5 C 41.013319 4.9649716 39.843193 5.6659644 38.21875 5.78125 C 35.506481 5.9737374 34.980117 4.629777 33.21875 4.59375 C 32.33807 4.5757368 31.258971 5.045341 30.375 5.03125 C 29.491029 5.0171606 28.773779 4.523775 27.90625 4.4375 C 26.171197 4.2649486 24.394637 5.0760107 22.84375 4.71875 C 21.292862 4.3614892 19.86511 3.9026557 18.65625 3.3125 L 3.09375 3.3125 C 2.4930452 3.3023294 2.0253636 3.6029592 2.0625 4.1875 L 2.0625 35.9375 C 3.1537685 36.353707 3.5006666 37.35271 5.0625 37.5625 C 6.3593737 37.736698 7.4824106 38.701426 8.65625 39.1875 C 10.993562 40.155359 13.390244 41.032521 15.96875 41.3125 C 21.13441 41.873398 24.331196 45.9324 28.25 45.9375 C 29.648034 45.93929 31.839103 44.889428 34.1875 44.78125 C 36.567153 44.67163 36.276562 44.01113 37.34375 43.9375 C 39.258238 43.80537 39.6492 43.631017 40.46875 42.9375 C 42.245863 41.433676 43.34772 40.232313 46.65625 39.84375 C 49.219316 39.542741 51.391716 37.611605 52.84375 36.46875 C 54.328126 35.300439 55.067877 33.960679 55.4375 32.53125 C 55.807127 31.101821 56.591443 29.645617 56.125 28.1875 C 55.772638 27.08601 55.689436 26.123994 56.4375 25.71875 C 57.188467 25.311933 57.34347 24.51326 57.40625 23.75 C 57.521113 22.35341 56.219637 20.863987 57.9375 19.96875 L 57.78125 2.0625 z "
     inkscape:radius="1.0800467"
     sodipodi:type="inkscape:offset" /><path
     inkscape:connector-curvature="0"
     sodipodi:nodetypes="ccsssssssccsssssssssssssccc"
     id="rect1914-2"
     d="m 3.101251,3.3179958 15.550581,0 c 1.20886,0.5901557 2.628201,1.0518175 4.179089,1.4090783 1.550887,0.3572607 3.353595,-0.4645535 5.088648,-0.2920021 0.867529,0.086275 1.567801,0.5846798 2.451772,0.5987692 0.883971,0.014091 1.95164,-0.4561365 2.83232,-0.4381233 1.761367,0.036027 2.293696,1.3708614 5.005965,1.178374 1.624443,-0.1152856 2.802409,-0.8145911 4.41409,-1.2795627 1.61168,-0.4649716 3.66245,-0.6326363 5.364804,-0.6171207 3.259632,0.02971 6.519266,-1.2664025 9.778897,-1.8149148 l 0.170092,17.9037443 c -1.717863,0.895237 -0.430147,2.399965 -0.54501,3.796555 -0.06278,0.76326 -0.195893,1.552766 -0.94686,1.959583 -0.748064,0.405244 -0.676514,1.36544 -0.324152,2.46693 0.466443,1.458117 -0.305318,2.92154 -0.674945,4.350969 -0.369623,1.429429 -1.121151,2.77541 -2.605527,3.943721 -1.452034,1.142855 -3.620677,3.070645 -6.183743,3.371654 -3.30853,0.388563 -4.413157,1.568239 -6.19027,3.072063 -0.81955,0.693517 -1.201426,0.889855 -3.115914,1.021985 -1.067188,0.07363 -0.791238,0.714031 -3.170891,0.823651 -2.348397,0.108178 -4.527167,1.165938 -5.925201,1.164148 -3.918804,-0.0051 -7.134403,-4.055765 -12.300063,-4.616663 C 13.376427,41.040855 10.989939,40.153041 8.6526268,39.185182 7.4787874,38.699108 6.352987,37.735389 5.0561133,37.561191 3.4942799,37.351401 3.1558143,36.364758 2.0645458,35.948551 l 0,-31.7689996 C 2.0274094,3.5950106 2.5005462,3.3078252 3.101251,3.3179958 z"
     style="fill:#ffffff;fill-opacity:1;stroke:#ffffff;stroke-width:0.08915485;stroke-opacity:1" /></g><text
   xml:space="preserve"
   style="font-size:31.99999947px;font-style:normal;font-variant:normal;font-weight:normal;font-stretch:normal;text-align:center;line-height:125%;writing-mode:lr;text-anchor:middle;fill:#000000;fill-opacity:1;stroke:none;font-family:Roadgeek 2005 Series C;-inkscape-font-specification:Roadgeek 2005 Series C"
   x="30"
   y="33"
   id="routenum"
   sodipodi:linespacing="125%"><tspan
     sodipodi:role="line"
     id="tspan3128">%num%</tspan></text>








</svg>