<?xml version="1.0" encoding="UTF-8" standalone="no"?>
<!-- Created with Inkscape (http://www.inkscape.org/) -->

<svg
   xmlns:dc="http://purl.org/dc/elements/1.1/"
   xmlns:cc="http://creativecommons.org/ns#"
   xmlns:rdf="http://www.w3.org/1999/02/22-rdf-syntax-ns#"
   xmlns:svg="http://www.w3.org/2000/svg"
   xmlns="http://www.w3.org/2000/svg"
   xmlns:xlink="http://www.w3.org/1999/xlink"
   xmlns:sodipodi="http://sodipodi.sourceforge.net/DTD/sodipodi-0.dtd"
   xmlns:inkscape="http://www.inkscape.org/namespaces/inkscape"
   width="60"
   height="48"
   id="svg16935"
   sodipodi:version="0.32"
   inkscape:version="0.48.1 r9760"
   version="1.0"
   sodipodi:docname="US:OK_3.svg">
  <defs
     id="defs16937" />
  <sodipodi:namedview
     id="base"
     pagecolor="#ffffff"
     bordercolor="#666666"
     borderopacity="1.0"
     gridtolerance="10000"
     guidetolerance="10"
     objecttolerance="10"
     inkscape:pageopacity="0.0"
     inkscape:pageshadow="2"
     inkscape:zoom="16.895833"
     inkscape:cx="30"
     inkscape:cy="24"
     inkscape:document-units="px"
     inkscape:current-layer="layer1"
     inkscape:window-width="1278"
     inkscape:window-height="996"
     inkscape:window-x="1"
     inkscape:window-y="27"
     showgrid="true"
     inkscape:showpageshadow="false"
     inkscape:window-maximized="0">
    <inkscape:grid
       type="xygrid"
       id="grid3007"
       empspacing="5"
       visible="true"
       enabled="true"
       snapvisiblegridlinesonly="true" />
  </sodipodi:namedview>
  <metadata
     id="metadata16940">
    <rdf:RDF>
      <cc:Work
         rdf:about="">
        <dc:format>image/svg+xml</dc:format>
        <dc:type
           rdf:resource="http://purl.org/dc/dcmitype/StillImage" />
        <dc:title></dc:title>
      </cc:Work>
    </rdf:RDF>
  </metadata>
  <g
     inkscape:label="Layer 1"
     inkscape:groupmode="layer"
     id="layer1"
     transform="translate(-153.2153,-656.86115)">
    <g
       id="g3076">
      <g
         id="g3066">
        <g
           id="g9160"
           transform="matrix(0.15425622,0,0,0.12234106,153.52115,657.31062)">
          <g
             id="g9162">
            <path
               id="path9164"
               d="m 4.5,24.5 c 0,-11.045898 8.954102,-20 19.999756,-20 l 335.998044,0 c 11.0459,0 20,8.954102 20,20 l 0,335.99756 c 0,11.04639 -8.9541,20.00049 -20,20.00049 l -335.998044,0 C 13.454102,380.49805 4.5,371.54395 4.5,360.49756 L 4.5,24.5 l 0,0 z"
               inkscape:connector-curvature="0" />
            <path
               id="path9166"
               d=""
               inkscape:connector-curvature="0" />
          </g>
        </g>
        <g
           id="g9168"
           transform="matrix(0.15384703,0,0,0.12087977,153.59993,657.59191)">
          <g
             id="g9170">
            <path
               style="fill:#ffffff"
               id="path9172"
               d="m 10.499878,24.5 c 0,-7.731934 6.267944,-14 13.999878,-14 l 335.998294,0 c 7.73193,0 13.99975,6.268066 13.99975,14 l 0,335.99805 c 0,7.73193 -6.26782,14 -13.99975,14 l -335.998294,0 c -7.731934,0 -13.999878,-6.26807 -13.999878,-14 l 0,-335.99805 0,0 z"
               inkscape:connector-curvature="0" />
            <path
               style="fill:#ffffff"
               id="path9174"
               d=""
               inkscape:connector-curvature="0" />
          </g>
        </g>
      </g>
      <g
         transform="matrix(0.16074877,0,0,0.12284023,152.39999,657.18109)"
         id="g9176">
        <polygon
           style="fill:none;stroke:#000000;stroke-width:8;stroke-miterlimit:3.863693"
           id="polygon9178"
           points="27.699829,77.299805 27.699829,50.099609 338.09814,50.099609 338.09814,70.899902 355.698,133.29932 355.698,219.69873 328.49805,210.09912 310.89819,214.89893 301.29834,221.29883 278.89844,210.09912 264.49854,218.09912 248.49854,208.49902 238.89868,211.69873 230.89868,206.89893 221.29871,211.69873 192.4989,198.89893 192.4989,198.89893 187.69885,189.29883 182.89905,192.49902 171.69897,189.29883 168.49902,186.09912 163.6991,190.89893 147.69922,181.29883 146.09924,174.89893 146.09924,77.299805 "
           stroke-miterlimit="3.863693"
           clip-rule="evenodd" />
      </g>
    </g>
    <path
       sodipodi:type="inkscape:offset"
       inkscape:radius="2.1511555"
       inkscape:original="M 143.375 674.15625 C 142.063 674.15625 141.19875 674.8725 140.71875 676.3125 C 140.43075 677.0805 140.3125 678.185 140.3125 679.625 C 140.3125 681.065 140.43075 682.1695 140.71875 682.9375 C 141.19875 684.4095 142.063 685.15625 143.375 685.15625 C 144.687 685.15625 145.58175 684.41025 146.09375 682.90625 C 146.38175 682.13825 146.53125 681.033 146.53125 679.625 C 146.53125 678.249 146.3505 677.1765 146.0625 676.3125 C 145.5825 674.8725 144.687 674.15625 143.375 674.15625 z M 152.9375 674.15625 L 140.3125 696.125 L 142.3125 696.125 L 155 674.15625 L 152.9375 674.15625 z M 212.875 674.15625 C 211.563 674.15625 210.69875 674.8725 210.21875 676.3125 C 209.93075 677.0805 209.8125 678.185 209.8125 679.625 C 209.8125 681.065 209.93075 682.1695 210.21875 682.9375 C 210.69875 684.4095 211.563 685.15625 212.875 685.15625 C 214.187 685.15625 215.08175 684.41025 215.59375 682.90625 C 215.88175 682.13825 216.03125 681.033 216.03125 679.625 C 216.03125 678.249 215.8505 677.1765 215.5625 676.3125 C 215.0825 674.8725 214.187 674.15625 212.875 674.15625 z M 222.4375 674.15625 L 209.8125 696.125 L 211.8125 696.125 L 224.5 674.15625 L 222.4375 674.15625 z M 143.375 676.34375 C 143.919 676.34375 144.30725 676.7915 144.53125 677.6875 C 144.65925 678.2315 144.71875 678.889 144.71875 679.625 C 144.71875 681.673 144.175 682.96875 143.375 682.96875 C 142.831 682.96875 142.442 682.52175 142.25 681.59375 C 142.122 681.11375 142.0625 680.457 142.0625 679.625 C 142.0625 677.449 142.575 676.34375 143.375 676.34375 z M 212.875 676.34375 C 213.419 676.34375 213.80725 676.7915 214.03125 677.6875 C 214.15925 678.2315 214.21875 678.889 214.21875 679.625 C 214.21875 681.673 213.675 682.96875 212.875 682.96875 C 212.331 682.96875 211.942 682.52175 211.75 681.59375 C 211.622 681.11375 211.5625 680.457 211.5625 679.625 C 211.5625 677.449 212.075 676.34375 212.875 676.34375 z M 194.96875 679.84375 C 194.26475 679.84375 193.2205 679.81375 191.8125 681.09375 L 191.8125 680.21875 L 188.84375 680.21875 L 188.84375 695.875 L 191.875 695.875 L 191.875 685.09375 C 191.875 683.26975 192.75425 682.721 193.90625 682.625 C 195.41025 682.625 196.3125 683.04575 196.3125 685.09375 L 196.3125 695.875 L 199.3125 695.875 L 199.3125 685.09375 C 199.3125 683.26975 200.22375 682.625 201.34375 682.625 C 202.94375 682.625 203.78125 683.04575 203.78125 685.09375 L 203.78125 695.875 L 206.84375 695.875 L 206.84375 685.09375 C 206.84375 681.47775 204.676 680.00375 202.5 679.84375 L 202 679.84375 C 200.688 679.84375 199.242 680.11875 198.25 681.71875 C 197.354 680.43875 196.31275 679.84375 194.96875 679.84375 z M 165.71875 679.875 C 164.43875 679.875 163.2925 680.267 162.8125 680.875 L 162.8125 680.21875 L 159.84375 680.21875 L 159.84375 695.875 L 162.875 695.875 L 162.875 685.1875 C 162.875 683.3955 163.91125 682.78275 165.03125 682.71875 C 166.53525 682.71875 167.6875 683.1715 167.6875 685.1875 L 167.6875 695.875 L 170.6875 695.875 L 170.6875 685.09375 C 170.6875 681.18975 167.99075 679.875 165.71875 679.875 z M 174.125 680.21875 L 174.125 690.96875 C 174.125 694.58475 176.699 696.25 178.875 696.25 C 179.547 696.25 180.59125 696.24875 182.03125 694.96875 L 182.03125 695.875 L 184.96875 695.875 L 184.96875 680.21875 L 181.96875 680.21875 L 181.96875 690.96875 C 181.96875 692.79275 180.902 693.375 179.75 693.375 C 178.246 693.375 177.125 692.92075 177.125 690.96875 L 177.125 680.21875 L 174.125 680.21875 z M 151.875 685.15625 C 150.563 685.15625 149.63625 685.84125 149.15625 687.28125 C 148.90025 688.08125 148.78125 689.21625 148.78125 690.65625 C 148.78125 692.03225 148.90025 693.10625 149.15625 693.90625 C 149.63625 695.37825 150.563 696.125 151.875 696.125 C 153.187 696.125 154.08175 695.379 154.59375 693.875 C 154.88175 693.107 155 692.03225 155 690.65625 C 155 689.31225 154.8505 688.17725 154.5625 687.28125 C 154.0825 685.84125 153.187 685.15625 151.875 685.15625 z M 221.375 685.15625 C 220.063 685.15625 219.13625 685.84125 218.65625 687.28125 C 218.40025 688.08125 218.28125 689.21625 218.28125 690.65625 C 218.28125 692.03225 218.40025 693.10625 218.65625 693.90625 C 219.13625 695.37825 220.063 696.125 221.375 696.125 C 222.687 696.125 223.58175 695.379 224.09375 693.875 C 224.38175 693.107 224.5 692.03225 224.5 690.65625 C 224.5 689.31225 224.3505 688.17725 224.0625 687.28125 C 223.5825 685.84125 222.687 685.15625 221.375 685.15625 z M 151.875 687.3125 C 152.419 687.3125 152.776 687.76025 153 688.65625 C 153.128 689.20025 153.21875 689.88825 153.21875 690.65625 C 153.21875 692.70425 152.675 693.9375 151.875 693.9375 C 151.331 693.9375 150.942 693.4905 150.75 692.5625 C 150.622 692.0825 150.5625 691.45625 150.5625 690.65625 C 150.5625 688.48025 151.075 687.3125 151.875 687.3125 z M 221.375 687.3125 C 221.919 687.3125 222.276 687.76025 222.5 688.65625 C 222.628 689.20025 222.71875 689.88825 222.71875 690.65625 C 222.71875 692.70425 222.175 693.9375 221.375 693.9375 C 220.831 693.9375 220.442 693.4905 220.25 692.5625 C 220.122 692.0825 220.0625 691.45625 220.0625 690.65625 C 220.0625 688.48025 220.575 687.3125 221.375 687.3125 z "
       xlink:href="#text3779"
       style="font-size:32px;font-style:normal;font-variant:normal;font-weight:normal;font-stretch:normal;text-align:center;line-height:125%;letter-spacing:0px;word-spacing:0px;writing-mode:lr-tb;text-anchor:middle;fill:#ffffff;fill-opacity:1;stroke:none;font-family:Roadgeek 2005 Series D;-inkscape-font-specification:Roadgeek 2005 Series D"
       id="path3052"
       inkscape:href="#text3779"
       d="m 178.71875,671.875 c -2.91463,0 -5.52179,1.12623 -7.1875,3.25 a 2.1513706,2.1513706 0 0 0 -0.0625,0.0625 c -1.80785,2.57117 -2.71875,6.12453 -2.71875,10 0,2.89836 0.60254,5.88398 1.71875,8.15625 1.52644,3.12921 4.50422,5.0625 8.09375,5.0625 2.70531,0 5.23468,-1.11035 6.84375,-3.21875 l 0.0312,0 c 0.0136,-0.0179 0.0178,-0.0444 0.0312,-0.0625 2.00765,-2.55806 2.78125,-6.21676 2.78125,-9.9375 0,-2.9769 -0.55899,-5.93791 -1.65625,-8.25 a 2.1513706,2.1513706 0 0 0 -0.0312,-0.0312 c -1.59047,-3.1052 -4.48064,-5.03125 -7.84375,-5.03125 z m 9.53125,13.3125 c 0,2.89836 0.60254,5.88398 1.71875,8.15625 1.52644,3.12921 4.50422,5.0625 8.09375,5.0625 2.70531,0 5.23468,-1.11035 6.84375,-3.21875 l 0.0312,0 c 0.0136,-0.0179 0.0178,-0.0444 0.0312,-0.0625 2.00765,-2.55806 2.78125,-6.21676 2.78125,-9.9375 0,-2.9769 -0.55899,-5.93791 -1.65625,-8.25 a 2.1513706,2.1513706 0 0 0 -0.0312,-0.0312 c -1.59047,-3.1052 -4.48064,-5.03125 -7.84375,-5.03125 -2.91463,0 -5.52179,1.12623 -7.1875,3.25 a 2.1513706,2.1513706 0 0 0 -0.0625,0.0625 c -1.80785,2.57117 -2.71875,6.12453 -2.71875,10 z M 163.53125,672.25 a 2.1513706,2.1513706 0 0 0 -1.78125,0.9375 c -0.14989,0.21651 -0.61059,0.40625 -0.6875,0.40625 l -0.21875,0 A 2.1513706,2.1513706 0 0 0 158.6875,675.75 l 0,2.75 a 2.1513706,2.1513706 0 0 0 1.9375,2.15625 l 0,15.21875 a 2.1513706,2.1513706 0 0 0 2.15625,2.15625 l 3.46875,0 a 2.1513706,2.1513706 0 0 0 2.15625,-2.15625 l 0,-21.46875 A 2.1513706,2.1513706 0 0 0 166.25,672.25 l -2.71875,0 z m 14.90625,7.40625 0.0312,0 c 0.83239,0.0624 0.75606,-0.006 1.09375,0.5625 0.0122,0.0206 0.0178,0.009 0.0312,0.0312 0.52086,0.92176 0.96875,2.82567 0.96875,4.9375 0,1.32293 -0.42015,3.39412 -0.6875,4.0625 a 2.1513706,2.1513706 0 0 0 0,0.0312 c -0.28602,0.73369 -0.57239,1.06727 -0.71875,1.1875 -0.14636,0.12023 -0.18965,0.15625 -0.59375,0.15625 -0.81711,0 -0.69677,0.0679 -1.09375,-0.59375 a 2.1513706,2.1513706 0 0 0 0,-0.0312 c -0.43089,-0.69605 -0.96875,-2.82407 -0.96875,-4.8125 0,-1.55212 0.31007,-3.37295 0.65625,-4.1875 a 2.1513706,2.1513706 0 0 0 0.0312,-0.0625 c 0.26714,-0.69214 0.5456,-1.0088 0.6875,-1.125 0.1419,-0.1162 0.18302,-0.15625 0.5625,-0.15625 z m 19.5,0 0.0312,0 c 0.83239,0.0624 0.75606,-0.006 1.09375,0.5625 0.0122,0.0206 0.0178,0.009 0.0312,0.0312 0.52086,0.92176 0.96875,2.82567 0.96875,4.9375 0,1.32293 -0.42015,3.39412 -0.6875,4.0625 a 2.1513706,2.1513706 0 0 0 0,0.0312 c -0.28602,0.73369 -0.57239,1.06727 -0.71875,1.1875 -0.14636,0.12023 -0.18965,0.15625 -0.59375,0.15625 -0.81711,0 -0.69677,0.0679 -1.09375,-0.59375 a 2.1513706,2.1513706 0 0 0 0,-0.0312 C 196.53786,689.30395 196,687.17593 196,685.1875 c 0,-1.55212 0.31007,-3.37295 0.65625,-4.1875 a 2.1513706,2.1513706 0 0 0 0.0312,-0.0625 c 0.26714,-0.69214 0.5456,-1.0088 0.6875,-1.125 0.1419,-0.1162 0.18302,-0.15625 0.5625,-0.15625 z" />
    <text
       sodipodi:linespacing="125%"
       id="text3779"
       y="695.86115"
       x="183.2153"
       style="font-size:32px;font-style:normal;font-variant:normal;font-weight:normal;font-stretch:normal;text-align:center;line-height:125%;letter-spacing:0px;word-spacing:0px;writing-mode:lr;text-anchor:middle;fill:#000000;fill-opacity:1;stroke:none;font-family:Roadgeek 2005 Series C;-inkscape-font-specification:Roadgeek 2005 Series C"
       xml:space="preserve"><tspan
         sodipodi:role="line"
         id="tspan3089">%num%</tspan></text>
  </g>
</svg>
