<?xml version="1.0" encoding="UTF-8" standalone="no"?>
<!-- Created with Inkscape (http://www.inkscape.org/) -->

<svg
   xmlns:dc="http://purl.org/dc/elements/1.1/"
   xmlns:cc="http://creativecommons.org/ns#"
   xmlns:rdf="http://www.w3.org/1999/02/22-rdf-syntax-ns#"
   xmlns:svg="http://www.w3.org/2000/svg"
   xmlns="http://www.w3.org/2000/svg"
   xmlns:sodipodi="http://sodipodi.sourceforge.net/DTD/sodipodi-0.dtd"
   xmlns:inkscape="http://www.inkscape.org/namespaces/inkscape"
   version="1.0"
   width="26"
   height="48"
   id="svg2"
   inkscape:version="0.48.1 r9760"
   sodipodi:docname="US:PA:Belt-Purple.svg">
  <metadata
     id="metadata11">
    <rdf:RDF>
      <cc:Work
         rdf:about="">
        <dc:format>image/svg+xml</dc:format>
        <dc:type
           rdf:resource="http://purl.org/dc/dcmitype/StillImage" />
      </cc:Work>
    </rdf:RDF>
  </metadata>
  <sodipodi:namedview
     pagecolor="#ffffff"
     bordercolor="#666666"
     borderopacity="1"
     objecttolerance="10"
     gridtolerance="10"
     guidetolerance="10"
     inkscape:pageopacity="0"
     inkscape:pageshadow="2"
     inkscape:window-width="1278"
     inkscape:window-height="1006"
     id="namedview9"
     showgrid="true"
     inkscape:showpageshadow="false"
     inkscape:zoom="17.104167"
     inkscape:cx="13"
     inkscape:cy="24"
     inkscape:window-x="1"
     inkscape:window-y="1"
     inkscape:window-maximized="0"
     inkscape:current-layer="svg2">
    <inkscape:grid
       type="xygrid"
       id="grid2988"
       empspacing="5"
       visible="true"
       enabled="true"
       snapvisiblegridlinesonly="true" />
  </sodipodi:namedview>
  <defs
     id="defs4" />
  <rect
     style="fill:#003882;fill-opacity:1;stroke:none"
     id="rect2396"
     y="9.818202"
     x="-1.0730811e-15"
     ry="2.1818182"
     rx="2.1666665"
     height="38.18182"
     width="26" />
  <path
     inkscape:connector-curvature="0"
     style="fill:#bd0063;fill-opacity:1;stroke:none"
     id="path3168"
     d="m 24,11.00105 a 11,10.999999 0 0 1 -21.9999999,0 11,10.999999 0 1 1 21.9999999,0 z" />
  <path
     inkscape:connector-curvature="0"
     style="font-size:106.52575684px;font-style:normal;font-variant:normal;font-weight:normal;font-stretch:normal;text-align:center;text-anchor:middle;fill:#ffffff;fill-opacity:1;stroke:none;font-family:Pigiarniq;-inkscape-font-specification:Pigiarniq"
     id="text3170"
     d="m 2.8328929,28.936952 0,-3.69713 1.1979103,0 c 0.453943,4e-6 0.7498477,0.0185 0.8877145,0.05548 0.2118386,0.05549 0.3892132,0.176117 0.5321246,0.361894 0.1429057,0.185785 0.2143598,0.425787 0.2143632,0.720008 -3.4e-6,0.226975 -0.041195,0.417799 -0.1235743,0.572475 -0.082385,0.154679 -0.1870448,0.276151 -0.3139787,0.364417 -0.1269387,0.08827 -0.2559767,0.146693 -0.3871141,0.175274 -0.1782175,0.03531 -0.4362933,0.05296 -0.7742283,0.05296 l -0.4867298,0 0,1.39462 -0.7464873,0 z m 0.7464873,-3.071694 0,1.049117 0.4085505,0 c 0.2942218,2e-6 0.4909311,-0.01933 0.5901285,-0.058 0.099193,-0.03867 0.1769522,-0.09919 0.2332775,-0.181579 0.05632,-0.08238 0.084481,-0.178212 0.084484,-0.287498 -2.4e-6,-0.134499 -0.039512,-0.245463 -0.1185299,-0.332893 -0.079022,-0.08742 -0.1790581,-0.142064 -0.300108,-0.163924 -0.08911,-0.01681 -0.2681656,-0.02522 -0.5371683,-0.02522 l -0.3606341,0 z m 2.698451,-0.625436 0.7464873,0 0,2.002402 c -1.4e-6,0.317763 0.00925,0.523719 0.027741,0.61787 0.031943,0.151315 0.1080207,0.272788 0.2282332,0.364417 0.1202098,0.09163 0.2845546,0.137445 0.4930346,0.137444 0.2118391,1e-6 0.3715602,-0.04329 0.4791642,-0.129878 0.1075995,-0.08659 0.1723287,-0.192926 0.1941876,-0.319022 0.021854,-0.126095 0.032783,-0.335415 0.032785,-0.627958 l 0,-2.045275 0.7464871,0 0,1.941876 c -3.5e-6,0.443859 -0.020178,0.757417 -0.060525,0.940675 -0.040354,0.183261 -0.1147506,0.337938 -0.2231895,0.464033 -0.108446,0.126096 -0.2534558,0.226553 -0.435031,0.301369 C 8.3256251,28.962595 8.0885652,29 7.7960251,29 7.4429555,29 7.1752119,28.95923 6.992795,28.877687 6.8103748,28.796146 6.6662055,28.690225 6.5602855,28.559925 6.4543646,28.429627 6.3845914,28.293024 6.3509667,28.150114 6.302209,27.938274 6.2778307,27.625557 6.2778312,27.211961 l 0,-1.972139 z m 3.7400018,3.69713 0,-3.69713 1.571155,0 c 0.395098,4e-6 0.682176,0.03321 0.861235,0.09962 0.179053,0.06641 0.322381,0.184523 0.429986,0.354329 0.107598,0.169811 0.161399,0.363999 0.161403,0.582563 -4e-6,0.277412 -0.08155,0.506486 -0.244626,0.687222 -0.163087,0.180739 -0.220533,0.211849 -0.220533,0.211849 0.190519,0.154762 0.465158,0.603007 0.465158,1.455866 l 0,0.305684 -0.769163,0 c 0,-0.884606 -0.245474,-1.543413 -0.560275,-1.543413 l -0.947852,0 0,1.543413 -0.746488,0 z m 0.746488,-2.133541 0.5523,0 c 0.358111,2e-6 0.58172,-0.01513 0.67083,-0.04539 0.0891,-0.03026 0.158878,-0.08238 0.209319,-0.156359 0.05044,-0.07397 0.07565,-0.166444 0.07566,-0.27741 -3e-6,-0.124412 -0.03321,-0.224868 -0.09962,-0.30137 -0.06641,-0.07649 -0.160144,-0.124831 -0.281194,-0.145009 -0.06053,-0.0084 -0.242107,-0.01261 -0.544734,-0.01261 l -0.582563,0 0,0.938153 z m 2.983428,2.133541 0,-3.69713 1.19791,0 c 0.453943,4e-6 0.749848,0.0185 0.887715,0.05548 0.211838,0.05549 0.389213,0.176117 0.532125,0.361894 0.142904,0.185785 0.214359,0.425787 0.214362,0.720008 -3e-6,0.226975 -0.04119,0.417799 -0.123574,0.572475 -0.08239,0.154679 -0.187044,0.276151 -0.313978,0.364417 -0.12694,0.08827 -0.255978,0.146693 -0.387115,0.175274 -0.178218,0.03531 -0.436293,0.05296 -0.774228,0.05296 l -0.48673,0 0,1.39462 -0.746487,0 z m 0.746487,-3.071694 0,1.049117 0.408551,0 c 0.294221,2e-6 0.490931,-0.01933 0.590128,-0.058 0.09919,-0.03867 0.176953,-0.09919 0.233278,-0.181579 0.05632,-0.08238 0.08448,-0.178212 0.08448,-0.287498 -3e-6,-0.134499 -0.03951,-0.245463 -0.11853,-0.332893 -0.07902,-0.08742 -0.179059,-0.142064 -0.300109,-0.163924 -0.08911,-0.01681 -0.268165,-0.02522 -0.537168,-0.02522 l -0.360634,0 z m 2.723671,3.071694 0,-3.666866 0.746487,0 0,3.043953 1.856131,0 0,0.622913 -2.602618,0 z m 3.137264,0 0,-3.69713 2.741323,0 0,0.625436 -1.994836,0 0,0.819622 1.856131,0 0,0.622914 -1.856131,0 0,1.006245 2.065449,0 0,0.622913 -2.811936,0 z" />
  <path
     inkscape:connector-curvature="0"
     style="font-size:59.18097687px;font-style:normal;font-variant:normal;font-weight:normal;font-stretch:normal;text-align:center;text-anchor:middle;fill:#ffffff;fill-opacity:1;stroke:none;font-family:Pigiarniq;-inkscape-font-specification:Pigiarniq"
     id="text3182"
     d="m 6.494716,31.302867 1.4778432,0 c 0.2925402,4e-6 0.5106858,0.01219 0.6544376,0.03657 0.143746,0.02438 0.2723642,0.07524 0.3858528,0.152576 0.1134834,0.07734 0.2080556,0.18032 0.2837158,0.308934 0.075654,0.128621 0.1134833,0.272791 0.113486,0.432509 -2.7e-6,0.173174 -0.046659,0.332055 -0.1399663,0.476643 -0.093314,0.144591 -0.2198295,0.253034 -0.3795482,0.325327 0.2252884,0.06557 0.3984593,0.177377 0.5195145,0.335415 0.1210489,0.158042 0.1815751,0.343823 0.1815786,0.557343 -3.5e-6,0.168129 -0.039094,0.331633 -0.1172692,0.490513 -0.078183,0.158881 -0.184944,0.285817 -0.3202839,0.380809 C 9.0187317,34.894496 8.8518645,34.952923 8.653477,34.97478 8.5290598,34.98823 8.2289519,34.99664 7.7531524,35 l -1.2584365,0 0,-3.69713 z m 0.7464873,0.615347 0,0.85493 0.4892519,0 c 0.2908592,3e-6 0.4715964,-0.0042 0.5422121,-0.01261 0.1277748,-0.01513 0.228231,-0.05926 0.3013691,-0.132401 0.073133,-0.07313 0.1097008,-0.169386 0.1097034,-0.28876 -2.6e-6,-0.114323 -0.031526,-0.207214 -0.094572,-0.278671 -0.06305,-0.07145 -0.1567814,-0.114745 -0.2811937,-0.129878 -0.073978,-0.0084 -0.2866597,-0.01261 -0.6380449,-0.01261 l -0.4287259,0 z m 0,1.470278 0,0.988591 0.6910053,0 c 0.2690023,1e-6 0.4396519,-0.0076 0.511949,-0.0227 0.1109618,-0.02017 0.2013304,-0.06935 0.271106,-0.147532 0.06977,-0.07818 0.1046565,-0.182838 0.10466,-0.313979 -3.5e-6,-0.110963 -0.026903,-0.205114 -0.080702,-0.282455 C 8.6854176,33.533077 8.6076597,33.476758 8.5059445,33.44145 8.4042249,33.40614 8.1835573,33.38849 7.8439412,33.38849 l -0.6027381,0 z m 2.9834267,1.611505 0,-3.69713 2.741324,0 0,0.625435 -1.994836,0 0,0.819623 1.856131,0 0,0.622914 -1.856131,0 0,1.006244 2.065449,0 0,0.622914 -2.811937,0 z m 3.470158,0 0,-3.666867 0.746487,0 0,3.043953 1.856132,0 0,0.622914 -2.602619,0 z m 3.969497,0 0,-3.071695 -1.097034,0 0,-0.625435 2.938033,0 0,0.625435 -1.094512,0 0,3.071695 -0.746487,0 z" />
</svg>
