<?xml version="1.0" encoding="UTF-8" standalone="no"?>
<!-- Created with Inkscape (http://www.inkscape.org/) -->

<svg
   xmlns:dc="http://purl.org/dc/elements/1.1/"
   xmlns:cc="http://creativecommons.org/ns#"
   xmlns:rdf="http://www.w3.org/1999/02/22-rdf-syntax-ns#"
   xmlns:svg="http://www.w3.org/2000/svg"
   xmlns="http://www.w3.org/2000/svg"
   xmlns:sodipodi="http://sodipodi.sourceforge.net/DTD/sodipodi-0.dtd"
   xmlns:inkscape="http://www.inkscape.org/namespaces/inkscape"
   version="1.1"
   width="60"
   height="48"
   id="svg2"
   inkscape:version="0.48.1 r9760"
   sodipodi:docname="US:RI_2.5.svg">
  <sodipodi:namedview
     pagecolor="#ffffff"
     bordercolor="#666666"
     borderopacity="1"
     objecttolerance="10"
     gridtolerance="10"
     guidetolerance="10"
     inkscape:pageopacity="0"
     inkscape:pageshadow="2"
     inkscape:window-width="1278"
     inkscape:window-height="996"
     id="namedview14"
     showgrid="true"
     inkscape:showpageshadow="false"
     inkscape:zoom="16.895833"
     inkscape:cx="30"
     inkscape:cy="24"
     inkscape:window-x="1"
     inkscape:window-y="27"
     inkscape:window-maximized="0"
     inkscape:current-layer="svg2">
    <inkscape:grid
       type="xygrid"
       id="grid2995"
       empspacing="5"
       visible="true"
       enabled="true"
       snapvisiblegridlinesonly="true" />
  </sodipodi:namedview>
  <defs
     id="defs4" />
  <metadata
     id="metadata7">
    <rdf:RDF>
      <cc:Work
         rdf:about="">
        <dc:format>image/svg+xml</dc:format>
        <dc:type
           rdf:resource="http://purl.org/dc/dcmitype/StillImage" />
        <dc:title></dc:title>
      </cc:Work>
    </rdf:RDF>
  </metadata>
  <rect
     width="55.000298"
     height="45.000294"
     rx="2.1508493"
     ry="1.7597882"
     x="1.4998516"
     y="1.4998547"
     id="rect3755"
     style="fill:#ffffff;fill-opacity:1;fill-rule:nonzero;stroke:#000000;stroke-width:0.99970317;stroke-linejoin:round;stroke-miterlimit:4;stroke-opacity:1;stroke-dasharray:none" />
  <text
     x="22.762854"
     y="8.5863171"
     id="text3942"
     xml:space="preserve"
     style="font-size:3.19163585px;font-style:normal;font-weight:normal;text-align:center;line-height:125%;letter-spacing:0px;word-spacing:0px;text-anchor:middle;fill:#000000;fill-opacity:1;stroke:none;font-family:Bitstream Vera Sans"
     sodipodi:linespacing="125%"><tspan
       x="22.762854"
       y="8.5863171"
       id="tspan3944" /></text>
  <g
     transform="matrix(0.07979091,0,0,0.07979091,-8.3825412,-35.548732)"
     id="text3946"
     style="font-size:149.2537384px;font-style:normal;font-variant:normal;font-weight:normal;font-stretch:normal;text-align:center;line-height:125%;letter-spacing:0px;word-spacing:0px;writing-mode:lr-tb;text-anchor:middle;fill:#000000;fill-opacity:1;stroke:none;font-family:Roadgeek 2005 Series D;-inkscape-font-specification:Roadgeek 2005 Series D">
    <path
       d="m 451.65353,625.8125 -16.11941,-43.58209 -18.95522,0 0,43.58209 -15.8209,0 0,-100 32.98508,0 c 3.88055,10e-5 7.21388,0.24885 10,0.74626 2.78601,0.39811 5.42282,1.19413 7.91045,2.38806 2.18899,1.09463 4.17903,2.53741 5.97015,4.32836 1.89047,1.69164 3.48251,3.68168 4.77612,5.97015 1.39296,2.18914 2.43773,4.5772 3.13432,7.16418 0.79595,2.48764 1.19396,4.9752 1.19403,7.46269 -7e-5,2.68663 -0.39808,5.32345 -1.19403,7.91045 -0.69659,2.48762 -1.74136,4.87568 -3.13432,7.16418 -1.29361,2.18911 -2.9354,4.17915 -4.92538,5.97015 -1.89061,1.79109 -3.98016,3.18412 -6.26865,4.1791 l 17.61194,46.71642 -17.16418,0 m -0.74627,-71.9403 c -6e-5,-2.08948 -0.54733,-4.07953 -1.64179,-5.97015 -1.09459,-1.89047 -2.63688,-3.383 -4.62687,-4.47761 -1.29359,-0.69644 -2.48761,-1.1442 -3.58209,-1.34329 -1.09458,-0.29842 -2.93537,-0.44767 -5.52239,-0.44776 l -18.95522,0 0,24.47761 18.95522,0 c 2.48752,6e-5 4.27856,-0.0994 5.37314,-0.2985 1.19397,-0.19895 2.43775,-0.64671 3.73134,-1.34329 1.98999,-1.09446 3.53228,-2.587 4.62687,-4.47761 1.09446,-1.98998 1.64173,-4.02978 1.64179,-6.1194"
       id="path4024"
       inkscape:connector-curvature="0" />
    <path
       d="m 495.43851,617.7528 c -2e-5,2.48757 -0.8458,4.62687 -2.53732,6.41791 -1.69156,1.79104 -3.78111,2.68657 -6.26865,2.68657 -2.48758,0 -4.62688,-0.89553 -6.41791,-2.68657 -1.79105,-1.79104 -2.68658,-3.93034 -2.68657,-6.41791 -10e-6,-2.48755 0.89552,-4.5771 2.68657,-6.26866 1.79103,-1.69153 3.93033,-2.5373 6.41791,-2.53731 2.48754,10e-6 4.57709,0.84578 6.26865,2.53731 1.69152,1.69156 2.5373,3.78111 2.53732,6.26866"
       id="path4026"
       inkscape:connector-curvature="0" />
    <path
       d="m 511.53226,625.8125 0,-100 16.1194,0 0,100 -16.1194,0"
       id="path4028"
       inkscape:connector-curvature="0" />
    <path
       d="m 561.32004,617.7528 c -2e-5,2.48757 -0.84579,4.62687 -2.53732,6.41791 -1.69156,1.79104 -3.78111,2.68657 -6.26865,2.68657 -2.48758,0 -4.62688,-0.89553 -6.41791,-2.68657 -1.79105,-1.79104 -2.68657,-3.93034 -2.68657,-6.41791 0,-2.48755 0.89552,-4.5771 2.68657,-6.26866 1.79103,-1.69153 3.93033,-2.5373 6.41791,-2.53731 2.48754,10e-6 4.57709,0.84578 6.26865,2.53731 1.69153,1.69156 2.5373,3.78111 2.53732,6.26866"
       id="path4030"
       inkscape:connector-curvature="0" />
  </g>
  <text
     xml:space="preserve"
     style="font-size:32px;font-style:normal;font-variant:normal;font-weight:normal;font-stretch:normal;text-align:center;line-height:125%;letter-spacing:0px;word-spacing:0px;writing-mode:lr;text-anchor:middle;fill:#000000;fill-opacity:1;stroke:none;font-family:Roadgeek 2005 Series C;-inkscape-font-specification:Roadgeek 2005 Series C"
     x="30"
     y="41"
     id="text2993"
     sodipodi:linespacing="125%"><tspan
       sodipodi:role="line"
       id="tspan3788">%num%</tspan></text>
</svg>
