<?xml version="1.0" encoding="UTF-8" standalone="no"?>
<!-- Created with Inkscape (http://www.inkscape.org/) -->

<svg
   xmlns:dc="http://purl.org/dc/elements/1.1/"
   xmlns:cc="http://creativecommons.org/ns#"
   xmlns:rdf="http://www.w3.org/1999/02/22-rdf-syntax-ns#"
   xmlns:svg="http://www.w3.org/2000/svg"
   xmlns="http://www.w3.org/2000/svg"
   xmlns:sodipodi="http://sodipodi.sourceforge.net/DTD/sodipodi-0.dtd"
   xmlns:inkscape="http://www.inkscape.org/namespaces/inkscape"
   version="1.1"
   width="48"
   height="48"
   id="svg3975"
   inkscape:version="0.48.1 r9760"
   sodipodi:docname="US:SD_2.svg">
  <metadata
     id="metadata10">
    <rdf:RDF>
      <cc:Work
         rdf:about="">
        <dc:format>image/svg+xml</dc:format>
        <dc:type
           rdf:resource="http://purl.org/dc/dcmitype/StillImage" />
      </cc:Work>
    </rdf:RDF>
  </metadata>
  <sodipodi:namedview
     pagecolor="#ffffff"
     bordercolor="#666666"
     borderopacity="1"
     objecttolerance="10"
     gridtolerance="10"
     guidetolerance="10"
     inkscape:pageopacity="0"
     inkscape:pageshadow="2"
     inkscape:window-width="1278"
     inkscape:window-height="996"
     id="namedview8"
     showgrid="true"
     inkscape:showpageshadow="false"
     inkscape:zoom="16.895833"
     inkscape:cx="24"
     inkscape:cy="24"
     inkscape:window-x="1"
     inkscape:window-y="27"
     inkscape:window-maximized="0"
     inkscape:current-layer="svg3975">
    <inkscape:grid
       type="xygrid"
       id="grid2990"
       empspacing="5"
       visible="true"
       enabled="true"
       snapvisiblegridlinesonly="true" />
  </sodipodi:namedview>
  <defs
     id="defs3977" />
  <g
     transform="matrix(0.15744672,0,0,0.25110042,-4.7922329,-1.7689594)"
     id="g2995"
     style="font-size:4.51388979000000035px;font-style:normal;font-weight:400;fill:#006a4d;fill-opacity:1;fill-rule:evenodd;stroke:#ffffff;stroke-opacity:1;font-family:Lucida Grande">
    <path
       sodipodi:type="inkscape:offset"
       inkscape:radius="4.6404223"
       inkscape:original="M 50.59375 19.375 L 43.78125 165.28125 L 46.03125 165.3125 L 46.9375 165.375 L 48.4375 165.46875 L 50.78125 165.5625 L 52.4375 165.625 L 52.46875 165.625 L 56.09375 165.78125 L 58.34375 165.84375 L 59.59375 165.9375 L 61.125 166 L 63.0625 166.0625 L 63.6875 166.09375 L 63.71875 166.09375 L 67.375 166.25 L 69.5 166.3125 L 69.71875 166.3125 L 77.28125 166.59375 L 77.3125 166.59375 L 82.09375 166.75 L 88.03125 166.96875 L 89 167 L 89.6875 167.03125 L 94.78125 167.1875 L 97.65625 167.25 L 98.34375 167.28125 L 100.8125 167.34375 L 102.5 167.375 L 102.71875 167.40625 L 103.78125 167.4375 L 105.65625 167.46875 L 115.5625 167.71875 L 115.75 167.71875 L 117 167.75 L 117.90625 167.75 L 121.875 167.84375 L 122.0625 167.84375 L 124.03125 167.875 L 129 168.09375 L 132.1875 168.15625 L 133.71875 168.1875 L 133.90625 168.1875 L 135.4375 168.1875 L 136.75 168.1875 L 146.59375 168.28125 L 146.65625 168.28125 L 146.6875 168.28125 L 146.71875 168.28125 L 146.75 168.28125 L 153.4375 168.34375 L 154.78125 168.375 L 154.96875 168.375 L 156.3125 168.375 L 156.5 168.375 L 158.40625 168.375 L 159.09375 168.375 L 159.8125 168.375 L 164.15625 168.40625 L 168.40625 168.40625 L 168.65625 168.40625 L 171.28125 168.40625 L 171.625 168.40625 L 171.96875 168.375 L 172.0625 168.375 L 174.21875 168.375 L 175.71875 168.375 L 178.5 168.40625 L 178.71875 168.40625 L 181.09375 168.40625 L 181.3125 168.40625 L 184.21875 168.40625 L 186.8125 168.40625 L 186.84375 168.40625 L 187.09375 168.40625 L 190.1875 168.40625 L 190.4375 168.40625 L 191.125 168.40625 L 191.28125 168.40625 L 192.84375 168.40625 L 193.21875 168.40625 L 193.25 168.40625 L 194.09375 168.40625 L 194.40625 168.40625 L 195.46875 168.40625 L 195.90625 168.40625 L 196.1875 168.375 L 196.5625 168.40625 L 196.90625 168.375 L 197.9375 168.375 L 198.40625 168.375 L 198.625 168.375 L 198.71875 168.375 L 199.15625 168.375 L 199.78125 168.375 L 199.875 168.375 L 200.8125 168.375 L 201.40625 168.375 L 201.6875 168.375 L 202.3125 168.34375 L 202.40625 168.375 L 204.125 168.34375 L 207.15625 168.3125 L 208.375 168.3125 L 208.4375 168.3125 L 209.875 168.28125 L 210 168.28125 L 210.59375 168.28125 L 210.71875 168.28125 L 212.71875 168.25 L 213.46875 168.25 L 214.25 168.25 L 214.375 168.25 L 214.46875 168.21875 L 215.21875 168.21875 L 217.0625 168.1875 L 217.40625 168.1875 L 218.3125 168.1875 L 218.625 168.1875 L 219.34375 168.15625 L 220.78125 168.15625 L 221.40625 168.125 L 222 168.125 L 222.375 168.125 L 222.8125 168.09375 L 222.9375 168.125 L 224.3125 168.09375 L 224.90625 168.09375 L 224.96875 168.09375 L 225.6875 168.0625 L 227.0625 168.0625 L 227.09375 168.03125 L 227.875 168.03125 L 229.28125 168 L 230.84375 168 L 232.875 168.09375 L 236.09375 168.3125 L 241.9375 168.8125 L 248.125 170.78125 L 250.75 171.8125 L 250.84375 171.84375 L 253.625 173.375 L 254.28125 173.625 L 261.65625 175 L 269.0625 172.9375 L 277.28125 173.96875 L 281.375 174.21875 L 285.40625 173.78125 L 290.5625 174.53125 L 295.9375 175.96875 L 301.96875 179.4375 L 308.09375 182.625 L 312.15625 183.28125 L 314.5 184.75 L 317.125 185.4375 L 320.15625 185.875 L 321.28125 185.3125 L 321.96875 184.53125 L 321.4375 183.25 L 320.0625 182.09375 L 318.6875 180.1875 L 317.34375 178.09375 L 317.34375 175.53125 L 317.59375 172.28125 L 317.84375 171.21875 L 318.21875 170.4375 L 318.71875 167.84375 L 318.78125 167.6875 L 318.875 167.375 L 319.9375 160.6875 L 319.78125 157.15625 L 319.78125 156.625 L 319.53125 155.875 L 319.46875 155.6875 L 319.4375 155.25 L 319.3125 154.125 L 319.3125 154.09375 L 319.28125 154.09375 L 317.3125 149.8125 L 317.1875 147.75 L 316.90625 145.59375 L 316 142.4375 L 315.6875 140.40625 L 319.5 140.25 L 315.375 51.65625 L 315.34375 51.1875 L 315.28125 51.03125 L 315.1875 50.9375 L 315.15625 50.75 L 315 50.4375 L 314.8125 50.28125 L 314.75 50.21875 L 314.71875 50.125 L 314.71875 49.90625 L 314.65625 49.8125 L 314.3125 49.1875 L 314.1875 48.875 L 313.9375 48.34375 L 313.46875 47.9375 L 313.25 47.84375 L 312.75 47.46875 L 312.40625 47.34375 L 312.125 47.28125 L 311.875 47.25 L 311.3125 47.03125 L 310.96875 46.84375 L 310.71875 46.75 L 310.5 46.5625 L 309.90625 46.21875 L 309.375 46.03125 L 309.34375 46.03125 L 309.3125 46 L 309.0625 46 L 308.875 45.96875 L 308.84375 45.96875 L 308.53125 46 L 308.5 46 L 308.25 45.96875 L 307.75 46.03125 L 307.46875 45.96875 L 307.28125 46 L 307.125 46 L 307 45.9375 L 306.90625 45.875 L 306.84375 45.8125 L 306.6875 45.6875 L 306.625 45.59375 L 306.40625 45.3125 L 306.34375 45.25 L 306.3125 45.21875 L 306.28125 45.15625 L 306 44.71875 L 305.5 44.03125 L 305.25 43.75 L 305.1875 43.6875 L 305.03125 43.28125 L 304.96875 42.96875 L 304.8125 42.71875 L 304.78125 42.625 L 304.75 42.4375 L 304.6875 42.21875 L 304.4375 41.6875 L 304.40625 41.5625 L 304.09375 40.9375 L 303.90625 40.625 L 303.34375 39.9375 L 303.1875 39.65625 L 302.84375 39.21875 L 302.65625 39.03125 L 302.5625 39 L 301.34375 37.53125 L 301.03125 37.125 L 301 37.125 L 300.8125 36.90625 L 300.65625 36.75 L 300.5 36.5625 L 300.53125 36.40625 L 300.5625 36.40625 L 300.6875 36.125 L 300.6875 35.90625 L 300.90625 34.875 L 301.03125 34.59375 L 301.15625 34.40625 L 301.1875 34.375 L 301.28125 34.25 L 301.4375 34.1875 L 301.46875 34.1875 L 301.5 34.15625 L 301.5 34.125 L 301.53125 34.125 L 302.34375 33.40625 L 302.375 33.375 L 302.90625 33 L 303.71875 32.375 L 303.84375 32.21875 L 304.0625 31.8125 L 304.25 31.65625 L 305.375 30.8125 L 306.1875 30.375 L 306.6875 30.03125 L 306.71875 30 L 307.03125 29.6875 L 307.375 29.28125 L 307.6875 28.625 L 307.75 28.375 L 307.75 28.34375 L 307.78125 28.15625 L 307.78125 28.09375 L 307.84375 27.90625 L 308.03125 27.53125 L 308.0625 27.375 L 308.125 27.28125 L 308.21875 27.1875 L 308.4375 27.03125 L 308.53125 26.9375 L 308.625 26.875 L 308.65625 26.84375 L 308.6875 26.78125 L 308.78125 26.65625 L 308.8125 26.625 L 309 26.25 L 309.15625 25.96875 L 309.28125 25.84375 L 309.46875 25.71875 L 309.5625 25.59375 L 309.59375 25.5625 L 309.59375 25.53125 L 309.71875 25.25 L 309.78125 24.875 L 309.75 24.65625 L 309.78125 24.53125 L 309.84375 24.375 L 309.875 23.46875 L 309.8125 23.28125 L 309.78125 23.21875 L 309.875 22.9375 L 309.84375 22.71875 L 309.875 22.21875 L 309.9375 22.15625 L 309.96875 22 L 309.9375 21.625 L 309.9375 21.40625 L 309.96875 21.28125 L 309.96875 21.25 L 310 21.21875 L 310.0625 21.0625 L 310.03125 21.0625 L 310 21 L 309.96875 20.96875 L 309.96875 20.875 L 309.9375 20.78125 L 309.96875 20.71875 L 310.03125 20.5625 L 310.03125 20.5 L 310 20.25 L 310.03125 19.78125 L 309.5625 19.8125 L 309.1875 19.84375 L 308.84375 19.84375 L 308.5 19.84375 L 308.125 19.875 L 307.40625 19.90625 L 306.6875 19.9375 L 305.96875 19.9375 L 305.25 19.96875 L 304.53125 20 L 304.4375 20 L 304.15625 20.03125 L 302.125 20.125 L 301.875 20.125 L 301.65625 20.15625 L 300.5 20.1875 L 300.3125 20.21875 L 300.03125 20.21875 L 298.78125 20.28125 L 296.0625 20.375 L 295.6875 20.375 L 294.9375 20.40625 L 294.875 20.4375 L 294.21875 20.46875 L 291.3125 20.53125 L 290.8125 20.59375 L 289.875 20.625 L 286.96875 20.75 L 284.0625 20.875 L 283.84375 20.875 L 282.625 20.90625 L 278.34375 21.0625 L 278.25 21.0625 L 278.1875 21.0625 L 277.84375 21.09375 L 276.90625 21.09375 L 276.09375 21.125 L 273.9375 21.1875 L 270.75 21.3125 L 269.59375 21.34375 L 267.96875 21.375 L 267.6875 21.40625 L 265.28125 21.46875 L 261.65625 21.5625 L 260.96875 21.5625 L 260.6875 21.5625 L 259.9375 21.59375 L 257.78125 21.65625 L 256.65625 21.6875 L 254.1875 21.75 L 253.8125 21.75 L 253.78125 21.75 L 248.03125 21.875 L 245.84375 21.9375 L 244.34375 21.9375 L 243.71875 21.9375 L 239.40625 22 L 238.53125 22 L 237.25 22.03125 L 235.09375 22.03125 L 232.625 22.0625 L 230.90625 22.09375 L 228.84375 22.125 L 228.8125 22.125 L 226.46875 22.15625 L 225.34375 22.15625 L 222.3125 22.1875 L 222.15625 22.1875 L 222 22.1875 L 218.5625 22.25 L 218.15625 22.25 L 218.125 22.25 L 217.84375 22.25 L 216.59375 22.28125 L 215.96875 22.28125 L 215.6875 22.28125 L 215.21875 22.28125 L 214.53125 22.28125 L 213.59375 22.3125 L 212.40625 22.3125 L 212.15625 22.3125 L 211.625 22.3125 L 209.96875 22.34375 L 208.53125 22.34375 L 208.4375 22.34375 L 205.125 22.34375 L 204.34375 22.34375 L 202.25 22.375 L 201.5 22.375 L 200.625 22.40625 L 199.59375 22.40625 L 199.5625 22.40625 L 199.53125 22.40625 L 199.5 22.40625 L 196.4375 22.40625 L 195 22.40625 L 192.03125 22.40625 L 190.65625 22.40625 L 188.46875 22.40625 L 187.9375 22.40625 L 187.09375 22.40625 L 187.03125 22.40625 L 185.9375 22.375 L 185.59375 22.40625 L 184.9375 22.40625 L 181.3125 22.375 L 181.28125 22.375 L 181 22.375 L 180.96875 22.375 L 180.65625 22.375 L 176.625 22.34375 L 176.28125 22.34375 L 176.125 22.34375 L 175.90625 22.34375 L 174.8125 22.34375 L 173.53125 22.34375 L 173.09375 22.34375 L 169.09375 22.3125 L 168.28125 22.3125 L 166.28125 22.28125 L 165.84375 22.28125 L 164.8125 22.3125 L 164.4375 22.28125 L 164.4375 22.3125 L 164.15625 22.28125 L 159.96875 22.28125 L 158.40625 22.25 L 158.28125 22.25 L 157.6875 22.25 L 157.40625 22.25 L 156.96875 22.25 L 156.84375 22.21875 L 152.65625 22.21875 L 152.46875 22.1875 L 151.21875 22.1875 L 151.09375 22.1875 L 150.5 22.1875 L 150.25 22.1875 L 150.0625 22.1875 L 149.96875 22.1875 L 149.09375 22.15625 L 149.0625 22.15625 L 148.40625 22.15625 L 146.75 22.125 L 146.21875 22.125 L 145.3125 22.125 L 144.78125 22.125 L 144.59375 22.09375 L 143.5 22.09375 L 143.3125 22.09375 L 143.21875 22.09375 L 141.59375 22.09375 L 140.71875 22.0625 L 140.5 22.0625 L 136.84375 22 L 136.6875 22 L 136.1875 22 L 134.375 21.96875 L 133.375 21.9375 L 132.5625 21.9375 L 132.53125 21.9375 L 131.875 21.90625 L 131.59375 21.90625 L 131.09375 21.90625 L 130.84375 21.90625 L 129.875 21.875 L 129.65625 21.875 L 129.625 21.875 L 129.59375 21.875 L 128.78125 21.875 L 128.625 21.875 L 127.59375 21.84375 L 127.28125 21.84375 L 126.59375 21.8125 L 125.40625 21.78125 L 122.96875 21.75 L 122.40625 21.75 L 121.84375 21.71875 L 121.75 21.71875 L 121.53125 21.71875 L 121.46875 21.71875 L 119.375 21.65625 L 118.53125 21.65625 L 118.46875 21.65625 L 117.53125 21.625 L 117.15625 21.625 L 117.125 21.625 L 116.8125 21.625 L 116.4375 21.59375 L 116.0625 21.59375 L 116 21.59375 L 115.96875 21.59375 L 115.5625 21.59375 L 115.375 21.59375 L 115.34375 21.59375 L 114.65625 21.5625 L 113.9375 21.5625 L 110.375 21.46875 L 110.09375 21.46875 L 109.25 21.4375 L 109.21875 21.4375 L 107.875 21.40625 L 107.75 21.40625 L 107.65625 21.40625 L 107.40625 21.375 L 107.25 21.375 L 106.90625 21.375 L 106.75 21.375 L 106.03125 21.34375 L 106 21.34375 L 105.5625 21.34375 L 105.28125 21.3125 L 105 21.3125 L 102.375 21.25 L 102.125 21.25 L 101.75 21.21875 L 99.21875 21.15625 L 98.90625 21.125 L 98.375 21.125 L 98.1875 21.125 L 98.125 21.125 L 97.4375 21.09375 L 97.0625 21.09375 L 93.125 21 L 90.96875 20.90625 L 89.5625 20.875 L 88.8125 20.84375 L 87.15625 20.78125 L 86.96875 20.78125 L 85.90625 20.75 L 85.15625 20.71875 L 84.59375 20.71875 L 84.09375 20.6875 L 83.4375 20.65625 L 81.9375 20.625 L 81.21875 20.59375 L 79.53125 20.53125 L 79.25 20.53125 L 76.96875 20.4375 L 76.1875 20.4375 L 74.03125 20.34375 L 73.8125 20.34375 L 72.5625 20.28125 L 72.3125 20.28125 L 71.84375 20.25 L 71.75 20.25 L 67.4375 20.09375 L 66.8125 20.0625 L 63.90625 19.96875 L 63.65625 19.9375 L 63.3125 19.9375 L 59.125 19.75 L 54.8125 19.5625 L 50.59375 19.375 z "
       style="fill:#006a4d;fill-opacity:1;fill-rule:evenodd;stroke:none"
       id="path2999"
       d="m 50.34375,14.75 a 4.6408864,4.6408864 0 0 0 -4.375,4.40625 l -6.8125,145.90625 a 4.6408864,4.6408864 0 0 0 4.5625,4.84375 l 2,0.0312 L 46.625,170 a 4.6408864,4.6408864 0 0 0 0.03125,0 l 1.5,0.0937 a 4.6408864,4.6408864 0 0 0 0.09375,0 l 2.34375,0.0937 1.65625,0.0625 a 4.6408864,4.6408864 0 0 0 0.03125,0 4.6408864,4.6408864 0 0 0 0.15625,0 l 0.03125,0 3.4375,0.15625 a 4.6408864,4.6408864 0 0 0 0.0625,0 l 2.03125,0.0625 0.21875,0 1.03125,0.0937 a 4.6408864,4.6408864 0 0 0 0.15625,0 l 1.53125,0.0625 a 4.6408864,4.6408864 0 0 0 0.03125,0 l 1.875,0.0625 0.0625,0 0.5625,0.0312 a 4.6408864,4.6408864 0 0 0 0.0625,0 4.6408864,4.6408864 0 0 0 0.15625,0 l 0.03125,0 3.46875,0.15625 a 4.6408864,4.6408864 0 0 0 0.0625,0 l 2.125,0.0625 a 4.6408864,4.6408864 0 0 0 0.125,0 l 0.03125,0 0.1875,0 7.375,0.28125 a 4.6408864,4.6408864 0 0 0 0.0625,0 4.6408864,4.6408864 0 0 0 0.125,0 l 0.03125,0 4.625,0.15625 5.9375,0.21875 0.90625,0.0312 0.0625,0 0.625,0.0312 a 4.6408864,4.6408864 0 0 0 0.0625,0 l 5.09375,0.15625 a 4.6408864,4.6408864 0 0 0 0.0625,0 l 2.75,0.0625 0.125,0 0.5625,0.0312 a 4.6408864,4.6408864 0 0 0 0.09375,0 l 2.46875,0.0625 a 4.6408864,4.6408864 0 0 0 0.0312,0 L 102,172 l 0.0625,0 a 4.6408864,4.6408864 0 0 0 0.53125,0.0312 l 1.0625,0.0312 a 4.6408864,4.6408864 0 0 0 0.0625,0 l 1.8125,0.0312 0.0625,0 9.84375,0.25 a 4.6408864,4.6408864 0 0 0 0.125,0 l 0.0625,0 0.125,0 1.125,0.0312 a 4.6408864,4.6408864 0 0 0 0.125,0 l 0.78125,0 0.125,0 3.84375,0.0937 a 4.6408864,4.6408864 0 0 0 0.125,0 l 0.125,0 0.0625,0 1.75,0.0312 0.15625,0 4.8125,0.21875 a 4.6408864,4.6408864 0 0 0 0.125,0 l 3.1875,0.0625 1.53125,0.0312 a 4.6408864,4.6408864 0 0 0 0.0937,0 l 0.1875,0 1.53125,0 1.28125,0 0.0312,0 9.8125,0.0937 a 4.6408864,4.6408864 0 0 0 0.0312,0 l 0.0625,0 0.0312,0 0.0312,0 0.0312,0 6.59375,0.0625 0.0625,0 1.28125,0.0312 a 4.6408864,4.6408864 0 0 0 0.0937,0 l 0.1875,0 1.34375,0 0.1875,0 1.90625,0 0.6875,0 0.6875,0 0.0312,0 4.3125,0.0312 a 4.6408864,4.6408864 0 0 0 0.0312,0 l 4.25,0 0.25,0 2.625,0 0.34375,0 a 4.6408864,4.6408864 0 0 0 0.40625,0 L 172.375,173 l 1.84375,0 1.4375,0 0.0625,0 2.71875,0.0312 a 4.6408864,4.6408864 0 0 0 0.0625,0 l 0.21875,0 2.375,0 0.21875,0 2.90625,0 2.59375,0 0.0312,0 0.25,0 3.09375,0 0.25,0 0.6875,0 0.15625,0 1.5625,0 0.375,0 0.0312,0 0.84375,0 0.3125,0 1.0625,0 0.4375,0 a 4.6408864,4.6408864 0 0 0 0.28125,0 4.6408864,4.6408864 0 0 0 0.1875,0 4.6408864,4.6408864 0 0 0 0.0312,0 4.6408864,4.6408864 0 0 0 0.5625,0 L 197.3125,173 l 0.625,0 0.46875,0 0.21875,0 0.0937,0 0.4375,0 0.625,0 0.0937,0 0.9375,0 0.59375,0 0.28125,0 a 4.6408864,4.6408864 0 0 0 0.21875,0 l 0.21875,0 a 4.6408864,4.6408864 0 0 0 0.375,0 l 1.6875,-0.0312 0.0312,0 2.9375,-0.0312 0.0625,0 1.15625,0 0.0625,0 a 4.6408864,4.6408864 0 0 0 0.0937,0 l 1.34375,-0.0312 0.0937,0 0.0312,0 0.59375,0 0.125,0 a 4.6408864,4.6408864 0 0 0 0.0625,0 l 1.9375,-0.0312 0.0625,0 0.6875,0 0.78125,0 0.125,0 a 4.6408864,4.6408864 0 0 0 0.6875,-0.0312 l 0.15625,0 a 4.6408864,4.6408864 0 0 0 0.0937,0 l 1.75,-0.0312 0.0937,0 0.25,0 0.90625,0 0.3125,0 a 4.6408864,4.6408864 0 0 0 0.1875,0 l 0.53125,-0.0312 0.1875,0 1.25,0 a 4.6408864,4.6408864 0 0 0 0.21875,0 l 0.40625,-0.0312 0.21875,0 0.375,0 0.375,0 a 4.6408864,4.6408864 0 0 0 0.34375,0 4.6408864,4.6408864 0 0 0 0.3125,0 l 1.28125,-0.0312 0.0937,0 0.5,0 0.0625,0 a 4.6408864,4.6408864 0 0 0 0.1875,0 l 0.53125,-0.0312 0.1875,0 1.1875,0 a 4.6408864,4.6408864 0 0 0 0.6875,-0.0312 4.6408864,4.6408864 0 0 0 0.125,0 4.6408864,4.6408864 0 0 0 0.0937,0 l 1.3125,-0.0312 0.0937,0 1.25,0 0.21875,0 1.71875,0.0937 0.0937,0 3.03125,0.21875 0.0937,0 5.1875,0.4375 5.75,1.84375 2.09375,0.8125 2.5625,1.40625 a 4.6408864,4.6408864 0 0 0 0.59375,0.28125 l 0.65625,0.25 a 4.6408864,4.6408864 0 0 0 0.8125,0.21875 l 7.375,1.375 a 4.6408864,4.6408864 0 0 0 2.09375,-0.0937 l 6.53125,-1.8125 7.28125,0.90625 A 4.6408864,4.6408864 0 0 0 277,178.59375 l 4.09375,0.25 a 4.6408864,4.6408864 0 0 0 0.78125,0 l 3.5,-0.375 4.40625,0.625 0.125,0.0312 4.15625,1.125 5.59375,3.21875 a 4.6408864,4.6408864 0 0 0 0.15625,0.0937 l 6.125,3.1875 a 4.6408864,4.6408864 0 0 0 1.40625,0.46875 l 3.15625,0.5 1.53125,0.96875 a 4.6408864,4.6408864 0 0 0 1.28125,0.5625 l 2.625,0.6875 a 4.6408864,4.6408864 0 0 0 0.53125,0.0937 l 3.03125,0.4375 a 4.6408864,4.6408864 0 0 0 2.71875,-0.4375 l 1.125,-0.5625 A 4.6408864,4.6408864 0 0 0 324.75,188.375 l 0.6875,-0.78125 A 4.6408864,4.6408864 0 0 0 326.25,182.75 l -0.53125,-1.28125 a 4.6408864,4.6408864 0 0 0 -1.28125,-1.78125 l -1,-0.84375 -0.84375,-1.15625 0,-0.0312 -0.15625,-0.1875 -0.46875,-0.75 0,-0.84375 0.21875,-2.78125 0.0937,-0.375 0.125,-0.28125 a 4.6408864,4.6408864 0 0 0 0.375,-1.125 l 0.4375,-2.28125 0,-0.0312 0.0937,-0.28125 a 4.6408864,4.6408864 0 0 0 0.15625,-0.625 l 1.0625,-6.6875 a 4.6408864,4.6408864 0 0 0 0.0312,-0.9375 l -0.15625,-3.3125 0,-0.21875 0,-0.3125 a 4.6408864,4.6408864 0 0 0 -0.21875,-1.46875 l -0.125,-0.375 0,-0.0312 -0.125,-1.125 a 4.6408864,4.6408864 0 0 0 -0.5625,-1.75 4.6408864,4.6408864 0 0 0 -0.0312,-0.0625 l -1.46875,-3.15625 -0.0625,-1.1875 a 4.6408864,4.6408864 0 0 0 -0.0312,-0.3125 L 321.5,145 a 4.6408864,4.6408864 0 0 0 -0.0937,-0.53125 4.6408864,4.6408864 0 0 0 2.71875,-4.4375 L 320,51.4375 a 4.6408864,4.6408864 0 0 0 0,-0.09375 l -0.0312,-0.46875 a 4.6408864,4.6408864 0 0 0 -0.3125,-1.40625 l -0.0625,-0.15625 A 4.6408864,4.6408864 0 0 0 319.5,49.09375 4.6408864,4.6408864 0 0 0 319.40625,48.875 4.6408864,4.6408864 0 0 0 319.375,48.84375 4.6408864,4.6408864 0 0 0 319.3125,48.6875 L 319.15625,48.375 A 4.6408864,4.6408864 0 0 0 319,48.09375 a 4.6408864,4.6408864 0 0 0 -0.0625,-0.125 4.6408864,4.6408864 0 0 0 -0.0312,-0.03125 4.6408864,4.6408864 0 0 0 -0.1875,-0.375 l -0.125,-0.21875 -0.0625,-0.09375 -0.0312,-0.0625 0,-0.03125 a 4.6408864,4.6408864 0 0 0 -0.125,-0.21875 4.6408864,4.6408864 0 0 0 0,-0.03125 l -0.25,-0.53125 a 4.6408864,4.6408864 0 0 0 -1.15625,-1.53125 L 316.5,44.4375 a 4.6408864,4.6408864 0 0 0 -0.75,-0.53125 4.6408864,4.6408864 0 0 0 -0.0312,-0.03125 l -0.1875,-0.125 a 4.6408864,4.6408864 0 0 0 -1.1875,-0.65625 L 314,42.96875 A 4.6408864,4.6408864 0 0 0 313.40625,42.8125 L 313.1875,42.78125 A 4.6408864,4.6408864 0 0 0 313.125,42.75 4.6408864,4.6408864 0 0 0 312.8125,42.53125 l -0.59375,-0.34375 a 4.6408864,4.6408864 0 0 0 -0.78125,-0.34375 l -0.25,-0.09375 a 4.6408864,4.6408864 0 0 0 -0.28125,-0.09375 4.6408864,4.6408864 0 0 0 -0.28125,-0.09375 4.6408864,4.6408864 0 0 0 -0.15625,-0.03125 4.6408864,4.6408864 0 0 0 -0.4375,-0.09375 4.6408864,4.6408864 0 0 0 -0.625,-0.0625 4.6408864,4.6408864 0 0 0 -0.0937,0 4.6408864,4.6408864 0 0 0 -0.0937,-0.21875 l -0.0312,-0.0625 -0.0312,-0.15625 A 4.6408864,4.6408864 0 0 0 308.875,40.25 l -0.0625,-0.125 a 4.6408864,4.6408864 0 0 0 -0.25,-0.625 L 308.25,38.875 a 4.6408864,4.6408864 0 0 0 -0.1875,-0.3125 L 307.875,38.25 A 4.6408864,4.6408864 0 0 0 307.5,37.6875 l -0.25,-0.28125 a 4.6408864,4.6408864 0 0 0 -0.0625,-0.09375 4.6408864,4.6408864 0 0 0 -0.34375,-0.53125 L 306.5,36.34375 a 4.6408864,4.6408864 0 0 0 -0.125,-0.125 l 0.1875,-0.15625 a 4.6408864,4.6408864 0 0 0 0.78125,-0.78125 l 0.125,-0.15625 a 4.6408864,4.6408864 0 0 0 0.125,-0.1875 l 0.3125,-0.21875 0.46875,-0.25 a 4.6408864,4.6408864 0 0 0 0.4375,-0.28125 l 0.5,-0.34375 a 4.6408864,4.6408864 0 0 0 0.65625,-0.53125 L 310,33.28125 l 0.3125,-0.3125 a 4.6408864,4.6408864 0 0 0 0.25,-0.28125 l 0.34375,-0.40625 a 4.6408864,4.6408864 0 0 0 0.65625,-1 L 311.875,30.625 a 4.6408864,4.6408864 0 0 0 0.28125,-0.71875 4.6408864,4.6408864 0 0 0 0.25,-0.34375 4.6408864,4.6408864 0 0 0 0.0937,-0.125 4.6408864,4.6408864 0 0 0 0.0312,-0.03125 4.6408864,4.6408864 0 0 0 0.0312,-0.03125 4.6408864,4.6408864 0 0 0 0.28125,-0.46875 4.6408864,4.6408864 0 0 0 0,-0.03125 4.6408864,4.6408864 0 0 0 0.0312,-0.03125 4.6408864,4.6408864 0 0 0 0.1875,-0.1875 4.6408864,4.6408864 0 0 0 0.125,-0.15625 l 0.0937,-0.125 a 4.6408864,4.6408864 0 0 0 0.5625,-0.96875 l 0.0625,-0.09375 a 4.6408864,4.6408864 0 0 0 0.0625,-0.1875 4.6408864,4.6408864 0 0 0 0.3125,-1.125 l 0.0625,-0.375 a 4.6408864,4.6408864 0 0 0 0.0625,-0.34375 4.6408864,4.6408864 0 0 0 0,-0.0625 4.6408864,4.6408864 0 0 0 0,-0.03125 4.6408864,4.6408864 0 0 0 0.0625,-0.65625 L 314.5,23.625 a 4.6408864,4.6408864 0 0 0 0,-0.46875 4.6408864,4.6408864 0 0 0 0,-0.03125 4.6408864,4.6408864 0 0 0 0,-0.0625 l 0,-0.03125 0.0312,-0.125 a 4.6408864,4.6408864 0 0 0 0.0625,-0.84375 4.6408864,4.6408864 0 0 0 0,-0.0625 4.6408864,4.6408864 0 0 0 0.0625,-1.4375 l 0,-0.0625 a 4.6408864,4.6408864 0 0 0 0,-0.40625 4.6408864,4.6408864 0 0 0 0,-0.0625 4.6408864,4.6408864 0 0 0 -4.9375,-4.875 L 309.25,15.1875 a 4.6408864,4.6408864 0 0 0 -0.0625,0 l -0.34375,0.03125 -0.0312,0 -0.3125,0 a 4.6408864,4.6408864 0 0 0 -0.375,0 l -0.1875,0.03125 -0.1875,0 -0.53125,0.03125 -0.53125,0.03125 -0.1875,0 -0.53125,0 a 4.6408864,4.6408864 0 0 0 -0.1875,0 l -0.71875,0.03125 -0.53125,0.03125 -0.1875,0 a 4.6408864,4.6408864 0 0 0 -0.40625,0 l -0.28125,0.03125 -1.53125,0.09375 -0.21875,0 -0.0312,0 a 4.6408864,4.6408864 0 0 0 -0.65625,0.03125 l -0.0625,0 -0.78125,0.03125 a 4.6408864,4.6408864 0 0 0 -0.34375,0.03125 4.6408864,4.6408864 0 0 0 -0.125,0 4.6408864,4.6408864 0 0 0 -0.0937,0 l -1.1875,0.0625 -0.0625,0 -2.5,0.09375 -0.15625,0 -0.21875,0 a 4.6408864,4.6408864 0 0 0 -0.1875,0 l -0.75,0.03125 a 4.6408864,4.6408864 0 0 0 -0.59375,0.0625 4.6408864,4.6408864 0 0 0 -0.0312,0 l -0.125,0 -2.78125,0.0625 A 4.6408864,4.6408864 0 0 0 290.75,15.9375 L 290.4375,15.96875 289.71875,16 a 4.6408864,4.6408864 0 0 0 -0.0312,0 l -2.90625,0.125 -2.71875,0.125 -0.1875,0 -0.0312,0 a 4.6408864,4.6408864 0 0 0 -0.125,0 L 282.5,16.28125 a 4.6408864,4.6408864 0 0 0 -0.0312,0 l -4.125,0.15625 -0.15625,0 a 4.6408864,4.6408864 0 0 0 -0.40625,0 l -0.34375,0.03125 -0.53125,0 a 4.6408864,4.6408864 0 0 0 -0.1875,0 l -0.75,0.03125 -0.0625,0 -2.09375,0.0625 a 4.6408864,4.6408864 0 0 0 -0.0625,0 l -3.125,0.125 -0.0625,0 -1.0625,0.03125 -0.0312,0 L 267.875,16.75 a 4.6408864,4.6408864 0 0 0 -0.40625,0 l -0.28125,0.03125 -2.03125,0.0625 -3.5,0.09375 -0.125,0 -0.5625,0 -0.28125,0 a 4.6408864,4.6408864 0 0 0 -0.1875,0 l -0.6875,0.03125 -0.0625,0 -2.09375,0.0625 -1.125,0.03125 -2.34375,0.0625 -0.125,0 -0.25,0 -0.0312,0 a 4.6408864,4.6408864 0 0 0 -0.0937,0 l -5.75,0.125 a 4.6408864,4.6408864 0 0 0 -0.0312,0 l -2.0625,0.0625 -0.125,0 -1.375,0 -0.625,0 a 4.6408864,4.6408864 0 0 0 -0.0625,0 l -4.25,0.0625 -0.0625,0 -0.8125,0 a 4.6408864,4.6408864 0 0 0 -0.125,0 l -1.15625,0.03125 -0.125,0 -2.03125,0 a 4.6408864,4.6408864 0 0 0 -0.0625,0 l -2.46875,0.03125 a 4.6408864,4.6408864 0 0 0 -0.0312,0 l -1.6875,0.03125 -0.0312,0 -1.96875,0.03125 -0.0625,0 a 4.6408864,4.6408864 0 0 0 -0.0312,0 l -2.28125,0.03125 -0.0625,0 -1.0625,0 a 4.6408864,4.6408864 0 0 0 -0.0625,0 l -2.96875,0.03125 -0.0625,0 -0.0937,0 -0.15625,0 a 4.6408864,4.6408864 0 0 0 -0.0937,0 l -3.34375,0.0625 -0.0937,0 -0.3125,0 -0.0312,0 -0.28125,0 a 4.6408864,4.6408864 0 0 0 -0.125,0 l -1.125,0.03125 -0.125,0 -0.5,0 -0.28125,0 -0.46875,0 -0.6875,0 a 4.6408864,4.6408864 0 0 0 -0.15625,0 l -0.78125,0.03125 -0.15625,0 -1.03125,0 -0.25,0 -0.53125,0 a 4.6408864,4.6408864 0 0 0 -0.0937,0 l -1.5625,0.03125 -0.0937,0 -1.34375,0 -0.0937,0 -3.3125,0 -0.78125,0 a 4.6408864,4.6408864 0 0 0 -0.0625,0 L 202.25,17.75 l -0.0625,0 -0.6875,0 a 4.6408864,4.6408864 0 0 0 -0.15625,0 l -0.71875,0.03125 -0.15625,0 -0.875,0 -0.0312,0 -0.0312,0 -0.0312,0 -3.0625,0 -1.4375,0 -2.96875,0 -1.375,0 -2.1875,0 -0.53125,0 -0.78125,0 -0.125,0 L 186.0625,17.75 a 4.6408864,4.6408864 0 0 0 -0.53125,0 l -0.34375,0.03125 -0.21875,0 -0.0312,0 -3.59375,-0.03125 a 4.6408864,4.6408864 0 0 0 -0.0312,0 l -0.0312,0 -0.28125,0 -0.0312,0 -0.28125,0 -0.0312,0 -4,-0.03125 a 4.6408864,4.6408864 0 0 0 -0.0312,0 l -0.34375,0 -0.15625,0 -0.21875,0 -1.09375,0 -1.28125,0 -0.40625,0 -0.0312,0 -3.96875,-0.03125 a 4.6408864,4.6408864 0 0 0 -0.0312,0 l -0.75,0 -0.0625,0 -1.9375,-0.03125 a 4.6408864,4.6408864 0 0 0 -0.0625,0 l -0.4375,0 a 4.6408864,4.6408864 0 0 0 -0.125,0 l -0.53125,0.03125 -0.125,0 -0.25,-0.03125 a 4.6408864,4.6408864 0 0 0 -0.15625,0 4.6408864,4.6408864 0 0 0 -0.5,0 l -4.09375,0 -0.0937,0 L 158.5,17.625 a 4.6408864,4.6408864 0 0 0 -0.0937,0 l -0.125,0 -0.59375,0 -0.1875,0 a 4.6408864,4.6408864 0 0 0 -0.0937,0 4.6408864,4.6408864 0 0 0 -0.5625,-0.03125 l -3.84375,0 a 4.6408864,4.6408864 0 0 0 -0.53125,-0.03125 l -1.25,0 -0.125,0 -0.59375,0 -0.25,0 -0.125,0 -0.15625,0 -0.71875,-0.03125 a 4.6408864,4.6408864 0 0 0 -0.15625,0 l -0.0312,0 -0.5625,0 -0.0937,0 -1.5625,-0.03125 a 4.6408864,4.6408864 0 0 0 -0.0937,0 l -0.53125,0 -0.90625,0 -0.1875,0 a 4.6408864,4.6408864 0 0 0 -0.53125,-0.03125 l -1.09375,0 -0.1875,0 -0.0937,0 -1.46875,0 -0.15625,0 -0.71875,-0.03125 a 4.6408864,4.6408864 0 0 0 -0.15625,0 l -0.125,0 -0.0937,0 -3.5625,-0.0625 a 4.6408864,4.6408864 0 0 0 -0.0937,0 l -0.15625,0 -0.40625,0 -0.0937,0 -1.65625,-0.03125 -0.0625,0 -0.9375,-0.03125 a 4.6408864,4.6408864 0 0 0 -0.15625,0 l -0.625,0 -0.21875,0 -0.4375,-0.03125 a 4.6408864,4.6408864 0 0 0 -0.21875,0 l -0.28125,0 -0.5,0 -0.0937,0 -0.15625,0 -0.8125,-0.03125 a 4.6408864,4.6408864 0 0 0 -0.15625,0 l -0.21875,0 -0.0312,0 -0.0312,0 -0.8125,0 -0.0312,0 -0.125,0 -0.90625,-0.03125 a 4.6408864,4.6408864 0 0 0 -0.125,0 l -0.0937,0 -0.21875,0 -0.46875,-0.03125 a 4.6408864,4.6408864 0 0 0 -0.0937,0 l -1.1875,-0.03125 a 4.6408864,4.6408864 0 0 0 -0.0625,0 l -2.4375,-0.03125 a 4.6408864,4.6408864 0 0 0 -0.0625,0 l -0.3125,0 -0.25,0 -0.3125,-0.03125 a 4.6408864,4.6408864 0 0 0 -0.25,0 l -0.0937,0 -0.15625,0 -0.125,0 -1.96875,-0.0625 a 4.6408864,4.6408864 0 0 0 -0.125,0 l -0.75,0 -0.15625,0 L 117.6875,17 a 4.6408864,4.6408864 0 0 0 -0.15625,0 l -0.34375,0 -0.0625,0 -0.3125,-0.03125 a 4.6408864,4.6408864 0 0 0 -0.375,0 l -0.375,0 -0.0625,0 -0.0312,0 -0.40625,0 -0.21875,0 -0.46875,-0.03125 a 4.6408864,4.6408864 0 0 0 -0.21875,0 l -0.59375,0 -0.125,0 -3.4375,-0.09375 a 4.6408864,4.6408864 0 0 0 -0.125,0 l -0.125,0 -0.15625,0 -0.6875,-0.03125 a 4.6408864,4.6408864 0 0 0 -0.0937,0 l -0.0937,0 -1.25,-0.03125 a 4.6408864,4.6408864 0 0 0 -0.21875,0 4.6408864,4.6408864 0 0 0 -0.34375,-0.03125 l -0.15625,0 -0.3125,0 -0.1875,0 -0.53125,-0.03125 a 4.6408864,4.6408864 0 0 0 -0.15625,0 l -0.0625,0 -0.21875,-0.03125 a 4.6408864,4.6408864 0 0 0 -0.5,0 l -0.15625,0 -0.125,0 -2.5,-0.0625 -0.125,0 -0.25,-0.03125 a 4.6408864,4.6408864 0 0 0 -0.25,0 L 99.6875,16.53125 99.375,16.5 a 4.6408864,4.6408864 0 0 0 -0.46875,0 l -0.53125,0 -0.03125,0 -0.21875,0 -0.46875,-0.03125 a 4.6408864,4.6408864 0 0 0 -0.21875,0 l -0.25,0 -0.125,0 -3.75,-0.09375 -0.0625,0 -2.09375,-0.09375 a 4.6408864,4.6408864 0 0 0 -0.09375,0 L 89.75,16.25 89.65625,16.25 89,16.21875 87.34375,16.15625 a 4.6408864,4.6408864 0 0 0 -0.1875,0 l -0.0625,0 -0.125,0 -0.875,-0.03125 -0.0625,0 -0.6875,-0.03125 a 4.6408864,4.6408864 0 0 0 -0.1875,0 l -0.28125,0 -0.5,-0.03125 a 4.6408864,4.6408864 0 0 0 -0.0625,0 l -0.65625,-0.03125 a 4.6408864,4.6408864 0 0 0 -0.125,0 L 82.125,16 l -0.09375,0 -0.625,-0.03125 a 4.6408864,4.6408864 0 0 0 -0.03125,0 l -1.6875,-0.0625 a 4.6408864,4.6408864 0 0 0 -0.15625,0 l -0.09375,0 -0.1875,0 -2.09375,-0.09375 a 4.6408864,4.6408864 0 0 0 -0.1875,0 l -0.59375,0 -0.1875,0 -1.96875,-0.09375 a 4.6408864,4.6408864 0 0 0 -0.1875,0 l -0.21875,0 -1.03125,-0.0625 a 4.6408864,4.6408864 0 0 0 -0.15625,0 l -0.0625,0 -0.40625,-0.03125 a 4.6408864,4.6408864 0 0 0 -0.25,0 l -0.15625,0 -4.09375,-0.15625 -0.0625,0 -0.5625,-0.03125 a 4.6408864,4.6408864 0 0 0 -0.0625,0 l -2.6875,-0.09375 -0.0625,0 a 4.6408864,4.6408864 0 0 0 -0.15625,0 4.6408864,4.6408864 0 0 0 -0.40625,-0.03125 l -0.125,0 -0.21875,0 -3.96875,-0.1875 a 4.6408864,4.6408864 0 0 0 -0.03125,0 L 55.03125,14.9375 55,14.9375 50.8125,14.75 a 4.6408864,4.6408864 0 0 0 -0.46875,0 z"
       transform="matrix(1.0163965,0,0,0.99691381,-3.0052123,0.3111944)" />
  </g>
  <g
     style="font-size:4.51388979px;font-style:normal;font-weight:400;fill:#ffffff;fill-opacity:1;fill-rule:evenodd;stroke:none;font-family:Lucida Grande"
     id="g38"
     transform="matrix(0.15816097,0,0,0.25229401,-4.9228483,-1.8914513)">
    <path
       inkscape:connector-curvature="0"
       style="fill:#ffffff;fill-opacity:1;fill-rule:evenodd;stroke:none"
       id="path40"
       d="m 98.896787,21.132054 0.314234,0.01098 2.535969,0.08118 0.37534,0.01188 0.26443,0.01268 2.59808,0.05971 0.29333,0.0087 0.27653,0.01098 0.45655,0.01158 0.0327,8.98e-4 0.69617,0.01957 10e-4,0.0026 0.17982,4.99e-4 0.34074,0.0081 0.14451,0.0077 0.26343,0.01288 0.0769,-3.99e-4 0.12461,-10e-5 0.002,0.0015 1.33194,0.03515 0.0313,-0.0034 0.872,0.02986 0.26813,0.0068 3.55858,0.08718 0.71898,0.01837 0.69827,0.01777 0.0102,2e-4 0.19102,0.0039 0.40754,0.0084 0.0511,0.0011 0.0545,10e-5 0.37144,0.0083 0.0113,2.99e-4 0.34964,0.01118 0.34134,0.0041 0.0279,-0.0074 0.35083,0.01049 0.9345,0.02756 0.0844,-4e-4 0.83889,0.01857 2.09003,0.04793 0.008,-0.0031 0.0597,0.0024 0.22583,0.0088 0.0931,0.0018 0.54626,0.01158 0.56566,0.0098 2.44826,0.04304 1.18572,0.02696 0.68147,0.01208 0.30504,0.0062 1.0261,0.02087 0.15782,5e-4 0.828,0.02037 0.0307,-0.0017 0.0352,-0.0017 0.19662,2e-4 0.9897,0.02277 0.23183,0.01228 0.50625,3.99e-4 0.28693,0.0033 0.64837,0.0073 0.0431,0.0064 0.79568,0.0099 1.00691,0.02047 1.81279,0.02986 0.49105,0.0079 0.17001,0.0093 3.65641,0.06431 0.20802,0.0035 0.90009,0.01508 1.59917,-0.0045 0.10701,0.0046 0.18802,0.0076 1.08911,0.0097 0.18402,0.0022 0.53005,0.0064 0.90412,0.01328 0.54405,0.0012 1.64818,0.02716 0.64808,0.01288 0.053,9.98e-4 0.85609,0.0088 0.11801,-0.0031 0.16102,0.0028 0.27102,0.0049 0.59607,0.0095 0.12101,0.0013 1.24013,0.0046 0.19002,0.0089 4.18446,0.02427 0.14301,0.01128 0.42205,0.0053 0.29403,0.0018 0.58806,0.0035 0.11801,0.0053 1.57417,0.0058 4.17744,0.02966 0.26503,0.0013 0.001,-0.0018 0.40504,0.0097 1.02412,-0.01368 0.44104,0.0051 1.98921,0.02227 0.80209,0.0048 4.01942,0.01078 0.44005,0.002 1.25814,0.0055 1.11812,-0.0021 0.21402,0.0037 0.14802,0.0019 0.33903,0.0043 4.03243,0.01 0.30504,0.0067 0.042,0.0089 0.29503,0.0013 0.03,-0.0012 3.60539,0.01648 0.65006,10e-5 0.35904,-0.0019 1.08911,0.0042 0.064,-0.0014 0.8431,0.0021 0.52606,0.0049 2.20322,0.003 1.37815,5e-4 2.96432,-0.0073 1.44416,0.01048 3.06232,-0.0022 0.031,-0.0012 0.006,9.98e-4 0.051,-2.99e-4 1.03311,-0.0062 0.87009,-0.0087 0.73009,-0.01138 2.10823,-0.01937 0.77607,-0.0072 3.31735,0.0041 0.10101,0 1.44016,-0.01508 1.64618,-0.01817 0.54406,-0.0081 0.24604,-0.0027 1.16312,-0.0084 0.006,-10e-5 0.93309,-0.0095 0.71507,-0.0039 0.46105,-0.0073 0.26704,-0.0031 0.64306,-0.0019 1.23013,-0.01668 0.021,-1.99e-4 0.27803,-0.0061 0.037,-10e-5 0.38904,-0.0055 3.43338,-0.05103 0.16702,-0.0032 0.16202,-0.003 3.02631,-0.03485 1.11612,-0.01128 2.35826,-0.02526 0.036,-5.99e-4 2.03323,-0.02217 1.74418,-0.02017 2.46426,-0.03026 2.14623,-0.02816 1.29115,-0.01768 0.87008,-0.0078 4.30145,-0.04254 0.63308,-0.0068 1.51016,-0.01678 2.16724,-0.04653 5.77161,-0.131912 0.034,-7.98e-4 0.35904,-0.0093 2.47927,-0.06551 1.11912,-0.03026 2.16123,-0.05552 0.73907,-0.01408 0.28103,-0.0068 0.69608,-0.01678 3.61438,-0.08917 2.42526,-0.06241 0.26103,-0.01128 1.64819,-0.04993 1.13812,-0.03505 3.20333,-0.100557 2.13924,-0.0692 0.81708,-0.02986 0.003,-10e-5 0.93811,-0.02227 0.34403,-0.01318 0.053,-0.0018 0.019,-6e-4 0.067,-0.0023 4.29144,-0.147389 1.22315,-0.04314 0.23302,-0.0097 2.90632,-0.110242 2.88929,-0.116134 0.93311,-0.04623 0.51305,-0.04503 2.90032,-0.08398 0.66707,-0.01927 0.058,-0.02546 0.72907,-0.02796 0.37904,-0.01458 2.71329,-0.105648 0,0 1.25313,-0.04973 0.29703,-0.01188 0.18101,-0.0073 1.15414,-0.04643 0.22202,-0.01937 0.001,-10e-5 0.24903,-0.02177 2.02423,-0.08528 0.28102,-0.01198 0.095,-0.0041 0.72608,-0.03106 0.71607,-0.02686 0.72007,-0.02397 0.72208,-0.01997 0.72008,-0.03645 0.38604,-0.01208 0.33703,-0.01058 0.35104,-0.01698 0.36004,-0.01758 0.47204,-0.02027 -0.022,0.447361 0.018,0.256633 0.015,0.07459 -0.083,0.134407 -0.013,0.06261 0.015,0.116433 0.01,0.0716 0.037,0.04763 0.029,0.04843 0.008,0.01328 0.005,0.0094 -0.064,0.145392 -0.009,0.02127 -0.017,0.03725 -0.03,0.12512 0.018,0.208103 0.009,0.372068 -0.01,0.155977 -0.086,0.07339 -0.022,0.507874 0.037,0.228273 -0.085,0.253737 0.012,0.08917 0.058,0.166761 -0.012,0.919985 -0.063,0.159572 -0.03,0.101455 0.013,0.238958 -0.062,0.364977 -0.10301,0.292581 -0.018,0.02456 -0.018,0.02566 -0.096,0.133609 -0.20602,0.137104 -0.11701,0.108146 -0.16702,0.278701 -0.18402,0.369571 -0.026,0.03954 -0.093,0.138102 -0.04,0.05952 -0.017,0.01578 -0.088,0.08198 -0.085,0.07859 -0.24202,0.166761 -0.08,0.08728 -0.053,0.103153 -0.031,0.153081 -0.19702,0.379158 -0.064,0.178345 -0.005,0.05612 -0.018,0.18194 -0.009,0.03665 -0.057,0.240956 -0.32905,0.66355 -0.34203,0.418901 -0.31503,0.308859 -0.004,0.0044 -0.018,0.01688 -0.49205,0.339814 -0.81408,0.451454 -1.14612,0.843794 -0.17702,0.146391 -0.22103,0.39823 -0.12101,0.176048 -0.80508,0.611924 -0.52205,0.396734 -0.038,0.03265 -0.8271,0.700897 -0.01,0.0085 -0.019,0.02506 -0.003,0.0039 -0.02,0.02726 -0.033,0.01348 -0.14702,0.06121 -0.10401,0.107147 -0.022,0.03036 -0.14201,0.192824 -0.10901,0.288188 -0.21603,1.011055 -0.017,0.227774 -0.13402,0.287787 -0.003,0.006 -0.031,0.154279 0.15002,0.175249 0.15402,0.160672 0.18702,0.218986 0.014,0.01797 0.31303,0.377959 1.23214,1.473593 0.10301,0.05462 0.19102,0.165763 0.33304,0.45395 0.14501,0.25843 0.58106,0.698202 0.17703,0.316148 0.29703,0.619713 0.053,0.121127 0.23402,0.534535 0.072,0.209201 0.015,0.187533 0.038,0.09407 0.15302,0.252839 0.071,0.330926 0.16101,0.392338 0.05,0.08308 0.26202,0.263723 0.50205,0.700898 0.27303,0.427689 0.033,0.05123 0.024,0.03735 0.064,0.07849 0.22803,0.277503 0.058,0.0711 0.15202,0.129714 0.086,0.0737 0.082,0.0698 0.11801,0.04733 0.17502,0.0063 0.18001,-0.02416 0.28404,0.06361 0.50005,-0.07749 0.23703,0.03076 0.019,0.0025 0.32903,-0.01518 0.043,0.0032 0.18702,0.01408 0.24402,0.01847 0.021,0.0078 0.03,0.01108 0.53905,0.198717 0.59107,0.344707 0.21303,0.159771 0.26803,0.108245 0.33104,0.172853 0.57706,0.224079 0.22103,0.02526 0.31103,0.07739 0.32703,0.126618 0.49505,0.365278 0.22002,0.107047 0.47205,0.395535 0.25303,0.52465 0.12801,0.323337 0.34504,0.634792 0.042,0.07759 0.027,0.216092 0.03,0.09526 0.052,0.0699 0.17402,0.154778 0.15902,0.304265 0.038,0.194721 0.09,0.08558 0.015,0.01418 0.044,0.168359 0.027,0.44067 4.14323,88.616992 -3.82953,0.16012 0.34164,2.01744 0.9056,3.14388 0.26302,2.1609 0.11801,2.06904 0,0.001 1.98924,4.2759 0.017,0.018 0.015,0.016 0.12701,1.1124 0.019,0.44337 0.062,0.20371 0.25104,0.72796 0,0.002 -0.009,0.55122 0.15938,3.52592 -1.05148,6.68747 -0.10301,0.30856 -0.044,0.16975 -0.50506,2.57432 -0.37705,0.77589 -0.27003,1.06448 -0.24215,3.26433 0.0193,2.57206 1.32045,2.08312 1.38378,1.90496 1.38665,1.16658 0.51833,1.25597 -0.67234,0.80447 -1.13367,0.53939 -3.05002,-0.41459 -2.60869,-0.7032 -2.34878,-1.45827 -4.0727,-0.67325 -6.11804,-3.18821 -6.01875,-3.46353 -5.39638,-1.41686 -5.15603,-0.75218 -4.00708,0.42349 -4.11704,-0.24917 -8.21762,-1.0373 -7.39273,2.05836 -7.38203,-1.37209 -0.64407,-0.23466 -2.79127,-1.53398 -0.091,-0.0369 -2.64027,-1.02953 -6.15737,-1.97185 -5.85471,-0.50313 -3.21036,-0.19879 -2.0524,-0.1132 -1.56417,0.024 -1.39616,0.023 -0.78408,0.008 -0.015,0.007 -1.39215,0.017 -0.71107,0.009 -0.068,0.005 -0.60106,0.008 -1.36915,0.02 -0.11301,-0.009 -0.44105,0.015 -0.37304,-0.001 -0.60506,0.017 -0.62706,0.018 -1.43118,0.011 -0.72207,0.016 -0.30703,-10e-4 -0.9231,0.016 -0.32103,0.004 -1.8382,0.019 -0.77708,0.013 -0.091,0.004 -0.11502,0.003 -0.77608,0.003 -0.74107,0.011 -2.02124,0.029 -0.11601,-0.004 -0.59206,0.003 -0.12801,0.002 -1.44816,0.018 -0.049,0.001 -1.23513,0.014 -3.03032,0.03 -1.70618,0.015 -0.081,-0.005 -0.64609,0.01 -0.27702,0.002 -0.59607,0.004 -0.92509,-0.004 -0.084,0.001 -0.63506,0.009 -0.43905,0.005 -0.11101,-0.004 -0.22002,-0.004 -0.45506,0.012 -1.0271,-0.003 -0.36104,0.013 -0.36204,-0.005 -0.28502,0.002 -0.43605,0.003 -1.04713,0.006 -0.33703,-0.001 -0.83008,-0.004 -0.018,-0.001 -0.37504,0 -1.58717,0.004 -0.13202,0 -0.70907,0.001 -0.23903,0.001 -3.09433,-0.003 -0.26003,-0.001 -0.017,0 -2.60726,0.014 -2.89232,-0.003 -0.21602,-0.005 -2.39927,0.002 -0.21402,-10e-4 -2.77529,-0.019 -1.50116,-0.011 -2.14423,0.008 -0.10001,0.001 -0.35304,0.01 -0.33203,0.003 -2.63529,-0.002 -0.23002,0.024 -4.27246,-0.023 -4.31946,-0.029 -0.74408,0.015 -0.68607,-0.007 -1.8822,-0.007 -0.21203,-0.007 -1.32114,0.008 -0.19602,-0.004 0,0 -1.36115,-0.03 -6.68171,-0.0619 -0.014,0 -0.038,9.9e-4 -0.047,0 -0.041,-0.002 -9.84407,-0.0839 -1.31983,-0.006 -1.52796,-0.008 -0.20612,-0.001 -1.50286,-0.009 -3.20695,-0.0699 -9e-4,0 -0.004,0 -4.96872,-0.22168 -1.97201,-0.037 -0.18612,-0.003 -3.94363,-0.0779 -0.918,-0.019 -1.24683,-0.026 -0.20752,-0.005 0,0 -4e-4,0 -9.89466,-0.23367 -1.879,-0.0479 -1.05351,-0.028 -0.21682,-0.006 -1.70449,-0.0409 -2.444458,-0.0689 -0.705076,-0.02 -2.875208,-0.0849 -5.078144,-0.15478 -0.682872,-0.023 -0.979606,-0.0319 -5.942134,-0.20471 -4.765611,-0.17175 -0.0442,-0.002 -7.57121,-0.26862 -0.216822,-0.007 -2.105227,-0.0709 -3.665292,-0.1398 -0.0339,-9.9e-4 -0.0148,-0.001 -0.627266,-0.024 -1.913605,-0.0759 -0.0234,0.003 -1.50656,-0.0559 -1.258036,-0.0869 -2.264642,-0.0699 -3.598984,-0.16776 -0.05971,0.002 -1.630274,-0.0609 -2.352153,-0.0909 -1.50386,-0.10385 -0.903197,-0.0389 -2.261622,-0.0459 6.814522,-145.893779 4.21265,0.186134 4.321662,0.184536 4.20525,0.173352 0.323135,0.01298 0.266829,0.01079 0,4.99e-4 2.90071,0.11204 0.636467,0.03235 4.29306,0.155378 0.08521,0.002 0.497253,0.02487 0.232825,0.0047 1.242232,0.069 0.219425,-0.0097 2.15093,0.07779 0.796585,0.02836 6e-4,10e-5 2.277343,0.07699 0.269029,0.0087 1.711983,0.05442 0.703975,0.02636 1.49286,0.04983 0.672372,0.02087 0.498953,0.01538 0.565361,0.01728 0.75288,0.02586 1.064514,0.04134 0.18872,0.0038 1.658878,0.05842 0.74738,0.02606 1.394749,0.04154 2.159432,0.06521 3.920818,0.114436 0.384942,0.0073 0.682973,0.01288 0.0556,0.0031 0.200823,0.0025 0.522455,0.0075" />
  </g>
  <text
     xml:space="preserve"
     style="font-size:32px;font-style:normal;font-variant:normal;font-weight:normal;font-stretch:normal;text-align:center;line-height:125%;letter-spacing:0px;word-spacing:0px;writing-mode:lr;text-anchor:middle;fill:#000000;fill-opacity:1;stroke:none;font-family:Roadgeek 2005 Series D;-inkscape-font-specification:Roadgeek 2005 Series D"
     x="24"
     y="33"
     id="text2987"
     sodipodi:linespacing="125%"><tspan
       sodipodi:role="line"
       id="tspan3769">%num%</tspan></text>
</svg>
