<?xml version="1.0" encoding="UTF-8" standalone="no"?>
<!-- Created with Inkscape (http://www.inkscape.org/) -->

<svg
   xmlns:dc="http://purl.org/dc/elements/1.1/"
   xmlns:cc="http://creativecommons.org/ns#"
   xmlns:rdf="http://www.w3.org/1999/02/22-rdf-syntax-ns#"
   xmlns:svg="http://www.w3.org/2000/svg"
   xmlns="http://www.w3.org/2000/svg"
   xmlns:xlink="http://www.w3.org/1999/xlink"
   xmlns:sodipodi="http://sodipodi.sourceforge.net/DTD/sodipodi-0.dtd"
   xmlns:inkscape="http://www.inkscape.org/namespaces/inkscape"
   width="60"
   height="48"
   id="svg2"
   sodipodi:version="0.32"
   inkscape:version="0.48.1 r9760"
   version="1.0"
   sodipodi:docname="US:SC_3.svg"
   inkscape:output_extension="org.inkscape.output.svg.inkscape">
  <defs
     id="defs4" />
  <sodipodi:namedview
     id="base"
     pagecolor="#ffffff"
     bordercolor="#666666"
     borderopacity="1.0"
     gridtolerance="10000"
     guidetolerance="10"
     objecttolerance="10"
     inkscape:pageopacity="0.0"
     inkscape:pageshadow="2"
     inkscape:zoom="16.895833"
     inkscape:cx="30"
     inkscape:cy="24"
     inkscape:document-units="px"
     inkscape:current-layer="layer1"
     width="300px"
     height="240px"
     inkscape:window-width="1278"
     inkscape:window-height="996"
     inkscape:window-x="1"
     inkscape:window-y="27"
     showgrid="true"
     inkscape:showpageshadow="false"
     inkscape:window-maximized="0">
    <inkscape:grid
       type="xygrid"
       id="grid2995"
       empspacing="5"
       visible="true"
       enabled="true"
       snapvisiblegridlinesonly="true" />
  </sodipodi:namedview>
  <metadata
     id="metadata7">
    <rdf:RDF>
      <cc:Work
         rdf:about="">
        <dc:format>image/svg+xml</dc:format>
        <dc:type
           rdf:resource="http://purl.org/dc/dcmitype/StillImage" />
      </cc:Work>
    </rdf:RDF>
  </metadata>
  <g
     inkscape:label="Layer 1"
     inkscape:groupmode="layer"
     id="layer1"
     transform="translate(0,-192)">
    <use
       id="use2473"
       xlink:href="#state_outline"
       style="fill:#ffffff;stroke:#000000;stroke-width:309;stroke-linejoin:round"
       x="0"
       y="0"
       width="300"
       height="240"
       transform="matrix(0.2,0,0,0.2,4299.1858,-839)" />
    <g
       id="g3016">
      <g
         id="g3004">
        <rect
           style="fill:#003882;fill-opacity:1;stroke:none"
           id="rect2268"
           width="58"
           height="46"
           x="1"
           y="193"
           rx="2.9000001"
           ry="2.875" />
        <rect
           style="fill:#ffffff;fill-opacity:1;stroke:none"
           id="rect2270"
           width="56"
           height="38"
           x="2"
           y="200"
           rx="1.9310344"
           ry="1.9" />
      </g>
      <g
         id="g3012">
        <path
           inkscape:connector-curvature="0"
           style="font-size:30.61958504px;font-style:normal;font-weight:normal;fill:#ffffff;fill-opacity:1;stroke:none;font-family:Tahoma"
           d="m 5.7403018,197.30579 c -2.6e-6,0.16745 -0.029593,0.32363 -0.088771,0.46853 -0.059183,0.1449 -0.1408218,0.27042 -0.2449156,0.37657 -0.1040982,0.10616 -0.2245468,0.19088 -0.3613462,0.25417 -0.136803,0.0633 -0.2848176,0.0949 -0.4440438,0.0949 -0.179662,0 -0.3409144,-0.0347 -0.4837574,-0.1041 C 3.974623,198.32646 3.8542056,198.23259 3.756215,198.11422 3.6582232,197.9959 3.5826896,197.85913 3.529614,197.70395 3.4765378,197.54878 3.45,197.38752 3.4500002,197.2202 l 0.5756122,0 c -8e-7,0.0857 0.011212,0.17041 0.03364,0.25407 0.022426,0.0837 0.057124,0.1592 0.104096,0.2266 0.04697,0.0674 0.106182,0.12151 0.1776362,0.16231 0.071452,0.0408 0.1581988,0.0612 0.2602404,0.0612 0.077619,0 0.1521558,-0.0163 0.2236104,-0.049 0.071452,-0.0326 0.1326882,-0.0776 0.18371,-0.13474 0.051018,-0.0572 0.091822,-0.12353 0.1224112,-0.19904 0.030585,-0.0755 0.045879,-0.15412 0.045881,-0.23585 -2e-6,-0.11836 -0.024484,-0.22345 -0.073447,-0.31528 -0.048966,-0.0918 -0.134685,-0.1847 -0.2571566,-0.27865 -0.020435,-0.0204 -0.028595,-0.0317 -0.024482,-0.0337 0.00411,-0.002 -0.00813,-0.0133 -0.036723,-0.0336 -0.028595,-0.0204 -0.088835,-0.0602 -0.1807198,-0.11942 -0.091887,-0.0592 -0.2419264,-0.16025 -0.4501176,-0.30304 -0.167327,-0.11437 -0.2928528,-0.24812 -0.3765776,-0.40124 -0.083726,-0.15312 -0.1255886,-0.32151 -0.125588,-0.50516 -6e-7,-0.14701 0.026537,-0.28481 0.079614,-0.41339 0.053075,-0.12858 0.127581,-0.24186 0.223517,-0.33986 0.095935,-0.098 0.2071946,-0.17455 0.3337804,-0.22968 0.1265836,-0.0551 0.2633226,-0.0827 0.4102172,-0.0827 0.1470162,0 0.2827896,0.0265 0.4073206,0.0796 0.124527,0.0531 0.2327034,0.12659 0.3245294,0.22053 0.091822,0.094 0.1652992,0.20623 0.2204334,0.33686 0.055129,0.13064 0.084751,0.27352 0.088865,0.42863 l -0.5634646,0 c -0.0081,-0.1429 -0.057065,-0.25722 -0.1468934,-0.34294 -0.089832,-0.0857 -0.2000954,-0.12857 -0.3307902,-0.12858 -0.1346846,1e-5 -0.248966,0.0449 -0.3428444,0.13475 -0.093881,0.0898 -0.1408204,0.20209 -0.1408194,0.33677 -1e-6,0.10204 0.026537,0.18776 0.079614,0.25716 0.053075,0.0694 0.1551152,0.14696 0.3061212,0.23267 0.3960742,0.22863 0.6849392,0.46133 0.8665956,0.69812 0.1816518,0.23679 0.2724788,0.50419 0.2724814,0.80221 l 0,0 z m 2.7520512,-0.93686 c -2.6e-6,0.31434 -0.017352,0.58175 -0.052048,0.80221 -0.034701,0.22046 -0.094972,0.42869 -0.1808132,0.62467 -0.1020428,0.24495 -0.2295932,0.42355 -0.3826514,0.5358 -0.1530626,0.11226 -0.345961,0.16839 -0.578696,0.16839 -0.244948,0 -0.4439826,-0.0561 -0.5971044,-0.16839 -0.1531236,-0.11225 -0.280705,-0.29085 -0.3827448,-0.5358 -0.085719,-0.20009 -0.145928,-0.40934 -0.1806264,-0.62775 -0.034699,-0.21841 -0.052048,-0.48479 -0.052048,-0.79913 -4e-7,-0.31023 0.01735,-0.57661 0.052048,-0.79913 0.034698,-0.22252 0.094907,-0.43177 0.1806264,-0.62776 0.1061512,-0.24494 0.2357884,-0.42152 0.3889122,-0.52973 0.1531216,-0.1082 0.3501004,-0.16231 0.590937,-0.16231 0.2367218,0 0.430617,0.0541 0.5816862,0.16231 0.1510648,0.10821 0.2776184,0.2889 0.3796612,0.54207 0.040863,0.10204 0.076621,0.20408 0.1072732,0.30612 0.030647,0.10204 0.05516,0.20919 0.07354,0.32144 0.018374,0.11226 0.031643,0.23271 0.039807,0.36135 0.00816,0.12864 0.012238,0.27052 0.012242,0.42564 l 0,0 z m -0.5634646,0 c -2.2e-6,-0.11438 -0.00305,-0.2185 -0.00916,-0.31239 -0.00611,-0.0939 -0.014268,-0.18062 -0.024482,-0.26024 -0.010218,-0.0796 -0.023487,-0.15614 -0.039806,-0.22959 -0.016324,-0.0734 -0.034701,-0.14692 -0.055132,-0.22043 -0.053078,-0.18377 -0.1194228,-0.31649 -0.1990346,-0.39816 -0.079616,-0.0817 -0.1806594,-0.1225 -0.303131,-0.12251 -0.253171,10e-6 -0.4266644,0.16945 -0.5204806,0.50834 -0.04909,0.15511 -0.082792,0.31126 -0.101106,0.46843 -0.018316,0.15717 -0.027473,0.35007 -0.027472,0.57869 -8e-7,0.11027 0.00305,0.21134 0.00916,0.30323 0.0061,0.0919 0.014264,0.17764 0.024482,0.25725 0.010216,0.0796 0.023484,0.1582 0.039807,0.23576 0.01632,0.0776 0.034698,0.15714 0.055132,0.23874 0.093816,0.33889 0.2673096,0.50834 0.5204806,0.50834 0.1224716,0 0.2235152,-0.0408 0.303131,-0.12251 0.079612,-0.0817 0.1459568,-0.21028 0.1990346,-0.38583 0.024418,-0.0816 0.04482,-0.16016 0.061206,-0.23566 0.016382,-0.0755 0.029651,-0.15409 0.039807,-0.23576 0.010152,-0.0817 0.017284,-0.16844 0.021399,-0.26033 0.00411,-0.0919 0.00617,-0.19701 0.00617,-0.31537 l 0,0 z m 3.4226026,0.83277 c -3e-6,0.0817 -0.0031,0.15524 -0.0092,0.22052 -0.0061,0.0653 -0.0153,0.1255 -0.02757,0.18063 -0.01227,0.0551 -0.02863,0.10923 -0.04906,0.16231 -0.02044,0.0531 -0.04492,0.10615 -0.07345,0.15923 -0.102043,0.16745 -0.241865,0.30525 -0.419468,0.41339 -0.177606,0.10815 -0.3644,0.16222 -0.56038,0.16222 -0.204083,0 -0.396981,-0.0531 -0.5786964,-0.15923 -0.1817174,-0.10615 -0.3235958,-0.24494 -0.4256354,-0.41638 -0.028532,-0.0531 -0.053014,-0.10615 -0.073447,-0.15923 -0.020434,-0.0531 -0.036786,-0.10718 -0.049058,-0.16231 -0.012272,-0.0551 -0.021461,-0.11534 -0.027566,-0.18063 -0.00611,-0.0653 -0.00916,-0.13879 -0.00916,-0.22052 l 0,-2.87825 0.5879468,0 0,2.95188 c -10e-7,0.19586 0.053075,0.353 0.1592278,0.47142 0.1061506,0.11843 0.2449452,0.17764 0.4163842,0.17764 0.159226,0 0.290888,-0.0592 0.394986,-0.17764 0.104094,-0.11842 0.156142,-0.27556 0.156144,-0.47142 l 0,-2.95188 0.587947,0 0,2.87825 0,0 z m 1.64568,-2.3331 0,3.55795 -0.593928,0 0,-3.55795 -0.747174,0 0,-0.54515 2.088276,0 0,0.54515 -0.747174,0 z m 2.756535,3.55795 0,-1.8556 -1.126742,0 0,1.8556 -0.587947,0 0,-4.1031 0.587947,0 0,1.67189 1.126742,0 0,-1.67189 0.587947,0 0,4.1031 -0.587947,0 z"
           id="text2308" />
        <path
           inkscape:connector-curvature="0"
           style="font-size:30.61958504px;font-style:normal;font-weight:normal;fill:#ffffff;fill-opacity:1;stroke:none;font-family:Tahoma"
           d="m 39.669154,195.41973 c -0.06118,-0.39608 -0.224452,-0.59411 -0.48983,-0.59412 -0.118364,10e-6 -0.219406,0.0255 -0.303132,0.0766 -0.08373,0.0511 -0.151098,0.13275 -0.202118,0.24501 -0.05102,0.11226 -0.08774,0.26024 -0.11017,0.44395 -0.02243,0.18371 -0.03364,0.40825 -0.03364,0.67363 0,0.59194 0.05407,1.01651 0.162218,1.27373 0.108146,0.25722 0.288802,0.38583 0.541974,0.38583 0.08572,0 0.156142,-0.0163 0.211276,-0.049 0.05513,-0.0326 0.100044,-0.0765 0.134746,-0.13166 0.0347,-0.0551 0.05815,-0.11842 0.07036,-0.18988 0.0122,-0.0714 0.01832,-0.14592 0.01832,-0.22342 l 0.587948,0 c -0.0041,0.17144 -0.03271,0.32861 -0.08578,0.47152 -0.05308,0.1429 -0.1245,0.2664 -0.214266,0.3705 -0.08977,0.1041 -0.196918,0.18471 -0.321446,0.24183 -0.124536,0.0571 -0.258254,0.0857 -0.401158,0.0857 -0.44093,0 -0.762438,-0.17963 -0.964524,-0.53889 -0.202088,-0.35926 -0.303132,-0.91858 -0.303132,-1.67797 0,-0.66955 0.102072,-1.17579 0.306214,-1.51873 0.204142,-0.34294 0.510294,-0.51441 0.918458,-0.51441 0.167448,0 0.320572,0.0357 0.459368,0.10718 0.138792,0.0715 0.25516,0.17453 0.349106,0.3092 0.07749,0.10217 0.134618,0.20633 0.171374,0.31248 0.03675,0.10615 0.06535,0.25311 0.08578,0.44087 l -0.587948,0 z m 2.817696,3.00682 -0.287806,-1.12076 -0.88192,0 -0.269304,1.12076 -0.594114,0 1.022646,-4.1031 0.5758,0 1.022646,4.1031 -0.587948,0 z m -0.73484,-2.87825 -0.287806,1.18188 0.587948,0 -0.300142,-1.18188 z m 3.28099,2.87825 -0.54515,-1.92905 -0.563278,0 0,1.92905 -0.587946,0 0,-4.1031 1.224858,0 c 0.159226,0 0.305184,0.0265 0.437876,0.0796 0.132688,0.0531 0.247,0.12659 0.342938,0.22053 0.09593,0.0939 0.16941,0.20928 0.220434,0.34602 0.05102,0.13674 0.07653,0.28678 0.07653,0.45012 -4e-6,0.24495 -0.049,0.45317 -0.146988,0.62467 -0.09799,0.1715 -0.24498,0.29394 -0.44096,0.36732 l 0.587948,2.01483 -0.606262,0 z m 0.03065,-3.00682 c -4e-6,-0.15923 -0.049,-0.28578 -0.146988,-0.37966 -0.09799,-0.0939 -0.226602,-0.14082 -0.385828,-0.14082 l -0.606262,0 0,1.03479 0.606262,0 c 0.171436,0 0.303098,-0.0439 0.394986,-0.13166 0.09188,-0.0878 0.137826,-0.21532 0.13783,-0.38265 l 0,0 z m 3.290332,0.9492 c -2e-6,0.31434 -0.01736,0.58175 -0.05205,0.80221 -0.0347,0.22046 -0.09497,0.42869 -0.180814,0.62467 -0.102042,0.24495 -0.229592,0.42355 -0.38265,0.5358 -0.153064,0.11226 -0.345962,0.16839 -0.578696,0.16839 -0.244948,0 -0.443984,-0.0561 -0.597104,-0.16839 -0.153124,-0.11225 -0.280706,-0.29085 -0.382746,-0.5358 -0.08572,-0.20009 -0.145928,-0.40934 -0.180626,-0.62775 -0.0347,-0.21841 -0.05205,-0.48479 -0.05205,-0.79913 0,-0.31023 0.01734,-0.57661 0.05205,-0.79913 0.0347,-0.22252 0.09491,-0.43177 0.180626,-0.62776 0.106152,-0.24494 0.235788,-0.42152 0.388912,-0.52973 0.153122,-0.1082 0.3501,-0.16231 0.590938,-0.16231 0.236722,0 0.430616,0.0541 0.581686,0.16231 0.151064,0.10821 0.277618,0.2889 0.37966,0.54207 0.04086,0.10204 0.07662,0.20408 0.107274,0.30612 0.03065,0.10204 0.05516,0.20919 0.07354,0.32144 0.01838,0.11226 0.03164,0.23271 0.03981,0.36135 0.0082,0.12864 0.01224,0.27052 0.01224,0.42564 l 0,0 z m -0.563464,0 c -2e-6,-0.11438 -0.0031,-0.2185 -0.0092,-0.31239 -0.0061,-0.0939 -0.01426,-0.18062 -0.02448,-0.26024 -0.01022,-0.0796 -0.02349,-0.15614 -0.03981,-0.22959 -0.01632,-0.0734 -0.0347,-0.14692 -0.05513,-0.22043 -0.05308,-0.18377 -0.119424,-0.31649 -0.199036,-0.39816 -0.07962,-0.0817 -0.180658,-0.1225 -0.30313,-0.12251 -0.253172,10e-6 -0.426664,0.16945 -0.520482,0.50834 -0.04909,0.15511 -0.08279,0.31126 -0.101106,0.46843 -0.01832,0.15717 -0.02747,0.35007 -0.02747,0.57869 0,0.11027 0.0031,0.21134 0.0092,0.30323 0.0061,0.0919 0.01426,0.17764 0.02448,0.25725 0.01022,0.0796 0.02348,0.1582 0.03981,0.23576 0.01632,0.0776 0.0347,0.15714 0.05513,0.23874 0.09382,0.33889 0.26731,0.50834 0.520482,0.50834 0.122472,0 0.223514,-0.0408 0.30313,-0.12251 0.07961,-0.0817 0.145958,-0.21028 0.199036,-0.38583 0.02442,-0.0816 0.04482,-0.16016 0.0612,-0.23566 0.01638,-0.0755 0.02965,-0.15409 0.03981,-0.23576 0.01016,-0.0817 0.01728,-0.16844 0.0214,-0.26033 0.0041,-0.0919 0.0062,-0.19701 0.0062,-0.31537 l 0,0 z m 1.0817,2.05762 0,-4.1031 0.587948,0 0,3.55814 1.50033,0 0,0.54496 -2.088278,0 z m 2.361132,0 0,-4.1031 0.575612,0 0,4.1031 -0.575612,0 z m 3.032614,0 -1.267654,-2.74967 0,2.74967 -0.587948,0 0,-4.1031 0.587948,0 1.126742,2.46186 0,-2.46186 0.587946,0 0,4.1031 -0.447034,0 z m 2.746494,0 -0.287806,-1.12076 -0.881922,0 -0.269304,1.12076 -0.594114,0 1.022646,-4.1031 0.5758,0 1.022646,4.1031 -0.587946,0 z m -0.73484,-2.87825 -0.287808,1.18188 0.587948,0 -0.30014,-1.18188 z"
           id="text2312" />
      </g>
      <g
         id="g3008">
        <path
           inkscape:connector-curvature="0"
           style="fill:#ffffff;fill-opacity:1;stroke:none"
           d="m 22.558262,193.84965 c -0.86313,0.50593 -2.067286,0.80524 -3.037814,1.17869 -0.477574,0.39825 -0.856299,0.92455 -1.411717,1.7414 0.03967,0.67209 0.240251,1.03597 0.512361,1.31945 0.721328,0.41044 0.667757,0.43724 1.156387,0.79806 0.595833,0.43999 0.334665,0.11788 0.718383,0.60896 0.254494,0.3257 0.284834,0.69331 0.284834,0.69331 0,0 18.819988,0.92768 18.819988,0.92768 0,0 -5.047108,-5.25065 -5.047108,-5.25065 0,0 -4.051778,-0.0439 -4.051778,-0.0439 0,0 -0.819362,-0.9732 -0.819362,-0.9732 0,0 0.02879,-0.78158 0.02879,-0.78158 0,0 -7.152968,-0.21818 -7.152968,-0.21818 z"
           id="path4763"
           sodipodi:nodetypes="ccccsscccsccc" />
        <path
           inkscape:connector-curvature="0"
           style="fill:#003882;fill-opacity:1;stroke:none"
           d="m 22.99375,194.6 c -0.784594,0.4599 -1.692086,0.69158 -2.59375,0.9125 -0.48484,0.49637 -1.741474,1.09527 -1.125,1.94375 0.570621,0.21031 0.607302,0.31586 0.8125,0.58125 0.217804,0.28169 0.675426,0.36253 0.93125,0.5 0.43958,0.94267 0.72346,2.05897 1.5625,2.73125 0.876556,0.43834 0.971522,1.46834 1.825,1.8625 0.529684,0.53174 0.358914,1.22903 0.975,1.64375 0.355152,0.70604 1.369272,0.81557 1.34375,1.76875 0.380608,0.54897 -0.04102,1.53286 0.89375,1.75625 0.723868,0.59662 0.0049,1.92929 0.60625,2.3 0.152658,-0.34967 0.198888,-0.45666 0.20625,-0.48125 0.139264,-0.18581 -0.0063,0.58425 0.45,0.1875 0.02498,-0.0217 0.120816,-0.0969 0.1625,-0.13125 l 0,-1.96875 c 0,-2.2562 -0.02104,-2.47663 -0.25625,-2.775 -0.274888,-0.3487 -0.331064,-0.53957 -0.125,-0.4125 0.178748,0.11023 0.153998,-0.10891 -0.03125,-0.29375 -0.114578,-0.11433 -0.111586,-0.15 0,-0.15 0.0867,0 0.116124,-0.0893 0.06875,-0.2125 -0.05481,-0.14253 -0.03792,-0.18068 0.0625,-0.11875 0.08215,0.0507 0.149998,0.0304 0.15,-0.0438 0,-0.21065 -0.268732,-0.15898 -0.45625,0.0875 -0.09327,0.1226 -0.172766,0.15958 -0.175,0.0813 -0.0022,-0.0783 -0.199166,0.0382 -0.4375,0.2625 -0.238336,0.22429 -0.529426,0.4125 -0.64375,0.4125 -0.23617,0 -0.391266,-0.47282 -0.2875,-0.86875 0.05605,-0.21387 0.02384,-0.25189 -0.175,-0.2 -0.13567,0.0354 -0.249998,0.0135 -0.25,-0.05 0,-0.0635 -0.06849,-0.0988 -0.15625,-0.0813 -0.168822,0.0337 -0.183366,-0.18516 -0.0375,-0.60625 0.06436,-0.1858 -0.0054,-0.1537 -0.25625,0.125 -0.198804,0.2209 -0.31173,0.29136 -0.26875,0.1625 0.04138,-0.12406 0.01108,-0.225 -0.06875,-0.225 -0.07889,0 -0.03375,-0.12284 0.1,-0.275 0.133754,-0.15216 0.17416,-0.24042 0.09375,-0.19375 -0.08041,0.0467 -0.174468,0.005 -0.2125,-0.0937 -0.03803,-0.0989 0.01162,-0.21137 0.1125,-0.25 0.100886,-0.0386 0.187502,-0.17245 0.1875,-0.29375 0,-0.17153 -0.0371,-0.18139 -0.15625,-0.0625 -0.216664,0.21619 -0.396454,0.18455 -0.30625,-0.05 0.04359,-0.11336 0.02236,-0.16338 -0.05,-0.11875 -0.06941,0.0428 -0.131252,0.0201 -0.13125,-0.05 0,-0.0701 0.06604,-0.16458 0.14375,-0.2125 0.09898,-0.061 0.09333,-0.12078 -0.025,-0.19375 -0.09493,-0.0585 -0.243774,-0.0401 -0.3375,0.0375 -0.130638,0.10818 -0.14601,0.0825 -0.075,-0.10625 0.08008,-0.21284 0.06527,-0.21694 -0.125,-0.0625 -0.184676,0.14989 -0.21875,0.14309 -0.21875,-0.025 0,-0.10782 0.15466,-0.30631 0.34375,-0.44375 0.323754,-0.23532 0.335888,-0.26456 0.13125,-0.46875 -0.11952,-0.11926 -0.180114,-0.27736 -0.13125,-0.35625 0.214826,-0.34684 0.478312,-0.58223 0.58125,-0.51875 0.13524,0.0834 0.629184,-0.45582 0.54375,-0.59375 -0.08478,-0.13688 0.281728,-0.26336 0.5125,-0.175 0.105318,0.0403 0.193748,0.011 0.19375,-0.0687 0,-0.0862 0.17447,-0.13642 0.4375,-0.11875 0.503522,0.0338 0.728176,-0.10571 0.45,-0.28125 -0.138588,-0.0874 -0.142072,-0.11731 -0.01874,-0.11875 0.09191,-0.001 0.130396,-0.0558 0.0875,-0.125 -0.04685,-0.0757 0.01182,-0.0955 0.15,-0.0438 0.203232,0.0761 0.213184,0.0612 0.05625,-0.13125 -0.154498,-0.18946 -0.156758,-0.2047 0.01874,-0.1375 0.125432,0.048 0.265494,-0.0225 0.36875,-0.1875 0.100558,-0.16067 0.270958,-0.24604 0.43125,-0.25625 0.160292,-0.0102 0.31048,0.0547 0.36875,0.20625 0.07226,0.1879 0.104444,0.19187 0.20625,0.0312 0.10407,-0.1642 0.119732,-0.16108 0.125,0.006 0.0047,0.14912 0.04626,0.1361 0.1875,-0.05 0.167334,-0.22049 0.194958,-0.22337 0.3875,-0.0312 0.114528,0.11428 0.274142,0.17095 0.35625,0.125 0.09735,-0.0545 0.09781,-0.0244 -0.0062,0.0875 -0.285512,0.30693 -0.09967,0.45672 0.2875,0.23125 0.266112,-0.15497 0.846462,-0.24422 0.76875,-0.11875 -0.04296,0.0693 0.04057,0.19029 0.1875,0.26875 0.20501,0.10948 0.23405,0.18139 0.125,0.3125 -0.09031,0.10858 -0.09197,0.20099 -0.0125,0.25 0.06877,0.0424 0.16215,0.0149 0.20625,-0.0563 0.0441,-0.0712 0.136036,-0.125 0.20625,-0.125 0.07021,0 0.08522,0.0605 0.0375,0.1375 -0.06035,0.0974 -0.0026,0.0953 0.1875,-0.006 0.362854,-0.19377 0.610678,-0.0366 0.30625,0.19375 -0.144932,0.10964 -0.165414,0.17246 -0.0625,0.175 0.12981,0.003 0.132184,0.067 0.0125,0.29375 -0.08319,0.15763 -0.216498,0.32978 -0.29375,0.38125 -0.07726,0.0515 0.13229,0.0927 0.4625,0.0937 0.71377,0.002 1.250002,0.22153 1.25,0.50625 0,0.25994 -0.771054,0.68181 -1.05,0.575 -0.115434,-0.0442 -0.316618,-0.0168 -0.44375,0.0625 -0.20537,0.12804 -0.198938,0.13837 0.05625,0.0687 0.16752,-0.0457 0.287502,-0.023 0.2875,0.0563 0,0.0748 0.08008,0.1375 0.18125,0.1375 0.101178,0 0.219608,0.0557 0.2625,0.125 0.04655,0.0752 -0.01272,0.0932 -0.15,0.0438 -0.144344,-0.052 -0.09031,0.0511 0.15,0.28125 0.324904,0.3112 0.353428,0.37379 0.1625,0.4125 -0.207872,0.0421 -0.208306,0.0694 0.0375,0.38125 0.285768,0.3625 0.134,0.55569 -0.2125,0.26875 -0.169048,-0.13999 -0.193082,-0.12983 -0.15625,0.0812 0.02566,0.14702 -0.01786,0.23763 -0.1125,0.21875 -0.08777,-0.0175 -0.162498,0.0321 -0.1625,0.10625 0,0.0742 -0.05479,0.0995 -0.125,0.0563 -0.07021,-0.0433 -0.13125,0.0145 -0.13125,0.13125 0,0.1471 -0.0626,0.18865 -0.2125,0.13125 -0.189536,-0.0726 -0.188124,-0.0531 0.01874,0.175 0.12982,0.14313 0.192084,0.2625 0.1375,0.2625 -0.05458,0 -0.03501,0.079 0.05,0.18125 0.229844,0.27634 -0.391298,0.4013 -1.04375,0.20625 -0.4531,-0.13545 -0.53479,-0.13313 -0.6375,0.05 -0.109388,0.19503 -0.144572,0.1956 -0.44375,0 -0.233052,-0.15237 -0.361548,-0.16949 -0.4625,-0.0687 -0.100954,0.10073 -0.07495,0.1375 0.0875,0.1375 0.123506,0 0.189684,0.0547 0.15,0.11875 -0.03969,0.0641 -8e-4,0.14557 0.0875,0.18125 0.12513,0.0506 0.12328,0.0926 -0.0125,0.1875 -0.146918,0.10272 -0.14692,0.13017 0,0.18125 0.134928,0.0469 0.11671,0.12173 -0.08125,0.34375 -0.226446,0.25396 -0.257284,0.50439 -0.29375,2.1875 -0.0168,0.77541 -0.002,1.41601 0.03125,1.7125 0.103666,-0.10504 0.197196,-0.21077 0.2625,-0.3 0.36557,-0.49951 0.181224,-0.71301 0.1875,-0.8 0.546282,0.021 0.674824,0.0408 0.83125,0.0188 0.30849,-0.0435 0.377416,-0.23152 0.675,-0.475 0.11755,-0.118 0.28341,0.003 0.56875,-0.1625 0.586174,-0.33925 0.456148,-0.41099 0.4375,-0.5875 -0.01976,-0.18699 -0.157308,-0.23549 -0.15,-0.25625 0.06139,-0.17437 0.234436,0.0322 0.33125,0.225 0.561924,-0.10183 0.577374,-0.41893 0.7625,-0.61875 0.153882,-0.1661 0.08743,-0.37095 0.25625,-0.51875 0.168824,-0.1478 0.432966,-0.0658 0.575,-0.175 0.284066,-0.2183 0.405082,-0.23427 0.6125,-0.40625 0.41483,-0.34395 0.240026,-0.13043 0.4375,-0.38125 0.394952,-0.50165 -0.194714,-0.45774 -0.1875,-0.55 0.02056,-0.263 0.65986,-0.85996 1.04375,-1.375 0.53621,-0.88579 1.189942,-0.94553 1.925,-1.5375 -1.45695,-1.60953 -3.042846,-3.09946 -4.58125,-4.63125 -1.533562,-0.01 -3.078932,-0.0727 -4.6125,-0.0812 0.36389,-0.79548 -0.575716,-1.57644 -0.8875,-1.35 -0.102868,-0.33301 0.08441,-0.467 -0.44375,-0.50625 0,0 -1.75625,-0.0187 -1.75625,-0.0187 2e-6,0 -3.4125,-0.14375 -3.4125,-0.14375 z m 0.88125,1.31875 c 0.05505,-0.0178 0.222414,0.0742 0.425,0.2625 0.846362,0.78678 0.601496,2.30172 -0.44375,2.7375 -0.482052,0.20097 -0.923582,0.22533 -1.18125,0.0625 -0.130134,-0.0822 -0.07162,-0.13636 0.21875,-0.2 1.193072,-0.26147 1.841484,-1.80746 1.1,-2.625 -0.131148,-0.1446 -0.161564,-0.22362 -0.11875,-0.2375 z m 14.86875,5.40625 c -0.0093,0.11974 0.145268,0.0658 0,0 z"
           id="Abbeville" />
      </g>
    </g>
    <text
       xml:space="preserve"
       style="font-size:31px;font-style:normal;font-variant:normal;font-weight:normal;font-stretch:normal;text-align:center;line-height:125%;writing-mode:lr;text-anchor:middle;fill:#003882;fill-opacity:1;stroke:none;font-family:Roadgeek 2005 Series D;-inkscape-font-specification:Roadgeek 2005 Series D"
       x="30"
       y="234"
       id="text2290"
       sodipodi:linespacing="125%"><tspan
         sodipodi:role="line"
         id="tspan3027">%num%</tspan></text>
  </g>
</svg>
