<?xml version="1.0" encoding="UTF-8" standalone="no"?>
<!-- Created with Inkscape (http://www.inkscape.org/) -->

<svg
   xmlns:dc="http://purl.org/dc/elements/1.1/"
   xmlns:cc="http://creativecommons.org/ns#"
   xmlns:rdf="http://www.w3.org/1999/02/22-rdf-syntax-ns#"
   xmlns:svg="http://www.w3.org/2000/svg"
   xmlns="http://www.w3.org/2000/svg"
   xmlns:sodipodi="http://sodipodi.sourceforge.net/DTD/sodipodi-0.dtd"
   xmlns:inkscape="http://www.inkscape.org/namespaces/inkscape"
   width="48"
   height="48"
   id="svg2"
   sodipodi:version="0.32"
   inkscape:version="0.48.1 r9760"
   version="1.0"
   sodipodi:docname="US:TX_2.svg">
  <defs
     id="defs4">
    <inkscape:perspective
       sodipodi:type="inkscape:persp3d"
       inkscape:vp_x="0 : 456 : 1"
       inkscape:vp_y="0 : 1000 : 0"
       inkscape:vp_z="773 : 456 : 1"
       inkscape:persp3d-origin="386.5 : 304 : 1"
       id="perspective3821" />
    <inkscape:perspective
       id="perspective3039"
       inkscape:persp3d-origin="0.5 : 0.33333333 : 1"
       inkscape:vp_z="1 : 0.5 : 1"
       inkscape:vp_y="0 : 1000 : 0"
       inkscape:vp_x="0 : 0.5 : 1"
       sodipodi:type="inkscape:persp3d" />
    <inkscape:perspective
       id="perspective3286"
       inkscape:persp3d-origin="0.5 : 0.33333333 : 1"
       inkscape:vp_z="1 : 0.5 : 1"
       inkscape:vp_y="0 : 1000 : 0"
       inkscape:vp_x="0 : 0.5 : 1"
       sodipodi:type="inkscape:persp3d" />
    <inkscape:perspective
       id="perspective3563"
       inkscape:persp3d-origin="0.5 : 0.33333333 : 1"
       inkscape:vp_z="1 : 0.5 : 1"
       inkscape:vp_y="0 : 1000 : 0"
       inkscape:vp_x="0 : 0.5 : 1"
       sodipodi:type="inkscape:persp3d" />
    <inkscape:perspective
       id="perspective4986"
       inkscape:persp3d-origin="0.5 : 0.33333333 : 1"
       inkscape:vp_z="1 : 0.5 : 1"
       inkscape:vp_y="0 : 1000 : 0"
       inkscape:vp_x="0 : 0.5 : 1"
       sodipodi:type="inkscape:persp3d" />
    <inkscape:perspective
       id="perspective5226"
       inkscape:persp3d-origin="0.5 : 0.33333333 : 1"
       inkscape:vp_z="1 : 0.5 : 1"
       inkscape:vp_y="0 : 1000 : 0"
       inkscape:vp_x="0 : 0.5 : 1"
       sodipodi:type="inkscape:persp3d" />
    <inkscape:perspective
       id="perspective5489"
       inkscape:persp3d-origin="0.5 : 0.33333333 : 1"
       inkscape:vp_z="1 : 0.5 : 1"
       inkscape:vp_y="0 : 1000 : 0"
       inkscape:vp_x="0 : 0.5 : 1"
       sodipodi:type="inkscape:persp3d" />
    <inkscape:perspective
       id="perspective5489-8"
       inkscape:persp3d-origin="0.5 : 0.33333333 : 1"
       inkscape:vp_z="1 : 0.5 : 1"
       inkscape:vp_y="0 : 1000 : 0"
       inkscape:vp_x="0 : 0.5 : 1"
       sodipodi:type="inkscape:persp3d" />
    <inkscape:perspective
       id="perspective5881"
       inkscape:persp3d-origin="0.5 : 0.33333333 : 1"
       inkscape:vp_z="1 : 0.5 : 1"
       inkscape:vp_y="0 : 1000 : 0"
       inkscape:vp_x="0 : 0.5 : 1"
       sodipodi:type="inkscape:persp3d" />
  </defs>
  <sodipodi:namedview
     id="base"
     pagecolor="#ffffff"
     bordercolor="#666666"
     borderopacity="1.0"
     inkscape:pageopacity="0.0"
     inkscape:pageshadow="2"
     inkscape:zoom="16.895833"
     inkscape:cx="24"
     inkscape:cy="24"
     inkscape:document-units="px"
     inkscape:current-layer="layer1"
     inkscape:window-width="1278"
     inkscape:window-height="996"
     inkscape:window-x="1"
     inkscape:window-y="27"
     showgrid="true"
     showborder="true"
     inkscape:showpageshadow="false"
     inkscape:window-maximized="0"
     gridtolerance="10">
    <inkscape:grid
       type="xygrid"
       id="grid3009"
       empspacing="5"
       visible="true"
       enabled="true"
       snapvisiblegridlinesonly="true" />
  </sodipodi:namedview>
  <metadata
     id="metadata7">
    <rdf:RDF>
      <cc:Work
         rdf:about="">
        <dc:format>image/svg+xml</dc:format>
        <dc:type
           rdf:resource="http://purl.org/dc/dcmitype/StillImage" />
        <dc:title></dc:title>
      </cc:Work>
    </rdf:RDF>
  </metadata>
  <g
     inkscape:label="Layer 1"
     inkscape:groupmode="layer"
     id="layer1"
     transform="translate(-433.27043,-425.78745)">
    <path
       id="path1435"
       d=""
       style="fill:#a8e50a"
       inkscape:connector-curvature="0" />
    <g
       id="g3023">
      <g
         transform="matrix(0.11979167,0,0,0.11979167,434.27043,426.78745)"
         id="g5833">
        <path
           d="M 0,24 C 0,10.745117 10.745117,0 24,0 h 336 c 13.25488,0 24,10.745117 24,24 v 336 c 0,13.25488 -10.74512,24 -24,24 H 24 C 10.745117,384 0,373.25488 0,360 V 24 l 0,0 z"
           id="path5835"
           inkscape:connector-curvature="0" />
        <path
           d="M 192,192"
           id="path5837"
           inkscape:connector-curvature="0" />
      </g>
      <g
         transform="matrix(0.125,0,0,0.125,433.27043,425.78745)"
         id="g5839">
        <polygon
           style="fill:#ffffff"
           points="360,360 24,360 24,24 24,24 360,24 "
           id="polygon5841" />
        <path
           style="fill:#ffffff"
           d="M 192,192"
           id="path5843"
           inkscape:connector-curvature="0" />
      </g>
    </g>
    <g
       id="g5845"
       transform="matrix(0.125,0,0,0.125,433.27043,425.78745)">
      <polygon
         id="polygon5847"
         points="103.713,257.107 103.713,265.775 89.4189,265.775 89.4189,318.894 79.6436,318.894 79.6436,265.775 65.5342,265.775 65.5342,257.107 "
         clip-rule="evenodd"
         style="fill-rule:evenodd" />
      <polygon
         id="polygon5849"
         points="154.9,308.934 154.9,318.894 116.537,318.894 116.537,257.107 152.963,257.107 152.963,266.882 126.312,266.882 126.312,282.006 144.295,282.006 144.295,291.966 126.312,291.966 126.312,308.934 "
         clip-rule="evenodd"
         style="fill-rule:evenodd" />
      <polygon
         id="polygon5851"
         points="191.055,286.986 206.64,318.894 195.573,318.894 185.614,298.328 175.654,318.894 164.588,318.894 179.989,286.986 165.695,257.107 176.761,257.107 185.614,275.551 194.468,257.107 205.533,257.107 "
         clip-rule="evenodd"
         style="fill-rule:evenodd" />
      <path
         inkscape:connector-curvature="0"
         id="path5853"
         d="m 257.2627,318.89355 -6.08594,-17.33691 h -19.27344 l -6.08691,17.33691 h -10.4209 l 21.30273,-61.78613 h 9.68262 l 21.30273,61.78613 H 257.2627 z m -15.58497,-44.63378 -6.3623,17.33691 h 12.35742 l -5.99512,-17.33691 z"
         clip-rule="evenodd"
         style="fill-rule:evenodd" />
      <path
         inkscape:connector-curvature="0"
         id="path5855"
         d="m 318.46582,301.0957 c 0,2.82813 -0.52148,5.44043 -1.56738,7.83789 -1.04492,2.39844 -2.55176,4.48828 -4.51856,6.27149 -1.72168,1.53711 -3.73437,2.7207 -6.04101,3.5498 -2.30469,0.83008 -4.7793,1.24512 -7.42285,1.24512 -5.34864,0 -9.91309,-1.42969 -13.69434,-4.28809 -3.78125,-2.85839 -6.7168,-6.65527 -8.80664,-11.38964 l 9.31348,-3.41211 c 1.29101,2.95117 3.07421,5.21093 5.34863,6.77929 2.27539,1.56739 4.88769,2.35157 7.83887,2.35157 2.88964,0 5.20996,-0.87696 6.96191,-2.62891 1.75195,-1.75195 2.62891,-3.91895 2.62891,-6.50195 0,-2.02832 -0.53809,-3.68848 -1.61426,-4.9795 -1.0752,-1.29101 -2.47461,-2.38183 -4.19629,-3.27343 -1.7207,-0.8916 -3.61133,-1.67481 -5.6709,-2.35157 -2.05957,-0.67675 -4.10351,-1.41406 -6.13281,-2.21386 -0.92188,-0.36817 -2.05957,-0.89063 -3.41211,-1.56739 -1.35254,-0.67578 -2.65918,-1.61425 -3.91895,-2.8125 -1.25976,-1.19921 -2.33593,-2.68945 -3.22754,-4.47265 -0.8916,-1.78223 -1.33691,-3.96582 -1.33691,-6.54785 0,-3.01172 0.49121,-5.57911 1.47461,-7.7002 0.98437,-2.12109 2.32129,-3.84277 4.01172,-5.16406 1.6914,-1.32129 3.71973,-2.29004 6.08691,-2.90527 2.36621,-0.61426 4.9336,-0.92188 7.7002,-0.92188 4.36523,0 8.00781,1.1377 10.92773,3.41211 2.91992,2.27539 5.14844,5.34863 6.68555,9.22168 l -8.66797,2.58301 c -0.49219,-0.98438 -1.13769,-1.87598 -1.9375,-2.67481 -0.67578,-0.67676 -1.61328,-1.29101 -2.8125,-1.84472 -1.19824,-0.55274 -2.6582,-0.86036 -4.37988,-0.92188 -1.10645,-0.0615 -2.25879,0.0156 -3.45801,0.23047 -1.19922,0.21484 -2.25977,0.59961 -3.18164,1.15234 -0.92188,0.55371 -1.66016,1.30664 -2.21289,2.25977 -0.55371,0.95312 -0.76953,2.13672 -0.64649,3.55078 0.12305,1.90527 0.95313,3.36523 2.49024,4.37988 1.53711,1.01465 3.41211,1.89063 5.625,2.62793 2.21387,0.73828 4.5957,1.49121 7.14746,2.25977 2.55176,0.76855 4.90332,1.875 7.05469,3.32031 2.15136,1.44434 3.95019,3.38086 5.3955,5.80957 1.44434,2.42871 2.16602,5.6709 2.16602,9.72949 z"
         clip-rule="evenodd"
         style="fill-rule:evenodd" />
    </g>
    <text
       xml:space="preserve"
       style="font-size:32px;font-style:normal;font-variant:normal;font-weight:normal;font-stretch:normal;text-align:center;line-height:100%;writing-mode:lr;text-anchor:middle;fill:#000000;fill-opacity:1;fill-rule:nonzero;stroke:none;font-family:Roadgeek 2005 Series C;-inkscape-font-specification:Roadgeek 2005 Series C"
       x="457.27042"
       y="453.78745"
       id="routenum"
       sodipodi:linespacing="100%"><tspan
         sodipodi:role="line"
         id="tspan3052">%num%</tspan></text>
  </g>
</svg>
