<?xml version="1.0" encoding="UTF-8" standalone="no"?>
<!-- Creator: CorelDRAW -->

<svg
   xmlns:dc="http://purl.org/dc/elements/1.1/"
   xmlns:cc="http://creativecommons.org/ns#"
   xmlns:rdf="http://www.w3.org/1999/02/22-rdf-syntax-ns#"
   xmlns:svg="http://www.w3.org/2000/svg"
   xmlns="http://www.w3.org/2000/svg"
   xmlns:sodipodi="http://sodipodi.sourceforge.net/DTD/sodipodi-0.dtd"
   xmlns:inkscape="http://www.inkscape.org/namespaces/inkscape"
   xml:space="preserve"
   width="60"
   height="48"
   style="fill-rule:evenodd"
   viewBox="0 0 60 48"
   version="1.1"
   enable-background="new 0 0 480.0004883 384.0004883"
   id="svg3095"
   inkscape:version="0.48.1 r9760"
   sodipodi:docname="US:TN:Secondary_2.svg"><metadata
   id="metadata3110"><rdf:RDF><cc:Work
       rdf:about=""><dc:format>image/svg+xml</dc:format><dc:type
         rdf:resource="http://purl.org/dc/dcmitype/StillImage" /></cc:Work></rdf:RDF></metadata><sodipodi:namedview
   pagecolor="#ffffff"
   bordercolor="#666666"
   borderopacity="1"
   objecttolerance="10"
   gridtolerance="10"
   guidetolerance="10"
   inkscape:pageopacity="0"
   inkscape:pageshadow="2"
   inkscape:window-width="1598"
   inkscape:window-height="1198"
   id="namedview3108"
   showgrid="true"
   inkscape:showpageshadow="false"
   inkscape:zoom="20.25"
   inkscape:cx="30"
   inkscape:cy="24"
   inkscape:window-x="1"
   inkscape:window-y="1"
   inkscape:window-maximized="0"
   inkscape:current-layer="svg3095"><inkscape:grid
     type="xygrid"
     id="grid4257"
     empspacing="5"
     visible="true"
     enabled="true"
     snapvisiblegridlinesonly="true" /></sodipodi:namedview>
 <defs
   id="defs3097">
  <style
   type="text/css"
   id="style3099">
   
    .fil0 {fill:black}
    .fil1 {fill:white}
   
  </style>
 
  
  
 
   
   
  </defs>
 <g
   id="g4270"><path
     transform="matrix(0.99677766,0,0,0.99594046,0.09667025,0.09742896)"
     d="M 8,0.90625 C 4.0991756,0.90625 0.90625,4.0990715 0.90625,8 c 0,1.4225048 0.4207774,2.756015 1.15625,3.875 l 20.34375,31.09375 c 1.622245,2.468369 4.420563,4.125 7.59375,4.125 3.173071,0 5.971488,-1.656619 7.59375,-4.125 L 57.9375,11.875 C 58.672779,10.756084 59.09375,9.4226058 59.09375,8 59.09375,4.0990715 55.900825,0.90625 52,0.90625 l -44,0 z"
     id="path4268"
     style="fill:#000000"
     inkscape:original="M 8 2 C 4.6863032 2 2 4.6862032 2 8 C 2 9.2152989 2.3476793 10.336322 2.96875 11.28125 L 23.3125 42.375 C 24.742299 44.550548 27.202015 46 30 46 C 32.797848 46 35.257701 44.550536 36.6875 42.375 L 57.03125 11.28125 C 57.652226 10.336276 58 9.2153526 58 8 C 58 4.6862032 55.313697 2 52 2 L 8 2 z "
     inkscape:radius="1.0864197"
     sodipodi:type="inkscape:offset" /><path
     style="fill:#ffffff"
     inkscape:connector-curvature="0"
     d="m 51.999619,2.0000136 c 3.313697,0 5.999995,2.6861974 5.999995,5.9999942 0,1.2153526 -0.361465,2.3462352 -0.982441,3.2912092 l -20.32748,31.09697 c -1.429799,2.175536 -3.892196,3.611809 -6.690044,3.611809 -2.797985,0 -5.260382,-1.436261 -6.690181,-3.611809 L 2.9819877,11.291217 C 2.360917,10.346289 1.9995949,9.2153567 1.9995949,8.0000578 c 0,-3.3137968 2.6862974,-5.9999942 5.9999942,-5.9999942 1.8703857,0 42.1294599,0 43.9999579,0 z"
     class="fil1"
     id="_142409752" /></g>
<text
   xml:space="preserve"
   style="font-size:32px;font-style:normal;font-variant:normal;font-weight:normal;font-stretch:normal;text-align:center;line-height:125%;letter-spacing:0px;word-spacing:0px;writing-mode:lr;text-anchor:middle;fill:#000000;fill-opacity:1;stroke:none;font-family:Roadgeek 2005 Series D;-inkscape-font-specification:Roadgeek 2005 Series D"
   x="30"
   y="26"
   id="text3114"
   sodipodi:linespacing="125%"><tspan
     sodipodi:role="line"
     id="tspan4274">%num%</tspan></text>

</svg>