<?xml version="1.0" encoding="UTF-8" standalone="no"?>
<!-- Created with Inkscape (http://www.inkscape.org/) -->

<svg
   xmlns:dc="http://purl.org/dc/elements/1.1/"
   xmlns:cc="http://creativecommons.org/ns#"
   xmlns:rdf="http://www.w3.org/1999/02/22-rdf-syntax-ns#"
   xmlns:svg="http://www.w3.org/2000/svg"
   xmlns="http://www.w3.org/2000/svg"
   xmlns:sodipodi="http://sodipodi.sourceforge.net/DTD/sodipodi-0.dtd"
   xmlns:inkscape="http://www.inkscape.org/namespaces/inkscape"
   width="51"
   height="48"
   id="svg2"
   sodipodi:version="0.32"
   inkscape:version="0.48.1 r9760"
   version="1.0"
   sodipodi:docname="US:TX:FM.svg">
  <defs
     id="defs4">
    <inkscape:perspective
       sodipodi:type="inkscape:persp3d"
       inkscape:vp_x="0 : 456 : 1"
       inkscape:vp_y="0 : 1000 : 0"
       inkscape:vp_z="773 : 456 : 1"
       inkscape:persp3d-origin="386.5 : 304 : 1"
       id="perspective3821" />
    <inkscape:perspective
       id="perspective3039"
       inkscape:persp3d-origin="0.5 : 0.33333333 : 1"
       inkscape:vp_z="1 : 0.5 : 1"
       inkscape:vp_y="0 : 1000 : 0"
       inkscape:vp_x="0 : 0.5 : 1"
       sodipodi:type="inkscape:persp3d" />
    <inkscape:perspective
       id="perspective3286"
       inkscape:persp3d-origin="0.5 : 0.33333333 : 1"
       inkscape:vp_z="1 : 0.5 : 1"
       inkscape:vp_y="0 : 1000 : 0"
       inkscape:vp_x="0 : 0.5 : 1"
       sodipodi:type="inkscape:persp3d" />
    <inkscape:perspective
       id="perspective3563"
       inkscape:persp3d-origin="0.5 : 0.33333333 : 1"
       inkscape:vp_z="1 : 0.5 : 1"
       inkscape:vp_y="0 : 1000 : 0"
       inkscape:vp_x="0 : 0.5 : 1"
       sodipodi:type="inkscape:persp3d" />
    <inkscape:perspective
       id="perspective4986"
       inkscape:persp3d-origin="0.5 : 0.33333333 : 1"
       inkscape:vp_z="1 : 0.5 : 1"
       inkscape:vp_y="0 : 1000 : 0"
       inkscape:vp_x="0 : 0.5 : 1"
       sodipodi:type="inkscape:persp3d" />
    <inkscape:perspective
       id="perspective5226"
       inkscape:persp3d-origin="0.5 : 0.33333333 : 1"
       inkscape:vp_z="1 : 0.5 : 1"
       inkscape:vp_y="0 : 1000 : 0"
       inkscape:vp_x="0 : 0.5 : 1"
       sodipodi:type="inkscape:persp3d" />
    <inkscape:perspective
       id="perspective5489"
       inkscape:persp3d-origin="0.5 : 0.33333333 : 1"
       inkscape:vp_z="1 : 0.5 : 1"
       inkscape:vp_y="0 : 1000 : 0"
       inkscape:vp_x="0 : 0.5 : 1"
       sodipodi:type="inkscape:persp3d" />
    <inkscape:perspective
       id="perspective5489-8"
       inkscape:persp3d-origin="0.5 : 0.33333333 : 1"
       inkscape:vp_z="1 : 0.5 : 1"
       inkscape:vp_y="0 : 1000 : 0"
       inkscape:vp_x="0 : 0.5 : 1"
       sodipodi:type="inkscape:persp3d" />
    <inkscape:perspective
       id="perspective5881"
       inkscape:persp3d-origin="0.5 : 0.33333333 : 1"
       inkscape:vp_z="1 : 0.5 : 1"
       inkscape:vp_y="0 : 1000 : 0"
       inkscape:vp_x="0 : 0.5 : 1"
       sodipodi:type="inkscape:persp3d" />
    <inkscape:perspective
       id="perspective6076"
       inkscape:persp3d-origin="0.5 : 0.33333333 : 1"
       inkscape:vp_z="1 : 0.5 : 1"
       inkscape:vp_y="0 : 1000 : 0"
       inkscape:vp_x="0 : 0.5 : 1"
       sodipodi:type="inkscape:persp3d" />
    <inkscape:perspective
       id="perspective6358"
       inkscape:persp3d-origin="0.5 : 0.33333333 : 1"
       inkscape:vp_z="1 : 0.5 : 1"
       inkscape:vp_y="0 : 1000 : 0"
       inkscape:vp_x="0 : 0.5 : 1"
       sodipodi:type="inkscape:persp3d" />
    <inkscape:perspective
       id="perspective6392"
       inkscape:persp3d-origin="0.5 : 0.33333333 : 1"
       inkscape:vp_z="1 : 0.5 : 1"
       inkscape:vp_y="0 : 1000 : 0"
       inkscape:vp_x="0 : 0.5 : 1"
       sodipodi:type="inkscape:persp3d" />
  </defs>
  <sodipodi:namedview
     id="base"
     pagecolor="#ffffff"
     bordercolor="#666666"
     borderopacity="1.0"
     inkscape:pageopacity="0.0"
     inkscape:pageshadow="2"
     inkscape:zoom="20.25"
     inkscape:cx="25.598765"
     inkscape:cy="24"
     inkscape:document-units="px"
     inkscape:current-layer="layer1"
     inkscape:window-width="1598"
     inkscape:window-height="1198"
     inkscape:window-x="1"
     inkscape:window-y="1"
     showgrid="true"
     showborder="true"
     inkscape:showpageshadow="false"
     inkscape:window-maximized="0">
    <inkscape:grid
       type="xygrid"
       id="grid3176"
       empspacing="5"
       visible="true"
       enabled="true"
       snapvisiblegridlinesonly="true" />
  </sodipodi:namedview>
  <metadata
     id="metadata7">
    <rdf:RDF>
      <cc:Work
         rdf:about="">
        <dc:format>image/svg+xml</dc:format>
        <dc:type
           rdf:resource="http://purl.org/dc/dcmitype/StillImage" />
        <dc:title />
      </cc:Work>
    </rdf:RDF>
  </metadata>
  <g
     inkscape:label="Layer 1"
     inkscape:groupmode="layer"
     id="layer1"
     transform="translate(-455.25671,-441.53663)">
    <path
       id="path1435"
       d=""
       style="fill:#a8e50a"
       inkscape:connector-curvature="0" />
    <g
       id="g3049">
      <path
         transform="matrix(1.0702632,0,0,1.0710229,-32.173579,-33.045358)"
         d="m 478.4375,443.75 -9.59375,0.15625 a 0.89547522,0.89547522 0 0 0 -0.90625,0.90625 l 0,16.40625 -10.6875,-0.15625 a 0.89547522,0.89547522 0 0 0 -0.875,1.03125 c 0.27977,1.80651 1.50501,3.26429 3.0625,4.15625 0.0128,0.007 0.0184,0.024 0.0312,0.0312 a 0.89547522,0.89547522 0 0 0 0,0.0312 0.89547522,0.89547522 0 0 0 0.46875,0.40625 c 0.62275,0.23828 1.46355,0.97838 1.8125,1.5625 a 0.89547522,0.89547522 0 0 0 0.0625,0.0625 c 0.22789,0.31301 0.38247,0.78783 0.53125,1.3125 l 0.0312,0 c 0.11252,0.72014 0.2935,1.41482 0.6875,2.09375 0.6708,1.21193 1.77474,2.08233 3.03125,2.5625 l 0.0312,0.0312 0.1875,0.15625 a 0.89547522,0.89547522 0 0 0 0.125,0.0625 l 0.25,0.15625 a 0.89547522,0.89547522 0 0 0 0.0937,0.0625 l 0.28125,0.125 a 0.89547522,0.89547522 0 0 0 0.1875,0.0625 l 0.28125,0.0625 a 0.89547522,0.89547522 0 0 0 0.0937,0.0312 l 0.3125,0.0312 a 0.89547522,0.89547522 0 0 0 0.1875,0 l 0.3125,-0.0312 a 0.89547522,0.89547522 0 0 0 0.0937,-0.0312 l 0.3125,-0.0625 a 0.89547522,0.89547522 0 0 0 0.1875,-0.0625 l 0.28125,-0.125 a 0.89547522,0.89547522 0 0 0 0.0937,-0.0625 l 0.25,-0.15625 a 0.89547522,0.89547522 0 0 0 0.0625,-0.0312 l 0.25,-0.1875 a 0.89547522,0.89547522 0 0 0 0.1875,-0.1875 l 0.1875,-0.25 a 0.89547522,0.89547522 0 0 0 0.1875,-0.53125 c 0.01,-0.67394 0.32582,-1.22746 0.875,-1.53125 1.63169,-0.31926 3.48443,0.43357 4.375,1.84375 1.04486,2.37071 2.64879,4.60883 4.4375,6.46875 0.37551,1.70622 0.99385,3.21564 2.09375,4.625 a 0.89547522,0.89547522 0 0 0 0.59375,0.3125 c 0.8642,0.12012 2.0018,0.6005 2.71875,1.125 a 0.89547522,0.89547522 0 0 0 0.78125,0.15625 c 0.62294,-0.16976 1.18635,-0.0984 1.75,0.25 1.13342,0.87115 2.92022,0.11139 3.03125,-1.34375 a 0.89547522,0.89547522 0 0 0 0,-0.0625 l 0,-0.0312 a 0.89547522,0.89547522 0 0 0 -0.21875,-0.5625 c -1.32051,-1.65853 -1.62942,-3.84823 -0.78125,-5.78125 0.26245,-0.54696 0.51682,-0.96425 0.90625,-1.40625 a 0.89547522,0.89547522 0 0 0 0.0312,0 c 0.2191,-0.25586 0.25488,-0.31675 0.34375,-0.375 0.0857,-0.0562 0.302,-0.16395 0.625,-0.375 0.008,-0.005 0.0236,0.005 0.0312,0 1.34714,-0.83857 2.67912,-1.65875 4.03125,-2.46875 l 0,-0.0312 c 0.69769,-0.23147 1.16357,-0.87538 1.15625,-1.59375 a 0.89547522,0.89547522 0 0 0 0.5,-0.21875 c 0.89072,-0.71417 1.83156,-1.2935 2.875,-1.75 a 0.89547522,0.89547522 0 0 0 0.46875,-0.40625 l 0.125,-0.25 0.125,-0.25 a 0.89547522,0.89547522 0 0 0 0.0312,-0.15625 l 0.15625,-0.5 0,-0.0312 0.0937,-0.25 a 0.89547522,0.89547522 0 0 0 0.0312,-0.15625 l 0.0312,-0.21875 0,-0.0312 0.0937,-0.53125 a 0.89547522,0.89547522 0 0 0 0,-0.3125 l -0.15625,-0.8125 a 0.89547522,0.89547522 0 0 0 -0.0312,-0.125 l -0.0312,-0.0312 0,-0.125 -0.0312,-0.0312 0,-0.0625 a 0.89547522,0.89547522 0 0 0 -0.0312,-0.15625 c 0.44408,-0.64588 0.7043,-1.39302 0.53125,-2.1875 -0.002,-0.0104 0.002,-0.0209 0,-0.0312 -0.12703,-0.69829 -0.5205,-1.18162 -1.03125,-1.5625 -0.20951,-0.75049 -0.63217,-1.36947 -1.25,-1.84375 l -0.5,-5.8125 A 0.89547522,0.89547522 0 0 0 498.5,453.90625 c -0.58551,-0.0583 -1.16683,-0.1297 -1.75,-0.25 l -0.125,-0.0312 0,-0.0312 -0.0625,-0.0312 a 0.89547522,0.89547522 0 0 0 -0.125,-0.0937 l -0.21875,-0.125 -0.21875,-0.125 -0.21875,-0.125 a 0.89547522,0.89547522 0 0 0 -0.125,-0.0625 l -0.25,-0.0937 -0.25,-0.0937 a 0.89547522,0.89547522 0 0 0 -0.0937,-0.0312 l -0.25,-0.0625 a 0.89547522,0.89547522 0 0 0 -0.0937,0 l -0.25,-0.0312 -0.25,-0.0312 a 0.89547522,0.89547522 0 0 0 -0.125,-0.0312 l -0.25,0 a 0.89547522,0.89547522 0 0 0 -0.125,0.0312 l -0.25,0.0312 -0.25,0.0312 -0.25,0.0312 a 0.89547522,0.89547522 0 0 0 -0.1875,0.0312 l -0.25,0.0937 a 0.89547522,0.89547522 0 0 0 -0.125,0.0625 c -0.38774,0.22435 -1.08846,0.45894 -1.59375,0.5625 -0.846,-0.44644 -1.81168,-0.55886 -2.71875,-0.1875 l 0,-0.0312 c -0.89523,0.19581 -1.93844,-0.0629 -2.65625,-0.65625 A 0.89547522,0.89547522 0 0 0 484.625,452.5 c -0.86402,0.12193 -1.75091,-0.0231 -2.53125,-0.40625 L 482,452.0625 481.9375,452 l -0.0312,0 -0.0937,-0.125 a 0.89547522,0.89547522 0 0 0 -0.21875,-0.1875 l -0.0937,-0.0312 c -0.0102,-0.006 -0.0211,0.005 -0.0312,0 -0.40643,-0.21088 -0.8014,-0.19859 -1.15625,-0.0937 -0.21802,-0.1194 -0.43739,-0.21205 -0.6875,-0.28125 l -0.28125,-6.65625 a 0.89547522,0.89547522 0 0 0 -0.90625,-0.875 z"
         id="path3039"
         style="fill:#000000;fill-rule:evenodd"
         inkscape:original="M 478.4375 444.65625 L 468.84375 444.8125 L 468.84375 462.125 L 457.25 461.96875 C 457.51257 463.66421 458.71292 465.15796 460.28125 465.84375 L 460.25 465.875 C 461.12312 466.20908 462.0549 467.01512 462.53125 467.8125 C 462.8711 468.27929 463.0623 468.85452 463.21875 469.40625 C 463.31495 470.09239 463.4933 470.70862 463.84375 471.3125 C 464.40948 472.3346 465.34691 473.09183 466.4375 473.5 L 466.65625 473.59375 L 466.90625 473.8125 L 467.15625 473.96875 L 467.4375 474.09375 L 467.71875 474.15625 L 468.03125 474.1875 L 468.34375 474.15625 L 468.65625 474.09375 L 468.9375 473.96875 L 469.1875 473.8125 L 469.4375 473.625 L 469.625 473.375 C 469.6396 472.34832 470.1895 471.40677 471.125 470.96875 C 473.16771 470.51436 475.41114 471.4451 476.53125 473.21875 C 477.5679 475.61882 479.21781 477.95089 481.0625 479.8125 L 481.03125 479.8125 C 481.37836 481.48592 481.97596 482.86655 483.03125 484.21875 C 484.08257 484.36488 485.29942 484.87317 486.15625 485.5 C 487.0151 485.26595 487.87283 485.41013 488.625 485.875 C 489.21589 486.43602 490.22032 486.01732 490.28125 485.21875 L 490.28125 485.1875 C 488.76081 483.27787 488.39246 480.70799 489.375 478.46875 C 489.66524 477.86387 489.99242 477.34891 490.4375 476.84375 C 490.93127 476.26712 491.00761 476.34505 491.625 475.9375 C 492.97908 475.09465 494.31819 474.25779 495.6875 473.4375 C 496.35036 473.4594 496.69759 472.65548 496.28125 472.15625 L 496.3125 472.15625 L 496.125 471.9375 L 496.0625 471.6875 L 496.125 471.4375 L 496.28125 471.21875 L 496.53125 471.09375 L 496.78125 471.125 L 497.03125 471.21875 L 497.1875 471.4375 L 497.25 471.6875 C 498.20013 470.92569 499.22815 470.30057 500.34375 469.8125 L 500.46875 469.5625 L 500.59375 469.3125 L 500.75 468.78125 L 500.84375 468.5 L 500.875 468.25 L 500.96875 467.6875 L 500.8125 466.875 L 500.75 466.6875 L 500.71875 466.46875 L 500.59375 466.09375 C 501.13263 465.60829 501.382 464.86686 501.21875 464.15625 C 501.14375 463.71729 500.75458 463.19778 500.375 462.96875 C 500.25713 462.11808 499.70368 461.33193 498.9375 460.9375 L 498.40625 454.8125 C 497.7408 454.7462 497.09094 454.63907 496.4375 454.5 L 496.1875 454.40625 L 496 454.25 L 495.78125 454.125 L 495.5625 454 L 495.34375 453.875 L 495.09375 453.78125 L 494.84375 453.6875 L 494.59375 453.625 L 494.34375 453.59375 L 494.09375 453.5625 L 493.84375 453.5625 L 493.59375 453.59375 L 493.34375 453.625 L 493.09375 453.65625 L 492.84375 453.75 C 492.27876 454.07691 491.4259 454.36798 490.78125 454.46875 C 490.08049 453.92557 489.08063 453.80006 488.28125 454.1875 C 487.09762 454.44639 485.80803 454.11507 484.875 453.34375 L 484.875 453.375 C 483.79764 453.55158 482.6681 453.38775 481.6875 452.90625 L 481.4375 452.75 L 481.3125 452.625 L 481.1875 452.5 L 481.0625 452.4375 C 480.80794 452.29916 480.47297 452.36999 480.25 452.53125 C 479.82289 452.21457 479.28807 451.99625 478.75 452.03125 L 478.4375 444.65625 z "
         inkscape:radius="0.89538568"
         sodipodi:type="inkscape:offset" />
      <path
         inkscape:connector-curvature="0"
         style="fill:#ffffff;fill-rule:evenodd"
         clip-rule="evenodd"
         d="m 504.20452,464.08609 c -0.0801,-0.46888 -0.49977,-1.04462 -0.90524,-1.28927 -0.1259,-0.90868 -0.6862,-1.72733 -1.50462,-2.14865 l -0.58287,-6.56857 c -0.71083,-0.0708 -1.38911,-0.18913 -2.0871,-0.33768 l -0.29176,-0.0768 -0.19979,-0.16884 -0.22998,-0.15323 -0.23024,-0.13814 -0.24559,-0.12305 -0.2608,-0.10721 -0.24506,-0.0769 -0.27654,-0.0613 -0.26094,-0.046 -0.27603,-0.0307 h -0.27629 l -0.26079,0.0156 -0.27671,0.0457 -0.26079,0.046 -0.26108,0.0769 -0.0156,0.0156 c -0.60352,0.3492 -1.49048,0.65955 -2.17909,0.76719 -0.74854,-0.58022 -1.8321,-0.70528 -2.68598,-0.29142 v -0.0156 c -1.26434,0.27654 -2.64074,-0.0666 -3.63738,-0.89046 v 0.0156 c -1.15082,0.18862 -2.3597,0.008 -3.40716,-0.50685 l -0.27602,-0.15298 -0.10775,-0.13813 -0.13815,-0.12254 -0.15323,-0.0767 c -0.27192,-0.14778 -0.60576,-0.065 -0.84394,0.1072 v -0.0156 c -0.45622,-0.33828 -1.02144,-0.55913 -1.5962,-0.52174 l -0.35309,-7.8886 -10.23659,0.16911 v 18.50849 l -12.38543,-0.18419 c 0.28048,1.81106 1.54788,3.42651 3.22315,4.15906 l -0.0156,0.0156 c 0.93265,0.35686 1.91602,1.21987 2.42485,2.07161 0.36302,0.49863 0.56964,1.1299 0.73676,1.71926 0.10276,0.73292 0.28562,1.36557 0.65996,2.01062 0.6043,1.09179 1.61287,1.9274 2.77782,2.3634 l 0.24559,0.0762 0.24533,0.23049 0.27627,0.18394 0.29166,0.13788 0.32258,0.0773 0.33744,0.0301 0.32224,-0.0301 0.32238,-0.0773 0.30688,-0.12254 0.27612,-0.18418 0.24584,-0.21514 0.19928,-0.26082 h 0.0156 c 0.0156,-1.09667 0.61198,-2.07982 1.61127,-2.54771 h -0.0156 c 2.18199,-0.48536 4.57434,0.48443 5.77082,2.37901 l 0.0156,-0.0156 c 1.10685,2.57284 2.8416,5.07955 4.81873,7.07483 h -0.0156 c 0.37078,1.78752 1.02128,3.2518 2.14853,4.6962 1.12299,0.15609 2.415,0.69652 3.33026,1.36609 0.9174,-0.25 1.82061,-0.0821 2.62406,0.41442 v -0.0156 c 0.63873,0.60644 1.73978,0.15167 1.78079,-0.72154 l -0.0156,0.0156 c -1.64106,-2.04239 -2.00507,-4.79612 -0.95126,-7.19776 0.31002,-0.64612 0.64479,-1.19474 1.12022,-1.73434 0.52743,-0.61595 0.5993,-0.54713 1.25877,-0.98247 1.44641,-0.90032 2.89586,-1.79415 4.35853,-2.67037 h -0.0156 c 0.70806,0.0234 1.10435,-0.83257 0.65963,-1.36584 h 0.0156 l -0.18419,-0.2149 -0.0613,-0.27628 0.0613,-0.27602 0.16832,-0.23076 0.26109,-0.12252 0.27642,0.0156 0.26079,0.12279 0.16884,0.23023 0.046,0.27615 c 1.01492,-0.81375 2.13899,-1.48902 3.33065,-2.01037 v -0.0156 l 0.12254,-0.2608 0.12278,-0.27615 0.1842,-0.55257 0.0767,-0.29137 0.0611,-0.29176 0.0926,-0.58313 -0.18471,-0.85945 -0.0609,-0.21516 -0.0465,-0.21488 -0.12254,-0.42977 c 0.57563,-0.51857 0.8343,-1.2818 0.65991,-2.04086 z"
         id="path6026" />
    </g>
    <text
       xml:space="preserve"
       style="font-size:20px;font-style:normal;font-variant:normal;font-weight:normal;font-stretch:normal;text-align:center;line-height:100%;writing-mode:lr;text-anchor:middle;fill:#000000;fill-opacity:1;fill-rule:nonzero;stroke:none;font-family:Roadgeek 2005 Series B;-inkscape-font-specification:Roadgeek 2005 Series B"
       x="485.75626"
       y="469.53662"
       id="routenum"
       sodipodi:linespacing="100%"><tspan
         sodipodi:role="line"
         id="tspan3063">%num%</tspan></text>
    <text
       xml:space="preserve"
       style="font-size:7px;font-style:normal;font-variant:normal;font-weight:normal;font-stretch:normal;text-align:center;line-height:125%;letter-spacing:0px;word-spacing:0px;writing-mode:lr;text-anchor:middle;fill:#000000;fill-opacity:1;stroke:none;font-family:Roadgeek 2005 Series D;-inkscape-font-specification:Roadgeek 2005 Series D"
       x="493.25671"
       y="448.53662"
       id="text3053"
       sodipodi:linespacing="125%"><tspan
         sodipodi:role="line"
         id="tspan3055"
         x="493.25671"
         y="448.53662">FARM</tspan></text>
    <text
       xml:space="preserve"
       style="font-size:7px;font-style:normal;font-variant:normal;font-weight:normal;font-stretch:normal;text-align:center;line-height:125%;letter-spacing:0px;word-spacing:0px;writing-mode:lr;text-anchor:middle;fill:#000000;fill-opacity:1;stroke:none;font-family:Roadgeek 2005 Series D;-inkscape-font-specification:Roadgeek 2005 Series D"
       x="467.25671"
       y="483.53662"
       id="text3057"
       sodipodi:linespacing="125%"><tspan
         sodipodi:role="line"
         id="tspan3061"
         x="467.25671"
         y="483.53662">ROAD</tspan></text>
  </g>
</svg>
