<?xml version="1.0" encoding="UTF-8" standalone="no"?>
<!-- Created with Inkscape (http://www.inkscape.org/) -->

<svg
   xmlns:dc="http://purl.org/dc/elements/1.1/"
   xmlns:cc="http://creativecommons.org/ns#"
   xmlns:rdf="http://www.w3.org/1999/02/22-rdf-syntax-ns#"
   xmlns:svg="http://www.w3.org/2000/svg"
   xmlns="http://www.w3.org/2000/svg"
   xmlns:sodipodi="http://sodipodi.sourceforge.net/DTD/sodipodi-0.dtd"
   xmlns:inkscape="http://www.inkscape.org/namespaces/inkscape"
   width="51"
   height="48"
   id="svg2"
   sodipodi:version="0.32"
   inkscape:version="0.48.1 r9760"
   version="1.0"
   sodipodi:docname="US:TX:FM_banner_suffix.svg">
  <defs
     id="defs4">
    <inkscape:perspective
       sodipodi:type="inkscape:persp3d"
       inkscape:vp_x="0 : 456 : 1"
       inkscape:vp_y="0 : 1000 : 0"
       inkscape:vp_z="773 : 456 : 1"
       inkscape:persp3d-origin="386.5 : 304 : 1"
       id="perspective3821" />
    <inkscape:perspective
       id="perspective3039"
       inkscape:persp3d-origin="0.5 : 0.33333333 : 1"
       inkscape:vp_z="1 : 0.5 : 1"
       inkscape:vp_y="0 : 1000 : 0"
       inkscape:vp_x="0 : 0.5 : 1"
       sodipodi:type="inkscape:persp3d" />
    <inkscape:perspective
       id="perspective3286"
       inkscape:persp3d-origin="0.5 : 0.33333333 : 1"
       inkscape:vp_z="1 : 0.5 : 1"
       inkscape:vp_y="0 : 1000 : 0"
       inkscape:vp_x="0 : 0.5 : 1"
       sodipodi:type="inkscape:persp3d" />
    <inkscape:perspective
       id="perspective3563"
       inkscape:persp3d-origin="0.5 : 0.33333333 : 1"
       inkscape:vp_z="1 : 0.5 : 1"
       inkscape:vp_y="0 : 1000 : 0"
       inkscape:vp_x="0 : 0.5 : 1"
       sodipodi:type="inkscape:persp3d" />
    <inkscape:perspective
       id="perspective4986"
       inkscape:persp3d-origin="0.5 : 0.33333333 : 1"
       inkscape:vp_z="1 : 0.5 : 1"
       inkscape:vp_y="0 : 1000 : 0"
       inkscape:vp_x="0 : 0.5 : 1"
       sodipodi:type="inkscape:persp3d" />
    <inkscape:perspective
       id="perspective5226"
       inkscape:persp3d-origin="0.5 : 0.33333333 : 1"
       inkscape:vp_z="1 : 0.5 : 1"
       inkscape:vp_y="0 : 1000 : 0"
       inkscape:vp_x="0 : 0.5 : 1"
       sodipodi:type="inkscape:persp3d" />
    <inkscape:perspective
       id="perspective5489"
       inkscape:persp3d-origin="0.5 : 0.33333333 : 1"
       inkscape:vp_z="1 : 0.5 : 1"
       inkscape:vp_y="0 : 1000 : 0"
       inkscape:vp_x="0 : 0.5 : 1"
       sodipodi:type="inkscape:persp3d" />
    <inkscape:perspective
       id="perspective5489-8"
       inkscape:persp3d-origin="0.5 : 0.33333333 : 1"
       inkscape:vp_z="1 : 0.5 : 1"
       inkscape:vp_y="0 : 1000 : 0"
       inkscape:vp_x="0 : 0.5 : 1"
       sodipodi:type="inkscape:persp3d" />
    <inkscape:perspective
       id="perspective5881"
       inkscape:persp3d-origin="0.5 : 0.33333333 : 1"
       inkscape:vp_z="1 : 0.5 : 1"
       inkscape:vp_y="0 : 1000 : 0"
       inkscape:vp_x="0 : 0.5 : 1"
       sodipodi:type="inkscape:persp3d" />
    <inkscape:perspective
       id="perspective6076"
       inkscape:persp3d-origin="0.5 : 0.33333333 : 1"
       inkscape:vp_z="1 : 0.5 : 1"
       inkscape:vp_y="0 : 1000 : 0"
       inkscape:vp_x="0 : 0.5 : 1"
       sodipodi:type="inkscape:persp3d" />
    <inkscape:perspective
       id="perspective6358"
       inkscape:persp3d-origin="0.5 : 0.33333333 : 1"
       inkscape:vp_z="1 : 0.5 : 1"
       inkscape:vp_y="0 : 1000 : 0"
       inkscape:vp_x="0 : 0.5 : 1"
       sodipodi:type="inkscape:persp3d" />
    <inkscape:perspective
       id="perspective6392"
       inkscape:persp3d-origin="0.5 : 0.33333333 : 1"
       inkscape:vp_z="1 : 0.5 : 1"
       inkscape:vp_y="0 : 1000 : 0"
       inkscape:vp_x="0 : 0.5 : 1"
       sodipodi:type="inkscape:persp3d" />
  </defs>
  <sodipodi:namedview
     id="base"
     pagecolor="#ffffff"
     bordercolor="#666666"
     borderopacity="1.0"
     inkscape:pageopacity="0.0"
     inkscape:pageshadow="2"
     inkscape:zoom="20.25"
     inkscape:cx="24"
     inkscape:cy="24"
     inkscape:document-units="px"
     inkscape:current-layer="layer1"
     inkscape:window-width="1598"
     inkscape:window-height="1198"
     inkscape:window-x="1"
     inkscape:window-y="1"
     showgrid="true"
     showborder="true"
     inkscape:showpageshadow="false"
     inkscape:window-maximized="0">
    <inkscape:grid
       type="xygrid"
       id="grid3383"
       empspacing="5"
       visible="true"
       enabled="true"
       snapvisiblegridlinesonly="true"
       spacingx="1px"
       spacingy="1px" />
  </sodipodi:namedview>
  <metadata
     id="metadata7">
    <rdf:RDF>
      <cc:Work
         rdf:about="">
        <dc:format>image/svg+xml</dc:format>
        <dc:type
           rdf:resource="http://purl.org/dc/dcmitype/StillImage" />
        <dc:title />
      </cc:Work>
    </rdf:RDF>
  </metadata>
  <g
     inkscape:label="Layer 1"
     inkscape:groupmode="layer"
     id="layer1"
     transform="translate(-455.25671,-441.53663)">
    <path
       id="path1435"
       d=""
       style="fill:#a8e50a"
       inkscape:connector-curvature="0" />
    <g
       id="g3131">
      <path
         transform="matrix(1.0067346,0,0,1.0087759,-3.2134456,-4.0358364)"
         d="m 479.875,442.6875 -10.21875,0.1875 a 0.84126093,0.84126093 0 0 0 -0.84375,0.84375 l 0,17.53125 -11.5625,-0.1875 a 0.84126093,0.84126093 0 0 0 -0.84375,0.96875 c 0.3047,1.95362 1.63658,3.58943 3.375,4.5 0.006,0.003 -0.006,0.0283 0,0.0312 a 0.84126093,0.84126093 0 0 0 0.0312,0.0312 0.84126093,0.84126093 0 0 0 0.28125,0.21875 c 0.008,0.003 0.0235,-0.003 0.0312,0 a 0.84126093,0.84126093 0 0 0 0.0312,0.0312 c 0.7046,0.26772 1.60776,1.03549 2,1.6875 a 0.84126093,0.84126093 0 0 0 0.0312,0.0625 c 0.23895,0.32592 0.43998,0.82623 0.59375,1.34375 0.005,0.0322 0.0264,0.0617 0.0312,0.0937 0.11393,0.74755 0.31337,1.4817 0.71875,2.1875 0.007,0.013 0.0239,0.0183 0.0312,0.0312 0.71222,1.2546 1.88883,2.19325 3.21875,2.6875 a 0.84126093,0.84126093 0 0 0 0.0625,0.0312 l 0.0312,0 0.0937,0.0937 a 0.84126093,0.84126093 0 0 0 0.125,0.0937 l 0.28125,0.1875 a 0.84126093,0.84126093 0 0 0 0.125,0.0937 l 0.28125,0.125 a 0.84126093,0.84126093 0 0 0 0.0937,0.0312 l 0.3125,0.0937 a 0.84126093,0.84126093 0 0 0 0.25,0.0312 l 0.34375,0 0.3125,0 a 0.84126093,0.84126093 0 0 0 0.21875,-0.0312 l 0.34375,-0.0937 a 0.84126093,0.84126093 0 0 0 0.125,-0.0312 l 0.28125,-0.125 a 0.84126093,0.84126093 0 0 0 0.125,-0.0937 l 0.28125,-0.1875 a 0.84126093,0.84126093 0 0 0 0.0937,-0.0625 l 0.25,-0.21875 a 0.84126093,0.84126093 0 0 0 0.0625,-0.0625 l 0.21875,-0.25 A 0.84126093,0.84126093 0 0 0 471.3125,474 c 0.0123,-0.75129 0.42077,-1.37653 1.0625,-1.71875 1.75315,-0.3311 3.69477,0.44014 4.6875,1.90625 0.0214,0.0316 0.042,0.0615 0.0625,0.0937 1.12185,2.54017 2.84562,4.95273 4.78125,6.9375 0.40201,1.79396 1.09415,3.34177 2.25,4.8125 a 0.84126093,0.84126093 0 0 0 0.53125,0.3125 c 0.93918,0.12973 2.14243,0.64117 2.9375,1.21875 a 0.84126093,0.84126093 0 0 0 0.71875,0.125 c 0.6942,-0.18796 1.3352,-0.0764 1.96875,0.3125 a 0.84126093,0.84126093 0 0 0 0.375,0.125 c 0.009,0.004 0.0225,-0.004 0.0312,0 1.125,0.49381 2.55674,-0.17682 2.65625,-1.5 a 0.84126093,0.84126093 0 0 0 0,-0.0625 l 0,-0.0312 A 0.84126093,0.84126093 0 0 0 493.1875,486 c -1.43767,-1.79076 -1.76669,-4.16131 -0.84375,-6.25 0.27954,-0.57195 0.55793,-1.037 0.96875,-1.5 0.24178,-0.28039 0.33836,-0.33879 0.4375,-0.40625 0.0957,-0.0651 0.28878,-0.18763 0.625,-0.40625 0.008,-0.005 0.0237,0.005 0.0312,0 1.43269,-0.88557 2.87446,-1.80055 4.3125,-2.65625 0.74614,-0.2268 1.2643,-0.93207 1.21875,-1.6875 a 0.84126093,0.84126093 0 0 0 0.5625,-0.1875 c 0.95388,-0.75944 2.02992,-1.38567 3.15625,-1.875 a 0.84126093,0.84126093 0 0 0 0.4375,-0.53125 l 0.0312,-0.0312 a 0.84126093,0.84126093 0 0 0 0.0312,-0.15625 l 0.0312,0 0.125,-0.28125 a 0.84126093,0.84126093 0 0 0 0,-0.0625 L 504.5,469.4375 a 0.84126093,0.84126093 0 0 0 0.0312,-0.0312 l 0.0937,-0.3125 a 0.84126093,0.84126093 0 0 0 0,-0.0625 l 0.0625,-0.28125 a 0.84126093,0.84126093 0 0 0 0.0312,-0.0625 l 0.0937,-0.59375 a 0.84126093,0.84126093 0 0 0 -0.0312,-0.3125 l -0.1875,-0.84375 a 0.84126093,0.84126093 0 0 0 0,-0.0312 l -0.0625,-0.21875 -0.0625,-0.21875 a 0.84126093,0.84126093 0 0 0 0,-0.0312 l -0.0312,-0.0625 c 0.37326,-0.51996 0.54928,-1.10509 0.53125,-1.75 a 0.84126093,0.84126093 0 0 0 0,-0.0312 0.84126093,0.84126093 0 0 0 0.0937,-0.5 C 504.94075,463.3851 504.5227,462.9005 504,462.5 c -0.20477,-0.82547 -0.68669,-1.52334 -1.375,-2.03125 L 502.0625,454.25 a 0.84126093,0.84126093 0 0 0 -0.75,-0.78125 c -0.66578,-0.0659 -1.31614,-0.16798 -2,-0.3125 l -0.0625,-0.0312 -0.0625,-0.0312 A 0.84126093,0.84126093 0 0 0 499.03125,453 l -0.125,-0.0625 0,-0.0312 -0.21875,-0.15625 a 0.84126093,0.84126093 0 0 0 -0.125,-0.0625 l -0.25,-0.125 a 0.84126093,0.84126093 0 0 0 -0.0937,-0.0312 l -0.25,-0.0937 -0.25,-0.0937 a 0.84126093,0.84126093 0 0 0 -0.0937,-0.0312 l -0.28125,-0.0625 a 0.84126093,0.84126093 0 0 0 -0.0937,-0.0312 l -0.28125,-0.0312 -0.25,-0.0312 a 0.84126093,0.84126093 0 0 0 -0.0937,0 l -0.28125,0 a 0.84126093,0.84126093 0 0 0 -0.0937,0 l -0.28125,0.0312 -0.25,0.0312 -0.28125,0.0312 a 0.84126093,0.84126093 0 0 0 -0.1875,0.0625 l -0.0937,0.0312 a 0.84126093,0.84126093 0 0 0 -0.0625,0.0312 0.84126093,0.84126093 0 0 0 -0.25,0.0937 c -0.4763,0.27367 -1.24515,0.52516 -1.78125,0.625 -0.76452,-0.39957 -1.60407,-0.47793 -2.4375,-0.25 a 0.84126093,0.84126093 0 0 0 -0.40625,0 c -1.00188,0.21759 -2.15216,-0.0741 -2.9375,-0.71875 a 0.84126093,0.84126093 0 0 0 -0.65625,-0.1875 c -0.96621,0.15704 -1.99356,0.0161 -2.875,-0.40625 l -0.0312,0 -0.0625,-0.0312 a 0.84126093,0.84126093 0 0 0 -0.0312,-0.0625 l -0.0312,0 a 0.84126093,0.84126093 0 0 0 -0.0937,-0.0937 l -0.15625,-0.125 a 0.84126093,0.84126093 0 0 0 -0.15625,-0.0937 l -0.0937,-0.0625 c -0.0101,-0.005 -0.0211,0.005 -0.0312,0 -0.38692,-0.19862 -0.77099,-0.16316 -1.125,-0.0625 -0.28684,-0.15933 -0.57889,-0.27291 -0.90625,-0.34375 L 480.71875,443.5 a 0.84126093,0.84126093 0 0 0 -0.84375,-0.8125 z"
         id="path3129"
         style="fill:#000000;fill-rule:evenodd"
         inkscape:original="M 479.875 443.53125 L 469.65625 443.71875 L 469.65625 462.09375 L 457.25 461.90625 C 457.53051 463.70477 458.79332 465.30376 460.46875 466.03125 L 460.46875 466.0625 C 461.40146 466.41689 462.36613 467.24788 462.875 468.09375 C 463.23804 468.58892 463.45789 469.22725 463.625 469.8125 C 463.7279 470.54039 463.90687 471.1719 464.28125 471.8125 C 464.88559 472.89674 465.89743 473.72326 467.0625 474.15625 L 467.3125 474.21875 L 467.5625 474.46875 L 467.84375 474.65625 L 468.125 474.78125 L 468.4375 474.875 L 468.78125 474.875 L 469.09375 474.875 L 469.4375 474.78125 L 469.71875 474.65625 L 470 474.46875 L 470.25 474.25 L 470.46875 474 C 470.48642 472.91906 471.07672 471.93753 472.0625 471.46875 C 474.24465 470.98674 476.64717 471.96229 477.84375 473.84375 C 478.95115 476.39027 480.7165 478.86857 482.6875 480.84375 L 482.65625 480.84375 C 483.02707 482.61892 483.68519 484.06559 484.8125 485.5 C 485.9356 485.65514 487.20968 486.21007 488.125 486.875 C 489.04246 486.62659 489.94645 486.78798 490.75 487.28125 L 490.75 487.25 C 491.38166 487.84551 492.46746 487.41069 492.53125 486.5625 L 492.53125 486.53125 C 490.90465 484.50516 490.51228 481.78298 491.5625 479.40625 C 491.87257 478.7646 492.21202 478.22337 492.6875 477.6875 C 493.21497 477.07579 493.27795 477.15109 493.9375 476.71875 C 495.37648 475.82934 496.82625 474.92829 498.28125 474.0625 C 498.98937 474.0851 499.38228 473.24831 498.9375 472.71875 L 498.96875 472.71875 L 498.78125 472.5 L 498.71875 472.21875 L 498.78125 471.9375 L 498.96875 471.71875 L 499.21875 471.59375 L 499.5 471.625 L 499.75 471.75 L 499.90625 471.96875 L 499.96875 472.25 C 500.98376 471.44189 502.12076 470.76775 503.3125 470.25 L 503.3125 470.21875 L 503.40625 469.96875 L 503.53125 469.6875 L 503.71875 469.15625 L 503.8125 468.84375 L 503.875 468.5625 L 503.96875 467.96875 L 503.78125 467.125 L 503.71875 466.90625 L 503.65625 466.6875 L 503.53125 466.28125 C 504.10691 465.76627 504.36188 465.00379 504.1875 464.25 L 504.21875 464.25 C 504.13875 463.78437 503.71802 463.2117 503.3125 462.96875 C 503.18649 462.06636 502.63101 461.26216 501.8125 460.84375 L 501.21875 454.3125 C 500.50787 454.2421 499.82307 454.11627 499.125 453.96875 L 498.84375 453.90625 L 498.625 453.71875 L 498.40625 453.59375 L 498.1875 453.4375 L 497.9375 453.3125 L 497.6875 453.21875 L 497.4375 453.125 L 497.15625 453.0625 L 496.875 453.03125 L 496.625 453 L 496.34375 453 L 496.0625 453.03125 L 495.8125 453.0625 L 495.53125 453.09375 L 495.28125 453.1875 L 495.25 453.1875 C 494.64647 453.53427 493.78241 453.86184 493.09375 453.96875 C 492.34515 453.39252 491.2602 453.27648 490.40625 453.6875 L 490.40625 453.65625 C 489.14182 453.93086 487.74676 453.59948 486.75 452.78125 C 485.59911 452.96831 484.39129 452.79159 483.34375 452.28125 L 483.0625 452.125 L 482.96875 452 L 482.8125 451.875 L 482.6875 451.8125 C 482.41559 451.66566 482.08192 451.73505 481.84375 451.90625 L 481.84375 451.875 C 481.38746 451.53906 480.79354 451.33786 480.21875 451.375 L 479.875 443.53125 z "
         inkscape:radius="0.84117681"
         sodipodi:type="inkscape:offset" />
      <path
         style="fill:#ffffff;fill-rule:evenodd"
         clip-rule="evenodd"
         d="m 504.21049,464.24825 c -0.08,-0.46563 -0.49978,-1.03741 -0.9053,-1.28036 -0.12601,-0.90239 -0.68626,-1.71539 -1.50477,-2.1338 l -0.58289,-6.52319 c -0.71088,-0.0704 -1.38921,-0.18781 -2.08728,-0.33533 l -0.29175,-0.0765 -0.19968,-0.1677 -0.22992,-0.15212 -0.23018,-0.13728 -0.24567,-0.12219 -0.26081,-0.10661 -0.24517,-0.0767 -0.27656,-0.0609 -0.26093,-0.0458 -0.27608,-0.0304 h -0.27629 l -0.26084,0.0176 -0.27671,0.0455 -0.26085,0.0458 -0.26107,0.0767 -0.0178,0.0176 c -0.60353,0.34677 -1.49059,0.65498 -2.17925,0.76189 -0.7486,-0.57623 -1.83225,-0.70042 -2.6862,-0.2894 v -0.0176 c -1.26443,0.27461 -2.64092,-0.0661 -3.63768,-0.88433 v 0.0176 c -1.15089,0.18706 -2.35986,0.007 -3.4074,-0.50334 l -0.27606,-0.15211 -0.10798,-0.13728 -0.1382,-0.1217 -0.1532,-0.0765 c -0.27191,-0.14684 -0.60582,-0.0646 -0.84399,0.1066 v -0.0176 c -0.45629,-0.33594 -1.02154,-0.55526 -1.59633,-0.51812 l -0.35314,-7.83412 -10.23738,0.16795 v 18.38061 l -12.38644,-0.18279 c 0.28051,1.79852 1.548,3.40283 3.22343,4.13032 l -0.0178,0.0176 c 0.93271,0.35439 1.91619,1.21141 2.42506,2.05728 0.36304,0.49517 0.56968,1.12211 0.73679,1.70736 0.1029,0.72789 0.28565,1.35617 0.66003,1.99677 0.60434,1.08424 1.61299,1.91406 2.77806,2.34705 l 0.24567,0.0756 0.24541,0.2288 0.27631,0.18279 0.29165,0.13703 0.32265,0.0769 0.33742,0.03 0.3223,-0.03 0.32239,-0.0769 0.30692,-0.1217 0.2761,-0.18279 0.24593,-0.21346 0.19918,-0.25899 h 0.0178 c 0.0178,-1.08911 0.61207,-2.06546 1.61139,-2.53013 h -0.0178 c 2.18215,-0.48201 4.57471,0.48111 5.77129,2.36257 l 0.0178,-0.0176 c 1.10694,2.55506 2.84183,5.04445 4.81911,7.02592 h -0.0178 c 0.37082,1.77517 1.02135,3.22935 2.14866,4.66376 1.1231,0.15514 2.41525,0.69174 3.33057,1.35667 0.91746,-0.24841 1.82072,-0.0817 2.62427,0.41157 v -0.0176 c 0.63881,0.60225 1.73992,0.15061 1.78091,-0.71655 l -0.0178,0.0176 c -1.6412,-2.02827 -2.00523,-4.76298 -0.95133,-7.14803 0.31007,-0.64165 0.64484,-1.18647 1.12032,-1.72234 0.52747,-0.61171 0.59932,-0.54337 1.25887,-0.97571 1.44653,-0.89408 2.8961,-1.78176 4.35887,-2.65191 h -0.0178 c 0.70812,0.0226 1.10447,-0.82683 0.65969,-1.35639 h 0.0178 l -0.18418,-0.21347 -0.0612,-0.27436 0.0612,-0.27413 0.16843,-0.22905 0.26113,-0.1217 0.27643,0.0176 0.26081,0.12195 0.16894,0.22855 0.046,0.27423 c 1.01501,-0.80811 2.13917,-1.47873 3.33091,-1.99648 v -0.0176 l 0.12245,-0.25903 0.12271,-0.27423 0.18419,-0.54875 0.0768,-0.28936 0.061,-0.28976 0.0927,-0.57909 -0.1847,-0.85349 -0.0608,-0.21346 -0.0463,-0.21346 -0.12245,-0.42678 c 0.57566,-0.51498 0.83434,-1.27297 0.65996,-2.02676 z"
         id="path6026"
         inkscape:connector-curvature="0" />
    </g>
    <text
       xml:space="preserve"
       style="font-size:20px;font-style:normal;font-variant:normal;font-weight:normal;font-stretch:normal;text-align:center;line-height:100%;writing-mode:lr;text-anchor:middle;fill:#000000;fill-opacity:1;fill-rule:nonzero;stroke:none;font-family:Roadgeek 2005 Series B;-inkscape-font-specification:Roadgeek 2005 Series B"
       x="485.75626"
       y="469.53662"
       id="routenum"
       sodipodi:linespacing="100%"><tspan
         sodipodi:role="line"
         id="tspan3137">%num%</tspan></text>
    <text
       xml:space="preserve"
       style="font-size:8px;font-style:normal;font-variant:normal;font-weight:normal;font-stretch:normal;text-align:center;line-height:125%;letter-spacing:0px;word-spacing:0px;writing-mode:lr;text-anchor:middle;fill:#000000;fill-opacity:1;stroke:none;font-family:Roadgeek 2005 Series B;-inkscape-font-specification:Roadgeek 2005 Series B"
       x="493.25671"
       y="449.53662"
       id="text3385"
       sodipodi:linespacing="125%"><tspan
         sodipodi:role="line"
         id="tspan3067">%mod%</tspan></text>
    <text
       xml:space="preserve"
       style="font-size:10px;font-style:normal;font-variant:normal;font-weight:normal;font-stretch:normal;text-align:center;line-height:125%;letter-spacing:0px;word-spacing:0px;writing-mode:lr;text-anchor:middle;fill:#000000;fill-opacity:1;stroke:none;font-family:Roadgeek 2005 Series D;-inkscape-font-specification:Roadgeek 2005 Series D"
       x="486.75629"
       y="479.53662"
       id="text3389"
       sodipodi:linespacing="125%"><tspan
         sodipodi:role="line"
         id="tspan3065">%suf%</tspan></text>
  </g>
</svg>
