<?xml version="1.0" encoding="UTF-8" standalone="no"?>
<!-- Created with Inkscape (http://www.inkscape.org/) -->

<svg
   xmlns:dc="http://purl.org/dc/elements/1.1/"
   xmlns:cc="http://creativecommons.org/ns#"
   xmlns:rdf="http://www.w3.org/1999/02/22-rdf-syntax-ns#"
   xmlns:svg="http://www.w3.org/2000/svg"
   xmlns="http://www.w3.org/2000/svg"
   xmlns:sodipodi="http://sodipodi.sourceforge.net/DTD/sodipodi-0.dtd"
   xmlns:inkscape="http://www.inkscape.org/namespaces/inkscape"
   version="1.1"
   width="60"
   height="48"
   id="svg3155"
   inkscape:version="0.48.1 r9760"
   sodipodi:docname="US:TN_3.svg">
  <sodipodi:namedview
     pagecolor="#ffffff"
     bordercolor="#666666"
     borderopacity="1"
     objecttolerance="10"
     gridtolerance="10"
     guidetolerance="10"
     inkscape:pageopacity="0"
     inkscape:pageshadow="2"
     inkscape:window-width="1598"
     inkscape:window-height="1198"
     id="namedview37"
     showgrid="true"
     inkscape:showpageshadow="false"
     inkscape:zoom="20.25"
     inkscape:cx="30"
     inkscape:cy="24"
     inkscape:window-x="1"
     inkscape:window-y="1"
     inkscape:window-maximized="0"
     inkscape:current-layer="svg3155">
    <inkscape:grid
       type="xygrid"
       id="grid3018"
       empspacing="5"
       visible="true"
       enabled="true"
       snapvisiblegridlinesonly="true" />
  </sodipodi:namedview>
  <defs
     id="defs3157" />
  <metadata
     id="metadata3160">
    <rdf:RDF>
      <cc:Work
         rdf:about="">
        <dc:format>image/svg+xml</dc:format>
        <dc:type
           rdf:resource="http://purl.org/dc/dcmitype/StillImage" />
        <dc:title />
      </cc:Work>
    </rdf:RDF>
  </metadata>
  <rect
     width="56.999912"
     height="44.999908"
     rx="1.9830683"
     ry="1.9800282"
     x="1.5000451"
     y="1.5000466"
     id="rect3933"
     style="fill:#ffffff;stroke:#000000;stroke-width:1.00008988000000021;stroke-linejoin:round;stroke-miterlimit:4;stroke-opacity:1;stroke-dasharray:none;fill-opacity:1" />
  <polyline
     transform="matrix(0.12390205,0,0,0.11898216,0.11840155,2.1593156)"
     style="fill:none;stroke:#000000;stroke-width:8;stroke-linecap:round;stroke-linejoin:round;stroke-miterlimit:3.863693"
     id="polyline37"
     points="    61.0292969,293.8818359 60.3574219,293.4335938 58.5664063,294.5527344 56.7709961,296.1210938 56.7709961,301.7265625     55.4243164,302.3994141 52.2861328,302.6240234 50.0458984,303.296875 50.2680664,304.1923828 52.2861328,305.7617188     52.9614258,306.8828125 50.2680664,306.6582031 47.5791016,306.8828125 46.9072266,308.9003906 48.9257813,310.9169922     50.9433594,313.1591797 50.0458984,314.9521484 46.2324219,318.0917969 44.8896484,319.4365234 44.8896484,321.0058594     47.1303711,324.1425781 47.5791016,325.265625 47.1303711,325.9365234 44.2143555,325.7128906 42.2006836,326.1601563     43.5429688,328.1777344 44.6630859,330.1953125 42.2006836,331.765625 36.1469727,333.5585938 33.4536133,334.4550781     31.8847656,335.7998047 31.8847656,338.7148438 33.902832,339.8359375 35.9204102,340.5087891 35.4716797,341.1796875     32.5595703,341.8535156 30.7641602,342.5263672 33.2314453,345.6640625 32.3334961,345.8886719 29.8666992,344.9902344     27.8486328,345.2148438 26.9550781,348.578125 27.6264648,349.9238281 27.6264648,352.8378906 24.2617188,353.9570313     21.1235352,356.8730469 19.5546875,360.0097656 21.1235352,361.3554688 23.3676758,362.9257813 24.0390625,365.1660156     24.0390625,367.4082031 22.4702148,368.9765625 19.105957,370.3232422 20.2260742,369.875 22.4702148,368.9765625     24.0390625,367.4082031 24.0390625,365.1660156 23.3676758,362.9257813 21.1235352,361.3554688 19.5546875,360.0097656     21.1235352,356.8730469 24.2617188,353.9570313 27.6264648,352.8378906 27.6264648,349.9238281 26.9550781,348.578125     27.8486328,345.2148438 28.9726563,344.7666016 31.4355469,345.4394531 33.2314453,345.6640625 30.7641602,342.5263672     31.6621094,342.078125 34.5776367,341.4042969 35.6977539,340.9550781 35.9204102,340.5087891 33.902832,339.8359375     31.8847656,338.7148438 31.8847656,335.7998047 34.3515625,334.0078125 40.1821289,332.4375 42.8720703,331.5410156     44.6630859,330.1953125 43.5429688,328.1777344 42.2006836,326.1601563 43.3208008,325.7128906 46.2324219,325.9365234     47.3564453,325.9365234 47.5791016,325.265625 47.1303711,324.1425781 44.8896484,321.0058594 45.3383789,318.9873047     48.6992188,316.0742188 50.4946289,314.5058594 50.9433594,313.1591797 48.9257813,310.9169922 46.9072266,308.9003906     47.5791016,306.8828125 50.2680664,306.6582031 52.9614258,306.8828125 52.7348633,306.2109375 50.9433594,304.640625     50.0458984,303.296875 51.3920898,302.8476563 54.5302734,302.6240234 56.7709961,301.7265625 56.7709961,296.1210938     59.2373047,293.8818359 60.3574219,293.4335938 61.0292969,293.8818359 131.4296875,293.8818359 131.4296875,288.5     463.2363281,288.5 463.0097656,294.5527344 462.3378906,300.3818359 460.7695313,301.7265625 454.0449219,301.7265625     452.4755859,302.1748047 450.2304688,305.3125 448.2128906,311.8144531 446.8710938,314.9521484 445.0751953,316.9697266     441.0390625,317.4179688 437.2304688,317.6425781 435.8828125,319.6601563 434.7626953,323.6953125 433.1933594,326.8339844     429.3808594,327.5068359 425.5712891,328.4023438 424.2246094,332.2138672 423.1044922,336.2490234 420.6376953,336.921875     418.1708984,337.8183594 417.5,340.2841797 418.1708984,344.5419922 418.1708984,346.5595703 417.5,348.3535156     414.3613281,350.8203125 410.9970703,353.2861328 406.0673828,358.890625 401.8046875,363.8212891 399.3388672,367.6328125     398.21875,370.0986328 397.9960938,372.7871094   "
     stroke-miterlimit="3.863693" />
  <g
     id="g3849"
     transform="translate(1.0516083,0.14351026)">
    <g
       id="g41"
       transform="matrix(0.12167014,0,0,0.12158257,0.6601438,1.3779084)">
      <path
         inkscape:connector-curvature="0"
         style="fill-rule:evenodd"
         id="path43"
         d="m 128.84814,307.40039 0.55665,9.9082 h -1.47461 c -0.28467,-1.74023 -0.67334,-2.98242 -1.16553,-3.72754 -0.80225,-1.20019 -1.87061,-2.08496 -3.2041,-2.65527 -1.3335,-0.56933 -3.08789,-0.85351 -5.26368,-0.85351 h -7.41796 v 32.18554 c 0,2.59766 0.34814,4.2168 1.04443,4.86133 0.98145,0.87305 2.4917,1.30859 4.52978,1.30859 h 1.82032 v 1.14551 H 95.851074 v -1.14551 h 1.888184 c 2.255371,0 3.854982,-0.53906 4.799312,-1.61914 0.57715,-0.66601 0.86573,-2.18261 0.86573,-4.55078 v -32.18554 h -6.327151 c -2.458985,0 -4.206055,0.14453 -5.2417,0.43457 -1.345703,0.39355 -2.497558,1.14843 -3.455078,2.2666 -0.957519,1.11816 -1.526855,2.62988 -1.708008,4.53515 h -1.476074 l 0.556641,-9.9082 h 43.09521 z" />
      <path
         inkscape:connector-curvature="0"
         style="fill:none;stroke:#000000;stroke-width:2;stroke-miterlimit:3.863693"
         id="path45"
         d="m 128.84814,307.40039 0.55665,9.9082 h -1.47461 c -0.28467,-1.74023 -0.67334,-2.98242 -1.16553,-3.72754 -0.80225,-1.20019 -1.87061,-2.08496 -3.2041,-2.65527 -1.3335,-0.56933 -3.08789,-0.85351 -5.26368,-0.85351 h -7.41796 v 32.18554 c 0,2.59766 0.34814,4.2168 1.04443,4.86133 0.98145,0.87305 2.4917,1.30859 4.52978,1.30859 h 1.82032 v 1.14551 H 95.851074 v -1.14551 h 1.888184 c 2.255371,0 3.854982,-0.53906 4.799312,-1.61914 0.57715,-0.66601 0.86573,-2.18261 0.86573,-4.55078 v -32.18554 h -6.327151 c -2.458985,0 -4.206055,0.14453 -5.2417,0.43457 -1.345703,0.39355 -2.497558,1.14843 -3.455078,2.2666 -0.957519,1.11816 -1.526855,2.62988 -1.708008,4.53515 h -1.476074 l 0.556641,-9.9082 h 43.09521 z" />
    </g>
    <g
       id="g47"
       transform="matrix(0.12167014,0,0,0.12158257,0.6601438,1.3779084)">
      <path
         inkscape:connector-curvature="0"
         style="fill-rule:evenodd"
         id="path49"
         d="m 134.87646,335.33398 c -0.0215,3.375 1.00635,6.02149 3.08399,7.94141 2.07715,1.91895 4.51758,2.87891 7.32129,2.87891 1.86914,0 3.49463,-0.40821 4.87549,-1.22266 1.38134,-0.81445 2.53955,-2.22656 3.47461,-4.23828 l 0.95703,0.49805 c -0.43604,2.29882 -1.70166,4.38183 -3.79639,6.24707 -2.09521,1.86523 -4.71924,2.79785 -7.87207,2.79785 -3.42236,0 -6.35254,-1.06641 -8.78955,-3.19727 -2.4375,-2.13281 -3.65625,-4.99804 -3.65625,-8.59863 0,-3.89941 1.24951,-6.94043 3.74902,-9.12207 2.5,-2.18164 5.63721,-3.27246 9.41211,-3.27246 3.19483,0 5.81885,0.84277 7.87256,2.52734 2.05371,1.68457 3.08057,3.93848 3.08057,6.76074 h -19.71241 z m 0,-1.42871 h 13.20508 c -0.10351,-1.45996 -0.32129,-2.48925 -0.65381,-3.08593 -0.51904,-0.92872 -1.29248,-1.65918 -2.32031,-2.19043 -1.02832,-0.53125 -2.10254,-0.79688 -3.22363,-0.79688 -1.72315,0 -3.26465,0.53516 -4.62451,1.60547 -1.36035,1.07031 -2.1543,2.55859 -2.38282,4.46777 z" />
      <path
         inkscape:connector-curvature="0"
         style="fill:none;stroke:#000000;stroke-width:2;stroke-miterlimit:3.863693"
         id="path51"
         d="m 134.87646,335.33398 c -0.0215,3.375 1.00635,6.02149 3.08399,7.94141 2.07715,1.91895 4.51758,2.87891 7.32129,2.87891 1.86914,0 3.49463,-0.40821 4.87549,-1.22266 1.38134,-0.81445 2.53955,-2.22656 3.47461,-4.23828 l 0.95703,0.49805 c -0.43604,2.29882 -1.70166,4.38183 -3.79639,6.24707 -2.09521,1.86523 -4.71924,2.79785 -7.87207,2.79785 -3.42236,0 -6.35254,-1.06641 -8.78955,-3.19727 -2.4375,-2.13281 -3.65625,-4.99804 -3.65625,-8.59863 0,-3.89941 1.24951,-6.94043 3.74902,-9.12207 2.5,-2.18164 5.63721,-3.27246 9.41211,-3.27246 3.19483,0 5.81885,0.84277 7.87256,2.52734 2.05371,1.68457 3.08057,3.93848 3.08057,6.76074 h -19.71241 z m 0,-1.42871 h 13.20508 c -0.10351,-1.45996 -0.32129,-2.48925 -0.65381,-3.08593 -0.51904,-0.92872 -1.29248,-1.65918 -2.32031,-2.19043 -1.02832,-0.53125 -2.10254,-0.79688 -3.22363,-0.79688 -1.72315,0 -3.26465,0.53516 -4.62451,1.60547 -1.36035,1.07031 -2.1543,2.55859 -2.38282,4.46777 z" />
    </g>
    <g
       id="g53"
       transform="matrix(0.12167014,0,0,0.12158257,0.6601438,1.3779084)">
      <path
         inkscape:connector-curvature="0"
         style="fill-rule:evenodd"
         id="path55"
         d="m 170.58252,330.83398 c 3.33496,-3.19238 6.51514,-4.78808 9.54004,-4.78808 1.55371,0 2.89014,0.31152 4.00879,0.93652 1.11865,0.62305 2.00976,1.65137 2.67285,3.08203 0.45557,0.99805 0.68359,2.5293 0.68359,4.59375 v 9.75977 c 0,1.4375 0.14453,2.41211 0.4336,2.92383 0.22754,0.41211 0.59424,0.73437 1.10009,0.96582 0.50586,0.23144 1.44092,0.34668 2.80469,0.34668 v 0.91894 h -14.09863 v -0.91894 h 0.58984 c 1.32373,0 2.24951,-0.16016 2.77735,-0.48243 0.52734,-0.32226 0.89453,-0.79687 1.10107,-1.4248 0.0835,-0.24707 0.12451,-1.02441 0.12451,-2.3291 v -9.39649 c 0,-2.08886 -0.33545,-3.60546 -1.00634,-4.54882 -0.67139,-0.94336 -1.80176,-1.41602 -3.39112,-1.41602 -2.45752,0 -4.9043,1.08398 -7.34033,3.25293 v 12.1084 c 0,1.53711 0.11475,2.48633 0.34375,2.84961 0.29199,0.47851 0.69287,0.83008 1.20312,1.05273 0.51026,0.22266 1.54688,0.33399 3.10987,0.33399 v 0.91894 h -14.16211 v -0.91894 h 0.62402 c 1.45655,0 2.43946,-0.29297 2.94922,-0.87891 0.50977,-0.58691 0.76465,-1.70508 0.76465,-3.35742 v -8.4707 c 0,-2.73926 -0.0776,-4.40821 -0.2334,-5.00586 -0.15527,-0.59766 -0.39355,-1.00391 -0.71435,-1.22071 -0.32129,-0.21484 -0.75049,-0.32324 -1.28907,-0.32324 -0.58008,0 -1.27392,0.12402 -2.08105,0.37402 l -0.4668,-0.91796 8.61035,-2.80762 h 1.3418 v 4.78808 z" />
      <path
         inkscape:connector-curvature="0"
         style="fill:none;stroke:#000000;stroke-width:2;stroke-miterlimit:3.863693"
         id="path57"
         d="m 170.58252,330.83398 c 3.33496,-3.19238 6.51514,-4.78808 9.54004,-4.78808 1.55371,0 2.89014,0.31152 4.00879,0.93652 1.11865,0.62305 2.00976,1.65137 2.67285,3.08203 0.45557,0.99805 0.68359,2.5293 0.68359,4.59375 v 9.75977 c 0,1.4375 0.14453,2.41211 0.4336,2.92383 0.22754,0.41211 0.59424,0.73437 1.10009,0.96582 0.50586,0.23144 1.44092,0.34668 2.80469,0.34668 v 0.91894 h -14.09863 v -0.91894 h 0.58984 c 1.32373,0 2.24951,-0.16016 2.77735,-0.48243 0.52734,-0.32226 0.89453,-0.79687 1.10107,-1.4248 0.0835,-0.24707 0.12451,-1.02441 0.12451,-2.3291 v -9.39649 c 0,-2.08886 -0.33545,-3.60546 -1.00634,-4.54882 -0.67139,-0.94336 -1.80176,-1.41602 -3.39112,-1.41602 -2.45752,0 -4.9043,1.08398 -7.34033,3.25293 v 12.1084 c 0,1.53711 0.11475,2.48633 0.34375,2.84961 0.29199,0.47851 0.69287,0.83008 1.20312,1.05273 0.51026,0.22266 1.54688,0.33399 3.10987,0.33399 v 0.91894 h -14.16211 v -0.91894 h 0.62402 c 1.45655,0 2.43946,-0.29297 2.94922,-0.87891 0.50977,-0.58691 0.76465,-1.70508 0.76465,-3.35742 v -8.4707 c 0,-2.73926 -0.0776,-4.40821 -0.2334,-5.00586 -0.15527,-0.59766 -0.39355,-1.00391 -0.71435,-1.22071 -0.32129,-0.21484 -0.75049,-0.32324 -1.28907,-0.32324 -0.58008,0 -1.27392,0.12402 -2.08105,0.37402 l -0.4668,-0.91796 8.61035,-2.80762 h 1.3418 v 4.78808 z" />
    </g>
    <g
       id="g59"
       transform="matrix(0.12167014,0,0,0.12158257,0.6601438,1.3779084)">
      <path
         inkscape:connector-curvature="0"
         style="fill-rule:evenodd"
         id="path61"
         d="m 206.30713,330.83398 c 3.33545,-3.19238 6.51514,-4.78808 9.54004,-4.78808 1.55371,0 2.89013,0.31152 4.00879,0.93652 1.11865,0.62305 2.00976,1.65137 2.67285,3.08203 0.45605,0.99805 0.68408,2.5293 0.68408,4.59375 v 9.75977 c 0,1.4375 0.14404,2.41211 0.43359,2.92383 0.22706,0.41211 0.59375,0.73437 1.09961,0.96582 0.50586,0.23144 1.44092,0.34668 2.80469,0.34668 v 0.91894 h -14.09863 v -0.91894 h 0.58984 c 1.32373,0 2.24951,-0.16016 2.77735,-0.48243 0.52734,-0.32226 0.89453,-0.79687 1.10156,-1.4248 0.083,-0.24707 0.12451,-1.02441 0.12451,-2.3291 v -9.39649 c 0,-2.08886 -0.33594,-3.60546 -1.00684,-4.54882 -0.67138,-0.94336 -1.80175,-1.41602 -3.39111,-1.41602 -2.45752,0 -4.9043,1.08398 -7.34033,3.25293 v 12.1084 c 0,1.53711 0.11475,2.48633 0.34375,2.84961 0.29199,0.47851 0.69287,0.83008 1.20312,1.05273 0.51026,0.22266 1.54737,0.33399 3.10987,0.33399 v 0.91894 h -14.16211 v -0.91894 h 0.62402 c 1.45654,0 2.43994,-0.29297 2.94971,-0.87891 0.50928,-0.58691 0.76416,-1.70508 0.76416,-3.35742 v -8.4707 c 0,-2.73926 -0.0776,-4.40821 -0.2334,-5.00586 -0.15527,-0.59766 -0.39355,-1.00391 -0.71436,-1.22071 -0.3208,-0.21484 -0.75048,-0.32324 -1.28906,-0.32324 -0.58008,0 -1.27392,0.12402 -2.08105,0.37402 l -0.4668,-0.91796 8.61035,-2.80762 h 1.3418 v 4.78808 z" />
      <path
         inkscape:connector-curvature="0"
         style="fill:none;stroke:#000000;stroke-width:2;stroke-miterlimit:3.863693"
         id="path63"
         d="m 206.30713,330.83398 c 3.33545,-3.19238 6.51514,-4.78808 9.54004,-4.78808 1.55371,0 2.89013,0.31152 4.00879,0.93652 1.11865,0.62305 2.00976,1.65137 2.67285,3.08203 0.45605,0.99805 0.68408,2.5293 0.68408,4.59375 v 9.75977 c 0,1.4375 0.14404,2.41211 0.43359,2.92383 0.22706,0.41211 0.59375,0.73437 1.09961,0.96582 0.50586,0.23144 1.44092,0.34668 2.80469,0.34668 v 0.91894 h -14.09863 v -0.91894 h 0.58984 c 1.32373,0 2.24951,-0.16016 2.77735,-0.48243 0.52734,-0.32226 0.89453,-0.79687 1.10156,-1.4248 0.083,-0.24707 0.12451,-1.02441 0.12451,-2.3291 v -9.39649 c 0,-2.08886 -0.33594,-3.60546 -1.00684,-4.54882 -0.67138,-0.94336 -1.80175,-1.41602 -3.39111,-1.41602 -2.45752,0 -4.9043,1.08398 -7.34033,3.25293 v 12.1084 c 0,1.53711 0.11475,2.48633 0.34375,2.84961 0.29199,0.47851 0.69287,0.83008 1.20312,1.05273 0.51026,0.22266 1.54737,0.33399 3.10987,0.33399 v 0.91894 h -14.16211 v -0.91894 h 0.62402 c 1.45654,0 2.43994,-0.29297 2.94971,-0.87891 0.50928,-0.58691 0.76416,-1.70508 0.76416,-3.35742 v -8.4707 c 0,-2.73926 -0.0776,-4.40821 -0.2334,-5.00586 -0.15527,-0.59766 -0.39355,-1.00391 -0.71436,-1.22071 -0.3208,-0.21484 -0.75048,-0.32324 -1.28906,-0.32324 -0.58008,0 -1.27392,0.12402 -2.08105,0.37402 l -0.4668,-0.91796 8.61035,-2.80762 h 1.3418 v 4.78808 z" />
    </g>
    <g
       id="g65"
       transform="matrix(0.12167014,0,0,0.12158257,0.6601438,1.3779084)">
      <path
         inkscape:connector-curvature="0"
         style="fill-rule:evenodd"
         id="path67"
         d="m 238.45947,335.33398 c -0.0215,3.375 1.00635,6.02149 3.0835,7.94141 2.07812,1.91895 4.51758,2.87891 7.32226,2.87891 1.86914,0 3.49414,-0.40821 4.875,-1.22266 1.38086,-0.81445 2.53907,-2.22656 3.47461,-4.23828 l 0.95704,0.49805 c -0.43555,2.29882 -1.70118,4.38183 -3.79688,6.24707 -2.09375,1.86523 -4.71875,2.79785 -7.87109,2.79785 -3.42286,0 -6.35254,-1.06641 -8.79004,-3.19727 -2.4375,-2.13281 -3.65625,-4.99804 -3.65625,-8.59863 0,-3.89941 1.24951,-6.94043 3.74902,-9.12207 2.5,-2.18164 5.63672,-3.27246 9.41211,-3.27246 3.19531,0 5.81836,0.84277 7.87305,2.52734 2.05273,1.68457 3.08007,3.93848 3.08007,6.76074 h -19.7124 z m 0,-1.42871 h 13.20459 c -0.10351,-1.45996 -0.32031,-2.48925 -0.65332,-3.08593 -0.51855,-0.92872 -1.29199,-1.65918 -2.32031,-2.19043 -1.02832,-0.53125 -2.10254,-0.79688 -3.22363,-0.79688 -1.72266,0 -3.26465,0.53516 -4.625,1.60547 -1.35987,1.07031 -2.15381,2.55859 -2.38233,4.46777 z" />
      <path
         inkscape:connector-curvature="0"
         style="fill:none;stroke:#000000;stroke-width:2;stroke-miterlimit:3.863693"
         id="path69"
         d="m 238.45947,335.33398 c -0.0215,3.375 1.00635,6.02149 3.0835,7.94141 2.07812,1.91895 4.51758,2.87891 7.32226,2.87891 1.86914,0 3.49414,-0.40821 4.875,-1.22266 1.38086,-0.81445 2.53907,-2.22656 3.47461,-4.23828 l 0.95704,0.49805 c -0.43555,2.29882 -1.70118,4.38183 -3.79688,6.24707 -2.09375,1.86523 -4.71875,2.79785 -7.87109,2.79785 -3.42286,0 -6.35254,-1.06641 -8.79004,-3.19727 -2.4375,-2.13281 -3.65625,-4.99804 -3.65625,-8.59863 0,-3.89941 1.24951,-6.94043 3.74902,-9.12207 2.5,-2.18164 5.63672,-3.27246 9.41211,-3.27246 3.19531,0 5.81836,0.84277 7.87305,2.52734 2.05273,1.68457 3.08007,3.93848 3.08007,6.76074 h -19.7124 z m 0,-1.42871 h 13.20459 c -0.10351,-1.45996 -0.32031,-2.48925 -0.65332,-3.08593 -0.51855,-0.92872 -1.29199,-1.65918 -2.32031,-2.19043 -1.02832,-0.53125 -2.10254,-0.79688 -3.22363,-0.79688 -1.72266,0 -3.26465,0.53516 -4.625,1.60547 -1.35987,1.07031 -2.15381,2.55859 -2.38233,4.46777 z" />
    </g>
    <g
       id="g71"
       transform="matrix(0.12167014,0,0,0.12158257,0.6601438,1.3779084)">
      <path
         inkscape:connector-curvature="0"
         style="fill-rule:evenodd"
         id="path73"
         d="m 284.24512,326.0459 v 7.75683 h -1.02051 c -0.78711,-2.43164 -1.79492,-4.08593 -3.02539,-4.96191 -1.23242,-0.87598 -2.79883,-1.31543 -4.70215,-1.31543 -1.44824,0 -2.61621,0.30762 -3.50586,0.92188 -0.88965,0.61328 -1.33496,1.29394 -1.33496,2.04003 0,0.92969 0.32813,1.72559 0.9834,2.38965 0.63476,0.67969 1.9375,1.40235 3.90918,2.16602 l 4.54492,1.7666 c 4.21387,1.64355 6.32031,3.81152 6.32031,6.50098 0,2.07617 -0.98047,3.75 -2.94238,5.01953 -1.96191,1.27148 -4.15723,1.90625 -6.58594,1.90625 -1.74316,0 -3.7373,-0.24219 -5.97949,-0.72656 -0.68359,-0.16211 -1.24414,-0.24219 -1.67969,-0.24219 -0.47851,0 -0.85156,0.20312 -1.12109,0.61133 h -1.02149 v -8.16504 h 1.02149 c 0.58203,2.33105 1.69336,4.08691 3.33594,5.26953 1.64062,1.18262 3.48047,1.77344 5.51562,1.77344 1.43457,0 2.60352,-0.33594 3.50781,-1.00782 0.9043,-0.6709 1.35547,-1.48047 1.35547,-2.42675 0,-1.14356 -0.50586,-2.10547 -1.51758,-2.88477 -1.01171,-0.7793 -3.02441,-1.76367 -6.0371,-2.95215 -3.01368,-1.18848 -4.98438,-2.26562 -5.91407,-3.23144 -0.92968,-0.94727 -1.39453,-2.14649 -1.39453,-3.59375 0,-1.87989 0.80274,-3.45313 2.41016,-4.7168 1.60742,-1.26563 3.68554,-1.89746 6.23633,-1.89746 1.12011,0 2.47851,0.19531 4.07519,0.58691 1.05762,0.25489 1.7627,0.38282 2.11524,0.38282 0.33105,0 0.59082,-0.0596 0.77734,-0.17872 0.18652,-0.11914 0.4043,-0.38281 0.65332,-0.79101 h 1.02051 z" />
      <path
         inkscape:connector-curvature="0"
         style="fill:none;stroke:#000000;stroke-width:2;stroke-miterlimit:3.863693"
         id="path75"
         d="m 284.24512,326.0459 v 7.75683 h -1.02051 c -0.78711,-2.43164 -1.79492,-4.08593 -3.02539,-4.96191 -1.23242,-0.87598 -2.79883,-1.31543 -4.70215,-1.31543 -1.44824,0 -2.61621,0.30762 -3.50586,0.92188 -0.88965,0.61328 -1.33496,1.29394 -1.33496,2.04003 0,0.92969 0.32813,1.72559 0.9834,2.38965 0.63476,0.67969 1.9375,1.40235 3.90918,2.16602 l 4.54492,1.7666 c 4.21387,1.64355 6.32031,3.81152 6.32031,6.50098 0,2.07617 -0.98047,3.75 -2.94238,5.01953 -1.96191,1.27148 -4.15723,1.90625 -6.58594,1.90625 -1.74316,0 -3.7373,-0.24219 -5.97949,-0.72656 -0.68359,-0.16211 -1.24414,-0.24219 -1.67969,-0.24219 -0.47851,0 -0.85156,0.20312 -1.12109,0.61133 h -1.02149 v -8.16504 h 1.02149 c 0.58203,2.33105 1.69336,4.08691 3.33594,5.26953 1.64062,1.18262 3.48047,1.77344 5.51562,1.77344 1.43457,0 2.60352,-0.33594 3.50781,-1.00782 0.9043,-0.6709 1.35547,-1.48047 1.35547,-2.42675 0,-1.14356 -0.50586,-2.10547 -1.51758,-2.88477 -1.01171,-0.7793 -3.02441,-1.76367 -6.0371,-2.95215 -3.01368,-1.18848 -4.98438,-2.26562 -5.91407,-3.23144 -0.92968,-0.94727 -1.39453,-2.14649 -1.39453,-3.59375 0,-1.87989 0.80274,-3.45313 2.41016,-4.7168 1.60742,-1.26563 3.68554,-1.89746 6.23633,-1.89746 1.12011,0 2.47851,0.19531 4.07519,0.58691 1.05762,0.25489 1.7627,0.38282 2.11524,0.38282 0.33105,0 0.59082,-0.0596 0.77734,-0.17872 0.18652,-0.11914 0.4043,-0.38281 0.65332,-0.79101 h 1.02051 z" />
    </g>
    <g
       id="g77"
       transform="matrix(0.12167014,0,0,0.12158257,0.6601438,1.3779084)">
      <path
         inkscape:connector-curvature="0"
         style="fill-rule:evenodd"
         id="path79"
         d="m 312.92676,326.0459 v 7.75683 h -1.02051 c -0.78613,-2.43164 -1.79492,-4.08593 -3.02539,-4.96191 -1.23145,-0.87598 -2.79883,-1.31543 -4.70117,-1.31543 -1.44922,0 -2.61719,0.30762 -3.50684,0.92188 -0.88965,0.61328 -1.33398,1.29394 -1.33398,2.04003 0,0.92969 0.32715,1.72559 0.9834,2.38965 0.63378,0.67969 1.9375,1.40235 3.9082,2.16602 l 4.5459,1.7666 c 4.21289,1.64355 6.31933,3.81152 6.31933,6.50098 0,2.07617 -0.98047,3.75 -2.94238,5.01953 -1.96191,1.27148 -4.15723,1.90625 -6.58496,1.90625 -1.74414,0 -3.73731,-0.24219 -5.97949,-0.72656 -0.68457,-0.16211 -1.24512,-0.24219 -1.68067,-0.24219 -0.47754,0 -0.85156,0.20312 -1.12109,0.61133 h -1.02149 v -8.16504 h 1.02149 c 0.58203,2.33105 1.69336,4.08691 3.33594,5.26953 1.6416,1.18262 3.48047,1.77344 5.5166,1.77344 1.43359,0 2.60254,-0.33594 3.50683,-1.00782 0.9043,-0.6709 1.35645,-1.48047 1.35645,-2.42675 0,-1.14356 -0.50684,-2.10547 -1.51856,-2.88477 -1.01171,-0.7793 -3.02441,-1.76367 -6.0371,-2.95215 -3.01368,-1.18848 -4.98438,-2.26562 -5.91407,-3.23144 -0.92968,-0.94727 -1.39453,-2.14649 -1.39453,-3.59375 0,-1.87989 0.80371,-3.45313 2.41016,-4.7168 1.60742,-1.26563 3.68652,-1.89746 6.23633,-1.89746 1.12109,0 2.47851,0.19531 4.07617,0.58691 1.05664,0.25489 1.76172,0.38282 2.11523,0.38282 0.33106,0 0.58985,-0.0596 0.77735,-0.17872 0.18554,-0.11914 0.40429,-0.38281 0.65234,-0.79101 h 1.02051 z" />
      <path
         inkscape:connector-curvature="0"
         style="fill:none;stroke:#000000;stroke-width:2;stroke-miterlimit:3.863693"
         id="path81"
         d="m 312.92676,326.0459 v 7.75683 h -1.02051 c -0.78613,-2.43164 -1.79492,-4.08593 -3.02539,-4.96191 -1.23145,-0.87598 -2.79883,-1.31543 -4.70117,-1.31543 -1.44922,0 -2.61719,0.30762 -3.50684,0.92188 -0.88965,0.61328 -1.33398,1.29394 -1.33398,2.04003 0,0.92969 0.32715,1.72559 0.9834,2.38965 0.63378,0.67969 1.9375,1.40235 3.9082,2.16602 l 4.5459,1.7666 c 4.21289,1.64355 6.31933,3.81152 6.31933,6.50098 0,2.07617 -0.98047,3.75 -2.94238,5.01953 -1.96191,1.27148 -4.15723,1.90625 -6.58496,1.90625 -1.74414,0 -3.73731,-0.24219 -5.97949,-0.72656 -0.68457,-0.16211 -1.24512,-0.24219 -1.68067,-0.24219 -0.47754,0 -0.85156,0.20312 -1.12109,0.61133 h -1.02149 v -8.16504 h 1.02149 c 0.58203,2.33105 1.69336,4.08691 3.33594,5.26953 1.6416,1.18262 3.48047,1.77344 5.5166,1.77344 1.43359,0 2.60254,-0.33594 3.50683,-1.00782 0.9043,-0.6709 1.35645,-1.48047 1.35645,-2.42675 0,-1.14356 -0.50684,-2.10547 -1.51856,-2.88477 -1.01171,-0.7793 -3.02441,-1.76367 -6.0371,-2.95215 -3.01368,-1.18848 -4.98438,-2.26562 -5.91407,-3.23144 -0.92968,-0.94727 -1.39453,-2.14649 -1.39453,-3.59375 0,-1.87989 0.80371,-3.45313 2.41016,-4.7168 1.60742,-1.26563 3.68652,-1.89746 6.23633,-1.89746 1.12109,0 2.47851,0.19531 4.07617,0.58691 1.05664,0.25489 1.76172,0.38282 2.11523,0.38282 0.33106,0 0.58985,-0.0596 0.77735,-0.17872 0.18554,-0.11914 0.40429,-0.38281 0.65234,-0.79101 h 1.02051 z" />
    </g>
    <g
       id="g83"
       transform="matrix(0.12167014,0,0,0.12158257,0.6601438,1.3779084)">
      <path
         inkscape:connector-curvature="0"
         style="fill-rule:evenodd"
         id="path85"
         d="m 327.95703,335.33398 c -0.0215,3.375 1.00684,6.02149 3.08399,7.94141 2.07714,1.91895 4.51757,2.87891 7.32128,2.87891 1.86915,0 3.49512,-0.40821 4.87598,-1.22266 1.38086,-0.81445 2.53906,-2.22656 3.47461,-4.23828 l 0.95703,0.49805 c -0.43652,2.29882 -1.70215,4.38183 -3.79687,6.24707 -2.09473,1.86523 -4.71875,2.79785 -7.87207,2.79785 -3.42285,0 -6.35254,-1.06641 -8.79004,-3.19727 -2.4375,-2.13281 -3.65625,-4.99804 -3.65625,-8.59863 0,-3.89941 1.25,-6.94043 3.75,-9.12207 2.5,-2.18164 5.63672,-3.27246 9.41211,-3.27246 3.19433,0 5.81836,0.84277 7.87207,2.52734 2.05371,1.68457 3.08105,3.93848 3.08105,6.76074 h -19.71289 z m 0,-1.42871 h 13.20508 c -0.10352,-1.45996 -0.32129,-2.48925 -0.6543,-3.08593 -0.51855,-0.92872 -1.29199,-1.65918 -2.32031,-2.19043 -1.02734,-0.53125 -2.10156,-0.79688 -3.22266,-0.79688 -1.72363,0 -3.26562,0.53516 -4.625,1.60547 -1.35937,1.07031 -2.15429,2.55859 -2.38281,4.46777 z" />
      <path
         inkscape:connector-curvature="0"
         style="fill:none;stroke:#000000;stroke-width:2;stroke-miterlimit:3.863693"
         id="path87"
         d="m 327.95703,335.33398 c -0.0215,3.375 1.00684,6.02149 3.08399,7.94141 2.07714,1.91895 4.51757,2.87891 7.32128,2.87891 1.86915,0 3.49512,-0.40821 4.87598,-1.22266 1.38086,-0.81445 2.53906,-2.22656 3.47461,-4.23828 l 0.95703,0.49805 c -0.43652,2.29882 -1.70215,4.38183 -3.79687,6.24707 -2.09473,1.86523 -4.71875,2.79785 -7.87207,2.79785 -3.42285,0 -6.35254,-1.06641 -8.79004,-3.19727 -2.4375,-2.13281 -3.65625,-4.99804 -3.65625,-8.59863 0,-3.89941 1.25,-6.94043 3.75,-9.12207 2.5,-2.18164 5.63672,-3.27246 9.41211,-3.27246 3.19433,0 5.81836,0.84277 7.87207,2.52734 2.05371,1.68457 3.08105,3.93848 3.08105,6.76074 h -19.71289 z m 0,-1.42871 h 13.20508 c -0.10352,-1.45996 -0.32129,-2.48925 -0.6543,-3.08593 -0.51855,-0.92872 -1.29199,-1.65918 -2.32031,-2.19043 -1.02734,-0.53125 -2.10156,-0.79688 -3.22266,-0.79688 -1.72363,0 -3.26562,0.53516 -4.625,1.60547 -1.35937,1.07031 -2.15429,2.55859 -2.38281,4.46777 z" />
    </g>
    <g
       id="g89"
       transform="matrix(0.12167014,0,0,0.12158257,0.6601438,1.3779084)">
      <path
         inkscape:connector-curvature="0"
         style="fill-rule:evenodd"
         id="path91"
         d="m 360.08984,335.33398 c -0.0205,3.375 1.00782,6.02149 3.08496,7.94141 2.07715,1.91895 4.51758,2.87891 7.32129,2.87891 1.86914,0 3.49414,-0.40821 4.87598,-1.22266 1.38086,-0.81445 2.53906,-2.22656 3.47363,-4.23828 l 0.95703,0.49805 c -0.43554,2.29882 -1.70117,4.38183 -3.79589,6.24707 -2.09473,1.86523 -4.71875,2.79785 -7.87207,2.79785 -3.42188,0 -6.35254,-1.06641 -8.79004,-3.19727 -2.43653,-2.13281 -3.65528,-4.99804 -3.65528,-8.59863 0,-3.89941 1.24903,-6.94043 3.74805,-9.12207 2.5,-2.18164 5.6377,-3.27246 9.41309,-3.27246 3.19433,0 5.81836,0.84277 7.87207,2.52734 2.05371,1.68457 3.08007,3.93848 3.08007,6.76074 h -19.71289 z m 0,-1.42871 h 13.20606 c -0.10352,-1.45996 -0.32129,-2.48925 -0.65332,-3.08593 -0.51953,-0.92872 -1.29297,-1.65918 -2.32031,-2.19043 -1.0293,-0.53125 -2.10352,-0.79688 -3.22461,-0.79688 -1.72266,0 -3.26368,0.53516 -4.62403,1.60547 -1.36035,1.07031 -2.15429,2.55859 -2.38379,4.46777 z" />
      <path
         inkscape:connector-curvature="0"
         style="fill:none;stroke:#000000;stroke-width:2;stroke-miterlimit:3.863693"
         id="path93"
         d="m 360.08984,335.33398 c -0.0205,3.375 1.00782,6.02149 3.08496,7.94141 2.07715,1.91895 4.51758,2.87891 7.32129,2.87891 1.86914,0 3.49414,-0.40821 4.87598,-1.22266 1.38086,-0.81445 2.53906,-2.22656 3.47363,-4.23828 l 0.95703,0.49805 c -0.43554,2.29882 -1.70117,4.38183 -3.79589,6.24707 -2.09473,1.86523 -4.71875,2.79785 -7.87207,2.79785 -3.42188,0 -6.35254,-1.06641 -8.79004,-3.19727 -2.43653,-2.13281 -3.65528,-4.99804 -3.65528,-8.59863 0,-3.89941 1.24903,-6.94043 3.74805,-9.12207 2.5,-2.18164 5.6377,-3.27246 9.41309,-3.27246 3.19433,0 5.81836,0.84277 7.87207,2.52734 2.05371,1.68457 3.08007,3.93848 3.08007,6.76074 h -19.71289 z m 0,-1.42871 h 13.20606 c -0.10352,-1.45996 -0.32129,-2.48925 -0.65332,-3.08593 -0.51953,-0.92872 -1.29297,-1.65918 -2.32031,-2.19043 -1.0293,-0.53125 -2.10352,-0.79688 -3.22461,-0.79688 -1.72266,0 -3.26368,0.53516 -4.62403,1.60547 -1.36035,1.07031 -2.15429,2.55859 -2.38379,4.46777 z" />
    </g>
  </g>
  <text
     xml:space="preserve"
     style="font-size:36px;font-style:normal;font-variant:normal;font-weight:normal;font-stretch:normal;text-align:center;line-height:125%;letter-spacing:0px;word-spacing:0px;writing-mode:lr;text-anchor:middle;fill:#000000;fill-opacity:1;stroke:none;font-family:Roadgeek 2005 Series C;-inkscape-font-specification:Roadgeek 2005 Series C"
     x="30.010763"
     y="30.988882"
     id="text3016"
     sodipodi:linespacing="125%"
     transform="scale(0.99964133,1.0003588)"><tspan
       sodipodi:role="line"
       id="tspan3882">%num%</tspan></text>
</svg>
