<?xml version="1.0" encoding="UTF-8" standalone="no"?>
<!-- Generator: Adobe Illustrator 12.0.0, SVG Export Plug-In . SVG Version: 6.00 Build 51448)  -->

<svg
   xmlns:dc="http://purl.org/dc/elements/1.1/"
   xmlns:cc="http://creativecommons.org/ns#"
   xmlns:rdf="http://www.w3.org/1999/02/22-rdf-syntax-ns#"
   xmlns:svg="http://www.w3.org/2000/svg"
   xmlns="http://www.w3.org/2000/svg"
   xmlns:sodipodi="http://sodipodi.sourceforge.net/DTD/sodipodi-0.dtd"
   xmlns:inkscape="http://www.inkscape.org/namespaces/inkscape"
   version="1.1"
   id="Layer_1"
   width="48"
   height="48"
   viewBox="0 0 48 48"
   overflow="visible"
   enable-background="new 0 0 385 385.0004883"
   xml:space="preserve"
   inkscape:version="0.48.1 r9760"
   sodipodi:docname="US:TX:Toll_2.svg"
   style="overflow:visible"><metadata
   id="metadata71"><rdf:RDF><cc:Work
       rdf:about=""><dc:format>image/svg+xml</dc:format><dc:type
         rdf:resource="http://purl.org/dc/dcmitype/StillImage" /></cc:Work></rdf:RDF></metadata><defs
   id="defs69">
	
	
	
	
	
	
	
	
	
	
	
	
	
</defs><sodipodi:namedview
   pagecolor="#ffffff"
   bordercolor="#666666"
   borderopacity="1"
   objecttolerance="10"
   gridtolerance="10"
   guidetolerance="10"
   inkscape:pageopacity="0"
   inkscape:pageshadow="2"
   inkscape:window-width="1598"
   inkscape:window-height="1198"
   id="namedview67"
   showgrid="true"
   inkscape:showpageshadow="false"
   inkscape:zoom="20.25"
   inkscape:cx="24"
   inkscape:cy="24"
   inkscape:window-x="1"
   inkscape:window-y="1"
   inkscape:window-maximized="0"
   inkscape:current-layer="Layer_1"><inkscape:grid
     type="xygrid"
     id="grid3048"
     empspacing="5"
     visible="true"
     enabled="true"
     snapvisiblegridlinesonly="true"
     spacingx="1px"
     spacingy="1px"
     dotted="false" /></sodipodi:namedview>
<g
   id="g4168"><g
     transform="matrix(0.11946618,0,0,0.11946603,1.0027669,1.0027529)"
     id="g5">
		<g
   id="g7">
			<path
   d="m 0.5,24.5 c 0,-13.254883 10.745117,-24 24,-24 h 336 c 13.25488,0 24,10.745117 24,24 v 336.00049 c 0,13.25488 -10.74512,24 -24,24 h -336 c -13.254883,0 -24,-10.74512 -24,-24 V 24.5 l 0,0 z"
   id="path9"
   inkscape:connector-curvature="0"
   style="fill:#ffffff" />
			<path
   d="M 192.5,192.50049"
   id="path11"
   inkscape:connector-curvature="0"
   style="fill:#ffffff" />
		</g>
		<g
   id="g13">
			<path
   stroke-miterlimit="3.863693"
   d="m 0.5,24.5 c 0,-13.254883 10.745117,-24 24,-24 h 336 c 13.25488,0 24,10.745117 24,24 v 336.00049 c 0,13.25488 -10.74512,24 -24,24 h -336 c -13.254883,0 -24,-10.74512 -24,-24 V 24.5 l 0,0 z"
   id="path15"
   inkscape:connector-curvature="0"
   style="fill:none;stroke:#000000;stroke-linecap:round;stroke-linejoin:round;stroke-miterlimit:3.863693" />
			<path
   stroke-miterlimit="3.863693"
   d="M 192.5,192.50049"
   id="path17"
   inkscape:connector-curvature="0"
   style="fill:none;stroke:#000000;stroke-linecap:round;stroke-linejoin:round;stroke-miterlimit:3.863693" />
		</g>
	</g><g
     transform="matrix(0.11946618,0,0,0.11946603,1.0027669,1.0027529)"
     id="g19">
		<path
   d="m 24.5,0.5 h 336 c 13.25488,0 24,10.745117 24,24 V 256.50049 H 0.5 V 24.5 c 0,-13.254883 10.745117,-24 24,-24 z"
   id="path21"
   inkscape:connector-curvature="0"
   style="fill:#003882" />
	</g><g
     transform="matrix(0.11946618,0,0,0.11946603,1.0027669,1.0027529)"
     id="g23">
		<path
   d="m 10.5,24.5 c 0,-7.731934 6.268066,-14 14,-14 h 336 c 7.73242,0 14,6.268066 14,14 V 246.50049 H 10.5 V 24.5 z"
   id="path25"
   inkscape:connector-curvature="0"
   style="fill:#ffffff" />
	</g><g
     transform="matrix(0.11946618,0,0,0.11946603,1.0027669,1.0027529)"
     id="g27">
		<polygon
   clip-rule="evenodd"
   points="35.697266,288.87744 37.576172,288.00049 39.579102,287.12451 43.587891,285.87061 45.715332,285.37061 49.975586,284.61768 52.102051,284.49463 56.362793,284.49463 58.492676,284.61768 60.620117,284.99463 60.620117,284.86963 93.809082,348.23975 91.678711,347.8667 89.547852,347.73682 85.292969,347.73682 83.164062,347.8667 78.904297,348.61572 76.776367,349.1167 72.766602,350.37061 70.763184,351.24658 68.883789,352.12158 67.005371,353.12549 65.125488,354.25342 63.374023,355.50635 60.121094,358.26025 58.492676,359.76221 57.113281,361.26416 55.733887,362.896 54.360352,364.646 21.294922,301.3999 21.168457,301.3999 22.547852,299.64697 23.924316,298.02002 25.302246,296.51807 26.929688,295.01416 30.187012,292.25928 31.94043,291.00732 33.818848,289.87939 "
   id="polygon29"
   style="fill:#003882;fill-rule:evenodd" />
	</g><g
     transform="matrix(0.11946618,0,0,0.11946603,1.0027669,1.0027529)"
     id="g31">
		<polygon
   clip-rule="evenodd"
   points="55.733887,321.93896 49.847656,334.96533 46.968262,321.06299 32.81543,319.55908 45.089356,312.42334 42.207519,298.521 52.729981,308.0376 65.125488,300.90088 59.242676,313.92432 69.88623,323.44287 "
   id="polygon33"
   style="fill:#ffffff;fill-rule:evenodd" />
	</g><g
     transform="matrix(0.11946618,0,0,0.11946603,1.0027669,1.0027529)"
     id="g35">
		<polygon
   clip-rule="evenodd"
   points="101.82324,352.62549 100.06885,351.87158 98.442871,351.12354 96.938965,350.11768 95.30957,349.24268 93.809082,348.23975 93.809082,348.11475 93.809082,348.23975 77.152344,316.42822 77.275391,316.42822 77.275391,316.55518 78.780762,317.55811 80.405762,318.43506 81.911621,319.43604 83.539551,320.18604 85.292969,320.93994 86.920898,321.56494 90.425781,322.56689 92.055176,322.94189 93.809082,323.31885 95.562012,323.56885 97.442383,323.69482 100.94629,323.69482 102.69922,323.56885 104.45215,323.44287 106.20557,323.19287 107.96094,322.81689 111.46826,321.81689 113.09473,321.18896 114.84814,320.56396 116.47607,319.68799 118.10352,318.93506 119.6084,317.93408 121.23633,316.93018 122.73779,315.92822 124.11523,314.80127 125.61963,313.54834 126.99609,312.29834 128.37598,310.91943 129.625,309.54248 130.87891,308.0376 132.00537,306.53662 132.13281,306.53662 132.00537,306.66064 148.53857,338.22119 147.41016,339.72412 146.15771,341.22705 144.90527,342.60205 143.52979,343.98486 142.14941,345.23584 140.64844,346.48682 139.27051,347.61572 137.76562,348.61572 136.13818,349.61768 134.63574,350.62158 133.0083,351.36963 131.38037,352.24658 129.625,352.87451 128,353.50244 126.24414,354.00049 124.4917,354.50439 122.73779,354.87744 120.98535,355.12939 117.47852,355.37939 113.9707,355.37939 112.09375,355.25439 110.34082,355.00342 108.58545,354.62744 106.95898,354.25342 103.44971,353.24854 "
   id="polygon37"
   style="fill:#b01c2e;fill-rule:evenodd" />
	</g><g
     transform="matrix(0.11946618,0,0,0.11946603,1.0027669,1.0027529)"
     id="g39">
		
			<polyline
   stroke-miterlimit="3.863693"
   points="    60.7441406,285.1196289 63,286.4956055 65.2529297,287.7485352 67.5068359,288.8774414 69.8862305,289.8793945     72.3911133,290.6313477 74.8955078,291.3813477 77.4008789,291.7583008 80.0307617,292.1333008 82.5366211,292.2592773     85.1655273,292.2592773 87.6708984,292.0083008 90.3022461,291.6313477 92.8066406,291.1313477 95.3095703,290.3793945     97.6904297,289.5024414 100.0688477,288.5004883 102.3256836,287.2504883 104.578125,285.8706055 106.7070313,284.4946289     108.7124023,282.8637695 110.5888672,281.1108398 112.3427734,279.2329102 114.0986328,277.2290039 115.5976563,275.1010742   "
   id="polyline41"
   style="fill:none;stroke:#003882;stroke-width:2;stroke-linecap:round;stroke-linejoin:round;stroke-miterlimit:3.863693" />
	</g><g
     transform="matrix(0.11946618,0,0,0.11946603,1.0027669,1.0027529)"
     id="g43">
		
			<line
   stroke-miterlimit="3.863693"
   x1="115.47461"
   y1="275.10107"
   x2="131.87939"
   y2="306.28369"
   id="line45"
   style="fill:none;stroke:#003882;stroke-width:2;stroke-linecap:round;stroke-linejoin:round;stroke-miterlimit:3.863693" />
	</g><g
     transform="matrix(0.11946618,0,0,0.11946603,1.0027669,1.0027529)"
     id="g47">
		<polygon
   clip-rule="evenodd"
   points="207.27441,297.39209 208.90234,296.01611 210.65723,294.88721 212.53516,293.76025 214.41309,292.76025 216.41797,291.8833 218.54492,291.00732 220.67676,290.25439 222.93066,289.62744 227.43848,288.87744 229.69336,288.62549 231.94824,288.50049 234.20117,288.50049 236.4541,288.62549 238.71191,288.87744 240.96387,289.25342 243.21875,289.75439 245.34766,290.37939 247.60156,291.13135 249.60547,292.0083 251.73633,293.0083 251.73633,292.88525 253.61328,294.13721 255.49316,295.51514 257.24609,297.01611 258.87402,298.646 260.50195,300.39893 261.88086,302.27783 263.13281,304.15771 264.25781,306.28369 266.01172,310.54346 266.63867,312.79834 267.39062,317.30518 267.51367,319.68799 267.39062,321.94189 267.26562,324.31885 266.2627,328.82861 265.51172,330.95752 264.63477,333.21143 263.63281,335.21631 262.50586,337.21924 261.12988,339.09814 259.625,340.97705 258.12402,342.60205 256.37012,344.10791 254.49023,345.60986 252.61426,346.86182 250.60938,347.99268 248.47852,348.99268 246.34961,349.86963 244.22168,350.62158 242.09277,351.24658 239.83594,351.74854 237.58301,352.12158 235.3291,352.37549 232.9502,352.49854 230.69336,352.49854 228.44141,352.37549 226.18652,352.12158 223.92969,351.74854 221.67773,351.24658 219.42188,350.74658 217.29492,349.99463 215.16504,349.1167 213.16016,348.23975 211.2832,347.23779 207.77734,344.73291 206.15039,343.23193 204.64355,341.72705 203.26953,340.09912 202.0166,338.34717 200.88672,336.59424 199.88477,334.59033 199.00977,332.71143 198.25781,330.70752 197.63281,328.57764 197.12891,326.57568 196.75488,324.4458 196.63184,322.31689 196.63184,320.06299 196.75488,317.93408 197.00586,315.8042 197.38184,313.67432 198.63574,309.6665 199.51074,307.66357 200.5127,305.78271 201.63867,303.90674 202.89062,302.15283 204.26953,300.39893 205.64648,298.89697 "
   id="polygon49"
   style="fill:#003882;fill-rule:evenodd" />
	</g><g
     transform="matrix(0.11946618,0,0,0.11946603,1.0027669,1.0027529)"
     id="g51">
		<polygon
   clip-rule="evenodd"
   points="234.45117,343.60498 231.94824,343.73193 229.44141,343.35791 227.19043,342.60205 224.93262,341.47705 222.93066,340.09912 221.17578,338.34717 219.6748,336.34229 218.54492,334.21143 217.79492,331.8335 217.04492,329.70361 216.04102,325.44775 215.79102,323.19287 215.66602,320.93994 215.66602,318.68408 215.91699,316.42822 216.16699,314.30029 216.66797,312.04541 217.29492,309.91846 218.0459,307.78955 218.9209,305.78271 219.92383,303.78174 219.92383,303.65479 221.92871,301.52588 224.43359,299.8999 227.19043,298.89697 230.19434,298.27002 233.07422,298.396 235.95508,299.02197 238.71191,300.27393 241.08984,301.90186 243.0957,304.15771 244.5957,306.53662 245.97461,308.91455 246.97656,311.42041 247.85352,314.05127 248.47852,316.80518 248.85352,319.55908 248.98047,322.31689 248.98047,325.07275 248.60352,327.82568 248.10352,330.58057 247.34961,333.21143 246.34961,335.71729 244.97266,337.84424 243.34375,339.6001 241.34082,341.10205 239.21094,342.35596 236.83203,343.23193 "
   id="polygon53"
   style="fill:#ffffff;fill-rule:evenodd" />
	</g><g
     transform="matrix(0.11946618,0,0,0.11946603,1.0027669,1.0027529)"
     id="g55">
		<polygon
   clip-rule="evenodd"
   points="161.1875,348.99268 161.68799,347.99268 161.93848,347.11572 162.18945,346.11182 162.31445,345.10986 162.4375,300.90088 156.55273,300.90088 155.17676,301.02588 153.92529,301.27686 152.67188,301.52588 151.42041,301.90186 150.16602,302.40088 148.91357,303.02979 146.65967,304.27979 146.65967,304.40674 150.41699,290.00635 196.37891,289.75439 192.74707,304.40674 192.62207,304.53076 192.12109,303.78174 191.49609,303.15674 190.86816,302.52881 190.11621,302.02783 189.24219,301.65283 188.48877,301.27686 187.61133,301.02588 186.73535,300.77588 179.97412,300.77588 179.84814,345.10986 179.84814,345.23584 180.09668,346.11182 180.34863,347.11572 180.72461,347.99268 181.10059,348.74072 181.60156,349.61768 182.85498,351.12354 183.60547,351.74854 158.55566,351.74854 158.55566,351.87158 159.30957,351.24658 160.05957,350.49561 160.68457,349.74268 "
   id="polygon57"
   style="fill:#003882;fill-rule:evenodd" />
	</g><g
     transform="matrix(0.11946618,0,0,0.11946603,1.0027669,1.0027529)"
     id="g59">
		<polygon
   clip-rule="evenodd"
   points="300.70508,342.35596 302.70703,342.47998 304.58789,342.35596 306.5918,342.22998 308.46875,341.854 311.47461,340.72607 312.47656,340.22314 313.35352,339.72412 314.35352,339.22412 316.10938,337.97217 311.85059,351.62158 271.39844,351.74854 272.39941,351.12354 273.27539,350.37061 274.0293,349.61768 275.28027,347.61572 275.53125,346.48682 275.78223,345.48584 275.90625,344.23486 275.78223,344.35986 276.03125,298.14502 275.90625,297.76904 275.90625,297.89404 275.78223,296.76611 275.53027,295.76709 275.15625,294.63916 274.7793,293.63721 272.89844,291.00732 272.02344,290.25439 272.14844,290.25439 297.44922,290.13135 296.44531,290.88037 295.56836,291.63135 294.69043,292.5083 294.06738,293.51025 293.56445,294.63916 293.19043,295.76709 293.06445,297.01611 293.06445,298.27002 293.06445,298.14502 293.19043,298.14502 293.06445,340.72607 292.93945,340.72607 294.81836,341.354 296.82227,341.854 298.70117,342.104 "
   id="polygon61"
   style="fill:#003882;fill-rule:evenodd" />
	</g><g
     transform="matrix(0.11946618,0,0,0.11946603,1.0027669,1.0027529)"
     id="g63">
		<polygon
   clip-rule="evenodd"
   points="352.42773,342.35596 354.43164,342.47998 356.31055,342.35596 358.31445,342.22998 360.19336,341.854 361.19336,341.47705 363.19922,340.72607 364.20117,340.22314 365.07812,339.72412 366.08203,339.22412 367.83203,337.97217 363.5752,351.62158 323.12207,351.74854 324.125,351.12354 325.00195,350.37061 325.75195,349.61768 327.00586,347.61572 327.25391,346.48682 327.50586,345.48584 327.63086,344.23486 327.50586,344.35986 327.75391,298.14502 327.63086,297.76904 327.63086,297.89404 327.50586,296.76611 327.25391,295.76709 326.87695,294.63916 326.50293,293.63721 324.62598,291.00732 323.74805,290.25439 323.87305,290.25439 349.17188,290.13135 348.16992,290.88037 347.29297,291.63135 346.41797,292.5083 345.78906,293.51025 345.28711,294.63916 344.91211,295.76709 344.78906,297.01611 344.78906,298.27002 344.78906,298.14502 344.91211,298.14502 344.78906,340.72607 344.66406,340.72607 346.54102,341.354 348.5459,341.854 350.42383,342.104 "
   id="polygon65"
   style="fill:#003882;fill-rule:evenodd" />
	</g></g>
<text
   xml:space="preserve"
   style="font-size:32px;font-style:normal;font-variant:normal;font-weight:normal;font-stretch:normal;text-align:center;line-height:125%;letter-spacing:0px;word-spacing:0px;writing-mode:lr;text-anchor:middle;fill:#003882;fill-opacity:1;stroke:none;font-family:Roadgeek 2005 Series D;-inkscape-font-specification:Roadgeek 2005 Series D"
   x="24"
   y="28"
   id="text3050"
   sodipodi:linespacing="125%"><tspan
     sodipodi:role="line"
     id="tspan4201">%num%</tspan></text>

</svg>