<?xml version="1.0" encoding="UTF-8" standalone="no"?>
<!-- Created with Inkscape (http://www.inkscape.org/) -->

<svg
   xmlns:dc="http://purl.org/dc/elements/1.1/"
   xmlns:cc="http://creativecommons.org/ns#"
   xmlns:rdf="http://www.w3.org/1999/02/22-rdf-syntax-ns#"
   xmlns:svg="http://www.w3.org/2000/svg"
   xmlns="http://www.w3.org/2000/svg"
   xmlns:sodipodi="http://sodipodi.sourceforge.net/DTD/sodipodi-0.dtd"
   xmlns:inkscape="http://www.inkscape.org/namespaces/inkscape"
   width="51"
   height="48"
   id="svg2"
   sodipodi:version="0.32"
   inkscape:version="0.48.1 r9760"
   version="1.0"
   sodipodi:docname="US:TX:RE.svg">
  <defs
     id="defs4">
    <inkscape:perspective
       sodipodi:type="inkscape:persp3d"
       inkscape:vp_x="0 : 456 : 1"
       inkscape:vp_y="0 : 1000 : 0"
       inkscape:vp_z="773 : 456 : 1"
       inkscape:persp3d-origin="386.5 : 304 : 1"
       id="perspective3821" />
    <inkscape:perspective
       id="perspective3039"
       inkscape:persp3d-origin="0.5 : 0.33333333 : 1"
       inkscape:vp_z="1 : 0.5 : 1"
       inkscape:vp_y="0 : 1000 : 0"
       inkscape:vp_x="0 : 0.5 : 1"
       sodipodi:type="inkscape:persp3d" />
    <inkscape:perspective
       id="perspective3286"
       inkscape:persp3d-origin="0.5 : 0.33333333 : 1"
       inkscape:vp_z="1 : 0.5 : 1"
       inkscape:vp_y="0 : 1000 : 0"
       inkscape:vp_x="0 : 0.5 : 1"
       sodipodi:type="inkscape:persp3d" />
    <inkscape:perspective
       id="perspective3563"
       inkscape:persp3d-origin="0.5 : 0.33333333 : 1"
       inkscape:vp_z="1 : 0.5 : 1"
       inkscape:vp_y="0 : 1000 : 0"
       inkscape:vp_x="0 : 0.5 : 1"
       sodipodi:type="inkscape:persp3d" />
    <inkscape:perspective
       id="perspective4986"
       inkscape:persp3d-origin="0.5 : 0.33333333 : 1"
       inkscape:vp_z="1 : 0.5 : 1"
       inkscape:vp_y="0 : 1000 : 0"
       inkscape:vp_x="0 : 0.5 : 1"
       sodipodi:type="inkscape:persp3d" />
    <inkscape:perspective
       id="perspective5226"
       inkscape:persp3d-origin="0.5 : 0.33333333 : 1"
       inkscape:vp_z="1 : 0.5 : 1"
       inkscape:vp_y="0 : 1000 : 0"
       inkscape:vp_x="0 : 0.5 : 1"
       sodipodi:type="inkscape:persp3d" />
    <inkscape:perspective
       id="perspective5489"
       inkscape:persp3d-origin="0.5 : 0.33333333 : 1"
       inkscape:vp_z="1 : 0.5 : 1"
       inkscape:vp_y="0 : 1000 : 0"
       inkscape:vp_x="0 : 0.5 : 1"
       sodipodi:type="inkscape:persp3d" />
    <inkscape:perspective
       id="perspective5489-8"
       inkscape:persp3d-origin="0.5 : 0.33333333 : 1"
       inkscape:vp_z="1 : 0.5 : 1"
       inkscape:vp_y="0 : 1000 : 0"
       inkscape:vp_x="0 : 0.5 : 1"
       sodipodi:type="inkscape:persp3d" />
    <inkscape:perspective
       id="perspective5881"
       inkscape:persp3d-origin="0.5 : 0.33333333 : 1"
       inkscape:vp_z="1 : 0.5 : 1"
       inkscape:vp_y="0 : 1000 : 0"
       inkscape:vp_x="0 : 0.5 : 1"
       sodipodi:type="inkscape:persp3d" />
    <inkscape:perspective
       id="perspective6076"
       inkscape:persp3d-origin="0.5 : 0.33333333 : 1"
       inkscape:vp_z="1 : 0.5 : 1"
       inkscape:vp_y="0 : 1000 : 0"
       inkscape:vp_x="0 : 0.5 : 1"
       sodipodi:type="inkscape:persp3d" />
    <inkscape:perspective
       id="perspective6358"
       inkscape:persp3d-origin="0.5 : 0.33333333 : 1"
       inkscape:vp_z="1 : 0.5 : 1"
       inkscape:vp_y="0 : 1000 : 0"
       inkscape:vp_x="0 : 0.5 : 1"
       sodipodi:type="inkscape:persp3d" />
    <inkscape:perspective
       id="perspective6392"
       inkscape:persp3d-origin="0.5 : 0.33333333 : 1"
       inkscape:vp_z="1 : 0.5 : 1"
       inkscape:vp_y="0 : 1000 : 0"
       inkscape:vp_x="0 : 0.5 : 1"
       sodipodi:type="inkscape:persp3d" />
  </defs>
  <sodipodi:namedview
     id="base"
     pagecolor="#ffffff"
     bordercolor="#666666"
     borderopacity="1.0"
     inkscape:pageopacity="0.0"
     inkscape:pageshadow="2"
     inkscape:zoom="20.25"
     inkscape:cx="25.5"
     inkscape:cy="24"
     inkscape:document-units="px"
     inkscape:current-layer="layer1"
     inkscape:window-width="1598"
     inkscape:window-height="1198"
     inkscape:window-x="1"
     inkscape:window-y="1"
     showgrid="true"
     showborder="true"
     inkscape:showpageshadow="false"
     inkscape:window-maximized="0">
    <inkscape:grid
       type="xygrid"
       id="grid3626"
       empspacing="5"
       visible="true"
       enabled="true"
       snapvisiblegridlinesonly="true"
       spacingx="1px"
       spacingy="1px" />
  </sodipodi:namedview>
  <metadata
     id="metadata7">
    <rdf:RDF>
      <cc:Work
         rdf:about="">
        <dc:format>image/svg+xml</dc:format>
        <dc:type
           rdf:resource="http://purl.org/dc/dcmitype/StillImage" />
        <dc:title />
      </cc:Work>
    </rdf:RDF>
  </metadata>
  <g
     inkscape:label="Layer 1"
     inkscape:groupmode="layer"
     id="layer1"
     transform="translate(-455.25671,-441.53663)">
    <path
       id="path1435"
       d=""
       style="fill:#a8e50a"
       inkscape:connector-curvature="0" />
    <path
       inkscape:connector-curvature="0"
       d="M 479.25673,465.53659"
       id="path6024" />
    <g
       id="g4016">
      <path
         transform="matrix(0.99679191,0,0,0.99801391,1.5443457,0.97843676)"
         d="M 479.84375,442.4375 469.625,442.625 a 1.0908757,1.0908757 0 0 0 -1.0625,1.09375 l 0,17.25 -11.28125,-0.15625 a 1.0908757,1.0908757 0 0 0 -1.09375,1.25 c 0.30592,1.96166 1.60714,3.56123 3.3125,4.53125 0.0185,0.0105 0.0126,0.0521 0.0312,0.0625 a 1.0908757,1.0908757 0 0 0 0.0312,0.0312 1.0908757,1.0908757 0 0 0 0.53125,0.40625 c 0.63685,0.24199 1.48617,0.96811 1.84375,1.5625 A 1.0908757,1.0908757 0 0 0 462,468.75 c 0.22289,0.30403 0.40722,0.83124 0.5625,1.375 l 0.0312,0 c 0.11992,0.7502 0.33496,1.49954 0.75,2.21875 0.007,0.0132 0.0238,0.0181 0.0312,0.0312 0.74358,1.31068 1.92983,2.2986 3.3125,2.8125 l 0.0625,0 a 1.0908757,1.0908757 0 0 0 0.0312,0.0312 l 0,0.0312 a 1.0908757,1.0908757 0 0 0 0.1875,0.125 l 0.28125,0.1875 a 1.0908757,1.0908757 0 0 0 0.15625,0.0937 l 0.28125,0.125 a 1.0908757,1.0908757 0 0 0 0.21875,0.0625 l 0.3125,0.0625 a 1.0908757,1.0908757 0 0 0 0.125,0.0312 l 0.34375,0.0312 a 1.0908757,1.0908757 0 0 0 0.1875,0 l 0.3125,-0.0312 a 1.0908757,1.0908757 0 0 0 0.0937,-0.0312 l 0.34375,-0.0625 a 1.0908757,1.0908757 0 0 0 0.25,-0.0625 l 0.28125,-0.125 a 1.0908757,1.0908757 0 0 0 0.15625,-0.0937 l 0.28125,-0.1875 a 1.0908757,1.0908757 0 0 0 0.125,-0.0937 l 0.25,-0.21875 a 1.0908757,1.0908757 0 0 0 0.0937,-0.0937 l 0.21875,-0.25 A 1.0908757,1.0908757 0 0 0 471.5625,474 c 0.009,-0.65128 0.33287,-1.16583 0.875,-1.46875 1.6852,-0.31476 3.58904,0.47379 4.5,1.90625 1.13877,2.55796 2.82671,5.00136 4.78125,7 0.41721,1.74406 1.11535,3.30622 2.25,4.75 a 1.0908757,1.0908757 0 0 0 0.6875,0.40625 c 0.88434,0.12207 2.05321,0.60464 2.8125,1.15625 a 1.0908757,1.0908757 0 0 0 0.9375,0.1875 c 0.62792,-0.16993 1.19827,-0.0766 1.78125,0.28125 a 1.0908757,1.0908757 0 0 0 0.46875,0.15625 c 0.008,0.003 0.0228,-0.003 0.0312,0 1.2618,0.4966 2.82686,-0.24764 2.9375,-1.71875 a 1.0908757,1.0908757 0 0 0 0,-0.0937 l 0,-0.0312 a 1.0908757,1.0908757 0 0 0 -0.25,-0.6875 c -1.38147,-1.72086 -1.69759,-3.9969 -0.8125,-6 0.2719,-0.55624 0.54291,-0.99275 0.9375,-1.4375 0.23523,-0.27279 0.2951,-0.32063 0.375,-0.375 0.0754,-0.0513 0.29445,-0.16101 0.625,-0.375 0.0195,-0.0126 0.0108,-0.0178 0.0312,-0.0312 1.42828,-0.88293 2.88191,-1.77369 4.3125,-2.625 0.76706,-0.24959 1.25964,-0.93861 1.3125,-1.71875 a 1.0908757,1.0908757 0 0 0 0.5,-0.21875 c 0.92487,-0.7364 1.97216,-1.32521 3.09375,-1.8125 a 1.0908757,1.0908757 0 0 0 0.59375,-0.65625 l 0.0312,-0.0625 a 1.0908757,1.0908757 0 0 0 0,-0.0312 l 0.0312,-0.0937 0.0312,-0.0625 0.0937,-0.21875 a 1.0908757,1.0908757 0 0 0 0.0312,-0.0937 l 0.1875,-0.5625 0.0937,-0.28125 a 1.0908757,1.0908757 0 0 0 0.0312,-0.0937 l 0.0625,-0.28125 a 1.0908757,1.0908757 0 0 0 0,-0.0937 l 0.0937,-0.59375 a 1.0908757,1.0908757 0 0 0 0,-0.40625 l -0.1875,-0.84375 a 1.0908757,1.0908757 0 0 0 0,-0.0625 l -0.0625,-0.21875 -0.0625,-0.1875 0,-0.0312 c 0.44763,-0.68069 0.73904,-1.46776 0.5625,-2.3125 -0.004,-0.0211 0.005,-0.0414 0,-0.0625 l -0.0312,0 c -0.14567,-0.74945 -0.51921,-1.26878 -1.0625,-1.6875 -0.23091,-0.79038 -0.69995,-1.43374 -1.34375,-1.9375 l -0.53125,-6.15625 a 1.0908757,1.0908757 0 0 0 -1,-1 c -0.64205,-0.0635 -1.26949,-0.1719 -1.9375,-0.3125 l -0.0312,0 0,-0.0312 a 1.0908757,1.0908757 0 0 0 -0.1875,-0.0937 l -0.125,-0.0625 -0.0625,-0.0312 -0.0312,-0.0312 -0.125,-0.0937 a 1.0908757,1.0908757 0 0 0 -0.125,-0.0937 l -0.25,-0.125 a 1.0908757,1.0908757 0 0 0 -0.15625,-0.0625 l -0.25,-0.0937 -0.0312,0 -0.21875,-0.0937 a 1.0908757,1.0908757 0 0 0 -0.125,-0.0312 l -0.25,-0.0625 a 1.0908757,1.0908757 0 0 0 -0.125,-0.0312 L 497,451.9375 l -0.28125,-0.0312 a 1.0908757,1.0908757 0 0 0 -0.125,0 l -0.25,0 a 1.0908757,1.0908757 0 0 0 -0.125,0 l -0.28125,0.0312 -0.28125,0.0312 -0.25,0.0312 a 1.0908757,1.0908757 0 0 0 -0.25,0.0625 l -0.125,0.0625 -0.125,0.0312 a 1.0908757,1.0908757 0 0 0 -0.1875,0.0937 c -0.40986,0.23551 -1.12005,0.48442 -1.625,0.59375 -0.76239,-0.38439 -1.57426,-0.44566 -2.40625,-0.25 -0.0306,0.007 -0.0632,-0.008 -0.0937,0 a 1.0908757,1.0908757 0 0 0 -0.40625,0 c -0.92374,0.20065 -2.02757,-0.0632 -2.75,-0.65625 a 1.0908757,1.0908757 0 0 0 -0.875,-0.21875 c -0.9039,0.14712 -1.86071,-0.0173 -2.6875,-0.40625 l -0.0937,-0.0312 0,-0.0312 a 1.0908757,1.0908757 0 0 0 -0.0937,-0.0625 1.0908757,1.0908757 0 0 0 -0.0312,-0.0312 l -0.15625,-0.125 a 1.0908757,1.0908757 0 0 0 -0.1875,-0.125 l -0.0937,-0.0625 c -0.0104,-0.006 -0.0209,0.005 -0.0312,0 -0.5181,-0.26899 -0.99808,-0.22167 -1.4375,-0.0625 -0.14882,-0.0704 -0.30922,-0.10626 -0.46875,-0.15625 l -0.3125,-7.15625 a 1.0908757,1.0908757 0 0 0 -1.125,-1.03125 z"
         id="path4014"
         style="fill:#613314;fill-opacity:1;fill-rule:evenodd"
         inkscape:original="M 479.875 443.53125 L 469.65625 443.71875 L 469.65625 462.09375 L 457.25 461.90625 C 457.53047 463.70473 458.79349 465.30379 460.46875 466.03125 L 460.46875 466.0625 C 461.4014 466.41689 462.36616 467.24793 462.875 468.09375 C 463.23801 468.58891 463.45787 469.22723 463.625 469.8125 C 463.72776 470.54034 463.90691 471.17193 464.28125 471.8125 C 464.88556 472.89671 465.89757 473.72328 467.0625 474.15625 L 467.3125 474.21875 L 467.5625 474.46875 L 467.84375 474.65625 L 468.125 474.78125 L 468.4375 474.84375 L 468.78125 474.875 L 469.09375 474.84375 L 469.4375 474.78125 L 469.71875 474.65625 L 470 474.46875 L 470.25 474.25 L 470.46875 474 C 470.48423 472.91911 471.07672 471.9375 472.0625 471.46875 C 474.24449 470.98675 476.64728 471.96234 477.84375 473.84375 C 478.95107 476.39019 480.68538 478.86862 482.65625 480.84375 C 483.02701 482.61886 483.68526 484.06564 484.8125 485.5 C 485.93551 485.65502 487.20976 486.21009 488.125 486.875 C 489.04241 486.62672 489.94653 486.78811 490.75 487.28125 L 490.75 487.25 C 491.38159 487.84548 492.46746 487.41067 492.53125 486.5625 L 492.53125 486.53125 C 490.90479 484.50522 490.51236 481.78289 491.5625 479.40625 C 491.87253 478.76462 492.21206 478.22337 492.6875 477.6875 C 493.21494 477.07585 493.27801 477.15108 493.9375 476.71875 C 495.37636 475.82936 496.82636 474.92827 498.28125 474.0625 C 498.98931 474.0857 499.41348 473.24831 498.96875 472.71875 L 498.78125 472.5 L 498.71875 472.21875 L 498.78125 471.9375 L 498.96875 471.71875 L 499.21875 471.59375 L 499.5 471.59375 L 499.75 471.71875 L 499.90625 471.96875 L 499.96875 472.21875 C 500.98367 471.41065 502.12083 470.76774 503.3125 470.25 L 503.3125 470.21875 L 503.40625 469.96875 L 503.53125 469.6875 L 503.71875 469.125 L 503.8125 468.84375 L 503.875 468.5625 L 503.96875 467.96875 L 503.78125 467.125 L 503.71875 466.90625 L 503.65625 466.6875 L 503.53125 466.28125 C 504.10686 465.76629 504.39313 465.00378 504.21875 464.25 C 504.13865 463.78438 503.71795 463.21171 503.3125 462.96875 C 503.18659 462.0664 502.59967 461.26214 501.78125 460.84375 L 501.21875 454.3125 C 500.50794 454.2422 499.82299 454.11627 499.125 453.96875 L 498.84375 453.90625 L 498.625 453.71875 L 498.40625 453.59375 L 498.1875 453.4375 L 497.9375 453.3125 L 497.65625 453.21875 L 497.40625 453.125 L 497.15625 453.0625 L 496.875 453.03125 L 496.59375 453 L 496.34375 453 L 496.0625 453.03125 L 495.78125 453.0625 L 495.53125 453.09375 L 495.28125 453.1875 L 495.25 453.1875 C 494.6465 453.53428 493.75109 453.86184 493.0625 453.96875 C 492.31395 453.39255 491.26013 453.27652 490.40625 453.6875 L 490.40625 453.65625 C 489.14194 453.93088 487.74665 453.59942 486.75 452.78125 C 485.59917 452.96856 484.39121 452.79259 483.34375 452.28125 L 483.0625 452.125 L 482.96875 452 L 482.8125 451.875 L 482.6875 451.8125 C 482.41559 451.66576 482.05067 451.73518 481.8125 451.90625 L 481.8125 451.875 C 481.35627 451.53908 480.79351 451.33788 480.21875 451.375 L 479.875 443.53125 z "
         inkscape:radius="1.0907667"
         sodipodi:type="inkscape:offset" />
      <path
         style="fill:#ffffff;fill-rule:evenodd"
         clip-rule="evenodd"
         d="m 504.20451,464.2489 c -0.0801,-0.46562 -0.49978,-1.03736 -0.90523,-1.28032 -0.12591,-0.90235 -0.68621,-1.71532 -1.50463,-2.13371 l -0.58288,-6.52295 c -0.71081,-0.0703 -1.38909,-0.18782 -2.08708,-0.33534 l -0.29177,-0.0762 -0.1998,-0.16767 -0.22997,-0.15217 -0.23024,-0.13718 -0.24558,-0.1222 -0.26081,-0.10646 -0.24506,-0.0764 -0.27655,-0.0609 -0.26093,-0.0457 -0.27603,-0.0304 h -0.27628 l -0.2608,0.0155 -0.2767,0.0454 -0.2608,0.0457 -0.26107,0.0764 -0.0156,0.0155 c -0.6035,0.34678 -1.49048,0.65495 -2.17907,0.76186 -0.74855,-0.5762 -1.83212,-0.70037 -2.686,-0.28939 v -0.0155 c -1.26431,0.27463 -2.64071,-0.0661 -3.63736,-0.88427 v 0.0155 c -1.15083,0.18731 -2.35971,0.008 -3.40717,-0.50334 l -0.27602,-0.15192 -0.10775,-0.13717 -0.13814,-0.12169 -0.15323,-0.0762 c -0.27191,-0.14674 -0.60577,-0.0646 -0.84394,0.10647 v -0.0155 c -0.45623,-0.33592 -1.02144,-0.55523 -1.5962,-0.51811 l -0.35308,-7.83382 -10.2366,0.16793 v 18.37997 l -12.38542,-0.18291 c 0.28047,1.79848 1.5479,3.40271 3.22316,4.13017 l -0.0156,0.0155 c 0.93265,0.35439 1.916,1.2114 2.42484,2.05722 0.36301,0.49516 0.56963,1.12206 0.73676,1.70733 0.10276,0.72784 0.28562,1.35608 0.65996,1.99665 0.60431,1.08421 1.61288,1.91402 2.77781,2.34699 l 0.24559,0.0757 0.24532,0.2289 0.27629,0.18265 0.29166,0.13692 0.32259,0.0767 0.33742,0.0299 0.32226,-0.0299 0.32235,-0.0767 0.30691,-0.12168 0.2761,-0.18291 0.24584,-0.21365 0.19928,-0.259 h 0.0156 c 0.0156,-1.08906 0.61199,-2.06539 1.61127,-2.53003 h -0.0156 c 2.18199,-0.482 4.57434,0.48109 5.77081,2.3625 l 0.0156,-0.0155 c 1.10686,2.55498 2.84159,5.04428 4.81874,7.0257 h -0.0156 c 0.37076,1.77511 1.02126,3.22922 2.1485,4.66358 1.12301,0.15502 2.41502,0.69171 3.33026,1.35662 0.91741,-0.24828 1.82061,-0.0816 2.62408,0.41154 v -0.0155 c 0.63873,0.60222 1.73978,0.15061 1.78077,-0.71653 l -0.0156,0.0155 c -1.64106,-2.02821 -2.00507,-4.76282 -0.95126,-7.14778 0.31003,-0.64163 0.64479,-1.18643 1.12023,-1.7223 0.52744,-0.61165 0.59929,-0.54332 1.25878,-0.97565 1.44641,-0.89406 2.89586,-1.78169 4.35852,-2.65182 h -0.0156 c 0.70806,0.0232 1.10435,-0.8268 0.65962,-1.35636 h 0.0156 l -0.18419,-0.21339 -0.0614,-0.27437 0.0614,-0.27411 0.16832,-0.22915 0.26109,-0.12168 0.27641,0.0155 0.2608,0.12194 0.16884,0.22864 0.0461,0.27423 c 1.01492,-0.8081 2.13899,-1.47866 3.33066,-1.9964 v -0.0155 l 0.12253,-0.25899 0.1228,-0.27424 0.18418,-0.54873 0.0768,-0.28934 0.0611,-0.28974 0.0926,-0.57908 -0.18471,-0.85349 -0.0609,-0.21366 -0.0466,-0.21339 -0.12253,-0.42679 c 0.57561,-0.51496 0.83428,-1.2729 0.6599,-2.02668 z"
         id="path6026"
         inkscape:connector-curvature="0" />
    </g>
    <g
       id="g6028"
       transform="matrix(0.12500016,0,0,0.12500016,455.25671,441.53657)"
       style="fill:#613314;fill-opacity:1">
      <path
         id="path6030"
         d="M 68.243652,339.44629 63.26416,325.98242 h -5.855957 v 13.46387 h -4.887695 v -30.89258 h 10.189941 c 1.199219,0 2.229004,0.0684 3.089844,0.20703 0.860352,0.13867 1.674805,0.39258 2.443359,0.76074 0.67627,0.33887 1.298828,0.77637 1.867676,1.31446 0.568848,0.53808 1.060547,1.15234 1.475586,1.84472 0.415039,0.69141 0.737793,1.42872 0.968262,2.21289 0.230469,0.78418 0.345703,1.55958 0.345703,2.32813 0,0.83008 -0.115235,1.63672 -0.345703,2.4209 -0.230469,0.78418 -0.553223,1.52148 -0.968262,2.21387 -0.415039,0.6914 -0.922363,1.31347 -1.521973,1.86718 -0.599121,0.55274 -1.252441,0.9834 -1.959472,1.29102 l 5.440918,14.43164 h -5.302735 z m -0.230468,-22.22461 c 0,-0.64551 -0.168946,-1.25977 -0.506836,-1.84375 -0.338379,-0.58398 -0.814942,-1.04492 -1.429688,-1.38379 -0.399414,-0.21484 -0.768554,-0.36035 -1.106445,-0.4375 -0.338379,-0.0772 -0.906738,-0.11523 -1.706055,-0.11523 h -5.855957 v 7.56152 h 5.855957 c 0.768555,0 1.329102,-0.0312 1.683106,-0.0918 0.353027,-0.0615 0.72998,-0.20019 1.129394,-0.41504 0.614746,-0.33886 1.091309,-0.80761 1.429688,-1.40625 0.33789,-0.59961 0.506836,-1.22265 0.506836,-1.86816 z"
         clip-rule="evenodd"
         style="fill:#613314;fill-rule:evenodd;fill-opacity:1"
         inkscape:connector-curvature="0" />
      <path
         id="path6032"
         d="m 100.00732,324.0459 c 0,2.45898 -0.292476,4.81055 -0.876461,7.05469 -0.583984,2.24414 -1.414062,4.05761 -2.489746,5.4414 C 94.919434,338.84766 92.429687,340 89.171387,340 c -2.182617,0 -3.980957,-0.44531 -5.39502,-1.33691 -1.414062,-0.89161 -2.582031,-2.29004 -3.504394,-4.19629 -0.645508,-1.32129 -1.167969,-2.92774 -1.567383,-4.81836 -0.399902,-1.89063 -0.59961,-3.75782 -0.59961,-5.60254 0,-2.55078 0.299805,-4.91797 0.899415,-7.10059 0.599121,-2.18261 1.421386,-4.01172 2.466796,-5.4873 0.921875,-1.16797 2.020997,-2.03614 3.296875,-2.60449 C 86.043457,308.28418 87.572754,308 89.355957,308 c 1.967285,0 3.642578,0.44629 5.025391,1.33691 1.383789,0.89161 2.566894,2.29102 3.550781,4.19629 0.645508,1.38282 1.152832,2.99707 1.521484,4.8418 0.369141,1.84473 0.553707,3.73437 0.553707,5.6709 z m -4.887691,0 c 0,-1.75195 -0.153809,-3.37305 -0.461426,-4.86426 -0.307129,-1.49121 -0.768555,-2.75879 -1.383301,-3.80371 -0.491699,-0.79981 -1.052734,-1.38379 -1.682617,-1.75195 -0.630371,-0.36914 -1.406738,-0.58399 -2.329102,-0.64649 -1.19873,-0.0605 -2.197753,0.21582 -2.99707,0.83008 -0.798828,0.61523 -1.459961,1.61426 -1.982422,2.99805 -0.399414,0.92187 -0.699219,2.03515 -0.899414,3.34179 -0.199707,1.30664 -0.299316,2.60547 -0.299316,3.89649 0,1.66015 0.153808,3.25879 0.460937,4.79492 0.307129,1.53711 0.768555,2.79785 1.383301,3.78125 0.492188,0.79981 1.076172,1.39941 1.751953,1.79883 0.67627,0.39941 1.506348,0.59961 2.490235,0.59961 1.137207,0 2.082519,-0.30762 2.835937,-0.92188 0.75293,-0.61523 1.390625,-1.61425 1.913086,-2.99804 0.153809,-0.39942 0.307617,-0.88282 0.460937,-1.45215 0.153809,-0.56836 0.284668,-1.16797 0.39209,-1.79785 0.10791,-0.63086 0.192383,-1.26856 0.253418,-1.91407 0.06152,-0.6455 0.09277,-1.27539 0.09277,-1.89062 z"
         clip-rule="evenodd"
         style="fill:#613314;fill-rule:evenodd;fill-opacity:1"
         inkscape:connector-curvature="0" />
      <path
         id="path6034"
         d="m 125.07568,339.44629 -3.04297,-8.66797 H 112.396 l -3.04346,8.66797 h -5.21045 l 10.65137,-30.89258 h 4.84131 l 10.65136,30.89258 h -5.21045 z m -7.79248,-22.31641 -3.18164,8.66797 h 6.17871 l -2.99707,-8.66797 z"
         clip-rule="evenodd"
         style="fill:#613314;fill-rule:evenodd;fill-opacity:1"
         inkscape:connector-curvature="0" />
      <path
         id="path6036"
         d="m 156.00049,323.9541 c 0,3.10449 -0.46875,5.83301 -1.40625,8.18457 -0.9375,2.35156 -2.28272,4.20313 -4.03467,5.55567 -0.58398,0.55371 -1.26807,0.96875 -2.05176,1.24511 -0.78418,0.27637 -1.57568,0.44629 -2.37451,0.50684 h -1.75244 -9.40625 v -30.89258 h 9.95947 c 0.76856,0 1.4375,0.0225 2.00586,0.0684 0.56885,0.0469 1.0835,0.13086 1.54492,0.25391 0.46094,0.12304 0.87598,0.29199 1.24463,0.50781 0.36914,0.21484 0.76856,0.47656 1.19873,0.7832 1.6294,1.41406 2.88184,3.29688 3.7583,5.64844 0.87598,2.35156 1.31397,5.06445 1.31397,8.13867 z m -4.97949,0 c 0,-2.08984 -0.22315,-3.95019 -0.66895,-5.5791 -0.4458,-1.62988 -1.05273,-2.84375 -1.82129,-3.64258 -0.39941,-0.36914 -0.86084,-0.67676 -1.3833,-0.92285 -0.52246,-0.24609 -1.10644,-0.36816 -1.75244,-0.36816 h -5.53272 v 21.02539 h 4.88721 c 0.79932,0 1.46826,-0.0918 2.00586,-0.27637 0.53809,-0.18457 1.02246,-0.49219 1.45264,-0.92188 0.92236,-0.92285 1.62158,-2.19043 2.09814,-3.80468 0.47608,-1.61328 0.71485,-3.4502 0.71485,-5.50977 z"
         clip-rule="evenodd"
         style="fill:#613314;fill-rule:evenodd;fill-opacity:1"
         inkscape:connector-curvature="0" />
    </g>
    <text
       xml:space="preserve"
       style="font-size:20px;font-style:normal;font-variant:normal;font-weight:normal;font-stretch:normal;text-align:center;line-height:100%;writing-mode:lr;text-anchor:middle;fill:#613314;fill-opacity:1;fill-rule:nonzero;stroke:none;font-family:Roadgeek 2005 Series C;-inkscape-font-specification:Roadgeek 2005 Series C"
       x="485.75668"
       y="469.53662"
       id="routenum"
       sodipodi:linespacing="100%"><tspan
         sodipodi:role="line"
         id="tspan4020">%num%</tspan></text>
    <text
       xml:space="preserve"
       style="font-size:12px;font-style:normal;font-variant:normal;font-weight:normal;font-stretch:normal;text-align:center;line-height:125%;letter-spacing:0px;word-spacing:0px;writing-mode:lr-tb;text-anchor:middle;fill:#613314;fill-opacity:1;stroke:none;font-family:Roadgeek 2005 Series D;-inkscape-font-specification:Roadgeek 2005 Series D"
       x="493.25671"
       y="451.03662"
       id="text4462"
       sodipodi:linespacing="125%"><tspan
         sodipodi:role="line"
         id="tspan4466"
         x="493.25671"
         y="451.03662">R</tspan></text>
  </g>
</svg>
