<?xml version="1.0" encoding="UTF-8" standalone="no"?>
<!-- Generator: Adobe Illustrator 12.0.0, SVG Export Plug-In . SVG Version: 6.00 Build 51448)  -->

<svg
   xmlns:dc="http://purl.org/dc/elements/1.1/"
   xmlns:cc="http://creativecommons.org/ns#"
   xmlns:rdf="http://www.w3.org/1999/02/22-rdf-syntax-ns#"
   xmlns:svg="http://www.w3.org/2000/svg"
   xmlns="http://www.w3.org/2000/svg"
   xmlns:sodipodi="http://sodipodi.sourceforge.net/DTD/sodipodi-0.dtd"
   xmlns:inkscape="http://www.inkscape.org/namespaces/inkscape"
   version="1.1"
   id="Layer_1"
   width="57"
   height="48"
   viewBox="0 0 57 48"
   overflow="visible"
   enable-background="new 0 0 385 385"
   xml:space="preserve"
   inkscape:version="0.48.1 r9760"
   sodipodi:docname="US:UT_2.svg"
   style="overflow:visible"><metadata
   id="metadata47"><rdf:RDF><cc:Work
       rdf:about=""><dc:format>image/svg+xml</dc:format><dc:type
         rdf:resource="http://purl.org/dc/dcmitype/StillImage" /></cc:Work></rdf:RDF></metadata><defs
   id="defs45">
	
	
	
	
	
	
</defs><sodipodi:namedview
   pagecolor="#ffffff"
   bordercolor="#666666"
   borderopacity="1"
   objecttolerance="10"
   gridtolerance="10"
   guidetolerance="10"
   inkscape:pageopacity="0"
   inkscape:pageshadow="2"
   inkscape:window-width="1598"
   inkscape:window-height="1198"
   id="namedview43"
   showgrid="true"
   inkscape:showpageshadow="false"
   inkscape:zoom="20.25"
   inkscape:cx="28.5"
   inkscape:cy="24"
   inkscape:window-x="1"
   inkscape:window-y="1"
   inkscape:window-maximized="0"
   inkscape:current-layer="Layer_1"><inkscape:grid
     type="xygrid"
     id="grid3006"
     empspacing="5"
     visible="true"
     enabled="true"
     snapvisiblegridlinesonly="true" /></sodipodi:namedview>
<g
   id="g3146"><g
     transform="matrix(1.1957782,0,0,1.18245,-0.1760058,-3.1972204)"
     style="fill:#000000"
     id="g3037"><g
       style="fill:#000000"
       transform="matrix(0.12467329,0,0,0.12467329,1.63355e-4,6.2e-4)"
       id="g3039">
		
	</g><g
       style="fill:#000000"
       transform="matrix(0.12467329,0,0,0.12467329,1.63355e-4,6.2e-4)"
       id="g3043">
		
	</g><g
       style="fill:#000000"
       transform="matrix(0.12467329,0,0,0.12467329,1.63355e-4,6.2e-4)"
       id="g3047">
		
	</g><g
       style="fill:#000000"
       transform="matrix(0.12467329,0,0,0.12467329,1.63355e-4,6.2e-4)"
       id="g3051">
		<g
   id="g3058"><path
     inkscape:connector-curvature="0"
     id="path3041"
     d="m 191.8125,28.5 c -17.86429,-0.140474 -33.5888,16.080243 -33.5,33.875 20.58621,12.161754 47.83545,12.15425 68.34375,0 C 226.82816,44.09577 210.21572,27.619126 191.8125,28.5 z"
     style="fill:#000000;overflow:visible" /><path
     sodipodi:nodetypes="ccccccccccccccccccc"
     inkscape:connector-curvature="0"
     id="path3045"
     d="M 123.8125,72.34375 C 110.42527,72.204724 96.270259,82.923102 96.46875,96.875 c -14.431961,1.413175 -25.569194,16.37667 -23.9375,30.6875 -13.802515,3.66207 -22.525102,19.39722 -19.59375,33.25 -13.908162,6.0268 -20.325241,24.45177 -14,37.75 -10.477211,7.89456 -12.941398,23.91023 -7.53125,35.25 -12.710545,13.59202 -6.773236,39.95711 11.826274,44.89186 39.937858,17.35069 83.420086,24.71876 126.704976,27.38939 22.56433,-1.30208 22.56433,-1.30208 45.09375,0.0312 46.31953,-3.2453 93.59129,-10.57884 135.25,-31.84375 12.41698,-9.54659 13.09296,-29.45362 3.15625,-41.03125 6.51947,-11.42234 2.12692,-26.63473 -7.375,-35 6.39685,-13.50414 -0.32041,-31.76137 -14.21875,-37.4375 3.6752,-13.95907 -5.96476,-29.12695 -19.34375,-33.4375 1.83857,-14.65655 -10.21855,-28.344746 -23.96875,-31.21875 -0.55333,-16.353384 -19.1767,-27.131178 -34.3125,-22.84375 -12.61443,2.92846 -24.1798,9.391752 -37.26734,10.291195 C 187.47046,88.643547 156.94077,83.47429 129.375,72.7812 c -1.83709,-0.306733 -3.6872,-0.539828 -5.5625,-0.4375 z"
     style="fill:#000000;fill-rule:evenodd;overflow:visible" /><path
     inkscape:connector-curvature="0"
     id="path3049"
     d="m 155.34375,48.40625 c -18.05851,0.437357 -34.07628,17.150464 -33,35.4375 43.56117,20.96688 96.71713,20.91742 140.3125,0.03125 1.69335,-21.849628 -22.55545,-41.768919 -43.4375,-33.46875 -17.0063,10.217768 -39.49927,8.947433 -56.15625,-1.28125 -2.53624,-0.526036 -5.11655,-0.845977 -7.71875,-0.71875 z"
     style="fill:#000000;fill-rule:evenodd;overflow:visible" /><path
     inkscape:connector-curvature="0"
     id="path3053"
     d="M 47.03125,268.28125 C 34.572724,274.86948 21.333004,280.50434 9.25,287.46875 5.7976997,293.73953 10.20103,300.8754 8.5,307.5 c 0,11 0,22 0,33 122.64583,0 245.29167,0 367.9375,0 0.14177,-16.98842 -0.0863,-34.25904 0.375,-51.0625 -4.17508,-6.63246 -13.15624,-6.63529 -19.04248,-11.1195 -7.40695,-3.70851 -14.85939,-9.04689 -23.33252,-9.3805 C 255.39376,299.86195 166.22014,301.72338 84.445942,280.47205 72.051679,277.02329 59.748615,272.82182 47.84375,267.875 l -0.8125,0.40625 z"
     style="fill:#000000;fill-rule:evenodd" /></g>
	</g></g><g
     transform="matrix(1.207702,0,0,1.1923055,-0.48457234,-3.4264149)"
     id="g3027"><g
       id="g27"
       transform="matrix(0.12467329,0,0,0.12467329,1.63355e-4,6.2e-4)">
		<path
   style="fill:#ffffff"
   inkscape:connector-curvature="0"
   id="path29"
   d="M 166.92822,57.775879 C 169.1499,45.671875 179.75391,36.5 192.5,36.5 c 12.74609,0 23.35059,9.171875 25.57227,21.275879 C 210.65039,61.401367 201.90625,63.5 192.5,63.5 c -9.40625,0 -18.15088,-2.098633 -25.57178,-5.724121 z" />
	</g><g
       id="g31"
       transform="matrix(0.12467329,0,0,0.12467329,1.63355e-4,6.2e-4)">
		<path
   style="fill:#ffffff;fill-rule:evenodd"
   inkscape:connector-curvature="0"
   id="path33"
   d="m 192.5,264.5 c -17.67334,0 -32,14.32617 -32,32 l 0.0117,0.86914 C 117.31006,294.28516 78.165039,285.04687 46.303223,271.52148 45.154785,271.0332 44.015625,270.54102 42.886231,270.04297 36.695801,266.64258 32.5,260.06152 32.5,252.5 c 0,-7.50781 4.137207,-14.0498 10.256348,-17.4707 C 38.90332,231.38477 36.5,226.22266 36.5,220.5 c 0,-9.14063 6.132324,-16.84961 14.507812,-19.23633 C 47.008301,197.60742 44.5,192.34619 44.5,186.5 c 0,-11.0459 8.954102,-20 20,-20 -2.511719,-3.34277 -4,-7.49609 -4,-12 0,-11.0459 8.954102,-20 20,-20 0.946289,0 1.877441,0.0659 2.788574,0.19287 C 81.51709,131.70801 80.5,128.22314 80.5,124.5 c 0,-11.0459 8.954102,-20 20,-20 2.88379,0 5.625,0.61035 8.10156,1.70898 C 106.02832,103.5166 104.5,100.15088 104.5,96.5 c 0,-8.836426 8.9541,-16 20,-16 3.02783,0 5.89844,0.538574 8.4707,1.501953 l 1.27539,0.522949 C 151.55566,89.526367 171.42334,93.5 192.5,93.5 c 21.07617,0 40.94434,-3.973633 58.25391,-10.975098 l 1.27539,-0.522949 C 254.60156,81.038574 257.47168,80.5 260.5,80.5 c 11.0459,0 20,7.163574 20,16 0,3.65088 -1.52832,7.0166 -4.10156,9.70898 C 278.875,105.11035 281.61621,104.5 284.5,104.5 c 11.0459,0 20,8.9541 20,20 0,3.72314 -1.01758,7.20801 -2.78906,10.19287 0.91211,-0.12695 1.84277,-0.19287 2.78906,-0.19287 11.0459,0 20,8.9541 20,20 0,4.50391 -1.48828,8.65723 -4,12 11.0459,0 20,8.9541 20,20 0,5.84619 -2.50781,11.10742 -6.50781,14.76367 8.375,2.38672 14.50781,10.0957 14.50781,19.23633 0,5.72266 -2.40332,10.88477 -6.25586,14.5293 6.11914,3.4209 10.25586,9.96289 10.25586,17.4707 0,7.56152 -4.19531,14.14258 -10.38672,17.54297 -1.12891,0.49805 -2.26758,0.99023 -3.41601,1.47851 -31.86231,13.52539 -71.00782,22.76368 -114.20899,25.84766 L 224.5,296.5 c 0,-17.67383 -14.32617,-32 -32,-32 z"
   clip-rule="evenodd" />
	</g><g
       id="g35"
       transform="matrix(0.12467329,0,0,0.12467329,1.63355e-4,6.2e-4)">
		<path
   style="fill:#ffffff;fill-rule:evenodd"
   inkscape:connector-curvature="0"
   id="path37"
   d="m 192.5,91.5 c -3.86621,0 -7.68799,-0.134277 -11.45703,-0.396973 C 162.72461,89.825683 145.65332,85.517578 130.74902,78.884766 132.50879,66.236328 143.36719,56.5 156.5,56.5 c 1.64355,0 3.25195,0.152832 4.81152,0.444336 3.54932,2.205078 7.46778,4.041015 11.66211,5.439453 C 179.00244,64.394043 185.60205,65.5 192.5,65.5 c 6.89844,0 13.49805,-1.105957 19.52637,-3.116211 4.19433,-1.398437 8.1123,-3.234375 11.66211,-5.439453 C 225.24805,56.652832 226.85645,56.5 228.5,56.5 c 13.13281,0 23.99121,9.736328 25.75098,22.384766 -14.9043,6.632812 -31.97559,10.940918 -50.29395,12.218261 C 200.1875,91.365723 196.36621,91.5 192.5,91.5 z"
   clip-rule="evenodd" />
	</g><g
       id="g39"
       transform="matrix(0.12467329,0,0,0.12467329,1.63355e-4,6.2e-4)">
		<path
   style="fill:#ffffff;fill-rule:evenodd"
   inkscape:connector-curvature="0"
   id="path41"
   d="m 16.5,332.5 v -40 h 48 L 20.192383,290.6543 48.233887,276.63281 C 88.15918,292.89453 138.375,302.5 192.5,302.5 c 54.125,0 104.34082,-9.60547 144.26562,-25.86719 l 28.042,14.02149 L 320.5,292.5 h 48 v 40 h -352 z"
   clip-rule="evenodd" />
	</g></g></g>
<text
   xml:space="preserve"
   style="font-size:28px;font-style:normal;font-variant:normal;font-weight:normal;font-stretch:normal;text-align:center;line-height:125%;letter-spacing:0px;word-spacing:0px;writing-mode:lr;text-anchor:middle;fill:#000000;fill-opacity:1;stroke:none;font-family:Roadgeek 2005 Series D;-inkscape-font-specification:Roadgeek 2005 Series D"
   x="29"
   y="34"
   id="text3026"
   sodipodi:linespacing="125%"><tspan
     sodipodi:role="line"
     id="tspan3171">%num%</tspan></text>

</svg>