<?xml version="1.0" encoding="UTF-8" standalone="no"?>
<!-- Generator: Adobe Illustrator 12.0.0, SVG Export Plug-In . SVG Version: 6.00 Build 51448)  -->

<svg
   xmlns:dc="http://purl.org/dc/elements/1.1/"
   xmlns:cc="http://creativecommons.org/ns#"
   xmlns:rdf="http://www.w3.org/1999/02/22-rdf-syntax-ns#"
   xmlns:svg="http://www.w3.org/2000/svg"
   xmlns="http://www.w3.org/2000/svg"
   xmlns:sodipodi="http://sodipodi.sourceforge.net/DTD/sodipodi-0.dtd"
   xmlns:inkscape="http://www.inkscape.org/namespaces/inkscape"
   version="1.1"
   id="Layer_1"
   width="60"
   height="48"
   viewBox="0 0 60 48"
   overflow="visible"
   enable-background="new 0 0 750 600"
   xml:space="preserve"
   inkscape:version="0.48.1 r9760"
   sodipodi:docname="US:US_3.svg"
   style="overflow:visible"><metadata
   id="metadata2892"><rdf:RDF><cc:Work
       rdf:about=""><dc:format>image/svg+xml</dc:format><dc:type
         rdf:resource="http://purl.org/dc/dcmitype/StillImage" /><dc:title></dc:title></cc:Work></rdf:RDF></metadata><defs
   id="defs2890"><inkscape:perspective
   sodipodi:type="inkscape:persp3d"
   inkscape:vp_x="0 : 300 : 1"
   inkscape:vp_y="0 : 1000 : 0"
   inkscape:vp_z="750 : 300 : 1"
   inkscape:persp3d-origin="375 : 200 : 1"
   id="perspective2894" />
	
	

		
		
	<inkscape:perspective
   id="perspective3682"
   inkscape:persp3d-origin="0.5 : 0.33333333 : 1"
   inkscape:vp_z="1 : 0.5 : 1"
   inkscape:vp_y="0 : 1000 : 0"
   inkscape:vp_x="0 : 0.5 : 1"
   sodipodi:type="inkscape:persp3d" /></defs><sodipodi:namedview
   pagecolor="#ffffff"
   bordercolor="#666666"
   borderopacity="1"
   objecttolerance="10"
   gridtolerance="10000"
   guidetolerance="10"
   inkscape:pageopacity="0"
   inkscape:pageshadow="2"
   inkscape:window-width="1598"
   inkscape:window-height="1198"
   id="namedview2888"
   showgrid="true"
   inkscape:zoom="16.895833"
   inkscape:cx="30"
   inkscape:cy="24.004"
   inkscape:window-x="1"
   inkscape:window-y="1"
   inkscape:window-maximized="0"
   inkscape:current-layer="Layer_1"
   inkscape:showpageshadow="false"><inkscape:grid
     type="xygrid"
     id="grid3057"
     empspacing="5"
     visible="true"
     enabled="true"
     snapvisiblegridlinesonly="true" /></sodipodi:namedview>

<g
   id="g3830"><path
     sodipodi:nodetypes="csccscscccccscsccsc"
     clip-rule="evenodd"
     d="M 30.000019,1 C 27.113716,2.7816231 23.711402,3.8100276 20.06848,3.8100276 16.425598,3.8100276 13.552931,2.781623 10.666667,1 L 1,10.583333 c 1.6814495,2.385746 2.6687028,4.831564 2.6687028,7.970258 0,2.265155 -0.5142268,4.410376 -1.4324251,6.325719 C 1.4438139,26.534531 1,28.38803 1,30.344927 1,37.353382 6.6914091,43 13.71232,43 l 7.954395,0 c 3.364257,0 6.366751,1.580716 8.333304,4 1.966515,-2.419284 4.969009,-4 8.333305,-4 l 7.954356,0 C 53.30863,43 59,37.353382 59,30.344927 59,28.38803 58.556342,26.534531 57.763683,24.87931 56.845485,22.963967 56.331376,20.818746 56.331376,18.553591 56.331376,15.414897 57.31855,12.969079 59,10.583333 L 49.333333,1 C 46.446991,2.781623 43.574363,3.8100276 39.93152,3.8100276 36.288598,3.8100276 32.886284,2.7816231 30.000019,1 z"
     id="path2886-8"
     style="fill:#000000;fill-opacity:1;fill-rule:evenodd"
     inkscape:connector-curvature="0" /><path
     sodipodi:nodetypes="csccscscccccscsccsc"
     clip-rule="evenodd"
     d="M 30.000018,2 C 27.213243,3.7041612 23.928249,4.81 20.410946,4.81 16.893681,4.81 13.608688,3.7041612 10.821949,2 L 2.0000375,10.724167 C 3.623506,13.006186 4.669,15.788162 4.669,18.790392 c 0,2.166669 -0.5888162,4.218619 -1.4753525,6.050687 C 2.42851,26.424334 2,28.197246 2,30.06906 2,36.7728 7.4951537,42 14.273964,42 l 7.680105,0 c 3.248249,0 6.147209,1.685902 8.045949,4 1.898704,-2.314098 4.797665,-4 8.045951,-4 l 7.680067,0 C 52.504884,42 58,36.7728 58,30.06906 58,28.197246 57.571641,26.424334 56.806315,24.841079 55.919779,23.009011 55.331,20.957061 55.331,18.790392 c 0,-3.00223 1.045531,-5.784206 2.669,-8.066225 L 49.178088,2 C 46.391275,3.7041612 43.106282,4.81 39.589054,4.81 36.071751,4.81 32.786757,3.7041612 30.000018,2 z"
     id="path2886"
     style="fill:#ffffff;fill-rule:evenodd"
     inkscape:connector-curvature="0" /></g><flowRoot
   xml:space="preserve"
   id="flowRoot3063"
   style="font-size:400px;font-style:normal;font-variant:normal;font-weight:normal;font-stretch:normal;text-align:center;line-height:140%;letter-spacing:0px;word-spacing:0px;writing-mode:lr;text-anchor:middle;fill:#000000;fill-opacity:1;stroke:none;font-family:Roadgeek 2005 Series D;-inkscape-font-specification:Roadgeek 2005 Series D"
   transform="matrix(0.08,0,0,0.08,0,0.7534282)"><flowRegion
     id="flowRegion3065"><rect
       id="rect3067"
       width="790"
       height="600"
       x="-20"
       y="0"
       style="font-size:400px;font-style:normal;font-variant:normal;font-weight:normal;font-stretch:normal;text-align:center;line-height:140%;writing-mode:lr;text-anchor:middle;font-family:Roadgeek 2005 Series D;-inkscape-font-specification:Roadgeek 2005 Series D" /></flowRegion><flowPara
     id="flowPara3063">%num%</flowPara></flowRoot></svg>