<?xml version="1.0" encoding="UTF-8" standalone="no"?>
<!-- Generator: Adobe Illustrator 12.0.0, SVG Export Plug-In . SVG Version: 6.00 Build 51448)  -->

<svg
   xmlns:dc="http://purl.org/dc/elements/1.1/"
   xmlns:cc="http://creativecommons.org/ns#"
   xmlns:rdf="http://www.w3.org/1999/02/22-rdf-syntax-ns#"
   xmlns:svg="http://www.w3.org/2000/svg"
   xmlns="http://www.w3.org/2000/svg"
   xmlns:xlink="http://www.w3.org/1999/xlink"
   xmlns:sodipodi="http://sodipodi.sourceforge.net/DTD/sodipodi-0.dtd"
   xmlns:inkscape="http://www.inkscape.org/namespaces/inkscape"
   version="1.1"
   id="Layer_1"
   width="48"
   height="48"
   viewBox="0 0 48 48"
   overflow="visible"
   enable-background="new 0 0 600 600"
   xml:space="preserve"
   inkscape:version="0.48.1 r9760"
   sodipodi:docname="US:US_2.svg"
   style="overflow:visible"><metadata
   id="metadata2896"><rdf:RDF><cc:Work
       rdf:about=""><dc:format>image/svg+xml</dc:format><dc:type
         rdf:resource="http://purl.org/dc/dcmitype/StillImage" /></cc:Work></rdf:RDF></metadata><defs
   id="defs2894"><inkscape:perspective
     sodipodi:type="inkscape:persp3d"
     inkscape:vp_x="0 : 300 : 1"
     inkscape:vp_y="0 : 1000 : 0"
     inkscape:vp_z="600 : 300 : 1"
     inkscape:persp3d-origin="300 : 200 : 1"
     id="perspective2898" /><inkscape:perspective
     id="perspective2908"
     inkscape:persp3d-origin="0.5 : 0.33333333 : 1"
     inkscape:vp_z="1 : 0.5 : 1"
     inkscape:vp_y="0 : 1000 : 0"
     inkscape:vp_x="0 : 0.5 : 1"
     sodipodi:type="inkscape:persp3d" /></defs><sodipodi:namedview
   pagecolor="#ffffff"
   bordercolor="#666666"
   borderopacity="1"
   objecttolerance="10"
   gridtolerance="10000"
   guidetolerance="10"
   inkscape:pageopacity="0"
   inkscape:pageshadow="2"
   inkscape:window-width="1598"
   inkscape:window-height="1182"
   id="namedview2892"
   showgrid="true"
   inkscape:zoom="16.895833"
   inkscape:cx="24"
   inkscape:cy="24"
   inkscape:window-x="1"
   inkscape:window-y="1"
   inkscape:window-maximized="0"
   inkscape:current-layer="Layer_1"
   inkscape:showpageshadow="false"><inkscape:grid
     type="xygrid"
     id="grid2997"
     empspacing="5"
     visible="true"
     enabled="true"
     snapvisiblegridlinesonly="true" /></sodipodi:namedview>


<path
   sodipodi:type="inkscape:offset"
   inkscape:radius="0"
   inkscape:original="M 10.59375 1 L 1 10.59375 C 2.678334 12.97945 3.65625 15.423893 3.65625 18.5625 C 3.65625 20.819901 3.1606741 22.964581 2.25 24.875 C 1.4630545 26.526653 1 28.392281 1 30.34375 C 1 37.352182 6.679113 43.03125 13.6875 43.03125 L 15.6875 43.03125 C 19.045873 43.03125 22.036956 44.580647 24 47 C 25.963007 44.580647 28.954127 43.03125 32.3125 43.03125 L 34.3125 43.03125 C 41.320926 43.03125 47 37.352182 47 30.34375 C 47 28.392281 46.536907 26.526653 45.75 24.875 C 44.839248 22.964581 44.34375 20.819901 44.34375 18.5625 C 44.34375 15.423893 45.321627 12.97945 47 10.59375 L 37.40625 1 C 35.537347 2.5921706 33.585099 3.5625 30.9375 3.5625 C 28.2899 3.5625 25.868903 2.5921707 24 1 C 22.131098 2.5921707 19.7101 3.5625 17.0625 3.5625 C 14.414862 3.5625 12.462654 2.5921706 10.59375 1 z "
   xlink:href="#path2888-5"
   style="fill:#000000;fill-opacity:1;fill-rule:evenodd"
   id="path3708"
   inkscape:href="#path2888-5"
   d="M 11,0 1,10 c 1.751305,2.489426 2.78125,5.037432 2.78125,8.3125 0,2.355549 -0.5184814,4.60027 -1.46875,6.59375 C 1.4913395,26.629714 1,28.588685 1,30.625 c 0,7.313147 5.9369002,13.25 13.25,13.25 l 2.0625,0 c 3.504389,0 6.639106,1.600458 8.6875,4.125 2.048355,-2.524542 5.183111,-4.125 8.6875,-4.125 l 2.0625,0 C 43.063141,43.875 49,37.938147 49,30.625 49,28.588685 48.50862,26.629714 47.6875,24.90625 46.73715,22.91277 46.21875,20.668049 46.21875,18.3125 46.21875,15.037432 47.248654,12.489426 49,10 L 39,0 C 37.049841,1.6613954 35.012712,2.65625 32.25,2.65625 29.487287,2.65625 26.95016,1.6613955 25,0 23.049841,1.6613955 20.512713,2.65625 17.75,2.65625 14.987247,2.65625 12.95016,1.6613954 11,0 z" /><g
   id="g3755"><path
     sodipodi:nodetypes="csccscscccccscsccsc"
     id="path2888-5"
     d="m 24.000019,1 c 1.868903,1.5921707 4.29205,2.5533052 6.93965,2.5533052 2.647599,0 4.608095,-0.9611346 6.476998,-2.5533052 L 47,10.583333 c -1.678373,2.3857 -2.663865,4.831593 -2.663865,7.9702 0,2.257401 0.509708,4.395683 1.42046,6.306102 C 46.543502,26.511288 47,28.393359 47,30.344828 47,37.35326 41.318782,43.034483 34.310356,43.034483 l -1.991741,0 c -3.358373,0 -6.355589,1.546164 -8.318596,3.965517 -1.963044,-2.419353 -4.960222,-3.965517 -8.318595,-3.965517 l -1.99178,0 C 6.681257,43.034483 1,37.35326 1,30.344828 1,28.393359 1.4565374,26.511288 2.2434829,24.859635 3.154157,22.949216 3.6639423,20.810934 3.6639423,18.553533 3.6639423,15.414926 2.678334,12.969033 1,10.583333 L 10.583333,1 c 1.868904,1.5921706 3.829399,2.5533052 6.477037,2.5533052 2.6476,0 5.070747,-0.9611345 6.939649,-2.5533052 z"
     style="fill:#000000;fill-opacity:1;fill-rule:evenodd"
     inkscape:connector-curvature="0" /><g
     transform="matrix(0.07565586,0,0,0.07565592,1.3032609,1.3032234)"
     id="g2886">
	<path
   id="path2888"
   d="m 300,10.002441 c 23.56445,20.075196 54.11719,32.191407 87.5,32.191407 33.38281,0 63.93555,-12.118653 87.5,-32.193848 l 115,115 c -21.16211,30.08057 -33.58789,66.75342 -33.58789,106.32715 0,28.46289 6.42676,55.42383 17.91016,79.51172 C 584.24414,331.66406 590,355.39453 590,380 590,468.36719 518.36719,540 430,540 H 404.88672 C 362.54199,540 324.75098,559.49512 300,590 275.24854,559.49512 237.45801,540 195.11328,540 H 169.99951 C 81.632813,540 9.9995117,468.36719 9.9995117,380 c 0,-24.60547 5.7563473,-48.33594 15.6787113,-69.16113 C 37.160645,286.75098 43.588379,259.79004 43.588379,231.32715 43.588379,191.75342 31.161621,155.08057 10,125 L 125,10 c 23.56445,20.075195 54.1167,32.193848 87.5,32.193848 33.38281,0 63.93555,-12.116211 87.5,-32.191407 z"
   clip-rule="evenodd"
   inkscape:connector-curvature="0"
   style="fill:#ffffff;fill-rule:evenodd" />
	
		<path
   id="path2890"
   d="m 300,10.002441 c 23.56445,20.075196 54.11719,32.191407 87.5,32.191407 33.38281,0 63.93555,-12.118653 87.5,-32.193848 l 115,115 c -21.16211,30.08057 -33.58789,66.75342 -33.58789,106.32715 0,28.46289 6.42676,55.42383 17.91016,79.51172 C 584.24414,331.66406 590,355.39453 590,380 590,468.36719 518.36719,540 430,540 H 404.88672 C 362.54199,540 324.75098,559.49512 300,590 275.24854,559.49512 237.45801,540 195.11328,540 H 169.99951 C 81.632813,540 9.9995117,468.36719 9.9995117,380 c 0,-24.60547 5.7563473,-48.33594 15.6787113,-69.16113 C 37.160645,286.75098 43.588379,259.79004 43.588379,231.32715 43.588379,191.75342 31.161621,155.08057 10,125 L 125,10 c 23.56445,20.075195 54.1167,32.193848 87.5,32.193848 33.38281,0 63.93555,-12.116211 87.5,-32.191407 z"
   stroke-miterlimit="3.863693"
   clip-rule="evenodd"
   inkscape:connector-curvature="0"
   style="fill:none;stroke:#000000;stroke-linecap:round;stroke-linejoin:round;stroke-miterlimit:3.863693" />
</g></g><flowRoot
   xml:space="preserve"
   id="flowRoot2989"
   style="font-size:400px;font-style:normal;font-variant:normal;font-weight:normal;font-stretch:normal;text-align:center;line-height:141%;letter-spacing:0px;word-spacing:0px;writing-mode:lr;text-anchor:middle;fill:#000000;fill-opacity:1;stroke:none;font-family:Roadgeek 2005 Series D;-inkscape-font-specification:Roadgeek 2005 Series D"
   transform="matrix(0.08,0,0,0.08,0,0.58866529)"><flowRegion
     id="flowRegion2991"><rect
       id="rect2993"
       width="600"
       height="600"
       x="0"
       y="0"
       style="font-size:400px;font-style:normal;font-variant:normal;font-weight:normal;font-stretch:normal;text-align:center;line-height:141%;writing-mode:lr;text-anchor:middle;font-family:Roadgeek 2005 Series D;-inkscape-font-specification:Roadgeek 2005 Series D" /></flowRegion><flowPara
     id="flowPara3034">%num%</flowPara></flowRoot></svg>