<?xml version="1.0" encoding="UTF-8" standalone="no"?>
<!-- Generator: Adobe Illustrator 12.0.0, SVG Export Plug-In . SVG Version: 6.00 Build 51448)  -->

<svg
   xmlns:dc="http://purl.org/dc/elements/1.1/"
   xmlns:cc="http://creativecommons.org/ns#"
   xmlns:rdf="http://www.w3.org/1999/02/22-rdf-syntax-ns#"
   xmlns:svg="http://www.w3.org/2000/svg"
   xmlns="http://www.w3.org/2000/svg"
   xmlns:sodipodi="http://sodipodi.sourceforge.net/DTD/sodipodi-0.dtd"
   xmlns:inkscape="http://www.inkscape.org/namespaces/inkscape"
   version="1.1"
   id="Layer_1"
   width="48"
   height="48"
   viewBox="0 0 48 48"
   overflow="visible"
   enable-background="new 0 0 576.0004883 768"
   xml:space="preserve"
   inkscape:version="0.48.1 r9760"
   sodipodi:docname="US:US-66.svg"
   style="overflow:visible"><metadata
   id="metadata77"><rdf:RDF><cc:Work
       rdf:about=""><dc:format>image/svg+xml</dc:format><dc:type
         rdf:resource="http://purl.org/dc/dcmitype/StillImage" /></cc:Work></rdf:RDF></metadata><defs
   id="defs75">
	
	
	
	
	
	
	
	
	
	
	
</defs><sodipodi:namedview
   pagecolor="#ffffff"
   bordercolor="#666666"
   borderopacity="1"
   objecttolerance="10"
   gridtolerance="10"
   guidetolerance="10"
   inkscape:pageopacity="0"
   inkscape:pageshadow="2"
   inkscape:window-width="1598"
   inkscape:window-height="1198"
   id="namedview73"
   showgrid="true"
   inkscape:showpageshadow="false"
   inkscape:zoom="21"
   inkscape:cx="24"
   inkscape:cy="24"
   inkscape:window-x="1"
   inkscape:window-y="1"
   inkscape:window-maximized="0"
   inkscape:current-layer="Layer_1"><inkscape:grid
     empspacing="5"
     visible="true"
     enabled="true"
     snapvisiblegridlinesonly="true"
     type="xygrid"
     id="grid3100" /></sodipodi:namedview>
<path
   style="fill:#ffffff;fill-rule:evenodd"
   inkscape:connector-curvature="0"
   id="path53"
   d="m 23.99997,1.0004109 c -1.781022,1.6832816 -4.184046,2.715313 -6.828116,2.715313 -2.644187,0 -5.047037,-1.0323237 -6.828116,-2.715664 L 0.99999996,10.675797 c 2.32587434,1.724168 3.83332834,4.489609 3.83332834,7.607288 0,1.975156 -0.6050993,3.809054 -1.6399973,5.326277 -1.3795322,2.018382 -2.19333104,4.469545 -2.19333104,7.098992 0,6.922406 5.59188924,12.538686 12.50511004,12.577992 3.986403,0 7.616997,1.390705 10.49486,3.713654 2.877863,-2.322949 6.508457,-3.713654 10.494917,-3.713654 6.913164,-0.03931 12.505111,-5.655586 12.505111,-12.577992 0,-2.629447 -0.813857,-5.08061 -2.193448,-7.098992 -1.034839,-1.517223 -1.63988,-3.351121 -1.63988,-5.326277 0,-3.117679 1.507454,-5.88312 3.833328,-7.607288 L 37.656261,1.0000599 c -1.781197,1.6833403 -4.184047,2.715664 -6.828116,2.715664 -2.644071,0 -5.047153,-1.0320314 -6.828175,-2.715313 z"
   clip-rule="evenodd" /><path
   style="fill:#613314;fill-rule:evenodd"
   inkscape:connector-curvature="0"
   id="path55"
   d="m 30.828145,4.7938475 c 2.546154,0 4.891915,-0.8646276 6.757691,-2.3147014 l 7.834646,8.1131259 c -2.049442,1.922162 -3.331935,4.656777 -3.331935,7.690813 0,2.198654 0.674529,4.243591 1.827756,5.934184 1.261554,1.845772 2.005572,4.086715 2.005572,6.491085 0,6.329063 -5.112665,11.463837 -11.433071,11.499868 -3.934402,0.0012 -7.544759,1.276528 -10.488834,3.432073 C 21.054373,43.483581 17.441677,42.208222 13.505111,42.208222 7.1873956,42.168916 2.0781235,37.035428 2.0781235,30.708354 c 0,-2.40437 0.7440766,-4.645313 2.0055723,-6.491085 1.1531682,-1.690593 1.8277561,-3.73553 1.8277561,-5.934184 0,-3.034094 -1.2825526,-5.768651 -3.3320524,-7.690813 L 10.414162,2.4791461 c 1.865718,1.4500738 4.211538,2.3147014 6.757692,2.3147014 2.578149,0 4.951109,-0.8863278 6.828116,-2.3695085 1.876948,1.4831807 4.249967,2.3695085 6.828175,2.3695085 z"
   clip-rule="evenodd" /><path
   style="fill:#ffffff"
   inkscape:connector-curvature="0"
   id="path57"
   d="m 41.006796,15.375041 c -0.232446,0.931075 -0.355748,1.9052 -0.355748,2.908044 0,2.496787 0.767297,4.823129 2.078102,6.744766 1.104211,1.615664 1.755227,3.57608 1.755227,5.680503 0,5.537901 -4.473582,10.030902 -10.003762,10.06237 -3.877548,0.0028 -7.466965,1.152058 -10.480645,3.121832 -3.017366,-1.972231 -6.61193,-3.121832 -10.49486,-3.121832 -5.523686,-0.03907 -9.9894883,-4.529148 -9.9894883,-10.06237 0,-2.104423 0.6510153,-4.064839 1.7552846,-5.680503 C 6.581653,23.106214 7.34895,20.779872 7.34895,18.283085 c 0,-1.002844 -0.1234176,-1.977028 -0.355806,-2.908044 h 34.013652 z" /><path
   style="fill:#ffffff"
   inkscape:connector-curvature="0"
   id="path59"
   d="m 37.401235,4.3574973 6.033562,6.2478187 c -0.825321,0.987694 -1.495054,2.111266 -1.97071,3.332227 H 6.5358531 C 6.0602557,12.716582 5.3904642,11.59301 4.5652013,10.605316 L 10.598646,4.3574973 c 1.908124,1.1869781 4.162345,1.8738483 6.573208,1.8738483 2.519073,0 4.867173,-0.7497499 6.828116,-2.0365144 1.960943,1.2867645 4.309043,2.0365144 6.828175,2.0365144 2.410804,0 4.665084,-0.6868702 6.57309,-1.8738483 z" /><g
   id="g61"
   transform="matrix(0.11979151,0,0,0.11979151,-10.499985,-21.99991)">
		<path
   style="fill:#613314;fill-rule:evenodd"
   inkscape:connector-curvature="0"
   id="path63"
   d="m 283.37451,344.97656 c 0,1.9541 -0.18213,3.74561 -0.5459,5.37403 -0.36425,1.62793 -0.94824,3.17041 -1.75293,4.62597 -1.64746,2.72071 -3.86963,4.88526 -6.6665,6.49463 -2.79736,1.60889 -5.80469,2.41358 -9.02295,2.41358 -1.57129,0 -3.13232,-0.21094 -4.68408,-0.63233 -1.55176,-0.42139 -3.00781,-1.01514 -4.36817,-1.78125 -1.35986,-0.7666 -2.61474,-1.70508 -3.76416,-2.8164 -1.14941,-1.11084 -2.10742,-2.33692 -2.87353,-3.67823 -0.80469,-1.49414 -1.4082,-3.0459 -1.81006,-4.65478 -0.40234,-1.60938 -0.60352,-3.39112 -0.60352,-5.34522 v -20.28711 h 7.29883 v 20.28711 c 0,1.34131 0.12451,2.49073 0.37354,3.44824 0.24902,0.95801 0.62256,1.87745 1.1206,2.75879 0.95801,1.60938 2.27002,2.8833 3.93653,3.82178 1.66699,0.93897 3.458,1.4082 5.37402,1.4082 1.91553,0 3.70654,-0.46923 5.37305,-1.4082 1.66699,-0.93848 2.94092,-2.2124 3.82226,-3.82178 0.53614,-0.88134 0.91944,-1.80078 1.14942,-2.75879 0.22949,-0.95751 0.34472,-2.10693 0.34472,-3.44824 v -20.28711 h 7.29883 v 20.28711 z"
   clip-rule="evenodd" />
		<path
   style="fill:#613314;fill-rule:evenodd"
   inkscape:connector-curvature="0"
   id="path65"
   d="m 328.71729,352.27539 c 0,3.67822 -1.47461,6.53272 -4.42481,8.56348 -2.95019,2.03076 -7.10742,3.0459 -12.47168,3.0459 -1.95312,0 -3.7832,-0.10547 -5.48828,-0.31592 -1.70508,-0.21094 -3.33398,-0.5459 -4.88477,-1.00586 -1.55175,-0.45996 -3.04687,-1.06299 -4.48242,-1.81055 -1.4375,-0.74707 -2.88379,-1.63769 -4.33984,-2.67236 l 4.19531,-5.97705 c 1.15039,0.7666 2.2793,1.42724 3.39063,1.98291 1.11132,0.55566 2.25195,1.00586 3.41992,1.35058 1.16797,0.34473 2.39453,0.59375 3.67773,0.74707 1.28418,0.15332 2.69141,0.22998 4.22461,0.22998 3.25684,0 5.73828,-0.36377 7.44238,-1.09179 1.70508,-0.72803 2.55762,-1.83936 2.55762,-3.3335 0,-0.80469 -0.33496,-1.58057 -1.00586,-2.32764 -0.66992,-0.74707 -1.56054,-1.33154 -2.67187,-1.75293 -0.91992,-0.30615 -2.05078,-0.62255 -3.39063,-0.94824 -1.34179,-0.32568 -3.25781,-0.71826 -5.74804,-1.17822 -1.45508,-0.30664 -2.73926,-0.60352 -3.84961,-0.89063 -1.11133,-0.28759 -2.08887,-0.60351 -2.93164,-0.94824 -0.84278,-0.34472 -1.58008,-0.71826 -2.2129,-1.1206 -0.63183,-0.40235 -1.19726,-0.85254 -1.69531,-1.35059 -1.99219,-2.03076 -2.98828,-4.2915 -2.98828,-6.78174 0,-4.06152 2.16406,-6.99218 6.49414,-8.79297 1.34082,-0.61328 2.82617,-1.08252 4.4541,-1.4082 1.62793,-0.32568 3.24707,-0.48828 4.85645,-0.48828 2.7207,0 5.32519,0.37354 7.8164,1.12061 2.49024,0.74707 5.01856,1.90576 7.58594,3.47705 l -3.9082,6.09179 c -1.9541,-1.22607 -3.85059,-2.06884 -5.68945,-2.52881 -1.83985,-0.45947 -3.94727,-0.68945 -6.32227,-0.68945 -2.7207,0 -4.73145,0.23926 -6.03418,0.71826 -1.30273,0.47901 -1.9541,1.27393 -1.9541,2.38477 0,0.84326 0.37305,1.52344 1.12109,2.04053 0.7461,0.51709 1.63672,0.9292 2.67188,1.23584 1.03515,0.30615 2.08789,0.52636 3.16113,0.66064 1.07324,0.13428 1.91504,0.25879 2.52832,0.37354 2.22266,0.42138 4.33984,0.92919 6.35059,1.52294 2.01172,0.59375 3.62988,1.21631 4.85644,1.86768 1.7627,0.95801 3.15137,2.3374 4.16699,4.13818 1.01465,1.80079 1.52247,3.75489 1.52247,5.86182 z"
   clip-rule="evenodd" />
	</g>
<text
   xml:space="preserve"
   style="font-size:24px;font-style:normal;font-variant:normal;font-weight:normal;font-stretch:normal;text-align:center;line-height:125%;letter-spacing:0px;word-spacing:0px;writing-mode:lr-tb;text-anchor:middle;fill:#613314;fill-opacity:1;stroke:none;font-family:Roadgeek 2005 Series D;-inkscape-font-specification:Roadgeek 2005 Series D"
   x="24"
   y="39"
   id="text3126"
   sodipodi:linespacing="125%"><tspan
     sodipodi:role="line"
     id="tspan3128"
     x="24"
     y="39">66</tspan></text>
</svg>