<?xml version="1.0" encoding="UTF-8" standalone="no"?>
<!-- Generator: Adobe Illustrator 12.0.0, SVG Export Plug-In . SVG Version: 6.00 Build 51448)  -->

<svg
   xmlns:dc="http://purl.org/dc/elements/1.1/"
   xmlns:cc="http://creativecommons.org/ns#"
   xmlns:rdf="http://www.w3.org/1999/02/22-rdf-syntax-ns#"
   xmlns:svg="http://www.w3.org/2000/svg"
   xmlns="http://www.w3.org/2000/svg"
   xmlns:sodipodi="http://sodipodi.sourceforge.net/DTD/sodipodi-0.dtd"
   xmlns:inkscape="http://www.inkscape.org/namespaces/inkscape"
   version="1.1"
   id="Layer_1"
   width="60"
   height="48"
   viewBox="0 0 60 48"
   overflow="visible"
   enable-background="new 0 0 384 384"
   xml:space="preserve"
   inkscape:version="0.48.1 r9760"
   sodipodi:docname="US:VT_2.svg"
   style="overflow:visible"><metadata
   id="metadata39"><rdf:RDF><cc:Work
       rdf:about=""><dc:format>image/svg+xml</dc:format><dc:type
         rdf:resource="http://purl.org/dc/dcmitype/StillImage" /><dc:title></dc:title></cc:Work></rdf:RDF></metadata><defs
   id="defs37">
	
	
	
	

		
		
	
		
		
	</defs><sodipodi:namedview
   pagecolor="#ffffff"
   bordercolor="#666666"
   borderopacity="1"
   objecttolerance="10"
   gridtolerance="10"
   guidetolerance="10"
   inkscape:pageopacity="0"
   inkscape:pageshadow="2"
   inkscape:window-width="1278"
   inkscape:window-height="996"
   id="namedview35"
   showgrid="true"
   inkscape:showpageshadow="false"
   inkscape:zoom="16.895833"
   inkscape:cx="30"
   inkscape:cy="24"
   inkscape:window-x="1"
   inkscape:window-y="27"
   inkscape:window-maximized="0"
   inkscape:current-layer="Layer_1"><inkscape:grid
     type="xygrid"
     id="grid3002"
     empspacing="5"
     visible="true"
     enabled="true"
     snapvisiblegridlinesonly="true" /></sodipodi:namedview>
<g
   id="g3075"><g
     id="g3065"><path
       sodipodi:type="inkscape:offset"
       inkscape:radius="1.0079045"
       inkscape:original="M 4 3 C 2.8953858 3 2 3.8954468 2 5 L 2 13 C 2 14.104614 2.8953858 15 4 15 L 44 15 C 45.104614 15 46 14.104614 46 13 L 46 5 C 46 3.8954468 45.104614 3 44 3 L 4 3 z "
       style="fill:#006b54;fill-opacity:1"
       id="path3031"
       d="M 4,2 C 2.3506859,2 1,3.3507539 1,5 l 0,8 c 0,1.649277 1.3507229,3 3,3 l 40,0 c 1.649277,0 3,-1.350723 3,-3 L 47,5 C 47,3.3507538 45.649314,2 44,2 L 4,2 z"
       transform="matrix(1.2608696,0,0,1,-0.26086957,0)" /><path
       d="m 2,4.999999 c 0,-1.1045532 1.1395819,-2 2.5454545,-2 H 55.454545 c 1.405873,0 2.545455,0.8954468 2.545455,2 v 8 c 0,1.104614 -1.139582,2 -2.545455,2 H 4.5454545 C 3.1395819,14.999999 2,14.104613 2,12.999999 v -8 l 0,0 z"
       id="path15"
       inkscape:connector-curvature="0"
       style="fill:#ffffff" /></g><g
     id="g3071"><path
       sodipodi:type="inkscape:offset"
       inkscape:radius="1.0653514"
       inkscape:original="M 7.03125 17 C 3.8898925 20.803772 2 25.681396 2 31 C 2 36.318604 3.8898925 41.196289 7.03125 45 L 40.96875 45 C 44.110107 41.196289 46 36.318604 46 31 C 46 25.681396 44.110107 20.803772 40.96875 17 L 7.03125 17 z "
       style="fill:#006b54;fill-opacity:1"
       id="path3039"
       d="m 6.9375,15.9375 a 1.0654579,1.0654579 0 0 0 -0.71875,0.375 C 2.9262424,20.299295 0.9375,25.429024 0.9375,31 c 0,5.570976 1.9887323,10.700757 5.28125,14.6875 a 1.0654579,1.0654579 0 0 0 0.8125,0.375 l 33.9375,0 a 1.0654579,1.0654579 0 0 0 0.8125,-0.375 C 45.073767,41.700757 47.0625,36.570976 47.0625,31 c 0,-5.570976 -1.988743,-10.700705 -5.28125,-14.6875 a 1.0654579,1.0654579 0 0 0 -0.8125,-0.375 l -33.9375,0 a 1.0654579,1.0654579 0 0 0 -0.09375,0 z"
       transform="matrix(1.2574526,0,0,0.9958165,-0.17886179,0.13020179)" /><path
       style="fill:#ffffff"
       inkscape:connector-curvature="0"
       id="path11"
       d="m 2,30.999999 c 0,-5.318604 2.4018998,-10.196228 6.3999912,-14 H 51.600008 c 3.998091,3.803772 6.399992,8.681396 6.399992,14 0,5.318604 -2.401901,10.196289 -6.399992,14 H 8.3999912 C 4.4018998,41.196288 2,36.318603 2,30.999999 z" /></g></g><path
   d="M 24,8.999999"
   id="path17"
   inkscape:connector-curvature="0"
   style="fill:#000000" /><g
   id="g19"
   transform="matrix(0.125,0,0,0.125,5.9999999,-10e-7)">
		<polygon
   style="fill:#006b54;fill-rule:evenodd"
   id="polygon21"
   points="74.976562,41.106934 59.114746,102.89355 52.382812,102.89355 36.797852,41.106934 45.743164,41.106934 55.887207,81.222168 66.123535,41.106934 "
   clip-rule="evenodd" />
		<polygon
   style="fill:#006b54;fill-rule:evenodd"
   id="polygon23"
   points="92.404297,73.844727 92.404297,94.225098 114.99805,94.225098 114.99805,102.89355 83.551758,102.89355 83.551758,41.106934 112.60059,41.106934 112.60059,49.775391 92.404297,49.775391 92.404297,65.360352 105.22314,65.360352 105.22314,73.844727 "
   clip-rule="evenodd" />
		<path
   style="fill:#006b54;fill-rule:evenodd"
   inkscape:connector-curvature="0"
   id="path25"
   d="m 151.05469,102.89355 -8.20752,-29.048823 h -8.48389 v 29.048823 h -8.85351 V 41.106934 h 18.44433 c 2.39746,0 4.59522,0.399414 6.59326,1.19873 1.99805,0.799317 3.71973,1.905762 5.16455,3.319824 1.44434,1.414063 2.55127,3.150879 3.31983,5.210449 0.76806,2.059571 1.15283,4.318848 1.15283,6.777833 0,3.688964 -0.73828,6.824707 -2.21338,9.406738 -1.47558,2.582031 -3.68896,4.426269 -6.64014,5.532715 l 8.85352,30.340327 h -9.12988 z m 0.46093,-45.279781 c 0,-2.39746 -0.7373,-4.303222 -2.21289,-5.717285 -1.47558,-1.414062 -3.41211,-2.121094 -5.81005,-2.121094 h -9.1294 v 15.584961 h 9.1294 c 2.58203,0 4.56494,-0.660644 5.94824,-1.98291 1.3833,-1.321777 2.0747,-3.242675 2.0747,-5.763672 z"
   clip-rule="evenodd" />
		<polygon
   style="fill:#006b54;fill-rule:evenodd"
   id="polygon27"
   points="191.07715,75.780762 202.51172,41.106934 211.45703,41.106934 211.45703,102.89355 202.51172,102.89355 202.51172,68.21875 191.07715,102.89355 179.54932,68.21875 179.54932,102.89355 170.69629,102.89355 170.69629,41.106934 179.54932,41.106934 "
   clip-rule="evenodd" />
		<path
   style="fill:#006b54;fill-rule:evenodd"
   inkscape:connector-curvature="0"
   id="path29"
   d="m 260.00977,71.907715 c 0,4.734375 -0.26075,8.76123 -0.78321,12.081054 -0.52344,3.319825 -1.42969,6.455079 -2.7207,9.40625 -1.53711,3.688965 -3.45898,6.378418 -5.76367,8.068851 -2.30567,1.69092 -5.21094,2.53613 -8.71485,2.53613 -3.68945,0 -6.68554,-0.84521 -8.99121,-2.53613 -2.30566,-1.690433 -4.22754,-4.379886 -5.76367,-8.068851 -1.29199,-3.012695 -2.19824,-6.163574 -2.7207,-9.452636 -0.52246,-3.289063 -0.78418,-7.300293 -0.78418,-12.034668 0,-4.672364 0.26172,-8.683594 0.78418,-12.03418 0.52246,-3.350586 1.42871,-6.501465 2.7207,-9.452637 1.59863,-3.688964 3.54981,-6.348144 5.85547,-7.97705 C 235.43359,40.814941 238.40039,40 242.02734,40 c 3.56543,0 6.48633,0.814941 8.76075,2.443848 2.27441,1.628906 4.18066,4.349609 5.71777,8.161621 0.61426,1.537109 1.15234,3.07373 1.61328,4.61084 0.46094,1.537109 0.83008,3.15039 1.10742,4.841308 0.27637,1.690918 0.47657,3.503906 0.59864,5.440918 0.12304,1.937012 0.18457,4.073242 0.18457,6.40918 z m -8.48438,0 c 0,-1.721192 -0.0459,-3.289063 -0.13769,-4.703125 -0.0928,-1.414063 -0.21582,-2.720215 -0.36915,-3.918946 -0.15332,-1.199218 -0.35351,-2.351562 -0.5996,-3.458496 -0.24512,-1.106445 -0.52247,-2.213379 -0.83008,-3.319824 -0.79883,-2.766601 -1.79785,-4.764648 -2.99707,-5.994629 -1.19922,-1.229004 -2.72071,-1.84375 -4.56446,-1.84375 -3.81152,0 -6.4248,2.55127 -7.83886,7.653809 -0.73731,2.335937 -1.24512,4.687988 -1.52149,7.054687 -0.27637,2.367188 -0.41504,5.271973 -0.41504,8.714844 0,1.660156 0.0459,3.181641 0.13867,4.564942 0.0918,1.3833 0.21485,2.674316 0.36915,3.873046 0.15332,1.199219 0.35351,2.382325 0.59863,3.550782 0.24609,1.167969 0.52246,2.366699 0.83008,3.596191 1.41406,5.103027 4.02734,7.654297 7.83886,7.654297 1.84375,0 3.36524,-0.614746 4.56446,-1.844238 1.19922,-1.229492 2.19824,-3.166016 2.99707,-5.810059 0.36914,-1.229492 0.67675,-2.413086 0.92285,-3.550293 0.24609,-1.137207 0.44531,-2.321289 0.59961,-3.550293 0.15332,-1.229492 0.26074,-2.536133 0.32226,-3.919433 0.0615,-1.383301 0.0918,-2.966309 0.0918,-4.749512 z"
   clip-rule="evenodd" />
		<polygon
   style="fill:#006b54;fill-rule:evenodd"
   id="polygon31"
   points="300.30957,102.89355 281.2207,61.486816 281.2207,102.89355 272.36719,102.89355 272.36719,41.106934 281.2207,41.106934 298.18848,78.178711 298.18848,41.106934 307.04102,41.106934 307.04102,102.89355 "
   clip-rule="evenodd" />
		<polygon
   style="fill:#006b54;fill-rule:evenodd"
   id="polygon33"
   points="315.75586,49.314453 315.75586,41.106934 347.20215,41.106934 347.20215,49.314453 335.95117,49.314453 335.95117,102.89355 327.00586,102.89355 327.00586,49.314453 "
   clip-rule="evenodd" />
	</g>
<text
   xml:space="preserve"
   style="font-size:32px;font-style:normal;font-variant:normal;font-weight:normal;font-stretch:normal;text-align:center;line-height:125%;letter-spacing:0px;word-spacing:0px;writing-mode:lr;text-anchor:middle;fill:#006b54;fill-opacity:1;stroke:none;font-family:Roadgeek 2005 Series D;-inkscape-font-specification:Roadgeek 2005 Series D"
   x="30"
   y="42"
   id="text3018"
   sodipodi:linespacing="125%"><tspan
     sodipodi:role="line"
     id="tspan3083">%num%</tspan></text>

</svg>