<?xml version="1.0" encoding="UTF-8" standalone="no"?>
<!-- Created with Inkscape (http://www.inkscape.org/) -->

<svg
   xmlns:dc="http://purl.org/dc/elements/1.1/"
   xmlns:cc="http://creativecommons.org/ns#"
   xmlns:rdf="http://www.w3.org/1999/02/22-rdf-syntax-ns#"
   xmlns:svg="http://www.w3.org/2000/svg"
   xmlns="http://www.w3.org/2000/svg"
   xmlns:sodipodi="http://sodipodi.sourceforge.net/DTD/sodipodi-0.dtd"
   xmlns:inkscape="http://www.inkscape.org/namespaces/inkscape"
   width="48"
   height="48"
   id="svg2"
   sodipodi:version="0.32"
   inkscape:version="0.48.1 r9760"
   version="1.0"
   sodipodi:docname="US:WA_1.5.svg">
  <defs
     id="defs4">
    <inkscape:perspective
       sodipodi:type="inkscape:persp3d"
       inkscape:vp_x="0 : 456 : 1"
       inkscape:vp_y="0 : 1000 : 0"
       inkscape:vp_z="773 : 456 : 1"
       inkscape:persp3d-origin="386.5 : 304 : 1"
       id="perspective3821" />
    <inkscape:perspective
       id="perspective3039"
       inkscape:persp3d-origin="0.5 : 0.33333333 : 1"
       inkscape:vp_z="1 : 0.5 : 1"
       inkscape:vp_y="0 : 1000 : 0"
       inkscape:vp_x="0 : 0.5 : 1"
       sodipodi:type="inkscape:persp3d" />
    <inkscape:perspective
       id="perspective2997"
       inkscape:persp3d-origin="0.5 : 0.33333333 : 1"
       inkscape:vp_z="1 : 0.5 : 1"
       inkscape:vp_y="0 : 1000 : 0"
       inkscape:vp_x="0 : 0.5 : 1"
       sodipodi:type="inkscape:persp3d" />
  </defs>
  <sodipodi:namedview
     id="base"
     pagecolor="#ffffff"
     bordercolor="#666666"
     borderopacity="1.0"
     inkscape:pageopacity="0.0"
     inkscape:pageshadow="2"
     inkscape:zoom="16.895834"
     inkscape:cx="25.03576"
     inkscape:cy="24.000003"
     inkscape:document-units="px"
     inkscape:current-layer="layer1"
     inkscape:window-width="1278"
     inkscape:window-height="996"
     inkscape:window-x="1"
     inkscape:window-y="27"
     showgrid="true"
     showborder="true"
     inkscape:showpageshadow="false"
     inkscape:window-maximized="0"
     showguides="true"
     inkscape:guide-bbox="true">
    <inkscape:grid
       type="xygrid"
       id="grid3001"
       empspacing="5"
       visible="true"
       enabled="true"
       snapvisiblegridlinesonly="true" />
  </sodipodi:namedview>
  <metadata
     id="metadata7">
    <rdf:RDF>
      <cc:Work
         rdf:about="">
        <dc:format>image/svg+xml</dc:format>
        <dc:type
           rdf:resource="http://purl.org/dc/dcmitype/StillImage" />
        <dc:title></dc:title>
      </cc:Work>
    </rdf:RDF>
  </metadata>
  <g
     inkscape:label="Layer 1"
     inkscape:groupmode="layer"
     id="layer1"
     transform="translate(-376.27829,-418.50557)">
    <g
       id="g3186">
      <path
         transform="matrix(0.95958026,0,0,0.95958026,15.284151,17.891243)"
         d="m 400.34375,418.53125 c -4.75176,0 -7.98711,1.0791 -11.40625,2.28125 -0.43432,0.15265 -0.67124,0.40571 -0.90625,0.65625 -0.23501,0.25054 -0.45726,0.52517 -0.65625,0.8125 -0.37301,0.53862 -0.67309,1.07561 -0.875,1.4375 -0.0135,0.0242 -0.0501,0.0714 -0.0625,0.0937 -0.14712,0.17704 -0.46857,0.46005 -0.8125,0.78125 -0.37765,0.35269 -0.6911,0.58868 -1,1.125 -1.48179,2.5739 -1.67307,3.28549 -3.4375,6.59375 -0.45141,0.8462 -0.1965,1.59571 -0.0937,2.09375 0.0514,0.24902 0.0938,0.46217 0.0937,0.53125 -0.38278,0.40394 -0.68412,0.86533 -1,1.46875 -0.34823,0.66522 -0.69214,1.42396 -1,2.1875 -0.30786,0.76354 -0.56801,1.52743 -0.75,2.15625 -0.091,0.31441 -0.17547,0.58186 -0.21875,0.84375 -0.0433,0.26189 -0.15299,0.45386 0.0312,0.9375 0.17558,0.46085 0.57123,0.85038 0.96875,1.03125 0.39752,0.18087 0.76784,0.19145 1.09375,0.1875 0.23169,-0.003 0.30268,-0.0148 0.5,-0.0312 -0.0185,0.30212 0.0139,0.50101 -0.0312,0.8125 -0.0921,0.63561 -0.21875,1.15625 -0.21875,1.15625 a 0.95433068,0.95433068 0 0 0 0.15625,0.75 c 0,0 0.34825,0.70885 0.34375,0.875 -0.008,0.28875 -0.1457,0.68077 -0.375,1.1875 -0.2293,0.50673 -0.55609,1.16344 -0.40625,2 0.14848,0.829 0.76012,1.46557 1.40625,1.8125 0.64613,0.34693 1.37308,0.52557 2.125,0.65625 1.50384,0.26135 3.17085,0.3399 4.1875,0.59375 0.84195,0.21027 1.34208,0.57174 1.53125,0.875 0.18917,0.30326 0.24003,0.60485 -0.15625,1.3125 -1.17661,2.1011 -2.27451,3.02575 -3.625,4.15625 -1.35049,1.1305 -2.91094,2.44453 -4.65625,5.0625 a 0.95433068,0.95433068 0 0 0 0.78125,1.5 l 39.15625,0 a 0.95433068,0.95433068 0 0 0 0.96875,-1 c -0.0967,-2.26797 -1.57773,-3.80337 -2.84375,-4.8125 -0.63301,-0.50457 -1.2284,-0.90218 -1.625,-1.21875 -0.3966,-0.31657 -0.45264,-0.55416 -0.4375,-0.3125 -0.009,-0.13585 0.0221,-0.075 0,-0.0312 -0.0221,0.0437 -1.1e-4,0.005 0.125,-0.125 0.25022,-0.26047 0.71049,-0.83612 1.03125,-1.84375 0.34798,-1.09423 -0.13055,-1.2164 0.65625,-2.71875 a 0.95433068,0.95433068 0 0 0 -0.6875,-1.375 c -0.94876,-0.14979 -1.74218,0.0991 -2.28125,0.40625 -0.37695,0.21477 -0.75749,0.40934 -1.15625,0.59375 -0.14382,-0.17281 -0.34784,-0.36785 -0.46875,-0.84375 -0.16121,-0.63453 -0.0268,-1.38324 -0.0312,-1.375 -0.005,0.01 0.25204,-0.32857 0.65625,-0.65625 0.40421,-0.32768 0.9392,-0.71938 1.53125,-1.15625 1.18409,-0.87374 2.56747,-1.88919 3.59375,-3.09375 0.31641,-0.37146 0.47602,-0.77269 0.65625,-1.28125 0.18023,-0.50856 0.35894,-1.10635 0.46875,-1.75 0.21962,-1.2873 0.26396,-2.74588 -0.25,-4.03125 -0.3903,-0.976 -1.12056,-1.90749 -1.8125,-2.84375 -0.69194,-0.93626 -1.3249,-1.89466 -1.5,-2.40625 -0.98873,-2.88979 -1.03855,-5.65168 -3.625,-9.65625 -2.82921,-4.38035 -8.12124,-6.40625 -13.65625,-6.40625 z"
         id="path3015"
         style="fill:#000000"
         inkscape:original="M 400.34375 419.5 C 395.7327 419.5 392.65966 420.51993 389.25 421.71875 C 388.61115 421.94329 387.66529 423.58939 387.28125 424.28125 C 386.84467 424.87285 385.66788 425.78751 385.4375 426.1875 C 383.97738 428.72376 383.80975 429.41537 382.03125 432.75 C 381.57896 433.59785 382.50805 434.92823 381.9375 435.46875 C 380.90363 436.44816 378.91602 441.5569 379.15625 442.1875 C 379.54542 443.20896 380.94166 442.62865 381.8125 442.71875 C 381.96264 443.67967 381.5 445.875 381.5 445.875 C 381.5 445.875 382.04995 446.65261 382.03125 447.34375 C 382.00122 448.45481 381.0437 449.36642 381.21875 450.34375 C 381.5791 452.35568 385.84552 452.03243 388.21875 452.625 C 390.20089 453.12003 391.239 454.39685 390.21875 456.21875 C 387.72685 460.66861 385.23822 460.45517 381.875 465.5 L 421.03125 465.5 C 420.87077 461.73608 416.23655 460.46888 416.15625 459.1875 C 416.09523 458.21345 416.78306 458.60511 417.34375 456.84375 C 417.50655 456.33182 417.18182 455.65036 418.0625 453.96875 C 416.54089 453.72852 416.32435 454.62728 414.5625 455.1875 C 413.43911 454.70608 412.95704 452.22444 413.4375 451.34375 C 413.99067 450.32982 417.50167 448.44332 419.34375 446.28125 C 419.96924 445.54694 420.86294 442.18933 420.0625 440.1875 C 419.46048 438.68206 417.24333 436.43892 416.71875 434.90625 C 415.6776 431.86326 415.67004 429.31243 413.1875 425.46875 C 410.58069 421.43273 405.64691 419.5 400.34375 419.5 z "
         inkscape:radius="0.95423526"
         sodipodi:type="inkscape:offset" />
      <path
         inkscape:connector-curvature="0"
         d="m 381.70865,442.71414 c -0.83298,-0.0862 -2.18411,0.46003 -2.55636,-0.51702 -0.22979,-0.60318 1.68233,-5.49715 2.67125,-6.43398 0.54574,-0.51702 -0.34645,-1.7741 0.0862,-2.58508 1.70117,-3.18965 1.84815,-3.85112 3.24479,-6.27711 0.22036,-0.3826 1.34685,-1.27171 1.76445,-1.83759 0.36734,-0.66178 1.27323,-2.24064 1.88431,-2.45541 3.26141,-1.1467 6.20197,-2.10238 10.61254,-2.10238 5.07259,0 9.79574,1.84188 12.28921,5.70242 2.3746,3.67656 2.3746,6.12745 3.37048,9.03813 0.50178,1.46604 2.64115,3.61529 3.217,5.05528 0.76563,1.91479 -0.0911,5.11899 -0.68936,5.82137 -1.76199,2.06807 -5.13922,3.85564 -5.66834,4.82548 -0.45957,0.8424 -0.002,3.21608 1.07264,3.67657 1.68524,-0.53587 1.91457,-1.37872 3.37002,-1.14893 -0.84239,1.6085 -0.53363,2.26775 -0.68935,2.75742 -0.53631,1.68478 -1.20729,1.2894 -1.14892,2.2211 0.0768,1.22567 4.51894,2.45089 4.67245,6.05116 h -37.45519 c 3.21699,-4.82549 5.5824,-4.62894 7.96596,-8.88533 0.97589,-1.74269 2.3e-4,-2.95396 -1.89573,-3.42747 -2.27005,-0.5668 -6.34781,-0.25851 -6.69249,-2.18296 -0.16744,-0.93484 0.7468,-1.80956 0.77553,-2.87231 0.0179,-0.66109 -0.51702,-1.40744 -0.51702,-1.40744 0,0 0.45957,-2.09678 0.31596,-3.01592 z"
         style="fill:#ffffff"
         id="Head_1_" />
    </g>
    <path
       inkscape:connector-curvature="0"
       id="path1435"
       d=""
       style="fill:#a8e50a" />
    <text
       xml:space="preserve"
       style="font-size:28px;font-style:normal;font-variant:normal;font-weight:normal;font-stretch:normal;text-align:center;line-height:100%;writing-mode:lr;text-anchor:middle;fill:#000000;fill-opacity:1;fill-rule:nonzero;stroke:none;font-family:Roadgeek 2005 Series B;-inkscape-font-specification:Roadgeek 2005 Series B"
       x="398.27829"
       y="449.50558"
       id="routenum"
       sodipodi:linespacing="100%"><tspan
         sodipodi:role="line"
         id="tspan3079">%num%</tspan></text>
  </g>
</svg>
