<?xml version="1.0" encoding="UTF-8" standalone="no"?>
<!-- Generator: Adobe Illustrator 12.0.0, SVG Export Plug-In . SVG Version: 6.00 Build 51448)  -->

<svg
   xmlns:dc="http://purl.org/dc/elements/1.1/"
   xmlns:cc="http://creativecommons.org/ns#"
   xmlns:rdf="http://www.w3.org/1999/02/22-rdf-syntax-ns#"
   xmlns:svg="http://www.w3.org/2000/svg"
   xmlns="http://www.w3.org/2000/svg"
   xmlns:sodipodi="http://sodipodi.sourceforge.net/DTD/sodipodi-0.dtd"
   xmlns:inkscape="http://www.inkscape.org/namespaces/inkscape"
   version="1.1"
   id="Layer_1"
   width="48"
   height="48"
   viewBox="0 0 48 48"
   overflow="visible"
   enable-background="new 0 0 384 384"
   xml:space="preserve"
   inkscape:version="0.48.1 r9760"
   sodipodi:docname="US:WI_3.svg"
   style="overflow:visible"><metadata
   id="metadata17"><rdf:RDF><cc:Work
       rdf:about=""><dc:format>image/svg+xml</dc:format><dc:type
         rdf:resource="http://purl.org/dc/dcmitype/StillImage" /><dc:title /></cc:Work></rdf:RDF></metadata><defs
   id="defs15">
	
	
</defs><sodipodi:namedview
   pagecolor="#ffffff"
   bordercolor="#666666"
   borderopacity="1"
   objecttolerance="10"
   gridtolerance="10"
   guidetolerance="10"
   inkscape:pageopacity="0"
   inkscape:pageshadow="2"
   inkscape:window-width="1598"
   inkscape:window-height="1198"
   id="namedview13"
   showgrid="true"
   inkscape:showpageshadow="false"
   inkscape:zoom="20.25"
   inkscape:cx="24"
   inkscape:cy="24"
   inkscape:window-x="1"
   inkscape:window-y="1"
   inkscape:window-maximized="0"
   inkscape:current-layer="Layer_1"><inkscape:grid
     type="xygrid"
     id="grid2991"
     empspacing="5"
     visible="true"
     enabled="true"
     snapvisiblegridlinesonly="true" /></sodipodi:namedview>
<g
   id="g3001"><path
     transform="matrix(0.99864315,0,0,0.99841567,0.03256445,0.04172769)"
     d="M 4.1875,2.96875 A 1.0371407,1.0371407 0 0 0 3.5,4.5 L 5.3125,7.84375 C 2.9089219,7.9999962 0.96875,9.9584306 0.96875,12.40625 l 0,26.40625 c 0,2.548985 2.0836318,4.625 4.625,4.625 l 15.875,0 1.625,3.0625 a 1.0371407,1.0371407 0 0 0 1.8125,0 l 1.625,-3.0625 15.875,0 c 2.541327,0 4.625,-2.075995 4.625,-4.625 l 0,-26.40625 c 0,-2.4478387 -1.940206,-4.4062553 -4.34375,-4.5625 L 44.5,4.5 A 1.0371407,1.0371407 0 0 0 43.59375,2.96875 l -39.1875,0 a 1.0371407,1.0371407 0 0 0 -0.21875,0 z"
     id="path2999"
     style="fill:#000000"
     inkscape:original="M 4.40625 4 L 7.03125 8.8125 L 5.59375 8.8125 C 3.6126921 8.8125 2 10.418047 2 12.40625 L 2 38.8125 C 2 40.800704 3.6126921 42.40625 5.59375 42.40625 L 22.09375 42.40625 L 24 46 L 25.90625 42.40625 L 42.40625 42.40625 C 44.38725 42.40625 46 40.800704 46 38.8125 L 46 12.40625 C 46 10.418047 44.38725 8.8125 42.40625 8.8125 L 40.96875 8.8125 L 43.59375 4 L 4.40625 4 z "
     inkscape:radius="1.037037"
     sodipodi:type="inkscape:offset" /><path
     d="m 43.608696,4 -2.630435,4.8 h 1.434782 C 44.394043,8.8 46,10.411797 46,12.4 v 26.4 c 0,1.988204 -1.605957,3.6 -3.586957,3.6 h -16.5 L 24,46 22.086957,42.4 H 5.5869565 C 3.6058986,42.4 2,40.788204 2,38.8 V 12.4 C 2,10.411797 3.6058986,8.8 5.5869565,8.8 H 7.0217391 L 4.3913043,4 H 43.608696 z"
     id="path11"
     inkscape:connector-curvature="0"
     style="fill:#ffffff" /></g>
<text
   xml:space="preserve"
   style="font-size:32px;font-style:normal;font-variant:normal;font-weight:normal;font-stretch:normal;text-align:center;line-height:125%;letter-spacing:0px;word-spacing:0px;writing-mode:lr-tb;text-anchor:middle;fill:#000000;fill-opacity:1;stroke:none;font-family:Roadgeek 2005 Series B;-inkscape-font-specification:Roadgeek 2005 Series B"
   x="24"
   y="36"
   id="text2996"
   sodipodi:linespacing="125%"><tspan
     sodipodi:role="line"
     id="tspan3005"
     x="24"
     y="36">%num%</tspan></text>


</svg>