<?xml version="1.0" encoding="UTF-8" standalone="no"?>
<!-- Created with Inkscape (http://www.inkscape.org/) -->

<svg
   xmlns:dc="http://purl.org/dc/elements/1.1/"
   xmlns:cc="http://creativecommons.org/ns#"
   xmlns:rdf="http://www.w3.org/1999/02/22-rdf-syntax-ns#"
   xmlns:svg="http://www.w3.org/2000/svg"
   xmlns="http://www.w3.org/2000/svg"
   xmlns:sodipodi="http://sodipodi.sourceforge.net/DTD/sodipodi-0.dtd"
   xmlns:inkscape="http://www.inkscape.org/namespaces/inkscape"
   width="48"
   height="48"
   id="svg2"
   sodipodi:version="0.32"
   inkscape:version="0.48.1 r9760"
   version="1.0"
   sodipodi:docname="US:WY_3.svg">
  <defs
     id="defs4">
    <inkscape:perspective
       sodipodi:type="inkscape:persp3d"
       inkscape:vp_x="0 : 456 : 1"
       inkscape:vp_y="0 : 1000 : 0"
       inkscape:vp_z="773 : 456 : 1"
       inkscape:persp3d-origin="386.5 : 304 : 1"
       id="perspective3821" />
    <inkscape:perspective
       id="perspective3039"
       inkscape:persp3d-origin="0.5 : 0.33333333 : 1"
       inkscape:vp_z="1 : 0.5 : 1"
       inkscape:vp_y="0 : 1000 : 0"
       inkscape:vp_x="0 : 0.5 : 1"
       sodipodi:type="inkscape:persp3d" />
    <inkscape:perspective
       id="perspective3286"
       inkscape:persp3d-origin="0.5 : 0.33333333 : 1"
       inkscape:vp_z="1 : 0.5 : 1"
       inkscape:vp_y="0 : 1000 : 0"
       inkscape:vp_x="0 : 0.5 : 1"
       sodipodi:type="inkscape:persp3d" />
    <inkscape:perspective
       id="perspective3563"
       inkscape:persp3d-origin="0.5 : 0.33333333 : 1"
       inkscape:vp_z="1 : 0.5 : 1"
       inkscape:vp_y="0 : 1000 : 0"
       inkscape:vp_x="0 : 0.5 : 1"
       sodipodi:type="inkscape:persp3d" />
  </defs>
  <sodipodi:namedview
     id="base"
     pagecolor="#ffffff"
     bordercolor="#666666"
     borderopacity="1.0"
     inkscape:pageopacity="0.0"
     inkscape:pageshadow="2"
     inkscape:zoom="16.895833"
     inkscape:cx="24"
     inkscape:cy="24"
     inkscape:document-units="px"
     inkscape:current-layer="layer1"
     inkscape:window-width="1278"
     inkscape:window-height="996"
     inkscape:window-x="1"
     inkscape:window-y="27"
     showgrid="true"
     showborder="true"
     inkscape:showpageshadow="false"
     inkscape:window-maximized="0"
     gridtolerance="10">
    <inkscape:grid
       type="xygrid"
       id="grid3003"
       empspacing="5"
       visible="true"
       enabled="true"
       snapvisiblegridlinesonly="true" />
  </sodipodi:namedview>
  <metadata
     id="metadata7">
    <rdf:RDF>
      <cc:Work
         rdf:about="">
        <dc:format>image/svg+xml</dc:format>
        <dc:type
           rdf:resource="http://purl.org/dc/dcmitype/StillImage" />
        <dc:title></dc:title>
      </cc:Work>
    </rdf:RDF>
  </metadata>
  <g
     inkscape:label="Layer 1"
     inkscape:groupmode="layer"
     id="layer1"
     transform="translate(-376.3871,-417.9138)">
    <g
       id="g3793">
      <path
         style="fill:#ffca08;stroke:#260d0d;stroke-width:0.99997121;stroke-miterlimit:4;stroke-dasharray:none;overflow:visible"
         d="m 422.87536,462.13577 c 0,1.2617 -1.03474,2.27805 -2.31644,2.27805 l -40.35539,0 c -1.2817,0 -2.31645,-1.01635 -2.31645,-2.27805 l 0,-40.44395 c 0,-1.26169 1.03475,-2.27803 2.31645,-2.27803 l 40.36714,0 c 1.2817,0 2.31645,1.01634 2.31645,2.27803 l -0.0115,40.44395 0,0 z"
         id="path2377"
         inkscape:connector-curvature="0" />
      <g
         id="g3784">
        <polygon
           id="polygon2379"
           points="77.7,34.7 66.8,102.3 66.8,102.3 58.5,102.3 52.1,67 45.7,102.3 37.1,102.3 26.5,34.7 35.9,34.7 41.7,70.7 48.2,34.7 55.9,34.7 62.3,70.7 68.2,34.7 "
           style="fill:#260d0d;overflow:visible"
           transform="matrix(0.12287766,0,0,0.12205313,376.38552,417.92086)" />
        <polygon
           id="polygon2381"
           points="103.3,59.1 114.5,34.7 124.9,34.7 108.1,71.7 108.1,71.7 108.1,102.3 98.4,102.3 98.4,71.7 81.7,34.7 91.9,34.7 "
           style="fill:#260d0d;overflow:visible"
           transform="matrix(0.12287766,0,0,0.12205313,376.38552,417.92086)" />
        <path
           inkscape:connector-curvature="0"
           id="path2383"
           d="m 397.60649,426.2693 c 0,0.63467 -0.037,1.17171 -0.11066,1.6111 -0.0737,0.43938 -0.19659,0.86658 -0.36863,1.25715 -0.20884,0.48819 -0.46693,0.85437 -0.77413,1.07407 -0.30719,0.21956 -0.7004,0.34175 -1.16733,0.34175 -0.49151,0 -0.89701,-0.1099 -1.2165,-0.34175 -0.30718,-0.23204 -0.56523,-0.58588 -0.77411,-1.07407 -0.17211,-0.40279 -0.29492,-0.82996 -0.36866,-1.26937 -0.0737,-0.43938 -0.11066,-0.9764 -0.11066,-1.61109 0,-0.62247 0.037,-1.15952 0.11066,-1.61111 0.0737,-0.45158 0.1966,-0.86656 0.36866,-1.25714 0.22108,-0.48821 0.47922,-0.85436 0.7864,-1.06185 0.3072,-0.2198 0.7127,-0.32956 1.20421,-0.32956 0.47922,0 0.87243,0.1099 1.17962,0.32956 0.3072,0.2198 0.56525,0.58585 0.77413,1.08626 0.0859,0.20756 0.15987,0.41498 0.22108,0.61025 0.0614,0.20757 0.11066,0.4272 0.14738,0.6469 0.037,0.21956 0.0614,0.46379 0.0859,0.73233 0,0.26851 0.012,0.54923 0.012,0.86657 z m -1.14277,0 c 0,-0.23203 -0.012,-0.4394 -0.0245,-0.63468 -0.012,-0.18309 -0.0245,-0.36617 -0.0492,-0.52483 -0.0245,-0.15861 -0.0492,-0.31735 -0.0859,-0.46381 -0.037,-0.14638 -0.0737,-0.29292 -0.11066,-0.43939 -0.11066,-0.36615 -0.24576,-0.63466 -0.4055,-0.80553 -0.15987,-0.15861 -0.36864,-0.24411 -0.61439,-0.24411 -0.51609,0 -0.87243,0.34175 -1.05676,1.02524 -0.0982,0.31734 -0.17211,0.62247 -0.20884,0.93981 -0.037,0.31734 -0.0615,0.7079 -0.0615,1.15949 0,0.2198 0,0.4272 0.012,0.61029 0.012,0.18308 0.0245,0.35393 0.0492,0.51261 0.0245,0.15862 0.0492,0.31735 0.0859,0.47601 0.037,0.15861 0.0737,0.31734 0.11066,0.476 0.19659,0.68349 0.54067,1.02526 1.05676,1.02526 0.24575,0 0.45464,-0.0854 0.61438,-0.24411 0.15987,-0.15861 0.29492,-0.42719 0.40551,-0.78115 0.0492,-0.17085 0.0859,-0.31734 0.1229,-0.476 0.037,-0.14638 0.0615,-0.30513 0.0859,-0.47601 0.0245,-0.15861 0.037,-0.34174 0.037,-0.52483 0.037,-0.15861 0.037,-0.37836 0.037,-0.61026 z"
           style="fill:#260d0d;overflow:visible" />
        <polygon
           id="polygon2385"
           points="220.9,102.3 220.9,64.4 208.5,102.3 195.9,64.4 195.9,102.3 186.2,102.3 186.2,34.7 195.9,34.7 208.5,72.6 220.9,34.7 230.8,34.7 230.8,102.3 220.9,102.3 "
           style="fill:#260d0d;overflow:visible"
           transform="matrix(0.12287766,0,0,0.12205313,376.38552,417.92086)" />
        <rect
           id="rect2387"
           height="8.2507915"
           width="1.1673379"
           style="fill:#260d0d;overflow:visible"
           y="422.15613"
           x="406.55194" />
        <polygon
           id="polygon2389"
           points="269.9,34.7 279.6,34.7 298.2,75.3 298.2,34.7 307.9,34.7 307.9,102.3 300.5,102.3 300.5,102.3 279.6,57 279.6,102.3 269.9,102.3 "
           style="fill:#260d0d;overflow:visible"
           transform="matrix(0.12287766,0,0,0.12205313,376.38552,417.92086)" />
        <path
           inkscape:connector-curvature="0"
           id="path2391"
           d="m 420.46173,428.84461 c -0.037,0.19533 -0.0984,0.37837 -0.18435,0.56145 -0.15987,0.36615 -0.4055,0.64688 -0.72497,0.85437 -0.3195,0.20756 -0.68813,0.30513 -1.1059,0.30513 -0.49151,0 -0.92159,-0.12214 -1.27793,-0.35394 -0.35634,-0.23204 -0.63897,-0.58588 -0.84785,-1.06188 -0.13515,-0.31734 -0.23356,-0.73232 -0.3195,-1.25713 -0.0737,-0.52483 -0.1229,-1.04967 -0.1229,-1.5989 0,-0.58586 0.0245,-1.09847 0.0859,-1.53788 0.0492,-0.43939 0.15986,-0.85437 0.3072,-1.25713 0.0737,-0.2198 0.18435,-0.41499 0.31947,-0.59807 0.13515,-0.18309 0.29492,-0.34175 0.47924,-0.476 0.18436,-0.13438 0.38093,-0.24411 0.6021,-0.31735 0.22108,-0.0732 0.45464,-0.1099 0.6881,-0.1099 0.29492,0 0.57754,0.0489 0.83559,0.15861 0.25804,0.10991 0.47922,0.24409 0.66352,0.42718 0.18435,0.18308 0.34408,0.40279 0.45466,0.65908 0.11066,0.25633 0.18436,0.53705 0.1966,0.84218 l -1.1919,0 c -0.012,-0.28073 -0.11066,-0.50043 -0.29492,-0.6713 -0.17211,-0.17085 -0.4055,-0.2563 -0.70039,-0.2563 -0.41779,0 -0.725,0.20756 -0.94617,0.61026 -0.11066,0.20756 -0.20884,0.52483 -0.27034,0.93981 -0.0615,0.42717 -0.0982,0.87877 -0.0982,1.3792 0,0.34174 0.012,0.6957 0.037,1.04964 0.0245,0.35396 0.0737,0.69571 0.13514,1.01305 0.0859,0.40279 0.23356,0.70792 0.44235,0.9276 0.20884,0.2198 0.46693,0.31734 0.78643,0.31734 0.60209,0 0.9093,-0.42717 0.9093,-1.28156 l 0,-0.53702 -0.94617,0 0,-1.15952 2.13807,0 0,1.69654 c 0,0.29294 -0.012,0.53705 -0.0492,0.73232 z"
           style="fill:#260d0d;overflow:visible" />
      </g>
      <path
         style="fill:#260d0d;overflow:visible"
         d="m 399.6094,453.80448 c 0,0 0.18435,-0.26851 0.63896,-0.29292 l 0.29492,-0.35396 c 0,0 0.43006,0.13414 0.43006,0.36615 0,0 -0.0982,0.18309 0.61438,-0.0854 l 0.1229,0.0732 -0.33176,0.35394 c 0,0 -0.81098,0.0609 -1.0936,0.41498 0,0 -0.24576,0.13438 -0.30721,0.46381 l 0.47922,0.41498 0.28263,-0.476 0.24575,0.30513 0.11066,0.0245 c 0,0 0.22132,-0.50041 0.54067,-0.4516 0,0 0.54067,0.2441 0.54067,0.53704 0,0 -0.41779,0.1099 -0.43008,0.29292 l -0.27034,0.0977 -0.11066,0.0245 -0.0615,-0.0367 0,0.14638 0.0859,0.0367 c 0,0 0.23356,-0.0609 0.63896,1.59888 l 0.27034,-0.17085 0.22108,0.0489 c 0,0 0.18435,-0.0609 0.18435,-0.20756 0,0 0.1229,-0.0367 0.11066,0.0732 -0.012,0.1099 -0.037,0.19533 -0.20884,0.29292 -0.17211,0.0977 -0.15963,-0.12214 -0.24575,-0.0854 -0.0982,0.0367 -0.15963,0.0732 -0.15963,0.12214 0,0.0489 0.29489,0.1099 0.36863,0.25632 0.0737,0.14638 -0.037,0.12214 -0.0492,0.0977 -0.012,-0.0245 -0.18435,-0.0367 -0.19659,-0.012 -0.012,0.0245 -0.29492,0.13413 -0.22132,0.24411 0.0614,0.1099 0.20884,0.23179 0.34408,0.20756 0.13514,-0.0245 0.15962,-0.1099 0.24575,-0.0854 0.0859,0.0245 0.0982,0.15862 0.0982,0.15862 l 0.11066,0.0245 0.012,-0.0732 c 0,0 0.23356,0.0977 0.13514,0.36615 -0.0984,0.26851 0.41777,-0.0367 0.39321,-0.0732 -0.0245,-0.0367 0.0614,0.15861 0,0.2198 -0.0615,0.0609 0.35635,0.18308 0.38093,0.2441 0.0245,0.0609 0.0492,0.13438 -0.0245,0.12214 -0.0859,-0.012 -0.28262,-0.12214 -0.29491,-0.0732 -0.012,0.0489 0.012,0.0977 0.23356,0.20756 l 0.24575,-0.12214 c 0,0 0.0614,0 0.0614,0.0732 0,0.0854 -0.3072,0.14637 -0.14738,0.28072 0.15986,0.13414 0.33176,0.0732 0.33176,0.0732 0,0 0.012,0.1099 0.012,0.2198 0,0.1099 0.14739,0.1099 0.14739,0.1099 l -0.18436,0.19532 0.17211,-0.0487 c 0,0 0.17211,0.42717 0.0737,0.64688 l 0.23356,0.0854 -0.012,0.4272 -0.20883,-0.0367 -0.012,0.2198 0.29489,0.26851 -0.0859,0.0977 -0.3072,-0.0367 c 0,0 -0.0982,-0.012 -0.13515,0.24411 0,0 -1.17961,0.64688 -1.27791,0.85437 -0.11065,0.19532 -0.47924,0.012 -0.47924,0.012 l 0,-0.18308 0.11066,-0.12214 -0.0984,-0.0732 -0.13514,0.012 -0.0245,0.0854 -0.0492,-0.012 c 0,0 -0.0245,-0.36618 0.3072,-0.50043 0,0 0.037,-0.19533 -0.1229,-0.40277 -0.15987,-0.19532 -0.18435,-1.1229 -0.18435,-1.1229 0,0 -0.18435,-0.14637 -0.24575,-0.0487 -0.0615,0.0977 -0.15987,0.1099 -0.15987,0.46379 0,0.35396 0.0984,1.84301 0.0984,1.84301 0,0 0.25805,0.56145 0.35637,0.53702 0.0982,-0.0245 -0.012,0.23204 -0.0737,0.30515 -0.0614,0.0732 -0.17211,0.13414 -0.52838,-0.13437 -0.35634,-0.2563 -0.23356,-1.33037 -0.23356,-1.33037 0,0 -0.55294,-0.96422 -0.54065,-1.74537 l -0.38092,-0.18309 -0.1229,0.0732 c 0,0 -0.30721,-0.0245 -0.51609,-0.40279 l -0.22108,0.012 0.037,-0.52483 c 0,0 -0.0982,-0.0609 -0.14739,0 -0.0492,0.061 -0.5038,0.69571 -0.5038,0.75673 0,0.0609 0.0245,0.14637 0.23356,0.14637 0.20884,-0.012 0.38093,0.31734 0.39319,0.36615 0.012,0.049 0.037,0.23204 0.037,0.23204 l -0.13515,0.0487 c 0,0 -0.2826,-0.012 -0.55293,-0.29291 0,0 -0.33179,0.0854 -0.14739,0.14637 0.18436,0.0732 0.30718,0.31734 0.51609,0.36617 0.20884,0.0367 0.18435,0.26851 0.20884,0.32954 0.0245,0.0609 0.46693,0.36617 0.39321,0.75672 l -0.65126,-0.24411 -0.0245,-0.24408 -0.1229,-0.0489 -0.0245,-0.18309 c 0,0 -0.57751,-0.59804 -1.14274,-0.80553 l 0.1966,-0.30515 c 0,0 -0.66355,-0.14638 -0.87243,-0.37837 -0.20884,-0.2318 0.39321,-0.54923 0.39321,-0.54923 l 0.11066,-0.63466 -0.25805,-0.46382 c 0,0 0.0245,-1.00083 0.62668,-1.1229 0,0 -0.34405,-0.72011 -0.56523,-0.0245 -0.22107,0.6957 -0.13514,1.46464 -0.79871,1.30596 0,0 0.24575,-0.43938 0.19659,-0.63466 l -0.20883,0.012 c 0,0 0.0982,-0.17085 0.13514,-0.19533 0.037,-0.0367 0,-0.20756 0,-0.20756 l -0.23356,0.012 c 0,0 0.20884,-0.13414 0.20884,-0.24411 0,-0.1099 0.0982,-0.24411 0.0982,-0.24411 l -0.1229,-0.14637 c 0,0 0.14739,-1.04967 0.57754,-1.07407 0.43006,-0.0245 0.82327,0.63469 0.73727,0.87879 -0.0737,0.24411 0.23356,0.37837 0.29489,0.40277 0.0614,0.0245 0.36865,-0.012 1.26564,0.29294 l 0.0984,-0.31734 c 0,0 0.17211,-0.0367 0.23356,0.0977 0.0614,0.13413 0.0982,-0.18309 0.0982,-0.18309 l -0.13514,-0.0732 -0.012,-1.1839 c 0,0 -0.65126,-0.50043 -0.67581,-0.74454 -0.0245,-0.24411 0.38089,-0.67128 0.40547,-0.6957 0.0245,-0.0245 0.037,-0.14638 0.037,-0.14638 l -0.35634,-0.18308 0.0737,-0.049 z"
         id="path2393"
         inkscape:connector-curvature="0" />
    </g>
    <polygon
       id="polygon2395"
       points="203.9,325.1 205.1,325 205.8,324.3 204.8,321.2 203.9,319.3 203,319.3 203,319.3 201.4,322.4 "
       style="fill:#ffca08;overflow:visible"
       transform="matrix(0.12287766,0,0,0.12205313,376.38552,417.92086)" />
    <polygon
       id="polygon2397"
       points="177.2,343.8 178.8,344 179,342.8 178.5,342.2 178.5,342.2 "
       style="fill:#ffca08;overflow:visible"
       transform="matrix(0.12287766,0,0,0.12205313,376.38552,417.92086)" />
    <path
       id="path1435"
       d=""
       style="fill:#a8e50a"
       inkscape:connector-curvature="0" />
    <text
       xml:space="preserve"
       style="font-size:27.9999996px;font-style:normal;font-variant:normal;font-weight:normal;font-stretch:normal;text-align:center;line-height:100%;writing-mode:lr;text-anchor:middle;fill:#000000;fill-opacity:1;fill-rule:nonzero;stroke:none;font-family:Roadgeek 2005 Series D;-inkscape-font-specification:Roadgeek 2005 Series D"
       x="400.31613"
       y="451.99393"
       id="routenum"
       sodipodi:linespacing="100%"
       transform="scale(1.0001773,0.99982276)"><tspan
         sodipodi:role="line"
         id="tspan3807">%num%</tspan></text>
  </g>
</svg>
