<?xml version="1.0" encoding="UTF-8" standalone="no"?>
<!-- Created with Inkscape (http://www.inkscape.org/) -->

<svg
   xmlns:dc="http://purl.org/dc/elements/1.1/"
   xmlns:cc="http://creativecommons.org/ns#"
   xmlns:rdf="http://www.w3.org/1999/02/22-rdf-syntax-ns#"
   xmlns:svg="http://www.w3.org/2000/svg"
   xmlns="http://www.w3.org/2000/svg"
   xmlns:sodipodi="http://sodipodi.sourceforge.net/DTD/sodipodi-0.dtd"
   xmlns:inkscape="http://www.inkscape.org/namespaces/inkscape"
   version="1.1"
   width="48"
   height="72"
   id="svg4212"
   sodipodi:docname="US:WI:.Rustic.svg"
   inkscape:version="0.92.3 (2405546, 2018-03-11)">
  <sodipodi:namedview
     pagecolor="#ffffff"
     bordercolor="#666666"
     borderopacity="1"
     objecttolerance="10"
     gridtolerance="10"
     guidetolerance="10"
     inkscape:pageopacity="0"
     inkscape:pageshadow="2"
     inkscape:window-width="640"
     inkscape:window-height="480"
     id="namedview39"
     showgrid="false"
     fit-margin-bottom="24"
     fit-margin-top="0"
     fit-margin-left="0"
     fit-margin-right="0"
     inkscape:zoom="11.608336"
     inkscape:cx="28.551206"
     inkscape:cy="20.761591"
     inkscape:current-layer="svg4212" />
  <defs
     id="defs4214" />
  <metadata
     id="metadata4217">
    <rdf:RDF>
      <cc:Work
         rdf:about="">
        <dc:format>image/svg+xml</dc:format>
        <dc:type
           rdf:resource="http://purl.org/dc/dcmitype/StillImage" />
        <dc:title></dc:title>
      </cc:Work>
    </rdf:RDF>
  </metadata>
  <rect
     style="fill:#fcd116;fill-opacity:1;stroke:none;stroke-width:0.08"
     id="rect4291"
     y="-4.6093749e-07"
     x="4.8437499e-08"
     ry="3"
     rx="3"
     height="48"
     width="48" />
  <path
     style="fill:#603311;fill-opacity:1;stroke:none;stroke-width:0.08"
     d="M 3.0175781 1.0683594 C 1.9095781 1.0683594 1.0175781 1.9603594 1.0175781 3.0683594 L 1.0175781 45.068359 C 1.0175781 46.176359 1.9095781 47.068359 3.0175781 47.068359 L 45.017578 47.068359 C 46.125578 47.068359 47.017578 46.176359 47.017578 45.068359 L 47.017578 3.0683594 C 47.017578 1.9603594 46.125578 1.0683594 45.017578 1.0683594 L 3.0175781 1.0683594 z "
     id="rect4801" />
  <path
     inkscape:connector-curvature="0"
     style="fill:#ffffff;fill-opacity:1;stroke:none;stroke-width:0.08"
     id="path3833"
     d="m 11.549169,29.022634 0.05614,-0.378915 0.0421,-0.140338 v -0.25261 l -0.126305,-0.224541 -0.322778,-0.336813 -0.463118,-0.659591 0.07017,0.336812 v 0.533287 l 0.0421,0.224541 0.112271,0.196474 0.154372,0.168406 0.112271,0.154373 0.126305,0.154372 0.196474,0.266643 M 14.06123,3.4108408 13.822654,3.523112 12.756081,4.2388384 12.082455,4.5054824 11.310593,4.7440576 10.524697,4.9545656 9.8370378,5.0107008 9.1914802,5.2352424 8.8967698,5.936936 8.742397,6.8070352 8.6722282,7.452592 8.588025,8.3226912 8.4897874,9.1647232 8.4196186,9.9506192 8.6722282,9.8243144 8.952905,9.4454 9.3037514,8.870012 9.5984626,8.6735384 10.047546,8.505132 10.510663,8.1823528 10.875543,7.7613376 11.22639,7.6350328 11.84388,7.5508296 12.475403,7.2841864 12.770115,6.877204 12.994656,6.3579512 13.233232,5.9790368 13.556011,5.8106312 14.047195,5.670292 14.117365,5.6562584 14.089297,5.5439872 13.87879,5.2633104 13.724417,4.9545656 l -0.0421,-0.4069824 0.0842,-0.4069816 0.126304,-0.3368128 0.140339,-0.4210152" />
  <path
     inkscape:connector-curvature="0"
     style="fill:#ffffff;fill-opacity:1;stroke:none;stroke-width:0.08"
     id="path3837"
     d="m 24.221743,21.037365 0.406982,-0.168406 0.631524,-0.112271 0.168406,-0.196474 0.07017,-0.477151 0.01403,-0.322779 0.0421,-0.336813 -0.09824,-0.406981 -0.112271,-0.210508 -0.0842,-0.308745 -0.210508,-0.25261 -0.05614,-0.280677 -0.336813,-0.196474 -0.196474,0.09824 -0.126305,0.238576 -0.0842,0.308745 -0.05614,0.322778 v 0.294711 l 0.0842,0.350847 0.112271,0.378914 0.02807,0.294711 -0.07017,0.280677 -0.126305,0.701693 0.02807,-0.01403 m 1.880537,-0.589421 -0.05614,-0.154373 -0.01403,-0.210508 0.09824,-0.196474 -0.02807,-0.252609 V 19.38137 l 0.07017,-0.238576 0.0842,-0.252609 0.02807,-0.406982 v -0.182441 l 0.05613,-0.210507 0.154373,-0.252609 0.09824,-0.266644 0.18244,-0.112271 h 0.126305 l 0.05614,0.140339 v 0.238576 l 0.05614,0.210508 v 0.280676 l -0.09824,0.25261 -0.126305,0.350846 -0.05614,0.238576 v 0.350847 l -0.0421,0.210507 -0.05614,0.505219 -0.140339,0.154373 -0.09824,0.0421 H 26.13033 l -0.01403,-0.02807 m 1.164809,-0.266644 -0.0421,-0.168406 v -0.126305 l 0.112271,-0.294711 -0.0421,-0.196474 0.0421,-0.308744 0.140338,-0.224543 0.01403,-0.168405 0.05614,-0.308746 0.07017,-0.224542 0.112271,-0.294711 v -0.140338 l -0.02807,-0.140339 -0.0421,-0.140338 0.05614,-0.07017 0.09824,-0.0421 0.02807,0.07017 v 0.308745 l 0.11227,0.140339 0.07017,-0.154372 0.02807,-0.168407 0.01403,-0.210508 0.0421,-0.0421 0.0842,-0.05614 0.07017,0.05614 -0.02807,0.224541 -0.126305,0.589423 0.02807,0.154372 -0.0421,0.827997 -0.05613,0.280678 0.02807,0.280677 v 0.238576 l -0.01403,0.09824 -0.785896,0.210508 v -0.02807 m 1.375319,-0.294711 0.01403,-0.154372 v -0.238576 l -0.02807,-0.266643 0.126305,-0.575388 0.0842,-0.238576 0.126304,-0.18244 0.182441,-0.280677 0.05614,-0.210508 0.126305,-0.0842 0.280677,0.238575 -0.09824,0.140339 -0.196474,0.463117 -0.0842,0.238576 -0.112271,0.533287 -0.01403,0.238576 -0.0421,0.224541 -0.01403,0.02807 -0.406981,0.126305 v -0.02807 m 1.403385,-1.613894 -0.05614,0.0842 -0.11227,0.196474 -0.05614,0.168407 -0.0842,0.224541 -0.0421,0.196475 -0.0421,0.322778 v 0.154373 l -0.01403,0.09824 0.0842,0.05614 h 0.112271 l 0.224542,-0.07017 -0.01403,-0.238576 0.01403,-0.154373 0.05614,-0.224541 0.0842,-0.477152 0.0421,-0.140338 m 0.308744,0.322778 -0.07017,0.14034 -0.02807,0.140338 0.01403,0.126305 -0.02807,0.18244 v 0.126305 l -0.01403,0.154372 h 0.280677 l 0.01403,-0.0842 -0.02807,-0.09824 -0.02807,-0.18244 v -0.140339 l 0.0421,-0.18244" />
  <path
     inkscape:connector-curvature="0"
     style="fill:#ffffff;fill-opacity:1;stroke:none;stroke-width:0.08"
     id="path3839"
     d="m 32.894668,17.304358 -0.112271,0.477152 -0.0421,0.224542 -0.05614,0.603456 -0.07017,0.322778 0.126304,0.196475 0.140339,-0.322779 0.02807,-0.463118 0.01403,-0.392948 0.0421,-0.392948 -0.07017,-0.25261 v 0.02807 m 1.136743,-2.273484 0.112271,-0.14034 0.11227,0.07017 0.01403,0.421016 -0.126304,0.294711 0.0421,0.336812 -0.168406,0.05614 -0.09824,-0.224542 -0.01403,-0.210507 0.07017,-0.477152 0.07017,-0.154372 m 0.09824,4.420665 0.07017,-0.308745 -0.02807,-0.435049 0.09824,-0.154373 h 0.07017 l 0.01403,0.140338 -0.0421,0.406983 -0.0421,0.280677 -0.140338,0.07017 v -0.02807 m 0.392948,0.02807 0.02807,-0.210508 0.01403,-0.280677 -0.05614,-0.54732 0.09824,-0.196475 0.18244,0.182441 -0.0421,0.224542 -0.02807,0.224541 0.09824,0.140339 -0.07017,0.406982 -0.224541,0.05614 v -0.02807 m 0.421015,0.02807 0.112271,-0.322778 0.02807,-0.336813 -0.02807,-0.322779 0.112271,-0.05614 0.154372,-0.01403 0.112272,0.0421 -0.0421,0.18244 -0.112271,0.154372 -0.05613,0.18244 -0.0421,0.238576 v 0.280677 l -0.01403,0.0842 -0.224542,-0.112271 0.01403,-0.02807 m 0.561355,-0.659591 -0.09824,0.631524 0.02807,0.05614 0.0842,-0.07017 0.02807,-0.210508 -0.0421,-0.406982 v 0.02807 m 0.09824,0.743794 0.196473,-0.280677 0.112271,-0.406982 -0.01403,-0.322778 -0.112271,-0.126305 0.02807,0.18244 -0.02807,0.350846 -0.0421,0.238576 -0.140338,0.36488 0.01403,-0.02807 m 0.505219,0.01403 0.18244,-0.421016 V 18.86212 l -0.154372,-0.54732 0.05614,-0.09824 0.0842,0.126305 0.0842,-0.07017 0.01403,-0.09824 0.126304,-0.01403 0.01403,0.112271 -0.05613,0.126305 -0.02807,0.196474 -0.0421,0.785896 -0.280677,0.140339 0.01403,-0.02807 m -31.7024872,-1.066574 0.084203,0.182441 1.810368,-0.79993 -1.8805368,0.645557 M 4.419967,19.3112 4.995355,18.960353 5.753183,18.679676 6.3987406,18.567405 v 0.224542 l -0.1684064,0.02807 H 6.1180658 L 5.9777266,18.932286 H 5.5286434 l -0.3087448,0.196475 -0.3227784,0.126304 -0.4771512,0.05614 0.028067,-0.01403 M 4.419969,20.251478 5.1216618,20.111139 6.2443706,19.67609 6.3987426,19.339277 6.0899978,19.49365 5.6970498,19.648022 5.4304066,19.788361 4.419969,20.251478 h 0.028067 m 2.2173496,0.140339 0.028068,-2.624332 0.084203,-0.421016 0.056135,-0.02807 0.042102,0.0421 0.028068,0.645558 -0.07017,0.280677 0.1122712,0.336813 -0.028068,0.350846 -0.084203,0.322778 0.07017,0.168407 -0.014034,0.79993 -0.2245416,0.126305 v -0.02807" />
  <path
     inkscape:connector-curvature="0"
     style="fill:#ffffff;fill-opacity:1;stroke:none;stroke-width:0.08"
     id="path3841"
     d="m 6.3987426,17.458731 -0.18244,0.112271 -0.392948,0.168406 -0.2806776,-0.0421 0.1263048,-0.09824 0.1403392,-0.0421 0.1403384,-0.11227 0.2666432,-0.0421 0.18244,0.05614 -0.028068,0.01403 m 0.813964,-0.07017 -0.098237,0.0842 -0.042102,0.126305 0.1684064,0.0421 0.210508,0.0842 0.210508,-0.126304 0.2245416,-0.112271 0.1684064,-0.0421 -0.3227792,0.01403 -0.18244,0.07017 -0.210508,-0.02807 -0.1263048,-0.11227 -0.028067,0.01403 m 0.9823696,0.0421 1.2911152,0.01403 1.0946412,-0.196474 1.23498,-0.280677 1.010438,-0.575388 -0.378915,0.0421 -0.771862,0.196475 -0.842031,0.378913 -0.589423,0.0842 -0.4490834,-0.05614 -0.154372,0.0842 -0.5473208,0.02807 -0.8981672,0.280677 h 0.028068 m 6.2731344,-1.894571 v -0.0842 l 0.112272,-0.0421 0.0421,0.140339 -0.02807,0.54732 -0.02807,0.238576 0.09824,0.406982 -0.09824,0.308745 -0.07017,0.491185 H 14.35594 l -0.01403,-0.252609 0.02807,-0.743795 -0.0842,-0.168406 0.126305,-0.491186 0.02807,-0.378913 m 4.420666,-0.266643 h 0.0421 l 0.0421,0.252608 0.02807,0.32278 0.02807,0.238575 0.140339,0.140339 0.02807,0.252609 -0.01403,0.378914 0.07017,0.25261 -0.126305,0.07017 -0.0421,-0.154372 -0.140338,-0.168407 -0.0842,-0.392948 -0.02807,-0.547321 0.05614,-0.645556 h 0.02807 m -4.841682,1.361284 0.01403,-0.168407 h -0.0842 l -0.8701,0.43505 -0.673625,0.18244 -1.543724,0.449084 -1.1928786,0.18244 -0.6595912,0.126305 -0.4631176,0.07017 -0.7016928,0.210508 -0.7016928,0.32278 -0.056135,0.126304 1.7401984,-0.463117 0.54732,-0.01403 0.7016936,-0.182441 0.72976,-0.0421 1.094641,-0.308745 0.631524,-0.168406 0.589422,-0.252609 0.561354,-0.266644 0.336812,-0.238575 v -0.02807 m -6.8344882,2.862907 0.210508,-0.210508 0.4069816,-0.238575 0.6736256,-0.168407 0.2806768,-0.112271 0.210508,0.05614 0.6595912,-0.05614 1.501623,-0.533286 0.421015,-0.18244 0.701694,-0.210508 0.771861,-0.18244 0.701694,-0.294712 0.252609,-0.11227 0.09824,0.0842 -0.18244,0.224543 -0.449084,0.196473 -0.603456,0.210508 -0.617489,0.154373 -1.038506,0.280677 -1.122709,0.505219 -0.8700986,0.266643 h -0.392948 l -0.1403384,-0.01403 -0.2947112,0.07017 -0.4771512,0.266643 -0.5894224,0.0842 -0.1122704,-0.0842 0.014034,-0.01403 m 7.6203862,-3.424261 0.252609,-0.238576 0.589422,0.0842 0.477151,0.01403 0.364881,-0.05613 0.280677,0.09824 0.561354,-0.09824 0.519253,-0.01403 0.533286,0.0421 0.09824,0.126305 -0.294711,0.09824 -0.533287,-0.02807 -0.743795,0.0421 -0.54732,-0.05614 -0.673625,0.02807 -0.491185,0.02807 -0.392948,-0.07017 0.01403,-0.01403" />
  <path
     inkscape:connector-curvature="0"
     style="fill:#ffffff;fill-opacity:1;stroke:none;stroke-width:0.08"
     id="path3843"
     d="m 18.636267,16.91141 -0.02807,-0.05614 -0.406981,-0.02807 h -0.350847 l -0.350846,-0.02807 -0.898167,0.154372 -0.729761,0.0421 -0.659591,0.02807 -0.308745,0.0421 -0.0842,0.09824 0.350846,0.07017 h 0.463118 l 0.449083,-0.01403 0.378914,-0.0421 0.406982,0.05614 0.771862,-0.280678 0.32278,-0.01403 0.421015,0.05614 0.252609,-0.0842 -0.01403,-0.02807 m -3.887379,-0.322779 0.378914,-0.09824 0.856066,-0.02807 0.449083,0.0842 0.308745,-0.07017 0.673625,-0.112272 h 0.280677 l 0.350846,-0.01403 0.25261,-0.0421 0.140338,-0.01403 0.09824,0.09824 -0.02807,0.126305 -0.238576,-0.01403 -0.477151,0.01403 -0.392948,0.0421 -0.645558,0.02807 -0.421015,0.140339 -0.449084,-0.112271 -0.378914,0.02807 -0.449084,-0.0421 -0.308744,-0.01403 0.02807,-0.01403 m 4.673275,-0.743794 0.11227,-0.0421 0.547321,-0.02807 1.150776,0.01403 0.0421,0.09824 -0.112271,0.0421 -0.926235,-0.02807 -0.36488,0.0842 -0.449083,-0.140338 0.02807,-0.01403 m 1.96474,0.406982 -0.224542,0.07017 -0.406981,0.05613 -1.403386,0.0421 0.378914,-0.224541 h 0.673625 l 0.98237,0.05614 -0.02807,0.01403 m -2.062978,0.491185 0.715727,0.0842 0.757828,-0.0421 0.68766,-0.07017 0.322779,-0.126305 -0.0842,-0.168406 -0.266644,0.01403 -0.43505,0.0421 -0.36488,0.112271 h -0.589422 l -0.743795,0.154373 h 0.02807 m 2.736603,-8.7290606 0.02807,-0.2245416 0.140338,-0.1403384 0.0421,-0.1403384 0.224541,0.028067 -0.02807,0.1824408 0.0421,0.1122704 -0.112271,0.084203 -0.336812,0.098237 v -0.028067 m -0.280677,0.1263048 -0.182441,0.2806768 -0.154372,0.3648808 -0.126305,-0.056136 -0.0842,-0.18244 -0.210508,0.07017 -0.25261,-0.1122712 0.224542,-0.098237 0.785897,-0.2666432 -0.01404,0.028067 m -0.140338,1.6419616 -0.07017,0.1964744 -0.0421,-0.1263048 -0.0842,-0.1263048 0.140339,-0.1263048 0.154372,-0.098237 0.01403,0.1122704 -0.01403,0.1263048 -0.09824,0.042102 -0.01403,0.028068 m -14.7776532,7.255505 0.18244,-0.07017 v -0.168406 l -0.042102,-0.196474 -0.098237,0.196474 -0.056135,0.210508 0.014034,0.02807 0.028068,-0.01403 m -0.7999304,-0.673626 0.042102,-0.154372 -0.056135,-0.140339 -0.07017,-0.0842 -0.084203,0.01403 -0.1122704,0.0421 v 0.0842 l 0.1122704,0.01403 0.056136,0.154373 0.1122704,0.07017 0.014034,-0.02807 M 7.1004354,13.950266 6.932029,14.048503 H 6.7916906 l -0.098237,0.07017 -0.056135,-0.05613 0.070169,-0.0842 0.210508,-0.112271 v -0.11227 l -0.014034,-0.07017 0.084203,0.05613 0.028067,0.126305 0.084203,0.0842 -0.028067,0.01403" />
  <path
     inkscape:connector-curvature="0"
     style="fill:#ffffff;fill-opacity:1;stroke:none;stroke-width:0.08"
     id="path3845"
     d="m 6.932029,12.364441 -0.084203,0.01403 -0.070169,-0.0421 -0.028068,-0.07017 v -0.07017 l 0.07017,-0.07017 0.1403384,0.05614 0.042102,0.07017 -0.07017,0.112271 h -0.028067 m 2.175248,3.901413 -0.3087448,-0.112272 -0.084203,-0.07017 -0.1122712,-0.18244 -0.084203,-0.154372 -0.014034,-0.05614 0.1122712,-0.18244 -0.042102,-0.140339 0.098237,-0.0842 0.042102,0.01403 0.1263048,0.112271 0.1684064,-0.0421 0.042102,0.168407 -0.084203,0.196473 0.014034,0.168407 0.084203,0.308745 0.042102,0.05614 -0.028068,-0.01403 m 2.6383652,-0.0842 -0.0421,-0.238575 -0.01403,-0.126305 0.0421,-0.112271 h -0.18244 l -0.07017,0.02807 0.07017,-0.09824 0.01403,-0.05614 0.126305,-0.07017 0.196474,-0.02807 -0.05613,-0.09824 0.05613,-0.05614 0.112271,-0.07017 0.07017,-0.140339 v 0.05613 l -0.02807,0.18244 0.07017,0.07017 0.392949,0.266643 -0.406982,-0.0842 0.406982,0.0842 -0.575389,0.0842 -0.09824,0.0421 -0.0842,0.36488 v -0.02807 m -1.515656,-2.806772 -0.09824,0.07017 -0.098237,0.02807 -0.084203,-0.0842 v -0.02807 l 0.028067,-0.0842 0.182441,-0.112271 0.09824,0.01403 -0.01403,0.0421 -0.01403,0.154373 -0.02807,0.01403 m 1.375318,-0.982369 0.09824,0.210507 0.112271,0.308746 -0.02807,0.07017 -0.126305,0.02807 -0.02807,-0.05613 0.01403,-0.0842 -0.0421,-0.477151 0.01403,0.02807 m -0.79993,-3.9996496 -0.112271,0.028068 -0.112271,0.210508 0.05614,0.1684056 0.05614,0.042102 0.0421,0.1403392 0.01403,0.098237 0.07017,-0.028068 0.05614,-0.084203 -0.01403,-0.1403384 -0.09824,-0.1964736 0.0421,-0.238576 h -0.02807 m 0.813964,0.7578288 -0.154372,0.1122704 -0.05614,0.098237 -0.02807,0.098238 0.05613,0.1263048 0.02807,0.084203 v 0.154372 l 0.140338,-0.014034 0.0421,-0.056136 -0.0421,-0.070169 -0.0421,-0.098237 0.05613,-0.4350496 -0.02807,0.014034 m 0.266643,1.5296904 V 10.3997 l -0.0421,-0.07017 -0.112271,-0.05614 -0.140338,0.210508 0.01403,0.07017 0.05614,0.0842 0.07017,0.02807 v 0.182441 l -0.0421,0.140338 0.140338,0.0421 0.196474,-0.140338 -0.140338,-0.196475 v -0.02807 m 0.659591,0.0421 -0.07017,0.05614 -0.0842,0.0842 -0.05613,0.168406 0.05613,0.154372 -0.0421,0.238576 -0.0421,0.09824 0.0421,0.05614 0.140339,-0.0842 0.126304,-0.238575 -0.01403,-0.112271 v -0.140339 l -0.0421,-0.154372 -0.01403,-0.126305 -0.02807,0.01403 m 24.250508,8.700992 0.05613,-0.224541 0.01403,-0.266644 0.0421,-0.308744 0.07017,-0.266644 0.02807,0.112271 -0.01403,0.140339 0.05613,0.11227 0.01403,0.280678 -0.02807,0.18244 v 0.168406 l -0.238576,0.07017 v -0.02807" />
  <path
     inkscape:connector-curvature="0"
     style="fill:#ffffff;fill-opacity:1;stroke:none;stroke-width:0.08"
     id="path3847"
     d="m 37.006588,19.367336 0.07017,-0.61749 -0.05613,-0.126304 -0.07017,-0.112272 0.02807,-0.11227 0.05613,-0.0421 0.05614,0.02807 0.0421,0.196474 0.05614,0.729761 -0.182441,0.05614 v -0.02807 m 0.435051,-0.02807 -0.01403,-0.322779 0.126305,-0.266644 0.01403,-0.449083 0.0421,-0.0842 0.09824,0.07017 0.0421,0.98237 -0.0421,0.112271 -0.266643,-0.0421 v -0.02807 m 0.575388,0.07017 0.210508,-0.884133 0.0421,-0.140339 0.05614,0.05614 v 0.18244 l -0.0421,0.36488 v 0.336813 l 0.01403,0.05613 -0.280676,0.02807 v -0.02807 m 0.54732,-0.01403 0.02807,-0.827998 0.0421,-0.05614 0.05614,0.01403 0.02807,0.224541 0.02807,0.589422 -0.18244,0.05614 v -0.02807 m 0.378914,-0.01403 0.02807,-0.406982 0.0421,-0.224542 0.196473,-0.238575 0.02807,0.02807 -0.01403,0.266643 -0.09824,0.14034 0.01403,0.336812 -0.196474,0.09824 v -0.02807 m -10.216649,-1.459521 -0.09824,-0.406982 -0.0842,-0.140338 h 0.05614 l 0.0842,-0.02807 0.126304,0.02807 0.140339,0.09824 0.05614,0.05614 -0.280677,0.392948 v -0.02807 m -2.736602,0.18244 0.07017,-0.112271 0.308744,-0.589421 -0.140338,-0.05614 -0.210508,0.05614 -0.11227,0.0421 0.0842,0.659591 0.01403,-0.02807 m -0.659591,-0.449083 -0.09824,-0.07017 -0.280677,-0.126305 -0.126305,0.154373 -0.168406,0.02807 -0.01403,-0.126305 -0.09824,-0.154373 0.02807,-0.210508 0.168407,0.01403 0.0421,-0.308744 0.02807,-0.126305 0.112271,-0.01403 v 0.210508 l 0.0421,0.07017 0.14034,0.126305 0.154372,0.05614 0.140338,-0.01403 -0.07017,0.491185 -0.02807,-0.01403 m -1.361284,-0.05614 0.0842,-0.196474 0.126305,-0.364881 0.01403,-0.18244 -0.01403,-0.168406 -0.182441,-0.09824 -0.140338,0.0421 -0.0842,0.07017 0.112271,0.308745 0.0842,0.589422 0.01403,-0.02807 m -1.754232,0.18244 0.0421,-0.435049 -0.140339,-0.168407 -0.126305,-0.196473 -0.126304,0.09824 -0.01403,0.18244 0.112271,0.266643 0.25261,0.252609 v -0.02807 m -0.547321,-1.515656 -0.322778,-0.561355 -0.05614,-0.11227 0.0842,-0.112271 h 0.05614 l 0.09824,0.196474 0.140338,0.0842 0.0421,0.238575 -0.0421,0.266644 -0.01403,-0.02807 m -1.501623,-0.687659 -0.0421,0.01403 v -0.0842 l 0.02807,-0.0842 -0.140339,-0.154372 -0.0842,-0.02807 0.0842,-0.154372 h 0.02807 l 0.18244,0.0421 0.01403,0.09824 0.01403,0.0421 0.126305,0.0421 0.0421,0.02807 -0.02807,0.126305 -0.112271,0.07017 -0.140339,0.05613" />
  <path
     inkscape:connector-curvature="0"
     style="fill:#ffffff;fill-opacity:1;stroke:none;stroke-width:0.08"
     id="path3849"
     d="m 20.783448,14.988772 -0.07017,-0.01403 -0.02807,-0.112271 0.02807,-0.140338 -0.05614,-0.09824 -0.0842,-0.0842 -0.168406,-0.112271 -0.07017,-0.140339 0.02807,-0.154373 h 0.140339 l 0.0421,0.112272 0.09824,0.112271 0.112271,0.154372 0.126305,0.09824 0.07017,0.210508 -0.02807,0.140338 -0.140339,0.02807 h -0.02807 m -0.477151,-1.361284 -0.0421,-0.02807 0.02807,-0.140338 0.07017,-0.126305 0.0421,-0.126305 0.01403,-0.18244 0.05614,-0.154373 h 0.112271 v 0.0842 l -0.0842,0.210508 0.01403,0.210508 -0.07017,0.126305 -0.0421,0.126305 h -0.09824 l -0.02807,-0.01403 m 0.280678,-0.98237 -0.0842,-0.0421 -0.01403,-0.224541 -0.0421,-0.280678 -0.02807,-0.350846 0.05614,-0.210508 -0.0842,-0.154372 -0.02807,-0.196475 0.0842,-0.02807 0.112271,0.294712 -0.01403,0.126304 0.0842,0.25261 0.01403,0.322778 -0.07017,0.210508 0.01403,0.280678 -0.02807,-0.01403 m 0.968336,-1.936672 -0.05614,-0.0842 -0.154372,0.02807 -0.02807,0.252609 0.07017,0.154373 0.05614,0.18244 0.0842,0.154373 h 0.0421 l 0.0421,-0.266643 -0.07017,-0.0842 0.01403,-0.336812 -0.01403,-0.02807 m 1.108675,1.670029 -0.07017,-0.05614 0.05614,-0.210507 0.05614,-0.0842 0.09824,-0.112271 0.126304,0.02807 0.112271,0.140338 -0.112271,0.09824 -0.266643,0.196474 -0.02807,-0.01403 m 0.561355,3.901413 -0.112272,-0.02807 -0.05614,-0.112271 -0.0421,-0.154373 -0.01403,-0.11227 0.0842,-0.112271 0.0842,0.01403 -0.0421,0.0842 v 0.112271 l 0.09824,0.07017 0.05613,0.154372 -0.05613,0.0842 h -0.02807 m -0.8701,-2.203316 -0.01403,-0.0421 -0.02807,-0.154372 v -0.09824 l 0.0421,-0.126305 h 0.02807 l 0.0842,0.02807 0.02807,0.09824 0.05613,0.07017 -0.0421,0.0421 -0.126305,0.09824 -0.02807,0.0842 -0.01403,-0.02807 m -1.052539,-0.757828 -0.0421,-0.0421 -0.01403,-0.09824 v -0.126305 l 0.112271,-0.196473 0.0421,-0.126305 0.02807,0.154372 v 0.210508 l 0.01403,0.126305 -0.140338,0.09824 -0.01404,-0.01403 m -7.143233,2.371722 0.168406,-0.02807 0.09824,-0.0842 -0.0421,-0.09824 -0.140338,-0.01403 -0.0842,0.224541 h 0.02807 m 0.533287,-0.519252 0.0421,-0.112272 -0.07017,-0.07017 -0.196474,0.02807 -0.18244,0.05613 -0.07017,0.126305 0.07017,0.0421 0.224541,-0.02807 0.07017,-0.05614 0.112271,0.01403 0.01403,-0.02807 m -0.477152,-0.547321 0.01403,-0.112271 0.126305,-0.224541 0.196474,-0.112271 0.140339,0.07017 -0.07017,0.140339 -0.168406,0.140338 -0.266644,0.112271" />
  <path
     inkscape:connector-curvature="0"
     style="fill:#ffffff;fill-opacity:1;stroke:none;stroke-width:0.08"
     id="path3851"
     d="m 14.440143,13.753793 0.0842,-0.182441 -0.224542,-0.02807 -0.11227,-0.09824 -0.0842,-0.196474 -0.210508,-0.01403 -0.154372,0.0421 v 0.154372 l -0.0421,0.252609 0.154373,0.07017 0.168406,0.02807 0.238575,0.01403 0.18244,-0.0421 0.01403,-0.02807 m -1.319183,0.126305 0.05614,-0.126305 -0.07017,-0.140339 -0.07017,0.09824 v 0.154373 l 0.0842,0.01403 0.01403,-0.02807 m 0.266643,-0.392948 h -0.05614 l -0.0421,-0.0842 h -0.18244 v -0.09824 l 0.09824,-0.07017 0.0421,-0.154372 0.0842,-0.112271 0.07017,0.392948 -0.01403,0.126305 h -0.02807 m -0.140338,-0.940268 0.210508,-0.0421 0.11227,-0.112271 0.154373,-0.140339 v -0.154372 l -0.112271,0.0421 -0.210507,0.210508 -0.154373,0.196475 h 0.02807 m -0.378915,-0.463118 -0.0421,-0.0842 -0.02807,-0.140339 -0.0842,-0.0421 -0.09824,-0.01403 -0.0842,-0.05613 0.01403,-0.09824 0.140339,-0.0421 0.07017,-0.126305 0.02807,-0.112271 0.07017,-0.0842 v 0.196474 l 0.0842,0.196474 0.0842,0.07017 -0.01403,0.168407 -0.140339,0.168406 -0.01403,-0.02807 m 16.124903,3.789142 0.140338,-0.140339 -0.01403,-0.0842 0.196474,-0.01403 0.01403,-0.112271 -0.07017,-0.154372 -0.09824,-0.18244 -0.0421,-0.294711 -0.01403,-0.154373 -0.154373,0.182441 -0.07017,0.308745 v 0.168406 l 0.01403,0.126304 -0.01403,0.266644 0.11227,0.0842 0.01403,-0.01403 m -16.251208,0.645558 0.533286,-0.0842 0.449084,-0.11227 0.308745,-0.168406 0.140338,-0.196475 -0.140338,-0.0421 -0.266643,0.154372 -0.25261,0.154372 -0.771862,0.294712 h 0.02807 m 7.718621,-7.2976068 0.07017,0.098237 0.0842,0.18244 0.02807,0.1263048 -0.02807,0.18244 -0.09824,0.2806776 0.02807,0.1824394 -0.01403,0.238576 -0.07017,0.196474 -0.168405,0.18244 h -0.01403 l 0.09824,-0.533286 V 10.03482 l 0.02807,-0.2245416 0.05614,-0.238576 0.01403,-0.18244 -0.0421,-0.1684064 0.02807,-0.098237 0.01403,0.028068" />
  <path
     inkscape:connector-curvature="0"
     style="fill:none;stroke:#ffffff;stroke-width:0.2;stroke-linecap:butt;stroke-linejoin:round;stroke-miterlimit:10;stroke-dasharray:none;stroke-opacity:1"
     id="path3853"
     d="m 11.535135,25.865013 0.505219,-0.25261 0.519253,-0.238576 0.252609,-0.126304 1.024472,-0.463117 1.291115,-0.561355 0.266643,-0.09824 0.266644,-0.112271 0.252609,-0.09824 0.266644,-0.112271 1.852468,-0.687659 0.266644,-0.0842 0.533287,-0.196474 0.799929,-0.252609 0.266644,-0.09824 0.54732,-0.168407 0.266644,-0.07017 0.54732,-0.168407 0.266644,-0.07017 0.266643,-0.0842 0.280677,-0.07017 0.266644,-0.0842 1.361284,-0.350847 0.280676,-0.05614 0.280678,-0.07017 0.266643,-0.05614 0.280677,-0.07017 0.547321,-0.112271 0.280677,-0.07017 0.827998,-0.168407 0.280677,-0.0421 0.547321,-0.112271 0.280676,-0.0421 0.280678,-0.05614 1.950706,-0.294711 0.280677,-0.02807 0.280678,-0.0421 0.280677,-0.02807 0.280676,-0.0421 m 3.129552,-0.266643 0.308744,-0.02807 1.23498,-0.05614 h 0.308744 l 0.294712,-0.01403 h 0.308744 l 0.308745,-0.01403 h 1.85247 l 0.308745,0.01403" />
  <path
     inkscape:connector-curvature="0"
     style="fill:#ffffff;fill-opacity:1;stroke:none;stroke-width:0.08"
     id="path3855"
     d="m 36.739945,14.722129 0.126305,-0.140339 0.112271,0.07017 v 0.421016 l -0.126305,0.308745 0.05614,0.322779 -0.168406,0.07017 -0.09824,-0.238575 -0.02807,-0.196475 0.0842,-0.477151 0.0421,-0.140338 0.01403,-0.01403 m -2.315587,-2.94711 0.112271,-0.140339 0.112271,0.07017 0.01403,0.421016 -0.126305,0.308745 0.0421,0.322778 -0.168406,0.05614 -0.09824,-0.224542 -0.01403,-0.196474 0.07017,-0.491184 0.07017,-0.154373 m -7.241472,4.967986 0.140339,-0.140339 -0.01403,-0.07017 0.18244,-0.01403 0.02807,-0.112271 -0.182441,-0.350846 -0.02807,-0.280678 -0.02807,-0.168406 -0.154373,0.196474 -0.07017,0.294712 v 0.18244 l 0.01403,0.11227 v 0.26663 l 0.112271,0.0842 0.01403,-0.01403 m -1.571792,-2.077011 0.154372,-0.140339 -0.01403,-0.07017 0.18244,-0.01403 0.02807,-0.11227 -0.18244,-0.350847 -0.02807,-0.280677 -0.02807,-0.168407 -0.09824,0.112271 -0.05614,0.0842 -0.07017,0.29471 v 0.182441 l 0.01403,0.11227 -0.01403,0.266643 0.112271,0.0842 0.01403,-0.01403 m 0.36488,-2.301553 0.140339,-0.140338 -0.01403,-0.0842 0.196475,-0.01403 0.01403,-0.112271 -0.07017,-0.154373 -0.09824,-0.18244 -0.0421,-0.294711 -0.01403,-0.154372 -0.154372,0.18244 -0.0842,0.308745 0.02807,0.294711 -0.01403,0.266643 0.112271,0.0842 0.01403,-0.01403 m 0.898167,-1.641962 0.140339,-0.154373 -0.01403,-0.07017 0.196474,-0.01403 0.02807,-0.11227 -0.182441,-0.3368132 -0.02807,-0.2947112 -0.02807,-0.1684064 -0.154372,0.1964744 -0.07017,0.3087448 v 0.1684066 l 0.01403,0.126305 -0.01403,0.252609 0.112271,0.09824 0.01403,-0.01403" />
  <path
     inkscape:connector-curvature="0"
     style="fill:#ffffff;fill-opacity:1;stroke:none;stroke-width:0.08"
     id="path3863"
     d="m 18.888877,45.147534 h -0.05614 l -0.477151,-0.11227 -0.477152,-0.421016 -0.09824,-0.210508 -0.140339,-0.154373 -0.140338,-0.09824 -0.196474,-0.126304 -0.280677,-0.112271 -0.294711,-0.140339 h -0.18244 l -0.294712,-0.09824 -0.196473,-0.0842 -0.154373,-0.0421 -0.378914,-0.07017 -0.54732,-0.32278 -0.308745,-0.533286 -0.0842,-0.505219 0.01403,-0.491185 0.05613,-0.350846 0.02807,-0.266644 v -0.322779 l -0.01403,-0.463117 v -0.392948 l 0.01403,-0.336812 -0.01403,-0.631524 0.02807,-0.196474 0.01403,-0.336813 V 38.0043 l 0.0842,-0.463117 V 37.38681 l -0.01403,-0.01403 -0.07017,-0.196475 -0.210508,-0.224541 -0.126304,-0.336813 -0.126305,-0.224542 v -0.575388 l 0.673625,-3.283923 0.05614,0.519253 0.02807,0.631524 0.01403,0.519253 -0.02807,0.336813 v 0.36488 l -0.01403,0.252609 0.01403,0.308745 0.02807,0.18244 0.0842,0.196474 0.0421,0.196474 0.126305,0.280678 0.05614,0.18244 0.210508,5.248663 0.11227,0.336813 0.0421,0.0842 0.07017,0.210507 0.196473,0.140339 0.0842,0.112271 0.14034,0.07017 -0.0842,-0.02807 0.224542,0.0842 0.05614,0.01403 h 0.0842 l 0.533287,0.02807 0.350846,0.18244 0.561355,0.196474 0.322779,0.25261 0.280677,0.308745 0.18244,0.392948 0.07017,0.126305 0.308745,0.05613 20.643806,-0.05613 0.350847,-0.43505 v -0.659591 l -0.09824,-0.519253 -0.112271,-0.350847 -0.09824,-0.79993 -0.05613,-0.378914 V 40.64266 l -0.02807,-0.43505 -0.01403,-0.561354 0.02807,-0.884133 -0.07017,-0.463118 -0.01403,-0.238575 0.01403,-0.294711 0.140338,-0.491185 0.0842,-0.701693 0.02807,-0.43505 v 0.01403 l 0.0842,-0.547321 0.05614,-0.280676 0.05613,-0.32278 0.0421,-0.378913 0.0842,-0.238576 0.05613,-0.294711 0.01403,-0.308745 -0.0421,-0.308745 -0.392949,-1.361284 -0.07017,-0.294711 -0.07017,-0.25261 -0.02807,-0.266643 -0.01403,-0.308745 0.05614,-0.421016 0.05613,-0.294711 0.11227,-0.29471 h 0.02807 l 0.154373,-0.280678 0.308745,-0.43505 0.05613,-0.238575 0.210508,-0.350847 0.09824,-0.18244 0.18244,-0.378914 0.126305,-0.350847 0.07017,-0.449083 0.09824,-0.926234 0.09824,-0.477152 0.140339,-0.435049 0.126305,-0.421016 0.168406,-0.392948 0.322779,-0.673626 0.140338,-0.210507 0.126305,-0.25261 0.168406,-0.252609 0.25261,-0.350847 0.238575,-0.294711 0.238576,-0.350846 0.238575,-0.406982 0.280678,-0.519253 0.168406,-0.406982 0.168406,-0.350846 0.140339,-0.392948 0.09824,-0.43505 0.18244,-0.449083 0.154373,-0.336813 0.126305,-0.36488 -0.0842,-0.308746 -0.126304,-0.18244 -0.280678,0.126305 -0.673625,0.631524 -0.280677,0.322779 -0.505219,0.771862 -0.182441,0.336813 -0.224541,0.280677 -0.25261,0.350846 -0.252609,0.25261 -0.210508,0.168406 -0.224541,0.140338 -0.350847,0.32278 -0.36488,0.266643 -0.196474,0.336813 -0.210508,0.29471 -0.18244,0.308745 -0.168406,0.252609 -0.210508,0.336813 -0.294712,0.294711 -0.36488,0.421016 -0.224542,0.280677 -0.561354,0.294711 -0.308745,-0.126304 -0.154372,-0.210508 -0.25261,-0.294712 -0.224541,-0.449083 -0.09824,-0.308745 0.02807,-0.406982 0.294711,-0.842031 0.18244,-0.350847 0.18244,-0.308744 0.182441,-0.210508 0.238575,-0.18244 0.154373,-0.350847 0.0842,-0.210508 0.196474,-0.196474 0.05614,-0.659591 0.280678,-0.210508 0.140338,-0.280677 -0.0421,-0.392948 0.140339,-0.112271 0.07017,-0.406982 -0.0421,-0.378914 L 39.322174,17.711331 39.097633,17.360484 38.732752,16.939468 38.409974,16.61669 38.14333,16.195674 38.07316,15.872895 38.05913,15.367676 38.0872,14.76422 38.07317,14.273036 37.98897,13.922189 37.764428,13.459072 37.525852,13.16436 37.175006,12.939819 36.894329,12.785446 36.515414,12.659141 36.1365,12.518803 l -0.266643,-0.18244 -0.210508,-0.224542 -0.224542,-0.224541 -0.224541,-0.238576 -0.168407,-0.224542 -0.294711,-0.09824 -0.11227,-0.140339 -0.126305,-0.07017 -1.136743,-0.0842 -0.308744,0.01403 -0.210508,0.02807 -0.463118,-0.09824 -0.322778,-0.02807 -0.50522,-0.210508 -0.350846,-0.238575 -0.308745,-0.0842 -0.280677,0.0842 -0.308745,-0.210508 -0.25261,-0.02807 -0.308745,-0.25261 L 29.316034,9.7541424 28.712578,9.4453976 27.407429,8.645468 h -0.09824 L 26.467161,8.4489936 25.91984,8.280588 24.670827,8.0981472 24.291912,8.1121816 23.870897,7.7332672 23.730559,7.649064 23.113068,7.5087256 22.649951,7.3543528 22.271037,7.1859464 21.807919,6.9333368 21.386904,6.5403888 21.12026,6.231644 20.979922,5.7965944 l -0.18244,-0.36488 -0.350847,-0.238576 -0.280677,-0.042102 h -0.406982 l -0.421016,-0.18244 -0.392948,-0.2526096 -0.322778,-0.18244 -0.463118,-0.2245416 -0.336813,-0.07017 -0.421015,0.1263048 -0.266643,0.056136 -0.463118,0.2666432 -0.505219,0.2245416 -0.350846,0.18244 -0.505219,0.238576 -0.43505,0.084203 L 14.538381,5.2773416 14.524347,5.23524 14.468211,4.9405296 14.369975,4.6458184 14.341907,4.3511072 14.412076,4.0704296 14.580483,3.7195832 14.833091,3.3126016 14.973431,2.9336872 14.706787,2.5407392 14.369975,2.456536 14.103331,2.5407392 13.429706,2.90562 12.868351,3.2003304 12.012286,3.7897528 11.493034,4.056396 10.847476,4.2528704 10.229986,4.3230392 9.8230042,4.3370736 9.4300562,4.3230392 9.0371082,4.3791752 8.6581938,4.4633784 8.377517,4.631784 8.2091106,4.9545632 8.0407042,5.3334776 7.7038914,6.4982872 7.6758242,7.0035064 v 0.421016 L 7.591621,7.8455376 7.4512818,8.6595016 7.353045,9.038416 7.1565714,9.5436352 6.9460634,9.85238 6.7916906,10.03482 6.3145394,10.273395 5.963693,10.189192 5.6689818,10.006752 5.360237,9.8383456 5.149729,9.85238 l -0.3227784,0.308745 -0.238576,0.322778 -0.2666432,0.406983 -0.2526096,0.491184 -0.2105072,0.463118 -0.1543728,0.43505 0.042102,0.645557 0.1684064,0.54732 0.2666432,0.378915 0.2245416,0.519252 0.1684064,0.449084 0.238576,0.673625 v 0.196474 l -0.2947112,0.715727 -0.575388,1.992808 0.014034,0.0842 0.1403384,0.350847 0.028068,0.463116 0.070169,0.364881 -0.042102,0.463117 -0.056135,0.182441 -0.098237,0.435049 -0.014034,0.280677 0.07017,0.364881 0.1122712,0.224542 0.210508,0.252609 0.3508464,0.252609 0.336812,0.210508 0.2806776,0.09824 0.4350496,0.140338 0.3087448,0.18244 0.5894224,0.533286 0.1964736,0.25261 0.18244,0.25261 0.1263048,0.09824 0.3508464,0.224542 0.2666432,0.112271 0.3087456,0.140339 0.3227784,0.18244 0.210508,0.196474 0.4490832,0.533286 0.2947112,0.196475 0.238576,0.238575 0.2385752,0.168406 -0.1543728,-0.0421 -0.2245416,0.01403 -0.2385752,-0.0842 -0.098237,-0.07017 h -0.07017 L 9.0090402,25.682573 8.8406338,25.5282 8.714329,25.500132 8.531889,25.387862 8.4055842,25.205422 8.167009,25.16332 7.7880946,25.037015 7.5775866,24.896676 6.6653858,23.92834 6.3706746,23.830103 6.202269,23.661697 5.9075578,23.451189 5.6970498,23.338918 5.4444402,23.226647 5.1637634,23.170512 4.7146794,23.016139 4.391901,22.707394 3.9007162,22.32848 3.6902082,22.117972 3.5077674,21.907465 3.4375986,21.668889 3.395497,21.360144 3.367429,20.882993 3.423565,20.377774 3.4375986,20.11113 3.4656666,19.830454 v -0.182441 l -0.056136,-0.238575 -0.084203,-0.210508 -0.098237,-0.18244 -0.098237,-0.224542 -0.056136,-0.505219 0.1543728,-0.238575 0.014034,-0.25261 0.056136,-0.280678 0.1403384,-0.154372 0.056135,-0.154372 0.014034,-0.322779 0.028068,-0.238576 0.056135,-0.336812 0.1263048,-0.182441 0.238576,-0.196473 L 4.09719,15.718533 4.139292,15.465923 4.209462,15.185246 4.1954266,14.848434 4.1112234,14.637926 3.998953,14.385316 3.7182754,13.866063 3.3253274,13.388912 3.0446506,13.16437 2.8060746,12.953862 2.6797698,12.771422 2.6938042,12.518813 2.820109,12.308305 3.0586842,12.055696 3.1709554,11.803086 3.2551586,11.592578 3.3393618,11.283834 3.4656666,10.876851 3.6621402,10.413734 3.9147498,10.062888 4.1954266,9.6980072 4.419969,9.4173304 4.6866122,9.1366528 4.9532554,8.9682464 5.149729,8.9542128 5.5146098,9.1506872 5.7391514,9.1927888 6.0198282,9.2068224 6.2584042,9.1927888 6.5110138,9.038416 6.6232842,8.827908 6.7074874,8.406892 6.8197586,7.6911656 V 7.5929288 L 6.9179954,7.0315744 7.142537,6.077272 7.170605,5.5159176 7.198673,5.1370032 7.2969098,4.6037168 7.4653162,4.3090056 7.7319594,3.8879896 8.0687722,3.691516 8.5178554,3.5511776 9.0371082,3.481008 9.5703946,3.45294 10.019479,3.4108384 10.636968,3.3687368 11.142187,3.2705 11.633372,3.1441952 12.194727,2.9477216 12.671878,2.7231792 13.149029,2.484604 l 0.280677,-0.1964744 0.350846,-0.2806768 0.322779,-0.18244 0.280677,-0.028068 0.364881,0.1403384 0.322778,0.1403392 0.477152,0.3789136 0.238575,0.042102 0.294711,-0.1122704 0.196474,-0.1263048 0.25261,-0.1403384 0.308745,-0.098238 0.378913,-0.070169 0.32278,-0.014034 0.308744,0.098238 0.224542,0.1684056 0.140338,0.2947112 0.05614,0.2806776 V 3.08806 l -0.02807,0.3368128 0.09824,0.2806768 0.210508,0.1684064 0.140339,0.098237 0.238576,0.210508 0.280676,0.1403384 0.280678,0.042102 0.659591,0.1543728 0.25261,0.070169 0.378914,0.056136 0.280677,0.1122704 0.140338,0.210508 0.196475,0.3227792 0.140338,0.2526088 0.18244,0.2806776 0.224542,0.2385752 0.210508,0.042102 0.336813,0.1684064 0.09824,0.1263048 0.280678,0.1684064 0.322778,0.1543728 0.350847,0.18244 0.294711,0.1403384 0.336813,0.210508 0.406981,0.084203 0.406983,0.028067 0.378913,0.042102 0.308745,0.1543728 0.519253,0.1403384 0.519253,0.1122712 0.505219,0.084203 0.477151,0.1263048 0.491185,0.210508 0.898167,0.5052184 0.463118,0.2526096 0.252609,0.07017 0.519253,0.4911848 0.743795,0.210508 0.813963,0.2806768 0.294711,0.196474 0.547321,0.09824 0.322778,0.02807 0.336813,0.0421 0.336813,0.01403 0.421016,0.02807 0.280677,0.140338 0.266643,0.05614 0.449083,0.210508 0.421016,0.140338 0.463118,0.364881 0.280676,0.378913 0.182441,0.294712 0.238575,0.224541 0.168407,0.05614 0.350846,0.154372 0.392948,0.154373 0.322779,0.18244 0.322779,0.308745 0.18244,0.322779 0.09824,0.266643 0.09824,0.378914 -0.01403,0.533287 -0.0421,0.589422 0.01403,0.322779 0.252608,0.505218 0.182441,0.25261 0.210508,0.224541 0.154372,0.25261 0.308745,0.308745 0.224542,0.308745 0.280677,0.54732 0.112271,0.350847 0.140339,0.350846 v 0.0842 l 0.01403,0.140339 -0.126304,0.322779 -0.280677,0.378914 -0.406983,0.406982 -0.266643,0.322778 -0.210508,0.378915 -0.126305,0.280677 -0.126304,0.350847 -0.168406,0.406981 -0.168406,0.43505 -0.154373,0.322778 -0.168407,0.308746 -0.140338,0.449083 -0.07017,0.266643 0.02807,0.25261 0.126305,0.154372 0.154373,0.112271 0.238575,-0.01403 0.238575,-0.18244 0.210508,-0.308746 0.210508,-0.266643 0.603456,-0.898167 0.463118,-0.561354 0.477151,-0.519253 0.224542,-0.252609 0.336813,-0.224542 0.350846,-0.308745 0.280677,-0.378914 0.09824,-0.266643 0.112271,-0.210508 0.378914,-0.308745 0.112271,-0.238576 0.09824,-0.294711 0.266643,-0.196474 0.36488,-0.238576 0.126305,-0.18244 0.210508,-0.196474 0.294711,-0.463117 0.112271,-0.505219 0.02807,-0.350847 0.0421,-0.36488 0.0842,-0.505219 0.0842,-0.350846 0.154372,-0.336813 0.252609,-0.196474 0.266644,-0.112271 0.252609,-0.126305 0.308745,-0.140338 0.238576,-0.05613 0.196474,0.05613 0.210508,0.196474 0.09824,0.168407 0.01403,0.168405 0.02807,0.575389 -0.0842,0.884133 -0.126305,0.477151 -0.25261,0.378914 -0.336813,0.378914 -0.589422,0.79993 -0.140338,0.533287 0.01403,0.421016 -0.05614,0.336813 -0.154372,0.336812 -0.154373,0.224542 -0.126305,0.463117 -0.05614,0.252609 -0.280677,0.799931 -0.36488,0.533286 -1.361284,1.866503 -0.154373,0.43505 -0.392948,0.519253 -0.168407,0.729761 -0.05613,0.687659 -0.01403,0.982369 0.0421,0.126305 -0.0421,0.266643 -0.01403,0.0421 0.05614,-0.308745 -0.0421,0.421016 -0.0842,0.154372 -0.238576,0.336813 -0.154372,0.266643 -0.266644,0.589423 -0.168405,0.477151 -0.0842,0.294711 -0.05614,0.61749 0.02807,0.280676 0.0842,0.32278 0.02807,0.421015 0.168405,0.421016 0.154373,0.491185 0.05614,0.449084 v 0.631523 l -0.09824,0.856065 -0.196475,0.631524 -0.05613,0.589422 -0.01403,0.406982 -0.0842,0.645557 -0.154373,0.505219 -0.01403,0.406982 0.0842,0.687659 -0.02807,0.870099 0.01403,0.575389 0.02807,0.43505 0.01403,0.505218 0.05614,0.406983 0.09824,0.827997 0.112271,0.36488 0.0842,0.463118 v 0.533286 l -0.140339,0.519253 -0.252609,0.519253 -0.322779,0.336813 -0.954302,0.0421 -20.419264,0.05613" />
  <path
     inkscape:connector-curvature="0"
     style="fill:none;stroke:#ffffff;stroke-width:0.2;stroke-linecap:butt;stroke-linejoin:round;stroke-miterlimit:10;stroke-dasharray:none;stroke-opacity:1"
     id="path3857"
     d="m 33.778801,22.32848 0.294711,-0.05613 0.308745,-0.07017 0.603456,-0.11227 0.308745,-0.0421 0.603456,-0.112271 0.308745,-0.0421 0.308744,-0.05613 1.529691,-0.210508" />
  <path
     inkscape:connector-curvature="0"
     style="fill:#ffffff;fill-opacity:1;stroke:none;stroke-width:0.08"
     id="path3859"
     d="m 32.136839,16.785106 0.0842,-0.18244 0.07017,-0.224542 0.05613,-0.154372 v -0.336813 l -0.18244,-0.112271 -0.140338,0.05614 -0.0842,0.05613 0.11227,0.322779 0.0842,0.575388 0.01403,-0.02807" />
  <path
     inkscape:connector-curvature="0"
     style="fill:none;stroke:#ffffff;stroke-width:0.2;stroke-linecap:butt;stroke-linejoin:round;stroke-miterlimit:10;stroke-dasharray:none;stroke-opacity:1"
     id="path3869"
     d="m 17.62583,27.984126 0.154372,-0.07017 0.140339,-0.0842 0.154372,-0.07017 0.140338,-0.0842 m -3.733006,2.301554 0.196474,-0.112272 0.09824,-0.07017 0.294711,-0.168407 0.09824,-0.07017 0.09824,-0.05614 m 7.620385,-3.915447 0.280677,-0.126305 0.842031,-0.336812 0.280677,-0.09824 0.561355,-0.224542 0.575388,-0.196473 0.280677,-0.112272 1.136743,-0.392948 0.294711,-0.0842 0.575388,-0.196473 0.856065,-0.25261 0.294712,-0.09824 0.575388,-0.168405 0.294711,-0.07017 0.589422,-0.168406 0.575388,-0.140339 0.294711,-0.0842 0.589422,-0.140338" />
  <path
     inkscape:connector-curvature="0"
     style="fill:#603311;fill-opacity:1;stroke:none;stroke-width:0.08"
     id="path3835"
     d="m 17.232882,4.0002608 -0.421016,-0.014034 -0.266643,0.070169 -0.378915,0.2666432 -0.266643,0.238576 -0.350846,0.1964736 -0.350847,0.042102 -0.196474,-0.1684064 -0.01403,-0.154372 0.280678,-0.5894224 0.210507,-0.3227784 0.224542,-0.210508 0.322779,-0.18244 0.266643,-0.1684064 0.238576,-0.2806776 0.29471,-0.3087448 0.280678,-0.1263048 0.238575,-0.014034 0.224543,0.098237 0.09824,0.1824408 -0.01403,0.336812 -0.05614,0.1964744 0.07017,0.3227784 -0.154372,0.421016 -0.280677,0.1684064 h -0.02807 m 27.6046,13.3181322 -0.154372,-0.18244 0.07017,-0.168407 0.07017,-0.210508 v -0.266643 l 0.05613,-0.336813 0.14034,-0.252609 0.18244,-0.25261 0.126304,-0.350846 0.43505,-0.378915 0.210507,-0.11227 0.154373,0.140338 -0.09824,0.238576 -0.09824,0.308745 0.02807,0.280677 -0.02807,0.350846 0.01403,0.308745 -0.154373,0.238576 -0.154372,0.294711 -0.154373,0.154372 -0.196473,0.0842 -0.449084,0.112271 -0.01403,-0.02807" />
  <path
     inkscape:connector-curvature="0"
     style="fill:#ffffff;fill-opacity:1;stroke:none;stroke-width:0.08"
     id="path3835-8"
     d="M 10.033527,25.570302 9.780917,25.135252 9.416037,24.756338 9.0371226,24.419525 8.5599714,24.11078 7.577601,23.605562 7.212721,23.352952 6.974145,23.016139 6.8478402,22.875801 7.0723826,22.665293 7.5074322,22.356548 7.633737,22.160074 7.8723122,21.9636 l 0.968336,-0.364881 0.5052192,-0.126304 0.5052192,-0.154373 0.6034564,-0.266643 0.519252,-0.252609 0.659592,-0.224542 0.617489,-0.18244 0.547321,-0.280678 0.336812,-0.11227 1.150777,-0.491186 0.561354,-0.18244 0.575388,-0.350846 0.392948,-0.294711 0.491185,-0.18244 0.589422,0.01403 0.68766,-0.01403 1.27708,-0.154373 0.547321,-0.0421 0.61749,-0.168405 0.968336,-0.25261 0.519253,-0.154373 0.336812,-0.02807 0.238576,0.126304 -0.01403,0.182441 0.0842,0.09824 0.140339,0.322778 0.0421,0.112271 0.01403,0.09824 0.09824,-0.0421 0.0421,-0.168407 0.07017,-0.126305 0.168406,-0.210507 0.168406,0.0842 0.196474,-0.350847 0.210508,-0.196473 0.18244,0.0421 0.02807,0.477151 -0.182441,1.220946 -0.05614,0.491185 0.02807,0.266643 0.07017,0.154373 0.05614,0.18244 -0.07017,0.224541 -0.0421,0.280678 -0.01403,0.266643 -0.09824,0.168407 0.01403,0.02807 -0.491185,0.0842 -0.25261,0.09824 -0.463117,0.0842 -0.266643,0.01403 -0.140339,0.0421 -1.05254,0.196474 -0.435049,0.112271 -0.126304,-0.168407 -0.05614,0.01403 -0.533287,0.196473 -0.561354,0.18244 -0.25261,0.154373 -0.505218,0.0842 -0.350847,0.154372 -0.421016,0.196475 -0.154372,-0.140339 -0.224542,0.112271 -0.36488,0.308745 -0.364881,0.18244 -0.421016,0.252609 -0.11227,-0.09824 -0.491185,0.294712 -0.561354,0.294711 -0.575389,0.18244 -0.463117,0.196473 -0.336813,0.112272 -0.09824,-0.18244 -0.280677,0.126304 -0.350847,0.168407 -0.280676,0.210507 -0.238576,0.140339 -0.36488,0.07017 -0.449084,0.112271 -0.0421,-0.18244 -0.378914,0.112271 -0.322779,0.168406 -0.224541,0.154373 -0.18244,0.09824" />
  <g
     style="font-style:normal;font-variant:normal;font-weight:normal;font-stretch:normal;font-size:111.60713959px;line-height:125%;font-family:'Roadgeek 2005 Series EM';-inkscape-font-specification:'Roadgeek 2005 Series EM';text-align:start;letter-spacing:0px;word-spacing:0px;writing-mode:lr-tb;text-anchor:start;fill:#fcd116;fill-opacity:1;stroke:none"
     id="text4876"
     transform="matrix(0.08,0,0,0.08,-9.8387646,-15.008228)">
    <path
       inkscape:connector-curvature="0"
       style="letter-spacing:3.3976841"
       id="path5651"
       d="M 239.50241,587.60284 229.23455,559.47785 H 209.5917 v 28.12499 h -14.73214 v -74.99999 h 33.81696 c 1.56245,7e-5 2.93894,0.0745 4.12946,0.22321 1.26483,0.0745 2.41811,0.22329 3.45982,0.44643 1.11602,0.22329 2.15769,0.55811 3.125,1.00446 0.96721,0.3721 1.97167,0.85573 3.0134,1.4509 3.64577,2.0834 6.51035,4.91078 8.59375,8.48214 2.08326,3.57149 3.12493,7.47773 3.125,11.71875 -7e-5,4.09231 -0.93013,7.88695 -2.79018,11.38393 -1.86019,3.49706 -4.50155,6.36164 -7.92411,8.59375 l 11.83036,31.69642 h -15.73661 m 0,-51.6741 c -5e-5,-2.3809 -0.89291,-4.35262 -2.67857,-5.91518 -1.78576,-1.63685 -4.05511,-2.4553 -6.80804,-2.45536 h -20.4241 v 16.96429 h 20.4241 c 2.75293,4e-5 5.02228,-0.78121 6.80804,-2.34375 1.78566,-1.56245 2.67852,-3.64579 2.67857,-6.25" />
    <path
       inkscape:connector-curvature="0"
       style="letter-spacing:3.3976841"
       id="path5653"
       d="m 334.71266,556.91088 c -7e-5,3.79467 -0.29769,6.95687 -0.89286,9.48661 -0.59531,2.45537 -1.63697,4.98513 -3.125,7.58928 -1.26494,2.23216 -2.82744,4.27829 -4.6875,6.1384 -1.78577,1.78572 -3.7947,3.34821 -6.02678,4.6875 -2.2322,1.33928 -4.61315,2.34375 -7.14286,3.01339 -2.52981,0.74405 -5.13397,1.11607 -7.8125,1.11607 -4.0923,0 -7.99855,-0.78125 -11.71875,-2.34375 -3.64586,-1.5625 -6.88246,-3.68303 -9.70982,-6.36161 -2.8274,-2.67856 -5.09674,-5.80356 -6.80804,-9.375 -1.63691,-3.5714 -2.45536,-7.36604 -2.45535,-11.38392 v -2.56697 -44.30803 h 14.73214 v 44.30803 2.12054 c -3e-5,2.00895 0.4464,3.94347 1.33928,5.80357 0.89283,1.78573 2.04611,3.38543 3.45983,4.7991 1.48806,1.33931 3.16216,2.41818 5.02232,3.23661 1.93448,0.74406 3.90621,1.11609 5.91518,1.11607 2.75293,2e-5 5.31989,-0.66963 7.70089,-2.00893 2.4553,-1.33926 4.35262,-3.19938 5.69196,-5.58035 0.37197,-0.74403 0.66959,-1.41367 0.89286,-2.00893 0.29756,-0.59522 0.48357,-1.22765 0.55803,-1.89732 0.14876,-0.74402 0.22316,-1.52527 0.22322,-2.34375 0.0743,-0.89283 0.11155,-1.9717 0.11161,-3.23661 v -44.30803 h 14.73214 v 44.30803 0" />
    <path
       inkscape:connector-curvature="0"
       style="letter-spacing:3.3976841"
       id="path5655"
       d="m 417.29736,565.61624 c -7e-5,3.94347 -0.96733,7.6637 -2.90178,11.16071 -1.93459,3.42263 -4.53876,6.06399 -7.8125,7.92411 -2.2322,1.33929 -5.13399,2.38095 -8.70536,3.125 -3.57148,0.74405 -7.1429,1.11607 -10.71429,1.11607 -4.2411,0 -8.33336,-0.55804 -12.27678,-1.67411 -3.94348,-1.19047 -7.5521,-2.90178 -10.82589,-5.13393 -1.19049,-0.66963 -2.30657,-1.41368 -3.34822,-2.23214 -0.96727,-0.81844 -2.30656,-2.00892 -4.01786,-3.57143 l 10.49108,-10.49107 c 3.12497,2.90181 6.24997,4.98514 9.375,6.25 3.19937,1.2649 6.99401,1.89734 11.38392,1.89732 4.31544,2e-5 7.81246,-0.70683 10.49107,-2.12053 2.75293,-1.41368 4.12941,-3.4226 4.12947,-6.02679 -6e-5,-1.04164 -0.29767,-2.19491 -0.89286,-3.45982 -0.59529,-1.26485 -1.41374,-2.23211 -2.45536,-2.90178 -0.66969,-0.372 -1.37653,-0.70682 -2.12053,-1.00447 -0.7441,-0.37199 -1.67415,-0.70681 -2.79018,-1.00446 -1.04171,-0.29759 -2.381,-0.59521 -4.01786,-0.89286 -1.56254,-0.37199 -3.57146,-0.78122 -6.02678,-1.22768 -4.01789,-0.96723 -7.25449,-1.86008 -9.70982,-2.67857 -2.45538,-0.89282 -4.46431,-1.86008 -6.02679,-2.90179 -2.52978,-1.71127 -4.5387,-4.05501 -6.02678,-7.03125 -1.41371,-2.97614 -2.12055,-6.02673 -2.12054,-9.15178 -1e-5,-3.79459 0.89284,-7.32881 2.67857,-10.60268 1.8601,-3.27374 4.46427,-5.87791 7.8125,-7.8125 2.08331,-1.26481 4.38986,-2.19487 6.91964,-2.79018 2.52973,-0.59516 5.46872,-0.89278 8.81697,-0.89285 4.24103,7e-5 8.25888,0.4837 12.05357,1.45089 3.86899,0.96733 7.36601,2.41822 10.49107,4.35268 0.81839,0.5209 1.48803,1.00453 2.00893,1.45089 0.59517,0.37209 1.48803,1.04173 2.67857,2.00893 l -9.15179,11.71875 c -3.05064,-2.23209 -6.02683,-3.79459 -8.92857,-4.6875 -2.90183,-0.8928 -6.13843,-1.33923 -9.70982,-1.33929 -3.42265,6e-5 -6.13842,0.5953 -8.14732,1.78572 -1.93455,1.19053 -2.90181,2.97624 -2.90178,5.35714 -3e-5,0.89291 0.26039,1.82297 0.78125,2.79018 0.5208,0.8929 1.22765,1.52534 2.12053,1.89732 0.66961,0.37207 1.37646,0.66969 2.12054,0.89286 0.74401,0.14885 1.52526,0.37207 2.34375,0.66964 l 2.34375,0.22321 2.67857,0.55804 3.34821,0.55803 c 8.77971,1.56255 15.40173,4.38993 19.86607,8.48215 4.46422,4.01789 6.69636,9.33782 6.69643,15.95982" />
    <path
       inkscape:connector-curvature="0"
       style="letter-spacing:3.3976841"
       id="path5657"
       d="m 466.95096,527.5582 v 60.04464 H 452.55364 V 527.5582 h -20.75893 v -14.95535 h 55.58036 v 14.95535 h -20.42411" />
    <path
       inkscape:connector-curvature="0"
       style="letter-spacing:3.3976841"
       id="path5659"
       d="m 504.47079,587.60284 v -74.99999 h 14.95536 v 74.99999 h -14.95536" />
    <path
       inkscape:connector-curvature="0"
       style="letter-spacing:3.3976841"
       id="path5661"
       d="m 601.31331,572.42427 c -3.34828,5.28275 -7.25453,9.37501 -11.71875,12.27679 -4.38994,2.82738 -9.85868,4.24107 -16.40625,4.24107 -5.43158,0 -10.19348,-1.07887 -14.28572,-3.23661 -4.01787,-2.23214 -7.40329,-5.17112 -10.15625,-8.81696 -2.67858,-3.64582 -4.68751,-7.77528 -6.02678,-12.38839 -1.3393,-4.68748 -2.00894,-9.48658 -2.00893,-14.39732 -1e-5,-5.80353 0.78124,-11.04906 2.34375,-15.73661 1.63689,-4.76185 3.90624,-8.8169 6.80804,-12.16518 2.90176,-3.42255 6.36158,-6.06392 10.37946,-7.92411 4.09223,-1.86004 8.59371,-2.7901 13.50446,-2.79017 2.97615,7e-5 5.84073,0.37209 8.59375,1.11607 2.75293,0.74412 5.31989,1.82299 7.7009,3.2366 2.38089,1.33936 4.50142,3.05067 6.3616,5.13393 1.93446,2.009 3.57136,4.27834 4.91072,6.80804 l -13.16965,7.03125 c -1.71136,-2.82733 -3.86909,-4.91066 -6.47321,-6.25 -2.60421,-1.41363 -5.43159,-2.12048 -8.48214,-2.12054 -2.67861,6e-5 -5.09676,0.5581 -7.25447,1.67411 -2.15776,1.11613 -4.01788,2.71583 -5.58035,4.79911 -1.48812,2.00898 -2.6414,4.50153 -3.45982,7.47767 -0.81848,2.90183 -1.22771,6.13844 -1.22768,9.70983 -3e-5,3.64586 0.4092,6.95687 1.22768,9.93303 0.81842,2.90181 1.9717,5.39437 3.45982,7.47768 1.56247,2.08335 3.42259,3.68305 5.58035,4.79911 2.15771,1.11608 4.57586,1.67412 7.25447,1.6741 3.05055,2e-5 5.87793,-0.70683 8.48214,-2.12053 2.60412,-1.48808 4.76185,-3.68302 6.47321,-6.58482 l 13.16965,7.14285 v 0" />
  </g>
  <g
     style="font-style:normal;font-variant:normal;font-weight:normal;font-stretch:normal;font-size:111.60713959px;line-height:125%;font-family:'Roadgeek 2005 Series EM';-inkscape-font-specification:'Roadgeek 2005 Series EM';text-align:start;letter-spacing:0px;word-spacing:0px;writing-mode:lr-tb;text-anchor:start;fill:#fcd116;fill-opacity:1;stroke:none"
     id="text4880"
     transform="matrix(0.08,0,0,0.08,-9.8387646,-15.008228)">
    <path
       inkscape:connector-curvature="0"
       style="letter-spacing:-4.32432413"
       id="path5642"
       d="m 370.75243,711.26355 -10.26786,-28.125 h -19.64286 v 28.125 h -14.73214 v -75 h 33.81696 c 1.56246,8e-5 2.93894,0.0745 4.12947,0.22322 1.26483,0.0745 2.4181,0.22329 3.45982,0.44642 1.11602,0.22329 2.15768,0.55811 3.125,1.00447 0.96721,0.3721 1.97167,0.85573 3.01339,1.45089 3.64577,2.0834 6.51035,4.91078 8.59375,8.48214 2.08327,3.57149 3.12493,7.47774 3.125,11.71875 -7e-5,4.09231 -0.93013,7.88695 -2.79018,11.38393 -1.86018,3.49706 -4.50155,6.36164 -7.9241,8.59375 l 11.83035,31.69643 h -15.7366 m 0,-51.67411 c -6e-5,-2.38089 -0.89291,-4.35262 -2.67857,-5.91517 -1.78577,-1.63685 -4.05511,-2.4553 -6.80804,-2.45536 h -20.42411 v 16.96428 h 20.42411 c 2.75293,5e-5 5.02227,-0.7812 6.80804,-2.34375 1.78566,-1.56245 2.67851,-3.64578 2.67857,-6.25" />
    <path
       inkscape:connector-curvature="0"
       style="letter-spacing:-4.32432413"
       id="path5644"
       d="m 457.45942,673.76355 c -7e-5,5.95241 -0.74412,11.34675 -2.23215,16.18304 -1.48816,4.76192 -3.60869,8.81697 -6.3616,12.16517 -2.67863,3.34822 -5.95244,5.95239 -9.82143,7.8125 -3.8691,1.78572 -8.14737,2.67857 -12.83482,2.67858 -5.6548,-10e-6 -10.4911,-1.07887 -14.50893,-3.23661 -3.94347,-2.23214 -7.18008,-5.17113 -9.70982,-8.81697 -2.52978,-3.64581 -4.38989,-7.77527 -5.58036,-12.38839 -1.11608,-4.68747 -1.67411,-9.48657 -1.67411,-14.39732 0,-5.87793 0.70684,-11.19787 2.12054,-15.95982 1.48808,-4.76185 3.57141,-8.8169 6.25,-12.16518 2.75296,-3.34814 6.06397,-5.91511 9.93303,-7.70089 3.94343,-1.86004 8.3333,-2.7901 13.16965,-2.79018 4.53864,8e-5 8.70531,0.93014 12.5,2.79018 3.79458,1.86019 7.06839,4.50156 9.82142,7.92411 2.82732,3.34827 5.02226,7.40333 6.58483,12.16517 1.56243,4.68755 2.34368,9.93308 2.34375,15.73661 m -14.73215,-0.33482 c -5e-5,-8.11007 -1.45094,-14.02525 -4.35267,-17.74554 -2.82743,-3.72017 -6.88249,-5.58029 -12.16518,-5.58035 -5.35718,6e-5 -9.44944,1.97178 -12.27679,5.91518 -2.8274,3.9435 -4.24109,9.85867 -4.24107,17.74553 -2e-5,7.66372 1.41367,13.57889 4.24107,17.74554 2.90176,4.09227 6.99402,6.1384 12.27679,6.13839 5.13388,10e-6 9.15173,-2.19493 12.05357,-6.58482 2.97613,-4.38986 4.46423,-10.26783 4.46428,-17.63393" />
    <path
       inkscape:connector-curvature="0"
       style="letter-spacing:-4.32432413"
       id="path5646"
       d="M 523.37086,711.26355 516.228,693.62962 h -29.57589 l -7.14286,17.63393 h -15.95982 l 30.13393,-75 h 15.51339 l 30.13393,75 h -15.95982 m -21.54018,-53.57143 -9.15179,20.98215 h 17.52232 l -8.37053,-20.98215" />
    <path
       inkscape:connector-curvature="0"
       style="letter-spacing:-4.32432413"
       id="path5648"
       d="m 608.93737,673.76355 c -7e-5,5.7292 -0.89293,10.90032 -2.67857,15.51339 -1.78578,4.61312 -4.31554,8.55656 -7.58929,11.83036 -3.19946,3.19941 -7.06851,5.69197 -11.60714,7.47768 -4.53874,1.78571 -9.59826,2.67857 -15.17857,2.67857 h -23.3259 v -75 h 23.3259 c 5.65472,8e-5 10.75144,0.89293 15.29017,2.67857 4.53864,1.78579 8.40769,4.31555 11.60715,7.58929 3.27374,3.27387 5.7663,7.21732 7.47768,11.83036 1.78564,4.61314 2.6785,9.74706 2.67857,15.40178 m -14.73215,0 c -5e-5,-7.14281 -1.89737,-12.68596 -5.69196,-16.62946 -3.79469,-3.9434 -9.07742,-5.91512 -15.84821,-5.91518 h -9.375 v 45.08928 h 9.375 c 6.77079,2e-5 12.05352,-1.97171 15.84821,-5.91518 3.79459,-3.94342 5.69191,-9.48657 5.69196,-16.62946" />
  </g>
  <path
     inkscape:connector-curvature="0"
     style="fill:#fcd116;fill-opacity:1;stroke:none;stroke-width:0.08"
     id="path3851-4"
     d="m 6.3285738,22.047803 v -0.210508 l 0.084202,-0.09824 0.042102,-0.154372 -0.042102,-0.168407 h -0.126304 l -0.1684064,0.18244 -0.1403392,-0.0842 -0.098237,0.112271 -0.1684064,0.07017 -0.210508,0.196473 H 5.1918306 l -0.210508,-0.0842 -0.154372,-0.140338 -0.1403384,-0.196474 0.028067,-0.294711 0.084203,-0.25261 0.014034,-0.196474 0.336812,-0.29471 0.1263048,0.01403 0.2526096,0.01403 0.4771512,0.07017 0.028068,0.43505 0.336812,0.05613 0.3227792,-0.01403 0.1964736,0.01403 0.3508472,-0.11227 0.154372,-0.224543 0.2526096,0.02807 h 0.1122704 l 0.3929488,-0.0842 0.7016928,-0.210508 0.154372,0.07017 0.3648808,-0.140339 0.3087448,-0.168406 0.1263048,-0.112271 0.2806762,-0.154372 0.266644,-0.182441 0.266643,-0.140338 0.196474,-0.126305 0.140339,-0.01403 h 0.168406 l 0.126305,-0.07017 0.406981,-0.252609 0.14034,0.11227 0.210507,0.112271 0.280677,-0.07017 0.336813,-0.210508 0.266643,-0.210508 0.50522,-0.533287 0.463116,-0.294711 0.392948,-0.126305 h 0.238576 l 0.336812,0.0421 0.449084,0.02807 0.813964,-0.0421 0.266644,-0.09824 0.252609,-0.07017 0.266643,-0.0842 0.224542,-0.126305 0.0842,0.09824 0.266643,-0.05614 0.25261,0.0842 0.421015,-0.0421 0.196475,-0.05614 0.02807,-0.02807 0.36488,-0.07017 0.126304,-0.05614 0.238576,0.0421 h 0.126304 l 0.224543,0.02807 0.266643,-0.01403 0.154372,-0.01403 0.561354,-0.18244 0.09824,-0.112271 0.25261,0.07017 h 0.224541 l 0.210508,-0.02807 0.308745,0.02807 0.224543,0.0421 -0.126305,0.05614 -0.126305,0.112271 -0.266643,0.05614 -0.126305,-0.02807 -0.25261,0.0842 -0.36488,0.07017 h -0.491185 l -0.43505,0.126305 -0.421016,0.05614 -0.196473,-0.0421 -0.771863,0.18244 -0.336813,0.0421 -0.154372,-0.126305 -0.449084,0.140339 -0.561353,0.07017 -0.350847,0.07017 -0.449084,0.02807 -0.294711,0.126305 -0.505218,0.09824 -0.729761,0.05614 -0.421016,0.182441 -0.378914,0.210507 -0.36488,0.238576 -0.406982,0.336813 -0.519253,0.392948 -0.210508,0.09824 -0.364881,-0.01403 -0.252608,0.01403 -0.43505,-0.02807 -0.350847,0.0842 -0.533287,0.336812 -0.3789138,0.280677 -0.098237,0.09824 -0.6736248,0.18244 -0.5192528,0.18244 -0.3368128,0.126305 -0.4631176,0.238576 -0.1263048,0.05614 -0.1263048,0.09824 -0.2947104,0.09824 -0.2526096,0.112272 -0.4911848,0.252609" />
  <path
     inkscape:connector-curvature="0"
     style="fill:#fcd116;fill-opacity:1;stroke:none;stroke-width:0.08"
     id="path3859-9"
     d="m 35.659338,23.479257 -0.98237,-0.0421 -0.378914,-0.154373 -0.01403,0.01403 -0.477151,0.266643 -0.421016,0.0842 -0.310529,-0.117085 0.02985,-0.542507 0.01403,-0.477151 0.18244,-0.533286 0.18244,-1.263048 0.112271,-0.463117 0.168406,-0.505219 0.308745,-1.23498 0.09824,-0.54732 0.02807,-0.631524 0.0421,-0.336812 0.378914,-0.827998 0.140338,-0.336812 -0.743794,0.715726 -0.322779,0.350847 -0.140339,0.280677 -0.0421,0.350847 -0.0842,0.350846 -0.01403,0.36488 -0.07017,0.336813 -0.112271,0.43505 -0.224541,0.294711 -0.210508,0.406981 -0.210508,0.364881 -0.266644,-0.182441 -0.05614,-0.210508 -0.0421,-0.336812 -0.154372,-0.336812 -0.210508,-0.421016 -0.140339,-0.561355 -0.0842,-0.406981 -0.112271,-0.421016 -0.154373,-0.43505 -0.140338,-0.463117 -0.140339,-0.364881 -0.112271,-0.336812 -0.168406,-0.02807 -0.02807,0.322779 0.01403,0.18244 0.09824,0.603456 0.05614,0.294711 0.0421,0.336813 -0.01403,0.378914 -0.0421,0.43505 -0.196473,0.0842 -0.238576,-0.224541 -0.18244,-0.238576 -0.266643,-0.322779 -0.196474,-0.196473 -0.238576,-0.25261 -0.25261,-0.280677 -0.210508,-0.182441 -0.168406,-0.238575 v 0.0842 l -0.02807,0.18244 -0.09824,0.05614 -0.05614,0.0842 0.364881,0.631524 0.224541,0.252609 0.266644,0.196474 0.266643,0.238576 0.18244,0.210507 0.252609,0.238576 0.196475,0.196475 0.196473,0.252608 0.238576,0.224543 0.18244,0.18244 0.02807,0.154372 0.02807,0.449084 0.126304,0.252609 0.238576,0.350847 0.0842,0.154372 0.154372,0.18244 0.112271,0.631524 0.02807,0.54732 0.05614,0.729761 0.05613,0.505219 0.01403,0.505219 -0.05968,-0.0112 -0.291164,0.109433 -0.308744,0.18244 -0.336813,0.112271 -0.378914,-0.02807 -0.371897,0.18244 0.245592,0.0421 0.154372,0.09824 0.449084,-0.05613 0.421016,-0.0421 0.61749,0.02807 0.898166,-0.350847 m 0,0 0.533288,0.07017 0.238575,-0.126305 0.308745,-0.09824 0.435049,-0.0421 0.645558,-0.126305 0.36488,-0.238575" />
  <path
     style="opacity:1;fill:#603311;fill-opacity:1;stroke:#fcd116;stroke-width:0.9672178;stroke-miterlimit:4;stroke-dasharray:none;stroke-opacity:1"
     d="m 2.7062426,48.414334 c -1.2558921,0 -2.26631068,0.985844 -2.26631068,2.211189 v 18.855753 c 0,1.225346 1.01041858,2.211189 2.26631068,2.211189 H 45.293758 c 1.255891,0 2.26631,-0.985843 2.26631,-2.211189 V 50.625523 c 0,-1.225345 -1.010419,-2.211189 -2.26631,-2.211189 z"
     id="rect910"
     inkscape:connector-curvature="0" />
  <text
     xml:space="preserve"
     style="font-style:normal;font-variant:normal;font-weight:normal;font-stretch:normal;font-size:21.33333333px;line-height:125%;font-family:'Roadgeek 2005 Series C';-inkscape-font-specification:'Roadgeek 2005 Series C, Normal';font-variant-ligatures:normal;font-variant-caps:normal;font-variant-numeric:normal;font-feature-settings:normal;text-align:center;letter-spacing:0px;word-spacing:0px;writing-mode:lr;text-anchor:middle;fill:#fcd116;fill-opacity:1;stroke:none;stroke-width:1px;stroke-linecap:butt;stroke-linejoin:miter;stroke-opacity:1;"
     x="23.638666"
     y="67.606606"
     id="text915"><tspan
       sodipodi:role="line"
       id="tspan917">%num%</tspan></text>
</svg>
